<svg xmlns="http://www.w3.org/2000/svg" xmlns:xlink="http://www.w3.org/1999/xlink" width="442.051" height="292.81" viewBox="0 0 442.051 292.81">
  <defs>
    <clipPath id="clip-path">
      <path id="Trazado_165434" data-name="Trazado 165434" d="M0,4.151A4.149,4.149,0,1,0,4.148,0,4.148,4.148,0,0,0,0,4.151" fill="#2efec7"/>
    </clipPath>
    <clipPath id="clip-path-2">
      <path id="Trazado_165438" data-name="Trazado 165438" d="M4.147,0A4.148,4.148,0,1,0,8.3,4.15,4.148,4.148,0,0,0,4.147,0Z" fill="#2efec7"/>
    </clipPath>
    <clipPath id="clip-path-3">
      <path id="Trazado_165440" data-name="Trazado 165440" d="M0,4.151A4.148,4.148,0,1,0,4.148,0,4.149,4.149,0,0,0,0,4.151" fill="#2efec7"/>
    </clipPath>
    <clipPath id="clip-path-4">
      <path id="Trazado_165442" data-name="Trazado 165442" d="M0,4.149A4.148,4.148,0,1,0,4.148,0,4.148,4.148,0,0,0,0,4.149" fill="#2efec7"/>
    </clipPath>
    <clipPath id="clip-path-5">
      <path id="Trazado_165444" data-name="Trazado 165444" d="M4.146,0A4.148,4.148,0,1,0,8.3,4.149,4.147,4.147,0,0,0,4.146,0Z" fill="#2efec7"/>
    </clipPath>
    <clipPath id="clip-path-6">
      <path id="Trazado_165446" data-name="Trazado 165446" d="M0,4.151A4.149,4.149,0,1,0,4.148,0,4.149,4.149,0,0,0,0,4.151" fill="#2efec7"/>
    </clipPath>
    <clipPath id="clip-path-7">
      <path id="Trazado_165448" data-name="Trazado 165448" d="M0,4.149A4.149,4.149,0,1,0,4.15,0h0A4.153,4.153,0,0,0,0,4.149" fill="#2efec7"/>
    </clipPath>
    <clipPath id="clip-path-8">
      <path id="Trazado_165450" data-name="Trazado 165450" d="M4.146,0A4.148,4.148,0,1,0,8.3,4.15,4.147,4.147,0,0,0,4.146,0Z" fill="#2efec7"/>
    </clipPath>
    <clipPath id="clip-path-9">
      <path id="Trazado_165452" data-name="Trazado 165452" d="M0,4.151A4.148,4.148,0,1,0,4.147,0,4.148,4.148,0,0,0,0,4.151" fill="#2efec7"/>
    </clipPath>
    <clipPath id="clip-path-10">
      <path id="Trazado_165454" data-name="Trazado 165454" d="M0,4.149A4.148,4.148,0,1,0,4.147,0,4.147,4.147,0,0,0,0,4.149" fill="#2efec7"/>
    </clipPath>
    <clipPath id="clip-path-12">
      <path id="Trazado_165436" data-name="Trazado 165436" d="M0,4.149A4.149,4.149,0,1,0,4.149,0h0A4.153,4.153,0,0,0,0,4.149" fill="#2efec7"/>
    </clipPath>
    <linearGradient id="linear-gradient" x1="0.5" x2="0.5" y2="1" gradientUnits="objectBoundingBox">
      <stop offset="0" stop-color="#fff"/>
      <stop offset="1" stop-color="#d2e6ee"/>
    </linearGradient>
    <linearGradient id="linear-gradient-2" x1="0.167" y1="-0.077" x2="0.833" y2="1.077" gradientUnits="objectBoundingBox">
      <stop offset="0" stop-color="#b1b2f3"/>
      <stop offset="1" stop-color="#9d9ef0"/>
    </linearGradient>
    <linearGradient id="linear-gradient-5" x1="0.314" y1="-0.604" x2="0.686" y2="1.604" xlink:href="#linear-gradient-2"/>
    <linearGradient id="linear-gradient-7" x1="0.5" x2="0.5" y2="1" gradientUnits="objectBoundingBox">
      <stop offset="0" stop-color="#4dd0e1"/>
      <stop offset="1" stop-color="#039be5"/>
    </linearGradient>
  </defs>
  <g id="Grupo_1078035" data-name="Grupo 1078035" transform="translate(415.662 3530.904)">
    <g id="Grupo_1078034" data-name="Grupo 1078034">
      <g id="Grupo_1078033" data-name="Grupo 1078033">
        <g id="Grupo_1077828" data-name="Grupo 1077828" transform="translate(5352 -9438)">
          <g id="Grupo_1077781" data-name="Grupo 1077781" transform="translate(-5834.662 5911.483)">
            <rect id="Rectángulo_373681" data-name="Rectángulo 373681" width="12.041" height="70.838" rx="6.021" transform="translate(500.537 0) rotate(45)" fill="#ffb476"/>
            <g id="Grupo_1065536" data-name="Grupo 1065536" transform="translate(408.6 284.035) rotate(-90)">
              <g id="Group_881454" data-name="Group 881454" transform="translate(0 67.421)">
                <g id="Grupo_108438" data-name="Grupo 108438">
                  <path id="Trazado_165433" data-name="Trazado 165433" d="M0,4.151A4.149,4.149,0,1,0,4.148,0,4.148,4.148,0,0,0,0,4.151" fill="#2efec7"/>
                  <g id="Grupo_108437" data-name="Grupo 108437" clip-path="url(#clip-path)">
                    <g id="Group_881453" data-name="Group 881453" transform="translate(0 0)">
                      <rect id="Rectangle_298909" data-name="Rectangle 298909" width="8.297" height="8.297" fill="#2efec7"/>
                    </g>
                  </g>
                </g>
              </g>
              <g id="Group_881458" data-name="Group 881458" transform="translate(0.001)">
                <g id="Grupo_108442" data-name="Grupo 108442">
                  <path id="Trazado_165437" data-name="Trazado 165437" d="M4.147,0A4.148,4.148,0,1,0,8.3,4.15,4.148,4.148,0,0,0,4.147,0Z" fill="#2efec7"/>
                  <g id="Grupo_108441" data-name="Grupo 108441" clip-path="url(#clip-path-2)">
                    <g id="Group_881457" data-name="Group 881457" transform="translate(-0.001 0.001)">
                      <rect id="Rectangle_298911" data-name="Rectangle 298911" width="8.297" height="8.295" fill="#2efec7"/>
                    </g>
                  </g>
                </g>
              </g>
              <g id="Group_881460" data-name="Group 881460" transform="translate(28.117 67.421)">
                <g id="Grupo_108444" data-name="Grupo 108444">
                  <path id="Trazado_165439" data-name="Trazado 165439" d="M0,4.151A4.148,4.148,0,1,0,4.148,0,4.149,4.149,0,0,0,0,4.151" fill="#2efec7"/>
                  <g id="Grupo_108443" data-name="Grupo 108443" clip-path="url(#clip-path-3)">
                    <g id="Group_881459" data-name="Group 881459" transform="translate(0 0)">
                      <rect id="Rectangle_298912" data-name="Rectangle 298912" width="8.297" height="8.297" fill="#2efec7"/>
                    </g>
                  </g>
                </g>
              </g>
              <g id="Group_881462" data-name="Group 881462" transform="translate(28.117 35.091)">
                <g id="Grupo_108446" data-name="Grupo 108446">
                  <path id="Trazado_165441" data-name="Trazado 165441" d="M0,4.149A4.148,4.148,0,1,0,4.148,0,4.148,4.148,0,0,0,0,4.149" fill="#2efec7"/>
                  <g id="Grupo_108445" data-name="Grupo 108445" clip-path="url(#clip-path-4)">
                    <g id="Group_881461" data-name="Group 881461" transform="translate(0 0)">
                      <rect id="Rectangle_298913" data-name="Rectangle 298913" width="8.297" height="8.297" fill="#2efec7"/>
                    </g>
                  </g>
                </g>
              </g>
              <g id="Group_881464" data-name="Group 881464" transform="translate(28.119)">
                <g id="Grupo_108448" data-name="Grupo 108448">
                  <path id="Trazado_165443" data-name="Trazado 165443" d="M4.146,0A4.148,4.148,0,1,0,8.3,4.149,4.147,4.147,0,0,0,4.146,0Z" fill="#2efec7"/>
                  <g id="Grupo_108447" data-name="Grupo 108447" clip-path="url(#clip-path-5)">
                    <g id="Group_881463" data-name="Group 881463" transform="translate(-0.002 0.001)">
                      <rect id="Rectangle_298914" data-name="Rectangle 298914" width="8.297" height="8.295" fill="#2efec7"/>
                    </g>
                  </g>
                </g>
              </g>
              <g id="Group_881454-2" data-name="Group 881454" transform="translate(57.451 67.421)">
                <g id="Grupo_108450" data-name="Grupo 108450">
                  <path id="Trazado_165445" data-name="Trazado 165445" d="M0,4.151A4.149,4.149,0,1,0,4.148,0,4.149,4.149,0,0,0,0,4.151" fill="#2efec7"/>
                  <g id="Grupo_108449" data-name="Grupo 108449" clip-path="url(#clip-path-6)">
                    <g id="Group_881453-2" data-name="Group 881453" transform="translate(0 0)">
                      <rect id="Rectangle_298909-2" data-name="Rectangle 298909" width="8.297" height="8.297" fill="#2efec7"/>
                    </g>
                  </g>
                </g>
              </g>
              <g id="Group_881456" data-name="Group 881456" transform="translate(57.451 35.091)">
                <g id="Grupo_108452" data-name="Grupo 108452">
                  <path id="Trazado_165447" data-name="Trazado 165447" d="M0,4.149A4.149,4.149,0,1,0,4.15,0h0A4.153,4.153,0,0,0,0,4.149" fill="#2efec7"/>
                  <g id="Grupo_108451" data-name="Grupo 108451" clip-path="url(#clip-path-7)">
                    <g id="Group_881455" data-name="Group 881455" transform="translate(0 0)">
                      <rect id="Rectangle_298910" data-name="Rectangle 298910" width="8.297" height="8.297" fill="#2efec7"/>
                    </g>
                  </g>
                </g>
              </g>
              <g id="Group_881458-2" data-name="Group 881458" transform="translate(57.453)">
                <g id="Grupo_108454" data-name="Grupo 108454">
                  <path id="Trazado_165449" data-name="Trazado 165449" d="M4.146,0A4.148,4.148,0,1,0,8.3,4.15,4.147,4.147,0,0,0,4.146,0Z" fill="#2efec7"/>
                  <g id="Grupo_108453" data-name="Grupo 108453" clip-path="url(#clip-path-8)">
                    <g id="Group_881457-2" data-name="Group 881457" transform="translate(-0.001 0.001)">
                      <rect id="Rectangle_298911-2" data-name="Rectangle 298911" width="8.297" height="8.295" fill="#2efec7"/>
                    </g>
                  </g>
                </g>
              </g>
              <g id="Group_881460-2" data-name="Group 881460" transform="translate(85.569 67.421)">
                <g id="Grupo_108456" data-name="Grupo 108456">
                  <path id="Trazado_165451" data-name="Trazado 165451" d="M0,4.151A4.148,4.148,0,1,0,4.147,0,4.148,4.148,0,0,0,0,4.151" fill="#2efec7"/>
                  <g id="Grupo_108455" data-name="Grupo 108455" clip-path="url(#clip-path-9)">
                    <g id="Group_881459-2" data-name="Group 881459" transform="translate(0 0)">
                      <rect id="Rectangle_298912-2" data-name="Rectangle 298912" width="8.297" height="8.297" fill="#2efec7"/>
                    </g>
                  </g>
                </g>
              </g>
              <g id="Group_881462-2" data-name="Group 881462" transform="translate(85.569 35.091)">
                <g id="Grupo_108458" data-name="Grupo 108458">
                  <path id="Trazado_165453" data-name="Trazado 165453" d="M0,4.149A4.148,4.148,0,1,0,4.147,0,4.147,4.147,0,0,0,0,4.149" fill="#2efec7"/>
                  <g id="Grupo_108457" data-name="Grupo 108457" clip-path="url(#clip-path-10)">
                    <g id="Group_881461-2" data-name="Group 881461" transform="translate(0 0)">
                      <rect id="Rectangle_298913-2" data-name="Rectangle 298913" width="8.297" height="8.297" fill="#2efec7"/>
                    </g>
                  </g>
                </g>
              </g>
              <g id="Group_881464-2" data-name="Group 881464" transform="translate(85.57)">
                <g id="Grupo_108460" data-name="Grupo 108460">
                  <path id="Trazado_165455" data-name="Trazado 165455" d="M4.146,0A4.148,4.148,0,1,0,8.3,4.149,4.147,4.147,0,0,0,4.146,0Z" fill="#2efec7"/>
                  <g id="Grupo_108459" data-name="Grupo 108459" clip-path="url(#clip-path-5)">
                    <g id="Group_881463-2" data-name="Group 881463" transform="translate(-0.001 0.001)">
                      <rect id="Rectangle_298914-2" data-name="Rectangle 298914" width="8.297" height="8.295" fill="#2efec7"/>
                    </g>
                  </g>
                </g>
              </g>
              <g id="Group_881456-2" data-name="Group 881456" transform="translate(0 35.091)">
                <g id="Grupo_108440" data-name="Grupo 108440">
                  <path id="Trazado_165435" data-name="Trazado 165435" d="M0,4.149A4.149,4.149,0,1,0,4.149,0h0A4.153,4.153,0,0,0,0,4.149" fill="#2efec7"/>
                  <g id="Grupo_108439" data-name="Grupo 108439" clip-path="url(#clip-path-12)">
                    <g id="Group_881455-2" data-name="Group 881455" transform="translate(0 0)">
                      <rect id="Rectangle_298910-2" data-name="Rectangle 298910" width="8.297" height="8.297" fill="#2efec7"/>
                    </g>
                  </g>
                </g>
              </g>
            </g>
            <rect id="Rectángulo_373680" data-name="Rectángulo 373680" width="12.987" height="102.47" rx="6.494" transform="translate(139.457 202.395) rotate(45)" fill="#ff6148"/>
          </g>
          <g id="Grupo_1077842" data-name="Grupo 1077842" transform="translate(-5695.873 5907.096)">
            <g id="Grupo_29020" data-name="Grupo 29020" transform="translate(142.886 10.563)">
              <path id="Trazado_68871" data-name="Trazado 68871" d="M543.705,126.019Z" transform="translate(-515.904 -118.371)" fill="#cbd9e4"/>
              <path id="Trazado_68872" data-name="Trazado 68872" d="M539.4,128.75l-1.723.337a13.075,13.075,0,0,0-1.4-3.837l1.534-.85a14.815,14.815,0,0,0-4.662-5.1l-.982,1.452a13.072,13.072,0,0,0-3.7-1.732l.485-1.68-.078-.022a14.776,14.776,0,0,0-6.829-.3l.332,1.723a13.1,13.1,0,0,0-3.841,1.386l-.845-1.537a14.819,14.819,0,0,0-5.114,4.649l1.448.985a13.089,13.089,0,0,0-1.741,3.695l-1.68-.489-.033.116a14.782,14.782,0,0,0-.306,6.789l1.724-.327a13.1,13.1,0,0,0,1.377,3.845l-1.538.841h0a14.831,14.831,0,0,0,4.634,5.127l.989-1.445a13.085,13.085,0,0,0,3.691,1.749l-.494,1.679h0l.154.045a14.788,14.788,0,0,0,6.908.282l-.342-1.722A13.1,13.1,0,0,0,531.211,143l.854,1.533a14.821,14.821,0,0,0,5.089-4.675l-1.455-.979a13.1,13.1,0,0,0,1.725-3.7l1.68.48.011-.039a14.755,14.755,0,0,0,.29-6.869Zm-14.55,11.659a8.837,8.837,0,1,1,8.485-6.424A8.812,8.812,0,0,1,524.854,140.408Z" transform="translate(-510.018 -116.752)" fill="#cbd9e4"/>
            </g>
            <g id="Grupo_29021" data-name="Grupo 29021" transform="translate(32.296 57.281)">
              <path id="Trazado_68873" data-name="Trazado 68873" d="M630.731,438.778a51.656,51.656,0,1,0-90.776,0Z" transform="translate(-403.564 -206.399)" fill="#fff"/>
              <ellipse id="Elipse_3363" data-name="Elipse 3363" cx="68.781" cy="68.781" rx="68.781" ry="68.781" transform="translate(0 43.921)" fill="#fff"/>
              <ellipse id="Elipse_3364" data-name="Elipse 3364" cx="51.655" cy="51.655" rx="51.655" ry="51.655" transform="translate(31.628)" fill="#fff"/>
              <ellipse id="Elipse_3365" data-name="Elipse 3365" cx="51.655" cy="51.655" rx="51.655" ry="51.655" transform="translate(86.243 102.628) rotate(-79.905)" fill="#fff"/>
              <ellipse id="Elipse_3366" data-name="Elipse 3366" cx="40.57" cy="40.57" rx="40.57" ry="40.57" transform="translate(125.255 91.48)" fill="#fff"/>
              <path id="Trazado_68874" data-name="Trazado 68874" d="M401.012,378.077a51.653,51.653,0,0,0,14.739,57.32H528.924a51.647,51.647,0,0,0-57.086-85.718,51.671,51.671,0,0,0-61.071,12.241,9.439,9.439,0,1,0-9.755,16.157Z" transform="translate(-379.558 -203.018)" fill="#fff"/>
            </g>
            <g id="Grupo_29048" data-name="Grupo 29048" transform="translate(87.307 45.411)">
              <g id="Grupo_29044" data-name="Grupo 29044">
                <g id="Grupo_29043" data-name="Grupo 29043">
                  <g id="Grupo_29042" data-name="Grupo 29042">
                    <path id="Rectángulo_26499" data-name="Rectángulo 26499" d="M8.851,0H119.061a8.85,8.85,0,0,1,8.85,8.85v225.1a8.851,8.851,0,0,1-8.851,8.851H8.85A8.85,8.85,0,0,1,0,233.95V8.851A8.851,8.851,0,0,1,8.851,0Z" transform="translate(0.825 0.825)" fill="#00223d"/>
                    <path id="Trazado_68906" data-name="Trazado 68906" d="M564.1,160.629a6.478,6.478,0,0,1,6.478,6.478V395.3a6.478,6.478,0,0,1-6.478,6.478H450.8a6.479,6.479,0,0,1-6.478-6.478V167.107a6.478,6.478,0,0,1,6.478-6.478H564.1m0-1.651H450.8a8.138,8.138,0,0,0-8.129,8.129V395.3a8.139,8.139,0,0,0,8.129,8.129H564.1a8.138,8.138,0,0,0,8.129-8.129V167.107a8.137,8.137,0,0,0-8.129-8.129Z" transform="translate(-442.672 -158.978)" fill="#b4b7c6"/>
                  </g>
                </g>
              </g>
              <g id="Grupo_29045" data-name="Grupo 29045" transform="translate(1.651 14.092)">
                <path id="Trazado_68907" data-name="Trazado 68907" d="M570.933,183.539V384.833a7.486,7.486,0,0,1-7.486,7.487H452.158a7.486,7.486,0,0,1-7.486-7.487V183.539a7.486,7.486,0,0,1,7.486-7.486H563.447A7.486,7.486,0,0,1,570.933,183.539Z" transform="translate(-444.672 -176.053)" fill="url(#linear-gradient)"/>
              </g>
              <g id="Grupo_29046" data-name="Grupo 29046" transform="translate(55.618 6.61)">
                <path id="Trazado_68908" data-name="Trazado 68908" d="M526.945,169.878H511.51a1.444,1.444,0,0,1-1.445-1.445h0a1.445,1.445,0,0,1,1.445-1.445h15.435a1.445,1.445,0,0,1,1.445,1.445h0A1.445,1.445,0,0,1,526.945,169.878Z" transform="translate(-510.065 -166.988)" fill="#161c59"/>
              </g>
              <g id="Grupo_29047" data-name="Grupo 29047" transform="translate(49.658 6.61)">
                <path id="Trazado_68909" data-name="Trazado 68909" d="M505.733,168.433a1.445,1.445,0,1,1-1.445-1.445A1.445,1.445,0,0,1,505.733,168.433Z" transform="translate(-502.843 -166.988)" fill="#161c59"/>
              </g>
            </g>
            <path id="Rectángulo_26500" data-name="Rectángulo 26500" d="M2.949,0H98.06a2.949,2.949,0,0,1,2.949,2.949V8.929a2.948,2.948,0,0,1-2.948,2.948H2.948A2.948,2.948,0,0,1,0,8.929V2.949A2.949,2.949,0,0,1,2.949,0Z" transform="translate(101.583 141.592)" fill="#e6e7e8" style="mix-blend-mode: multiply;isolation: isolate"/>
            <rect id="Rectángulo_26501" data-name="Rectángulo 26501" width="29.76" height="14.022" rx="2.106" transform="translate(101.065 70.742)" fill="#e6e7e8" style="mix-blend-mode: multiply;isolation: isolate"/>
            <rect id="Rectángulo_26502" data-name="Rectángulo 26502" width="29.76" height="14.022" rx="2.106" transform="translate(137.208 70.742)" fill="#e6e7e8" style="mix-blend-mode: multiply;isolation: isolate"/>
            <rect id="Rectángulo_26503" data-name="Rectángulo 26503" width="29.76" height="14.022" rx="2.106" transform="translate(173.35 70.742)" fill="#e6e7e8" style="mix-blend-mode: multiply;isolation: isolate"/>
            <rect id="Rectángulo_26504" data-name="Rectángulo 26504" width="44.508" height="44.508" rx="2.455" transform="translate(105.3 189.164)" stroke="#707070" stroke-miterlimit="10" stroke-width="8" opacity="0.4" fill="url(#linear-gradient-2)" style="mix-blend-mode: multiply;isolation: isolate"/>
            <rect id="Rectángulo_26505" data-name="Rectángulo 26505" width="44.508" height="44.508" rx="2.455" transform="translate(163.044 189.164)" stroke="#707070" stroke-miterlimit="10" stroke-width="8" opacity="0.4" fill="url(#linear-gradient-2)" style="mix-blend-mode: multiply;isolation: isolate"/>
            <rect id="Rectángulo_26506" data-name="Rectángulo 26506" width="44.508" height="44.508" rx="2.455" transform="translate(220.788 189.164)" stroke="#707070" stroke-miterlimit="10" stroke-width="8" opacity="0.4" fill="url(#linear-gradient-2)" style="mix-blend-mode: multiply;isolation: isolate"/>
            <rect id="Rectángulo_26507" data-name="Rectángulo 26507" width="44.508" height="44.508" rx="2.455" transform="translate(102.124 185.987)" fill="#fff"/>
            <rect id="Rectángulo_26508" data-name="Rectángulo 26508" width="44.508" height="44.508" rx="2.455" transform="translate(159.867 185.987)" fill="#fff"/>
            <rect id="Rectángulo_26509" data-name="Rectángulo 26509" width="44.508" height="21.386" rx="1.702" transform="translate(159.867 239.13)" fill="#e6e7e8" style="mix-blend-mode: multiply;isolation: isolate"/>
            <rect id="Rectángulo_26510" data-name="Rectángulo 26510" width="44.508" height="21.386" rx="1.702" transform="translate(101.674 239.13)" fill="#e6e7e8" style="mix-blend-mode: multiply;isolation: isolate"/>
            <rect id="Rectángulo_26511" data-name="Rectángulo 26511" width="44.508" height="44.508" rx="2.455" transform="translate(217.611 185.987)" fill="#fff"/>
            <g id="Grupo_29049" data-name="Grupo 29049" transform="translate(101.065 88.495)">
              <rect id="Rectángulo_26512" data-name="Rectángulo 26512" width="29.76" height="3.315" rx="1.646" fill="#707070"/>
              <rect id="Rectángulo_26513" data-name="Rectángulo 26513" width="29.76" height="3.315" rx="1.646" transform="translate(36.142)" fill="#707070"/>
              <rect id="Rectángulo_26514" data-name="Rectángulo 26514" width="29.76" height="3.315" rx="1.646" transform="translate(72.285)" fill="#707070"/>
            </g>
            <g id="Grupo_29050" data-name="Grupo 29050" transform="translate(101.065 95.506)" style="mix-blend-mode: multiply;isolation: isolate">
              <rect id="Rectángulo_26515" data-name="Rectángulo 26515" width="29.76" height="3.315" rx="1.646" fill="#e6e7e8"/>
              <rect id="Rectángulo_26516" data-name="Rectángulo 26516" width="29.76" height="3.315" rx="1.646" transform="translate(36.142)" fill="#e6e7e8"/>
              <rect id="Rectángulo_26517" data-name="Rectángulo 26517" width="29.76" height="3.315" rx="1.646" transform="translate(72.285)" fill="#e6e7e8"/>
            </g>
            <g id="Grupo_29053" data-name="Grupo 29053" transform="translate(245.547 192.208)">
              <path id="Trazado_68910" data-name="Trazado 68910" d="M669.53,415.29c-2.232-.187-2.391-12.678-2.047-17.98s1.606-9.415,4.33-9.186,3.283,4.494,2.737,9.78S671.763,415.479,669.53,415.29Z" transform="translate(-640.168 -345.811)" fill="#ffc8af"/>
              <path id="Trazado_68911" data-name="Trazado 68911" d="M680.388,443.131c-1.842.744-8.608-15.426-10.086-19.082s-2.753-7.63-.689-8.464,3.906,2.912,5.383,6.568S682.229,442.388,680.388,443.131Z" transform="translate(-640.376 -350.59)" fill="#ffc8af"/>
              <path id="Trazado_68912" data-name="Trazado 68912" d="M682.945,447.431c-1.207.829-3.7,1.365-3.932.943s.162-1.608.507-2.463l0-.008c.1-.253.2-.478.277-.644.089-.209.148-.332.148-.332s-4-15.806-3.26-16.006c.8-.217,6.156,15.468,6.156,15.468s.026.1.071.239l.061.2.408,1.361C683.437,446.357,683.831,446.833,682.945,447.431Z" transform="translate(-641.785 -352.94)" fill="#ffc8af"/>
              <path id="Trazado_68913" data-name="Trazado 68913" d="M683.442,450.8c-1.207.829-3.7,1.365-3.931.943s.162-1.608.507-2.463l.005-.008c.1-.253.2-.478.276-.644.076.158.192.392.281.6.158.361.364.365,1.1-.118a14.3,14.3,0,0,1,1.8-.909s.477,1,.607,1.345C684.144,449.706,684.327,450.2,683.442,450.8Z" transform="translate(-642.282 -356.309)" fill="#262b7f"/>
              <g id="Grupo_29052" data-name="Grupo 29052" transform="translate(28.622 16.25)">
                <path id="Trazado_68914" data-name="Trazado 68914" d="M681.059,375.651c-1.49.62-5.891-7.7-7.5-11.372s-2.215-6.849-.4-7.606,3.644,1.917,5.114,5.643S682.549,375.031,681.059,375.651Z" transform="translate(-669.612 -356.544)" fill="#ffc8af"/>
                <g id="Grupo_29051" data-name="Grupo 29051" transform="translate(0 16.541)">
                  <path id="Trazado_68915" data-name="Trazado 68915" d="M672.719,394.52c-1.3-.6,2.729-10.332,3.967-13.035s2.745-5.465,4.2-4.8S681.241,380.3,680,383,674.02,395.116,672.719,394.52Z" transform="translate(-669.684 -376.587)" fill="#ffc8af"/>
                  <path id="Trazado_68916" data-name="Trazado 68916" d="M673.2,395.242c1.584.588.229,3.266-.267,4.162-.807,1.46-3.063,2.182-3.634,1.877s1.505-3.472,1.435-3.653-1.018,1.624-1.525,1.282.752-2.482,1.575-3.137A2.159,2.159,0,0,1,673.2,395.242Z" transform="translate(-669.096 -379.817)" fill="#ffc8af"/>
                </g>
              </g>
              <path id="Trazado_68917" data-name="Trazado 68917" d="M667.955,446.281c.135.536.408,1.137.115,1.668a1.47,1.47,0,0,1-1.043.616,11.813,11.813,0,0,1-1.735.248,6.347,6.347,0,0,1-.707.057c-.2,0-.39-.036-.584-.048-.383-.023-.768-.008-1.15-.041-.037,0-.3.006-.331-.045s.031-.121.063-.149c.165-.144.382-.21.552-.347.191-.154.366-.328.559-.479a5.344,5.344,0,0,1,1.251-.758c.087-.036-2.56-16.622-1.77-16.794C663.892,430.051,667.953,446.273,667.955,446.281Z" transform="translate(-639.323 -353.165)" fill="#ffc8af"/>
              <path id="Trazado_68918" data-name="Trazado 68918" d="M656.851,416.2c-2.189-.478-.715-12.882.318-18.094s2.822-9.124,5.494-8.542,2.667,4.885,1.436,10.054S659.039,416.675,656.851,416.2Z" transform="translate(-638.136 -346.053)" fill="#ffc8af"/>
              <path id="Trazado_68919" data-name="Trazado 68919" d="M665.831,444.5c-1.895.594-7.664-15.981-8.844-19.744s-2.135-7.826-.011-8.492,3.661,3.215,4.841,6.977S667.726,443.9,665.831,444.5Z" transform="translate(-638.137 -350.716)" fill="#ffc8af"/>
              <path id="Trazado_68920" data-name="Trazado 68920" d="M668.03,450.8l0,1.864a.34.34,0,0,1-.339.34l-6,0a.544.544,0,0,1-.329-.98,22.722,22.722,0,0,1,3.3-1.8c.245.216.615.885,1.046.965A12.045,12.045,0,0,0,668.03,450.8Z" transform="translate(-639.084 -356.663)" fill="#262b7f"/>
              <path id="Trazado_68921" data-name="Trazado 68921" d="M638.053,365.218c.935-1.066,9.042,5.526,11.258,7.47s4.413,4.159,3.363,5.355-3.532-.692-5.748-2.636S637.117,366.285,638.053,365.218Z" transform="translate(-635.036 -341.79)" fill="#ffc8af"/>
              <path id="Trazado_68922" data-name="Trazado 68922" d="M673.072,387.236l-13.894-.578-.609-23.77.96-5.97,6.417-2.359,4.134.789a4.848,4.848,0,0,1,3.937,4.933L672.51,377.1Z" transform="translate(-638.635 -339.948)" fill="#ffc8af"/>
              <path id="Trazado_68923" data-name="Trazado 68923" d="M668.341,351.011v4.777a7.092,7.092,0,0,1-3.371.6c-1.273,0-1.559-.6-1.559-.6v-1.766Z" transform="translate(-639.481 -339.328)" fill="#ffc8af"/>
              <path id="Trazado_68924" data-name="Trazado 68924" d="M667.979,345.2c-.011.173-.016.335-.028.491,0,.056.006.112.006.173.117,2.836-1.7,5.872-4.442,6.284,0,0-.022.006-.062.012-.022,0-.055,0-.095,0-.586.073-2.707.246-3.483-.608a7.218,7.218,0,0,1-1.719-4.1,16.078,16.078,0,0,1,.23-2.064c0-.4-.213-1.636-.217-2.175a4.755,4.755,0,0,1,4.71-5.042C667.415,338.175,668.108,342.155,667.979,345.2Z" transform="translate(-638.563 -337.085)" fill="#ffc8af"/>
              <path id="Trazado_68925" data-name="Trazado 68925" d="M663.414,356.6" transform="translate(-639.481 -340.305)" fill="#6ebaad"/>
              <path id="Trazado_68926" data-name="Trazado 68926" d="M658.755,356.862c-.965.9-1.716,2.463-1.9,5.669a11.83,11.83,0,0,0,.487,6.353c2.119,5.283.82,11.837.82,11.837l14.4.531s.3-9.652.8-12.73c1.484-9.29-.012-12.28-2.6-13.006C666.878,354.427,659.721,355.965,658.755,356.862Z" transform="translate(-638.296 -340.049)" fill="#4dd0e1"/>
              <path id="Trazado_68927" data-name="Trazado 68927" d="M654.748,377.016c-1.55-.4-.062-9.615.859-13.48s2.339-6.744,4.23-6.256,1.739,3.694.677,7.522S656.3,377.415,654.748,377.016Z" transform="translate(-637.849 -340.414)" fill="#ffc8af"/>
              <path id="Trazado_68928" data-name="Trazado 68928" d="M634.551,361.325c.372-.415,2.4,1.575,3.048,2.088.1.078.167.124.192.121s.024-.038.007-.089c-.105-.318-.9-1.431-.517-1.783.427-.385,2.019,1.127,2.559,2.093.031.053.07.111.093.161a2.143,2.143,0,0,1-.058,2.452c-.94,1.388-3.2-.547-3.947-1.235a5.245,5.245,0,0,1-1.326-2.221A2.007,2.007,0,0,1,634.551,361.325Z" transform="translate(-634.414 -341.12)" fill="#ffc8af"/>
              <path id="Trazado_68929" data-name="Trazado 68929" d="M657.129,341.419a4.268,4.268,0,0,0,.088.458c.312,1.268,1.3,2.005,1.2,3.389a5.783,5.783,0,0,0,.781,3.583c1.53,2.593-.584,2.018-.159,6,.209,1.955,2.065,2.76,5.73,2.707s7.7-.106,7.593-2.867a5.069,5.069,0,0,0-1.009-2.742c-.7-1.066-1.307-1.96-.924-3.274a7.626,7.626,0,0,0,.42-1.648c.084-1.387-.91-1.833-1.682-2.732-.829-.966-.343-2.6-.621-3.76-.9-3.781-4.821-4.225-8-3.2C658.6,337.957,656.828,339.185,657.129,341.419Z" transform="translate(-638.377 -336.854)" fill="#00223d"/>
              <path id="Trazado_68930" data-name="Trazado 68930" d="M674.511,382.215c-.12,3.021,2.158,6.982,2.51,9.99.706,6.028-3.463,17.318-3.463,18.047s3.9,10.522,5.414,16.494c0,0-.849,1.22-4.937,1.964,0,0-6.269-13.642-6.85-16.72s.132-29.211.132-29.211Z" transform="translate(-640.1 -344.78)" fill="#00223d"/>
              <path id="Trazado_68931" data-name="Trazado 68931" d="M665.967,382.816h-7.883a147.786,147.786,0,0,0-2.982,16.805c-1.168,9.661-.8,12.527-.583,14.067s5.537,16.082,5.537,16.082a9.285,9.285,0,0,0,5.491-1.274,105.225,105.225,0,0,0-3.332-12.1,38.041,38.041,0,0,1-1.708-4.671s4.432-9.448,5.538-16.189A39.878,39.878,0,0,0,665.967,382.816Z" transform="translate(-637.887 -344.885)" fill="#00223d"/>
            </g>
            <rect id="Rectángulo_26518" data-name="Rectángulo 26518" width="144.054" height="42.103" rx="1.881" transform="translate(47.949 108.186)" stroke="#707070" stroke-miterlimit="10" stroke-width="8" opacity="0.3" fill="url(#linear-gradient-5)" style="mix-blend-mode: multiply;isolation: isolate"/>
            <g id="Grupo_29065" data-name="Grupo 29065" transform="translate(41.255 102.892)">
              <g id="Grupo_29054" data-name="Grupo 29054" transform="translate(0 129.491)">
                <path id="Trazado_68932" data-name="Trazado 68932" d="M405.493,385.535v11.24h-3.971v8.89h3.971v.035h-8.071v8.89h8.071v.035h-11.31v8.89h11.31v.035h-15.41v8.89h15.41v.035H386.871v8.89h46.365V385.535Z" transform="translate(-386.871 -385.535)" fill="#00223d"/>
              </g>
              <path id="Trazado_68933" data-name="Trazado 68933" d="M426.364,385.535v11.24h-3.971v8.89h3.971v.035h-8.071v8.89h8.071v.035h-11.31v8.89h11.31v.035h-15.41v8.89h15.41v.035H407.742v8.89h29.14V385.535Z" transform="translate(-390.517 -256.044)" fill="#8998a5"/>
              <g id="Grupo_29064" data-name="Grupo 29064" transform="translate(7.752)">
                <path id="Trazado_68934" data-name="Trazado 68934" d="M428.661,345.056c2.359-.2,2.527-13.4,2.164-19s-1.7-9.949-4.577-9.708-3.469,4.749-2.892,10.336S426.3,345.254,428.661,345.056Z" transform="translate(-400.963 -243.953)" fill="#ffc8af"/>
                <path id="Trazado_68935" data-name="Trazado 68935" d="M416.111,374.477c1.946.786,9.1-16.3,10.658-20.166s2.91-8.064.728-8.945-4.128,3.078-5.689,6.941S414.165,373.691,416.111,374.477Z" transform="translate(-399.666 -249.004)" fill="#ffc8af"/>
                <path id="Trazado_68936" data-name="Trazado 68936" d="M414.591,379.02c1.276.877,3.916,1.443,4.155,1s-.171-1.7-.536-2.6l0-.008c-.11-.267-.213-.506-.292-.681-.094-.222-.157-.351-.157-.351s4.227-16.7,3.445-16.915c-.848-.229-6.5,16.347-6.5,16.347s-.028.1-.075.252l-.065.214-.43,1.438C414.072,377.886,413.656,378.39,414.591,379.02Z" transform="translate(-399.361 -251.488)" fill="#ffc8af"/>
                <path id="Trazado_68937" data-name="Trazado 68937" d="M414.563,382.581c1.276.877,3.916,1.443,4.155,1s-.171-1.7-.536-2.6l0-.008c-.11-.267-.213-.506-.292-.681-.08.167-.2.414-.3.634-.166.382-.384.386-1.163-.125a15.054,15.054,0,0,0-1.9-.961s-.5,1.056-.642,1.421C413.822,381.426,413.628,381.95,414.563,382.581Z" transform="translate(-399.333 -255.048)" fill="#00223d"/>
                <path id="Trazado_68938" data-name="Trazado 68938" d="M429.879,328.832s.1,12.06-.442,14.584-11.045,26.666-11.045,26.666a14.931,14.931,0,0,1-4.022-1.144s3.927-13.8,5.553-18.735,3.085-7.236,2.973-9.031-1.907-16.772-1.907-16.772l8.9-.375Z" transform="translate(-399.428 -245.297)" fill="#00223d"/>
                <g id="Grupo_29057" data-name="Grupo 29057" transform="translate(22.295 26.262)">
                  <g id="Grupo_29055" data-name="Grupo 29055" transform="translate(16.87)">
                    <path id="Trazado_68939" data-name="Trazado 68939" d="M460.261,265.075c-.935-1.188-9.938,5.365-12.407,7.308s-4.933,4.176-3.885,5.509,3.8-.537,6.268-2.479S461.2,266.263,460.261,265.075Z" transform="translate(-443.722 -261.233)" fill="#ffc8af"/>
                    <path id="Trazado_68940" data-name="Trazado 68940" d="M460.872,266.015c1,1.482,3.412-.574,4.209-1.306,1.3-1.192,1.482-3.688,1.028-4.2s-3.194,2.408-3.4,2.38,1.416-1.448.938-1.884-2.363,1.387-2.832,2.4A2.281,2.281,0,0,0,460.872,266.015Z" transform="translate(-446.642 -260.45)" fill="#ffc8af"/>
                  </g>
                  <g id="Grupo_29056" data-name="Grupo 29056" transform="translate(0 14.165)">
                    <path id="Trazado_68941" data-name="Trazado 68941" d="M444.581,278.22c-.5-1.629-10.239.415-14.307,1.589s-7.063,2.827-6.449,4.816,4.019,1.667,8.042.345S445.083,279.85,444.581,278.22Z" transform="translate(-423.361 -277.614)" fill="#ffc8af"/>
                    <path id="Trazado_68942" data-name="Trazado 68942" d="M423.661,285.334c-.98-1.769-.067-3.686,2.662-4.763A79.8,79.8,0,0,1,436.018,278c.072.154.137.308.2.457,1.616,3.778.888,4.976.888,4.976-4.672,1.877-10.148,3.36-11.984,2.733A5.35,5.35,0,0,1,423.661,285.334Z" transform="translate(-423.279 -277.682)" fill="#ffe3a1"/>
                  </g>
                </g>
                <g id="Grupo_29060" data-name="Grupo 29060">
                  <rect id="Rectángulo_26519" data-name="Rectángulo 26519" width="144.054" height="42.103" rx="1.47" fill="#00223d"/>
                  <g id="Grupo_29058" data-name="Grupo 29058" transform="translate(6.524 6.133)">
                    <rect id="Rectángulo_26520" data-name="Rectángulo 26520" width="29.837" height="29.837" rx="0.634" fill="#eef0f2"/>
                  </g>
                  <g id="Grupo_29059" data-name="Grupo 29059" transform="translate(45.894 7.836)">
                    <rect id="Rectángulo_26521" data-name="Rectángulo 26521" width="83.931" height="3.741" rx="1.857" fill="#eef0f2"/>
                    <rect id="Rectángulo_26522" data-name="Rectángulo 26522" width="83.931" height="3.741" rx="1.857" transform="translate(0 11.345)" fill="#eef0f2"/>
                    <rect id="Rectángulo_26523" data-name="Rectángulo 26523" width="64.981" height="3.741" rx="1.857" transform="translate(0 22.691)" fill="#eef0f2"/>
                  </g>
                </g>
                <path id="Trazado_68944" data-name="Trazado 68944" d="M430.7,377.805c-.115.457-.519,1.409-.148,1.828.23.258.785.276,1.1.29a3.444,3.444,0,0,0,1.158-.1c.495-.14.786-.25.915-.771.293-1.188.413-2.417.586-3.63.262-1.83.521-3.66.764-5.492.248-1.859.485-3.721.666-5.588.068-.7.129-1.394.158-2.092a3.944,3.944,0,0,0-.033-1.231c-.018-.061-.03-.185-.11-.2C434.993,360.654,430.7,377.8,430.7,377.805Z" transform="translate(-402.228 -251.725)" fill="#ffc8af"/>
                <path id="Trazado_68945" data-name="Trazado 68945" d="M441.663,346.014c2.312-.505.755-13.614-.337-19.122s-2.983-9.643-5.8-9.027S432.7,323.027,434,328.49,439.351,346.518,441.663,346.014Z" transform="translate(-402.711 -244.21)" fill="#ffc8af"/>
                <path id="Trazado_68946" data-name="Trazado 68946" d="M431.864,375.923c2,.628,8.1-16.888,9.346-20.865s2.256-8.27.012-8.974-3.869,3.4-5.116,7.373S429.861,375.295,431.864,375.923Z" transform="translate(-402.403 -249.137)" fill="#ffc8af"/>
                <path id="Trazado_68947" data-name="Trazado 68947" d="M430.245,382.584l0,1.971a.359.359,0,0,0,.36.358l6.34,0a.575.575,0,0,0,.347-1.036,24.063,24.063,0,0,0-3.492-1.9c-.259.229-.65.935-1.105,1.02A12.723,12.723,0,0,1,430.245,382.584Z" transform="translate(-402.202 -255.422)" fill="#00223d"/>
                <path id="Trazado_68948" data-name="Trazado 68948" d="M423.117,315.408h15.619l.643-25.121-1.163-7.087-7.569-2.326-4.368.834a5.125,5.125,0,0,0-4.161,5.213L423.71,304.7Z" transform="translate(-400.781 -237.757)" fill="#ffc8af"/>
                <path id="Trazado_68949" data-name="Trazado 68949" d="M430.47,276.8v5.047a7.5,7.5,0,0,0,3.563.637c1.346,0,1.648-.637,1.648-.637v-1.866Z" transform="translate(-402.241 -237.046)" fill="#ffc8af"/>
                <path id="Trazado_68950" data-name="Trazado 68950" d="M429.755,270.665c.012.183.017.354.029.519,0,.059-.006.118-.006.183-.124,3,1.8,6.205,4.695,6.642,0,0,.024.006.065.012.024,0,.059.006.1.006.62.077,2.861.259,3.681-.643a7.63,7.63,0,0,0,1.817-4.338,17.036,17.036,0,0,0-.242-2.181c0-.418.224-1.73.229-2.3a5.024,5.024,0,0,0-4.977-5.327C430.351,263.239,429.619,267.445,429.755,270.665Z" transform="translate(-402.113 -234.676)" fill="#ffc8af"/>
                <path id="Trazado_68951" data-name="Trazado 68951" d="M436.781,283.034" transform="translate(-403.344 -238.135)" fill="#6ebaad"/>
                <g id="Grupo_29062" data-name="Grupo 29062" transform="translate(50.488 40.207)">
                  <path id="Trazado_68952" data-name="Trazado 68952" d="M473.96,281.089c-.915-1.188-9.907,5.223-12.374,7.125s-4.932,4.092-3.905,5.424,3.772-.494,6.239-2.4S474.875,282.277,473.96,281.089Z" transform="translate(-457.441 -277.976)" fill="#ffc8af"/>
                  <g id="Grupo_29061" data-name="Grupo 29061" transform="translate(13.456)">
                    <path id="Trazado_68953" data-name="Trazado 68953" d="M476.707,279.252a.548.548,0,0,1-.211.114c-.027-.006-.022-.042,0-.095.133-.328,1.049-1.449.664-1.846-.423-.435-2.205,1.054-2.839,2.036-.035.054-.082.114-.109.164a2.263,2.263,0,0,0-.1,2.59c.9,1.527,3.412-.363,4.245-1.039a4.477,4.477,0,0,0,1.434-1.993C478.772,279.252,477.856,279.193,476.707,279.252Z" transform="translate(-473.746 -277.348)" fill="#ffc8af"/>
                  </g>
                </g>
                <path id="Trazado_68954" data-name="Trazado 68954" d="M440.575,326.146c2.283,6.672,2.675,16.04,2.423,20.163s-8.462,25.576-8.462,25.576a6.164,6.164,0,0,1-4.122-.934s6.021-25.315,5.685-27.335-4.874-18.352-4.874-18.352Z" transform="translate(-402.231 -245.513)" fill="#00223d"/>
                <path id="Trazado_68955" data-name="Trazado 68955" d="M434.191,281.757a15.928,15.928,0,0,1,4.134,1.4,18.285,18.285,0,0,1,1.474,6.1c.055.947.05,3.664.016,7.077-.094,8.758-.38,22.122-.38,22.122H421.57s1.313-19.615.793-22.868c-1.568-9.817.012-12.977,2.748-13.745C429.209,280.693,431.52,281.535,434.191,281.757Z" transform="translate(-400.686 -237.823)" fill="#ffb476"/>
                <path id="Trazado_68956" data-name="Trazado 68956" d="M438.767,270.2s-.056,1.963-.337,2.1-.338-.536-.393-1.052c-.063-.585-.112-1.584-1.009-1.472s-.606,2.1-.41,2.77-1.008,3.373-1.785,3.457-3.891.337-4.312-.309a13.236,13.236,0,0,1-1.458-5.5c-.084-2.44-.561-5.778,1.711-6.506,0,0,.332-1.755,3.62-1.335s3.5.857,4.821.886a4.616,4.616,0,0,0,1.556-.337s.606,2.8-1.189,3.3c0,0,.419,1.886-.226,2.194S438.8,269.55,438.767,270.2Z" transform="translate(-401.978 -234.511)" fill="#00223d"/>
                <g id="Grupo_29063" data-name="Grupo 29063" transform="translate(33.387 44.891)">
                  <path id="Trazado_68957" data-name="Trazado 68957" d="M456.192,294.159c.763-1.51-7.6-6.751-11.307-8.712s-6.988-2.843-7.918-1,1.723,3.956,5.5,5.78S455.429,295.668,456.192,294.159Z" transform="translate(-436.73 -283.096)" fill="#ffc8af"/>
                  <path id="Trazado_68958" data-name="Trazado 68958" d="M437.568,283.454c-1.571,1.274-.9,3.576,1.518,5.241a79.821,79.821,0,0,0,8.865,4.691c.1-.135.2-.269.3-.4,2.427-3.316,1.988-4.647,1.988-4.647C446.108,285.454,439.667,281.752,437.568,283.454Z" transform="translate(-436.72 -283.024)" fill="#ffb476"/>
                </g>
                <path id="Trazado_68959" data-name="Trazado 68959" d="M468.2,288.025c-.393-.439-2.532,1.663-3.22,2.206,1.163-.182,2.246-.362,3.165-.53C468.383,288.941,468.42,288.269,468.2,288.025Z" transform="translate(-408.271 -238.996)" fill="#ffc8af"/>
              </g>
            </g>
            <path id="Trazado_68960" data-name="Trazado 68960" d="M376.367,224a19.748,19.748,0,1,0-10.687,17.542c3.223,1.046,9.168,2.95,9.168,2.95l-2.5-8.553A19.655,19.655,0,0,0,376.367,224Z" transform="translate(-336.881 -121.478)" fill="#cbd9e4"/>
            <g id="Grupo_29066" data-name="Grupo 29066" transform="translate(44.72 56.869)">
              <path id="Trazado_68961" data-name="Trazado 68961" d="M402.155,172.985a6.466,6.466,0,1,0,5.066,5.066A6.469,6.469,0,0,0,402.155,172.985Zm2.3,12.8a7.348,7.348,0,0,1-7.159,0,9.81,9.81,0,0,0-6.228,9.137v.214a15.066,15.066,0,0,0,19.623,0v-.214A9.817,9.817,0,0,0,404.457,185.784Z" transform="translate(-391.069 -172.862)" fill="#cbd9e4"/>
            </g>
            <g id="Grupo_29067" data-name="Grupo 29067" transform="translate(173.713 202.723)">
              <path id="Trazado_68962" data-name="Trazado 68962" d="M547.372,357.184v-1.7l4.735-2.213v1.372l-3.7,1.693,3.7,1.693V359.4Z" transform="translate(-547.372 -350.237)" fill="#00223d"/>
              <path id="Trazado_68963" data-name="Trazado 68963" d="M558.425,349.6h1.59l-4.436,11.036H554Z" transform="translate(-548.53 -349.596)" fill="#00223d"/>
              <path id="Trazado_68964" data-name="Trazado 68964" d="M562.012,359.4v-1.371l3.687-1.693-3.687-1.693v-1.372l4.736,2.213v1.7Z" transform="translate(-549.93 -350.237)" fill="#00223d"/>
            </g>
            <path id="Rectángulo_26524" data-name="Rectángulo 26524" d="M2.949,0H98.06a2.949,2.949,0,0,1,2.949,2.949V8.929a2.949,2.949,0,0,1-2.949,2.949H2.948A2.948,2.948,0,0,1,0,8.929V2.949A2.949,2.949,0,0,1,2.949,0Z" transform="translate(101.583 159.21)" fill="#707070"/>
            <path id="Trazado_68965" data-name="Trazado 68965" d="M490.58,355.587a4.676,4.676,0,0,0-.583-1.995l.578-.322a5.339,5.339,0,0,0-1.117-1.393l-.441.5a4.661,4.661,0,0,0-1.82-1l.181-.634-.008,0a5.341,5.341,0,0,0-1.455-.2c-.1,0-.209,0-.313.009l.04.661a4.67,4.67,0,0,0-1.995.582l-.322-.579a5.359,5.359,0,0,0-1.394,1.116l.5.441a4.657,4.657,0,0,0-1,1.82l-.635-.182,0,.013a5.338,5.338,0,0,0-.2,1.454c0,.1,0,.206.009.308l.661-.038a4.659,4.659,0,0,0,.581,1.995l-.579.322a5.355,5.355,0,0,0,1.115,1.394l.441-.494a4.645,4.645,0,0,0,1.819,1l-.182.635.016,0a5.347,5.347,0,0,0,1.455.2c.107,0,.215,0,.321-.01l-.04-.661a4.666,4.666,0,0,0,1.994-.585l.323.578a5.322,5.322,0,0,0,1.391-1.118l-.5-.44a4.649,4.649,0,0,0,1-1.821l.634.18v0a5.347,5.347,0,0,0,.2-1.454q0-.16-.01-.317Zm-5.822,4.373h0l.033-.116Zm3.877-3.324a2.82,2.82,0,1,1,.108-.771A2.827,2.827,0,0,1,488.636,356.636Z" transform="translate(-361.989 -147.037)" fill="#00223d"/>
            <path id="Trazado_68966" data-name="Trazado 68966" d="M627.549,354.816v-2.676h-1.485v2.676h-2.676V356.3h2.676v2.676h1.485V356.3h2.676v-1.485Z" transform="translate(-386.941 -147.318)" fill="#00223d"/>
            <g id="Grupo_29070" data-name="Grupo 29070" transform="translate(182.449 10.797)">
              <g id="Grupo_29069" data-name="Grupo 29069" transform="translate(0)">
                <rect id="Rectángulo_26525" data-name="Rectángulo 26525" width="104.641" height="66.482" rx="2.658" fill="url(#linear-gradient)"/>
                <g id="Grupo_29068" data-name="Grupo 29068" transform="translate(9.447 7.679)">
                  <rect id="Rectángulo_26526" data-name="Rectángulo 26526" width="17.598" height="1.066" rx="0.443" transform="translate(53.084)" fill="#00223d"/>
                  <rect id="Rectángulo_26527" data-name="Rectángulo 26527" width="50.286" height="1.066" rx="0.443" fill="#00223d"/>
                  <rect id="Rectángulo_26528" data-name="Rectángulo 26528" width="17.537" height="1.066" rx="0.443" transform="translate(68.211 5.562)" fill="#00223d"/>
                  <rect id="Rectángulo_26529" data-name="Rectángulo 26529" width="15.478" height="1.066" rx="0.443" transform="translate(0 5.562)" fill="#00223d"/>
                  <rect id="Rectángulo_26530" data-name="Rectángulo 26530" width="47.282" height="1.066" rx="0.443" transform="translate(18.409 5.562)" fill="#00223d"/>
                  <rect id="Rectángulo_26531" data-name="Rectángulo 26531" width="29.745" height="1.066" rx="0.443" transform="translate(49.705 11.124)" fill="#00223d"/>
                  <rect id="Rectángulo_26532" data-name="Rectángulo 26532" width="46.749" height="1.066" rx="0.443" transform="translate(0 11.124)" fill="#00223d"/>
                  <rect id="Rectángulo_26533" data-name="Rectángulo 26533" width="22.18" height="1.066" rx="0.443" transform="translate(0 16.686)" fill="#00223d"/>
                  <rect id="Rectángulo_26534" data-name="Rectángulo 26534" width="60.916" height="1.066" rx="0.443" transform="translate(24.832 16.686)" fill="#00223d"/>
                  <rect id="Rectángulo_26535" data-name="Rectángulo 26535" width="72.377" height="1.066" rx="0.443" transform="translate(0 22.248)" fill="#00223d"/>
                  <rect id="Rectángulo_26536" data-name="Rectángulo 26536" width="12.45" height="1.066" rx="0.443" transform="translate(0 27.81)" fill="#00223d"/>
                  <rect id="Rectángulo_26537" data-name="Rectángulo 26537" width="47.573" height="1.066" rx="0.443" transform="translate(15.745 27.81)" fill="#00223d"/>
                  <rect id="Rectángulo_26538" data-name="Rectángulo 26538" width="14.34" height="1.066" rx="0.443" transform="translate(66.806 27.81)" fill="#00223d"/>
                  <rect id="Rectángulo_26539" data-name="Rectángulo 26539" width="49.026" height="1.066" rx="0.443" transform="translate(0 33.371)" fill="#00223d"/>
                  <rect id="Rectángulo_26540" data-name="Rectángulo 26540" width="33.475" height="1.066" rx="0.443" transform="translate(52.272 33.371)" fill="#00223d"/>
                  <rect id="Rectángulo_26541" data-name="Rectángulo 26541" width="7.872" height="1.066" rx="0.443" transform="translate(74.315 38.933)" fill="#00223d"/>
                  <rect id="Rectángulo_26542" data-name="Rectángulo 26542" width="21.11" height="1.066" rx="0.443" transform="translate(0 38.933)" fill="#00223d"/>
                  <rect id="Rectángulo_26543" data-name="Rectángulo 26543" width="46.907" height="1.066" rx="0.443" transform="translate(24.162 38.933)" fill="#00223d"/>
                  <rect id="Rectángulo_26544" data-name="Rectángulo 26544" width="38.756" height="1.066" rx="0.443" transform="translate(46.992 44.495)" fill="#00223d"/>
                  <rect id="Rectángulo_26545" data-name="Rectángulo 26545" width="44.085" height="1.066" rx="0.443" transform="translate(0 44.495)" fill="#00223d"/>
                  <rect id="Rectángulo_26546" data-name="Rectángulo 26546" width="51.739" height="1.066" rx="0.443" transform="translate(9.447 50.057)" fill="#00223d"/>
                  <rect id="Rectángulo_26547" data-name="Rectángulo 26547" width="6.056" height="1.066" rx="0.443" transform="translate(0 50.057)" fill="#00223d"/>
                </g>
              </g>
            </g>
            <rect id="Rectángulo_26548" data-name="Rectángulo 26548" width="292.114" height="4.6" rx="2.3" transform="translate(6.031 288.21)" fill="#b3b5c4"/>
            <rect id="Rectángulo_26549" data-name="Rectángulo 26549" width="110.331" height="23.634" rx="3.608" transform="translate(19.944 16.158)" fill="url(#linear-gradient-7)"/>
            <g id="Grupo_29071" data-name="Grupo 29071" transform="translate(46.714 22.324)">
              <rect id="Rectángulo_26550" data-name="Rectángulo 26550" width="74.212" height="1.6" rx="0.794" fill="#e6eef3"/>
              <rect id="Rectángulo_26551" data-name="Rectángulo 26551" width="74.212" height="1.6" rx="0.794" transform="translate(0 4.852)" fill="#e6eef3"/>
              <rect id="Rectángulo_26552" data-name="Rectángulo 26552" width="57.457" height="1.6" rx="0.794" transform="translate(0 9.703)" fill="#e6eef3"/>
            </g>
            <circle id="Elipse_3367" data-name="Elipse 3367" cx="8.506" cy="8.506" r="8.506" transform="translate(21.159 27.975) rotate(-45)" fill="#e6eef3"/>
            <g id="Grupo_29072" data-name="Grupo 29072" transform="translate(29.284 22.822)">
              <path id="Trazado_68967" data-name="Trazado 68967" d="M376.775,131.656a2.572,2.572,0,1,0,2.016,2.015A2.574,2.574,0,0,0,376.775,131.656Zm.916,5.093a2.927,2.927,0,0,1-2.848,0,3.9,3.9,0,0,0-2.478,3.634v.085a5.993,5.993,0,0,0,7.808,0v-.085A3.9,3.9,0,0,0,377.691,136.748Z" transform="translate(-372.365 -131.607)" fill="#12263f"/>
            </g>
            <g id="Grupo_29077" data-name="Grupo 29077" transform="translate(1.555 167.399)">
              <rect id="Rectángulo_26553" data-name="Rectángulo 26553" width="55.636" height="34.695" rx="2.294" fill="#cbd9e4"/>
              <g id="Grupo_29075" data-name="Grupo 29075" transform="translate(4.833 7.521)">
                <g id="Grupo_29073" data-name="Grupo 29073">
                  <rect id="Rectángulo_26554" data-name="Rectángulo 26554" width="3.371" height="19.652" fill="#f6c343"/>
                  <rect id="Rectángulo_26555" data-name="Rectángulo 26555" width="3.371" height="19.652" transform="translate(7.222)" fill="#f6c343"/>
                  <rect id="Rectángulo_26556" data-name="Rectángulo 26556" width="3.371" height="19.652" transform="translate(14.443)" fill="#f6c343"/>
                  <rect id="Rectángulo_26557" data-name="Rectángulo 26557" width="3.371" height="19.652" transform="translate(21.665)" fill="#f6c343"/>
                  <rect id="Rectángulo_26558" data-name="Rectángulo 26558" width="3.371" height="19.652" transform="translate(28.887)" fill="#f6c343"/>
                </g>
                <g id="Grupo_29074" data-name="Grupo 29074">
                  <rect id="Rectángulo_26559" data-name="Rectángulo 26559" width="3.371" height="4.908" fill="#f1f1f1"/>
                  <rect id="Rectángulo_26560" data-name="Rectángulo 26560" width="3.371" height="11.453" transform="translate(7.222)" fill="#f1f1f1"/>
                  <rect id="Rectángulo_26561" data-name="Rectángulo 26561" width="3.371" height="8.357" transform="translate(14.443)" fill="#f1f1f1"/>
                  <rect id="Rectángulo_26562" data-name="Rectángulo 26562" width="3.371" height="14.178" transform="translate(21.665)" fill="#f1f1f1"/>
                  <rect id="Rectángulo_26563" data-name="Rectángulo 26563" width="3.371" height="16.713" transform="translate(28.887)" fill="#f1f1f1"/>
                </g>
              </g>
              <g id="Grupo_29076" data-name="Grupo 29076" transform="translate(40.728 7.521)" style="mix-blend-mode: multiply;isolation: isolate">
                <rect id="Rectángulo_26564" data-name="Rectángulo 26564" width="10.218" height="1.639" fill="#dce8ef"/>
                <rect id="Rectángulo_26565" data-name="Rectángulo 26565" width="10.218" height="1.639" transform="translate(0 3.603)" fill="#dce8ef"/>
                <rect id="Rectángulo_26566" data-name="Rectángulo 26566" width="10.218" height="1.639" transform="translate(0 7.205)" fill="#dce8ef"/>
                <rect id="Rectángulo_26567" data-name="Rectángulo 26567" width="10.218" height="1.639" transform="translate(0 10.808)" fill="#dce8ef"/>
                <rect id="Rectángulo_26568" data-name="Rectángulo 26568" width="10.218" height="1.639" transform="translate(0 14.411)" fill="#dce8ef"/>
                <rect id="Rectángulo_26569" data-name="Rectángulo 26569" width="10.218" height="1.639" transform="translate(0 18.013)" fill="#dce8ef"/>
              </g>
            </g>
            <g id="Grupo_29082" data-name="Grupo 29082" transform="translate(223.605 86.714)">
              <rect id="Rectángulo_26570" data-name="Rectángulo 26570" width="55.636" height="34.695" rx="2.294" transform="translate(0)" fill="url(#linear-gradient)"/>
              <g id="Grupo_29078" data-name="Grupo 29078" transform="translate(6.296 3.301)" style="mix-blend-mode: multiply;isolation: isolate">
                <line id="Línea_260" data-name="Línea 260" y2="28.094" transform="translate(43.044)" fill="none" stroke="#dce8ef" stroke-miterlimit="10" stroke-width="0.5"/>
                <line id="Línea_261" data-name="Línea 261" y2="28.094" transform="translate(35.87)" fill="none" stroke="#dce8ef" stroke-miterlimit="10" stroke-width="0.5"/>
                <line id="Línea_262" data-name="Línea 262" y2="28.094" transform="translate(28.696)" fill="none" stroke="#dce8ef" stroke-miterlimit="10" stroke-width="0.5"/>
                <line id="Línea_263" data-name="Línea 263" y2="28.094" transform="translate(21.522)" fill="none" stroke="#dce8ef" stroke-miterlimit="10" stroke-width="0.5"/>
                <line id="Línea_264" data-name="Línea 264" y2="28.094" transform="translate(14.348)" fill="none" stroke="#dce8ef" stroke-miterlimit="10" stroke-width="0.5"/>
                <line id="Línea_265" data-name="Línea 265" y2="28.094" fill="none" stroke="#dce8ef" stroke-miterlimit="10" stroke-width="0.5"/>
                <line id="Línea_266" data-name="Línea 266" y2="28.094" transform="translate(7.174)" fill="none" stroke="#dce8ef" stroke-miterlimit="10" stroke-width="0.5"/>
              </g>
              <g id="Grupo_29081" data-name="Grupo 29081" transform="translate(4.866 3.75)">
                <g id="Grupo_29080" data-name="Grupo 29080">
                  <path id="Trazado_68968" data-name="Trazado 68968" d="M615.456,235.847l7.174-6.948,7.174-1.8,7.174-7.1,7.174,2.859,7.174-3.622,7.174-3.93" transform="translate(-614.026 -213.873)" fill="none" stroke="#f6c343" stroke-linecap="round" stroke-miterlimit="10" stroke-width="1"/>
                  <g id="Grupo_29079" data-name="Grupo 29079">
                    <rect id="Rectángulo_26571" data-name="Rectángulo 26571" width="2.859" height="2.859" transform="translate(0 20.545)" fill="#002b45"/>
                    <rect id="Rectángulo_26572" data-name="Rectángulo 26572" width="2.859" height="2.859" transform="translate(7.174 13.597)" fill="#00223d"/>
                    <rect id="Rectángulo_26573" data-name="Rectángulo 26573" width="2.859" height="2.859" transform="translate(14.348 11.794)" fill="#00223d"/>
                    <rect id="Rectángulo_26574" data-name="Rectángulo 26574" width="2.859" height="2.859" transform="translate(21.522 4.692)" fill="#00223d"/>
                    <rect id="Rectángulo_26575" data-name="Rectángulo 26575" width="2.859" height="2.859" transform="translate(28.696 7.552)" fill="#00223d"/>
                    <rect id="Rectángulo_26576" data-name="Rectángulo 26576" width="2.859" height="2.859" transform="translate(35.87 3.93)" fill="#00223d"/>
                    <rect id="Rectángulo_26577" data-name="Rectángulo 26577" width="2.859" height="2.859" transform="translate(43.044)" fill="#00223d"/>
                  </g>
                </g>
              </g>
            </g>
            <path id="Trazado_68969" data-name="Trazado 68969" d="M371.23,226.537h.307a.84.84,0,1,0,0-1.68h-.306l1.267-2.435h-3.266a11.341,11.341,0,1,0,0,6.551H372.5Zm-12.854,8.82a9.66,9.66,0,1,1,9.088-12.934h-.044l-1.267,2.435h-.36a7.466,7.466,0,1,0,0,1.68h.358l1.268,2.436h.043A9.676,9.676,0,0,1,358.375,235.357Zm2.887-10.5a3.008,3.008,0,1,0,0,1.68H364.1a5.786,5.786,0,1,1,0-1.68Z" transform="translate(-338.655 -123.243)" fill="#12263f"/>
            <path id="Trazado_68970" data-name="Trazado 68970" d="M638.468,308.127h7.86V305.2h-7.86ZM648.8,296.976c.059-.7.1-1.4.1-2.118a25.078,25.078,0,0,0-5.463-15.663,1.32,1.32,0,0,0-2.06,0,25.077,25.077,0,0,0-5.462,15.663c0,.714.036,1.419.095,2.118-3.918,2.638-6.5,9.166-3.635,14.206a.524.524,0,0,0,.97-.126c.441-1.9,1.629-5.387,4.514-6.741h9.1c2.886,1.353,4.075,4.844,4.515,6.741a.524.524,0,0,0,.97.126C655.3,306.142,652.714,299.613,648.8,296.976Zm-6.4-6.365a2.316,2.316,0,1,1,2.317-2.316A2.315,2.315,0,0,1,642.4,290.61Z" transform="translate(-388.296 -134.486)" fill="#12263f"/>
            <g id="Grupo_29083" data-name="Grupo 29083" transform="translate(22.444 46.293)">
              <path id="Trazado_68971" data-name="Trazado 68971" d="M365.812,163.518a1.736,1.736,0,1,0-1.227-.508,1.751,1.751,0,0,0,1.227.508" transform="translate(-364.077 -160.047)" fill="#cbd9e4"/>
              <path id="Trazado_68972" data-name="Trazado 68972" d="M392.494,163.518h.008a1.736,1.736,0,0,0,0-3.471h-.008a1.736,1.736,0,0,0,0,3.471Zm-12.069,0h.008a1.736,1.736,0,1,0,0-3.471h-.008a1.736,1.736,0,0,0,0,3.471Z" transform="translate(-366.63 -160.047)" fill="#cbd9e4"/>
              <path id="Trazado_68973" data-name="Trazado 68973" d="M409.684,163.518a1.734,1.734,0,1,0-1.227-.508,1.748,1.748,0,0,0,1.227.508" transform="translate(-371.743 -160.047)" fill="#cbd9e4"/>
            </g>
            <g id="Grupo_29084" data-name="Grupo 29084" transform="translate(234.411 0)">
              <path id="Trazado_68974" data-name="Trazado 68974" d="M622.656,107.423a1.735,1.735,0,1,0-1.227-.508,1.745,1.745,0,0,0,1.227.508" transform="translate(-620.921 -103.953)" fill="#cbd9e4"/>
              <path id="Trazado_68975" data-name="Trazado 68975" d="M649.338,107.423h.009a1.735,1.735,0,1,0,0-3.47h-.009a1.735,1.735,0,1,0,0,3.47Zm-12.069,0h.009a1.735,1.735,0,1,0,0-3.47h-.009a1.735,1.735,0,0,0,0,3.47Z" transform="translate(-623.474 -103.953)" fill="#cbd9e4"/>
              <path id="Trazado_68976" data-name="Trazado 68976" d="M666.529,107.423a1.735,1.735,0,1,0-1.227-.508,1.747,1.747,0,0,0,1.227.508" transform="translate(-628.586 -103.953)" fill="#cbd9e4"/>
            </g>
            <g id="Grupo_29085" data-name="Grupo 29085" transform="translate(23.295 261.758)">
              <path id="Trazado_68977" data-name="Trazado 68977" d="M372.748,428.77h-7.64v-7.64h7.64Zm-6.339-1.3h5.037v-5.038h-5.037Z" transform="translate(-365.108 -421.13)" fill="#dfe1f7"/>
            </g>
            <g id="Grupo_29086" data-name="Grupo 29086" transform="translate(276.542 159.262)">
              <path id="Trazado_68978" data-name="Trazado 68978" d="M679.611,304.573h-7.641v-7.64h7.641Zm-6.339-1.3h5.037v-5.037h-5.037Z" transform="translate(-671.971 -296.933)" fill="#cbd9e4"/>
            </g>
            <g id="Grupo_29087" data-name="Grupo 29087" transform="translate(276.542 171.839)">
              <path id="Trazado_68979" data-name="Trazado 68979" d="M679.611,319.814h-7.641v-7.64h7.641Zm-6.339-1.3h5.037v-5.037h-5.037Z" transform="translate(-671.971 -312.174)" fill="#cbd9e4"/>
            </g>
            <path id="Trazado_68980" data-name="Trazado 68980" d="M383.742,374.093v-4.55h-2.526v4.55h-4.551v2.525h4.551v4.551h2.526v-4.551h4.55v-2.525Z" transform="translate(-343.832 -150.358)" fill="#002b45"/>
            <path id="Trazado_68981" data-name="Trazado 68981" d="M638.749,436.3a1.5,1.5,0,1,0,1.057.438A1.506,1.506,0,0,0,638.749,436.3Zm7.716,0h-.008a1.5,1.5,0,0,0,0,2.991h.008a1.5,1.5,0,0,0,0-2.991Zm-7.716-7.64a1.5,1.5,0,1,0,1.057.438A1.509,1.509,0,0,0,638.749,428.661Zm7.708,2.992h.008a1.5,1.5,0,0,0,0-2.992h-.008a1.5,1.5,0,0,0,0,2.992Z" transform="translate(-389.363 -160.688)" fill="#f9fbfc"/>
            <path id="Trazado_68982" data-name="Trazado 68982" d="M349.623,292.989a1.736,1.736,0,1,0,1.227.508A1.75,1.75,0,0,0,349.623,292.989Zm8.953,0h-.008a1.736,1.736,0,1,0,0,3.471h.008a1.736,1.736,0,1,0,0-3.471Zm-8.953-8.863a1.734,1.734,0,1,0,1.227.507A1.749,1.749,0,0,0,349.623,284.126Zm8.944,3.47h.008a1.735,1.735,0,1,0,0-3.47h-.008a1.735,1.735,0,1,0,0,3.47Z" transform="translate(-338.804 -135.434)" fill="#cbd9e4"/>
            <path id="Trazado_68983" data-name="Trazado 68983" d="M658.481,266.763H651.31v1.158h7.171ZM653.827,274l.819.819,5.07-5.07-.819-.819Zm10.29-7.233v1.158h7.171v-1.158Zm-10.29-6.074,5.07,5.07.819-.819-5.07-5.07Zm14.943,0-.819-.819-5.07,5.07.819.819Zm-5.888,9.055,5.07,5.07.819-.819-5.07-5.07Zm-2.161-5.221h1.158v-7.169H660.72Zm0,12.807h1.158v-7.169H660.72Z" transform="translate(-391.819 -130.756)" fill="#cbd9e4"/>
            <path id="Trazado_68984" data-name="Trazado 68984" d="M379.6,179.931h-25.5a3.844,3.844,0,0,0-3.844,3.844v14.257" transform="translate(-339.219 -117.228)" fill="none" stroke="#cbd9e4" stroke-miterlimit="10" stroke-width="2"/>
            <path id="Trazado_68985" data-name="Trazado 68985" d="M660,290.711H680.51a2.726,2.726,0,0,1,2.727,2.726v36.007a2.726,2.726,0,0,1-2.727,2.726h-7.635" transform="translate(-393.337 -136.584)" fill="none" stroke="#cbd9e4" stroke-miterlimit="10" stroke-width="2"/>
            <path id="Trazado_68986" data-name="Trazado 68986" d="M367.065,372.56h-14.3a3.69,3.69,0,0,1-3.691-3.691V353.538" transform="translate(-339.011 -147.562)" fill="none" stroke="#cbd9e4" stroke-miterlimit="10" stroke-width="2"/>
            <path id="Trazado_68987" data-name="Trazado 68987" d="M413.173,116.955v-7.3a3.6,3.6,0,0,1,3.6-3.6H575.688" transform="translate(-350.211 -104.321)" fill="none" stroke="#cbd9e4" stroke-miterlimit="10" stroke-width="2"/>
            <line id="Línea_267" data-name="Línea 267" y2="35.033" transform="translate(38.647 234.365)" fill="none" stroke="#dfe1f7" stroke-miterlimit="10" stroke-width="2"/>
          </g>
        </g>
      </g>
    </g>
  </g>
</svg>
