<svg xmlns="http://www.w3.org/2000/svg" width="237.894" height="107.522" viewBox="0 0 237.894 107.522">
  <g id="Grupo_1077892" data-name="Grupo 1077892" transform="translate(-434 7937.599)">
    <path id="Trazado_826161" data-name="Trazado 826161" d="M274.424,84.461c.006-.29.044-.573.044-.866a36.042,36.042,0,0,0-33.447-35.929,45.561,45.561,0,0,0-80.13-12.417,30.058,30.058,0,0,0-42.043,5.679A26.188,26.188,0,1,1,87.27,73.068a30.147,30.147,0,0,0,25.295,46.585H267.879l-.81-.69a17.681,17.681,0,1,0,7.355-34.5" transform="translate(382.277 -7949.729)" fill="#fff"/>
    <g id="Grupo_42274" data-name="Grupo 42274" transform="translate(434 -7937.599)">
      <g id="Grupo_18423" data-name="Grupo 18423" transform="translate(0 0)">
        <g id="Grupo_18421" data-name="Grupo 18421">
          <g id="Grupo_18420" data-name="Grupo 18420">
            <g id="Grupo_18419" data-name="Grupo 18419">
              <path id="Trazado_40936" data-name="Trazado 40936" d="M294.623,2195.719a50,50,0,1,1-50-50A50,50,0,0,1,294.623,2195.719Z" transform="translate(-194.623 -2145.721)" fill="#fff"/>
            </g>
          </g>
        </g>
        <path id="Trazado_40937" data-name="Trazado 40937" d="M293.964,2195.133a49.881,49.881,0,1,0-49.88,49.87A49.664,49.664,0,0,0,293.964,2195.133Z" transform="translate(-193.964 -2145.004)" fill="#2efec7"/>
        <path id="Trazado_40938" data-name="Trazado 40938" d="M274.09,2189.3a35.861,35.861,0,1,0-35.859,35.848A35.709,35.709,0,0,0,274.09,2189.3Z" transform="translate(-187.932 -2138.979)" fill="none" stroke="#12263f" stroke-miterlimit="10" stroke-width="4"/>
        <g id="Grupo_18422" data-name="Grupo 18422" transform="translate(10.495 14.781)">
          <path id="Trazado_40939" data-name="Trazado 40939" d="M285.085,2164.488a69.544,69.544,0,0,1,4.226,24.072c0,32.716-21.984,59.238-49.1,59.238-16.295,0-30.731-9.579-39.665-24.319a59.775,59.775,0,0,0,4.887,7.892c8.941,11.3,21.549,18.336,35.517,18.336,27.119,0,49.1-26.522,49.1-59.242A69.163,69.163,0,0,0,285.085,2164.488Z" transform="translate(-200.545 -2164.488)" fill="#eceef0"/>
        </g>
      </g>
    </g>
    <g id="o8E3X5.tif" transform="translate(456.26 -7917.958)">
      <g id="Grupo_152069" data-name="Grupo 152069">
        <path id="Trazado_194695" data-name="Trazado 194695" d="M1193.494-335.647h1.926a2.268,2.268,0,0,0,.341.1,9.471,9.471,0,0,1,5.91,3.158,10,10,0,0,1,2.012,3.561,1.48,1.48,0,0,0,.223.014,7.617,7.617,0,0,1,8.095,4.338.589.589,0,0,0,.635.388c1.183-.017,2.366-.007,3.549-.007,2.175,0,3.306,1.124,3.306,3.286q0,12.931.007,25.862a3.472,3.472,0,0,0,.168,1.055q1.107,3.4,2.253,6.78c.46,1.358.948,2.707,1.424,4.06v2.889c-.609,1.751-1.875,2.312-3.674,2.308q-25.324-.054-50.649-.021c-.241,0-.482.007-.722-.006a2.651,2.651,0,0,1-2.535-1.959,7.977,7.977,0,0,1,0-3.43c1.044-3.55,2.3-7.038,3.458-10.556a3.819,3.819,0,0,0,.195-1.169q.016-12.993.009-25.986a2.9,2.9,0,0,1,3.12-3.11c1.2,0,2.406-.016,3.609.008a.757.757,0,0,0,.813-.493,7.374,7.374,0,0,1,5.769-4.215,17.209,17.209,0,0,1,2.488-.019c.061-.162.1-.273.145-.384a9.438,9.438,0,0,1,5.867-5.876A22.7,22.7,0,0,1,1193.494-335.647Zm20.177,36.56v-19.229c-.382,0-.721,0-1.06,0-.139,0-.278.014-.406.021a7.9,7.9,0,0,1-8.1,4.794c-.313-.013-.627,0-.984,0v3.912a.867.867,0,0,0,.007.3,1.349,1.349,0,0,0,.25.449c.671.69,1.367,1.356,2.031,2.053a.611.611,0,0,0,.731.169,2.858,2.858,0,0,1,3.321,1.288,2.875,2.875,0,0,1-.45,3.492,2.877,2.877,0,0,1-3.491.46,2.843,2.843,0,0,1-1.294-3.316.655.655,0,0,0-.208-.775c-.818-.8-1.61-1.624-2.434-2.416a1.167,1.167,0,0,1-.4-.94c.022-1.539.009-3.078.009-4.638h-5.777c0,2.119.008,4.2-.007,6.283a.778.778,0,0,0,.472.832,2.809,2.809,0,0,1,1.4,3.061,2.9,2.9,0,0,1-2.48,2.3,2.909,2.909,0,0,1-2.983-1.691,2.586,2.586,0,0,1,.761-3.3c.993-.583.927-1.323.916-2.189-.016-1.364,0-2.728,0-4.092V-313.5h-5.777c0,.715,0,1.353,0,1.992-.008,1.082.265,2.281-.116,3.211-.373.908-1.4,1.557-2.17,2.29-.529.5-1.09.963-.625,1.8a.681.681,0,0,1,.02.3,2.91,2.91,0,0,1-1.948,2.762,2.88,2.88,0,0,1-3.231-.984,2.866,2.866,0,0,1-.118-3.323,2.789,2.789,0,0,1,3.146-1.184.783.783,0,0,0,.929-.255c.622-.654,1.276-1.276,1.907-1.922a.792.792,0,0,0,.267-.438c.02-1.4.012-2.8.012-4.251-.573,0-1.089,0-1.605,0a7.681,7.681,0,0,1-7.309-4.476c-.069-.137-.225-.309-.354-.321-.428-.041-.862-.015-1.291-.015v19.227Zm-19.261-16.341h10.651c.06,0,.121,0,.181,0a5.581,5.581,0,0,0,5.056-3.409,5.429,5.429,0,0,0-.853-6.077,5.528,5.528,0,0,0-5.795-1.883c-1.13.256-1.449.087-1.713-1.016a7.652,7.652,0,0,0-7.464-5.913,7.654,7.654,0,0,0-7.5,5.938c-.256,1.062-.605,1.27-1.675,1a5.783,5.783,0,0,0-7.2,5.538,5.764,5.764,0,0,0,5.73,5.824C1187.35-315.405,1190.881-315.428,1194.411-315.428Zm26.594,31.756c-.033-.145-.047-.244-.078-.336-.988-2.962-1.99-5.921-2.955-8.891-.135-.415-.382-.383-.683-.383q-22.832,0-45.664-.009a.627.627,0,0,0-.723.505c-.946,2.892-1.917,5.775-2.876,8.663a3.763,3.763,0,0,0-.092.451h19.028c.248-.974.49-1.941.741-2.905.186-.711.456-.925,1.188-.925q5.565,0,11.13,0a1.014,1.014,0,0,1,1.189.924c.251.964.492,1.931.74,2.906Zm-3.439-11.559V-304.9q0-8,0-16c0-.946-.319-1.264-1.259-1.267q-1.534,0-3.068,0c-.169,0-.337.026-.48.038v1.831a.641.641,0,0,0,.144.046c.521,0,1.043,0,1.564.01.826.01,1.172.346,1.173,1.172q0,10.378,0,20.756c0,.828-.345,1.178-1.166,1.178q-20,0-40.008,0c-.833,0-1.187-.342-1.188-1.156q-.005-10.408,0-20.816c0-.783.356-1.124,1.148-1.134.576-.007,1.152,0,1.726,0v-1.926c-1.178,0-2.318,0-3.459,0-1.058,0-1.343.29-1.343,1.363q0,12.484,0,24.967c0,.194.017.388.027.6Zm3.85,13.542h-53.876c-.157,1.616.085,1.888,1.648,1.888h50.651c.181,0,.361.006.541,0a.97.97,0,0,0,1.035-1.007C1221.427-281.088,1221.416-281.367,1221.416-281.689Zm-31.985-3.869-.466,1.882h10.986l-.467-1.882Zm-6.532-18.288a.971.971,0,0,0-.918-.985.966.966,0,0,0-1,.962.968.968,0,0,0,.947.955A.968.968,0,0,0,1182.9-303.846Zm12.517-.033a.968.968,0,0,0-.951-.952.966.966,0,0,0-.967.994.969.969,0,0,0,.98.923A.968.968,0,0,0,1195.415-303.879Zm12.517.032a.967.967,0,0,0-.917-.984.966.966,0,0,0-1,.962.965.965,0,0,0,.947.955A.968.968,0,0,0,1207.933-303.846Z" transform="translate(-1165.573 335.647)" fill="#12263f"/>
        <path id="Trazado_194696" data-name="Trazado 194696" d="M1291.361,65.68h-5.7V63.814h5.7Z" transform="translate(-1271.174 -15.635)" fill="#12263f"/>
        <path id="Trazado_194697" data-name="Trazado 194697" d="M1477.1,65.677V63.839h5.719v1.838Z" transform="translate(-1439.531 -15.657)" fill="#12263f"/>
        <path id="Trazado_194698" data-name="Trazado 194698" d="M1221.721,31.822h1.848v1.859h-1.848Z" transform="translate(-1214.949 12.498)" fill="#12263f"/>
        <path id="Trazado_194699" data-name="Trazado 194699" d="M1255.622,33.822h-1.838v-1.87h1.838Z" transform="translate(-1243.145 12.384)" fill="#12263f"/>
        <path id="Trazado_194700" data-name="Trazado 194700" d="M1285.511,33.718V31.871h1.873v1.847Z" transform="translate(-1271.045 12.455)" fill="#12263f"/>
        <path id="Trazado_194701" data-name="Trazado 194701" d="M1317.521,31.822h1.848v1.859h-1.848Z" transform="translate(-1299.195 12.498)" fill="#12263f"/>
        <path id="Trazado_194702" data-name="Trazado 194702" d="M1349.4,33.793V31.942h1.861v1.851Z" transform="translate(-1327.228 12.393)" fill="#12263f"/>
        <path id="Trazado_194703" data-name="Trazado 194703" d="M1381.494,31.776h1.844v1.872h-1.844Z" transform="translate(-1355.452 12.539)" fill="#12263f"/>
        <path id="Trazado_194704" data-name="Trazado 194704" d="M1445.215,33.69V31.834h1.851V33.69Z" transform="translate(-1411.488 12.488)" fill="#12263f"/>
        <path id="Trazado_194705" data-name="Trazado 194705" d="M1477.307,31.765h1.84v1.872h-1.84Z" transform="translate(-1439.709 12.548)" fill="#12263f"/>
        <path id="Trazado_194706" data-name="Trazado 194706" d="M1510.954,33.828H1509.1V31.977h1.853Z" transform="translate(-1467.668 12.362)" fill="#12263f"/>
        <path id="Trazado_194707" data-name="Trazado 194707" d="M1540.866,33.824V31.983h1.873v1.841Z" transform="translate(-1495.602 12.357)" fill="#12263f"/>
        <path id="Trazado_194708" data-name="Trazado 194708" d="M1572.816,33.8v-1.83h1.873V33.8Z" transform="translate(-1523.699 12.371)" fill="#12263f"/>
        <path id="Trazado_194709" data-name="Trazado 194709" d="M1221.75,63.611h1.841v1.872h-1.841Z" transform="translate(-1214.974 -15.457)" fill="#12263f"/>
        <path id="Trazado_194710" data-name="Trazado 194710" d="M1255.589,65.7h-1.848V63.843h1.848Z" transform="translate(-1243.107 -15.661)" fill="#12263f"/>
        <path id="Trazado_194711" data-name="Trazado 194711" d="M1542.982,65.693h-1.851V63.832h1.851Z" transform="translate(-1495.835 -15.651)" fill="#12263f"/>
        <path id="Trazado_194712" data-name="Trazado 194712" d="M1574.926,65.7h-1.848V63.845h1.848Z" transform="translate(-1523.929 -15.663)" fill="#12263f"/>
        <path id="Trazado_194713" data-name="Trazado 194713" d="M1415.259,33.769h-1.848V31.911h1.848Z" transform="translate(-1383.519 12.42)" fill="#12263f"/>
      </g>
    </g>
    <path id="Trazado_826423" data-name="Trazado 826423" d="M5.722-4.526H4.052V0H.967V-12.8H6a5.621,5.621,0,0,1,3.56,1.01,3.421,3.421,0,0,1,1.283,2.853,4.155,4.155,0,0,1-.541,2.213A3.837,3.837,0,0,1,8.613-5.3L11.285-.132V0H7.98ZM4.052-6.9H6a1.751,1.751,0,0,0,1.323-.463A1.788,1.788,0,0,0,7.77-8.653a1.809,1.809,0,0,0-.448-1.3A1.735,1.735,0,0,0,6-10.424H4.052ZM15.7,0H12.727V-9.51H15.7ZM12.551-11.971a1.334,1.334,0,0,1,.457-1.043,1.718,1.718,0,0,1,1.187-.407,1.718,1.718,0,0,1,1.187.407,1.334,1.334,0,0,1,.457,1.043,1.334,1.334,0,0,1-.457,1.043,1.718,1.718,0,0,1-1.187.407,1.718,1.718,0,0,1-1.187-.407A1.334,1.334,0,0,1,12.551-11.971ZM22.122.176A4.889,4.889,0,0,1,18.58-1.129a4.507,4.507,0,0,1-1.354-3.4v-.246a5.84,5.84,0,0,1,.541-2.575,3.955,3.955,0,0,1,1.578-1.727,4.763,4.763,0,0,1,2.461-.611A4.117,4.117,0,0,1,24.97-8.442a4.887,4.887,0,0,1,1.16,3.467v1.151H20.241a2.135,2.135,0,0,0,.694,1.257,2.066,2.066,0,0,0,1.389.457,2.662,2.662,0,0,0,2.2-.984l1.354,1.6A3.784,3.784,0,0,1,24.306-.277,5.3,5.3,0,0,1,22.122.176ZM21.788-7.4q-1.3,0-1.547,1.723h2.988v-.229a1.467,1.467,0,0,0-.36-1.1A1.434,1.434,0,0,0,21.788-7.4ZM32.3-2.672a.684.684,0,0,0-.4-.606,6.016,6.016,0,0,0-1.5-.475A6.853,6.853,0,0,1,28.573-4.4a3.062,3.062,0,0,1-1.1-.971A2.319,2.319,0,0,1,27.1-6.68a2.628,2.628,0,0,1,1.081-2.158,4.453,4.453,0,0,1,2.83-.848,4.934,4.934,0,0,1,3.023.853,2.666,2.666,0,0,1,1.143,2.241H32.2q0-1.143-1.2-1.143a1.194,1.194,0,0,0-.782.259.8.8,0,0,0-.316.646.737.737,0,0,0,.387.642,3.654,3.654,0,0,0,1.235.4,10.671,10.671,0,0,1,1.49.378A2.706,2.706,0,0,1,35.156-2.76,2.491,2.491,0,0,1,34-.642a5.068,5.068,0,0,1-2.993.817,5.172,5.172,0,0,1-2.18-.439,3.645,3.645,0,0,1-1.494-1.2A2.707,2.707,0,0,1,26.8-3.05h2.769a1.145,1.145,0,0,0,.439.962,1.808,1.808,0,0,0,1.081.3A1.422,1.422,0,0,0,32-2.03.787.787,0,0,0,32.3-2.672Zm3.894-2.153a6.421,6.421,0,0,1,.475-2.549A3.821,3.821,0,0,1,38.03-9.083a3.591,3.591,0,0,1,2.065-.6,2.855,2.855,0,0,1,2.32,1l.105-.826h2.689V-.36a4.009,4.009,0,0,1-.584,2.184,3.75,3.75,0,0,1-1.692,1.424,6.219,6.219,0,0,1-2.566.5,5.365,5.365,0,0,1-2.026-.4,3.657,3.657,0,0,1-1.5-1.028L38.083.58a2.716,2.716,0,0,0,2.18.976A1.764,1.764,0,0,0,42.231-.466v-.3a2.781,2.781,0,0,1-2.153.94,3.437,3.437,0,0,1-2.812-1.332A5.517,5.517,0,0,1,36.193-4.72Zm2.971.185a3.383,3.383,0,0,0,.439,1.85,1.386,1.386,0,0,0,1.23.681,1.573,1.573,0,0,0,1.4-.642v-4a1.534,1.534,0,0,0-1.38-.65,1.4,1.4,0,0,0-1.239.708A3.858,3.858,0,0,0,39.164-4.641Zm7.356-.2a5.613,5.613,0,0,1,.554-2.536,3.96,3.96,0,0,1,1.591-1.709,4.791,4.791,0,0,1,2.435-.6,4.373,4.373,0,0,1,3.366,1.323,5.076,5.076,0,0,1,1.23,3.6v.105a4.925,4.925,0,0,1-1.235,3.529A4.384,4.384,0,0,1,51.117.176a4.434,4.434,0,0,1-3.261-1.217,4.761,4.761,0,0,1-1.327-3.3Zm2.962.185A3.538,3.538,0,0,0,49.9-2.725a1.376,1.376,0,0,0,1.222.615q1.582,0,1.617-2.435v-.3Q52.734-7.4,51.1-7.4q-1.485,0-1.608,2.206Zm12.5,1.986a.684.684,0,0,0-.4-.606,6.016,6.016,0,0,0-1.5-.475A6.853,6.853,0,0,1,58.254-4.4a3.062,3.062,0,0,1-1.1-.971,2.319,2.319,0,0,1-.378-1.31,2.628,2.628,0,0,1,1.081-2.158,4.453,4.453,0,0,1,2.83-.848,4.934,4.934,0,0,1,3.023.853,2.666,2.666,0,0,1,1.143,2.241H61.884q0-1.143-1.2-1.143a1.194,1.194,0,0,0-.782.259.8.8,0,0,0-.316.646.737.737,0,0,0,.387.642,3.654,3.654,0,0,0,1.235.4,10.671,10.671,0,0,1,1.49.378A2.706,2.706,0,0,1,64.837-2.76,2.491,2.491,0,0,1,63.681-.642a5.068,5.068,0,0,1-2.993.817,5.172,5.172,0,0,1-2.18-.439,3.645,3.645,0,0,1-1.494-1.2,2.707,2.707,0,0,1-.536-1.591h2.769a1.145,1.145,0,0,0,.439.962,1.808,1.808,0,0,0,1.081.3,1.422,1.422,0,0,0,.91-.246A.787.787,0,0,0,61.98-2.672Zm8.35-2.153a5.809,5.809,0,0,1,.976-3.56,3.211,3.211,0,0,1,2.725-1.3,2.731,2.731,0,0,1,2.145,1V-13.5h2.971V0H76.482l-.149-1.02a2.8,2.8,0,0,1-2.32,1.2,3.205,3.205,0,0,1-2.689-1.3A5.993,5.993,0,0,1,70.33-4.825Zm2.962.185q0,2.531,1.477,2.531a1.458,1.458,0,0,0,1.406-.826V-6.557A1.419,1.419,0,0,0,74.786-7.4q-1.371,0-1.485,2.215ZM85.43.176a4.889,4.889,0,0,1-3.542-1.305,4.507,4.507,0,0,1-1.354-3.4v-.246a5.84,5.84,0,0,1,.541-2.575,3.955,3.955,0,0,1,1.578-1.727,4.763,4.763,0,0,1,2.461-.611,4.117,4.117,0,0,1,3.164,1.244,4.887,4.887,0,0,1,1.16,3.467v1.151H83.549a2.135,2.135,0,0,0,.694,1.257,2.066,2.066,0,0,0,1.389.457,2.662,2.662,0,0,0,2.2-.984l1.354,1.6A3.784,3.784,0,0,1,87.614-.277,5.3,5.3,0,0,1,85.43.176ZM85.1-7.4q-1.3,0-1.547,1.723h2.988v-.229a1.467,1.467,0,0,0-.36-1.1A1.434,1.434,0,0,0,85.1-7.4ZM9.659,20.315a5.735,5.735,0,0,1-1,3.538,3.2,3.2,0,0,1-2.694,1.323,2.742,2.742,0,0,1-2.153-.958v4.438H.853V15.49H3.621l.088.879A2.742,2.742,0,0,1,5.95,15.314a3.224,3.224,0,0,1,2.733,1.3,5.805,5.805,0,0,1,.976,3.564ZM6.7,20.131Q6.7,17.6,5.221,17.6a1.394,1.394,0,0,0-1.406.756V22.1a1.439,1.439,0,0,0,1.424.791q1.415,0,1.459-2.443Zm10.02-1.96-.976-.07a1.752,1.752,0,0,0-1.793.879V25H10.986V15.49h2.777l.1,1.222a2.294,2.294,0,0,1,2.083-1.4,2.888,2.888,0,0,1,.826.105ZM20.909,25H17.938V15.49h2.971ZM17.763,13.029a1.334,1.334,0,0,1,.457-1.043,1.934,1.934,0,0,1,2.373,0,1.42,1.42,0,0,1,0,2.087,1.934,1.934,0,0,1-2.373,0A1.334,1.334,0,0,1,17.763,13.029Zm8.763,8.446,1.5-5.985h3.12L28.046,25H25.022l-3.1-9.51h3.129ZM37.257,25a3.344,3.344,0,0,1-.281-.853,2.754,2.754,0,0,1-2.285,1.028,3.374,3.374,0,0,1-2.285-.813,2.588,2.588,0,0,1-.94-2.043,2.66,2.66,0,0,1,1.143-2.338,5.821,5.821,0,0,1,3.322-.791h.914v-.5q0-1.316-1.134-1.316a.927.927,0,0,0-1.055,1.042H31.693a2.655,2.655,0,0,1,1.173-2.239,4.931,4.931,0,0,1,2.993-.86,4.323,4.323,0,0,1,2.874.888,3.086,3.086,0,0,1,1.081,2.435v4.21a4.311,4.311,0,0,0,.4,2V25ZM35.4,23.066a1.652,1.652,0,0,0,.918-.237,1.487,1.487,0,0,0,.523-.536V20.772h-.861q-1.547,0-1.547,1.389a.848.848,0,0,0,.272.655A.986.986,0,0,0,35.4,23.066Zm10.072-.176a1.317,1.317,0,0,0,.967-.338,1.241,1.241,0,0,0,.334-.945h2.777a3.288,3.288,0,0,1-1.121,2.566,4.168,4.168,0,0,1-2.887,1,4.22,4.22,0,0,1-3.27-1.3,5.125,5.125,0,0,1-1.2-3.6v-.123a5.792,5.792,0,0,1,.532-2.544,3.872,3.872,0,0,1,1.534-1.7,4.573,4.573,0,0,1,2.373-.593,4.116,4.116,0,0,1,2.944,1.028,3.647,3.647,0,0,1,1.09,2.786H46.775A1.626,1.626,0,0,0,46.415,18a1.244,1.244,0,0,0-.967-.4q-1.151,0-1.345,1.468a10.357,10.357,0,0,0-.062,1.283,4.068,4.068,0,0,0,.343,1.986A1.187,1.187,0,0,0,45.475,22.891ZM53.93,25H50.959V15.49H53.93ZM50.783,13.029a1.334,1.334,0,0,1,.457-1.043,1.934,1.934,0,0,1,2.373,0,1.42,1.42,0,0,1,0,2.087,1.934,1.934,0,0,1-2.373,0A1.334,1.334,0,0,1,50.783,13.029Zm4.6,7.146a5.809,5.809,0,0,1,.976-3.56,3.211,3.211,0,0,1,2.725-1.3,2.731,2.731,0,0,1,2.145,1V11.5H64.2V25H61.532l-.149-1.02a2.8,2.8,0,0,1-2.32,1.2,3.205,3.205,0,0,1-2.689-1.3A5.993,5.993,0,0,1,55.38,20.175Zm2.962.185q0,2.531,1.477,2.531a1.458,1.458,0,0,0,1.406-.826V18.443a1.419,1.419,0,0,0-1.389-.844q-1.371,0-1.485,2.215ZM71.235,25a3.344,3.344,0,0,1-.281-.853,2.754,2.754,0,0,1-2.285,1.028,3.374,3.374,0,0,1-2.285-.813,2.588,2.588,0,0,1-.94-2.043,2.66,2.66,0,0,1,1.143-2.338,5.821,5.821,0,0,1,3.322-.791h.914v-.5q0-1.316-1.134-1.316a.927.927,0,0,0-1.055,1.042H65.672a2.655,2.655,0,0,1,1.173-2.239,4.931,4.931,0,0,1,2.993-.86,4.323,4.323,0,0,1,2.874.888,3.086,3.086,0,0,1,1.081,2.435v4.21a4.311,4.311,0,0,0,.4,2V25Zm-1.854-1.934a1.652,1.652,0,0,0,.918-.237,1.487,1.487,0,0,0,.523-.536V20.772h-.861q-1.547,0-1.547,1.389a.848.848,0,0,0,.272.655A.986.986,0,0,0,69.381,23.066Zm5.678-2.892a5.809,5.809,0,0,1,.976-3.56,3.211,3.211,0,0,1,2.725-1.3,2.731,2.731,0,0,1,2.145,1V11.5h2.971V25H81.211l-.149-1.02a2.8,2.8,0,0,1-2.32,1.2,3.205,3.205,0,0,1-2.689-1.3A5.993,5.993,0,0,1,75.059,20.175Zm2.962.185q0,2.531,1.477,2.531a1.458,1.458,0,0,0,1.406-.826V18.443a1.419,1.419,0,0,0-1.389-.844q-1.371,0-1.485,2.215Z" transform="translate(534 -7873.456)" fill="#12263f"/>
  </g>
</svg>
