<svg xmlns="http://www.w3.org/2000/svg" width="235.373" height="108.401" viewBox="0 0 235.373 108.401">
  <g id="Grupo_1077891" data-name="Grupo 1077891" transform="translate(-434 8405.472)">
    <path id="Trazado_826420" data-name="Trazado 826420" d="M243.591,144.849c.006-.29.044-.573.044-.866a36.042,36.042,0,0,0-33.447-35.929,45.561,45.561,0,0,0-80.13-12.417,30.058,30.058,0,0,0-42.043,5.679,26.188,26.188,0,1,1-31.579,32.139,30.147,30.147,0,0,0,25.294,46.585H237.046l-.81-.69a17.681,17.681,0,1,0,7.355-34.5" transform="translate(410.589 -8482.297)" fill="#fff"/>
    <g id="Grupo_42274" data-name="Grupo 42274" transform="translate(434 -8397.07)">
      <g id="Grupo_18423" data-name="Grupo 18423" transform="translate(0 0)">
        <g id="Grupo_18421" data-name="Grupo 18421">
          <g id="Grupo_18420" data-name="Grupo 18420">
            <g id="Grupo_18419" data-name="Grupo 18419">
              <path id="Trazado_40936" data-name="Trazado 40936" d="M294.623,2195.719a50,50,0,1,1-50-50A50,50,0,0,1,294.623,2195.719Z" transform="translate(-194.623 -2145.721)" fill="#fff"/>
            </g>
          </g>
        </g>
        <path id="Trazado_40937" data-name="Trazado 40937" d="M293.964,2195.133a49.881,49.881,0,1,0-49.88,49.87A49.664,49.664,0,0,0,293.964,2195.133Z" transform="translate(-193.964 -2145.004)" fill="#2efec7"/>
        <path id="Trazado_40938" data-name="Trazado 40938" d="M274.09,2189.3a35.861,35.861,0,1,0-35.859,35.848A35.709,35.709,0,0,0,274.09,2189.3Z" transform="translate(-187.932 -2138.979)" fill="none" stroke="#12263f" stroke-miterlimit="10" stroke-width="4"/>
        <g id="Grupo_18422" data-name="Grupo 18422" transform="translate(10.495 14.781)">
          <path id="Trazado_40939" data-name="Trazado 40939" d="M285.085,2164.488a69.544,69.544,0,0,1,4.226,24.072c0,32.716-21.984,59.238-49.1,59.238-16.295,0-30.731-9.579-39.665-24.319a59.775,59.775,0,0,0,4.887,7.892c8.941,11.3,21.549,18.336,35.517,18.336,27.119,0,49.1-26.522,49.1-59.242A69.163,69.163,0,0,0,285.085,2164.488Z" transform="translate(-200.545 -2164.488)" fill="#eceef0"/>
        </g>
      </g>
    </g>
    <g id="Grupo_152068" data-name="Grupo 152068" transform="translate(453.188 -8371.405)">
      <path id="Trazado_194690" data-name="Trazado 194690" d="M1018.408,126.887l-4.213-1.6v8.31l5.44-.591c-1.51,1.618-3.644,1.076-5.409,1.745-.034.053-.091.1-.1.158-.8,6.223-.8,6.222,5.3,6.213,1.238,0,2.475,0,4.175,0a6.707,6.707,0,0,1,.182,1.774,34.837,34.837,0,0,1-.786,5.539c-.365,1.409-.262,2.244,1.256,2.632a12.161,12.161,0,0,1,1.735.772l2.828-4.819c1.661.48,1.667,1.4.941,2.79a18.182,18.182,0,0,1-34.3-6.506,17.918,17.918,0,0,1,11.122-18.386,25.447,25.447,0,0,1,8.41-1.328C1018.18,123.509,1018.187,123.768,1018.408,126.887Zm-4.381,21.537c2.381.451,4.45.9,6.541,1.193.422.059,1.265-.4,1.338-.738.461-2.152.759-4.339,1.155-6.785-2.995,0-5.539-.039-8.078.048-.33.011-.891.661-.913,1.04C1013.972,144.914,1014.027,146.656,1014.027,148.424Zm-10-6.243,1.229,7.583,7.636-1.248v-6.335Zm9.02-7.405c-2.357-.44-4.429-.881-6.521-1.171a1.573,1.573,0,0,0-1.324.727,41.43,41.43,0,0,0-.891,5.525,1.64,1.64,0,0,0,1.065,1.211,64.169,64.169,0,0,0,6.549-.011A1.543,1.543,0,0,0,1013,140C1013.114,138.276,1013.048,136.534,1013.048,134.776Zm-11.77-3.344A14.177,14.177,0,0,0,997.7,141h5.427c.223-1.769.357-3.435.656-5.072C1004.349,132.833,1004.388,132.84,1001.278,131.432Zm-3.651,10.795a14.85,14.85,0,0,0,3.151,8.942,1.627,1.627,0,0,0,1.542.1c.763-.454,1.982-1.224,1.934-1.77a73.5,73.5,0,0,0-1.273-7.269Zm23.62,8.449-7.063-1.172v7.933C1017.209,157.634,1019.69,155.308,1021.246,150.676Zm-15.255-.026c1.058,4.406,4.07,7.178,6.9,6.656v-7.821Zm6.924-16.906v-7.995c-3.161-.112-6.037,2.7-6.884,6.81Zm12.064,19.327-.189-.656-2.463-1.111-2.705,4.745.3.378Zm-23.3-.28,5.567,3.644.266-.364-2.773-4.852ZM1007.5,127.2l-.315-.439-5.466,3.718,3.01,1.441Z" transform="translate(-995.364 -109.638)" fill="#12263f"/>
      <path id="Trazado_194691" data-name="Trazado 194691" d="M1095.277,106.955c-.824,10.405-4.933,18.677-14.6,23.454a3.336,3.336,0,0,1-2.549.074c-8.368-3.93-12.761-10.822-14.311-19.713-.309-1.773-.289-3.6-.459-5.4a1.5,1.5,0,0,1,1.293-1.87c4.667-1.072,8.618-3.542,12.349-6.426,2.368-1.83,2.381-1.84,4.7.018,3.646,2.925,7.549,5.357,12.181,6.393C1096.167,103.994,1094.865,105.8,1095.277,106.955Zm-1.685-1.641a36.316,36.316,0,0,1-5.17-1.915,77.853,77.853,0,0,1-7.882-4.987c-1.045-.754-1.574-.742-2.5.049a31.188,31.188,0,0,1-11.375,6.307,1.844,1.844,0,0,0-1.54,2.277c.65,8.449,3.857,15.508,11,20.434,1.7,1.17,3.273,1.932,5.527.51C1089.979,122.74,1093.118,114.922,1093.592,105.314Z" transform="translate(-1037.836 -92.221)" fill="#12263f"/>
      <path id="Trazado_194692" data-name="Trazado 194692" d="M1099.991,160.007c3.935,2.715,8.127,2.316,10.447-.884,2.64-3.642,1.645-7.456-2.938-10.887l.8-2.573a9.779,9.779,0,0,1,6.194,11.974c-1.385,4.953-6.582,8.248-11.453,7.048a3.818,3.818,0,0,0-3.933.982,11.527,11.527,0,0,1-10.535,2.517,3.434,3.434,0,0,0-3.085.635,30.34,30.34,0,0,1-3.733,1.932l4.628-6.4C1091.974,166.71,1096.605,165.5,1099.991,160.007Z" transform="translate(-1049.339 -123.438)" fill="#12263f"/>
      <path id="Trazado_194693" data-name="Trazado 194693" d="M995.825,108.076c1.289-7.287,8.626-13.177,16.655-13.239a3.024,3.024,0,0,0,2.847-1.566,15.151,15.151,0,0,1,19.087-5.361c-1.106,1.358-2.113,2.173-4.184,1.806-5.765-1.022-10.685,1.639-13.3,6.842a1.852,1.852,0,0,1-1.956,1.287c-8.222-.324-14.45,3.155-18.857,10.035C996.057,107.97,995.924,108.012,995.825,108.076Z" transform="translate(-995.652 -86.433)" fill="#12263f"/>
      <path id="Trazado_194694" data-name="Trazado 194694" d="M1086.813,111.215v24.277a19.831,19.831,0,0,1-9.6-11.834c-.609-1.884-1.426-3.934-1.2-5.794.261-2.178,3.1-1.666,4.544-2.816a28.107,28.107,0,0,1,3.085-1.745C1084.646,112.693,1085.611,112.01,1086.813,111.215Z" transform="translate(-1045.723 -101.916)" fill="#12263f"/>
    </g>
    <path id="Trazado_826422" data-name="Trazado 826422" d="M5.722-4.526H4.052V0H.967V-12.8H6a5.621,5.621,0,0,1,3.56,1.01,3.421,3.421,0,0,1,1.283,2.853,4.155,4.155,0,0,1-.541,2.213A3.837,3.837,0,0,1,8.613-5.3L11.285-.132V0H7.98ZM4.052-6.9H6a1.751,1.751,0,0,0,1.323-.463A1.788,1.788,0,0,0,7.77-8.653a1.809,1.809,0,0,0-.448-1.3A1.735,1.735,0,0,0,6-10.424H4.052ZM15.7,0H12.727V-9.51H15.7ZM12.551-11.971a1.334,1.334,0,0,1,.457-1.043,1.718,1.718,0,0,1,1.187-.407,1.718,1.718,0,0,1,1.187.407,1.334,1.334,0,0,1,.457,1.043,1.334,1.334,0,0,1-.457,1.043,1.718,1.718,0,0,1-1.187.407,1.718,1.718,0,0,1-1.187-.407A1.334,1.334,0,0,1,12.551-11.971ZM22.122.176A4.889,4.889,0,0,1,18.58-1.129a4.507,4.507,0,0,1-1.354-3.4v-.246a5.84,5.84,0,0,1,.541-2.575,3.955,3.955,0,0,1,1.578-1.727,4.763,4.763,0,0,1,2.461-.611A4.117,4.117,0,0,1,24.97-8.442a4.887,4.887,0,0,1,1.16,3.467v1.151H20.241a2.135,2.135,0,0,0,.694,1.257,2.066,2.066,0,0,0,1.389.457,2.662,2.662,0,0,0,2.2-.984l1.354,1.6A3.784,3.784,0,0,1,24.306-.277,5.3,5.3,0,0,1,22.122.176ZM21.788-7.4q-1.3,0-1.547,1.723h2.988v-.229a1.467,1.467,0,0,0-.36-1.1A1.434,1.434,0,0,0,21.788-7.4ZM32.3-2.672a.684.684,0,0,0-.4-.606,6.016,6.016,0,0,0-1.5-.475A6.853,6.853,0,0,1,28.573-4.4a3.062,3.062,0,0,1-1.1-.971A2.319,2.319,0,0,1,27.1-6.68a2.628,2.628,0,0,1,1.081-2.158,4.453,4.453,0,0,1,2.83-.848,4.934,4.934,0,0,1,3.023.853,2.666,2.666,0,0,1,1.143,2.241H32.2q0-1.143-1.2-1.143a1.194,1.194,0,0,0-.782.259.8.8,0,0,0-.316.646.737.737,0,0,0,.387.642,3.654,3.654,0,0,0,1.235.4,10.671,10.671,0,0,1,1.49.378A2.706,2.706,0,0,1,35.156-2.76,2.491,2.491,0,0,1,34-.642a5.068,5.068,0,0,1-2.993.817,5.172,5.172,0,0,1-2.18-.439,3.645,3.645,0,0,1-1.494-1.2A2.707,2.707,0,0,1,26.8-3.05h2.769a1.145,1.145,0,0,0,.439.962,1.808,1.808,0,0,0,1.081.3A1.422,1.422,0,0,0,32-2.03.787.787,0,0,0,32.3-2.672Zm3.894-2.153a6.421,6.421,0,0,1,.475-2.549A3.821,3.821,0,0,1,38.03-9.083a3.591,3.591,0,0,1,2.065-.6,2.855,2.855,0,0,1,2.32,1l.105-.826h2.689V-.36a4.009,4.009,0,0,1-.584,2.184,3.75,3.75,0,0,1-1.692,1.424,6.219,6.219,0,0,1-2.566.5,5.365,5.365,0,0,1-2.026-.4,3.657,3.657,0,0,1-1.5-1.028L38.083.58a2.716,2.716,0,0,0,2.18.976A1.764,1.764,0,0,0,42.231-.466v-.3a2.781,2.781,0,0,1-2.153.94,3.437,3.437,0,0,1-2.812-1.332A5.517,5.517,0,0,1,36.193-4.72Zm2.971.185a3.383,3.383,0,0,0,.439,1.85,1.386,1.386,0,0,0,1.23.681,1.573,1.573,0,0,0,1.4-.642v-4a1.534,1.534,0,0,0-1.38-.65,1.4,1.4,0,0,0-1.239.708A3.858,3.858,0,0,0,39.164-4.641Zm7.356-.2a5.613,5.613,0,0,1,.554-2.536,3.96,3.96,0,0,1,1.591-1.709,4.791,4.791,0,0,1,2.435-.6,4.373,4.373,0,0,1,3.366,1.323,5.076,5.076,0,0,1,1.23,3.6v.105a4.925,4.925,0,0,1-1.235,3.529A4.384,4.384,0,0,1,51.117.176a4.434,4.434,0,0,1-3.261-1.217,4.761,4.761,0,0,1-1.327-3.3Zm2.962.185A3.538,3.538,0,0,0,49.9-2.725a1.376,1.376,0,0,0,1.222.615q1.582,0,1.617-2.435v-.3Q52.734-7.4,51.1-7.4q-1.485,0-1.608,2.206Zm12.5,1.986a.684.684,0,0,0-.4-.606,6.016,6.016,0,0,0-1.5-.475A6.853,6.853,0,0,1,58.254-4.4a3.062,3.062,0,0,1-1.1-.971,2.319,2.319,0,0,1-.378-1.31,2.628,2.628,0,0,1,1.081-2.158,4.453,4.453,0,0,1,2.83-.848,4.934,4.934,0,0,1,3.023.853,2.666,2.666,0,0,1,1.143,2.241H61.884q0-1.143-1.2-1.143a1.194,1.194,0,0,0-.782.259.8.8,0,0,0-.316.646.737.737,0,0,0,.387.642,3.654,3.654,0,0,0,1.235.4,10.671,10.671,0,0,1,1.49.378A2.706,2.706,0,0,1,64.837-2.76,2.491,2.491,0,0,1,63.681-.642a5.068,5.068,0,0,1-2.993.817,5.172,5.172,0,0,1-2.18-.439,3.645,3.645,0,0,1-1.494-1.2,2.707,2.707,0,0,1-.536-1.591h2.769a1.145,1.145,0,0,0,.439.962,1.808,1.808,0,0,0,1.081.3,1.422,1.422,0,0,0,.91-.246A.787.787,0,0,0,61.98-2.672Zm8.35-2.153a5.809,5.809,0,0,1,.976-3.56,3.211,3.211,0,0,1,2.725-1.3,2.731,2.731,0,0,1,2.145,1V-13.5h2.971V0H76.482l-.149-1.02a2.8,2.8,0,0,1-2.32,1.2,3.205,3.205,0,0,1-2.689-1.3A5.993,5.993,0,0,1,70.33-4.825Zm2.962.185q0,2.531,1.477,2.531a1.458,1.458,0,0,0,1.406-.826V-6.557A1.419,1.419,0,0,0,74.786-7.4q-1.371,0-1.485,2.215ZM85.43.176a4.889,4.889,0,0,1-3.542-1.305,4.507,4.507,0,0,1-1.354-3.4v-.246a5.84,5.84,0,0,1,.541-2.575,3.955,3.955,0,0,1,1.578-1.727,4.763,4.763,0,0,1,2.461-.611,4.117,4.117,0,0,1,3.164,1.244,4.887,4.887,0,0,1,1.16,3.467v1.151H83.549a2.135,2.135,0,0,0,.694,1.257,2.066,2.066,0,0,0,1.389.457,2.662,2.662,0,0,0,2.2-.984l1.354,1.6A3.784,3.784,0,0,1,87.614-.277,5.3,5.3,0,0,1,85.43.176ZM85.1-7.4q-1.3,0-1.547,1.723h2.988v-.229a1.467,1.467,0,0,0-.36-1.1A1.434,1.434,0,0,0,85.1-7.4ZM5.81,22.328a.684.684,0,0,0-.4-.606,6.016,6.016,0,0,0-1.5-.475A6.853,6.853,0,0,1,2.083,20.6a3.062,3.062,0,0,1-1.1-.971,2.319,2.319,0,0,1-.378-1.31,2.628,2.628,0,0,1,1.081-2.158,4.453,4.453,0,0,1,2.83-.848,4.934,4.934,0,0,1,3.023.853,2.666,2.666,0,0,1,1.143,2.241H5.713q0-1.143-1.2-1.143a1.194,1.194,0,0,0-.782.259.8.8,0,0,0-.316.646.737.737,0,0,0,.387.642,3.654,3.654,0,0,0,1.235.4,10.671,10.671,0,0,1,1.49.378A2.706,2.706,0,0,1,8.666,22.24,2.491,2.491,0,0,1,7.51,24.358a5.068,5.068,0,0,1-2.993.817,5.172,5.172,0,0,1-2.18-.439,3.645,3.645,0,0,1-1.494-1.2A2.707,2.707,0,0,1,.308,21.95H3.076a1.145,1.145,0,0,0,.439.962,1.808,1.808,0,0,0,1.081.3,1.422,1.422,0,0,0,.91-.246A.787.787,0,0,0,5.81,22.328Zm8.842,2.848a4.889,4.889,0,0,1-3.542-1.305,4.507,4.507,0,0,1-1.354-3.4v-.246a5.84,5.84,0,0,1,.541-2.575,3.955,3.955,0,0,1,1.578-1.727,4.763,4.763,0,0,1,2.461-.611A4.117,4.117,0,0,1,17.5,16.558a4.887,4.887,0,0,1,1.16,3.467v1.151H12.771a2.135,2.135,0,0,0,.694,1.257,2.066,2.066,0,0,0,1.389.457,2.662,2.662,0,0,0,2.2-.984l1.354,1.6a3.784,3.784,0,0,1-1.569,1.217A5.3,5.3,0,0,1,14.651,25.176ZM14.317,17.6q-1.3,0-1.547,1.723h2.988v-.229a1.467,1.467,0,0,0-.36-1.1A1.434,1.434,0,0,0,14.317,17.6ZM19.5,20.175a6.421,6.421,0,0,1,.475-2.549,3.821,3.821,0,0,1,1.362-1.709,3.591,3.591,0,0,1,2.065-.6,2.855,2.855,0,0,1,2.32,1l.105-.826h2.689V24.64a4.009,4.009,0,0,1-.584,2.184,3.75,3.75,0,0,1-1.692,1.424,6.219,6.219,0,0,1-2.566.5,5.365,5.365,0,0,1-2.026-.4,3.657,3.657,0,0,1-1.5-1.028l1.239-1.74a2.716,2.716,0,0,0,2.18.976,1.764,1.764,0,0,0,1.969-2.021v-.3a2.781,2.781,0,0,1-2.153.94,3.437,3.437,0,0,1-2.812-1.332A5.517,5.517,0,0,1,19.5,20.28Zm2.971.185a3.383,3.383,0,0,0,.439,1.85,1.387,1.387,0,0,0,1.23.681,1.573,1.573,0,0,0,1.4-.642v-4a1.534,1.534,0,0,0-1.38-.65,1.4,1.4,0,0,0-1.239.708A3.858,3.858,0,0,0,22.474,20.359Zm13.395,3.612a3.054,3.054,0,0,1-2.54,1.2,3,3,0,0,1-2.369-.91,3.826,3.826,0,0,1-.8-2.615V15.49h2.962v6.179A1.065,1.065,0,0,0,34.3,22.891a1.548,1.548,0,0,0,1.45-.729V15.49h2.979V25H35.956Zm10.239-5.8-.976-.07a1.752,1.752,0,0,0-1.793.879V25H40.377V15.49h2.777l.1,1.222a2.294,2.294,0,0,1,2.083-1.4,2.888,2.888,0,0,1,.826.105ZM50.3,25H47.329V15.49H50.3ZM47.153,13.029a1.334,1.334,0,0,1,.457-1.043,1.934,1.934,0,0,1,2.373,0,1.42,1.42,0,0,1,0,2.087,1.934,1.934,0,0,1-2.373,0A1.334,1.334,0,0,1,47.153,13.029Zm4.6,7.146a5.809,5.809,0,0,1,.976-3.56,3.211,3.211,0,0,1,2.725-1.3,2.731,2.731,0,0,1,2.145,1V11.5h2.971V25H57.9l-.149-1.02a2.8,2.8,0,0,1-2.32,1.2,3.205,3.205,0,0,1-2.689-1.3A5.993,5.993,0,0,1,51.75,20.175Zm2.962.185q0,2.531,1.477,2.531a1.458,1.458,0,0,0,1.406-.826V18.443a1.419,1.419,0,0,0-1.389-.844q-1.371,0-1.485,2.215ZM67.605,25a3.344,3.344,0,0,1-.281-.853,2.754,2.754,0,0,1-2.285,1.028,3.374,3.374,0,0,1-2.285-.813,2.588,2.588,0,0,1-.94-2.043,2.66,2.66,0,0,1,1.143-2.338,5.821,5.821,0,0,1,3.322-.791h.914v-.5q0-1.316-1.134-1.316A.927.927,0,0,0,65,18.413H62.042a2.655,2.655,0,0,1,1.173-2.239,4.931,4.931,0,0,1,2.993-.86,4.323,4.323,0,0,1,2.874.888,3.086,3.086,0,0,1,1.081,2.435v4.21a4.311,4.311,0,0,0,.4,2V25Zm-1.854-1.934a1.652,1.652,0,0,0,.918-.237,1.487,1.487,0,0,0,.523-.536V20.772h-.861q-1.547,0-1.547,1.389a.848.848,0,0,0,.272.655A.986.986,0,0,0,65.751,23.066Zm5.678-2.892a5.809,5.809,0,0,1,.976-3.56,3.211,3.211,0,0,1,2.725-1.3,2.731,2.731,0,0,1,2.145,1V11.5h2.971V25H77.581l-.149-1.02a2.8,2.8,0,0,1-2.32,1.2,3.205,3.205,0,0,1-2.689-1.3A5.993,5.993,0,0,1,71.429,20.175Zm2.962.185q0,2.531,1.477,2.531a1.458,1.458,0,0,0,1.406-.826V18.443a1.419,1.419,0,0,0-1.389-.844q-1.371,0-1.485,2.215Z" transform="translate(539.733 -8344.857)" fill="#12263f"/>
  </g>
</svg>
