<svg xmlns="http://www.w3.org/2000/svg" width="610" height="233.781" viewBox="0 0 610 233.781">
  <g id="Grupo_1077930" data-name="Grupo 1077930" transform="translate(-285 -11595.316)">
    <path id="Trazado_826595" data-name="Trazado 826595" d="M10,0H273.654a10,10,0,0,1,10,10V61.594a10,10,0,0,1-10,10H10a10,10,0,0,1-10-10V10A10,10,0,0,1,10,0Z" transform="translate(286.377 11596.164)" fill="#ffc8bf"/>
    <g id="Trazado_826596" data-name="Trazado 826596" transform="translate(285 11596.164)" fill="#fff">
      <path d="M 57.46352005004883 71.09394073486328 L 10.00000190734863 71.09394073486328 C 4.761682033538818 71.09394073486328 0.5000019073486328 66.83226013183594 0.5000019073486328 61.59394073486328 L 0.5000019073486328 10 C 0.5000019073486328 4.761680603027344 4.761682033538818 0.5000003576278687 10.00000190734863 0.5000003576278687 L 57.46352005004883 0.5000003576278687 C 62.70184326171875 0.5000003576278687 66.96352386474609 4.761680603027344 66.96352386474609 10 L 66.96352386474609 61.59394073486328 C 66.96352386474609 66.83226013183594 62.70184326171875 71.09394073486328 57.46352005004883 71.09394073486328 Z" stroke="none"/>
      <path d="M 10.00000381469727 1 C 5.037380218505859 1 1 5.037384033203125 1 10 L 1 61.59394073486328 C 1 66.55656433105469 5.037380218505859 70.59394073486328 10.00000381469727 70.59394073486328 L 57.46352386474609 70.59394073486328 C 62.42613983154297 70.59394073486328 66.46352386474609 66.55656433105469 66.46352386474609 61.59394073486328 L 66.46352386474609 10 C 66.46352386474609 5.037384033203125 62.42613983154297 1 57.46352386474609 1 L 10.00000381469727 1 M 10.00000381469727 0 L 57.46352386474609 0 C 62.98637390136719 0 67.46352386474609 4.477149963378906 67.46352386474609 10 L 67.46352386474609 61.59394073486328 C 67.46352386474609 67.11679077148438 62.98637390136719 71.59394073486328 57.46352386474609 71.59394073486328 L 10.00000381469727 71.59394073486328 C 4.477153778076172 71.59394073486328 0 67.11679077148438 0 61.59394073486328 L 0 10 C 0 4.477149963378906 4.477153778076172 0 10.00000381469727 0 Z" stroke="none" fill="#afafaf"/>
    </g>
    <path id="Trazado_826597" data-name="Trazado 826597" d="M-86.256-6.246h-2.8V0h-3.516V-17.062h6.34a7.167,7.167,0,0,1,4.664,1.348,4.651,4.651,0,0,1,1.641,3.809,5.249,5.249,0,0,1-.756,2.912,5.155,5.155,0,0,1-2.291,1.857l3.691,6.973V0h-3.773Zm-2.8-2.848h2.836a2.9,2.9,0,0,0,2.051-.674,2.408,2.408,0,0,0,.727-1.857,2.578,2.578,0,0,0-.686-1.9,2.849,2.849,0,0,0-2.1-.691h-2.824ZM-70.131,0a3.761,3.761,0,0,1-.34-1.137A4.1,4.1,0,0,1-73.67.234,4.5,4.5,0,0,1-76.758-.844a3.467,3.467,0,0,1-1.225-2.719,3.583,3.583,0,0,1,1.494-3.094,7.373,7.373,0,0,1,4.318-1.09h1.559v-.727a2.089,2.089,0,0,0-.451-1.406,1.775,1.775,0,0,0-1.424-.527,2.018,2.018,0,0,0-1.342.41,1.393,1.393,0,0,0-.486,1.125H-77.7a3.4,3.4,0,0,1,.68-2.039A4.493,4.493,0,0,1-75.1-12.381a7,7,0,0,1,2.789-.533,5.534,5.534,0,0,1,3.721,1.178,4.12,4.12,0,0,1,1.377,3.311v5.5a6.062,6.062,0,0,0,.5,2.73V0Zm-2.8-2.355a2.917,2.917,0,0,0,1.383-.334,2.194,2.194,0,0,0,.938-.9v-2.18h-1.266q-2.543,0-2.707,1.758l-.012.2a1.356,1.356,0,0,0,.445,1.043A1.73,1.73,0,0,0-72.932-2.355Zm7.793-4.078a7.641,7.641,0,0,1,1.33-4.723,4.316,4.316,0,0,1,3.639-1.758,3.884,3.884,0,0,1,3.059,1.383V-18h3.4V0h-3.059l-.164-1.348A3.985,3.985,0,0,1-60.193.234a4.3,4.3,0,0,1-3.592-1.764A7.887,7.887,0,0,1-65.139-6.434Zm3.387.241a5.033,5.033,0,0,0,.621,2.743,2.022,2.022,0,0,0,1.8.954,2.265,2.265,0,0,0,2.215-1.33V-8.853a2.233,2.233,0,0,0-2.191-1.33Q-61.752-10.184-61.752-6.193ZM-47.514,0h-3.4V-12.68h3.4Zm-3.6-15.961a1.668,1.668,0,0,1,.51-1.254,1.915,1.915,0,0,1,1.389-.492,1.919,1.919,0,0,1,1.383.492,1.658,1.658,0,0,1,.516,1.254,1.663,1.663,0,0,1-.521,1.266,1.924,1.924,0,0,1-1.377.492A1.924,1.924,0,0,1-50.59-14.7,1.663,1.663,0,0,1-51.111-15.961Zm5.859,9.5a7.52,7.52,0,0,1,.727-3.363,5.319,5.319,0,0,1,2.092-2.285,6.1,6.1,0,0,1,3.17-.809,5.774,5.774,0,0,1,4.189,1.57,6.3,6.3,0,0,1,1.811,4.266l.023.867a6.627,6.627,0,0,1-1.629,4.682A5.662,5.662,0,0,1-39.24.234a5.69,5.69,0,0,1-4.377-1.758A6.744,6.744,0,0,1-45.252-6.3Zm3.387.24a4.74,4.74,0,0,0,.68,2.764A2.242,2.242,0,0,0-39.24-2.5a2.247,2.247,0,0,0,1.922-.945,5.186,5.186,0,0,0,.691-3.022,4.692,4.692,0,0,0-.691-2.746,2.248,2.248,0,0,0-1.945-.974,2.211,2.211,0,0,0-1.922.968A5.274,5.274,0,0,0-41.865-6.217ZM-30.229,0V-10.2h-1.887V-12.68h1.887v-1.078A4.377,4.377,0,0,1-29-17.068a4.743,4.743,0,0,1,3.428-1.178,7.982,7.982,0,0,1,1.723.232l-.035,2.6a4.318,4.318,0,0,0-1.031-.105q-1.91,0-1.91,1.808v1.028h2.52V-10.2h-2.52V0Zm14.8-9.5A9.2,9.2,0,0,0-16.646-9.6a2.481,2.481,0,0,0-2.52,1.3V0h-3.387V-12.68h3.2l.094,1.512a3.138,3.138,0,0,1,2.824-1.746,3.549,3.549,0,0,1,1.055.152ZM-8.186.234a6.225,6.225,0,0,1-4.541-1.711,6.082,6.082,0,0,1-1.752-4.559v-.328a7.66,7.66,0,0,1,.738-3.416,5.418,5.418,0,0,1,2.092-2.32,5.871,5.871,0,0,1,3.088-.814,5.262,5.262,0,0,1,4.1,1.641A6.667,6.667,0,0,1-2.971-6.621v1.383h-8.074a3.146,3.146,0,0,0,.99,1.992,2.993,2.993,0,0,0,2.092.75A3.656,3.656,0,0,0-4.9-3.914L-3.24-2.051A5.084,5.084,0,0,1-5.3-.369,6.767,6.767,0,0,1-8.186.234Zm-.387-10.418a2.116,2.116,0,0,0-1.635.683,3.535,3.535,0,0,0-.8,1.954H-6.3v-.271a2.521,2.521,0,0,0-.609-1.748A2.183,2.183,0,0,0-8.572-10.184ZM4.225-2.5a2.221,2.221,0,0,0,1.523-.516,1.807,1.807,0,0,0,.609-1.371H9.533a4.344,4.344,0,0,1-.7,2.361A4.64,4.64,0,0,1,6.938-.357,5.923,5.923,0,0,1,4.283.234,5.5,5.5,0,0,1-.006-1.494,6.84,6.84,0,0,1-1.576-6.27v-.223A6.762,6.762,0,0,1-.018-11.168,5.441,5.441,0,0,1,4.26-12.914a5.333,5.333,0,0,1,3.814,1.354,4.792,4.792,0,0,1,1.459,3.6H6.357a2.327,2.327,0,0,0-.609-1.608A2.032,2.032,0,0,0,4.2-10.184a2.04,2.04,0,0,0-1.787.863,5,5,0,0,0-.6,2.8v.352a5.063,5.063,0,0,0,.6,2.817A2.065,2.065,0,0,0,4.225-2.5ZM19.061-1.289A4.247,4.247,0,0,1,15.592.234,4.005,4.005,0,0,1,12.48-.937a5,5,0,0,1-1.1-3.434V-12.68h3.387v8.2q0,1.983,1.8,1.983a2.445,2.445,0,0,0,2.367-1.2V-12.68h3.4V0H19.154ZM30.732.234a6.225,6.225,0,0,1-4.541-1.711,6.082,6.082,0,0,1-1.752-4.559v-.328a7.66,7.66,0,0,1,.738-3.416A5.418,5.418,0,0,1,27.27-12.1a5.871,5.871,0,0,1,3.088-.814,5.262,5.262,0,0,1,4.1,1.641,6.667,6.667,0,0,1,1.494,4.652v1.383H27.873a3.146,3.146,0,0,0,.99,1.992,2.993,2.993,0,0,0,2.092.75,3.656,3.656,0,0,0,3.059-1.418l1.664,1.863A5.084,5.084,0,0,1,33.615-.369,6.767,6.767,0,0,1,30.732.234Zm-.387-10.418a2.116,2.116,0,0,0-1.635.683,3.535,3.535,0,0,0-.8,1.954h4.711v-.271a2.521,2.521,0,0,0-.609-1.748A2.183,2.183,0,0,0,30.346-10.184Zm10.641-2.5.105,1.465a4.427,4.427,0,0,1,3.645-1.7,3.679,3.679,0,0,1,3,1.184,5.522,5.522,0,0,1,1.008,3.539V0H45.357V-8.128A2.206,2.206,0,0,0,44.889-9.7a2.1,2.1,0,0,0-1.559-.487,2.329,2.329,0,0,0-2.145,1.221V0H37.8V-12.68ZM56.584-2.5a2.221,2.221,0,0,0,1.523-.516,1.807,1.807,0,0,0,.609-1.371h3.176a4.344,4.344,0,0,1-.7,2.361A4.64,4.64,0,0,1,59.3-.357a5.923,5.923,0,0,1-2.654.592,5.5,5.5,0,0,1-4.289-1.729,6.84,6.84,0,0,1-1.57-4.775v-.223a6.762,6.762,0,0,1,1.559-4.676,5.441,5.441,0,0,1,4.277-1.746,5.333,5.333,0,0,1,3.814,1.354,4.792,4.792,0,0,1,1.459,3.6H58.717a2.327,2.327,0,0,0-.609-1.608,2.032,2.032,0,0,0-1.547-.619,2.04,2.04,0,0,0-1.787.863,5,5,0,0,0-.6,2.8v.352a5.063,5.063,0,0,0,.6,2.817A2.065,2.065,0,0,0,56.584-2.5ZM67.4,0H64V-12.68h3.4ZM63.8-15.961a1.668,1.668,0,0,1,.51-1.254,1.915,1.915,0,0,1,1.389-.492,1.919,1.919,0,0,1,1.383.492,1.658,1.658,0,0,1,.516,1.254,1.663,1.663,0,0,1-.521,1.266A1.924,1.924,0,0,1,65.7-14.2a1.924,1.924,0,0,1-1.377-.492A1.663,1.663,0,0,1,63.8-15.961ZM77.537,0a3.761,3.761,0,0,1-.34-1.137A4.1,4.1,0,0,1,74,.234,4.5,4.5,0,0,1,70.91-.844a3.467,3.467,0,0,1-1.225-2.719A3.583,3.583,0,0,1,71.18-6.656,7.373,7.373,0,0,1,75.5-7.746h1.559v-.727a2.089,2.089,0,0,0-.451-1.406,1.775,1.775,0,0,0-1.424-.527A2.018,2.018,0,0,0,73.84-10a1.393,1.393,0,0,0-.486,1.125H69.967a3.4,3.4,0,0,1,.68-2.039,4.493,4.493,0,0,1,1.922-1.471,7,7,0,0,1,2.789-.533,5.534,5.534,0,0,1,3.721,1.178,4.12,4.12,0,0,1,1.377,3.311v5.5a6.062,6.062,0,0,0,.5,2.73V0Zm-2.8-2.355a2.917,2.917,0,0,0,1.383-.334,2.194,2.194,0,0,0,.938-.9v-2.18H75.791q-2.543,0-2.707,1.758l-.012.2a1.356,1.356,0,0,0,.445,1.043A1.73,1.73,0,0,0,74.736-2.355ZM89.924-3.5a1.091,1.091,0,0,0-.615-.979,6.989,6.989,0,0,0-1.975-.639q-4.523-.949-4.523-3.844a3.484,3.484,0,0,1,1.4-2.818,5.649,5.649,0,0,1,3.662-1.131,6.08,6.08,0,0,1,3.861,1.137,3.582,3.582,0,0,1,1.447,2.953H89.795a1.639,1.639,0,0,0-.469-1.2,1.984,1.984,0,0,0-1.465-.475,2.027,2.027,0,0,0-1.324.387,1.221,1.221,0,0,0-.469.984,1.044,1.044,0,0,0,.533.908,5.485,5.485,0,0,0,1.8.6,14.693,14.693,0,0,1,2.133.568q2.684.984,2.684,3.41A3.307,3.307,0,0,1,91.729-.838,6.42,6.42,0,0,1,87.885.234a6.706,6.706,0,0,1-2.83-.568,4.748,4.748,0,0,1-1.939-1.559,3.621,3.621,0,0,1-.7-2.139h3.211a1.768,1.768,0,0,0,.668,1.383,2.649,2.649,0,0,0,1.664.48,2.452,2.452,0,0,0,1.471-.369A1.149,1.149,0,0,0,89.924-3.5Z" transform="translate(460.399 11640.569)" fill="#12263f"/>
    <g id="Grupo_151292" data-name="Grupo 151292" transform="translate(290.984 11610.735)">
      <path id="Trazado_193213" data-name="Trazado 193213" d="M2460.052-436.866a27.444,27.444,0,0,1-5.886,17,27.543,27.543,0,0,1-5.269,5.164c-1.148.859-2.249.8-3.022-.2a1.975,1.975,0,0,1,.58-2.937,23.686,23.686,0,0,0,6.442-7.2,23.174,23.174,0,0,0,3.029-9.238,23.37,23.37,0,0,0-3.027-14.5,23.6,23.6,0,0,0-6.391-7.171,3.187,3.187,0,0,1-.874-.985,1.874,1.874,0,0,1,.446-2.272,1.818,1.818,0,0,1,2.348-.208,45.307,45.307,0,0,1,4.325,3.824,26.433,26.433,0,0,1,6.081,10.574A27.563,27.563,0,0,1,2460.052-436.866Z" transform="translate(-2404.556 459.753)" fill="#12263f"/>
      <path id="Trazado_193214" data-name="Trazado 193214" d="M2079.213-436.737a27.5,27.5,0,0,1,8.819-20.209,32.479,32.479,0,0,1,2.527-2.09,1.979,1.979,0,0,1,2.791.227,1.936,1.936,0,0,1-.269,2.818c-1.326,1.212-2.738,2.343-3.959,3.653a22.347,22.347,0,0,0-5.089,9.292,22.61,22.61,0,0,0-.866,6.3,23.416,23.416,0,0,0,4.893,14.474,23.3,23.3,0,0,0,4.745,4.663,2,2,0,0,1,.928,2.2,1.933,1.933,0,0,1-1.6,1.5,1.849,1.849,0,0,1-1.559-.4,27.654,27.654,0,0,1-10.557-15.71A25.444,25.444,0,0,1,2079.213-436.737Z" transform="translate(-2079.21 459.532)" fill="#12263f"/>
      <path id="Trazado_193215" data-name="Trazado 193215" d="M2150.23-388.149a20.365,20.365,0,0,1,4.492-13.442,18.062,18.062,0,0,1,4.322-3.9,1.969,1.969,0,0,1,3.074,1.239,1.924,1.924,0,0,1-.795,1.985,16.257,16.257,0,0,0-5.335,5.933,15.568,15.568,0,0,0-1.752,8.243,15.649,15.649,0,0,0,5.423,11.049,20.332,20.332,0,0,0,1.633,1.247,1.956,1.956,0,0,1,.475,2.751,1.945,1.945,0,0,1-2.65.542,19.587,19.587,0,0,1-7.526-9.3A18.08,18.08,0,0,1,2150.23-388.149Z" transform="translate(-2142.304 411.863)" fill="#12263f"/>
      <path id="Trazado_193216" data-name="Trazado 193216" d="M2410.437-389.017a19.43,19.43,0,0,1-5.234,13.455,33.955,33.955,0,0,1-3.507,3.07,1.983,1.983,0,0,1-2.781-.344,1.967,1.967,0,0,1,.455-2.839,16.794,16.794,0,0,0,3.966-3.789,15.554,15.554,0,0,0,3.08-10.129,15.489,15.489,0,0,0-3.571-9.357,16.407,16.407,0,0,0-3.443-3.141,1.941,1.941,0,0,1-.562-2.773,2.012,2.012,0,0,1,2.8-.479,19.555,19.555,0,0,1,8.445,12.925c.072.382.165.763.2,1.149C2410.356-390.475,2410.394-389.678,2410.437-389.017Z" transform="translate(-2362.852 411.741)" fill="#12263f"/>
      <path id="Trazado_193217" data-name="Trazado 193217" d="M2221.4-340.453a11.725,11.725,0,0,1,6.219-10.431,1.971,1.971,0,0,1,2.829.676,1.975,1.975,0,0,1-.882,2.775,7.676,7.676,0,0,0-4.058,5.512,7.571,7.571,0,0,0,2.965,7.688,11.074,11.074,0,0,0,1.158.751,2.036,2.036,0,0,1,1.009,2.22,2.009,2.009,0,0,1-1.835,1.527,1.994,1.994,0,0,1-1.008-.241,11.731,11.731,0,0,1-6.177-8.161,12.827,12.827,0,0,1-.214-1.37A9.208,9.208,0,0,1,2221.4-340.453Z" transform="translate(-2205.522 363.322)" fill="#12263f"/>
      <path id="Trazado_193218" data-name="Trazado 193218" d="M2360.169-340.73c-.25,4.9-2.324,8.4-6.39,10.684a1.976,1.976,0,0,1-2.7-.7,1.966,1.966,0,0,1,.762-2.737,9.019,9.019,0,0,0,2.87-2.5,7.855,7.855,0,0,0-2.069-11.048c-.28-.179-.566-.35-.85-.525a1.976,1.976,0,0,1-.744-2.7,1.977,1.977,0,0,1,2.7-.735,11.72,11.72,0,0,1,6.018,7.666A24.49,24.49,0,0,1,2360.169-340.73Z" transform="translate(-2320.481 363.357)" fill="#12263f"/>
      <path id="Trazado_193219" data-name="Trazado 193219" d="M2292.419-286.448a3.91,3.91,0,0,1,3.957-3.97,3.951,3.951,0,0,1,3.962,3.933,3.977,3.977,0,0,1-3.973,3.986A3.951,3.951,0,0,1,2292.419-286.448Z" transform="translate(-2268.627 309.314)" fill="#12263f"/>
    </g>
    <path id="Trazado_826586" data-name="Trazado 826586" d="M10,0H273.654a10,10,0,0,1,10,10V61.594a10,10,0,0,1-10,10H10a10,10,0,0,1-10-10V10A10,10,0,0,1,10,0Z" transform="translate(286.584 11676.758)" fill="#ffc8bf"/>
    <g id="Trazado_826587" data-name="Trazado 826587" transform="translate(285.207 11676.758)" fill="#fff">
      <path d="M 57.46352005004883 71.09394073486328 L 10.00000190734863 71.09394073486328 C 4.761682033538818 71.09394073486328 0.5000019073486328 66.83226013183594 0.5000019073486328 61.59394073486328 L 0.5000019073486328 10 C 0.5000019073486328 4.761680603027344 4.761682033538818 0.5000003576278687 10.00000190734863 0.5000003576278687 L 57.46352005004883 0.5000003576278687 C 62.70184326171875 0.5000003576278687 66.96352386474609 4.761680603027344 66.96352386474609 10 L 66.96352386474609 61.59394073486328 C 66.96352386474609 66.83226013183594 62.70184326171875 71.09394073486328 57.46352005004883 71.09394073486328 Z" stroke="none"/>
      <path d="M 10.00000381469727 1 C 5.037380218505859 1 1 5.037384033203125 1 10 L 1 61.59394073486328 C 1 66.55656433105469 5.037380218505859 70.59394073486328 10.00000381469727 70.59394073486328 L 57.46352386474609 70.59394073486328 C 62.42613983154297 70.59394073486328 66.46352386474609 66.55656433105469 66.46352386474609 61.59394073486328 L 66.46352386474609 10 C 66.46352386474609 5.037384033203125 62.42613983154297 1 57.46352386474609 1 L 10.00000381469727 1 M 10.00000381469727 0 L 57.46352386474609 0 C 62.98637390136719 0 67.46352386474609 4.477149963378906 67.46352386474609 10 L 67.46352386474609 61.59394073486328 C 67.46352386474609 67.11679077148438 62.98637390136719 71.59394073486328 57.46352386474609 71.59394073486328 L 10.00000381469727 71.59394073486328 C 4.477153778076172 71.59394073486328 0 67.11679077148438 0 61.59394073486328 L 0 10 C 0 4.477149963378906 4.477153778076172 0 10.00000381469727 0 Z" stroke="none" fill="#afafaf"/>
    </g>
    <path id="Trazado_826588" data-name="Trazado 826588" d="M-57.656-17.062l4.383,12.375,4.359-12.375H-44.3V0h-3.527V-4.664l.352-8.051L-52.078,0h-2.414l-4.594-12.7.352,8.039V0H-62.25V-17.062ZM-37.875,0h-3.4V-12.68h3.4Zm-3.6-15.961a1.668,1.668,0,0,1,.51-1.254,1.915,1.915,0,0,1,1.389-.492,1.919,1.919,0,0,1,1.383.492,1.658,1.658,0,0,1,.516,1.254A1.663,1.663,0,0,1-38.2-14.7a1.924,1.924,0,0,1-1.377.492,1.924,1.924,0,0,1-1.377-.492A1.663,1.663,0,0,1-41.473-15.961ZM-29.812-2.5a2.221,2.221,0,0,0,1.523-.516,1.807,1.807,0,0,0,.609-1.371H-24.5a4.344,4.344,0,0,1-.7,2.361A4.64,4.64,0,0,1-27.1-.357a5.923,5.923,0,0,1-2.654.592,5.5,5.5,0,0,1-4.289-1.729,6.84,6.84,0,0,1-1.57-4.775v-.223a6.762,6.762,0,0,1,1.559-4.676,5.441,5.441,0,0,1,4.277-1.746,5.333,5.333,0,0,1,3.814,1.354,4.792,4.792,0,0,1,1.459,3.6H-27.68a2.327,2.327,0,0,0-.609-1.608,2.032,2.032,0,0,0-1.547-.619,2.04,2.04,0,0,0-1.787.863,5,5,0,0,0-.6,2.8v.352a5.063,5.063,0,0,0,.6,2.817A2.065,2.065,0,0,0-29.812-2.5ZM-15.445-9.5A9.2,9.2,0,0,0-16.664-9.6a2.481,2.481,0,0,0-2.52,1.3V0H-22.57V-12.68h3.2l.094,1.512a3.138,3.138,0,0,1,2.824-1.746,3.549,3.549,0,0,1,1.055.152Zm.68,3.047a7.52,7.52,0,0,1,.727-3.363,5.319,5.319,0,0,1,2.092-2.285,6.1,6.1,0,0,1,3.17-.809,5.774,5.774,0,0,1,4.189,1.57A6.3,6.3,0,0,1-2.777-7.078l.023.867A6.627,6.627,0,0,1-4.383-1.529,5.662,5.662,0,0,1-8.754.234a5.69,5.69,0,0,1-4.377-1.758A6.744,6.744,0,0,1-14.766-6.3Zm3.387.24a4.74,4.74,0,0,0,.68,2.764A2.242,2.242,0,0,0-8.754-2.5a2.247,2.247,0,0,0,1.922-.945,5.186,5.186,0,0,0,.691-3.022,4.692,4.692,0,0,0-.691-2.746,2.248,2.248,0,0,0-1.945-.974,2.211,2.211,0,0,0-1.922.968A5.274,5.274,0,0,0-11.379-6.217ZM-1.2-6.457A7.52,7.52,0,0,1-.469-9.82a5.319,5.319,0,0,1,2.092-2.285,6.1,6.1,0,0,1,3.17-.809,5.774,5.774,0,0,1,4.189,1.57,6.3,6.3,0,0,1,1.811,4.266l.023.867A6.627,6.627,0,0,1,9.188-1.529,5.662,5.662,0,0,1,4.816.234,5.69,5.69,0,0,1,.439-1.523,6.744,6.744,0,0,1-1.2-6.3Zm3.387.24a4.74,4.74,0,0,0,.68,2.764A2.242,2.242,0,0,0,4.816-2.5a2.247,2.247,0,0,0,1.922-.945A5.186,5.186,0,0,0,7.43-6.463a4.692,4.692,0,0,0-.691-2.746,2.248,2.248,0,0,0-1.945-.974,2.211,2.211,0,0,0-1.922.968A5.274,5.274,0,0,0,2.191-6.217ZM16.02-12.68l.105,1.465a4.427,4.427,0,0,1,3.645-1.7,3.679,3.679,0,0,1,3,1.184,5.522,5.522,0,0,1,1.008,3.539V0H20.391V-8.128A2.206,2.206,0,0,0,19.922-9.7a2.1,2.1,0,0,0-1.559-.487,2.329,2.329,0,0,0-2.145,1.221V0H12.832V-12.68Zm9.8,6.246a7.641,7.641,0,0,1,1.33-4.723,4.316,4.316,0,0,1,3.639-1.758,3.884,3.884,0,0,1,3.059,1.383V-18h3.4V0H34.184L34.02-1.348A3.985,3.985,0,0,1,30.762.234,4.3,4.3,0,0,1,27.17-1.529,7.887,7.887,0,0,1,25.816-6.434Zm3.387.241a5.033,5.033,0,0,0,.621,2.743,2.022,2.022,0,0,0,1.8.954,2.265,2.265,0,0,0,2.215-1.33V-8.853a2.233,2.233,0,0,0-2.191-1.33Q29.2-10.184,29.2-6.193ZM47.215,0a3.761,3.761,0,0,1-.34-1.137,4.1,4.1,0,0,1-3.2,1.371A4.5,4.5,0,0,1,40.588-.844a3.467,3.467,0,0,1-1.225-2.719,3.583,3.583,0,0,1,1.494-3.094,7.373,7.373,0,0,1,4.318-1.09h1.559v-.727a2.089,2.089,0,0,0-.451-1.406,1.775,1.775,0,0,0-1.424-.527,2.018,2.018,0,0,0-1.342.41,1.393,1.393,0,0,0-.486,1.125H39.645a3.4,3.4,0,0,1,.68-2.039,4.493,4.493,0,0,1,1.922-1.471,7,7,0,0,1,2.789-.533,5.534,5.534,0,0,1,3.721,1.178,4.12,4.12,0,0,1,1.377,3.311v5.5a6.062,6.062,0,0,0,.5,2.73V0Zm-2.8-2.355A2.917,2.917,0,0,0,45.8-2.689a2.194,2.194,0,0,0,.938-.9v-2.18H45.469q-2.543,0-2.707,1.758l-.012.2A1.356,1.356,0,0,0,43.2-2.766,1.73,1.73,0,0,0,44.414-2.355ZM59.6-3.5a1.091,1.091,0,0,0-.615-.979,6.989,6.989,0,0,0-1.975-.639q-4.523-.949-4.523-3.844a3.484,3.484,0,0,1,1.4-2.818,5.649,5.649,0,0,1,3.662-1.131,6.08,6.08,0,0,1,3.861,1.137,3.582,3.582,0,0,1,1.447,2.953H59.473a1.639,1.639,0,0,0-.469-1.2,1.984,1.984,0,0,0-1.465-.475,2.027,2.027,0,0,0-1.324.387,1.221,1.221,0,0,0-.469.984,1.044,1.044,0,0,0,.533.908,5.485,5.485,0,0,0,1.8.6,14.693,14.693,0,0,1,2.133.568q2.684.984,2.684,3.41A3.307,3.307,0,0,1,61.406-.838,6.42,6.42,0,0,1,57.563.234a6.706,6.706,0,0,1-2.83-.568,4.748,4.748,0,0,1-1.939-1.559,3.621,3.621,0,0,1-.7-2.139H55.3a1.768,1.768,0,0,0,.668,1.383,2.649,2.649,0,0,0,1.664.48A2.452,2.452,0,0,0,59.1-2.537,1.149,1.149,0,0,0,59.6-3.5Z" transform="translate(460.606 11721.163)" fill="#12263f"/>
    <g id="Grupo_151294" data-name="Grupo 151294" transform="translate(293.323 11683.153)">
      <path id="Trazado_193220" data-name="Trazado 193220" d="M2581.552-370.849c.9-2.44,1.783-4.884,2.692-7.319.935-2.506,1.893-5,2.849-7.526a26.4,26.4,0,0,1-3.971-5,25.978,25.978,0,0,1-2.836-6.528,25.317,25.317,0,0,1-.877-8.649,31.124,31.124,0,0,1,.847-5.045,21.779,21.779,0,0,1,2.2-5.583,24.81,24.81,0,0,1,3.033-4.4c.412-.47.737-.976,1.49-.95a1.654,1.654,0,0,1,1.167.588l13.884,13.884c.148.148.285.308.458.5a3.9,3.9,0,0,1,3.519-.89,3.431,3.431,0,0,1,1.905,1.132,3.8,3.8,0,0,1-.1,5.021c.15.158.3.321.457.478q6.982,6.983,13.974,13.956a1.51,1.51,0,0,1,.133,2.2q-.873.761-1.8,1.454a24.194,24.194,0,0,1-8.215,4.081,36.7,36.7,0,0,1-4.863.884,18.944,18.944,0,0,1-3.648.112c-1.5-.1-2.98-.385-4.469-.6-.292-.042-.579-.12-.942-.2.647,1.934,1.278,3.8,1.9,5.677.3.906.573,1.82.857,2.73Zm5.411-47.82a23.239,23.239,0,0,0,5.207,33.781c9.556,6.384,21.169,4.259,27.36-1.216Zm10.7,45.277c-.045-.168-.064-.258-.092-.345-.632-1.921-1.274-3.838-1.891-5.763a1.462,1.462,0,0,0-.958-1.1,7.97,7.97,0,0,1-1.521-.721c-1.353-.8-2.688-1.626-4.087-2.476l-3.9,10.409Zm8.33-30.111a1.038,1.038,0,0,0-.267-1.595c-.51-.346-.968-.3-1.244.088Z" transform="translate(-2579.35 429.652)" fill="#12263f"/>
      <path id="Trazado_193221" data-name="Trazado 193221" d="M2824.749-489.752c.933.231,1.879.419,2.8.7a22.208,22.208,0,0,1,3.374,1.212,44.117,44.117,0,0,1,4.67,2.688,22.911,22.911,0,0,1,4.394,4.007,23.766,23.766,0,0,1,3.626,5.418,30.813,30.813,0,0,1,1.669,4.458,22.863,22.863,0,0,1,.695,3.521,1.179,1.179,0,0,1-1.14,1.294,1.217,1.217,0,0,1-1.243-.918c-.361-1.392-.61-2.817-1.05-4.183a21.848,21.848,0,0,0-4.3-7.657,23.825,23.825,0,0,0-5.353-4.7,23.2,23.2,0,0,0-7.672-3.1c-.53-.11-1.056-.244-1.59-.329a1.094,1.094,0,0,1-.919-1.126,1.109,1.109,0,0,1,.671-1.18c.044-.02.072-.076.107-.115Z" transform="translate(-2794.752 489.752)" fill="#12263f"/>
      <path id="Trazado_193222" data-name="Trazado 193222" d="M2819.968-426.447c1.009.274,2.039.488,3.022.836a18.291,18.291,0,0,1,4.706,2.5,18.236,18.236,0,0,1,4.89,5.343,19.109,19.109,0,0,1,2.338,6.046,1.425,1.425,0,0,1-.522,1.569,1.132,1.132,0,0,1-1.416-.05,2.068,2.068,0,0,1-.539-.873c-.506-1.423-.889-2.9-1.488-4.278a13.135,13.135,0,0,0-2.343-3.431,14.511,14.511,0,0,0-4.917-3.709,33.542,33.542,0,0,0-4.032-1.34c-.73-.22-1.222-.745-1.12-1.4A1.309,1.309,0,0,1,2819.968-426.447Z" transform="translate(-2791.063 433.717)" fill="#12263f"/>
      <path id="Trazado_193223" data-name="Trazado 193223" d="M2821.819-353.455a1.063,1.063,0,0,1-.934,1.205,1.173,1.173,0,0,1-1.454-.683c-.239-.566-.4-1.166-.647-1.728a8.177,8.177,0,0,0-5.686-4.809,1.342,1.342,0,0,1-.923-1.931,1.268,1.268,0,0,1,1.522-.579,10.974,10.974,0,0,1,5.891,3.75,10.59,10.59,0,0,1,2.123,4.113c.028.108.086.21.1.319A2.148,2.148,0,0,1,2821.819-353.455Z" transform="translate(-2785.286 376.707)" fill="#12263f"/>
    </g>
    <path id="Trazado_826589" data-name="Trazado 826589" d="M10,0H273.654a10,10,0,0,1,10,10V61.594a10,10,0,0,1-10,10H10a10,10,0,0,1-10-10V10A10,10,0,0,1,10,0Z" transform="translate(290.893 11757.352)" fill="#ffc8bf"/>
    <g id="Trazado_826590" data-name="Trazado 826590" transform="translate(289.516 11757.352)" fill="#fff">
      <path d="M 57.46352005004883 71.09394073486328 L 10.00000190734863 71.09394073486328 C 4.761682033538818 71.09394073486328 0.5000019073486328 66.83226013183594 0.5000019073486328 61.59394073486328 L 0.5000019073486328 10 C 0.5000019073486328 4.761680603027344 4.761682033538818 0.5000003576278687 10.00000190734863 0.5000003576278687 L 57.46352005004883 0.5000003576278687 C 62.70184326171875 0.5000003576278687 66.96352386474609 4.761680603027344 66.96352386474609 10 L 66.96352386474609 61.59394073486328 C 66.96352386474609 66.83226013183594 62.70184326171875 71.09394073486328 57.46352005004883 71.09394073486328 Z" stroke="none"/>
      <path d="M 10.00000381469727 1 C 5.037380218505859 1 1 5.037384033203125 1 10 L 1 61.59394073486328 C 1 66.55656433105469 5.037380218505859 70.59394073486328 10.00000381469727 70.59394073486328 L 57.46352386474609 70.59394073486328 C 62.42613983154297 70.59394073486328 66.46352386474609 66.55656433105469 66.46352386474609 61.59394073486328 L 66.46352386474609 10 C 66.46352386474609 5.037384033203125 62.42613983154297 1 57.46352386474609 1 L 10.00000381469727 1 M 10.00000381469727 0 L 57.46352386474609 0 C 62.98637390136719 0 67.46352386474609 4.477149963378906 67.46352386474609 10 L 67.46352386474609 61.59394073486328 C 67.46352386474609 67.11679077148438 62.98637390136719 71.59394073486328 57.46352386474609 71.59394073486328 L 10.00000381469727 71.59394073486328 C 4.477153778076172 71.59394073486328 0 67.11679077148438 0 61.59394073486328 L 0 10 C 0 4.477149963378906 4.477153778076172 0 10.00000381469727 0 Z" stroke="none" fill="#afafaf"/>
    </g>
    <path id="Trazado_826591" data-name="Trazado 826591" d="M-46.916,0h-3.516V-17.062h3.516Zm6.152-12.68.105,1.465a4.427,4.427,0,0,1,3.645-1.7,3.679,3.679,0,0,1,3,1.184,5.522,5.522,0,0,1,1.008,3.539V0h-3.387V-8.128A2.206,2.206,0,0,0-36.861-9.7a2.1,2.1,0,0,0-1.559-.487,2.329,2.329,0,0,0-2.145,1.221V0h-3.387V-12.68ZM-29.514,0V-10.2H-31.4V-12.68h1.887v-1.078a4.377,4.377,0,0,1,1.225-3.311,4.743,4.743,0,0,1,3.428-1.178,7.982,7.982,0,0,1,1.723.232l-.035,2.6a4.318,4.318,0,0,0-1.031-.105q-1.91,0-1.91,1.808v1.028h2.52V-10.2h-2.52V0Zm14.8-9.5A9.2,9.2,0,0,0-15.932-9.6a2.481,2.481,0,0,0-2.52,1.3V0h-3.387V-12.68h3.2l.094,1.512a3.138,3.138,0,0,1,2.824-1.746,3.549,3.549,0,0,1,1.055.152ZM-6.088,0a3.761,3.761,0,0,1-.34-1.137A4.1,4.1,0,0,1-9.627.234,4.5,4.5,0,0,1-12.715-.844a3.467,3.467,0,0,1-1.225-2.719,3.583,3.583,0,0,1,1.494-3.094,7.373,7.373,0,0,1,4.318-1.09h1.559v-.727A2.089,2.089,0,0,0-7.02-9.879a1.775,1.775,0,0,0-1.424-.527A2.018,2.018,0,0,0-9.785-10a1.393,1.393,0,0,0-.486,1.125h-3.387a3.4,3.4,0,0,1,.68-2.039,4.493,4.493,0,0,1,1.922-1.471,7,7,0,0,1,2.789-.533,5.534,5.534,0,0,1,3.721,1.178A4.12,4.12,0,0,1-3.17-8.426v5.5a6.062,6.062,0,0,0,.5,2.73V0Zm-2.8-2.355a2.917,2.917,0,0,0,1.383-.334,2.194,2.194,0,0,0,.938-.9v-2.18H-7.834q-2.543,0-2.707,1.758l-.012.2a1.356,1.356,0,0,0,.445,1.043A1.73,1.73,0,0,0-8.889-2.355ZM6.557-9.5A9.2,9.2,0,0,0,5.338-9.6a2.481,2.481,0,0,0-2.52,1.3V0H-.568V-12.68h3.2l.094,1.512a3.138,3.138,0,0,1,2.824-1.746,3.549,3.549,0,0,1,1.055.152Zm.68,3.047A7.52,7.52,0,0,1,7.963-9.82a5.319,5.319,0,0,1,2.092-2.285,6.1,6.1,0,0,1,3.17-.809,5.774,5.774,0,0,1,4.189,1.57,6.3,6.3,0,0,1,1.811,4.266l.023.867a6.627,6.627,0,0,1-1.629,4.682A5.662,5.662,0,0,1,13.248.234,5.69,5.69,0,0,1,8.871-1.523,6.744,6.744,0,0,1,7.236-6.3Zm3.387.24a4.74,4.74,0,0,0,.68,2.764,2.242,2.242,0,0,0,1.945.957,2.247,2.247,0,0,0,1.922-.945,5.186,5.186,0,0,0,.691-3.022,4.692,4.692,0,0,0-.691-2.746,2.248,2.248,0,0,0-1.945-.974,2.211,2.211,0,0,0-1.922.968A5.274,5.274,0,0,0,10.623-6.217Zm14.3-6.463V.691a4.536,4.536,0,0,1-1.113,3.264A4.231,4.231,0,0,1,20.6,5.121a6.886,6.886,0,0,1-1.676-.2V2.238a6.357,6.357,0,0,0,1.066.105q1.535,0,1.535-1.629V-12.68Zm-3.668-3.281a1.668,1.668,0,0,1,.51-1.254,1.915,1.915,0,0,1,1.389-.492,1.915,1.915,0,0,1,1.389.492,1.668,1.668,0,0,1,.51,1.254,1.663,1.663,0,0,1-.521,1.266,1.924,1.924,0,0,1-1.377.492,1.924,1.924,0,0,1-1.377-.492A1.663,1.663,0,0,1,21.252-15.961Zm5.789,9.5a7.52,7.52,0,0,1,.727-3.363,5.319,5.319,0,0,1,2.092-2.285,6.1,6.1,0,0,1,3.17-.809,5.774,5.774,0,0,1,4.189,1.57,6.3,6.3,0,0,1,1.811,4.266l.023.867a6.627,6.627,0,0,1-1.629,4.682A5.662,5.662,0,0,1,33.053.234a5.69,5.69,0,0,1-4.377-1.758A6.744,6.744,0,0,1,27.041-6.3Zm3.387.24a4.74,4.74,0,0,0,.68,2.764,2.242,2.242,0,0,0,1.945.957,2.247,2.247,0,0,0,1.922-.945,5.186,5.186,0,0,0,.691-3.022,4.692,4.692,0,0,0-.691-2.746,2.248,2.248,0,0,0-1.945-.974,2.211,2.211,0,0,0-1.922.968A5.274,5.274,0,0,0,30.428-6.217ZM48.006-3.5a1.091,1.091,0,0,0-.615-.979,6.989,6.989,0,0,0-1.975-.639q-4.523-.949-4.523-3.844a3.484,3.484,0,0,1,1.4-2.818,5.649,5.649,0,0,1,3.662-1.131,6.08,6.08,0,0,1,3.861,1.137,3.582,3.582,0,0,1,1.447,2.953H47.877a1.639,1.639,0,0,0-.469-1.2,1.984,1.984,0,0,0-1.465-.475,2.027,2.027,0,0,0-1.324.387,1.221,1.221,0,0,0-.469.984,1.044,1.044,0,0,0,.533.908,5.485,5.485,0,0,0,1.8.6,14.693,14.693,0,0,1,2.133.568Q51.3-6.07,51.3-3.645A3.307,3.307,0,0,1,49.811-.838,6.42,6.42,0,0,1,45.967.234a6.706,6.706,0,0,1-2.83-.568A4.748,4.748,0,0,1,41.2-1.893a3.621,3.621,0,0,1-.7-2.139h3.211a1.768,1.768,0,0,0,.668,1.383,2.649,2.649,0,0,0,1.664.48,2.452,2.452,0,0,0,1.471-.369A1.149,1.149,0,0,0,48.006-3.5Z" transform="translate(459.915 11801.757)" fill="#12263f"/>
    <g id="Grupo_151296" data-name="Grupo 151296" transform="translate(296.902 11768.266)">
      <path id="Trazado_193224" data-name="Trazado 193224" d="M3312.793-296.828a22.258,22.258,0,0,1,3.737.282,5.533,5.533,0,0,1,4.075,4.966c.034.418.06.838.06,1.257q.005,17.23,0,34.46c0,3.415-1.61,5.715-4.573,6.353a19.167,19.167,0,0,1-3.3.151v-3.9c.38.007.76.019,1.141.02,2.277,0,2.839-.547,2.847-2.8s0-4.492,0-6.738v-3.18l-3.99.778v-15.823l3.99.778v-8.891c0-3.707-.221-3.918-3.99-3.811Z" transform="translate(-3312.793 298.705)" fill="#12263f"/>
      <path id="Trazado_193225" data-name="Trazado 193225" d="M3498.367-277.226c-.3,2.07-.521,4.155-.919,6.205a40.234,40.234,0,0,1-7.077,16.092c-.85,1.171-1.99,1.449-2.946.766s-1.062-1.852-.2-3.036a36.971,36.971,0,0,0,6.951-17.681,37.291,37.291,0,0,0-6.349-25.865c-.278-.411-.591-.8-.846-1.224a1.952,1.952,0,0,1,.445-2.651,1.841,1.841,0,0,1,2.717.482,71.584,71.584,0,0,1,4.165,6.953,37.779,37.779,0,0,1,3.873,14.719,5.76,5.76,0,0,0,.19.884Z" transform="translate(-3446.789 305.015)" fill="#12263f"/>
      <path id="Trazado_193226" data-name="Trazado 193226" d="M3467.052-265.877a33.178,33.178,0,0,1-6.919,20.2c-.978,1.289-1.976,1.532-3.014.779-.96-.7-1.007-1.9-.076-3.13a29.409,29.409,0,0,0,6.044-20.375,29,29,0,0,0-5.818-15.526c-1.122-1.507-1.183-2.638-.181-3.412,1.092-.843,2.111-.529,3.3,1.081A33.58,33.58,0,0,1,3467.052-265.877Z" transform="translate(-3423.458 291.744)" fill="#12263f"/>
      <path id="Trazado_193227" data-name="Trazado 193227" d="M3435.944-253.767c.1,7.188-1.865,13.134-6.208,18.239a1.852,1.852,0,0,1-2.744.3,1.957,1.957,0,0,1-.148-2.86,22.465,22.465,0,0,0,4.267-7.893,21.533,21.533,0,0,0-3.655-19.685c-.228-.306-.487-.59-.7-.9a2.011,2.011,0,0,1,.242-2.778,1.824,1.824,0,0,1,2.8.415,52.839,52.839,0,0,1,3.717,5.874,22.188,22.188,0,0,1,1.683,4.836C3435.6-256.6,3435.758-254.92,3435.944-253.767Z" transform="translate(-3400.278 277.89)" fill="#12263f"/>
      <path id="Trazado_193228" data-name="Trazado 193228" d="M3404.543-238.346a18.064,18.064,0,0,1-4.88,12.466c-1.208,1.29-2.314,1.467-3.248.555-.9-.878-.772-1.951.387-3.2a13.616,13.616,0,0,0,3.815-9.984,13.59,13.59,0,0,0-3.6-8.923c-.229-.256-.487-.489-.691-.763a1.886,1.886,0,0,1,.123-2.675,1.9,1.9,0,0,1,2.765.113,17.39,17.39,0,0,1,5.076,9.9C3404.436-239.916,3404.482-238.961,3404.543-238.346Z" transform="translate(-3376.792 263.695)" fill="#12263f"/>
      <path id="Trazado_193229" data-name="Trazado 193229" d="M3371.963-223.539a9.792,9.792,0,0,1-4.531,8.582c-1.292.865-2.48.748-3.135-.218-.734-1.082-.414-2.072.982-3.031a5.956,5.956,0,0,0,.711-9.6c-.343-.3-.745-.527-1.112-.8a1.881,1.881,0,0,1-.649-2.68,1.9,1.9,0,0,1,2.709-.576A9.55,9.55,0,0,1,3371.963-223.539Z" transform="translate(-3352.192 248.878)" fill="#12263f"/>
    </g>
    <path id="Trazado_826592" data-name="Trazado 826592" d="M10,0H273.654a10,10,0,0,1,10,10V61.594a10,10,0,0,1-10,10H10a10,10,0,0,1-10-10V10A10,10,0,0,1,10,0Z" transform="translate(611.346 11675.91)" fill="#ffc8bf"/>
    <g id="Trazado_826593" data-name="Trazado 826593" transform="translate(609.97 11675.91)" fill="#fff">
      <path d="M 57.46352005004883 71.09394073486328 L 10.00000190734863 71.09394073486328 C 4.761682033538818 71.09394073486328 0.5000019073486328 66.83226013183594 0.5000019073486328 61.59394073486328 L 0.5000019073486328 10 C 0.5000019073486328 4.761680603027344 4.761682033538818 0.5000003576278687 10.00000190734863 0.5000003576278687 L 57.46352005004883 0.5000003576278687 C 62.70184326171875 0.5000003576278687 66.96352386474609 4.761680603027344 66.96352386474609 10 L 66.96352386474609 61.59394073486328 C 66.96352386474609 66.83226013183594 62.70184326171875 71.09394073486328 57.46352005004883 71.09394073486328 Z" stroke="none"/>
      <path d="M 10.00000381469727 1 C 5.037380218505859 1 1 5.037384033203125 1 10 L 1 61.59394073486328 C 1 66.55656433105469 5.037380218505859 70.59394073486328 10.00000381469727 70.59394073486328 L 57.46352386474609 70.59394073486328 C 62.42613983154297 70.59394073486328 66.46352386474609 66.55656433105469 66.46352386474609 61.59394073486328 L 66.46352386474609 10 C 66.46352386474609 5.037384033203125 62.42613983154297 1 57.46352386474609 1 L 10.00000381469727 1 M 10.00000381469727 0 L 57.46352386474609 0 C 62.98637390136719 0 67.46352386474609 4.477149963378906 67.46352386474609 10 L 67.46352386474609 61.59394073486328 C 67.46352386474609 67.11679077148438 62.98637390136719 71.59394073486328 57.46352386474609 71.59394073486328 L 10.00000381469727 71.59394073486328 C 4.477153778076172 71.59394073486328 0 67.11679077148438 0 61.59394073486328 L 0 10 C 0 4.477149963378906 4.477153778076172 0 10.00000381469727 0 Z" stroke="none" fill="#afafaf"/>
    </g>
    <path id="Trazado_826594" data-name="Trazado 826594" d="M-6.164-4.922l2.3-12.141h3.5L-4.148,0H-7.687l-2.777-11.414L-13.242,0h-3.539l-3.785-17.062h3.5l2.309,12.117,2.813-12.117h2.977ZM4.887,0h-3.4V-12.68h3.4Zm-3.6-15.961a1.668,1.668,0,0,1,.51-1.254,1.915,1.915,0,0,1,1.389-.492,1.919,1.919,0,0,1,1.383.492,1.658,1.658,0,0,1,.516,1.254A1.663,1.663,0,0,1,4.564-14.7a1.924,1.924,0,0,1-1.377.492A1.924,1.924,0,0,1,1.811-14.7,1.663,1.663,0,0,1,1.289-15.961ZM8.5,0V-10.2H6.609V-12.68H8.5v-.586a4.755,4.755,0,0,1,1.471-3.686,5.917,5.917,0,0,1,4.084-1.295,13.546,13.546,0,0,1,3.844.691l-.492,2.8a15,15,0,0,0-1.781-.439,8.752,8.752,0,0,0-1.359-.1q-2.367,0-2.367,2.1v.516h2.5V-10.2h-2.5V0Zm10.98,0h-3.4V-12.68h3.4Z" transform="translate(780.369 11720.315)" fill="#12263f"/>
    <g id="Grupo_151301" data-name="Grupo 151301" transform="translate(617.422 11691.436)">
      <path id="Trazado_193231" data-name="Trazado 193231" d="M3990.539-698.1l-3.326,3.566c-1.876-1.412-3.494-2.726-5.208-3.9a34.642,34.642,0,0,0-13.1-5.506,26.274,26.274,0,0,0-13.929,1.261,38.551,38.551,0,0,0-12.893,7.7c-.1.087-.2.175-.3.258a1.887,1.887,0,0,1-.162.107l-3.571-3.489v-.113a2.446,2.446,0,0,0,.257-.2,34.186,34.186,0,0,1,7.066-5.534,36.1,36.1,0,0,1,15.167-5.109c.631-.062,1.26-.142,1.89-.214h3.612c.163.033.324.078.489.1,1.521.192,3.056.3,4.561.582a36.157,36.157,0,0,1,15.99,7.338c1.2.948,2.3,2.025,3.452,3.043Z" transform="translate(-3938.055 709.278)" fill="#12263f"/>
      <path id="Trazado_193232" data-name="Trazado 193232" d="M4138.064-405.959a5.246,5.246,0,0,1-2.374-1.286,4.247,4.247,0,0,1-.713-4.894,4.262,4.262,0,0,1,4.252-2.259,4.273,4.273,0,0,1,3.673,3.531,4.224,4.224,0,0,1-3.4,4.815.919.919,0,0,0-.2.094Z" transform="translate(-4112.331 447.72)" fill="#12263f"/>
      <path id="Trazado_193233" data-name="Trazado 193233" d="M4042.3-608.736l-3.75,3.553c-7.508-8.744-22.541-9.314-30.288-.01l-3.719-3.526C4014.666-618.86,4030.369-620.29,4042.3-608.736Z" transform="translate(-3997.04 627.302)" fill="#12263f"/>
      <path id="Trazado_193234" data-name="Trazado 193234" d="M4093.884-517.74l-3.56,3.729a9.9,9.9,0,0,0-7.667-3.636,9.993,9.993,0,0,0-7.676,3.579l-3.54-3.7C4077.138-523.621,4086.724-524.69,4093.884-517.74Z" transform="translate(-4056.387 543.638)" fill="#12263f"/>
    </g>
    <path id="Trazado_826598" data-name="Trazado 826598" d="M10,0H273.654a10,10,0,0,1,10,10V61.594a10,10,0,0,1-10,10H10a10,10,0,0,1-10-10V10A10,10,0,0,1,10,0Z" transform="translate(611.346 11595.316)" fill="#ffc8bf"/>
    <g id="Trazado_826599" data-name="Trazado 826599" transform="translate(609.97 11595.316)" fill="#fff">
      <path d="M 57.46352005004883 71.09394073486328 L 10.00000190734863 71.09394073486328 C 4.761682033538818 71.09394073486328 0.5000019073486328 66.83226013183594 0.5000019073486328 61.59394073486328 L 0.5000019073486328 10 C 0.5000019073486328 4.761680603027344 4.761682033538818 0.5000003576278687 10.00000190734863 0.5000003576278687 L 57.46352005004883 0.5000003576278687 C 62.70184326171875 0.5000003576278687 66.96352386474609 4.761680603027344 66.96352386474609 10 L 66.96352386474609 61.59394073486328 C 66.96352386474609 66.83226013183594 62.70184326171875 71.09394073486328 57.46352005004883 71.09394073486328 Z" stroke="none"/>
      <path d="M 10.00000381469727 1 C 5.037380218505859 1 1 5.037384033203125 1 10 L 1 61.59394073486328 C 1 66.55656433105469 5.037380218505859 70.59394073486328 10.00000381469727 70.59394073486328 L 57.46352386474609 70.59394073486328 C 62.42613983154297 70.59394073486328 66.46352386474609 66.55656433105469 66.46352386474609 61.59394073486328 L 66.46352386474609 10 C 66.46352386474609 5.037384033203125 62.42613983154297 1 57.46352386474609 1 L 10.00000381469727 1 M 10.00000381469727 0 L 57.46352386474609 0 C 62.98637390136719 0 67.46352386474609 4.477149963378906 67.46352386474609 10 L 67.46352386474609 61.59394073486328 C 67.46352386474609 67.11679077148438 62.98637390136719 71.59394073486328 57.46352386474609 71.59394073486328 L 10.00000381469727 71.59394073486328 C 4.477153778076172 71.59394073486328 0 67.11679077148438 0 61.59394073486328 L 0 10 C 0 4.477149963378906 4.477153778076172 0 10.00000381469727 0 Z" stroke="none" fill="#afafaf"/>
    </g>
    <path id="Trazado_826600" data-name="Trazado 826600" d="M-50.971,0l2.965-17.062,5.32.012a7.058,7.058,0,0,1,4.453,1.207,3.732,3.732,0,0,1,1.348,3.363A4.3,4.3,0,0,1-39.873-8.7a2.866,2.866,0,0,1,1.582,1.318,3.945,3.945,0,0,1,.48,2.279A4.936,4.936,0,0,1-39.7-1.342,7.506,7.506,0,0,1-44.42,0Zm4.734-7.43-.809,4.605,2.707.012a3.491,3.491,0,0,0,2.121-.627A2.487,2.487,0,0,0-41.2-5.133a2.1,2.1,0,0,0-.287-1.646A1.9,1.9,0,0,0-43-7.418Zm.422-2.484,2.332.023a3.713,3.713,0,0,0,2.127-.609,2.362,2.362,0,0,0,.99-1.629q.293-2.062-2.168-2.074l-2.531-.012ZM-32.713,0h-3.328l3.129-18H-29.6Zm10.652-1.312A4.378,4.378,0,0,1-25.553.234a3.258,3.258,0,0,1-2.766-1.312,4.8,4.8,0,0,1-.727-3.4l1.371-8.2h3.3l-1.395,8.248a3.262,3.262,0,0,0-.012.727,1.206,1.206,0,0,0,1.3,1.208,3.021,3.021,0,0,0,2.543-1.185l1.582-9h3.328L-19.225,0h-3.082ZM-10.74.234A5.516,5.516,0,0,1-13.687-.58a4.938,4.938,0,0,1-1.916-2.2A6.14,6.14,0,0,1-16.1-5.871l.035-.469a8.2,8.2,0,0,1,1.078-3.4,6.512,6.512,0,0,1,2.32-2.385,5.741,5.741,0,0,1,3.141-.791,4.386,4.386,0,0,1,3.709,1.8A6.175,6.175,0,0,1-4.857-6.67l-.187,1.444h-7.77a2.721,2.721,0,0,0,.6,1.969,2.281,2.281,0,0,0,1.758.762A4.054,4.054,0,0,0-7.295-3.9l1.512,1.875A4.7,4.7,0,0,1-7.846-.346,6.745,6.745,0,0,1-10.74.234Zm1.055-10.418a2.348,2.348,0,0,0-1.623.574A5.045,5.045,0,0,0-12.58-7.535h4.547l.07-.3a3.106,3.106,0,0,0,.012-.891,1.7,1.7,0,0,0-.574-1.061A1.8,1.8,0,0,0-9.686-10.184ZM2.643-15.8,2.092-12.68H4.2L3.768-10.2H1.658L.58-3.844a1.615,1.615,0,0,0,.094.914q.164.316.8.34.188.012,1.008-.059L2.244-.059a5.558,5.558,0,0,1-1.9.27A2.978,2.978,0,0,1-2.08-.809a3.684,3.684,0,0,1-.656-2.7l1.09-6.691H-3.439l.434-2.484h1.793L-.674-15.8Zm8.18,2.883a5.086,5.086,0,0,1,2.889.861,4.851,4.851,0,0,1,1.781,2.309,7.142,7.142,0,0,1,.4,3.264,7.715,7.715,0,0,1-2.1,4.893A5.94,5.94,0,0,1,9.264.234,5.07,5.07,0,0,1,6.4-.615,4.832,4.832,0,0,1,4.623-2.906a6.985,6.985,0,0,1-.41-3.234,7.943,7.943,0,0,1,2.133-4.992A5.817,5.817,0,0,1,10.822-12.914ZM7.482-4.942A2.926,2.926,0,0,0,8.01-3.169,1.752,1.752,0,0,0,9.428-2.5a2.569,2.569,0,0,0,2.391-1.4,6.97,6.97,0,0,0,.809-3.8,3.182,3.182,0,0,0-.545-1.8,1.724,1.724,0,0,0-1.424-.7A2.572,2.572,0,0,0,8.3-8.8,6.9,6.9,0,0,0,7.482-4.942ZM24.1-12.914a5.086,5.086,0,0,1,2.889.861A4.851,4.851,0,0,1,28.77-9.744a7.142,7.142,0,0,1,.4,3.264,7.715,7.715,0,0,1-2.1,4.893A5.94,5.94,0,0,1,22.541.234a5.07,5.07,0,0,1-2.859-.85A4.832,4.832,0,0,1,17.9-2.906a6.985,6.985,0,0,1-.41-3.234,7.943,7.943,0,0,1,2.133-4.992A5.817,5.817,0,0,1,24.1-12.914ZM20.76-4.942a2.926,2.926,0,0,0,.527,1.773,1.752,1.752,0,0,0,1.418.673,2.569,2.569,0,0,0,2.391-1.4,6.97,6.97,0,0,0,.809-3.8,3.182,3.182,0,0,0-.545-1.8,1.724,1.724,0,0,0-1.424-.7A2.572,2.572,0,0,0,21.574-8.8,6.9,6.9,0,0,0,20.76-4.942ZM36.826-15.8l-.551,3.117h2.109L37.951-10.2H35.842L34.764-3.844a1.615,1.615,0,0,0,.094.914q.164.316.8.34.188.012,1.008-.059l-.234,2.59a5.558,5.558,0,0,1-1.9.27A2.978,2.978,0,0,1,32.1-.809a3.684,3.684,0,0,1-.656-2.7l1.09-6.691H30.744l.434-2.484h1.793L33.51-15.8Zm6.316,4.523a4.419,4.419,0,0,1,3.434-1.641,3.214,3.214,0,0,1,2.771,1.354,5.321,5.321,0,0,1,.662,3.568L48.674,0h-3.3l1.348-8.037a3.9,3.9,0,0,0,.023-.845,1.328,1.328,0,0,0-1.477-1.3,2.854,2.854,0,0,0-2.344,1.15L41.326,0h-3.3l3.117-18h3.316Z" transform="translate(780.369 11639.722)" fill="#12263f"/>
    <g id="Grupo_151298" data-name="Grupo 151298" transform="translate(629.995 11607.904)">
      <path id="Trazado_193230" data-name="Trazado 193230" d="M3286.292-401.694a2.232,2.232,0,0,1-1.543-1.334,3.378,3.378,0,0,1-.167-1.013q-.016-7.573-.007-15.146v-.577c-.176.161-.3.262-.406.373q-3.2,3.205-6.407,6.411a2.1,2.1,0,0,1-2.865.315,2.113,2.113,0,0,1-.418-2.977,5.066,5.066,0,0,1,.429-.466q4.21-4.217,8.422-8.433c.115-.115.223-.236.351-.372-.131-.137-.24-.258-.356-.374q-4.259-4.265-8.518-8.529a2.152,2.152,0,0,1-.352-2.9,2.09,2.09,0,0,1,2.934-.445,4.614,4.614,0,0,1,.5.453q3.125,3.123,6.244,6.253a3.281,3.281,0,0,1,.294.4l.142-.073v-.467q0-7.664,0-15.327a2.063,2.063,0,0,1,2.235-2.173,2.765,2.765,0,0,1,1.37.6c2.031,1.642,4.024,3.332,6.029,5.006q3.13,2.613,6.259,5.226a2.153,2.153,0,0,1,.006,3.613l-10.018,8.357c-.138.115-.27.236-.437.383.134.124.247.238.37.34q5.008,4.18,10.018,8.357a2.173,2.173,0,0,1,.023,3.7q-6.1,5.093-12.213,10.181a7.548,7.548,0,0,1-1.112.647Zm9.735-33.771-7.176-5.986v11.973Zm-7.179,15.115v11.979l7.179-5.991Z" transform="translate(-3274.042 448.111)" fill="#12263f"/>
    </g>
    <path id="Trazado_826583" data-name="Trazado 826583" d="M10,0H273.654a10,10,0,0,1,10,10V61.594a10,10,0,0,1-10,10H10a10,10,0,0,1-10-10V10A10,10,0,0,1,10,0Z" transform="translate(611.346 11757.504)" fill="#ffc8bf"/>
    <g id="Trazado_826584" data-name="Trazado 826584" transform="translate(609.97 11757.504)" fill="#fff">
      <path d="M 57.46352005004883 71.09394073486328 L 10.00000190734863 71.09394073486328 C 4.761682033538818 71.09394073486328 0.5000019073486328 66.83226013183594 0.5000019073486328 61.59394073486328 L 0.5000019073486328 10 C 0.5000019073486328 4.761680603027344 4.761682033538818 0.5000003576278687 10.00000190734863 0.5000003576278687 L 57.46352005004883 0.5000003576278687 C 62.70184326171875 0.5000003576278687 66.96352386474609 4.761680603027344 66.96352386474609 10 L 66.96352386474609 61.59394073486328 C 66.96352386474609 66.83226013183594 62.70184326171875 71.09394073486328 57.46352005004883 71.09394073486328 Z" stroke="none"/>
      <path d="M 10.00000381469727 1 C 5.037380218505859 1 1 5.037384033203125 1 10 L 1 61.59394073486328 C 1 66.55656433105469 5.037380218505859 70.59394073486328 10.00000381469727 70.59394073486328 L 57.46352386474609 70.59394073486328 C 62.42613983154297 70.59394073486328 66.46352386474609 66.55656433105469 66.46352386474609 61.59394073486328 L 66.46352386474609 10 C 66.46352386474609 5.037384033203125 62.42613983154297 1 57.46352386474609 1 L 10.00000381469727 1 M 10.00000381469727 0 L 57.46352386474609 0 C 62.98637390136719 0 67.46352386474609 4.477149963378906 67.46352386474609 10 L 67.46352386474609 61.59394073486328 C 67.46352386474609 67.11679077148438 62.98637390136719 71.59394073486328 57.46352386474609 71.59394073486328 L 10.00000381469727 71.59394073486328 C 4.477153778076172 71.59394073486328 0 67.11679077148438 0 61.59394073486328 L 0 10 C 0 4.477149963378906 4.477153778076172 0 10.00000381469727 0 Z" stroke="none" fill="#afafaf"/>
    </g>
    <path id="Trazado_826585" data-name="Trazado 826585" d="M-34.014-4.477a1.8,1.8,0,0,0-.7-1.529,9.222,9.222,0,0,0-2.531-1.125A17.944,17.944,0,0,1-40.143-8.3q-2.906-1.57-2.906-4.23a4.12,4.12,0,0,1,.779-2.467,5.083,5.083,0,0,1,2.238-1.693,8.425,8.425,0,0,1,3.275-.609,7.668,7.668,0,0,1,3.258.662,5.187,5.187,0,0,1,2.221,1.869,4.891,4.891,0,0,1,.791,2.742H-34a2.3,2.3,0,0,0-.738-1.822,3.035,3.035,0,0,0-2.074-.65,3.242,3.242,0,0,0-2,.545,1.719,1.719,0,0,0-.715,1.436,1.646,1.646,0,0,0,.838,1.395,9.466,9.466,0,0,0,2.467,1.055,10.658,10.658,0,0,1,4.371,2.238A4.458,4.458,0,0,1-30.486-4.5a4.106,4.106,0,0,1-1.676,3.475A7.336,7.336,0,0,1-36.674.234,8.712,8.712,0,0,1-40.26-.486a5.674,5.674,0,0,1-2.467-1.975,5.057,5.057,0,0,1-.85-2.906h3.527q0,2.824,3.375,2.824a3.283,3.283,0,0,0,1.957-.51A1.658,1.658,0,0,0-34.014-4.477ZM-20.982,0a3.761,3.761,0,0,1-.34-1.137,4.1,4.1,0,0,1-3.2,1.371A4.5,4.5,0,0,1-27.609-.844a3.467,3.467,0,0,1-1.225-2.719A3.583,3.583,0,0,1-27.34-6.656a7.373,7.373,0,0,1,4.318-1.09h1.559v-.727a2.089,2.089,0,0,0-.451-1.406,1.775,1.775,0,0,0-1.424-.527A2.018,2.018,0,0,0-24.68-10a1.393,1.393,0,0,0-.486,1.125h-3.387a3.4,3.4,0,0,1,.68-2.039,4.493,4.493,0,0,1,1.922-1.471,7,7,0,0,1,2.789-.533,5.534,5.534,0,0,1,3.721,1.178,4.12,4.12,0,0,1,1.377,3.311v5.5a6.062,6.062,0,0,0,.5,2.73V0Zm-2.8-2.355A2.917,2.917,0,0,0-22.4-2.689a2.194,2.194,0,0,0,.938-.9v-2.18h-1.266q-2.543,0-2.707,1.758l-.012.2A1.356,1.356,0,0,0-25-2.766,1.73,1.73,0,0,0-23.783-2.355ZM-11.408-15.8v3.117H-9.24V-10.2h-2.168v6.328a1.511,1.511,0,0,0,.27,1.008,1.354,1.354,0,0,0,1.031.3,5.4,5.4,0,0,0,1-.082V-.07a6.972,6.972,0,0,1-2.051.3q-3.562,0-3.633-3.6V-10.2h-1.852V-12.68h1.852V-15.8ZM-1.518.234A6.225,6.225,0,0,1-6.059-1.477,6.082,6.082,0,0,1-7.811-6.035v-.328a7.66,7.66,0,0,1,.738-3.416A5.418,5.418,0,0,1-4.98-12.1a5.871,5.871,0,0,1,3.088-.814,5.262,5.262,0,0,1,4.1,1.641A6.667,6.667,0,0,1,3.7-6.621v1.383H-4.377a3.146,3.146,0,0,0,.99,1.992,2.993,2.993,0,0,0,2.092.75A3.656,3.656,0,0,0,1.764-3.914L3.428-2.051A5.084,5.084,0,0,1,1.365-.369,6.767,6.767,0,0,1-1.518.234ZM-1.9-10.184A2.116,2.116,0,0,0-3.539-9.5a3.535,3.535,0,0,0-.8,1.954H.369v-.271A2.521,2.521,0,0,0-.24-9.566,2.183,2.183,0,0,0-1.9-10.184ZM9.193,0h-3.4V-18h3.4Zm6.363,0h-3.4V-12.68h3.4Zm-3.6-15.961a1.668,1.668,0,0,1,.51-1.254,1.915,1.915,0,0,1,1.389-.492,1.919,1.919,0,0,1,1.383.492,1.658,1.658,0,0,1,.516,1.254,1.663,1.663,0,0,1-.521,1.266,1.924,1.924,0,0,1-1.377.492A1.924,1.924,0,0,1,12.48-14.7,1.663,1.663,0,0,1,11.959-15.961ZM22.4-15.8v3.117h2.168V-10.2H22.4v6.328a1.511,1.511,0,0,0,.27,1.008,1.354,1.354,0,0,0,1.031.3,5.4,5.4,0,0,0,1-.082V-.07a6.972,6.972,0,0,1-2.051.3q-3.562,0-3.633-3.6V-10.2H17.162V-12.68h1.852V-15.8ZM33.8,0a3.761,3.761,0,0,1-.34-1.137,4.1,4.1,0,0,1-3.2,1.371A4.5,4.5,0,0,1,27.176-.844a3.467,3.467,0,0,1-1.225-2.719,3.583,3.583,0,0,1,1.494-3.094,7.373,7.373,0,0,1,4.318-1.09h1.559v-.727a2.089,2.089,0,0,0-.451-1.406,1.775,1.775,0,0,0-1.424-.527,2.018,2.018,0,0,0-1.342.41,1.393,1.393,0,0,0-.486,1.125H26.232a3.4,3.4,0,0,1,.68-2.039,4.493,4.493,0,0,1,1.922-1.471,7,7,0,0,1,2.789-.533,5.534,5.534,0,0,1,3.721,1.178,4.12,4.12,0,0,1,1.377,3.311v5.5a6.062,6.062,0,0,0,.5,2.73V0ZM31-2.355a2.917,2.917,0,0,0,1.383-.334,2.194,2.194,0,0,0,.938-.9v-2.18H32.057q-2.543,0-2.707,1.758l-.012.2a1.356,1.356,0,0,0,.445,1.043A1.73,1.73,0,0,0,31-2.355ZM42.9,0H39.5V-18h3.4Z" transform="translate(780.369 11801.909)" fill="#12263f"/>
    <g id="Grupo_151302" data-name="Grupo 151302" transform="translate(617.487 11767.695)">
      <path id="Trazado_193235" data-name="Trazado 193235" d="M5044.305-225.558l-13.118,13.109-1.84-1.972c-1,1-1.9,1.884-2.771,2.8a.744.744,0,0,0-.083.537,3.741,3.741,0,0,1-2.615,4.159,3.719,3.719,0,0,1-4.458-1.975,3.534,3.534,0,0,1,.35-3.823,3.485,3.485,0,0,1,3.484-1.494.933.933,0,0,0,.9-.311c.8-.827,1.627-1.626,2.52-2.512l-1.987-1.81,13.18-13.163Z" transform="translate(-5002.258 242.421)" fill="#12263f"/>
      <path id="Trazado_193236" data-name="Trazado 193236" d="M4871.512-43.345a24.853,24.853,0,0,1-9.125-2.427,26.134,26.134,0,0,1-14.434-17.778,31.028,31.028,0,0,1-.616-3.839,1.867,1.867,0,0,1,1.694-2.112,1.95,1.95,0,0,1,2.08,1.865,28.045,28.045,0,0,0,.811,4.343c2.6,8.188,8.086,13.406,16.381,15.638a23.8,23.8,0,0,0,3.215.518c1.445.182,2.265,1.228,1.878,2.463A1.87,1.87,0,0,1,4871.512-43.345Z" transform="translate(-4847.322 95.772)" fill="#12263f"/>
      <path id="Trazado_193237" data-name="Trazado 193237" d="M4943.241-52.7a1.836,1.836,0,0,1-2.182,1.849,23.173,23.173,0,0,1-4.243-1.038A18.558,18.558,0,0,1,4924.73-66.5a4.309,4.309,0,0,1-.063-1.491,1.785,1.785,0,0,1,1.85-1.474,1.815,1.815,0,0,1,1.793,1.557,15.067,15.067,0,0,0,2.293,6.461,14.827,14.827,0,0,0,10.7,6.833C4942.535-54.443,4943.241-53.758,4943.241-52.7Z" transform="translate(-4917.082 95.736)" fill="#12263f"/>
      <path id="Trazado_193238" data-name="Trazado 193238" d="M4974.511-268.691c-.94.94-1.882,1.9-2.851,2.84a.952.952,0,0,1-1.431-.1q-2.249-2.238-4.489-4.484l-3.625-3.623c-.664-.663-.661-1.148.01-1.825.87-.877,1.739-1.755,2.588-2.612Z" transform="translate(-4950.464 284.357)" fill="#12263f"/>
      <path id="Trazado_193239" data-name="Trazado 193239" d="M5195.2-47.963l9.751,9.745c-.074.086-.149.185-.236.272q-1.206,1.209-2.417,2.415a1.052,1.052,0,0,1-1.751.01q-3.71-3.71-7.419-7.422c-.276-.276-.562-.543-.822-.834a.915.915,0,0,1-.025-1.285C5193.231-46.039,5194.213-46.986,5195.2-47.963Z" transform="translate(-5158.385 76.33)" fill="#12263f"/>
      <path id="Trazado_193240" data-name="Trazado 193240" d="M5031.387-325.671l-9.8-9.806c.948-.94,1.9-1.916,2.893-2.856.429-.407.947-.333,1.427.145q2.818,2.8,5.625,5.616,1.225,1.224,2.447,2.449c.7.7.695,1.139-.01,1.853Q5032.679-326.968,5031.387-325.671Z" transform="translate(-5004.574 338.598)" fill="#12263f"/>
      <path id="Trazado_193241" data-name="Trazado 193241" d="M5252.749-104.858c.948-.967,1.908-1.977,2.907-2.947a.97.97,0,0,1,1.353.2q2.02,2.009,4.033,4.027t4.03,4.029c.71.712.709,1.147.012,1.853-.866.878-1.731,1.757-2.567,2.606Z" transform="translate(-5213.178 130.511)" fill="#12263f"/>
      <path id="Trazado_193242" data-name="Trazado 193242" d="M5240.167-296.189c.866-.879,1.7-1.815,2.631-2.651a4.616,4.616,0,0,1,6.354.231,4.637,4.637,0,0,1,.08,6.434c-.825.872-1.686,1.71-2.51,2.542Z" transform="translate(-5201.824 303.764)" fill="#12263f"/>
    </g>
  </g>
</svg>
