<svg xmlns="http://www.w3.org/2000/svg" width="400" height="370" viewBox="0 0 400 370">
  <g id="Grupo_1077932" data-name="Grupo 1077932" transform="translate(-600 -17617.498)">
    <g id="Trazado_826605" data-name="Trazado 826605" transform="translate(600 17617.498)" fill="#fff">
      <path d="M 399 369 L 1 369 L 1 20 C 1 17.43454933166504 1.50220000743866 14.9463996887207 2.492700099945068 12.60464954376221 C 3.449599981307983 10.34224987030029 4.819699764251709 8.310199737548828 6.564949989318848 6.564949989318848 C 8.310199737548828 4.819699764251709 10.34224987030029 3.449599981307983 12.60464954376221 2.492700099945068 C 14.9463996887207 1.50220000743866 17.43454933166504 1 20 1 L 399 1 L 399 369 Z" stroke="none"/>
      <path d="M 20 2 C 15.19204711914062 2 10.67184448242188 3.872314453125 7.2720947265625 7.2720947265625 C 3.872314453125 10.67184448242188 2 15.19204711914062 2 20 L 2 368 L 398 368 L 398 2 L 20 2 M 20 0 L 400 0 L 400 370 L 0 370 L 0 20 C 0 8.954315185546875 8.954315185546875 0 20 0 Z" stroke="none" fill="#ffb476"/>
    </g>
    <g id="Grupo_151762" data-name="Grupo 151762" transform="translate(681.413 17638.164)">
      <path id="Trazado_194213" data-name="Trazado 194213" d="M904.845-1504.648c0-5.127-.012-9.865,0-14.6.012-3.61,1.9-5.257,6.082-5.265q14.129-.028,28.258,0c4.307.007,6.224,1.662,6.241,5.373.021,4.732,0,9.463,0,14.345h13.5c.04-.723.116-1.48.119-2.237.012-4.17-.042-8.339.023-12.508.049-3.2,2.044-4.948,5.708-4.963q14.625-.056,29.249,0c3.66.016,5.559,1.772,5.583,5.019.031,4.169,0,8.339.012,12.507,0,.7.066,1.4.107,2.211h13.641v-2.052c0-4.313-.037-8.626.016-12.939.036-2.964,1.978-4.724,5.394-4.742q14.872-.08,29.745,0c3.444.021,5.358,1.864,5.4,5.006.052,4.1.013,8.2.012,12.292v2.552h13.621v-5.492q0-4.205,0-8.41c.008-4.478,1.7-5.968,6.807-5.971q13.633-.008,27.266,0c4.808,0,6.511,1.517,6.514,5.755,0,4.59,0,9.181,0,14.115,3.591,0,7.022-.005,10.453,0,5.223.01,6.869,1.422,6.87,5.888,0,24.225,0,21.708,0,45.934,0,4.335-1.688,5.793-6.713,5.793q-112.288,0-224.575,0c-4.968,0-6.658-1.486-6.658-5.847,0-24.225,0-21.709,0-45.934,0-4.342,1.693-5.821,6.686-5.834C897.659-1504.656,901.11-1504.648,904.845-1504.648Zm210.227,48.6v-39.532H897.953v39.532Zm-145.586-59.426v10.658h19.867v-10.658Zm54.133,10.652h19.908v-10.6h-19.908Zm-88.607.074v-10.676H915.239v10.676Zm142.967-10.743v10.682h19.8v-10.682Z" transform="translate(-887.522 1524.543)" fill="#ffb476"/>
      <path id="Trazado_194214" data-name="Trazado 194214" d="M1128.388-1417.869H908.561V-1457.4h219.827Z" transform="translate(-899.486 1486.361)" fill="#fff"/>
      <path id="Trazado_194215" data-name="Trazado 194215" d="M1052.846-1503.524h19.8v10.657h-19.8Z" transform="translate(-971.215 1512.59)" fill="#fff"/>
      <path id="Trazado_194216" data-name="Trazado 194216" d="M1162.034-1492.8v-10.6h20.095v10.6Z" transform="translate(-1025.896 1512.522)" fill="#fff"/>
      <path id="Trazado_194217" data-name="Trazado 194217" d="M966.635-1492.73H943.429v-10.676h23.206Z" transform="translate(-919.315 1512.523)" fill="#fff"/>
      <path id="Trazado_194218" data-name="Trazado 194218" d="M1271.68-1503.561h23.463v10.682H1271.68Z" transform="translate(-1081.286 1512.611)" fill="#fff"/>
    </g>
    <g id="Grupo_151762-2" data-name="Grupo 151762" transform="translate(681.413 17805.574)">
      <path id="Trazado_194213-2" data-name="Trazado 194213" d="M904.845-1504.648c0-5.127-.012-9.865,0-14.6.012-3.61,1.9-5.257,6.082-5.265q14.129-.028,28.258,0c4.307.007,6.224,1.662,6.241,5.373.021,4.732,0,9.463,0,14.345h13.5c.04-.723.116-1.48.119-2.237.012-4.17-.042-8.339.023-12.508.049-3.2,2.044-4.948,5.708-4.963q14.625-.056,29.249,0c3.66.016,5.559,1.772,5.583,5.019.031,4.169,0,8.339.012,12.507,0,.7.066,1.4.107,2.211h13.641v-2.052c0-4.313-.037-8.626.016-12.939.036-2.964,1.978-4.724,5.394-4.742q14.872-.08,29.745,0c3.444.021,5.358,1.864,5.4,5.006.052,4.1.013,8.2.012,12.292v2.552h13.621v-5.492q0-4.205,0-8.41c.008-4.478,1.7-5.968,6.807-5.971q13.633-.008,27.266,0c4.808,0,6.511,1.517,6.514,5.755,0,4.59,0,9.181,0,14.115,3.591,0,7.022-.005,10.453,0,5.223.01,6.869,1.422,6.87,5.888,0,24.225,0,21.708,0,45.934,0,4.335-1.688,5.793-6.713,5.793q-112.288,0-224.575,0c-4.968,0-6.658-1.486-6.658-5.847,0-24.225,0-21.709,0-45.934,0-4.342,1.693-5.821,6.686-5.834C897.659-1504.656,901.11-1504.648,904.845-1504.648Zm210.227,48.6v-39.532H897.953v39.532Zm-145.586-59.426v10.658h19.867v-10.658Zm54.133,10.652h19.908v-10.6h-19.908Zm-88.607.074v-10.676H915.239v10.676Zm142.967-10.743v10.682h19.8v-10.682Z" transform="translate(-887.522 1524.543)" fill="#12263f"/>
      <path id="Trazado_194214-2" data-name="Trazado 194214" d="M1128.388-1417.869H908.561V-1457.4h219.827Z" transform="translate(-899.486 1486.361)" fill="#fff"/>
      <path id="Trazado_194215-2" data-name="Trazado 194215" d="M1052.846-1503.524h19.8v10.657h-19.8Z" transform="translate(-971.215 1512.59)" fill="#fff"/>
      <path id="Trazado_194216-2" data-name="Trazado 194216" d="M1162.034-1492.8v-10.6h20.095v10.6Z" transform="translate(-1025.896 1512.522)" fill="#fff"/>
      <path id="Trazado_194217-2" data-name="Trazado 194217" d="M966.635-1492.73H943.429v-10.676h23.206Z" transform="translate(-919.315 1512.523)" fill="#fff"/>
      <path id="Trazado_194218-2" data-name="Trazado 194218" d="M1271.68-1503.561h23.463v10.682H1271.68Z" transform="translate(-1081.286 1512.611)" fill="#fff"/>
    </g>
    <g id="Grupo_151762-3" data-name="Grupo 151762" transform="translate(681.413 17889.986)">
      <path id="Trazado_194213-3" data-name="Trazado 194213" d="M904.845-1504.648c0-5.127-.012-9.865,0-14.6.012-3.61,1.9-5.257,6.082-5.265q14.129-.028,28.258,0c4.307.007,6.224,1.662,6.241,5.373.021,4.732,0,9.463,0,14.345h13.5c.04-.723.116-1.48.119-2.237.012-4.17-.042-8.339.023-12.508.049-3.2,2.044-4.948,5.708-4.963q14.625-.056,29.249,0c3.66.016,5.559,1.772,5.583,5.019.031,4.169,0,8.339.012,12.507,0,.7.066,1.4.107,2.211h13.641v-2.052c0-4.313-.037-8.626.016-12.939.036-2.964,1.978-4.724,5.394-4.742q14.872-.08,29.745,0c3.444.021,5.358,1.864,5.4,5.006.052,4.1.013,8.2.012,12.292v2.552h13.621v-5.492q0-4.205,0-8.41c.008-4.478,1.7-5.968,6.807-5.971q13.633-.008,27.266,0c4.808,0,6.511,1.517,6.514,5.755,0,4.59,0,9.181,0,14.115,3.591,0,7.022-.005,10.453,0,5.223.01,6.869,1.422,6.87,5.888,0,24.225,0,21.708,0,45.934,0,4.335-1.688,5.793-6.713,5.793q-112.288,0-224.575,0c-4.968,0-6.658-1.486-6.658-5.847,0-24.225,0-21.709,0-45.934,0-4.342,1.693-5.821,6.686-5.834C897.659-1504.656,901.11-1504.648,904.845-1504.648Zm210.227,48.6v-39.532H897.953v39.532Zm-145.586-59.426v10.658h19.867v-10.658Zm54.133,10.652h19.908v-10.6h-19.908Zm-88.607.074v-10.676H915.239v10.676Zm142.967-10.743v10.682h19.8v-10.682Z" transform="translate(-887.522 1524.543)" fill="#636363"/>
      <path id="Trazado_194214-3" data-name="Trazado 194214" d="M1128.388-1417.869H908.561V-1457.4h219.827Z" transform="translate(-899.486 1486.361)" fill="#fff"/>
      <path id="Trazado_194215-3" data-name="Trazado 194215" d="M1052.846-1503.524h19.8v10.657h-19.8Z" transform="translate(-971.215 1512.59)" fill="#fff"/>
      <path id="Trazado_194216-3" data-name="Trazado 194216" d="M1162.034-1492.8v-10.6h20.095v10.6Z" transform="translate(-1025.896 1512.522)" fill="#fff"/>
      <path id="Trazado_194217-3" data-name="Trazado 194217" d="M966.635-1492.73H943.429v-10.676h23.206Z" transform="translate(-919.315 1512.523)" fill="#fff"/>
      <path id="Trazado_194218-3" data-name="Trazado 194218" d="M1271.68-1503.561h23.463v10.682H1271.68Z" transform="translate(-1081.286 1512.611)" fill="#fff"/>
    </g>
    <g id="Grupo_151762-4" data-name="Grupo 151762" transform="translate(681.413 17721.865)">
      <path id="Trazado_194213-4" data-name="Trazado 194213" d="M904.845-1504.648c0-5.127-.012-9.865,0-14.6.012-3.61,1.9-5.257,6.082-5.265q14.129-.028,28.258,0c4.307.007,6.224,1.662,6.241,5.373.021,4.732,0,9.463,0,14.345h13.5c.04-.723.116-1.48.119-2.237.012-4.17-.042-8.339.023-12.508.049-3.2,2.044-4.948,5.708-4.963q14.625-.056,29.249,0c3.66.016,5.559,1.772,5.583,5.019.031,4.169,0,8.339.012,12.507,0,.7.066,1.4.107,2.211h13.641v-2.052c0-4.313-.037-8.626.016-12.939.036-2.964,1.978-4.724,5.394-4.742q14.872-.08,29.745,0c3.444.021,5.358,1.864,5.4,5.006.052,4.1.013,8.2.012,12.292v2.552h13.621v-5.492q0-4.205,0-8.41c.008-4.478,1.7-5.968,6.807-5.971q13.633-.008,27.266,0c4.808,0,6.511,1.517,6.514,5.755,0,4.59,0,9.181,0,14.115,3.591,0,7.022-.005,10.453,0,5.223.01,6.869,1.422,6.87,5.888,0,24.225,0,21.708,0,45.934,0,4.335-1.688,5.793-6.713,5.793q-112.288,0-224.575,0c-4.968,0-6.658-1.486-6.658-5.847,0-24.225,0-21.709,0-45.934,0-4.342,1.693-5.821,6.686-5.834C897.659-1504.656,901.11-1504.648,904.845-1504.648Zm210.227,48.6v-39.532H897.953v39.532Zm-145.586-59.426v10.658h19.867v-10.658Zm54.133,10.652h19.908v-10.6h-19.908Zm-88.607.074v-10.676H915.239v10.676Zm142.967-10.743v10.682h19.8v-10.682Z" transform="translate(-887.522 1524.543)" fill="#b0c0d2"/>
      <path id="Trazado_194214-4" data-name="Trazado 194214" d="M1128.388-1417.869H908.561V-1457.4h219.827Z" transform="translate(-899.486 1486.361)" fill="#fff"/>
      <path id="Trazado_194215-4" data-name="Trazado 194215" d="M1052.846-1503.524h19.8v10.657h-19.8Z" transform="translate(-971.215 1512.59)" fill="#fff"/>
      <path id="Trazado_194216-4" data-name="Trazado 194216" d="M1162.034-1492.8v-10.6h20.095v10.6Z" transform="translate(-1025.896 1512.522)" fill="#fff"/>
      <path id="Trazado_194217-4" data-name="Trazado 194217" d="M966.635-1492.73H943.429v-10.676h23.206Z" transform="translate(-919.315 1512.523)" fill="#fff"/>
      <path id="Trazado_194218-4" data-name="Trazado 194218" d="M1271.68-1503.561h23.463v10.682H1271.68Z" transform="translate(-1081.286 1512.611)" fill="#fff"/>
    </g>
    <path id="Trazado_826606" data-name="Trazado 826606" d="M6.422-3.039q.164-.93-.914-1.422L4-5.062Q1.375-6.234,1.508-8.289a2.964,2.964,0,0,1,.625-1.687,3.758,3.758,0,0,1,1.6-1.152,5.67,5.67,0,0,1,2.227-.4,3.857,3.857,0,0,1,2.664.98,3.267,3.267,0,0,1,1,2.543H7.344A1.628,1.628,0,0,0,7-9.211a1.531,1.531,0,0,0-1.176-.445A2.37,2.37,0,0,0,4.469-9.3a1.458,1.458,0,0,0-.687,1.02Q3.633-7.43,4.922-6.93l1.031.391.594.273q2.3,1.141,2.156,3.2a3.09,3.09,0,0,1-.645,1.738A3.633,3.633,0,0,1,6.5-.2,5.565,5.565,0,0,1,4.32.164,4.873,4.873,0,0,1,2.164-.344,3.349,3.349,0,0,1,.727-1.711,3.54,3.54,0,0,1,.3-3.586l2.289.008Q2.477-1.727,4.406-1.7a2.392,2.392,0,0,0,1.375-.367A1.43,1.43,0,0,0,6.422-3.039Zm8.055-5.57a3.39,3.39,0,0,1,1.926.574A3.234,3.234,0,0,1,17.59-6.5a4.762,4.762,0,0,1,.27,2.176,5.143,5.143,0,0,1-1.4,3.262A3.96,3.96,0,0,1,13.438.156,3.38,3.38,0,0,1,11.531-.41a3.222,3.222,0,0,1-1.187-1.527,4.657,4.657,0,0,1-.273-2.156,5.3,5.3,0,0,1,1.422-3.328A3.878,3.878,0,0,1,14.477-8.609ZM12.25-3.294A1.95,1.95,0,0,0,12.6-2.113a1.168,1.168,0,0,0,.945.449A1.712,1.712,0,0,0,15.141-2.6a4.647,4.647,0,0,0,.539-2.531,2.122,2.122,0,0,0-.363-1.2,1.149,1.149,0,0,0-.949-.464,1.715,1.715,0,0,0-1.574.924A4.6,4.6,0,0,0,12.25-3.294ZM19.086,0l1.18-6.8H19.047l.289-1.648,1.219-.008.109-.844a3.332,3.332,0,0,1,1.1-2.121,3.334,3.334,0,0,1,2.289-.754,7.33,7.33,0,0,1,1.2.163l-.2,1.751a2.732,2.732,0,0,0-.648-.094,1.615,1.615,0,0,0-1,.3,1.355,1.355,0,0,0-.52.918l-.117.69H24.4L24.109-6.8H22.484L21.3,0ZM28.6-10.531l-.367,2.078h1.406L29.352-6.8H27.945l-.719,4.234a1.077,1.077,0,0,0,.063.609q.109.211.531.227.125.008.672-.039L28.336-.039a3.706,3.706,0,0,1-1.266.18,1.985,1.985,0,0,1-1.617-.68,2.456,2.456,0,0,1-.437-1.8L25.742-6.8h-1.2l.289-1.656h1.2l.359-2.078Zm8.484,7.453,2.008-5.375h2.2L37.734,0H35.891l-.625-5.289L32.8,0H30.953l-.625-8.453h2.063l.133,5.32,2.414-5.32h1.594ZM45.828,0a2.281,2.281,0,0,1-.086-.766,2.863,2.863,0,0,1-2.156.922,2.594,2.594,0,0,1-1.84-.723,2.186,2.186,0,0,1-.684-1.746,2.527,2.527,0,0,1,1.16-2.121,5.266,5.266,0,0,1,2.965-.738l1.031.016.109-.508a1.764,1.764,0,0,0,.023-.492.846.846,0,0,0-.277-.574.955.955,0,0,0-.629-.215,1.345,1.345,0,0,0-.875.254,1.231,1.231,0,0,0-.461.777L41.9-5.906a2.457,2.457,0,0,1,1.113-1.965,4.312,4.312,0,0,1,2.613-.738,3.117,3.117,0,0,1,2.25.855,2.5,2.5,0,0,1,.68,2.121l-.648,4.047-.039.5A2.412,2.412,0,0,0,48-.148L47.992,0Zm-1.7-1.555A2.017,2.017,0,0,0,45.8-2.383l.273-1.461L45.3-3.852a2.139,2.139,0,0,0-1.758.742,1.292,1.292,0,0,0-.242.633.75.75,0,0,0,.176.668A.891.891,0,0,0,44.133-1.555ZM55.125-6.336a4.548,4.548,0,0,0-.742-.078,2.136,2.136,0,0,0-1.867.883L51.539,0h-2.2L50.8-8.453l2.07-.008-.2,1.031a2.325,2.325,0,0,1,1.969-1.2,3.214,3.214,0,0,1,.766.109ZM59.094.156a3.677,3.677,0,0,1-1.965-.543,3.292,3.292,0,0,1-1.277-1.469,4.093,4.093,0,0,1-.328-2.059l.023-.312a5.465,5.465,0,0,1,.719-2.266,4.341,4.341,0,0,1,1.547-1.59,3.827,3.827,0,0,1,2.094-.527,2.924,2.924,0,0,1,2.473,1.2,4.117,4.117,0,0,1,.637,2.962l-.125.962h-5.18a1.814,1.814,0,0,0,.4,1.313,1.521,1.521,0,0,0,1.172.508A2.7,2.7,0,0,0,61.391-2.6L62.4-1.352A3.135,3.135,0,0,1,61.023-.23,4.5,4.5,0,0,1,59.094.156Zm.7-6.945a1.565,1.565,0,0,0-1.082.383,3.363,3.363,0,0,0-.848,1.383H60.9l.047-.2a2.071,2.071,0,0,0,.008-.594,1.134,1.134,0,0,0-.383-.707A1.2,1.2,0,0,0,59.8-6.789Zm8.227,2.5a5.094,5.094,0,0,1,.887-3.148,2.877,2.877,0,0,1,2.426-1.172,2.589,2.589,0,0,1,2.039.922V-12h2.266V0H73.6l-.109-.9A2.657,2.657,0,0,1,71.32.156,2.869,2.869,0,0,1,68.926-1.02,5.258,5.258,0,0,1,68.023-4.289Zm2.258.161A3.355,3.355,0,0,0,70.7-2.3a1.348,1.348,0,0,0,1.2.636,1.51,1.51,0,0,0,1.477-.887V-5.9a1.489,1.489,0,0,0-1.461-.887Q70.281-6.789,70.281-4.128Zm11,4.285A4.15,4.15,0,0,1,78.254-.984a4.054,4.054,0,0,1-1.168-3.039v-.219a5.106,5.106,0,0,1,.492-2.277,3.612,3.612,0,0,1,1.395-1.547,3.914,3.914,0,0,1,2.059-.543,3.508,3.508,0,0,1,2.73,1.094,4.444,4.444,0,0,1,1,3.1v.922H79.375a2.1,2.1,0,0,0,.66,1.328,2,2,0,0,0,1.395.5,2.437,2.437,0,0,0,2.039-.945l1.109,1.242A3.389,3.389,0,0,1,83.2-.246,4.511,4.511,0,0,1,81.281.156Zm-.258-6.945a1.411,1.411,0,0,0-1.09.455,2.357,2.357,0,0,0-.535,1.3h3.141v-.181a1.681,1.681,0,0,0-.406-1.165A1.456,1.456,0,0,0,81.023-6.789ZM94.922,0A2.507,2.507,0,0,1,94.7-.758a2.732,2.732,0,0,1-2.133.914A3,3,0,0,1,90.5-.562a2.312,2.312,0,0,1-.816-1.812,2.389,2.389,0,0,1,1-2.062,4.915,4.915,0,0,1,2.879-.727H94.6v-.484a1.393,1.393,0,0,0-.3-.937,1.183,1.183,0,0,0-.949-.352,1.345,1.345,0,0,0-.895.273.929.929,0,0,0-.324.75H89.875a2.268,2.268,0,0,1,.453-1.359,3,3,0,0,1,1.281-.98,4.669,4.669,0,0,1,1.859-.355,3.689,3.689,0,0,1,2.48.785,2.747,2.747,0,0,1,.918,2.207v3.664A4.041,4.041,0,0,0,97.2-.133V0ZM93.055-1.57a1.945,1.945,0,0,0,.922-.223,1.462,1.462,0,0,0,.625-.6V-3.844h-.844q-1.7,0-1.8,1.172l-.008.133a.9.9,0,0,0,.3.7A1.153,1.153,0,0,0,93.055-1.57Zm13.156-2.578a5.07,5.07,0,0,1-.887,3.129A2.843,2.843,0,0,1,102.93.156a2.633,2.633,0,0,1-2.07-.891V3.25H98.6v-11.7H100.7l.078.828a2.654,2.654,0,0,1,2.141-.984,2.862,2.862,0,0,1,2.43,1.156,5.207,5.207,0,0,1,.867,3.188Zm-2.258-.172a3.345,3.345,0,0,0-.418-1.826,1.36,1.36,0,0,0-1.215-.643,1.478,1.478,0,0,0-1.461.815V-2.5a1.5,1.5,0,0,0,1.477.839Q103.953-1.664,103.953-4.321ZM109.992,0h-2.266V-12h2.266Zm4.242,0h-2.266V-8.453h2.266Zm-2.4-10.641a1.112,1.112,0,0,1,.34-.836,1.277,1.277,0,0,1,.926-.328,1.28,1.28,0,0,1,.922.328,1.105,1.105,0,0,1,.344.836,1.108,1.108,0,0,1-.348.844,1.283,1.283,0,0,1-.918.328,1.283,1.283,0,0,1-.918-.328A1.108,1.108,0,0,1,111.836-10.641Zm7.773,8.977a1.481,1.481,0,0,0,1.016-.344,1.2,1.2,0,0,0,.406-.914h2.117a2.9,2.9,0,0,1-.469,1.574,3.093,3.093,0,0,1-1.262,1.109,3.949,3.949,0,0,1-1.77.395A3.67,3.67,0,0,1,116.789-1a4.56,4.56,0,0,1-1.047-3.184v-.148a4.508,4.508,0,0,1,1.039-3.117,3.627,3.627,0,0,1,2.852-1.164,3.555,3.555,0,0,1,2.543.9,3.2,3.2,0,0,1,.973,2.4h-2.117a1.551,1.551,0,0,0-.406-1.072,1.354,1.354,0,0,0-1.031-.412,1.36,1.36,0,0,0-1.191.575,3.333,3.333,0,0,0-.4,1.866v.235a3.375,3.375,0,0,0,.4,1.878A1.377,1.377,0,0,0,119.609-1.664ZM129.336,0a2.507,2.507,0,0,1-.227-.758,2.732,2.732,0,0,1-2.133.914,3,3,0,0,1-2.059-.719,2.312,2.312,0,0,1-.816-1.812,2.389,2.389,0,0,1,1-2.062,4.915,4.915,0,0,1,2.879-.727h1.039v-.484a1.393,1.393,0,0,0-.3-.937,1.183,1.183,0,0,0-.949-.352,1.345,1.345,0,0,0-.895.273.929.929,0,0,0-.324.75h-2.258a2.268,2.268,0,0,1,.453-1.359,3,3,0,0,1,1.281-.98,4.669,4.669,0,0,1,1.859-.355,3.689,3.689,0,0,1,2.48.785,2.747,2.747,0,0,1,.918,2.207v3.664a4.041,4.041,0,0,0,.336,1.82V0Zm-1.867-1.57a1.945,1.945,0,0,0,.922-.223,1.462,1.462,0,0,0,.625-.6V-3.844h-.844q-1.7,0-1.8,1.172l-.008.133a.9.9,0,0,0,.3.7A1.153,1.153,0,0,0,127.469-1.57Zm9.063-.094a1.481,1.481,0,0,0,1.016-.344,1.2,1.2,0,0,0,.406-.914h2.117a2.9,2.9,0,0,1-.469,1.574A3.093,3.093,0,0,1,138.34-.238a3.949,3.949,0,0,1-1.77.395A3.67,3.67,0,0,1,133.711-1a4.56,4.56,0,0,1-1.047-3.184v-.148A4.508,4.508,0,0,1,133.7-7.445a3.627,3.627,0,0,1,2.852-1.164,3.555,3.555,0,0,1,2.543.9,3.2,3.2,0,0,1,.973,2.4h-2.117a1.551,1.551,0,0,0-.406-1.072,1.355,1.355,0,0,0-1.031-.412,1.36,1.36,0,0,0-1.191.575,3.333,3.333,0,0,0-.4,1.866v.235a3.375,3.375,0,0,0,.4,1.878A1.377,1.377,0,0,0,136.531-1.664ZM143.742,0h-2.266V-8.453h2.266Zm-2.4-10.641a1.112,1.112,0,0,1,.34-.836,1.277,1.277,0,0,1,.926-.328,1.28,1.28,0,0,1,.922.328,1.105,1.105,0,0,1,.344.836,1.109,1.109,0,0,1-.348.844,1.283,1.283,0,0,1-.918.328,1.283,1.283,0,0,1-.918-.328A1.109,1.109,0,0,1,141.344-10.641ZM145.25-4.3a5.013,5.013,0,0,1,.484-2.242,3.546,3.546,0,0,1,1.395-1.523,4.069,4.069,0,0,1,2.113-.539,3.849,3.849,0,0,1,2.793,1.047,4.2,4.2,0,0,1,1.207,2.844l.016.578a4.418,4.418,0,0,1-1.086,3.121A3.775,3.775,0,0,1,149.258.156a3.793,3.793,0,0,1-2.918-1.172A4.5,4.5,0,0,1,145.25-4.2Zm2.258.16a3.16,3.16,0,0,0,.453,1.843,1.5,1.5,0,0,0,1.3.638,1.5,1.5,0,0,0,1.281-.63A3.457,3.457,0,0,0,151-4.309a3.128,3.128,0,0,0-.461-1.831,1.5,1.5,0,0,0-1.3-.649,1.474,1.474,0,0,0-1.281.646A3.516,3.516,0,0,0,147.508-4.144ZM149.688-12h2.461l-2.164,2.422h-1.836Zm7.039,3.547.07.977a2.951,2.951,0,0,1,2.43-1.133,2.453,2.453,0,0,1,2,.789,3.682,3.682,0,0,1,.672,2.359V0h-2.258V-5.419a1.47,1.47,0,0,0-.312-1.045,1.4,1.4,0,0,0-1.039-.325,1.553,1.553,0,0,0-1.43.814V0H154.6V-8.453Z" transform="translate(720 17694.498)" fill="#12263f"/>
    <path id="Trazado_826607" data-name="Trazado 826607" d="M9.625-11.375v7.492A3.836,3.836,0,0,1,8.457-.93,4.5,4.5,0,0,1,5.266.156,4.553,4.553,0,0,1,2.1-.9a3.77,3.77,0,0,1-1.2-2.9v-7.578H3.25v7.508a2.167,2.167,0,0,0,.535,1.629,2.054,2.054,0,0,0,1.48.512q1.977,0,2.008-2.078v-7.57Zm6.352,9.039a.727.727,0,0,0-.41-.652,4.659,4.659,0,0,0-1.316-.426q-3.016-.633-3.016-2.562a2.323,2.323,0,0,1,.934-1.879,3.766,3.766,0,0,1,2.441-.754,4.053,4.053,0,0,1,2.574.758,2.388,2.388,0,0,1,.965,1.969H15.891a1.092,1.092,0,0,0-.312-.8A1.322,1.322,0,0,0,14.6-7a1.351,1.351,0,0,0-.883.258.814.814,0,0,0-.312.656.7.7,0,0,0,.355.605,3.657,3.657,0,0,0,1.2.4,9.8,9.8,0,0,1,1.422.379A2.336,2.336,0,0,1,18.172-2.43,2.2,2.2,0,0,1,17.18-.559a4.28,4.28,0,0,1-2.562.715A4.47,4.47,0,0,1,12.73-.223a3.166,3.166,0,0,1-1.293-1.039,2.414,2.414,0,0,1-.469-1.426h2.141a1.179,1.179,0,0,0,.445.922,1.766,1.766,0,0,0,1.109.32,1.635,1.635,0,0,0,.98-.246A.766.766,0,0,0,15.977-2.336Zm3.3-1.969a5.013,5.013,0,0,1,.484-2.242A3.546,3.546,0,0,1,21.152-8.07a4.069,4.069,0,0,1,2.113-.539,3.849,3.849,0,0,1,2.793,1.047,4.2,4.2,0,0,1,1.207,2.844l.016.578A4.418,4.418,0,0,1,26.2-1.02,3.775,3.775,0,0,1,23.281.156a3.793,3.793,0,0,1-2.918-1.172A4.5,4.5,0,0,1,19.273-4.2Zm2.258.16A3.16,3.16,0,0,0,21.984-2.3a1.5,1.5,0,0,0,1.3.638,1.5,1.5,0,0,0,1.281-.63,3.457,3.457,0,0,0,.461-2.015,3.128,3.128,0,0,0-.461-1.831,1.5,1.5,0,0,0-1.3-.649,1.474,1.474,0,0,0-1.281.646A3.516,3.516,0,0,0,21.531-4.144Zm14.641,2.48a1.481,1.481,0,0,0,1.016-.344,1.2,1.2,0,0,0,.406-.914h2.117a2.9,2.9,0,0,1-.469,1.574A3.093,3.093,0,0,1,37.98-.238a3.949,3.949,0,0,1-1.77.395A3.67,3.67,0,0,1,33.352-1,4.56,4.56,0,0,1,32.3-4.18v-.148a4.508,4.508,0,0,1,1.039-3.117A3.627,3.627,0,0,1,36.2-8.609a3.555,3.555,0,0,1,2.543.9,3.2,3.2,0,0,1,.973,2.4H37.594a1.551,1.551,0,0,0-.406-1.072,1.354,1.354,0,0,0-1.031-.412,1.36,1.36,0,0,0-1.191.575,3.333,3.333,0,0,0-.4,1.866v.235a3.375,3.375,0,0,0,.4,1.878A1.377,1.377,0,0,0,36.172-1.664ZM40.648-4.3a5.013,5.013,0,0,1,.484-2.242A3.546,3.546,0,0,1,42.527-8.07a4.069,4.069,0,0,1,2.113-.539,3.849,3.849,0,0,1,2.793,1.047,4.2,4.2,0,0,1,1.207,2.844l.016.578A4.418,4.418,0,0,1,47.57-1.02,3.775,3.775,0,0,1,44.656.156a3.793,3.793,0,0,1-2.918-1.172A4.5,4.5,0,0,1,40.648-4.2Zm2.258.16A3.16,3.16,0,0,0,43.359-2.3a1.5,1.5,0,0,0,1.3.638,1.5,1.5,0,0,0,1.281-.63A3.457,3.457,0,0,0,46.4-4.309a3.128,3.128,0,0,0-.461-1.831,1.5,1.5,0,0,0-1.3-.649,1.474,1.474,0,0,0-1.281.646A3.516,3.516,0,0,0,42.906-4.144Zm9.258-4.309.07.945a2.971,2.971,0,0,1,2.43-1.1A2.255,2.255,0,0,1,56.906-7.32a2.9,2.9,0,0,1,2.539-1.289,2.521,2.521,0,0,1,2.047.8,3.681,3.681,0,0,1,.672,2.41V0H59.9V-5.4a1.616,1.616,0,0,0-.281-1.053,1.245,1.245,0,0,0-.992-.333,1.409,1.409,0,0,0-1.406.971L57.227,0H54.969V-5.4A1.6,1.6,0,0,0,54.68-6.46a1.257,1.257,0,0,0-.984-.329,1.463,1.463,0,0,0-1.391.8V0H50.047V-8.453Zm19.344,4.3a5.07,5.07,0,0,1-.887,3.129A2.843,2.843,0,0,1,68.227.156a2.633,2.633,0,0,1-2.07-.891V3.25H63.9v-11.7h2.094l.078.828a2.654,2.654,0,0,1,2.141-.984,2.862,2.862,0,0,1,2.43,1.156,5.207,5.207,0,0,1,.867,3.188ZM69.25-4.321a3.345,3.345,0,0,0-.418-1.826,1.36,1.36,0,0,0-1.215-.643,1.478,1.478,0,0,0-1.461.815V-2.5a1.5,1.5,0,0,0,1.477.839Q69.25-1.664,69.25-4.321ZM77.8,0a2.507,2.507,0,0,1-.227-.758,2.732,2.732,0,0,1-2.133.914,3,3,0,0,1-2.059-.719,2.312,2.312,0,0,1-.816-1.812,2.389,2.389,0,0,1,1-2.062,4.915,4.915,0,0,1,2.879-.727h1.039v-.484a1.393,1.393,0,0,0-.3-.937,1.183,1.183,0,0,0-.949-.352,1.345,1.345,0,0,0-.895.273.929.929,0,0,0-.324.75H72.758a2.268,2.268,0,0,1,.453-1.359,3,3,0,0,1,1.281-.98,4.669,4.669,0,0,1,1.859-.355,3.689,3.689,0,0,1,2.48.785,2.747,2.747,0,0,1,.918,2.207v3.664a4.041,4.041,0,0,0,.336,1.82V0ZM75.938-1.57a1.945,1.945,0,0,0,.922-.223,1.462,1.462,0,0,0,.625-.6V-3.844h-.844q-1.7,0-1.8,1.172l-.008.133a.9.9,0,0,0,.3.7A1.153,1.153,0,0,0,75.938-1.57Zm10.3-4.766a6.134,6.134,0,0,0-.812-.062,1.654,1.654,0,0,0-1.68.867V0H81.484V-8.453h2.133l.063,1.008a2.092,2.092,0,0,1,1.883-1.164,2.366,2.366,0,0,1,.7.1Zm4.18-4.2v2.078h1.445V-6.8H90.414v4.219a1.007,1.007,0,0,0,.18.672.9.9,0,0,0,.688.2,3.6,3.6,0,0,0,.664-.055V-.047a4.648,4.648,0,0,1-1.367.2,2.156,2.156,0,0,1-2.422-2.4V-6.8H86.922V-8.453h1.234v-2.078ZM95.5,0H93.234V-8.453H95.5ZM93.1-10.641a1.112,1.112,0,0,1,.34-.836,1.277,1.277,0,0,1,.926-.328,1.28,1.28,0,0,1,.922.328,1.105,1.105,0,0,1,.344.836,1.108,1.108,0,0,1-.348.844,1.283,1.283,0,0,1-.918.328,1.283,1.283,0,0,1-.918-.328A1.108,1.108,0,0,1,93.1-10.641Zm3.906,6.352a5.094,5.094,0,0,1,.887-3.148,2.877,2.877,0,0,1,2.426-1.172,2.589,2.589,0,0,1,2.039.922V-12h2.266V0h-2.039l-.109-.9A2.657,2.657,0,0,1,100.3.156,2.869,2.869,0,0,1,97.91-1.02,5.258,5.258,0,0,1,97.008-4.289Zm2.258.161A3.355,3.355,0,0,0,99.68-2.3a1.348,1.348,0,0,0,1.2.636,1.51,1.51,0,0,0,1.477-.887V-5.9a1.489,1.489,0,0,0-1.461-.887Q99.266-6.789,99.266-4.128Zm6.758-.176a5.013,5.013,0,0,1,.484-2.242A3.546,3.546,0,0,1,107.9-8.07a4.069,4.069,0,0,1,2.113-.539,3.849,3.849,0,0,1,2.793,1.047,4.2,4.2,0,0,1,1.207,2.844l.016.578a4.418,4.418,0,0,1-1.086,3.121A3.775,3.775,0,0,1,110.031.156a3.793,3.793,0,0,1-2.918-1.172,4.5,4.5,0,0,1-1.09-3.187Zm2.258.16a3.16,3.16,0,0,0,.453,1.843,1.5,1.5,0,0,0,1.3.638,1.5,1.5,0,0,0,1.281-.63,3.457,3.457,0,0,0,.461-2.015,3.128,3.128,0,0,0-.461-1.831,1.5,1.5,0,0,0-1.3-.649,1.474,1.474,0,0,0-1.281.646A3.516,3.516,0,0,0,108.281-4.144Zm10.773-.145a5.094,5.094,0,0,1,.887-3.148,2.877,2.877,0,0,1,2.426-1.172,2.589,2.589,0,0,1,2.039.922V-12h2.266V0h-2.039l-.109-.9A2.657,2.657,0,0,1,122.352.156a2.869,2.869,0,0,1-2.395-1.176A5.258,5.258,0,0,1,119.055-4.289Zm2.258.161a3.355,3.355,0,0,0,.414,1.829,1.348,1.348,0,0,0,1.2.636,1.51,1.51,0,0,0,1.477-.887V-5.9a1.489,1.489,0,0,0-1.461-.887Q121.313-6.789,121.313-4.128Zm11,4.285a4.15,4.15,0,0,1-3.027-1.141,4.054,4.054,0,0,1-1.168-3.039v-.219a5.106,5.106,0,0,1,.492-2.277A3.612,3.612,0,0,1,130-8.066a3.914,3.914,0,0,1,2.059-.543,3.508,3.508,0,0,1,2.73,1.094,4.444,4.444,0,0,1,1,3.1v.922h-5.383a2.1,2.1,0,0,0,.66,1.328,2,2,0,0,0,1.395.5,2.437,2.437,0,0,0,2.039-.945l1.109,1.242a3.389,3.389,0,0,1-1.375,1.121A4.511,4.511,0,0,1,132.313.156Zm-.258-6.945a1.411,1.411,0,0,0-1.09.455,2.357,2.357,0,0,0-.535,1.3h3.141v-.181a1.681,1.681,0,0,0-.406-1.165A1.456,1.456,0,0,0,132.055-6.789Zm13.75.453a6.134,6.134,0,0,0-.812-.062,1.654,1.654,0,0,0-1.68.867V0h-2.258V-8.453h2.133l.063,1.008a2.092,2.092,0,0,1,1.883-1.164,2.366,2.366,0,0,1,.7.1ZM150.633.156a4.15,4.15,0,0,1-3.027-1.141,4.054,4.054,0,0,1-1.168-3.039v-.219a5.106,5.106,0,0,1,.492-2.277,3.612,3.612,0,0,1,1.395-1.547,3.914,3.914,0,0,1,2.059-.543,3.508,3.508,0,0,1,2.73,1.094,4.444,4.444,0,0,1,1,3.1v.922h-5.383a2.1,2.1,0,0,0,.66,1.328,2,2,0,0,0,1.395.5,2.437,2.437,0,0,0,2.039-.945l1.109,1.242a3.389,3.389,0,0,1-1.375,1.121A4.511,4.511,0,0,1,150.633.156Zm-.258-6.945a1.411,1.411,0,0,0-1.09.455,2.357,2.357,0,0,0-.535,1.3h3.141v-.181a1.681,1.681,0,0,0-.406-1.165A1.456,1.456,0,0,0,150.375-6.789Zm8.531,5.125a1.481,1.481,0,0,0,1.016-.344,1.2,1.2,0,0,0,.406-.914h2.117a2.9,2.9,0,0,1-.469,1.574,3.093,3.093,0,0,1-1.262,1.109,3.949,3.949,0,0,1-1.77.395A3.67,3.67,0,0,1,156.086-1a4.56,4.56,0,0,1-1.047-3.184v-.148a4.508,4.508,0,0,1,1.039-3.117,3.627,3.627,0,0,1,2.852-1.164,3.555,3.555,0,0,1,2.543.9,3.2,3.2,0,0,1,.973,2.4h-2.117a1.551,1.551,0,0,0-.406-1.072,1.355,1.355,0,0,0-1.031-.412,1.36,1.36,0,0,0-1.191.575,3.333,3.333,0,0,0-.4,1.866v.235a3.375,3.375,0,0,0,.4,1.878A1.377,1.377,0,0,0,158.906-1.664Zm9.891.8A2.831,2.831,0,0,1,166.484.156a2.67,2.67,0,0,1-2.074-.781,3.335,3.335,0,0,1-.73-2.289V-8.453h2.258v5.467q0,1.322,1.2,1.322a1.63,1.63,0,0,0,1.578-.8V-8.453h2.266V0h-2.125Zm8.641-5.477a6.134,6.134,0,0,0-.812-.062,1.654,1.654,0,0,0-1.68.867V0h-2.258V-8.453h2.133l.063,1.008a2.092,2.092,0,0,1,1.883-1.164,2.366,2.366,0,0,1,.7.1Zm5.664,4a.727.727,0,0,0-.41-.652,4.659,4.659,0,0,0-1.316-.426q-3.016-.633-3.016-2.562a2.323,2.323,0,0,1,.934-1.879,3.766,3.766,0,0,1,2.441-.754,4.053,4.053,0,0,1,2.574.758,2.388,2.388,0,0,1,.965,1.969h-2.258a1.092,1.092,0,0,0-.312-.8A1.322,1.322,0,0,0,181.727-7a1.351,1.351,0,0,0-.883.258.814.814,0,0,0-.312.656.7.7,0,0,0,.355.605,3.657,3.657,0,0,0,1.2.4,9.8,9.8,0,0,1,1.422.379A2.336,2.336,0,0,1,185.3-2.43,2.205,2.205,0,0,1,184.3-.559a4.28,4.28,0,0,1-2.562.715,4.47,4.47,0,0,1-1.887-.379,3.166,3.166,0,0,1-1.293-1.039,2.414,2.414,0,0,1-.469-1.426h2.141a1.179,1.179,0,0,0,.445.922,1.766,1.766,0,0,0,1.109.32,1.635,1.635,0,0,0,.98-.246A.766.766,0,0,0,183.1-2.336ZM186.4-4.3a5.013,5.013,0,0,1,.484-2.242,3.546,3.546,0,0,1,1.395-1.523,4.069,4.069,0,0,1,2.113-.539,3.849,3.849,0,0,1,2.793,1.047,4.2,4.2,0,0,1,1.207,2.844l.016.578A4.418,4.418,0,0,1,193.32-1.02,3.775,3.775,0,0,1,190.406.156a3.793,3.793,0,0,1-2.918-1.172A4.5,4.5,0,0,1,186.4-4.2Zm2.258.16a3.16,3.16,0,0,0,.453,1.843,1.5,1.5,0,0,0,1.3.638,1.5,1.5,0,0,0,1.281-.63,3.457,3.457,0,0,0,.461-2.015,3.128,3.128,0,0,0-.461-1.831,1.5,1.5,0,0,0-1.3-.649,1.474,1.474,0,0,0-1.281.646A3.516,3.516,0,0,0,188.656-4.144Zm11.719,1.808a.727.727,0,0,0-.41-.652,4.659,4.659,0,0,0-1.316-.426q-3.016-.633-3.016-2.562a2.323,2.323,0,0,1,.934-1.879,3.766,3.766,0,0,1,2.441-.754,4.053,4.053,0,0,1,2.574.758,2.388,2.388,0,0,1,.965,1.969h-2.258a1.092,1.092,0,0,0-.312-.8A1.322,1.322,0,0,0,199-7a1.351,1.351,0,0,0-.883.258.814.814,0,0,0-.312.656.7.7,0,0,0,.355.605,3.657,3.657,0,0,0,1.2.4,9.8,9.8,0,0,1,1.422.379A2.336,2.336,0,0,1,202.57-2.43a2.205,2.205,0,0,1-.992,1.871,4.28,4.28,0,0,1-2.562.715,4.47,4.47,0,0,1-1.887-.379,3.166,3.166,0,0,1-1.293-1.039,2.414,2.414,0,0,1-.469-1.426h2.141a1.179,1.179,0,0,0,.445.922,1.766,1.766,0,0,0,1.109.32,1.635,1.635,0,0,0,.98-.246A.766.766,0,0,0,200.375-2.336Z" transform="translate(699 17861.498)" fill="#12263f"/>
    <path id="Trazado_826608" data-name="Trazado 826608" d="M3.508,0H1.164V-11.375H3.508Zm4.1-8.453.07.977a2.951,2.951,0,0,1,2.43-1.133,2.453,2.453,0,0,1,2,.789,3.682,3.682,0,0,1,.672,2.359V0H10.523V-5.419a1.47,1.47,0,0,0-.312-1.045,1.4,1.4,0,0,0-1.039-.325,1.553,1.553,0,0,0-1.43.814V0H5.484V-8.453ZM15.109,0V-6.8H13.852V-8.453h1.258v-.719a2.918,2.918,0,0,1,.816-2.207,3.162,3.162,0,0,1,2.285-.785,5.321,5.321,0,0,1,1.148.155l-.023,1.736a2.878,2.878,0,0,0-.687-.07q-1.273,0-1.273,1.205v.685h1.68V-6.8h-1.68V0Zm9.867-6.336a6.134,6.134,0,0,0-.812-.062,1.654,1.654,0,0,0-1.68.867V0H20.227V-8.453h2.133l.063,1.008A2.092,2.092,0,0,1,24.3-8.609a2.366,2.366,0,0,1,.7.1ZM30.727,0A2.507,2.507,0,0,1,30.5-.758a2.732,2.732,0,0,1-2.133.914,3,3,0,0,1-2.059-.719,2.312,2.312,0,0,1-.816-1.812,2.389,2.389,0,0,1,1-2.062,4.915,4.915,0,0,1,2.879-.727h1.039v-.484a1.393,1.393,0,0,0-.3-.937,1.183,1.183,0,0,0-.949-.352,1.345,1.345,0,0,0-.895.273.929.929,0,0,0-.324.75H25.68a2.268,2.268,0,0,1,.453-1.359,3,3,0,0,1,1.281-.98,4.669,4.669,0,0,1,1.859-.355,3.689,3.689,0,0,1,2.48.785,2.747,2.747,0,0,1,.918,2.207v3.664a4.041,4.041,0,0,0,.336,1.82V0ZM28.859-1.57a1.945,1.945,0,0,0,.922-.223,1.462,1.462,0,0,0,.625-.6V-3.844h-.844q-1.7,0-1.8,1.172l-.008.133a.9.9,0,0,0,.3.7A1.153,1.153,0,0,0,28.859-1.57ZM38.3.156A4.15,4.15,0,0,1,35.27-.984,4.054,4.054,0,0,1,34.1-4.023v-.219a5.106,5.106,0,0,1,.492-2.277,3.612,3.612,0,0,1,1.395-1.547,3.914,3.914,0,0,1,2.059-.543,3.508,3.508,0,0,1,2.73,1.094,4.444,4.444,0,0,1,1,3.1v.922H36.391a2.1,2.1,0,0,0,.66,1.328,2,2,0,0,0,1.395.5,2.437,2.437,0,0,0,2.039-.945l1.109,1.242A3.389,3.389,0,0,1,40.219-.246,4.511,4.511,0,0,1,38.3.156Zm-.258-6.945a1.411,1.411,0,0,0-1.09.455,2.357,2.357,0,0,0-.535,1.3h3.141v-.181a1.681,1.681,0,0,0-.406-1.165A1.456,1.456,0,0,0,38.039-6.789Zm9.594,4.453a.727.727,0,0,0-.41-.652,4.659,4.659,0,0,0-1.316-.426q-3.016-.633-3.016-2.562a2.323,2.323,0,0,1,.934-1.879,3.766,3.766,0,0,1,2.441-.754,4.053,4.053,0,0,1,2.574.758A2.388,2.388,0,0,1,49.8-5.883H47.547a1.092,1.092,0,0,0-.312-.8A1.322,1.322,0,0,0,46.258-7a1.351,1.351,0,0,0-.883.258.814.814,0,0,0-.312.656.7.7,0,0,0,.355.605,3.657,3.657,0,0,0,1.2.4,9.8,9.8,0,0,1,1.422.379A2.336,2.336,0,0,1,49.828-2.43a2.2,2.2,0,0,1-.992,1.871,4.28,4.28,0,0,1-2.562.715,4.47,4.47,0,0,1-1.887-.379,3.166,3.166,0,0,1-1.293-1.039,2.414,2.414,0,0,1-.469-1.426h2.141a1.179,1.179,0,0,0,.445.922,1.766,1.766,0,0,0,1.109.32,1.635,1.635,0,0,0,.98-.246A.766.766,0,0,0,47.633-2.336Zm6.352-8.2v2.078H55.43V-6.8H53.984v4.219a1.007,1.007,0,0,0,.18.672.9.9,0,0,0,.688.2,3.6,3.6,0,0,0,.664-.055V-.047a4.648,4.648,0,0,1-1.367.2,2.156,2.156,0,0,1-2.422-2.4V-6.8H50.492V-8.453h1.234v-2.078Zm7.453,4.2a6.134,6.134,0,0,0-.812-.062,1.654,1.654,0,0,0-1.68.867V0H56.688V-8.453H58.82l.063,1.008a2.092,2.092,0,0,1,1.883-1.164,2.366,2.366,0,0,1,.7.1ZM67.586-.859A2.831,2.831,0,0,1,65.273.156,2.67,2.67,0,0,1,63.2-.625a3.335,3.335,0,0,1-.73-2.289V-8.453h2.258v5.467q0,1.322,1.2,1.322a1.63,1.63,0,0,0,1.578-.8V-8.453h2.266V0H67.648Zm7.406-.8a1.481,1.481,0,0,0,1.016-.344,1.2,1.2,0,0,0,.406-.914h2.117a2.9,2.9,0,0,1-.469,1.574A3.093,3.093,0,0,1,76.8-.238a3.949,3.949,0,0,1-1.77.395A3.67,3.67,0,0,1,72.172-1,4.56,4.56,0,0,1,71.125-4.18v-.148a4.508,4.508,0,0,1,1.039-3.117,3.627,3.627,0,0,1,2.852-1.164,3.555,3.555,0,0,1,2.543.9,3.2,3.2,0,0,1,.973,2.4H76.414a1.551,1.551,0,0,0-.406-1.072,1.354,1.354,0,0,0-1.031-.412,1.36,1.36,0,0,0-1.191.575,3.333,3.333,0,0,0-.4,1.866v.235a3.375,3.375,0,0,0,.4,1.878A1.377,1.377,0,0,0,74.992-1.664Zm7.531-8.867v2.078h1.445V-6.8H82.523v4.219a1.007,1.007,0,0,0,.18.672.9.9,0,0,0,.688.2,3.6,3.6,0,0,0,.664-.055V-.047a4.648,4.648,0,0,1-1.367.2,2.156,2.156,0,0,1-2.422-2.4V-6.8H79.031V-8.453h1.234v-2.078ZM90.289-.859A2.831,2.831,0,0,1,87.977.156,2.67,2.67,0,0,1,85.9-.625a3.335,3.335,0,0,1-.73-2.289V-8.453H87.43v5.467q0,1.322,1.2,1.322a1.63,1.63,0,0,0,1.578-.8V-8.453h2.266V0H90.352ZM98.93-6.336a6.134,6.134,0,0,0-.812-.062,1.654,1.654,0,0,0-1.68.867V0H94.18V-8.453h2.133l.063,1.008a2.092,2.092,0,0,1,1.883-1.164,2.366,2.366,0,0,1,.7.1ZM104.68,0a2.507,2.507,0,0,1-.227-.758,2.732,2.732,0,0,1-2.133.914,3,3,0,0,1-2.059-.719,2.312,2.312,0,0,1-.816-1.812,2.389,2.389,0,0,1,1-2.062,4.915,4.915,0,0,1,2.879-.727h1.039v-.484a1.393,1.393,0,0,0-.3-.937,1.183,1.183,0,0,0-.949-.352,1.345,1.345,0,0,0-.895.273.929.929,0,0,0-.324.75H99.633a2.268,2.268,0,0,1,.453-1.359,3,3,0,0,1,1.281-.98,4.669,4.669,0,0,1,1.859-.355,3.689,3.689,0,0,1,2.48.785,2.747,2.747,0,0,1,.918,2.207v3.664a4.041,4.041,0,0,0,.336,1.82V0Zm-1.867-1.57a1.945,1.945,0,0,0,.922-.223,1.462,1.462,0,0,0,.625-.6V-3.844h-.844q-1.7,0-1.8,1.172l-.008.133a.9.9,0,0,0,.3.7A1.153,1.153,0,0,0,102.813-1.57Z" transform="translate(746.5 17943.727)" fill="#12263f"/>
    <path id="Trazado_826609" data-name="Trazado 826609" d="M3.359-4.008V0H1.016V-11.375H5.453a5.134,5.134,0,0,1,2.254.469A3.454,3.454,0,0,1,9.2-9.574a3.714,3.714,0,0,1,.523,1.965A3.266,3.266,0,0,1,8.582-4.973a4.767,4.767,0,0,1-3.168.965Zm0-1.9H5.453a2.059,2.059,0,0,0,1.418-.437,1.591,1.591,0,0,0,.488-1.25,1.876,1.876,0,0,0-.492-1.352,1.839,1.839,0,0,0-1.359-.531H3.359ZM13.57,0H11.3V-12H13.57Zm6.758,0A2.507,2.507,0,0,1,20.1-.758a2.732,2.732,0,0,1-2.133.914A3,3,0,0,1,15.91-.562a2.312,2.312,0,0,1-.816-1.812,2.389,2.389,0,0,1,1-2.062,4.915,4.915,0,0,1,2.879-.727h1.039v-.484a1.393,1.393,0,0,0-.3-.937,1.183,1.183,0,0,0-.949-.352,1.345,1.345,0,0,0-.895.273.929.929,0,0,0-.324.75H15.281a2.268,2.268,0,0,1,.453-1.359,3,3,0,0,1,1.281-.98,4.669,4.669,0,0,1,1.859-.355,3.689,3.689,0,0,1,2.48.785,2.747,2.747,0,0,1,.918,2.207v3.664a4.041,4.041,0,0,0,.336,1.82V0ZM18.461-1.57a1.945,1.945,0,0,0,.922-.223,1.462,1.462,0,0,0,.625-.6V-3.844h-.844q-1.7,0-1.8,1.172l-.008.133a.9.9,0,0,0,.3.7A1.153,1.153,0,0,0,18.461-1.57Zm8.25-8.961v2.078h1.445V-6.8H26.711v4.219a1.007,1.007,0,0,0,.18.672.9.9,0,0,0,.688.2,3.6,3.6,0,0,0,.664-.055V-.047a4.648,4.648,0,0,1-1.367.2,2.156,2.156,0,0,1-2.422-2.4V-6.8H23.219V-8.453h1.234v-2.078ZM34.313,0a2.507,2.507,0,0,1-.227-.758,2.732,2.732,0,0,1-2.133.914,3,3,0,0,1-2.059-.719,2.312,2.312,0,0,1-.816-1.812,2.389,2.389,0,0,1,1-2.062,4.915,4.915,0,0,1,2.879-.727h1.039v-.484a1.393,1.393,0,0,0-.3-.937,1.183,1.183,0,0,0-.949-.352,1.345,1.345,0,0,0-.895.273.929.929,0,0,0-.324.75H29.266a2.268,2.268,0,0,1,.453-1.359A3,3,0,0,1,31-8.254a4.669,4.669,0,0,1,1.859-.355,3.689,3.689,0,0,1,2.48.785,2.747,2.747,0,0,1,.918,2.207v3.664a4.041,4.041,0,0,0,.336,1.82V0ZM32.445-1.57a1.945,1.945,0,0,0,.922-.223,1.462,1.462,0,0,0,.625-.6V-3.844h-.844q-1.7,0-1.8,1.172l-.008.133a.9.9,0,0,0,.3.7A1.153,1.153,0,0,0,32.445-1.57ZM38.609,0V-6.8H37.352V-8.453h1.258v-.719a2.918,2.918,0,0,1,.816-2.207,3.162,3.162,0,0,1,2.285-.785,5.321,5.321,0,0,1,1.148.155l-.023,1.736a2.878,2.878,0,0,0-.687-.07q-1.273,0-1.273,1.205v.685h1.68V-6.8h-1.68V0Zm4.766-4.3a5.013,5.013,0,0,1,.484-2.242A3.546,3.546,0,0,1,45.254-8.07a4.069,4.069,0,0,1,2.113-.539A3.849,3.849,0,0,1,50.16-7.562a4.2,4.2,0,0,1,1.207,2.844l.016.578A4.418,4.418,0,0,1,50.3-1.02,3.775,3.775,0,0,1,47.383.156a3.793,3.793,0,0,1-2.918-1.172A4.5,4.5,0,0,1,43.375-4.2Zm2.258.16A3.16,3.16,0,0,0,46.086-2.3a1.5,1.5,0,0,0,1.3.638,1.5,1.5,0,0,0,1.281-.63,3.457,3.457,0,0,0,.461-2.015,3.128,3.128,0,0,0-.461-1.831,1.5,1.5,0,0,0-1.3-.649,1.474,1.474,0,0,0-1.281.646A3.516,3.516,0,0,0,45.633-4.144ZM57.523-6.336a6.134,6.134,0,0,0-.812-.062,1.654,1.654,0,0,0-1.68.867V0H52.773V-8.453h2.133l.063,1.008a2.092,2.092,0,0,1,1.883-1.164,2.366,2.366,0,0,1,.7.1Zm3.2-2.117.07.945a2.971,2.971,0,0,1,2.43-1.1A2.255,2.255,0,0,1,65.469-7.32a2.9,2.9,0,0,1,2.539-1.289,2.521,2.521,0,0,1,2.047.8,3.681,3.681,0,0,1,.672,2.41V0H68.461V-5.4a1.616,1.616,0,0,0-.281-1.053,1.245,1.245,0,0,0-.992-.333,1.409,1.409,0,0,0-1.406.971L65.789,0H63.531V-5.4a1.6,1.6,0,0,0-.289-1.065,1.257,1.257,0,0,0-.984-.329,1.463,1.463,0,0,0-1.391.8V0H58.609V-8.453ZM77.359,0a2.507,2.507,0,0,1-.227-.758A2.732,2.732,0,0,1,75,.156a3,3,0,0,1-2.059-.719,2.312,2.312,0,0,1-.816-1.812,2.389,2.389,0,0,1,1-2.062A4.915,4.915,0,0,1,76-5.164h1.039v-.484a1.393,1.393,0,0,0-.3-.937,1.183,1.183,0,0,0-.949-.352,1.345,1.345,0,0,0-.895.273.929.929,0,0,0-.324.75H72.313a2.268,2.268,0,0,1,.453-1.359,3,3,0,0,1,1.281-.98,4.669,4.669,0,0,1,1.859-.355,3.689,3.689,0,0,1,2.48.785A2.747,2.747,0,0,1,79.3-5.617v3.664a4.041,4.041,0,0,0,.336,1.82V0ZM75.492-1.57a1.945,1.945,0,0,0,.922-.223,1.462,1.462,0,0,0,.625-.6V-3.844H76.2q-1.7,0-1.8,1.172l-.008.133a.9.9,0,0,0,.3.7A1.153,1.153,0,0,0,75.492-1.57Zm10.125-.766a.727.727,0,0,0-.41-.652,4.659,4.659,0,0,0-1.316-.426q-3.016-.633-3.016-2.562a2.323,2.323,0,0,1,.934-1.879,3.766,3.766,0,0,1,2.441-.754,4.053,4.053,0,0,1,2.574.758,2.388,2.388,0,0,1,.965,1.969H85.531a1.092,1.092,0,0,0-.312-.8A1.322,1.322,0,0,0,84.242-7a1.351,1.351,0,0,0-.883.258.814.814,0,0,0-.312.656.7.7,0,0,0,.355.605,3.657,3.657,0,0,0,1.2.4,9.8,9.8,0,0,1,1.422.379A2.336,2.336,0,0,1,87.813-2.43,2.2,2.2,0,0,1,86.82-.559a4.28,4.28,0,0,1-2.562.715,4.47,4.47,0,0,1-1.887-.379,3.166,3.166,0,0,1-1.293-1.039,2.414,2.414,0,0,1-.469-1.426H82.75a1.179,1.179,0,0,0,.445.922,1.766,1.766,0,0,0,1.109.32,1.635,1.635,0,0,0,.98-.246A.766.766,0,0,0,85.617-2.336ZM92.9-4.289a5.094,5.094,0,0,1,.887-3.148,2.877,2.877,0,0,1,2.426-1.172,2.589,2.589,0,0,1,2.039.922V-12h2.266V0H98.477l-.109-.9A2.657,2.657,0,0,1,96.2.156,2.869,2.869,0,0,1,93.8-1.02,5.258,5.258,0,0,1,92.9-4.289Zm2.258.161A3.355,3.355,0,0,0,95.57-2.3a1.348,1.348,0,0,0,1.2.636,1.51,1.51,0,0,0,1.477-.887V-5.9a1.489,1.489,0,0,0-1.461-.887Q95.156-6.789,95.156-4.128Zm11,4.285a4.15,4.15,0,0,1-3.027-1.141,4.054,4.054,0,0,1-1.168-3.039v-.219a5.106,5.106,0,0,1,.492-2.277,3.612,3.612,0,0,1,1.395-1.547,3.914,3.914,0,0,1,2.059-.543,3.508,3.508,0,0,1,2.73,1.094,4.444,4.444,0,0,1,1,3.1v.922H104.25a2.1,2.1,0,0,0,.66,1.328,2,2,0,0,0,1.395.5,2.437,2.437,0,0,0,2.039-.945l1.109,1.242a3.389,3.389,0,0,1-1.375,1.121A4.511,4.511,0,0,1,106.156.156ZM105.9-6.789a1.411,1.411,0,0,0-1.09.455,2.357,2.357,0,0,0-.535,1.3h3.141v-.181a1.681,1.681,0,0,0-.406-1.165A1.456,1.456,0,0,0,105.9-6.789Zm8.648,2.5a5.094,5.094,0,0,1,.887-3.148,2.877,2.877,0,0,1,2.426-1.172,2.589,2.589,0,0,1,2.039.922V-12h2.266V0h-2.039l-.109-.9A2.657,2.657,0,0,1,117.844.156a2.869,2.869,0,0,1-2.395-1.176A5.258,5.258,0,0,1,114.547-4.289Zm2.258.161a3.355,3.355,0,0,0,.414,1.829,1.348,1.348,0,0,0,1.2.636,1.51,1.51,0,0,0,1.477-.887V-5.9a1.489,1.489,0,0,0-1.461-.887Q116.8-6.789,116.8-4.128Zm11,4.285a4.15,4.15,0,0,1-3.027-1.141,4.054,4.054,0,0,1-1.168-3.039v-.219A5.106,5.106,0,0,1,124.1-6.52,3.612,3.612,0,0,1,125.5-8.066a3.914,3.914,0,0,1,2.059-.543,3.508,3.508,0,0,1,2.73,1.094,4.444,4.444,0,0,1,1,3.1v.922H125.9a2.1,2.1,0,0,0,.66,1.328,2,2,0,0,0,1.395.5,2.437,2.437,0,0,0,2.039-.945L131.1-1.367a3.389,3.389,0,0,1-1.375,1.121A4.511,4.511,0,0,1,127.8.156Zm-.258-6.945a1.411,1.411,0,0,0-1.09.455,2.357,2.357,0,0,0-.535,1.3h3.141v-.181a1.681,1.681,0,0,0-.406-1.165A1.456,1.456,0,0,0,127.547-6.789Zm9.594,4.453a.727.727,0,0,0-.41-.652,4.659,4.659,0,0,0-1.316-.426Q132.4-4.047,132.4-5.977a2.323,2.323,0,0,1,.934-1.879,3.766,3.766,0,0,1,2.441-.754,4.053,4.053,0,0,1,2.574.758,2.388,2.388,0,0,1,.965,1.969h-2.258a1.092,1.092,0,0,0-.312-.8A1.322,1.322,0,0,0,135.766-7a1.351,1.351,0,0,0-.883.258.814.814,0,0,0-.312.656.7.7,0,0,0,.355.605,3.657,3.657,0,0,0,1.2.4,9.8,9.8,0,0,1,1.422.379,2.336,2.336,0,0,1,1.789,2.273,2.205,2.205,0,0,1-.992,1.871,4.28,4.28,0,0,1-2.562.715,4.47,4.47,0,0,1-1.887-.379A3.166,3.166,0,0,1,132.6-1.262a2.414,2.414,0,0,1-.469-1.426h2.141a1.179,1.179,0,0,0,.445.922,1.766,1.766,0,0,0,1.109.32,1.635,1.635,0,0,0,.98-.246A.766.766,0,0,0,137.141-2.336ZM145.688,0a2.507,2.507,0,0,1-.227-.758,2.732,2.732,0,0,1-2.133.914,3,3,0,0,1-2.059-.719,2.312,2.312,0,0,1-.816-1.812,2.389,2.389,0,0,1,1-2.062,4.915,4.915,0,0,1,2.879-.727h1.039v-.484a1.393,1.393,0,0,0-.3-.937,1.183,1.183,0,0,0-.949-.352,1.345,1.345,0,0,0-.895.273.929.929,0,0,0-.324.75h-2.258a2.268,2.268,0,0,1,.453-1.359,3,3,0,0,1,1.281-.98,4.669,4.669,0,0,1,1.859-.355,3.689,3.689,0,0,1,2.48.785,2.747,2.747,0,0,1,.918,2.207v3.664a4.041,4.041,0,0,0,.336,1.82V0ZM143.82-1.57a1.945,1.945,0,0,0,.922-.223,1.462,1.462,0,0,0,.625-.6V-3.844h-.844q-1.7,0-1.8,1.172l-.008.133a.9.9,0,0,0,.3.7A1.153,1.153,0,0,0,143.82-1.57Zm10.3-4.766A6.134,6.134,0,0,0,153.3-6.4a1.654,1.654,0,0,0-1.68.867V0h-2.258V-8.453H151.5l.063,1.008a2.092,2.092,0,0,1,1.883-1.164,2.366,2.366,0,0,1,.7.1Zm5.836,0a6.134,6.134,0,0,0-.812-.062,1.654,1.654,0,0,0-1.68.867V0H155.2V-8.453h2.133l.063,1.008a2.092,2.092,0,0,1,1.883-1.164,2.366,2.366,0,0,1,.7.1Zm.453,2.031a5.013,5.013,0,0,1,.484-2.242,3.546,3.546,0,0,1,1.395-1.523,4.069,4.069,0,0,1,2.113-.539,3.849,3.849,0,0,1,2.793,1.047A4.2,4.2,0,0,1,168.4-4.719l.016.578a4.418,4.418,0,0,1-1.086,3.121A3.775,3.775,0,0,1,164.414.156,3.793,3.793,0,0,1,161.5-1.016a4.5,4.5,0,0,1-1.09-3.187Zm2.258.16a3.16,3.16,0,0,0,.453,1.843,1.5,1.5,0,0,0,1.3.638,1.5,1.5,0,0,0,1.281-.63,3.457,3.457,0,0,0,.461-2.015A3.128,3.128,0,0,0,165.7-6.14a1.5,1.5,0,0,0-1.3-.649,1.474,1.474,0,0,0-1.281.646A3.516,3.516,0,0,0,162.664-4.144ZM172.188,0h-2.266V-12h2.266Zm4.242,0h-2.266V-12h2.266Zm1.508-4.3a5.013,5.013,0,0,1,.484-2.242,3.546,3.546,0,0,1,1.395-1.523,4.069,4.069,0,0,1,2.113-.539,3.849,3.849,0,0,1,2.793,1.047,4.2,4.2,0,0,1,1.207,2.844l.016.578a4.418,4.418,0,0,1-1.086,3.121A3.775,3.775,0,0,1,181.945.156a3.793,3.793,0,0,1-2.918-1.172,4.5,4.5,0,0,1-1.09-3.187Zm2.258.16a3.16,3.16,0,0,0,.453,1.843,1.5,1.5,0,0,0,1.3.638,1.5,1.5,0,0,0,1.281-.63,3.457,3.457,0,0,0,.461-2.015,3.128,3.128,0,0,0-.461-1.831,1.5,1.5,0,0,0-1.3-.649,1.474,1.474,0,0,0-1.281.646A3.516,3.516,0,0,0,180.2-4.144Z" transform="translate(709 17777.498)" fill="#12263f"/>
  </g>
</svg>
