<svg xmlns="http://www.w3.org/2000/svg" xmlns:xlink="http://www.w3.org/1999/xlink" width="231.871" height="231.871" viewBox="0 0 231.871 231.871">
  <defs>
    <linearGradient id="linear-gradient" x1="0.317" y1="0.753" x2="0.831" y2="1.256" gradientUnits="objectBoundingBox">
      <stop offset="0" stop-color="#fff"/>
      <stop offset="0.231" stop-color="#f7f7f6"/>
      <stop offset="0.589" stop-color="#e1e1e1"/>
      <stop offset="1" stop-color="#c1c1c0"/>
    </linearGradient>
    <linearGradient id="linear-gradient-2" x1="0.495" y1="0.947" x2="0.182" y2="0.545" gradientUnits="objectBoundingBox">
      <stop offset="0" stop-color="#fff"/>
      <stop offset="0.38" stop-color="#f7f7f7"/>
      <stop offset="0.968" stop-color="#e1e2e4"/>
      <stop offset="0.994" stop-color="#e0e1e3"/>
    </linearGradient>
  </defs>
  <g id="Grupo_1077890" data-name="Grupo 1077890" transform="translate(5111 10287.318)">
    <path id="Trazado_824460" data-name="Trazado 824460" d="M81.979,0A81.979,81.979,0,1,1,0,81.979,81.979,81.979,0,0,1,81.979,0Z" transform="translate(-5111 -10171.383) rotate(-45)" fill="#929ba0"/>
    <path id="Trazado_188205" data-name="Trazado 188205" d="M829.493,746.27l-9.711,9.667-6.971,6.939a2.758,2.758,0,0,1-4.7-1.955V750.745a81.979,81.979,0,0,1-81.979-81.979q0-3.241.249-6.421a81.985,81.985,0,0,0,81.73,75.557V727.708a2.759,2.759,0,0,1,4.7-1.955l6.971,6.939,9.711,9.668A2.758,2.758,0,0,1,829.493,746.27Z" transform="translate(-5803.171 -10828.202)" fill="#2efec7"/>
    <path id="Trazado_826428" data-name="Trazado 826428" d="M14.3,0A14.3,14.3,0,1,1,0,14.3,14.3,14.3,0,0,1,14.3,0Z" transform="translate(-5093.473 -10159.582) rotate(-80.689)" fill="#2efec7"/>
    <path id="Trazado_826429" data-name="Trazado 826429" d="M65.583,0A65.583,65.583,0,1,1,0,65.583,65.583,65.583,0,0,1,65.583,0Z" transform="translate(-5087.813 -10171.384) rotate(-45)" fill="url(#linear-gradient)"/>
    <path id="Trazado_826430" data-name="Trazado 826430" d="M62.3,0A62.3,62.3,0,1,1,0,62.3,62.3,62.3,0,0,1,62.3,0Z" transform="translate(-5083.176 -10171.384) rotate(-45)" fill="url(#linear-gradient-2)"/>
    <path id="Trazado_826431" data-name="Trazado 826431" d="M2.939-3.507V0H.889V-9.953H4.771a4.492,4.492,0,0,1,1.972.41A3.022,3.022,0,0,1,8.053-8.377a3.25,3.25,0,0,1,.458,1.719,2.858,2.858,0,0,1-1,2.307,4.171,4.171,0,0,1-2.772.844Zm0-1.661H4.771a1.8,1.8,0,0,0,1.241-.383,1.392,1.392,0,0,0,.427-1.094,1.642,1.642,0,0,0-.431-1.183,1.609,1.609,0,0,0-1.189-.465H2.939ZM11.874,0H9.892V-10.5h1.982Zm5.913,0a2.194,2.194,0,0,1-.2-.663,2.39,2.39,0,0,1-1.866.8,2.626,2.626,0,0,1-1.8-.629,2.023,2.023,0,0,1-.714-1.586,2.09,2.09,0,0,1,.872-1.8A4.3,4.3,0,0,1,16.6-4.519h.909v-.424a1.219,1.219,0,0,0-.263-.82,1.035,1.035,0,0,0-.831-.308,1.177,1.177,0,0,0-.783.239.813.813,0,0,0-.284.656H13.371a1.984,1.984,0,0,1,.4-1.189,2.621,2.621,0,0,1,1.121-.858,4.086,4.086,0,0,1,1.627-.311,3.228,3.228,0,0,1,2.17.687,2.4,2.4,0,0,1,.8,1.931v3.206a3.536,3.536,0,0,0,.294,1.593V0ZM16.153-1.374a1.7,1.7,0,0,0,.807-.195,1.28,1.28,0,0,0,.547-.523V-3.363h-.738q-1.483,0-1.579,1.025l-.007.116a.791.791,0,0,0,.26.608A1.009,1.009,0,0,0,16.153-1.374Zm7.219-7.841V-7.4h1.265v1.449H23.372v3.691a.881.881,0,0,0,.157.588.79.79,0,0,0,.6.178,3.151,3.151,0,0,0,.581-.048v1.5a4.067,4.067,0,0,1-1.2.178,1.886,1.886,0,0,1-2.119-2.1V-5.947h-1.08V-7.4H21.4V-9.215ZM30.023,0a2.194,2.194,0,0,1-.2-.663,2.39,2.39,0,0,1-1.866.8,2.626,2.626,0,0,1-1.8-.629,2.023,2.023,0,0,1-.714-1.586,2.09,2.09,0,0,1,.872-1.8,4.3,4.3,0,0,1,2.519-.636h.909v-.424a1.219,1.219,0,0,0-.263-.82,1.035,1.035,0,0,0-.831-.308,1.177,1.177,0,0,0-.783.239.813.813,0,0,0-.284.656H25.607A1.984,1.984,0,0,1,26-6.364a2.621,2.621,0,0,1,1.121-.858,4.086,4.086,0,0,1,1.627-.311,3.228,3.228,0,0,1,2.17.687,2.4,2.4,0,0,1,.8,1.931v3.206A3.536,3.536,0,0,0,32.02-.116V0ZM28.39-1.374a1.7,1.7,0,0,0,.807-.195,1.28,1.28,0,0,0,.547-.523V-3.363H29q-1.483,0-1.579,1.025l-.007.116a.791.791,0,0,0,.26.608A1.009,1.009,0,0,0,28.39-1.374ZM33.783,0V-5.947h-1.1V-7.4h1.1v-.629A2.553,2.553,0,0,1,34.5-9.957a2.767,2.767,0,0,1,2-.687,4.656,4.656,0,0,1,1,.136l-.021,1.519a2.519,2.519,0,0,0-.6-.062q-1.114,0-1.114,1.055v.6h1.47v1.449h-1.47V0Zm4.17-3.767a4.387,4.387,0,0,1,.424-1.962A3.1,3.1,0,0,1,39.6-7.062a3.56,3.56,0,0,1,1.849-.472,3.368,3.368,0,0,1,2.444.916,3.676,3.676,0,0,1,1.056,2.488l.014.506a3.866,3.866,0,0,1-.95,2.731A3.3,3.3,0,0,1,41.46.137,3.319,3.319,0,0,1,38.907-.889a3.934,3.934,0,0,1-.954-2.789Zm1.976.14a2.765,2.765,0,0,0,.4,1.612,1.308,1.308,0,0,0,1.135.558,1.311,1.311,0,0,0,1.121-.551,3.025,3.025,0,0,0,.4-1.763,2.737,2.737,0,0,0-.4-1.6,1.311,1.311,0,0,0-1.135-.568,1.29,1.29,0,0,0-1.121.565A3.076,3.076,0,0,0,39.929-3.626Zm10.4-1.918a5.367,5.367,0,0,0-.711-.055,1.447,1.447,0,0,0-1.47.759V0H46.177V-7.4h1.866l.055.882a1.831,1.831,0,0,1,1.647-1.019,2.07,2.07,0,0,1,.615.089Zm2.8-1.853.062.827a2.6,2.6,0,0,1,2.126-.964,1.973,1.973,0,0,1,1.962,1.128,2.54,2.54,0,0,1,2.222-1.128,2.206,2.206,0,0,1,1.791.7,3.221,3.221,0,0,1,.588,2.109V0H59.9V-4.728a1.414,1.414,0,0,0-.246-.922,1.089,1.089,0,0,0-.868-.291,1.233,1.233,0,0,0-1.23.85L57.565,0H55.59V-4.721a1.4,1.4,0,0,0-.253-.932,1.1,1.1,0,0,0-.861-.288,1.28,1.28,0,0,0-1.217.7V0H51.283V-7.4ZM67.689,0a2.194,2.194,0,0,1-.2-.663,2.39,2.39,0,0,1-1.866.8,2.626,2.626,0,0,1-1.8-.629,2.023,2.023,0,0,1-.714-1.586,2.09,2.09,0,0,1,.872-1.8A4.3,4.3,0,0,1,66.5-4.519h.909v-.424a1.219,1.219,0,0,0-.263-.82,1.035,1.035,0,0,0-.831-.308,1.177,1.177,0,0,0-.783.239.813.813,0,0,0-.284.656H63.273a1.984,1.984,0,0,1,.4-1.189,2.621,2.621,0,0,1,1.121-.858,4.086,4.086,0,0,1,1.627-.311,3.228,3.228,0,0,1,2.17.687,2.4,2.4,0,0,1,.8,1.931v3.206a3.536,3.536,0,0,0,.294,1.593V0ZM66.056-1.374a1.7,1.7,0,0,0,.807-.195,1.28,1.28,0,0,0,.547-.523V-3.363h-.738q-1.483,0-1.579,1.025l-.007.116a.791.791,0,0,0,.26.608A1.009,1.009,0,0,0,66.056-1.374Z" transform="translate(-5029.543 -10136.005)" fill="#12263f"/>
    <path id="Trazado_188235" data-name="Trazado 188235" d="M197.831,575.824a1.277,1.277,0,0,1,.719,1.354c-.024.233,0,.47-.005.706-.011.355-.023.659.392.873a1.034,1.034,0,0,0,1.17.02c1.661-1,1.8-.952,2.759.712.461.8.927,1.591,1.378,2.393a1.083,1.083,0,0,1-.461,1.716c-.2.121-.406.237-.609.356-.9.523-.9,1.305.008,1.827,1.643.947,1.676,1.072.725,2.717-.461.8-.915,1.6-1.383,2.391s-.942.915-1.758.46c-.205-.114-.408-.234-.611-.351-.9-.519-1.609-.1-1.609.954,0,1.859-.1,1.963-1.964,1.963-.922,0-1.843.009-2.765,0s-1.277-.371-1.287-1.285a4.157,4.157,0,0,1,.006-.7.92.92,0,0,0-.644-1.081.653.653,0,0,0-.743.023,9.026,9.026,0,0,1-1.017.588.975.975,0,0,1-1.422-.374q-1.017-1.685-1.967-3.41a.983.983,0,0,1,.386-1.421,4.426,4.426,0,0,1,.814-.468.81.81,0,0,0,.575-1.044,1.225,1.225,0,0,0-.369-.631c-.319-.253-.712-.41-1.053-.639a.977.977,0,0,1-.365-1.381q.962-1.75,2-3.46a.971.971,0,0,1,1.383-.358,3.324,3.324,0,0,1,.759.444.923.923,0,0,0,1.351-.032.892.892,0,0,0,.294-.493,3.9,3.9,0,0,0,.009-.939,1.335,1.335,0,0,1,.715-1.418Zm4.293,11.729c-.345-.2-.642-.389-.95-.553a1.224,1.224,0,0,1-.7-1.4,6.064,6.064,0,0,0,.007-1.521,1.189,1.189,0,0,1,.7-1.342c.309-.153.6-.334.936-.52l-.995-1.732c-.332.193-.61.336-.869.507a1.271,1.271,0,0,1-1.623-.048,6.478,6.478,0,0,0-1.266-.731,1.219,1.219,0,0,1-.831-1.275c.015-.361,0-.724,0-1.072h-2.005c0,.343-.02.654,0,.962a1.263,1.263,0,0,1-.868,1.37,9.138,9.138,0,0,0-1.363.8,1.122,1.122,0,0,1-1.316.05c-.33-.2-.667-.386-1.04-.6l-.995,1.736c.346.2.637.4.948.554a1.26,1.26,0,0,1,.714,1.456,5.88,5.88,0,0,0-.01,1.284,1.278,1.278,0,0,1-.809,1.573c-.271.15-.54.3-.842.474l.994,1.729c.329-.189.626-.335.9-.519a1.235,1.235,0,0,1,1.568.041,10.237,10.237,0,0,0,1.421.815,1.121,1.121,0,0,1,.7,1.117c-.009.384,0,.768,0,1.149h2.06c-.309-1.34.258-2,1.4-2.668s2-.773,3,.032c.024.019.072.008.163.014Z" transform="translate(-5188.628 -10797.063)" fill="#12263f"/>
    <path id="Trazado_188236" data-name="Trazado 188236" d="M44.577,782.19c.2.215.338.37.484.517q3.619,3.622,7.239,7.243a2.888,2.888,0,0,1,.425.484.981.981,0,0,1-1.343,1.358,3.134,3.134,0,0,1-.53-.462q-4.373-4.366-8.735-8.744a1.369,1.369,0,0,0-1.079-.436c-4.2.014-8.4.008-12.595.009-1.115,0-1.435.319-1.436,1.433q0,4.973,0,9.947v.659c.571,0,1.093.008,1.615,0a3.177,3.177,0,0,1,3.149,1.75.817.817,0,0,0,.624.25c3.06.016,6.121.009,9.181.014a3.045,3.045,0,0,1,.813.085.893.893,0,0,1,.676.98.9.9,0,0,1-.782.9,3.963,3.963,0,0,1-.7.041q-4.414,0-8.828,0h-.669v2.012h.676q3.914,0,7.827,0c1.008,0,1.487.334,1.478,1.021s-.481.992-1.5.995c-2.1.006-2.1.006-3.286,1.725-.042.06-.068.13-.148.287.626,0,1.186,0,1.746,0,.765,0,1.531-.012,2.294.03a.92.92,0,0,1,.9.915.951.951,0,0,1-.8,1.008,2.747,2.747,0,0,1-.582.056c-1.766,0-3.531,0-5.3,0a1.083,1.083,0,0,1-.935-1.893c.5-.666,1-1.337,1.565-2.088H32.087v5.989c.6,0,1.181-.008,1.763,0,.83.015,1.158.351,1.2,1.183.1,1.911-.44,3.517-2.272,4.392a4.652,4.652,0,0,1-1.925.427c-6.572.03-13.144.021-19.716.018-2.648,0-4.593-2.014-4.167-5.176A.934.934,0,0,1,8,808.286c.622-.012,1.245,0,1.929,0v-.7q0-4.973,0-9.947a3.1,3.1,0,0,1,3.413-3.437q5.444-.006,10.888,0H25v-.676c0-3.316.041-6.632-.015-9.947a3.227,3.227,0,0,1,3.426-3.444c8.455.05,16.91.02,25.366.022a3.031,3.031,0,0,1,3.365,3.333q.006,4.561,0,9.123c0,.9-.716,1.414-1.429,1.056a1.172,1.172,0,0,1-.575-1.2q0-4.237,0-8.475c0-.235.006-.471,0-.706A1.017,1.017,0,0,0,54,782.164c-1.589-.012-3.178,0-4.767,0q-2.119,0-4.237,0C44.886,782.161,44.776,782.175,44.577,782.19ZM30.038,808.25c0-3.7.01-7.323-.008-10.949,0-.72-.42-1.072-1.191-1.087-.98-.02-1.961-.005-2.941-.005H23.456c.205.229.313.36.432.48q1.768,1.768,3.537,3.534a2.643,2.643,0,0,1,.451.537.983.983,0,0,1-1.4,1.3,3.061,3.061,0,0,1-.484-.426c-1.692-1.691-3.375-3.392-5.083-5.067a1.289,1.289,0,0,0-.806-.345c-2.255-.027-4.51-.019-6.764-.014-1.058,0-1.4.351-1.4,1.422q0,5.03,0,10.059c0,.186.02.372.03.559ZM8.9,810.322a5.477,5.477,0,0,0,.3.922,2.077,2.077,0,0,0,2.018,1.057q9.769-.008,19.538-.007a3.2,3.2,0,0,0,.869-.11,1.845,1.845,0,0,0,1.355-1.861Z" transform="translate(-5030.153 -10977.271)" fill="#12263f"/>
    <path id="Trazado_188237" data-name="Trazado 188237" d="M335.114,925.821c0,2.286,0,4.421,0,6.555,0,.942.005,1.883,0,2.825-.006.761-.372,1.213-.974,1.226-.618.013-1.014-.464-1.03-1.246-.005-.272,0-.545,0-.75-2.561,0-5.079,0-7.6,0a3.1,3.1,0,0,1-3.452-3.454q0-5.591,0-11.181a3.106,3.106,0,0,1,3.45-3.46c2.06,0,4.12.036,6.178-.011a3.15,3.15,0,0,1,3.442,3.417c-.068,1.172-.013,2.351-.013,3.6.227.01.432.028.638.028,1.707,0,3.413,0,5.119,0a2.029,2.029,0,0,1,2.281,2.234c.014,3.178,0,6.356,0,9.533a2.685,2.685,0,0,1-.014.293,1,1,0,0,1-.967.993.968.968,0,0,1-1-.952c-.049-1.018-.047-2.039-.023-3.058a1.276,1.276,0,0,0-.426-1.027c-1.706-1.678-3.39-3.378-5.083-5.069C335.508,926.184,335.365,926.057,335.114,925.821Zm-10.993,2.542h8.986v-.509q0-4.087,0-8.173c0-.992-.339-1.328-1.353-1.333-1.548-.007-3.1,0-4.645,0-.148,0-.3.026-.534.049.188.2.312.345.445.478q1.6,1.6,3.2,3.2a7.5,7.5,0,0,1,.646.682.967.967,0,0,1-.074,1.332,1.007,1.007,0,0,1-1.338.044,4.022,4.022,0,0,1-.385-.362q-2.2-2.2-4.4-4.41c-.142-.142-.293-.275-.547-.511Zm-.048,2.075c0,.354-.023.646,0,.934a1.018,1.018,0,0,0,1.111,1.044q3.41.025,6.82,0a.971.971,0,0,0,1.062-.823,7.209,7.209,0,0,0,.012-1.156Zm17.034-5.018h-3.333l3.333,3.326Z" transform="translate(-5308.123 -11097.397)" fill="#12263f"/>
    <path id="Trazado_188238" data-name="Trazado 188238" d="M362.906,663.837q0,7.328,0,14.655a3.431,3.431,0,0,1-.044.7.983.983,0,0,1-1.949-.127c-.021-.214-.012-.431-.012-.647q0-14.567,0-29.135a3.061,3.061,0,0,0-2.21-3.281,5.142,5.142,0,0,0-1.281-.136c-2.707-.012-5.415,0-8.122-.008a2.852,2.852,0,0,1-.7-.047.919.919,0,0,1-.732-.885.9.9,0,0,1,.617-.967,2.194,2.194,0,0,1,.75-.1c2.786-.007,5.572-.014,8.357,0a5,5,0,0,1,5.14,3.814,6.36,6.36,0,0,1,.181,1.629C362.911,654.145,362.906,658.991,362.906,663.837Z" transform="translate(-5330.875 -10857.064)" fill="#12263f"/>
    <path id="Trazado_188239" data-name="Trazado 188239" d="M72.991,609.8c1.137,0,2.274-.01,3.412,0a1.043,1.043,0,0,1,1.153.869c.092.651-.386,1.128-1.168,1.131-2.059.008-4.117,0-6.176,0-.157,0-.314,0-.471,0a1.078,1.078,0,0,0-1.2,1.2c-.02.862,0,1.725-.008,2.588-.008.768-.367,1.215-.968,1.234s-1.024-.458-1.036-1.241c-.012-.863-.017-1.726,0-2.588a3.051,3.051,0,0,1,3.23-3.2C70.834,609.793,71.912,609.8,72.991,609.8Z" transform="translate(-5082.725 -10827.029)" fill="#12263f"/>
    <path id="Trazado_188240" data-name="Trazado 188240" d="M25.753,695.205a8.9,8.9,0,0,1,6.133,2.429c.559.518.659,1.087.277,1.541a1.026,1.026,0,0,1-1.6-.049,7.064,7.064,0,0,0-9.655-.019,1.008,1.008,0,0,1-1.555.034A1.055,1.055,0,0,1,19.6,697.6,8.925,8.925,0,0,1,25.753,695.205Z" transform="translate(-5040.917 -10902.361)" fill="#12263f"/>
    <path id="Trazado_188241" data-name="Trazado 188241" d="M351.2,699.8c0,.627.012,1.254,0,1.88a1,1,0,1,1-2,.008c-.014-1-.058-2,.011-3a1.594,1.594,0,0,0-1.14-1.86,1.793,1.793,0,0,1-.6-.352.916.916,0,0,1-.2-1.222.887.887,0,0,1,1.149-.453c1.609.622,2.88,1.452,2.791,3.7C351.184,698.934,351.2,699.365,351.2,699.8Z" transform="translate(-5330.225 -10901.944)" fill="#12263f"/>
    <path id="Trazado_188242" data-name="Trazado 188242" d="M46.433,729.245a4.9,4.9,0,0,1,3.373,1.291,1.039,1.039,0,0,1,.259,1.493,1,1,0,0,1-1.511.067,3.08,3.08,0,0,0-3.607-.416,6.773,6.773,0,0,0-.672.472,1.015,1.015,0,0,1-1.423-.1,1,1,0,0,1,.168-1.463A4.943,4.943,0,0,1,46.433,729.245Z" transform="translate(-5061.639 -10932.386)" fill="#12263f"/>
    <path id="Trazado_188243" data-name="Trazado 188243" d="M68.533,800.889c0,.8.013,1.6,0,2.406a1,1,0,1,1-1.99.042q-.042-2.435,0-4.871a1,1,0,0,1,1.01-1.07c.594.005.97.428.984,1.145C68.545,799.323,68.534,800.106,68.533,800.889Z" transform="translate(-5082.728 -10992.498)" fill="#12263f"/>
    <path id="Trazado_188244" data-name="Trazado 188244" d="M265.271,1018.769c.49,0,.982-.019,1.471,0a.96.96,0,0,1,.988.9.928.928,0,0,1-.87,1.061,31.533,31.533,0,0,1-3.231,0,.916.916,0,0,1-.867-1.057.965.965,0,0,1,.979-.9c.039,0,.078-.006.117-.006h1.412Z" transform="translate(-5255.82 -11187.753)" fill="#12263f"/>
    <path id="Trazado_188245" data-name="Trazado 188245" d="M68.712,764.326a1,1,0,0,1-.983,1.025,1.035,1.035,0,0,1-.991-.972,1,1,0,0,1,.939-1.01A.967.967,0,0,1,68.712,764.326Z" transform="translate(-5082.92 -10962.484)" fill="#12263f"/>
    <path id="Trazado_188246" data-name="Trazado 188246" d="M243.055,629.93a3,3,0,0,1-6.007,0,3,3,0,1,1,6.007,0Zm-3.014.968a.993.993,0,0,0,1.005-1,.994.994,0,1,0-1.988.033A1,1,0,0,0,240.04,630.9Z" transform="translate(-5233.143 -10842.112)" fill="#12263f"/>
    <path id="Trazado_826432" data-name="Trazado 826432" d="M7.376-4.115A5.042,5.042,0,0,1,6.521-.957,2.983,2.983,0,0,1,4.02.137,3,3,0,0,1,1.531-.937,4.895,4.895,0,0,1,.649-4.013V-5.845A4.976,4.976,0,0,1,1.514-9.01a3,3,0,0,1,2.492-1.08A3.008,3.008,0,0,1,6.494-9.02a4.879,4.879,0,0,1,.882,3.073ZM5.4-6.129a3.645,3.645,0,0,0-.338-1.8A1.144,1.144,0,0,0,4.006-8.5a1.123,1.123,0,0,0-1.029.537,3.411,3.411,0,0,0-.352,1.68v2.422a3.826,3.826,0,0,0,.332,1.81,1.128,1.128,0,0,0,1.063.592,1.109,1.109,0,0,0,1.046-.568A3.734,3.734,0,0,0,5.4-3.762ZM15.531,0H8.709V-1.354l3.22-3.432A7.943,7.943,0,0,0,12.91-6.05a2.032,2.032,0,0,0,.318-1.025,1.52,1.52,0,0,0-.335-1.042,1.209,1.209,0,0,0-.957-.379,1.3,1.3,0,0,0-1.056.461,1.828,1.828,0,0,0-.386,1.213H8.511a3.263,3.263,0,0,1,.434-1.661,3.059,3.059,0,0,1,1.227-1.179,3.73,3.73,0,0,1,1.8-.427,3.531,3.531,0,0,1,2.389.738,2.612,2.612,0,0,1,.851,2.085,3.347,3.347,0,0,1-.383,1.5,8.357,8.357,0,0,1-1.312,1.784L11.252-1.593h4.279Z" transform="translate(-5085.333 -10165.9)" fill="#12263f"/>
  </g>
</svg>
