<svg id="ALUeKA" xmlns="http://www.w3.org/2000/svg" width="52.428" height="52.427" viewBox="0 0 52.428 52.427">
  <g id="Grupo_151302" data-name="Grupo 151302">
    <path id="Trazado_193235" data-name="Trazado 193235" d="M5044.305-225.558l-13.118,13.109-1.84-1.972c-1,1-1.9,1.884-2.771,2.8a.744.744,0,0,0-.083.537,3.741,3.741,0,0,1-2.615,4.159,3.719,3.719,0,0,1-4.458-1.975,3.534,3.534,0,0,1,.35-3.823,3.485,3.485,0,0,1,3.484-1.494.933.933,0,0,0,.9-.311c.8-.827,1.627-1.626,2.52-2.512l-1.987-1.81,13.18-13.163Z" transform="translate(-5002.258 242.421)" fill="#12263f"/>
    <path id="Trazado_193236" data-name="Trazado 193236" d="M4871.512-43.345a24.853,24.853,0,0,1-9.125-2.427,26.134,26.134,0,0,1-14.434-17.778,31.028,31.028,0,0,1-.616-3.839,1.867,1.867,0,0,1,1.694-2.112,1.95,1.95,0,0,1,2.08,1.865,28.045,28.045,0,0,0,.811,4.343c2.6,8.188,8.086,13.406,16.381,15.638a23.8,23.8,0,0,0,3.215.518c1.445.182,2.265,1.228,1.878,2.463A1.87,1.87,0,0,1,4871.512-43.345Z" transform="translate(-4847.322 95.772)" fill="#12263f"/>
    <path id="Trazado_193237" data-name="Trazado 193237" d="M4943.241-52.7a1.836,1.836,0,0,1-2.182,1.849,23.173,23.173,0,0,1-4.243-1.038A18.558,18.558,0,0,1,4924.73-66.5a4.309,4.309,0,0,1-.063-1.491,1.785,1.785,0,0,1,1.85-1.474,1.815,1.815,0,0,1,1.793,1.557,15.067,15.067,0,0,0,2.293,6.461,14.827,14.827,0,0,0,10.7,6.833C4942.535-54.443,4943.241-53.758,4943.241-52.7Z" transform="translate(-4917.082 95.736)" fill="#12263f"/>
    <path id="Trazado_193238" data-name="Trazado 193238" d="M4974.511-268.691c-.94.94-1.882,1.9-2.851,2.84a.952.952,0,0,1-1.431-.1q-2.249-2.238-4.489-4.484l-3.625-3.623c-.664-.663-.661-1.148.01-1.825.87-.877,1.739-1.755,2.588-2.612Z" transform="translate(-4950.464 284.357)" fill="#12263f"/>
    <path id="Trazado_193239" data-name="Trazado 193239" d="M5195.2-47.963l9.751,9.745c-.074.086-.149.185-.236.272q-1.206,1.209-2.417,2.415a1.052,1.052,0,0,1-1.751.01q-3.71-3.71-7.419-7.422c-.276-.276-.562-.543-.822-.834a.915.915,0,0,1-.025-1.285C5193.231-46.039,5194.213-46.986,5195.2-47.963Z" transform="translate(-5158.385 76.33)" fill="#12263f"/>
    <path id="Trazado_193240" data-name="Trazado 193240" d="M5031.387-325.671l-9.8-9.806c.948-.94,1.9-1.916,2.893-2.856.429-.407.947-.333,1.427.145q2.818,2.8,5.625,5.616,1.225,1.224,2.447,2.449c.7.7.695,1.139-.01,1.853Q5032.679-326.968,5031.387-325.671Z" transform="translate(-5004.574 338.598)" fill="#12263f"/>
    <path id="Trazado_193241" data-name="Trazado 193241" d="M5252.749-104.858c.948-.967,1.908-1.977,2.907-2.947a.97.97,0,0,1,1.353.2q2.02,2.009,4.033,4.027t4.03,4.029c.71.712.709,1.147.012,1.853-.866.878-1.731,1.757-2.567,2.606Z" transform="translate(-5213.178 130.511)" fill="#12263f"/>
    <path id="Trazado_193242" data-name="Trazado 193242" d="M5240.167-296.189c.866-.879,1.7-1.815,2.631-2.651a4.616,4.616,0,0,1,6.354.231,4.637,4.637,0,0,1,.08,6.434c-.825.872-1.686,1.71-2.51,2.542Z" transform="translate(-5201.824 303.764)" fill="#12263f"/>
  </g>
</svg>
