<svg id="_4teaDI" data-name="4teaDI" xmlns="http://www.w3.org/2000/svg" width="51.578" height="51.219" viewBox="0 0 51.578 51.219">
  <g id="Grupo_151296" data-name="Grupo 151296">
    <path id="Trazado_193224" data-name="Trazado 193224" d="M3312.793-296.828a22.258,22.258,0,0,1,3.737.282,5.533,5.533,0,0,1,4.075,4.966c.034.418.06.838.06,1.257q.005,17.23,0,34.46c0,3.415-1.61,5.715-4.573,6.353a19.167,19.167,0,0,1-3.3.151v-3.9c.38.007.76.019,1.141.02,2.277,0,2.839-.547,2.847-2.8s0-4.492,0-6.738v-3.18l-3.99.778v-15.823l3.99.778v-8.891c0-3.707-.221-3.918-3.99-3.811Z" transform="translate(-3312.793 298.705)" fill="#12263f"/>
    <path id="Trazado_193225" data-name="Trazado 193225" d="M3498.367-277.226c-.3,2.07-.521,4.155-.919,6.205a40.234,40.234,0,0,1-7.077,16.092c-.85,1.171-1.99,1.449-2.946.766s-1.062-1.852-.2-3.036a36.971,36.971,0,0,0,6.951-17.681,37.291,37.291,0,0,0-6.349-25.865c-.278-.411-.591-.8-.846-1.224a1.952,1.952,0,0,1,.445-2.651,1.841,1.841,0,0,1,2.717.482,71.584,71.584,0,0,1,4.165,6.953,37.779,37.779,0,0,1,3.873,14.719,5.76,5.76,0,0,0,.19.884Z" transform="translate(-3446.789 305.015)" fill="#12263f"/>
    <path id="Trazado_193226" data-name="Trazado 193226" d="M3467.052-265.877a33.178,33.178,0,0,1-6.919,20.2c-.978,1.289-1.976,1.532-3.014.779-.96-.7-1.007-1.9-.076-3.13a29.409,29.409,0,0,0,6.044-20.375,29,29,0,0,0-5.818-15.526c-1.122-1.507-1.183-2.638-.181-3.412,1.092-.843,2.111-.529,3.3,1.081A33.58,33.58,0,0,1,3467.052-265.877Z" transform="translate(-3423.458 291.744)" fill="#12263f"/>
    <path id="Trazado_193227" data-name="Trazado 193227" d="M3435.944-253.767c.1,7.188-1.865,13.134-6.208,18.239a1.852,1.852,0,0,1-2.744.3,1.957,1.957,0,0,1-.148-2.86,22.465,22.465,0,0,0,4.267-7.893,21.533,21.533,0,0,0-3.655-19.685c-.228-.306-.487-.59-.7-.9a2.011,2.011,0,0,1,.242-2.778,1.824,1.824,0,0,1,2.8.415,52.839,52.839,0,0,1,3.717,5.874,22.188,22.188,0,0,1,1.683,4.836C3435.6-256.6,3435.758-254.92,3435.944-253.767Z" transform="translate(-3400.278 277.89)" fill="#12263f"/>
    <path id="Trazado_193228" data-name="Trazado 193228" d="M3404.543-238.346a18.064,18.064,0,0,1-4.88,12.466c-1.208,1.29-2.314,1.467-3.248.555-.9-.878-.772-1.951.387-3.2a13.616,13.616,0,0,0,3.815-9.984,13.59,13.59,0,0,0-3.6-8.923c-.229-.256-.487-.489-.691-.763a1.886,1.886,0,0,1,.123-2.675,1.9,1.9,0,0,1,2.765.113,17.39,17.39,0,0,1,5.076,9.9C3404.436-239.916,3404.482-238.961,3404.543-238.346Z" transform="translate(-3376.792 263.695)" fill="#12263f"/>
    <path id="Trazado_193229" data-name="Trazado 193229" d="M3371.963-223.539a9.792,9.792,0,0,1-4.531,8.582c-1.292.865-2.48.748-3.135-.218-.734-1.082-.414-2.072.982-3.031a5.956,5.956,0,0,0,.711-9.6c-.343-.3-.745-.527-1.112-.8a1.881,1.881,0,0,1-.649-2.68,1.9,1.9,0,0,1,2.709-.576A9.55,9.55,0,0,1,3371.963-223.539Z" transform="translate(-3352.192 248.878)" fill="#12263f"/>
  </g>
</svg>
