<svg id="_6tMLXv" data-name="6tMLXv" xmlns="http://www.w3.org/2000/svg" width="55.495" height="45.668" viewBox="0 0 55.495 45.668">
  <g id="Grupo_151292" data-name="Grupo 151292">
    <path id="Trazado_193213" data-name="Trazado 193213" d="M2460.052-436.866a27.444,27.444,0,0,1-5.886,17,27.543,27.543,0,0,1-5.269,5.164c-1.148.859-2.249.8-3.022-.2a1.975,1.975,0,0,1,.58-2.937,23.686,23.686,0,0,0,6.442-7.2,23.174,23.174,0,0,0,3.029-9.238,23.37,23.37,0,0,0-3.027-14.5,23.6,23.6,0,0,0-6.391-7.171,3.187,3.187,0,0,1-.874-.985,1.874,1.874,0,0,1,.446-2.272,1.818,1.818,0,0,1,2.348-.208,45.307,45.307,0,0,1,4.325,3.824,26.433,26.433,0,0,1,6.081,10.574A27.563,27.563,0,0,1,2460.052-436.866Z" transform="translate(-2404.556 459.753)" fill="#12263f"/>
    <path id="Trazado_193214" data-name="Trazado 193214" d="M2079.213-436.737a27.5,27.5,0,0,1,8.819-20.209,32.479,32.479,0,0,1,2.527-2.09,1.979,1.979,0,0,1,2.791.227,1.936,1.936,0,0,1-.269,2.818c-1.326,1.212-2.738,2.343-3.959,3.653a22.347,22.347,0,0,0-5.089,9.292,22.61,22.61,0,0,0-.866,6.3,23.416,23.416,0,0,0,4.893,14.474,23.3,23.3,0,0,0,4.745,4.663,2,2,0,0,1,.928,2.2,1.933,1.933,0,0,1-1.6,1.5,1.849,1.849,0,0,1-1.559-.4,27.654,27.654,0,0,1-10.557-15.71A25.444,25.444,0,0,1,2079.213-436.737Z" transform="translate(-2079.21 459.532)" fill="#12263f"/>
    <path id="Trazado_193215" data-name="Trazado 193215" d="M2150.23-388.149a20.365,20.365,0,0,1,4.492-13.442,18.062,18.062,0,0,1,4.322-3.9,1.969,1.969,0,0,1,3.074,1.239,1.924,1.924,0,0,1-.795,1.985,16.257,16.257,0,0,0-5.335,5.933,15.568,15.568,0,0,0-1.752,8.243,15.649,15.649,0,0,0,5.423,11.049,20.332,20.332,0,0,0,1.633,1.247,1.956,1.956,0,0,1,.475,2.751,1.945,1.945,0,0,1-2.65.542,19.587,19.587,0,0,1-7.526-9.3A18.08,18.08,0,0,1,2150.23-388.149Z" transform="translate(-2142.304 411.863)" fill="#12263f"/>
    <path id="Trazado_193216" data-name="Trazado 193216" d="M2410.437-389.017a19.43,19.43,0,0,1-5.234,13.455,33.955,33.955,0,0,1-3.507,3.07,1.983,1.983,0,0,1-2.781-.344,1.967,1.967,0,0,1,.455-2.839,16.794,16.794,0,0,0,3.966-3.789,15.554,15.554,0,0,0,3.08-10.129,15.489,15.489,0,0,0-3.571-9.357,16.407,16.407,0,0,0-3.443-3.141,1.941,1.941,0,0,1-.562-2.773,2.012,2.012,0,0,1,2.8-.479,19.555,19.555,0,0,1,8.445,12.925c.072.382.165.763.2,1.149C2410.356-390.475,2410.394-389.678,2410.437-389.017Z" transform="translate(-2362.852 411.741)" fill="#12263f"/>
    <path id="Trazado_193217" data-name="Trazado 193217" d="M2221.4-340.453a11.725,11.725,0,0,1,6.219-10.431,1.971,1.971,0,0,1,2.829.676,1.975,1.975,0,0,1-.882,2.775,7.676,7.676,0,0,0-4.058,5.512,7.571,7.571,0,0,0,2.965,7.688,11.074,11.074,0,0,0,1.158.751,2.036,2.036,0,0,1,1.009,2.22,2.009,2.009,0,0,1-1.835,1.527,1.994,1.994,0,0,1-1.008-.241,11.731,11.731,0,0,1-6.177-8.161,12.827,12.827,0,0,1-.214-1.37A9.208,9.208,0,0,1,2221.4-340.453Z" transform="translate(-2205.522 363.322)" fill="#12263f"/>
    <path id="Trazado_193218" data-name="Trazado 193218" d="M2360.169-340.73c-.25,4.9-2.324,8.4-6.39,10.684a1.976,1.976,0,0,1-2.7-.7,1.966,1.966,0,0,1,.762-2.737,9.019,9.019,0,0,0,2.87-2.5,7.855,7.855,0,0,0-2.069-11.048c-.28-.179-.566-.35-.85-.525a1.976,1.976,0,0,1-.744-2.7,1.977,1.977,0,0,1,2.7-.735,11.72,11.72,0,0,1,6.018,7.666A24.49,24.49,0,0,1,2360.169-340.73Z" transform="translate(-2320.481 363.357)" fill="#12263f"/>
    <path id="Trazado_193219" data-name="Trazado 193219" d="M2292.419-286.448a3.91,3.91,0,0,1,3.957-3.97,3.951,3.951,0,0,1,3.962,3.933,3.977,3.977,0,0,1-3.973,3.986A3.951,3.951,0,0,1,2292.419-286.448Z" transform="translate(-2268.627 309.314)" fill="#12263f"/>
  </g>
</svg>
