<svg id="i7Pzql.tif" xmlns="http://www.w3.org/2000/svg" width="27.412" height="46.417" viewBox="0 0 27.412 46.417">
  <g id="Grupo_151298" data-name="Grupo 151298">
    <path id="Trazado_193230" data-name="Trazado 193230" d="M3286.292-401.694a2.232,2.232,0,0,1-1.543-1.334,3.378,3.378,0,0,1-.167-1.013q-.016-7.573-.007-15.146v-.577c-.176.161-.3.262-.406.373q-3.2,3.205-6.407,6.411a2.1,2.1,0,0,1-2.865.315,2.113,2.113,0,0,1-.418-2.977,5.066,5.066,0,0,1,.429-.466q4.21-4.217,8.422-8.433c.115-.115.223-.236.351-.372-.131-.137-.24-.258-.356-.374q-4.259-4.265-8.518-8.529a2.152,2.152,0,0,1-.352-2.9,2.09,2.09,0,0,1,2.934-.445,4.614,4.614,0,0,1,.5.453q3.125,3.123,6.244,6.253a3.281,3.281,0,0,1,.294.4l.142-.073v-.467q0-7.664,0-15.327a2.063,2.063,0,0,1,2.235-2.173,2.765,2.765,0,0,1,1.37.6c2.031,1.642,4.024,3.332,6.029,5.006q3.13,2.613,6.259,5.226a2.153,2.153,0,0,1,.006,3.613l-10.018,8.357c-.138.115-.27.236-.437.383.134.124.247.238.37.34q5.008,4.18,10.018,8.357a2.173,2.173,0,0,1,.023,3.7q-6.1,5.093-12.213,10.181a7.548,7.548,0,0,1-1.112.647Zm9.735-33.771-7.176-5.986v11.973Zm-7.179,15.115v11.979l7.179-5.991Z" transform="translate(-3274.042 448.111)" fill="#12263f"/>
  </g>
</svg>
