<svg id="Grupo_151310" data-name="Grupo 151310" xmlns="http://www.w3.org/2000/svg" width="58.986" height="58.941" viewBox="0 0 58.986 58.941">
  <path id="Trazado_193284" data-name="Trazado 193284" d="M4751.473-4539.47c-2.056.63-4.157,1.145-6.155,1.922-2.508.977-4.939,2.157-7.389,3.279-.819.375-1.576.543-2.062-.41-.5-.99.141-1.5.942-1.851,3.293-1.433,6.515-3.087,9.91-4.217,5.473-1.823,10.557-1.2,14.677,3.363a4.714,4.714,0,0,0,5.74.783c2.013-1.25,3.987-2.563,6.041-3.74,2.64-1.512,5.323-1.932,7.983.052a1.527,1.527,0,0,0,1.013.13c1.993-.277,3.87-.172,5.479,1.268a1.747,1.747,0,0,0,1.112.2c.469-.018.93-.195,1.4-.224a3.909,3.909,0,0,1,3.992,1.9,3.468,3.468,0,0,1-.555,4.321,14.432,14.432,0,0,1-2.775,2.412c-6.43,4.188-12.922,8.28-19.341,12.484a9.357,9.357,0,0,1-9.949.584c-3.561-1.773-7.126-3.54-10.643-5.4a3.494,3.494,0,0,0-4.2.248c-.817.638-1.755,1.121-2.627,1.691-.744.485-1.486.547-1.961-.268-.459-.789-.1-1.454.666-1.9.124-.071.246-.145.365-.222,5.431-3.534,5.431-3.535,11.2-.613,2.741,1.387,5.486,2.766,8.22,4.167a6.91,6.91,0,0,0,7.5-.394c6.533-4.289,13.14-8.466,19.7-12.712a7.689,7.689,0,0,0,1.808-1.582c.308-.382.591-1.244.4-1.472a2.063,2.063,0,0,0-1.643-.741,15.137,15.137,0,0,0-3.891,1.625c-3.7,2.308-7.255,4.842-10.991,7.081a10,10,0,0,1-4.509,1.382c-4.781.21-9.583.248-14.262-1.081-.365-.1-.873-.116-1.052-.362-.3-.409-.649-1.115-.482-1.434a1.731,1.731,0,0,1,1.413-.742c1.826.23,3.619.835,5.444.937,3.36.187,6.734.18,10.1.112.959-.019,2.017-.414,2.071-1.729.056-1.376-.9-1.792-2-1.924-2.582-.308-5.187-.461-7.753-.861a9.276,9.276,0,0,1-5.973-3.242c-1.761-2.129-4.245-2.5-6.841-2.436Zm34.115,2.18a3.3,3.3,0,0,0-3.561-.018c-2.068,1.229-4.1,2.518-6.206,3.817l.942,1.993Zm-15.331,2.206c1.116,0,2.395.352,3.314-.073a53.5,53.5,0,0,0,5.562-3.359C4777.069-4540,4774.213-4538.3,4770.257-4535.084Z" transform="translate(-4735.688 4575)" fill="#12263f"/>
  <path id="Trazado_193285" data-name="Trazado 193285" d="M4811.1-4651.345c-.757,1.108-1.5,2.08-2.1,3.134a2.865,2.865,0,0,0-.271,1.612c.082.812.666,1.07,1.479,1.206,4.164.694,3.831.116,3.819,4.259-.007,2.2-.02,2.223-2.206,2.665-.649.131-1.307.223-1.949.377a1.631,1.631,0,0,0-1.027,2.62c2.66,3.846,2.771,2.776-.567,6.25-.938.977-1.761,1.13-2.8.235-.536-.462-1.15-.833-1.732-1.241a1.679,1.679,0,0,0-2.825,1.193c-.741,4.282-.167,3.844-4.395,3.847-2.029,0-2.145-.1-2.509-2.037-.122-.651-.217-1.308-.36-1.954a1.692,1.692,0,0,0-2.788-1.146c-3.851,2.7-2.958,2.4-6.171-.642-.983-.931-1.142-1.761-.243-2.8.463-.537.841-1.146,1.254-1.724.9-1.264.337-2.5-1.221-2.818-4.246-.854-3.783-.124-3.795-4.469-.006-2.05.041-2.1,2.052-2.506.649-.13,1.309-.211,1.956-.348a1.681,1.681,0,0,0,1.08-2.784c-2.64-3.748-2.348-2.963.566-5.944,1.361-1.392,1.509-1.385,3.105-.253.541.383,1.066.789,1.609,1.169a1.706,1.706,0,0,0,2.736-1.12c.87-4.545.139-3.889,4.75-3.971,1.291-.023,2.1.321,2.179,1.771a14.614,14.614,0,0,0,.4,2.231,1.647,1.647,0,0,0,2.752,1.1c3.688-2.613,2.792-2.577,6.008.594A18.139,18.139,0,0,1,4811.1-4651.345Zm-3.3.306-.892-1.417c-1.94,1.159-3.162,2.694-5.862,1.6-2.778-1.127-2.039-3.36-2.823-5.015-1.289-.349-1.887.064-1.9,1.341a4.491,4.491,0,0,1-.3,1.665,2.585,2.585,0,0,1-.958,1.293c-3.35,1.731-3.361,1.707-6.407-.506-.185-.134-.39-.241-.653-.4l-1.125,1.21c1.1,1.821,2.524,3.026,1.475,5.669-1.107,2.79-3.292,2.135-5.46,3.035.45.637.813,1.588,1.169,1.586,2.6-.016,3.972,1.3,4.511,3.71.01.044.061.086.058.127a6.008,6.008,0,0,1-.187,2.059,18.265,18.265,0,0,1-1.748,2.56l1.233,1.146c1.814-1.064,3.066-2.585,5.744-1.494,2.752,1.122,2.1,3.321,3.026,5.485.629-.458,1.551-.814,1.557-1.185a4.266,4.266,0,0,1,3.515-4.54,2.655,2.655,0,0,1,2.725.3c.694.554,1.446,1.035,2.21,1.576l1.151-1.215c-1.068-1.8-2.645-3.026-1.537-5.72,1.128-2.742,3.315-2.11,5.063-2.836.129-1.641.129-1.639-1.3-1.864a7.192,7.192,0,0,1-1.805-.334,3.027,3.027,0,0,1-1.328-1.114c-1.342-2.276-1.5-4.475.7-6.395C4807.746-4650.8,4807.77-4650.97,4807.8-4651.04Z" transform="translate(-4767.853 4658.539)" fill="#12263f"/>
  <path id="Trazado_193286" data-name="Trazado 193286" d="M4823.066-4609.6a6.274,6.274,0,0,1-6.411-6.358,6.447,6.447,0,0,1,6.407-6.45,6.588,6.588,0,0,1,6.406,6.508A6.431,6.431,0,0,1,4823.066-4609.6Zm3.86-6.325a3.966,3.966,0,0,0-3.857-3.942,3.9,3.9,0,0,0-3.924,3.851,3.868,3.868,0,0,0,3.844,3.927A3.894,3.894,0,0,0,4826.926-4615.926Z" transform="translate(-4793.578 4632.708)" fill="#12263f"/>
</svg>
