<svg id="nPUgKv" xmlns="http://www.w3.org/2000/svg" width="52.483" height="41.761" viewBox="0 0 52.483 41.761">
  <g id="Grupo_151301" data-name="Grupo 151301">
    <path id="Trazado_193231" data-name="Trazado 193231" d="M3990.539-698.1l-3.326,3.566c-1.876-1.412-3.494-2.726-5.208-3.9a34.642,34.642,0,0,0-13.1-5.506,26.274,26.274,0,0,0-13.929,1.261,38.551,38.551,0,0,0-12.893,7.7c-.1.087-.2.175-.3.258a1.887,1.887,0,0,1-.162.107l-3.571-3.489v-.113a2.446,2.446,0,0,0,.257-.2,34.186,34.186,0,0,1,7.066-5.534,36.1,36.1,0,0,1,15.167-5.109c.631-.062,1.26-.142,1.89-.214h3.612c.163.033.324.078.489.1,1.521.192,3.056.3,4.561.582a36.157,36.157,0,0,1,15.99,7.338c1.2.948,2.3,2.025,3.452,3.043Z" transform="translate(-3938.055 709.278)" fill="#12263f"/>
    <path id="Trazado_193232" data-name="Trazado 193232" d="M4138.064-405.959a5.246,5.246,0,0,1-2.374-1.286,4.247,4.247,0,0,1-.713-4.894,4.262,4.262,0,0,1,4.252-2.259,4.273,4.273,0,0,1,3.673,3.531,4.224,4.224,0,0,1-3.4,4.815.919.919,0,0,0-.2.094Z" transform="translate(-4112.331 447.72)" fill="#12263f"/>
    <path id="Trazado_193233" data-name="Trazado 193233" d="M4042.3-608.736l-3.75,3.553c-7.508-8.744-22.541-9.314-30.288-.01l-3.719-3.526C4014.666-618.86,4030.369-620.29,4042.3-608.736Z" transform="translate(-3997.04 627.302)" fill="#12263f"/>
    <path id="Trazado_193234" data-name="Trazado 193234" d="M4093.884-517.74l-3.56,3.729a9.9,9.9,0,0,0-7.667-3.636,9.993,9.993,0,0,0-7.676,3.579l-3.54-3.7C4077.138-523.621,4086.724-524.69,4093.884-517.74Z" transform="translate(-4056.387 543.638)" fill="#12263f"/>
  </g>
</svg>
