<svg id="IIGda9" xmlns="http://www.w3.org/2000/svg" width="51.232" height="58.803" viewBox="0 0 51.232 58.803">
  <g id="Grupo_151294" data-name="Grupo 151294">
    <path id="Trazado_193220" data-name="Trazado 193220" d="M2581.552-370.849c.9-2.44,1.783-4.884,2.692-7.319.935-2.506,1.893-5,2.849-7.526a26.4,26.4,0,0,1-3.971-5,25.978,25.978,0,0,1-2.836-6.528,25.317,25.317,0,0,1-.877-8.649,31.124,31.124,0,0,1,.847-5.045,21.779,21.779,0,0,1,2.2-5.583,24.81,24.81,0,0,1,3.033-4.4c.412-.47.737-.976,1.49-.95a1.654,1.654,0,0,1,1.167.588l13.884,13.884c.148.148.285.308.458.5a3.9,3.9,0,0,1,3.519-.89,3.431,3.431,0,0,1,1.905,1.132,3.8,3.8,0,0,1-.1,5.021c.15.158.3.321.457.478q6.982,6.983,13.974,13.956a1.51,1.51,0,0,1,.133,2.2q-.873.761-1.8,1.454a24.194,24.194,0,0,1-8.215,4.081,36.7,36.7,0,0,1-4.863.884,18.944,18.944,0,0,1-3.648.112c-1.5-.1-2.98-.385-4.469-.6-.292-.042-.579-.12-.942-.2.647,1.934,1.278,3.8,1.9,5.677.3.906.573,1.82.857,2.73Zm5.411-47.82a23.239,23.239,0,0,0,5.207,33.781c9.556,6.384,21.169,4.259,27.36-1.216Zm10.7,45.277c-.045-.168-.064-.258-.092-.345-.632-1.921-1.274-3.838-1.891-5.763a1.462,1.462,0,0,0-.958-1.1,7.97,7.97,0,0,1-1.521-.721c-1.353-.8-2.688-1.626-4.087-2.476l-3.9,10.409Zm8.33-30.111a1.038,1.038,0,0,0-.267-1.595c-.51-.346-.968-.3-1.244.088Z" transform="translate(-2579.35 429.652)" fill="#12263f"/>
    <path id="Trazado_193221" data-name="Trazado 193221" d="M2824.749-489.752c.933.231,1.879.419,2.8.7a22.208,22.208,0,0,1,3.374,1.212,44.117,44.117,0,0,1,4.67,2.688,22.911,22.911,0,0,1,4.394,4.007,23.766,23.766,0,0,1,3.626,5.418,30.813,30.813,0,0,1,1.669,4.458,22.863,22.863,0,0,1,.695,3.521,1.179,1.179,0,0,1-1.14,1.294,1.217,1.217,0,0,1-1.243-.918c-.361-1.392-.61-2.817-1.05-4.183a21.848,21.848,0,0,0-4.3-7.657,23.825,23.825,0,0,0-5.353-4.7,23.2,23.2,0,0,0-7.672-3.1c-.53-.11-1.056-.244-1.59-.329a1.094,1.094,0,0,1-.919-1.126,1.109,1.109,0,0,1,.671-1.18c.044-.02.072-.076.107-.115Z" transform="translate(-2794.752 489.752)" fill="#12263f"/>
    <path id="Trazado_193222" data-name="Trazado 193222" d="M2819.968-426.447c1.009.274,2.039.488,3.022.836a18.291,18.291,0,0,1,4.706,2.5,18.236,18.236,0,0,1,4.89,5.343,19.109,19.109,0,0,1,2.338,6.046,1.425,1.425,0,0,1-.522,1.569,1.132,1.132,0,0,1-1.416-.05,2.068,2.068,0,0,1-.539-.873c-.506-1.423-.889-2.9-1.488-4.278a13.135,13.135,0,0,0-2.343-3.431,14.511,14.511,0,0,0-4.917-3.709,33.542,33.542,0,0,0-4.032-1.34c-.73-.22-1.222-.745-1.12-1.4A1.309,1.309,0,0,1,2819.968-426.447Z" transform="translate(-2791.063 433.717)" fill="#12263f"/>
    <path id="Trazado_193223" data-name="Trazado 193223" d="M2821.819-353.455a1.063,1.063,0,0,1-.934,1.205,1.173,1.173,0,0,1-1.454-.683c-.239-.566-.4-1.166-.647-1.728a8.177,8.177,0,0,0-5.686-4.809,1.342,1.342,0,0,1-.923-1.931,1.268,1.268,0,0,1,1.522-.579,10.974,10.974,0,0,1,5.891,3.75,10.59,10.59,0,0,1,2.123,4.113c.028.108.086.21.1.319A2.148,2.148,0,0,1,2821.819-353.455Z" transform="translate(-2785.286 376.707)" fill="#12263f"/>
  </g>
</svg>
