<svg id="Grupo_1076436" data-name="Grupo 1076436" xmlns="http://www.w3.org/2000/svg" width="83" height="83" viewBox="0 0 83 83">
  <path id="Trazado_825832" data-name="Trazado 825832" d="M41.5,0A41.5,41.5,0,1,1,0,41.5,41.5,41.5,0,0,1,41.5,0Z" transform="translate(0 0.001)" fill="#ff8e7c"/>
  <g id="_36li9e.tif" data-name="36li9e.tif" transform="translate(17.05 18.392)">
    <g id="Grupo_151396" data-name="Grupo 151396">
      <path id="Trazado_193799" data-name="Trazado 193799" d="M2358.644,34.565a4.952,4.952,0,0,0,3.406,4.067c.356.1.892.4.926.661a25.548,25.548,0,0,1,.183,3.626c0,.155-.578.434-.89.435-5.7.027-11.408.016-17.113.024-.757,0-1.1-.336-1.084-1.091.017-.7-.012-1.4.01-2.1a1.551,1.551,0,0,1,1.28-1.576,4.829,4.829,0,0,0,3.34-4.045h-4.494c-3.736,0-7.472.007-11.209,0a3.029,3.029,0,0,1-3.34-3.355q-.008-14.962,0-29.924a3.028,3.028,0,0,1,3.334-3.361q20.716-.007,41.432,0a3.009,3.009,0,0,1,3.288,3.305q.01,15.012,0,30.024a3.011,3.011,0,0,1-3.285,3.31c-4.87.015-9.741,0-14.611,0Zm8.69-12.138c-.315-2.222.584-4.561-.726-6.713a1.048,1.048,0,0,1-.06-.677c.235-1.245.441-2.5.784-3.717a1.352,1.352,0,0,1,.964-.747,11.628,11.628,0,0,1,2.794,0,1.446,1.446,0,0,1,1,.824,33.94,33.94,0,0,1,.762,3.618,1.394,1.394,0,0,1-.136.858c-1.2,2.143-.34,4.42-.6,6.431.615.277,1.4.448,1.416.668a17.915,17.915,0,0,1-.143,3.4,7.7,7.7,0,0,1-.686,1.714h3.356V4.994h-44.722V28.1h18.22c.056-.091.085-.117.088-.145a5.826,5.826,0,0,0-1.718-5.347,7.971,7.971,0,0,1,1.185-12.167,3.658,3.658,0,0,0,1.01-1.161,4.846,4.846,0,0,1,8.7-.039,3.68,3.68,0,0,0,1,1.17,8.25,8.25,0,0,1,3.263,8.556,9.5,9.5,0,0,1-3.073,4.815,1.94,1.94,0,0,0-.688,1.024c-.091,1.083-.033,2.178-.033,3.29h7.232c-.039-.465.082-1.042-.132-1.221-.87-.732-.687-1.67-.691-2.585C2365.7,22.7,2365.7,22.7,2367.334,22.427Zm8.776-19.149c0-.822.021-1.553-.005-2.281a1.368,1.368,0,0,0-1.435-1.464c-.466-.025-.934-.01-1.4-.01-12.878,0-25.756.023-38.634-.015-3.472-.01-3.476.14-3.348,3.555,0,.057.058.112.114.215ZM2331.328,29.8c-.27,2.82.03,3.162,2.676,3.162h25.524q7.407,0,14.814,0c1.268,0,1.753-.5,1.767-1.75,0-.455,0-.911,0-1.409Zm26.545-1.7c-.885-3.015.193-5.233,2.443-6.995a.753.753,0,0,0,.123-.157,6.538,6.538,0,0,0-.488-8.287,6.533,6.533,0,0,0-.661-.531c0,1.7.018,3.235,0,4.766a4.8,4.8,0,1,1-9.6.039c-.023-1.333,0-2.667-.01-4,0-.235-.049-.47-.092-.853a6.654,6.654,0,0,0-2.195,6.191,6.138,6.138,0,0,0,2.274,3.888,4,4,0,0,1,1.633,3.988,14.379,14.379,0,0,0-.014,1.949h1.6c0-.411-.005-.77,0-1.128.047-3.036-.483-2.865,2.949-2.8.057,0,.114.056.188.094v1.45l-1.466.073v2.313Zm-7.18,6.489-1.905,3.9h9.791l-1.9-3.9Zm10.926,7.135V40.25h-15.887v1.48Zm-3.981-26.711a5.029,5.029,0,0,1-6.289.032c-.287,3.235.86,5.057,3.122,5.087C2356.693,20.168,2357.843,18.377,2357.638,15.019Zm10.833,13.073h2.677c.164-.776.274-1.481.47-2.161.158-.547.42-1.064.686-1.72h-4.972a3.8,3.8,0,0,0,.018,1.137C2367.66,26.236,2368.056,27.093,2368.471,28.092Zm2.661-13.552c-.764,0-1.427-.007-2.09,0-.894.012-.989.249-.72,1.1a11.565,11.565,0,0,1,.562,2.67c.092,1.382.024,2.776.024,4.158h1.6c0-1.411-.08-2.747.023-4.07C2370.627,17.13,2370.915,15.875,2371.132,14.54Zm-.467-1.64c-.057-.8-.148-.879-1.332-.74-.25.029-.468.333-.7.51l.187.23ZM2354.6,8.952l-.251.016-.528,1.5h1.332Zm-.24,4.758h.246l.549-1.518h-1.348Zm-2.991-3.379c1.325.134.827-.915,1.258-1.379l-.206-.138Zm5.193-1.51-.23.172c.473.388-.037,1.528.925,1.543l.323-.24Zm-4.147,5.028c-.3-1.762-.3-1.762-1.02-1.427Zm5.163-1.507c-1.306-.106-.826.9-1.21,1.378l.206.131Z" transform="translate(-2329.654 2.081)" fill="#12263f"/>
      <path id="Trazado_193800" data-name="Trazado 193800" d="M2356.82,70.253a5.6,5.6,0,1,1-5.527-5.578A5.6,5.6,0,0,1,2356.82,70.253Zm-1.827.872h-7.549a3.835,3.835,0,0,0,7.549,0Zm.018-1.7a3.771,3.771,0,0,0-3.912-3.143,3.7,3.7,0,0,0-3.653,3.131c1.835.146,3.762.534,4.6-1.826.021-.06.07-.141.12-.154.35-.085.888-.328,1.015-.192a1.405,1.405,0,0,1,.25,1.085,3.983,3.983,0,0,1-.608,1.1Z" transform="translate(-2342.405 -51.255)" fill="#12263f"/>
      <path id="Trazado_193801" data-name="Trazado 193801" d="M2349.788,14.672V13.187h1.5v1.485Z" transform="translate(-2345.741 -10.118)" fill="#12263f"/>
      <path id="Trazado_193802" data-name="Trazado 193802" d="M2365.773,13.077h1.484v1.5h-1.484Z" transform="translate(-2358.512 -10.03)" fill="#12263f"/>
      <path id="Trazado_193803" data-name="Trazado 193803" d="M2383.314,13.279v1.44h-1.51v-1.44Z" transform="translate(-2371.321 -10.191)" fill="#12263f"/>
      <path id="Trazado_193804" data-name="Trazado 193804" d="M2546.58,14.63h-1.463V13.117h1.463Z" transform="translate(-2501.802 -10.062)" fill="#12263f"/>
    </g>
  </g>
</svg>
