<svg xmlns="http://www.w3.org/2000/svg" width="72" height="72" viewBox="0 0 72 72">
  <g id="Grupo_151943" data-name="Grupo 151943" transform="translate(-0.324 0.326)">
    <circle id="Elipse_4775" data-name="Elipse 4775" cx="36" cy="36" r="36" transform="translate(0.324 -0.326)" fill="#ff8e7c"/>
    <g id="_6f03q8" data-name="6f03q8" transform="translate(-702.496 -200.949)">
      <g id="Grupo_151946" data-name="Grupo 151946" transform="translate(714.551 211.899)">
        <path id="Trazado_194429" data-name="Trazado 194429" d="M767.312,295.724c0,3.728-.029,7.456.015,11.184.015,1.305-.451,1.84-1.806,1.832q-10.079-.065-20.16,0c-1.376.009-1.818-.608-1.816-1.865q.022-11.11-.005-22.22c0-1.362.508-1.918,1.921-1.908,6.622.048,13.244.015,19.866.025,1.824,0,1.981.182,1.984,2.063Q767.319,290.279,767.312,295.724Zm-21.727-2.913v6.156h19.758V292.81Zm19.741-2.08v-6.068H745.591v6.068Zm-19.74,10.339v5.681h19.723v-5.681Z" transform="translate(-734.998 -261.869)" fill="#12263f"/>
        <path id="Trazado_194430" data-name="Trazado 194430" d="M761.264,236.625l-1.278-.9a23.318,23.318,0,0,0,1.067-4.264c.292-4.952-2.678-8.75-7.594-9.335a80.84,80.84,0,0,0-9.447-.069l-.169,1.544-1.608.074c-.494-4.253-2.439-7.516-6.512-9.17a9.307,9.307,0,0,0-7.027-.041c-5.4,2.081-7.6,7.378-5.574,13.618l-1.527.881-.916-1.976a5,5,0,0,0-4.191,4.514c-.215,3.195.99,4.649,5.2,6.244v1.806a19.791,19.791,0,0,1-3.5-1.177,7.2,7.2,0,0,1,1-12.979c.863-.322,1.212-.651,1.219-1.625.047-5.906,3.772-10.347,9.659-11.635a11.707,11.707,0,0,1,12.8,6.718,1.9,1.9,0,0,0,2.074,1.335c2.8-.065,5.6-.151,8.389.037a9.916,9.916,0,0,1,8.634,5.959C763.685,229.719,763.343,233.182,761.264,236.625Z" transform="translate(-714.551 -211.899)" fill="#12263f"/>
        <path id="Trazado_194431" data-name="Trazado 194431" d="M831.437,286.317l-3.011,3.356-1.461-1.767c1.311-1.234,2.571-2.536,3.973-3.66a1.782,1.782,0,0,1,1.723.077c2.256,2.108,4.428,4.308,6.569,6.534a1.665,1.665,0,0,1,.406,1.41c-.133.342-.808.545-1.28.662a8.9,8.9,0,0,1-1.634.1l-.156,2.928h-1.728v-4.762l1.375-.124Z" transform="translate(-793.839 -262.796)" fill="#12263f"/>
        <path id="Trazado_194432" data-name="Trazado 194432" d="M835.945,319.376h1.713c0,.581,0,1.1,0,1.625C835.868,321.441,835.727,321.32,835.945,319.376Z" transform="translate(-800.117 -287.705)" fill="#12263f"/>
        <path id="Trazado_194433" data-name="Trazado 194433" d="M835.911,333.346H837.6v1.7C835.679,335.315,835.641,335.278,835.911,333.346Z" transform="translate(-800.064 -297.558)" fill="#12263f"/>
        <path id="Trazado_194434" data-name="Trazado 194434" d="M855.428,334.921c-.273.038-.461.079-.649.087-.288.013-.578,0-.98,0v-1.845l1.629-.075Z" transform="translate(-812.765 -297.379)" fill="#12263f"/>
        <path id="Trazado_194435" data-name="Trazado 194435" d="M835.894,347.245h1.718v1.7C835.745,349.285,835.694,349.238,835.894,347.245Z" transform="translate(-800.081 -307.361)" fill="#12263f"/>
        <path id="Trazado_194436" data-name="Trazado 194436" d="M853.746,347.194h1.669v1.818l-1.669.082Z" transform="translate(-812.728 -307.325)" fill="#12263f"/>
        <path id="Trazado_194437" data-name="Trazado 194437" d="M837.492,363.156c-1.583.391-2.105-.161-1.719-1.686h1.719Z" transform="translate(-799.966 -317.395)" fill="#12263f"/>
        <path id="Trazado_194438" data-name="Trazado 194438" d="M853.581,363.191v-1.843h1.713v1.763Z" transform="translate(-812.612 -317.309)" fill="#12263f"/>
        <path id="Trazado_194439" data-name="Trazado 194439" d="M763.743,354.158V352.4h-1.89v1.757Zm3.492-1.8.08,1.784h1.855v-1.784Zm7.341.044h-1.83v1.747h1.83Z" transform="translate(-747.914 -310.965)" fill="#12263f"/>
        <path id="Trazado_194440" data-name="Trazado 194440" d="M763.743,354.271h-1.89v-1.757h1.89Z" transform="translate(-747.914 -311.078)" fill="#12263f"/>
        <path id="Trazado_194441" data-name="Trazado 194441" d="M780.117,352.354h1.935v1.784H780.2Z" transform="translate(-760.796 -310.965)" fill="#12263f"/>
        <path id="Trazado_194442" data-name="Trazado 194442" d="M800.649,352.5v1.747h-1.83V352.5Z" transform="translate(-773.987 -311.071)" fill="#12263f"/>
      </g>
    </g>
  </g>
</svg>
