<svg xmlns="http://www.w3.org/2000/svg" xmlns:xlink="http://www.w3.org/1999/xlink" width="246" height="198" viewBox="0 0 246 198">
  <defs>
    <filter id="Rect치ngulo_376887" x="0" y="0" width="246" height="198" filterUnits="userSpaceOnUse">
      <feOffset dy="3" input="SourceAlpha"/>
      <feGaussianBlur stdDeviation="3" result="blur"/>
      <feFlood flood-opacity="0.161"/>
      <feComposite operator="in" in2="blur"/>
      <feComposite in="SourceGraphic"/>
    </filter>
  </defs>
  <g id="Grupo_1078251" data-name="Grupo 1078251" transform="translate(-659 -12738.535)">
    <g id="Grupo_1078250" data-name="Grupo 1078250">
      <g id="Grupo_1078249" data-name="Grupo 1078249">
        <g id="Grupo_1078248" data-name="Grupo 1078248">
          <g id="Grupo_1078247" data-name="Grupo 1078247">
            <g id="Grupo_1078246" data-name="Grupo 1078246">
              <g id="Grupo_1078245" data-name="Grupo 1078245">
                <g id="Grupo_1078244" data-name="Grupo 1078244">
                  <g transform="matrix(1, 0, 0, 1, 659, 12738.54)" filter="url(#Rect치ngulo_376887)">
                    <rect id="Rect치ngulo_376887-2" data-name="Rect치ngulo 376887" width="228" height="180" rx="10" transform="translate(9 6)" fill="#fff"/>
                  </g>
                  <path id="Trazado_826488" data-name="Trazado 826488" d="M37.492,14.656H33.383L32.6,17H30.109L34.344,5.625h2.172L40.773,17H38.281Zm-3.477-1.9h2.844L35.43,8.5ZM44.07,17H41.8V5H44.07Zm3.977-8.453.07.945a2.971,2.971,0,0,1,2.43-1.1A2.255,2.255,0,0,1,52.789,9.68a2.9,2.9,0,0,1,2.539-1.289,2.521,2.521,0,0,1,2.047.8,3.681,3.681,0,0,1,.672,2.41V17H55.781V11.609a1.61,1.61,0,0,0-.281-1.051,1.246,1.246,0,0,0-.992-.332A1.409,1.409,0,0,0,53.1,11.2l.008,5.8H50.852V11.617a1.59,1.59,0,0,0-.289-1.062,1.259,1.259,0,0,0-.984-.328,1.463,1.463,0,0,0-1.391.8V17H45.93V8.547ZM64.68,17a2.507,2.507,0,0,1-.227-.758,2.732,2.732,0,0,1-2.133.914,3,3,0,0,1-2.059-.719,2.312,2.312,0,0,1-.816-1.812,2.389,2.389,0,0,1,1-2.062,4.915,4.915,0,0,1,2.879-.727h1.039v-.484a1.393,1.393,0,0,0-.3-.937,1.183,1.183,0,0,0-.949-.352,1.345,1.345,0,0,0-.895.273.929.929,0,0,0-.324.75H59.633a2.268,2.268,0,0,1,.453-1.359,3,3,0,0,1,1.281-.98,4.669,4.669,0,0,1,1.859-.355,3.689,3.689,0,0,1,2.48.785,2.747,2.747,0,0,1,.918,2.207v3.664a4.041,4.041,0,0,0,.336,1.82V17Zm-1.867-1.57a1.945,1.945,0,0,0,.922-.223,1.462,1.462,0,0,0,.625-.6V13.156h-.844q-1.7,0-1.8,1.172l-.008.133a.9.9,0,0,0,.3.7A1.153,1.153,0,0,0,62.813,15.43Zm9.063-.094a1.481,1.481,0,0,0,1.016-.344,1.2,1.2,0,0,0,.406-.914h2.117a2.9,2.9,0,0,1-.469,1.574,3.093,3.093,0,0,1-1.262,1.109,3.949,3.949,0,0,1-1.77.395A3.67,3.67,0,0,1,69.055,16a4.56,4.56,0,0,1-1.047-3.184v-.148a4.508,4.508,0,0,1,1.039-3.117A3.627,3.627,0,0,1,71.9,8.391a3.555,3.555,0,0,1,2.543.9,3.2,3.2,0,0,1,.973,2.4H73.3a1.539,1.539,0,0,0-.406-1.066,1.513,1.513,0,0,0-2.223.164,3.324,3.324,0,0,0-.4,1.863v.234a3.366,3.366,0,0,0,.4,1.875A1.378,1.378,0,0,0,71.875,15.336Zm8.719,1.82a4.15,4.15,0,0,1-3.027-1.141A4.054,4.054,0,0,1,76.4,12.977v-.219a5.106,5.106,0,0,1,.492-2.277,3.612,3.612,0,0,1,1.395-1.547,3.914,3.914,0,0,1,2.059-.543,3.508,3.508,0,0,1,2.73,1.094,4.444,4.444,0,0,1,1,3.1v.922H78.688a2.1,2.1,0,0,0,.66,1.328,2,2,0,0,0,1.395.5,2.437,2.437,0,0,0,2.039-.945l1.109,1.242a3.389,3.389,0,0,1-1.375,1.121A4.511,4.511,0,0,1,80.594,17.156Zm-.258-6.937a1.414,1.414,0,0,0-1.09.453,2.341,2.341,0,0,0-.535,1.3h3.141v-.18a1.669,1.669,0,0,0-.406-1.16A1.459,1.459,0,0,0,80.336,10.219ZM87.43,8.547l.07.977a2.951,2.951,0,0,1,2.43-1.133,2.453,2.453,0,0,1,2,.789,3.682,3.682,0,0,1,.672,2.359V17H90.344V11.594a1.465,1.465,0,0,0-.312-1.043,1.4,1.4,0,0,0-1.039-.324,1.553,1.553,0,0,0-1.43.813V17H85.3V8.547ZM99.211,17a2.507,2.507,0,0,1-.227-.758,2.732,2.732,0,0,1-2.133.914,3,3,0,0,1-2.059-.719,2.312,2.312,0,0,1-.816-1.812,2.389,2.389,0,0,1,1-2.062,4.915,4.915,0,0,1,2.879-.727h1.039v-.484a1.393,1.393,0,0,0-.3-.937,1.183,1.183,0,0,0-.949-.352,1.345,1.345,0,0,0-.895.273.929.929,0,0,0-.324.75H94.164a2.268,2.268,0,0,1,.453-1.359,3,3,0,0,1,1.281-.98,4.669,4.669,0,0,1,1.859-.355,3.689,3.689,0,0,1,2.48.785,2.747,2.747,0,0,1,.918,2.207v3.664a4.041,4.041,0,0,0,.336,1.82V17Zm-1.867-1.57a1.945,1.945,0,0,0,.922-.223,1.462,1.462,0,0,0,.625-.6V13.156h-.844q-1.7,0-1.8,1.172l-.008.133a.9.9,0,0,0,.3.7A1.153,1.153,0,0,0,97.344,15.43Zm7.664-6.883.07.945a2.971,2.971,0,0,1,2.43-1.1A2.255,2.255,0,0,1,109.75,9.68a2.9,2.9,0,0,1,2.539-1.289,2.521,2.521,0,0,1,2.047.8,3.681,3.681,0,0,1,.672,2.41V17h-2.266V11.609a1.61,1.61,0,0,0-.281-1.051,1.246,1.246,0,0,0-.992-.332,1.409,1.409,0,0,0-1.406.969l.008,5.8h-2.258V11.617a1.59,1.59,0,0,0-.289-1.062,1.259,1.259,0,0,0-.984-.328,1.463,1.463,0,0,0-1.391.8V17h-2.258V8.547ZM119.125,17h-2.266V8.547h2.266Zm-2.4-10.641a1.112,1.112,0,0,1,.34-.836,1.465,1.465,0,0,1,1.848,0,1.105,1.105,0,0,1,.344.836,1.108,1.108,0,0,1-.348.844,1.448,1.448,0,0,1-1.836,0A1.108,1.108,0,0,1,116.727,6.359Zm8.148,10.8a4.15,4.15,0,0,1-3.027-1.141,4.054,4.054,0,0,1-1.168-3.039v-.219a5.106,5.106,0,0,1,.492-2.277,3.612,3.612,0,0,1,1.395-1.547,3.914,3.914,0,0,1,2.059-.543,3.508,3.508,0,0,1,2.73,1.094,4.444,4.444,0,0,1,1,3.1v.922h-5.383a2.1,2.1,0,0,0,.66,1.328,2,2,0,0,0,1.395.5,2.437,2.437,0,0,0,2.039-.945l1.109,1.242a3.389,3.389,0,0,1-1.375,1.121A4.511,4.511,0,0,1,124.875,17.156Zm-.258-6.937a1.414,1.414,0,0,0-1.09.453,2.341,2.341,0,0,0-.535,1.3h3.141v-.18a1.669,1.669,0,0,0-.406-1.16A1.459,1.459,0,0,0,124.617,10.219Zm7.094-1.672.07.977a2.951,2.951,0,0,1,2.43-1.133,2.453,2.453,0,0,1,2,.789,3.682,3.682,0,0,1,.672,2.359V17h-2.258V11.594a1.465,1.465,0,0,0-.312-1.043,1.4,1.4,0,0,0-1.039-.324,1.553,1.553,0,0,0-1.43.813V17h-2.258V8.547ZM141.3,6.469V8.547h1.445V10.2H141.3v4.219a1.007,1.007,0,0,0,.18.672.9.9,0,0,0,.688.2,3.6,3.6,0,0,0,.664-.055v1.711a4.648,4.648,0,0,1-1.367.2,2.156,2.156,0,0,1-2.422-2.4V10.2H137.8V8.547h1.234V6.469Zm2.117,6.227a5.013,5.013,0,0,1,.484-2.242,3.546,3.546,0,0,1,1.395-1.523,4.069,4.069,0,0,1,2.113-.539A3.849,3.849,0,0,1,150.2,9.438a4.2,4.2,0,0,1,1.207,2.844l.016.578a4.418,4.418,0,0,1-1.086,3.121,4.209,4.209,0,0,1-5.832,0,4.5,4.5,0,0,1-1.09-3.187Zm2.258.164a3.151,3.151,0,0,0,.453,1.84,1.629,1.629,0,0,0,2.578.008,3.448,3.448,0,0,0,.461-2.012,3.12,3.12,0,0,0-.461-1.828,1.5,1.5,0,0,0-1.3-.648,1.475,1.475,0,0,0-1.281.645A3.506,3.506,0,0,0,145.672,12.859Z" transform="translate(686 12861.535)" fill="#12263f"/>
                  <g id="Grupo_1078218" data-name="Grupo 1078218">
                    <g id="Grupo_1078217" data-name="Grupo 1078217">
                      <g id="Grupo_1078216" data-name="Grupo 1078216">
                        <g id="Grupo_1078215" data-name="Grupo 1078215">
                          <g id="Grupo_1078214" data-name="Grupo 1078214">
                            <g id="Grupo_1078213" data-name="Grupo 1078213">
                              <g id="Grupo_1076374" data-name="Grupo 1076374" transform="translate(-10 6933.535)">
                                <circle id="Elipse_4869" data-name="Elipse 4869" cx="43" cy="43" r="43" transform="translate(744 5830)" fill="#ff8e7c"/>
                                <g id="gB3UCQ.tif" transform="translate(-3567.739 9324.958)">
                                  <g id="Grupo_151306" data-name="Grupo 151306" transform="translate(4323.348 -3482.67)">
                                    <path id="Trazado_193254" data-name="Trazado 193254" d="M4555.1-3425.244a1.387,1.387,0,0,1-.652-1.322c.022-1.569.007-3.139.007-4.708v-.666h-.723c-3.512,0-7.024.008-10.537,0a3.793,3.793,0,0,1-3.941-3.046,5.515,5.515,0,0,1-.076-1.169q-.007-7.568,0-15.135v-.748c-.607,0-1.178,0-1.75,0-.692-.007-1.143-.389-1.141-.957s.457-.946,1.148-.95c.557,0,1.114,0,1.742,0v-.694q0-7.792.006-15.583a3.735,3.735,0,0,1,2.962-3.718,5.459,5.459,0,0,1,1.223-.1q5.185-.011,10.369,0h.721v-.666q0-3.307,0-6.615c0-1.03.305-1.331,1.335-1.331,1.7,0,3.4.022,5.1-.011a1.254,1.254,0,0,1,1.3.827c.406.881.875,1.731,1.291,2.608a.6.6,0,0,0,.633.4c1.457-.018,2.915.012,4.371-.018a1.274,1.274,0,0,1,1.3.677v12.111a1.384,1.384,0,0,1-1.316.66c-4.222-.015-8.443-.007-12.665-.008-1.018,0-1.35-.328-1.352-1.338,0-1.588,0-3.176,0-4.764,0-.2-.017-.391-.026-.611h-11.046c-1.579,0-2.3.714-2.3,2.284q0,7.622,0,15.245v.616h13.372v-.628q0-3.335,0-6.67c0-.978.333-1.3,1.321-1.3,1.7,0,3.4.017,5.1-.01a1.264,1.264,0,0,1,1.309.825c.388.847.846,1.662,1.236,2.508a.738.738,0,0,0,.8.508c1.419-.031,2.839.007,4.259-.021a1.349,1.349,0,0,1,1.311.666v12.111a1.325,1.325,0,0,1-1.3.674c-4.242-.018-8.483-.009-12.725-.01-.975,0-1.3-.331-1.3-1.321,0-1.589,0-3.177,0-4.766,0-.2-.017-.394-.026-.588H4541.11c-.011.112-.024.185-.024.258q0,7.934,0,15.867a1.911,1.911,0,0,0,2.067,2q5.381,0,10.763,0c.163,0,.326-.019.539-.032v-.635q0-3.337,0-6.672c0-.934.354-1.279,1.295-1.281,1.738,0,3.476,0,5.213,0a1.164,1.164,0,0,1,1.161.708c.438.907.912,1.8,1.339,2.708a.636.636,0,0,0,.68.424c1.438-.019,2.878.005,4.316-.014a1.391,1.391,0,0,1,1.327.642v12.784Zm1.366-15.286v13.328h11.379v-9.5H4563.4c-1.345,0-2.69,0-4.035-.009a.954.954,0,0,1-1.013-.717.854.854,0,0,1,.412-1.058,1.9,1.9,0,0,1,.8-.174c.621-.024,1.244-.008,1.947-.008-.307-.619-.551-1.14-.825-1.644a.477.477,0,0,0-.345-.213C4559.06-3440.536,4557.775-3440.531,4556.466-3440.531Zm11.394-36.389h-.651q-3.811,0-7.622,0c-.847,0-1.3-.347-1.282-.977.013-.614.451-.942,1.263-.944.625,0,1.251,0,1.946,0a4.2,4.2,0,0,1-.293-.624,1.657,1.657,0,0,0-2.1-1.305,22.317,22.317,0,0,1-2.66.021v13.329h11.4Zm-11.4,16.273v13.348h11.388v-9.506h-.681q-3.807,0-7.615,0c-.794,0-1.244-.363-1.245-.971s.449-.976,1.236-.98c.628,0,1.257,0,1.969,0-.308-.619-.57-1.169-.857-1.705a.413.413,0,0,0-.308-.175C4559.064-3460.651,4557.78-3460.647,4556.461-3460.647Z" transform="translate(-4512.367 3482.67)" fill="#12263f"/>
                                    <path id="Trazado_193255" data-name="Trazado 193255" d="M4344.431-3371.386c0,4.335-.018,8.669.012,13a2.977,2.977,0,0,1-1.346,2.611,10.733,10.733,0,0,1-4.41,1.67,24.29,24.29,0,0,1-10.929-.336,13.268,13.268,0,0,1-2.913-1.244,2.871,2.871,0,0,1-1.5-2.736q.051-13,0-26.008a2.9,2.9,0,0,1,1.286-2.518,9.911,9.911,0,0,1,4.02-1.6,23.673,23.673,0,0,1,12.584.63,8.884,8.884,0,0,1,2.179,1.223,2.493,2.493,0,0,1,1.022,2.136q-.015,6.586,0,13.172Zm-19.157,9.45c0,1.19.021,2.385-.01,3.578a1.061,1.061,0,0,0,.576,1.062,11.27,11.27,0,0,0,1.929.861,22.111,22.111,0,0,0,10.788.363,19.658,19.658,0,0,0,3.246-1.142,1.126,1.126,0,0,0,.7-1.217c-.039-1.025-.009-2.053-.013-3.08a3.939,3.939,0,0,0-.034-.393A23.923,23.923,0,0,1,4325.274-3361.936Zm17.174-13.37a23.9,23.9,0,0,1-17.174-.024c0,.994.078,2.007-.021,3a1.838,1.838,0,0,0,1.322,2.047,16.47,16.47,0,0,0,5.021,1.179,23.334,23.334,0,0,0,6.241-.222,10.469,10.469,0,0,0,3.941-1.292c.275-.173.626-.5.64-.768C4342.484-3372.7,4342.448-3374.02,4342.448-3375.306Zm-17.171-6.724c0,1.252-.024,2.535.021,3.816a1.033,1.033,0,0,0,.447.715,8.241,8.241,0,0,0,1.793.876,21.983,21.983,0,0,0,11.3.384,16.01,16.01,0,0,0,2.912-1.064c.286-.123.651-.48.665-.747.068-1.333.031-2.67.031-3.959A23.745,23.745,0,0,1,4325.276-3382.03Zm17.18,13.428a24.012,24.012,0,0,1-17.183-.029c0,1.005.079,2.022-.021,3.02a1.808,1.808,0,0,0,1.292,2.013,15.443,15.443,0,0,0,5.353,1.211,24.161,24.161,0,0,0,6.407-.319,9.676,9.676,0,0,0,3.545-1.259,1.29,1.29,0,0,0,.581-.8C4342.491-3366.052,4342.457-3367.338,4342.457-3368.6Zm-8.538-13.693c1.6-.2,3.211-.348,4.8-.61a7.747,7.747,0,0,0,3.3-1.263c.568-.406.592-.81.023-1.193a6.178,6.178,0,0,0-1.533-.783,21.749,21.749,0,0,0-12.878-.125,7.612,7.612,0,0,0-1.814.84c-.7.427-.691.852,0,1.307a6.72,6.72,0,0,0,1.338.672A22.221,22.221,0,0,0,4333.918-3382.295Z" transform="translate(-4323.348 3399.612)" fill="#12263f"/>
                                    <path id="Trazado_193256" data-name="Trazado 193256" d="M4743.711-3056.732c.6,0,1.193-.016,1.788,0a.953.953,0,0,1,1.047.981.97.97,0,0,1-1.085.95q-1.787.016-3.576,0a.99.99,0,0,1-1.081-.962.963.963,0,0,1,1.063-.969C4742.481-3056.747,4743.1-3056.731,4743.711-3056.732Z" transform="translate(-4693.913 3104.581)" fill="#12263f"/>
                                    <path id="Trazado_193257" data-name="Trazado 193257" d="M4743.658-3020.648c-.577,0-1.154,0-1.731,0-.687-.007-1.126-.389-1.125-.967a.953.953,0,0,1,1.076-.949q1.816-.017,3.631,0a.931.931,0,0,1,1.033.928.95.95,0,0,1-1.04.986C4744.888-3020.64,4744.272-3020.648,4743.658-3020.648Z" transform="translate(-4693.911 3074.255)" fill="#12263f"/>
                                    <path id="Trazado_193258" data-name="Trazado 193258" d="M4743.688-3380.6c.6,0,1.192-.013,1.788,0a.973.973,0,0,1,1.065.973.961.961,0,0,1-1.062.976c-1.192.02-2.385.019-3.577,0a.987.987,0,0,1-1.1-1c.017-.573.453-.94,1.153-.951C4742.532-3380.605,4743.11-3380.6,4743.688-3380.6Z" transform="translate(-4693.91 3392.068)" fill="#12263f"/>
                                    <path id="Trazado_193259" data-name="Trazado 193259" d="M4743.717-3414.618c.577,0,1.155-.008,1.732,0a.978.978,0,0,1,1.1.938.946.946,0,0,1-1.034.992q-1.844.029-3.688,0a.943.943,0,0,1-1.02-.953.988.988,0,0,1,1.068-.973C4742.488-3414.629,4743.1-3414.618,4743.717-3414.618Z" transform="translate(-4693.914 3422.266)" fill="#12263f"/>
                                    <path id="Trazado_193260" data-name="Trazado 193260" d="M4743.674-3235.776c.6,0,1.192-.013,1.788,0a.977.977,0,0,1,1.082.958c.011.593-.4.987-1.1,1q-1.761.022-3.521,0a1,1,0,0,1-1.118-.986c.006-.577.438-.947,1.136-.971h1.733Z" transform="translate(-4693.914 3263.513)" fill="#12263f"/>
                                    <path id="Trazado_193261" data-name="Trazado 193261" d="M4743.673-3199.716c-.6,0-1.192.01-1.788,0a1,1,0,0,1-1.081-.965.965.965,0,0,1,1.063-.976q1.816-.031,3.632,0a.951.951,0,0,1,1.046.987c-.01.568-.421.931-1.083.957h-1.788Z" transform="translate(-4693.913 3233.24)" fill="#12263f"/>
                                  </g>
                                </g>
                              </g>
                            </g>
                          </g>
                        </g>
                      </g>
                    </g>
                  </g>
                </g>
              </g>
            </g>
          </g>
        </g>
      </g>
    </g>
  </g>
</svg>
