<svg xmlns="http://www.w3.org/2000/svg" xmlns:xlink="http://www.w3.org/1999/xlink" width="246" height="198" viewBox="0 0 246 198">
  <defs>
    <filter id="Rect치ngulo_376888" x="0" y="0" width="246" height="198" filterUnits="userSpaceOnUse">
      <feOffset dy="3" input="SourceAlpha"/>
      <feGaussianBlur stdDeviation="3" result="blur"/>
      <feFlood flood-opacity="0.161"/>
      <feComposite operator="in" in2="blur"/>
      <feComposite in="SourceGraphic"/>
    </filter>
  </defs>
  <g id="Grupo_1078243" data-name="Grupo 1078243" transform="translate(-415 -12738.535)">
    <g id="Grupo_1078242" data-name="Grupo 1078242">
      <g id="Grupo_1078241" data-name="Grupo 1078241">
        <g id="Grupo_1078240" data-name="Grupo 1078240">
          <g id="Grupo_1078239" data-name="Grupo 1078239">
            <g id="Grupo_1078238" data-name="Grupo 1078238">
              <g id="Grupo_1078237" data-name="Grupo 1078237">
                <g id="Grupo_1078236" data-name="Grupo 1078236">
                  <g transform="matrix(1, 0, 0, 1, 415, 12738.54)" filter="url(#Rect치ngulo_376888)">
                    <rect id="Rect치ngulo_376888-2" data-name="Rect치ngulo 376888" width="228" height="180" rx="10" transform="translate(9 6)" fill="#fff"/>
                  </g>
                  <path id="Trazado_826487" data-name="Trazado 826487" d="M70.063,12.07h-4.5v3.047h5.281V17H63.219V5.625h7.609v1.9H65.563v2.711h4.5Zm6.586,2.594a.727.727,0,0,0-.41-.652,4.659,4.659,0,0,0-1.316-.426q-3.016-.633-3.016-2.562a2.323,2.323,0,0,1,.934-1.879,3.766,3.766,0,0,1,2.441-.754,4.053,4.053,0,0,1,2.574.758,2.388,2.388,0,0,1,.965,1.969H76.563a1.092,1.092,0,0,0-.312-.8A1.322,1.322,0,0,0,75.273,10a1.351,1.351,0,0,0-.883.258.814.814,0,0,0-.312.656.7.7,0,0,0,.355.605,3.657,3.657,0,0,0,1.2.4,9.8,9.8,0,0,1,1.422.379,2.336,2.336,0,0,1,1.789,2.273,2.2,2.2,0,0,1-.992,1.871,4.28,4.28,0,0,1-2.562.715,4.47,4.47,0,0,1-1.887-.379,3.166,3.166,0,0,1-1.293-1.039,2.414,2.414,0,0,1-.469-1.426h2.141a1.179,1.179,0,0,0,.445.922,1.766,1.766,0,0,0,1.109.32,1.635,1.635,0,0,0,.98-.246A.766.766,0,0,0,76.648,14.664Zm7.164.672a1.481,1.481,0,0,0,1.016-.344,1.2,1.2,0,0,0,.406-.914h2.117a2.9,2.9,0,0,1-.469,1.574,3.093,3.093,0,0,1-1.262,1.109,3.949,3.949,0,0,1-1.77.395A3.67,3.67,0,0,1,80.992,16a4.56,4.56,0,0,1-1.047-3.184v-.148a4.508,4.508,0,0,1,1.039-3.117,3.627,3.627,0,0,1,2.852-1.164,3.555,3.555,0,0,1,2.543.9,3.2,3.2,0,0,1,.973,2.4H85.234a1.539,1.539,0,0,0-.406-1.066,1.513,1.513,0,0,0-2.223.164,3.324,3.324,0,0,0-.4,1.863v.234a3.366,3.366,0,0,0,.4,1.875A1.378,1.378,0,0,0,83.813,15.336ZM93.539,17a2.507,2.507,0,0,1-.227-.758,2.732,2.732,0,0,1-2.133.914,3,3,0,0,1-2.059-.719,2.312,2.312,0,0,1-.816-1.812,2.389,2.389,0,0,1,1-2.062,4.915,4.915,0,0,1,2.879-.727h1.039v-.484a1.393,1.393,0,0,0-.3-.937,1.183,1.183,0,0,0-.949-.352,1.345,1.345,0,0,0-.895.273.929.929,0,0,0-.324.75H88.492a2.268,2.268,0,0,1,.453-1.359,3,3,0,0,1,1.281-.98,4.669,4.669,0,0,1,1.859-.355,3.689,3.689,0,0,1,2.48.785,2.747,2.747,0,0,1,.918,2.207v3.664a4.041,4.041,0,0,0,.336,1.82V17Zm-1.867-1.57a1.945,1.945,0,0,0,.922-.223,1.462,1.462,0,0,0,.625-.6V13.156h-.844q-1.7,0-1.8,1.172l-.008.133a.9.9,0,0,0,.3.7A1.153,1.153,0,0,0,91.672,15.43ZM99.3,8.547l.07.977a2.951,2.951,0,0,1,2.43-1.133,2.453,2.453,0,0,1,2,.789,3.682,3.682,0,0,1,.672,2.359V17h-2.258V11.594a1.465,1.465,0,0,0-.312-1.043,1.4,1.4,0,0,0-1.039-.324,1.553,1.553,0,0,0-1.43.813V17H97.172V8.547Zm10.773,8.609a4.15,4.15,0,0,1-3.027-1.141,4.054,4.054,0,0,1-1.168-3.039v-.219a5.106,5.106,0,0,1,.492-2.277,3.612,3.612,0,0,1,1.395-1.547,3.914,3.914,0,0,1,2.059-.543,3.508,3.508,0,0,1,2.73,1.094,4.444,4.444,0,0,1,1,3.1v.922h-5.383a2.1,2.1,0,0,0,.66,1.328,2,2,0,0,0,1.395.5,2.437,2.437,0,0,0,2.039-.945l1.109,1.242a3.389,3.389,0,0,1-1.375,1.121A4.511,4.511,0,0,1,110.07,17.156Zm-.258-6.937a1.414,1.414,0,0,0-1.09.453,2.341,2.341,0,0,0-.535,1.3h3.141v-.18a1.669,1.669,0,0,0-.406-1.16A1.459,1.459,0,0,0,109.813,10.219Zm9.766.445a6.134,6.134,0,0,0-.812-.062,1.654,1.654,0,0,0-1.68.867V17h-2.258V8.547h2.133l.063,1.008a2.092,2.092,0,0,1,1.883-1.164,2.366,2.366,0,0,1,.7.1Z" transform="translate(442 12861.535)" fill="#12263f"/>
                  <g id="Grupo_1078212" data-name="Grupo 1078212">
                    <g id="Grupo_1078211" data-name="Grupo 1078211">
                      <g id="Grupo_1078210" data-name="Grupo 1078210">
                        <g id="Grupo_1078209" data-name="Grupo 1078209">
                          <g id="Grupo_1078208" data-name="Grupo 1078208">
                            <g id="Grupo_1076373" data-name="Grupo 1076373" transform="translate(-10 6933.535)">
                              <circle id="Elipse_4868" data-name="Elipse 4868" cx="43" cy="43" r="43" transform="translate(500 5830)" fill="#ff8e7c"/>
                              <g id="TZUFsd.tif" transform="translate(-3076.888 9312.591)">
                                <g id="Grupo_151305" data-name="Grupo 151305" transform="translate(3592.572 -3466.763)">
                                  <path id="Trazado_193248" data-name="Trazado 193248" d="M3597.9-3447.855a9.642,9.642,0,0,1-1.282-.1,3.416,3.416,0,0,1-2.393-4.8c1.967-4.36,3.964-8.707,5.925-13.068a1.428,1.428,0,0,1,1.482-.936q17.818.017,35.637,0a1.479,1.479,0,0,1,1.528.982c1.951,4.343,3.937,8.669,5.893,13.009a3.411,3.411,0,0,1-3.073,4.878c-.187,0-.373.019-.621.031.534,2.228,1.055,4.42,1.586,6.61q1.8,7.415,3.606,14.829a3.336,3.336,0,0,1,.059.772c.005,1.606-.03,3.213.011,4.818a3.706,3.706,0,0,1-1.909,3.4,6.856,6.856,0,0,1-3.771,1.012q-14.312-.007-28.623,0-6.837,0-13.674,0a6.733,6.733,0,0,1-3.761-1.047,3.588,3.588,0,0,1-1.849-3.358.4.4,0,0,0,0-.071c-.471-4.542.857-8.82,1.91-13.14q1.649-6.761,3.277-13.526A2.935,2.935,0,0,0,3597.9-3447.855Zm43.9-5.58a1.357,1.357,0,0,0-.053-.234c-1.57-3.478-3.135-6.958-4.733-10.422a.9.9,0,0,0-.7-.374q-16.855-.027-33.71-.025a.728.728,0,0,0-.782.513c-1.013,2.282-2.052,4.553-3.083,6.828l-1.683,3.715Zm-46.768,28.675c-.044.1-.076.145-.076.187-.008,1.086.032,2.175-.029,3.257-.07,1.248.208,1.78,1.686,2.322a5.363,5.363,0,0,0,1.8.3q21.072.023,42.144-.017a6.9,6.9,0,0,0,2.493-.648,1.542,1.542,0,0,0,.869-1.019c.1-1.446.041-2.9.041-4.338h-16.91c-.015.2-.028.334-.035.474a3.429,3.429,0,0,1-3.719,3.558c-2.644,0-5.289.012-7.933,0a3.4,3.4,0,0,1-3.447-3.247c-.02-.271-.04-.541-.061-.822Zm42.294-23.1a2.982,2.982,0,0,0,.024.438c1.146,5.463,2.271,10.931,3.462,16.384.327,1.5-.235,2.032-1.594,2.029q-19.87-.047-39.74-.02c-1.232,0-1.661-.519-1.406-1.737q1.226-5.843,2.472-11.682c.38-1.791.76-3.582,1.149-5.415h-1.4l-5.037,20.815h.756q8.394,0,16.789,0c.964,0,1.38.413,1.4,1.366.008.5-.007.992.007,1.488a1.077,1.077,0,0,0,1.116,1.195q4.144.036,8.287,0a1.08,1.08,0,0,0,1.108-1.2c.011-.425,0-.85,0-1.275,0-1.193.375-1.571,1.55-1.571h17.394l-5.038-20.812Zm-4.136,0a5.215,5.215,0,0,0,.047.588c.255,1.294.518,2.586.78,3.879a1.569,1.569,0,0,1-.412,1.608c-3.081,3-6.128,6.026-9.205,9.026a1.479,1.479,0,0,1-.9.438q-9.775.037-19.55.014a1.126,1.126,0,0,1-1.167-1.412q.935-5.5,1.884-11.007c.176-1.033.342-2.067.516-3.123h-1.141c-1.169,5.516-2.33,10.992-3.5,16.514h37.835l-3.475-16.527Zm-25.66-.009c-.754,4.42-1.506,8.824-2.262,13.254H3622.3c0-2.669,0-5.286,0-7.9,0-1.008.387-1.4,1.406-1.4h7.853c-.269-1.366-.523-2.65-.78-3.952Zm-11.3-3.2a1.312,1.312,0,0,0,1.488.913q16.857-.007,33.714,0,4.923,0,9.845,0c.89,0,1.181-.207,1.3-.909Zm28.4,14.855,5.189-5.382h-5.189Z" transform="translate(-3592.572 3466.763)" fill="#12263f"/>
                                  <path id="Trazado_193249" data-name="Trazado 193249" d="M3891.192-3155.526c-.706,0-1.412.018-2.117,0a1.171,1.171,0,0,1-1.268-1.14,1.15,1.15,0,0,1,1.237-1.171c1.458-.031,2.918-.032,4.376.005a1.111,1.111,0,0,1,1.184,1.205,1.138,1.138,0,0,1-1.224,1.1C3892.651-3155.507,3891.921-3155.526,3891.192-3155.526Z" transform="translate(-3845.89 3201.72)" fill="#12263f"/>
                                  <path id="Trazado_193250" data-name="Trazado 193250" d="M3867.219-3158.483a1.44,1.44,0,0,1-1.485,1.453,1.488,1.488,0,0,1-1.437-1.451,1.5,1.5,0,0,1,1.47-1.5A1.464,1.464,0,0,1,3867.219-3158.483Z" transform="translate(-3825.718 3203.535)" fill="#12263f"/>
                                  <path id="Trazado_193251" data-name="Trazado 193251" d="M3720.948-3325.278q-4.177,0-8.353,0c-.28,0-.638.041-.821-.108a2.2,2.2,0,0,1-.744-.99.906.906,0,0,1,.671-1.1,2.972,2.972,0,0,1,.972-.122q8.282-.01,16.565,0c1.122,0,1.7.381,1.726,1.134.027.775-.579,1.193-1.733,1.194Z" transform="translate(-3694.182 3347.363)" fill="#12263f"/>
                                  <path id="Trazado_193252" data-name="Trazado 193252" d="M3699.26-3270.383h6.084c.141,0,.283,0,.424.007a1.175,1.175,0,0,1,1.2,1.137,1.185,1.185,0,0,1-1.259,1.159c-1.391.017-2.782,0-4.174,0q-4.174,0-8.348,0a2.779,2.779,0,0,1-.832-.1,1.03,1.03,0,0,1-.744-1.148,1.006,1.006,0,0,1,.926-1c.584-.058,1.176-.05,1.765-.052C3695.959-3270.387,3697.61-3270.383,3699.26-3270.383Z" transform="translate(-3677.551 3298.265)" fill="#12263f"/>
                                  <path id="Trazado_193253" data-name="Trazado 193253" d="M3708.322-3298.943c1.747,0,3.494,0,5.24,0,.9,0,1.376.42,1.358,1.163-.017.707-.488,1.1-1.348,1.1q-5.276.006-10.551,0c-.825,0-1.332-.438-1.335-1.127s.5-1.133,1.325-1.137C3704.781-3298.948,3706.552-3298.943,3708.322-3298.943Z" transform="translate(-3686.194 3322.771)" fill="#12263f"/>
                                </g>
                              </g>
                            </g>
                          </g>
                        </g>
                      </g>
                    </g>
                  </g>
                </g>
              </g>
            </g>
          </g>
        </g>
      </g>
    </g>
  </g>
</svg>
