<svg xmlns="http://www.w3.org/2000/svg" width="55" height="58" viewBox="0 0 55 58">
  <g id="Grupo_1078004" data-name="Grupo 1078004" transform="translate(-770.675 -1989.901)">
    <g id="Grupo_1078003" data-name="Grupo 1078003">
      <g id="Grupo_1078002" data-name="Grupo 1078002">
        <g id="Grupo_1078001" data-name="Grupo 1078001">
          <g id="Grupo_1078000" data-name="Grupo 1078000">
            <g id="Grupo_1077999" data-name="Grupo 1077999">
              <g id="Grupo_1076290" data-name="Grupo 1076290" transform="translate(770.31 1990.364)">
                <ellipse id="Elipse_4870" data-name="Elipse 4870" cx="27.5" cy="29" rx="27.5" ry="29" transform="translate(0.366 -0.463)" fill="#2efec7"/>
                <g id="Fn9hEg" transform="translate(10.812 13.734)">
                  <g id="Grupo_142370" data-name="Grupo 142370" transform="translate(0 0)">
                    <path id="Trazado_183502" data-name="Trazado 183502" d="M3101.051-919.766v27.448a1.04,1.04,0,0,1-.991.481q-16.042-.018-32.083,0a1.033,1.033,0,0,1-1-.477v-27.448a1.04,1.04,0,0,1,1-.481q16.039.017,32.077,0A1.033,1.033,0,0,1,3101.051-919.766Zm-1.452,26.481v-19.82h-31.176v19.82Zm.012-25.5h-31.177v4.2h31.177Z" transform="translate(-3066.98 920.247)" fill="#12263f"/>
                    <path id="Trazado_183503" data-name="Trazado 183503" d="M3136.019-801.007c1.329,2.116,2.652,4.2,3.948,6.308a1.081,1.081,0,0,1,.125.779.706.706,0,0,1-.539.417,1.093,1.093,0,0,1-.727-.4c-.559-.8-1.06-1.639-1.58-2.465q-1.269-2.02-2.535-4.042c-.367-.587-.366-.727.033-1.27q2.03-2.759,4.066-5.514a.738.738,0,0,1,1.052-.29c.374.247.427.662.1,1.112-1.254,1.718-2.52,3.427-3.781,5.139C3136.135-801.174,3136.091-801.109,3136.019-801.007Z" transform="translate(-3128.056 818.27)" fill="#12263f"/>
                    <path id="Trazado_183504" data-name="Trazado 183504" d="M3300.195-808.7a2.773,2.773,0,0,1,.6.439c1.432,1.917,2.849,3.846,4.268,5.773a.72.72,0,0,1,.021.879c-1.409,2.237-2.811,4.479-4.225,6.713a.712.712,0,0,1-1.037.323.731.731,0,0,1-.158-1.079q1.876-3,3.772-5.993a.51.51,0,0,0-.029-.7c-1.247-1.663-2.469-3.345-3.706-5.015a.707.707,0,0,1-.105-.869A2.73,2.73,0,0,1,3300.195-808.7Z" transform="translate(-3277.487 819.257)" fill="#12263f"/>
                    <path id="Trazado_183505" data-name="Trazado 183505" d="M3210.586-781.8a.746.746,0,0,1-.69-1.2q.935-1.695,1.881-3.383,1.786-3.194,3.574-6.387c.184-.331.429-.609.815-.478a1.145,1.145,0,0,1,.562.546.749.749,0,0,1-.105.571q-2.741,4.932-5.513,9.847A1.985,1.985,0,0,1,3210.586-781.8Z" transform="translate(-3196.242 805.295)" fill="#12263f"/>
                    <path id="Trazado_183506" data-name="Trazado 183506" d="M3098.406-889.423a.722.722,0,0,1-.743.688.7.7,0,0,1-.673-.751.7.7,0,0,1,.713-.665A.722.722,0,0,1,3098.406-889.423Z" transform="translate(-3094.149 893)" fill="#12263f"/>
                    <path id="Trazado_183507" data-name="Trazado 183507" d="M3128.414-889.44a.714.714,0,0,1-.727.7.7.7,0,0,1-.693-.735.7.7,0,0,1,.7-.681A.713.713,0,0,1,3128.414-889.44Z" transform="translate(-3121.314 893)" fill="#12263f"/>
                    <path id="Trazado_183508" data-name="Trazado 183508" d="M3157.686-888.735a.718.718,0,0,1-.685-.753.72.72,0,0,1,.728-.663.729.729,0,0,1,.686.754A.727.727,0,0,1,3157.686-888.735Z" transform="translate(-3148.48 893)" fill="#12263f"/>
                  </g>
                </g>
              </g>
            </g>
          </g>
        </g>
      </g>
    </g>
  </g>
</svg>
