<svg xmlns="http://www.w3.org/2000/svg" width="56" height="58" viewBox="0 0 56 58">
  <g id="Grupo_1077984" data-name="Grupo 1077984" transform="translate(-293.675 -1989.901)">
    <g id="Grupo_1077983" data-name="Grupo 1077983">
      <g id="Grupo_1077982" data-name="Grupo 1077982">
        <g id="Grupo_1077981" data-name="Grupo 1077981">
          <g id="Grupo_1077980" data-name="Grupo 1077980">
            <g id="Grupo_1077979" data-name="Grupo 1077979">
              <g id="Grupo_1077978" data-name="Grupo 1077978">
                <g id="Grupo_1077977" data-name="Grupo 1077977">
                  <g id="Grupo_1076291" data-name="Grupo 1076291" transform="translate(293.66 1990.364)">
                    <ellipse id="Elipse_4775" data-name="Elipse 4775" cx="28" cy="29" rx="28" ry="29" transform="translate(0.016 -0.463)" fill="#2efec7"/>
                    <g id="jS21yb.tif" transform="translate(14.315 12.106)">
                      <g id="Grupo_142300" data-name="Grupo 142300" transform="translate(0 0)">
                        <path id="Trazado_118083" data-name="Trazado 118083" d="M-107.838,2636.549c1.128-1.339,2.107-2.507,3.093-3.67a1.987,1.987,0,0,1,3.177-.284c1.959,1.619,2.015,2.245.377,4.2-2.1,2.5-4.2,4.987-6.279,7.5a1.673,1.673,0,0,0-.352.98c-.024,3.839-.014,7.679-.016,11.518,0,1.417-.606,2.02-2.028,2.02q-10.2,0-20.4,0c-1.379,0-1.994-.612-1.994-1.985q0-14.675,0-29.35a1.708,1.708,0,0,1,1.941-1.968c5.573,0,11.147,0,16.72-.009a2.177,2.177,0,0,1,1.671.679q1.7,1.737,3.433,3.435a2.092,2.092,0,0,1,.66,1.61C-107.851,2632.926-107.838,2634.63-107.838,2636.549Zm-1.109-5.494c-1.22,0-2.37,0-3.519,0-.807,0-.917-.114-.92-.928,0-1.148,0-2.3,0-3.462a3.031,3.031,0,0,0-.336-.045q-8.322,0-16.645-.009c-.684,0-.786.373-.786.936q.011,14.6.006,29.2c0,.852.1.953.965.953q10.126,0,20.251,0c.9,0,.983-.089.983-1q0-4.925,0-9.85v-.8c-1.008,1.195-1.876,2.23-2.754,3.258a2,2,0,0,1-.6.563q-2.049.932-4.129,1.8a.546.546,0,0,1-.788-.662c.327-1.465.682-2.925,1.055-4.379a1.8,1.8,0,0,1,.408-.629c1.908-2.292,3.78-4.615,5.755-6.848a3.846,3.846,0,0,0,1.073-2.975C-109.018,2634.492-108.947,2632.808-108.947,2631.055Zm3.574,4.281-9.472,11.294,2.318,1.945,9.473-11.291Z" transform="translate(132.259 -2625.498)" fill="#12263f"/>
                        <path id="Trazado_118084" data-name="Trazado 118084" d="M-102.165,2753.487h-1.522a.6.6,0,0,1-.681-.68c0-1.038,0-2.075,0-3.113a.576.576,0,0,1,.642-.643c1.037,0,2.075,0,3.112,0a.6.6,0,0,1,.681.679c0,1.038,0,2.075,0,3.113a.577.577,0,0,1-.642.644C-101.1,2753.49-101.635,2753.487-102.165,2753.487Zm1.111-3.282h-2.152v2.116h2.152Z" transform="translate(108.254 -2731.834)" fill="#12263f"/>
                        <path id="Trazado_118085" data-name="Trazado 118085" d="M-102.147,2796.821c.484,0,.968.007,1.452,0s.737.2.735.7q0,1.522,0,3.044c0,.5-.249.705-.731.7-.991-.007-1.983-.009-2.974,0-.531,0-.744-.253-.738-.768.012-.968.014-1.937,0-2.905-.009-.566.256-.792.8-.772C-103.116,2796.834-102.631,2796.82-102.147,2796.821Zm1.033,3.315v-2.155h-2.119v2.155Z" transform="translate(108.284 -2772.944)" fill="#12263f"/>
                        <path id="Trazado_118086" data-name="Trazado 118086" d="M-58.86,2713.177c1.569,0,3.139,0,4.708,0,.428,0,.842.054.821.59-.019.486-.42.525-.817.524q-4.708-.007-9.416,0c-.428,0-.842-.053-.821-.589.019-.488.42-.526.817-.524C-62,2713.18-60.429,2713.177-58.86,2713.177Z" transform="translate(73.843 -2700.957)" fill="#12263f"/>
                        <path id="Trazado_118087" data-name="Trazado 118087" d="M-56.77,2666.475c-.945,0-1.893.038-2.834-.025a.935.935,0,0,1-.7-.529c-.081-.416.289-.557.684-.556,1.914,0,3.828-.019,5.74.025.249.006.49.341.735.523-.24.187-.471.519-.722.535C-54.83,2666.513-55.8,2666.475-56.77,2666.475Z" transform="translate(70.34 -2659.808)" fill="#12263f"/>
                        <path id="Trazado_118088" data-name="Trazado 118088" d="M-101.239,2656.286c.454-.9.851-1.671,1.235-2.451.186-.377.4-.749.881-.5s.291.647.1,1.015c-.478.944-.943,1.9-1.426,2.838-.335.652-.643.707-1.161.208a15.376,15.376,0,0,1-1.4-1.431c-.146-.182-.06-.551-.081-.834.284.024.637-.049.835.094A7.786,7.786,0,0,1-101.239,2656.286Z" transform="translate(107.157 -2649.386)" fill="#12263f"/>
                        <path id="Trazado_118089" data-name="Trazado 118089" d="M-102.286,2704.077c.446-.887.83-1.643,1.207-2.4.181-.366.378-.766.869-.536s.33.627.14,1c-.489.965-.963,1.938-1.459,2.9-.314.608-.628.658-1.121.189-.467-.444-.914-.91-1.373-1.363-.271-.267-.454-.566-.139-.9.347-.365.664-.167.945.126S-102.649,2703.695-102.286,2704.077Z" transform="translate(108.221 -2690.54)" fill="#12263f"/>
                        <path id="Trazado_118090" data-name="Trazado 118090" d="M-61.309,2762.078c-.784,0-1.567,0-2.351,0-.4,0-.746-.167-.66-.582a.874.874,0,0,1,.659-.5c1.566-.044,3.134-.022,4.7-.024.4,0,.746.167.661.581a.889.889,0,0,1-.661.5C-59.739,2762.119-60.526,2762.078-61.309,2762.078Z" transform="translate(73.798 -2742.089)" fill="#12263f"/>
                        <path id="Trazado_118091" data-name="Trazado 118091" d="M-62.293,2809.8a9.184,9.184,0,0,1-1.515-.024c-.245-.041-.446-.341-.666-.523.217-.186.425-.521.652-.533a28.022,28.022,0,0,1,3.1,0c.23.013.443.34.664.523-.217.186-.414.5-.655.533A10.191,10.191,0,0,1-62.293,2809.8Z" transform="translate(73.919 -2783.155)" fill="#12263f"/>
                      </g>
                    </g>
                  </g>
                </g>
              </g>
            </g>
          </g>
        </g>
      </g>
    </g>
  </g>
</svg>
