<svg xmlns="http://www.w3.org/2000/svg" width="57" height="58" viewBox="0 0 57 58">
  <g id="Grupo_1078011" data-name="Grupo 1078011" transform="translate(-928.675 -1989.901)">
    <g id="Grupo_1078010" data-name="Grupo 1078010">
      <g id="Grupo_1078009" data-name="Grupo 1078009">
        <g id="Grupo_1078008" data-name="Grupo 1078008">
          <g id="Grupo_1078007" data-name="Grupo 1078007">
            <g id="Grupo_1078006" data-name="Grupo 1078006">
              <g id="Grupo_1078005" data-name="Grupo 1078005">
                <g id="Grupo_1076292" data-name="Grupo 1076292" transform="translate(928.875 1990.364)">
                  <ellipse id="Elipse_4871" data-name="Elipse 4871" cx="28.5" cy="29" rx="28.5" ry="29" transform="translate(-0.199 -0.463)" fill="#2efec7"/>
                  <g id="bbmYRn" transform="translate(12.99 13.733)">
                    <g id="Grupo_142371" data-name="Grupo 142371" transform="translate(0 0)">
                      <path id="Trazado_183509" data-name="Trazado 183509" d="M3553.454-884.28h-1.347v-1.011q0-13.777,0-27.553c0-1.393.23-1.638,1.592-1.638q13.776-.006,27.553,0c1.331,0,1.6.2,1.6,1.289q.016,11.764,0,23.529c0,.168-.035.336-.062.573h-1.2v-1.224c0-5.848-.016-11.7.018-17.543.005-.858-.253-1.116-1.107-1.114q-13,.039-26.005,0c-.9,0-1.068.324-1.065,1.139.027,7.43.016,14.86.016,22.29Zm28.049-28.8h-27.96v2.856h25.642C3581.852-910.223,3581.852-910.223,3581.5-913.08Z" transform="translate(-3552.107 914.486)" fill="#12263f"/>
                      <path id="Trazado_183510" data-name="Trazado 183510" d="M3611.518-857.9l.826.746c.9-1.1,1.559-.522,2.274.236q1.734,1.839,3.575,3.575c.726.685.713,1.246-.028,1.876a11.6,11.6,0,0,0-1.095,1.093c-.661.735-1.257.646-1.913-.035q-1.826-1.894-3.72-3.722c-.682-.654-.954-1.268.06-2.121l-1.012-.748a8.783,8.783,0,0,1-12.44-1.812,8.645,8.645,0,0,1,1.066-11.284,8.655,8.655,0,0,1,11.406-.464C3614.263-867.548,3614.638-863.136,3611.518-857.9Zm-6.4-13.261a7.314,7.314,0,0,0-7.363,7.3,7.372,7.372,0,0,0,7.332,7.357,7.441,7.441,0,0,0,7.341-7.274A7.38,7.38,0,0,0,3605.114-871.162Zm11.121,19.737.783-.819-3.634-3.8-.97.788Z" transform="translate(-3587.283 881.152)" fill="#12263f"/>
                      <path id="Trazado_183511" data-name="Trazado 183511" d="M3571.694-878.9v6h2.809v1.323h-4.15v-8.659h22.742c0,1.269.049,2.566-.047,3.852-.017.221-.655.4-1.247.726V-878.9Z" transform="translate(-3566.587 887.308)" fill="#12263f"/>
                      <path id="Trazado_183512" data-name="Trazado 183512" d="M3570.5-828.42h4.15v1.3h-2.831v3.775h4.866l.06,1.29H3570.5Z" transform="translate(-3566.705 846.184)" fill="#12263f"/>
                      <path id="Trazado_183513" data-name="Trazado 183513" d="M3570.291-903.342V-904.5h1.7v1.159Z" transform="translate(-3566.538 906.562)" fill="#12263f"/>
                      <path id="Trazado_183514" data-name="Trazado 183514" d="M3587.1-904.4v1.128l-1.661.1V-904.4Z" transform="translate(-3578.561 906.485)" fill="#12263f"/>
                      <path id="Trazado_183515" data-name="Trazado 183515" d="M3600.427-903.3v-1.134h1.676c.02.336.041.692.068,1.134Z" transform="translate(-3590.453 906.511)" fill="#12263f"/>
                      <path id="Trazado_183516" data-name="Trazado 183516" d="M3624.574-838.529l-2.407-2.361.907-.876,1.573,1.5,3.207-3.316.965,1.083Z" transform="translate(-3607.707 858.215)" fill="#12263f"/>
                    </g>
                  </g>
                </g>
              </g>
            </g>
          </g>
        </g>
      </g>
    </g>
  </g>
</svg>
