<svg xmlns="http://www.w3.org/2000/svg" width="57" height="58" viewBox="0 0 57 58">
  <g id="Grupo_1078016" data-name="Grupo 1078016" transform="translate(-1086.675 -1989.901)">
    <g id="Grupo_1078015" data-name="Grupo 1078015">
      <g id="Grupo_1078014" data-name="Grupo 1078014">
        <g id="Grupo_1078013" data-name="Grupo 1078013">
          <g id="Grupo_1078012" data-name="Grupo 1078012">
            <g id="Grupo_1076293" data-name="Grupo 1076293" transform="translate(1086.484 1990.364)">
              <ellipse id="Elipse_4871" data-name="Elipse 4871" cx="28.5" cy="29" rx="28.5" ry="29" transform="translate(0.191 -0.463)" fill="#2efec7"/>
              <g id="Grupo_28520" data-name="Grupo 28520" transform="translate(14.331 12.581)">
                <path id="Trazado_67883" data-name="Trazado 67883" d="M226.969,210.488a3.465,3.465,0,1,1,3.466-3.466A3.469,3.469,0,0,1,226.969,210.488Zm0-6.006a2.54,2.54,0,1,0,2.54,2.54A2.543,2.543,0,0,0,226.969,204.482Z" transform="translate(-216.813 -199.421)" fill="#12263f"/>
                <path id="Trazado_67884" data-name="Trazado 67884" d="M226.969,244.746a3.466,3.466,0,1,1,3.466-3.466A3.469,3.469,0,0,1,226.969,244.746Zm0-6.006a2.54,2.54,0,1,0,2.54,2.54A2.543,2.543,0,0,0,226.969,238.74Z" transform="translate(-216.813 -224.041)" fill="#12263f"/>
                <path id="Trazado_67885" data-name="Trazado 67885" d="M226.969,279a3.465,3.465,0,1,1,3.466-3.466A3.469,3.469,0,0,1,226.969,279Zm0-6.006a2.54,2.54,0,1,0,2.54,2.54A2.543,2.543,0,0,0,226.969,273Z" transform="translate(-216.813 -248.662)" fill="#12263f"/>
                <path id="Trazado_67886" data-name="Trazado 67886" d="M204.018,198.282h-3.035a1.262,1.262,0,1,1,0-2.524h3.035a1.262,1.262,0,1,1,0,2.524Zm-3.035-1.6a.337.337,0,1,0,0,.674h3.035a.337.337,0,1,0,0-.674Z" transform="translate(-199.72 -193.816)" fill="#12263f"/>
                <path id="Trazado_67887" data-name="Trazado 67887" d="M204.018,218.238h-3.035a1.262,1.262,0,0,1,0-2.525h3.035a1.262,1.262,0,0,1,0,2.525Zm-3.035-1.6a.337.337,0,1,0,0,.674h3.035a.337.337,0,0,0,0-.674Z" transform="translate(-199.72 -208.157)" fill="#12263f"/>
                <path id="Trazado_67888" data-name="Trazado 67888" d="M204.018,238.193h-3.035a1.262,1.262,0,0,1,0-2.525h3.035a1.262,1.262,0,0,1,0,2.525Zm-3.035-1.6a.337.337,0,0,0,0,.674h3.035a.337.337,0,0,0,0-.674Z" transform="translate(-199.72 -222.498)" fill="#12263f"/>
                <path id="Trazado_67889" data-name="Trazado 67889" d="M204.018,258.149h-3.035a1.262,1.262,0,1,1,0-2.525h3.035a1.262,1.262,0,0,1,0,2.525Zm-3.035-1.6a.337.337,0,0,0,0,.674h3.035a.337.337,0,0,0,0-.674Z" transform="translate(-199.72 -236.84)" fill="#12263f"/>
                <path id="Trazado_67890" data-name="Trazado 67890" d="M204.018,278.1h-3.035a1.262,1.262,0,0,1,0-2.525h3.035a1.262,1.262,0,0,1,0,2.525Zm-3.035-1.6a.337.337,0,1,0,0,.674h3.035a.337.337,0,0,0,0-.674Z" transform="translate(-199.72 -251.182)" fill="#12263f"/>
                <path id="Trazado_67891" data-name="Trazado 67891" d="M204.018,298.06h-3.035a1.262,1.262,0,1,1,0-2.524h3.035a1.262,1.262,0,1,1,0,2.524Zm-3.035-1.6a.337.337,0,1,0,0,.674h3.035a.337.337,0,0,0,0-.674Z" transform="translate(-199.72 -265.524)" fill="#12263f"/>
                <path id="Trazado_67892" data-name="Trazado 67892" d="M233.973,223.334H209.965a1.081,1.081,0,0,1-1.079-1.079v-1.326a.463.463,0,0,1,.462-.462h1.257a.337.337,0,0,0,.336-.356.372.372,0,0,0-.382-.318h-1.211a.462.462,0,0,1-.462-.463v-4.014a.463.463,0,0,1,.462-.463h1.257a.336.336,0,0,0,.336-.356.372.372,0,0,0-.382-.318h-1.211a.463.463,0,0,1-.462-.463V209.7a.462.462,0,0,1,.462-.462h1.257a.337.337,0,0,0,.336-.356.372.372,0,0,0-.382-.318h-1.211a.463.463,0,0,1-.462-.463v-4.014a.462.462,0,0,1,.462-.463h1.257a.337.337,0,0,0,.336-.356.372.372,0,0,0-.382-.319h-1.211a.463.463,0,0,1-.462-.462v-4.015a.463.463,0,0,1,.462-.463h1.257a.337.337,0,0,0,.336-.356.372.372,0,0,0-.382-.318h-1.211a.463.463,0,0,1-.462-.463v-4.015a.463.463,0,0,1,.462-.463h1.257a.336.336,0,0,0,.336-.356.372.372,0,0,0-.382-.318h-1.211a.463.463,0,0,1-.462-.463v-1.325a1.08,1.08,0,0,1,1.079-1.079h24.008a1.08,1.08,0,0,1,1.079,1.079v32.32A1.081,1.081,0,0,1,233.973,223.334Zm-24.162-1.942v.863a.154.154,0,0,0,.154.154h24.008a.154.154,0,0,0,.154-.154v-32.32a.154.154,0,0,0-.154-.154H209.965a.154.154,0,0,0-.154.154v.863h.749a1.286,1.286,0,0,1,1.306,1.2,1.252,1.252,0,0,1-.345.936,1.268,1.268,0,0,1-.916.394h-.794v3.09h.749a1.286,1.286,0,0,1,1.306,1.2,1.252,1.252,0,0,1-.345.936,1.267,1.267,0,0,1-.916.394h-.794v3.089h.749a1.286,1.286,0,0,1,1.306,1.2,1.251,1.251,0,0,1-.345.936,1.266,1.266,0,0,1-.916.394h-.794v3.09h.749a1.286,1.286,0,0,1,1.306,1.2,1.251,1.251,0,0,1-.345.936,1.266,1.266,0,0,1-.916.394h-.794v3.089h.749a1.286,1.286,0,0,1,1.306,1.2,1.251,1.251,0,0,1-.345.936,1.266,1.266,0,0,1-.916.394h-.794v3.09h.749a1.286,1.286,0,0,1,1.306,1.195,1.252,1.252,0,0,1-.345.936,1.267,1.267,0,0,1-.916.394Z" transform="translate(-206.307 -188.855)" fill="#12263f"/>
                <path id="Trazado_67893" data-name="Trazado 67893" d="M234.64,229.462a.462.462,0,0,1-.462-.463v-3.632a.463.463,0,1,1,.925,0V229A.463.463,0,0,1,234.64,229.462Z" transform="translate(-224.484 -214.763)" fill="#12263f"/>
                <path id="Trazado_67894" data-name="Trazado 67894" d="M234.64,263.72a.462.462,0,0,1-.462-.462v-3.632a.463.463,0,1,1,.925,0v3.632A.463.463,0,0,1,234.64,263.72Z" transform="translate(-224.484 -239.384)" fill="#12263f"/>
                <path id="Trazado_67895" data-name="Trazado 67895" d="M254.36,207.856h-1.388a.463.463,0,0,1,0-.925h1.388a.463.463,0,0,1,0,.925Z" transform="translate(-237.659 -201.846)" fill="#12263f"/>
                <path id="Trazado_67896" data-name="Trazado 67896" d="M270.143,207.856h-2.687a.463.463,0,0,1,0-.925h2.687a.463.463,0,0,1,0,.925Z" transform="translate(-248.068 -201.846)" fill="#12263f"/>
                <path id="Trazado_67897" data-name="Trazado 67897" d="M287.946,207.856h-1.388a.463.463,0,0,1,0-.925h1.388a.463.463,0,0,1,0,.925Z" transform="translate(-261.796 -201.846)" fill="#12263f"/>
                <path id="Trazado_67898" data-name="Trazado 67898" d="M263.809,222.456H252.973a.462.462,0,1,1,0-.925h10.836a.462.462,0,0,1,0,.925Z" transform="translate(-237.659 -212.338)" fill="#12263f"/>
                <path id="Trazado_67899" data-name="Trazado 67899" d="M263.809,242.114H252.973a.463.463,0,0,1,0-.925h10.836a.463.463,0,0,1,0,.925Z" transform="translate(-237.659 -226.466)" fill="#12263f"/>
                <path id="Trazado_67900" data-name="Trazado 67900" d="M263.809,256.714H252.973a.463.463,0,0,1,0-.925h10.836a.463.463,0,0,1,0,.925Z" transform="translate(-237.659 -236.959)" fill="#12263f"/>
                <path id="Trazado_67901" data-name="Trazado 67901" d="M263.809,276.373H252.973a.463.463,0,0,1,0-.925h10.836a.463.463,0,0,1,0,.925Z" transform="translate(-237.659 -251.087)" fill="#12263f"/>
                <path id="Trazado_67902" data-name="Trazado 67902" d="M263.809,290.972H252.973a.463.463,0,0,1,0-.925h10.836a.463.463,0,0,1,0,.925Z" transform="translate(-237.659 -261.579)" fill="#12263f"/>
              </g>
            </g>
          </g>
        </g>
      </g>
    </g>
  </g>
</svg>
