<svg xmlns="http://www.w3.org/2000/svg" xmlns:xlink="http://www.w3.org/1999/xlink" width="56" height="58" viewBox="0 0 56 58">
  <defs>
    <clipPath id="clip-path">
      <rect id="Rectángulo_37044" data-name="Rectángulo 37044" width="35.594" height="39.208" fill="#12263f"/>
    </clipPath>
  </defs>
  <g id="Grupo_1077992" data-name="Grupo 1077992" transform="translate(-452.675 -1989.901)">
    <g id="Grupo_1077991" data-name="Grupo 1077991">
      <g id="Grupo_1077990" data-name="Grupo 1077990">
        <g id="Grupo_1077989" data-name="Grupo 1077989">
          <g id="Grupo_1077988" data-name="Grupo 1077988">
            <g id="Grupo_1077987" data-name="Grupo 1077987">
              <g id="Grupo_1077986" data-name="Grupo 1077986">
                <g id="Grupo_1077985" data-name="Grupo 1077985">
                  <g id="Grupo_1076288" data-name="Grupo 1076288" transform="translate(452.225 1990.364)">
                    <ellipse id="Elipse_4868" data-name="Elipse 4868" cx="28" cy="29" rx="28" ry="29" transform="translate(0.451 -0.463)" fill="#2efec7"/>
                    <g id="Grupo_142365" data-name="Grupo 142365" transform="translate(10.388 8.993)">
                      <g id="Grupo_141597" data-name="Grupo 141597" transform="translate(0 0)" clip-path="url(#clip-path)">
                        <path id="Trazado_183339" data-name="Trazado 183339" d="M127.043,52.247a3.25,3.25,0,1,1,3.25-3.25,3.254,3.254,0,0,1-3.25,3.25m0-5.261a2.01,2.01,0,1,0,2.01,2.01,2.013,2.013,0,0,0-2.01-2.01" transform="translate(-109.173 -40.344)" fill="#12263f"/>
                        <path id="Trazado_183340" data-name="Trazado 183340" d="M119.659,206.479a2,2,0,0,1-.323-.026,2.024,2.024,0,0,1-1.642-2.014V190.29a.62.62,0,0,1,1.24,0v14.149a.786.786,0,0,0,.6.79.729.729,0,0,0,.855-.718V194.265a1.264,1.264,0,1,1,2.527,0v10.174a.786.786,0,0,0,.6.79.729.729,0,0,0,.855-.718v-1.132a.62.62,0,0,1,1.24,0v1.132a1.969,1.969,0,0,1-2.294,1.942,2.024,2.024,0,0,1-1.642-2.014V194.265c0-.026-.047-.026-.047,0v10.246a1.967,1.967,0,0,1-1.971,1.968" transform="translate(-103.795 -167.271)" fill="#12263f"/>
                        <path id="Trazado_183341" data-name="Trazado 183341" d="M174.871,214.9a.62.62,0,0,1-.62-.62v-11.63a.62.62,0,1,1,1.24,0v11.63a.62.62,0,0,1-.62.62" transform="translate(-153.673 -178.168)" fill="#12263f"/>
                        <path id="Trazado_183342" data-name="Trazado 183342" d="M103.568,186.137a1.676,1.676,0,0,1-1.674-1.675v-3.837a.62.62,0,0,1,1.24,0v3.837a.435.435,0,0,0,.434.435.429.429,0,0,0,.2-.049.62.62,0,0,1,.577,1.1,1.68,1.68,0,0,1-.778.191" transform="translate(-89.861 -158.748)" fill="#12263f"/>
                        <path id="Trazado_183343" data-name="Trazado 183343" d="M113.321,105.507a.618.618,0,0,1-.435-.178,6.429,6.429,0,0,0-4.537-1.861h-.184a6.429,6.429,0,0,0-4.537,1.861.62.62,0,0,1-.87-.883,7.661,7.661,0,0,1,5.407-2.218h.184a7.661,7.661,0,0,1,5.407,2.218.62.62,0,0,1-.435,1.062" transform="translate(-90.46 -90.155)" fill="#12263f"/>
                        <path id="Trazado_183344" data-name="Trazado 183344" d="M177.042,217.849a1.68,1.68,0,0,1-.778-.191.62.62,0,0,1,.577-1.1.428.428,0,0,0,.2.049.435.435,0,0,0,.4-.266.62.62,0,0,1,1.142.483,1.672,1.672,0,0,1-1.543,1.023" transform="translate(-155.155 -190.46)" fill="#12263f"/>
                        <path id="Trazado_183345" data-name="Trazado 183345" d="M245.368,62.495a.62.62,0,1,1,0-1.24,1.61,1.61,0,1,0-.3-3.193.62.62,0,0,1-.231-1.218,2.851,2.851,0,1,1,.533,5.651" transform="translate(-215.476 -50.087)" fill="#12263f"/>
                        <path id="Trazado_183346" data-name="Trazado 183346" d="M221.554,271.308q-.094,0-.188-.009a2.015,2.015,0,0,1-1.777-2.017V263.8a.62.62,0,0,1,1.24,0v5.482a.766.766,0,0,0,.654.782.728.728,0,0,0,.8-.724v-5.192a.62.62,0,0,1,1.24,0v5.192a1.968,1.968,0,0,1-1.972,1.968" transform="translate(-193.657 -232.1)" fill="#12263f"/>
                        <path id="Trazado_183347" data-name="Trazado 183347" d="M255.281,239.8c-.062,0-.125,0-.188-.009a2.015,2.015,0,0,1-1.777-2.017v-8.237a.62.62,0,1,1,1.24,0v8.237a.766.766,0,0,0,.654.782.728.728,0,0,0,.8-.725v-9.758a.62.62,0,1,1,1.24,0v9.758a1.968,1.968,0,0,1-1.972,1.968" transform="translate(-223.401 -200.597)" fill="#12263f"/>
                        <path id="Trazado_183348" data-name="Trazado 183348" d="M276.767,159.056a.62.62,0,0,1-.62-.62V149.11a.62.62,0,1,1,1.24,0v9.326a.62.62,0,0,1-.62.62" transform="translate(-243.535 -130.954)" fill="#12263f"/>
                        <path id="Trazado_183349" data-name="Trazado 183349" d="M282.929,223.578a.62.62,0,0,1-.62-.62v-.916a.62.62,0,0,1,1.24,0v.916a.62.62,0,0,1-.62.62" transform="translate(-248.969 -195.273)" fill="#12263f"/>
                        <path id="Trazado_183350" data-name="Trazado 183350" d="M251.473,119.713a1.679,1.679,0,0,1-.778-.191.62.62,0,0,1,.577-1.1.428.428,0,0,0,.2.049.435.435,0,0,0,.434-.435V109.08a2.261,2.261,0,0,0-.665-1.6,5.358,5.358,0,0,0-3.781-1.551h-.156a.62.62,0,0,1,0-1.24h.156a6.59,6.59,0,0,1,4.651,1.907,3.508,3.508,0,0,1,1.035,2.486v8.958a1.676,1.676,0,0,1-1.674,1.675" transform="translate(-217.553 -92.324)" fill="#12263f"/>
                        <path id="Trazado_183351" data-name="Trazado 183351" d="M79.138,223.578a.62.62,0,0,1-.62-.62v-.916a.62.62,0,0,1,1.24,0v.916a.62.62,0,0,1-.62.62" transform="translate(-69.245 -195.273)" fill="#12263f"/>
                        <path id="Trazado_183352" data-name="Trazado 183352" d="M72.575,238.479H70.546a.62.62,0,0,1-.62-.62v-6.716a.62.62,0,0,1,.62-.62h2.029a.62.62,0,0,1,.62.62v6.716a.62.62,0,0,1-.62.62m-1.409-1.24h.789v-5.476h-.789Z" transform="translate(-61.668 -203.299)" fill="#12263f"/>
                        <path id="Trazado_183353" data-name="Trazado 183353" d="M27.9,62.491h-.039a2.85,2.85,0,0,1,.177-5.7.62.62,0,0,1,0,1.24,1.61,1.61,0,0,0-.1,3.218.62.62,0,0,1-.037,1.239" transform="translate(-22.216 -50.087)" fill="#12263f"/>
                        <path id="Trazado_183354" data-name="Trazado 183354" d="M21.747,170.162a1.963,1.963,0,0,1-1.965-2.04V157.948c0-.026-.047-.026-.047,0v10.246a1.969,1.969,0,0,1-2.294,1.942,2.024,2.024,0,0,1-1.642-2.014V149.11a.62.62,0,1,1,1.24,0v19.012a.786.786,0,0,0,.6.79.729.729,0,0,0,.855-.718V157.948a1.263,1.263,0,1,1,2.527,0v10.174a.786.786,0,0,0,.6.79.729.729,0,0,0,.855-.718v-1.228a.62.62,0,0,1,1.24,0v1.228a1.967,1.967,0,0,1-1.971,1.968" transform="translate(-13.933 -130.954)" fill="#12263f"/>
                        <path id="Trazado_183355" data-name="Trazado 183355" d="M72.975,167.407a.62.62,0,0,1-.62-.62v-8.438a.62.62,0,0,1,1.24,0v8.438a.62.62,0,0,1-.62.62" transform="translate(-63.81 -139.102)" fill="#12263f"/>
                        <path id="Trazado_183356" data-name="Trazado 183356" d="M1.674,119.713A1.676,1.676,0,0,1,0,118.038V109.08a3.507,3.507,0,0,1,1.035-2.486,6.59,6.59,0,0,1,4.651-1.907.62.62,0,0,1,0,1.24,5.357,5.357,0,0,0-3.781,1.551,2.26,2.26,0,0,0-.665,1.6v8.958a.435.435,0,0,0,.434.435.428.428,0,0,0,.2-.049.62.62,0,1,1,.577,1.1,1.679,1.679,0,0,1-.778.191" transform="translate(0 -92.324)" fill="#12263f"/>
                        <path id="Trazado_183357" data-name="Trazado 183357" d="M75.147,178.768a1.68,1.68,0,0,1-.778-.191.62.62,0,0,1,.577-1.1.428.428,0,0,0,.2.049.435.435,0,0,0,.435-.435V172.27a.62.62,0,1,1,1.24,0v4.823a1.677,1.677,0,0,1-1.675,1.675" transform="translate(-65.294 -151.379)" fill="#12263f"/>
                        <path id="Trazado_183358" data-name="Trazado 183358" d="M182,168.273a2.746,2.746,0,0,1-.659-.08,2.711,2.711,0,0,1-1.683-1.237l-5.136-8.489a.62.62,0,0,1,1.061-.642l5.135,8.489a1.489,1.489,0,0,0,2.044.5l.011-.006a1.489,1.489,0,0,0,.5-2.04l-5.067-8.377a.62.62,0,1,1,1.061-.642l5.067,8.376a2.729,2.729,0,0,1-.922,3.747l-.011.006a2.7,2.7,0,0,1-1.4.391" transform="translate(-153.832 -137.095)" fill="#12263f"/>
                        <path id="Trazado_183359" data-name="Trazado 183359" d="M66.78,22.16a11.146,11.146,0,0,1-2.667-.325A11.075,11.075,0,0,1,61.028,1.6,11.076,11.076,0,0,1,77.515,13.728,11.089,11.089,0,0,1,66.78,22.16M66.744,1.241a9.838,9.838,0,0,0-8.4,14.93A9.835,9.835,0,1,0,75.176,5.989a9.77,9.77,0,0,0-6.064-4.46,9.9,9.9,0,0,0-2.368-.289m.032,18.628a8.845,8.845,0,0,1-2.115-.258A8.784,8.784,0,0,1,62.214,3.564,8.784,8.784,0,1,1,71.307,18.6a8.725,8.725,0,0,1-4.531,1.273M66.748,3.532a7.547,7.547,0,0,0-1.79,14.875,7.491,7.491,0,0,0,5.708-.871h0a7.545,7.545,0,0,0-2.1-13.781,7.6,7.6,0,0,0-1.817-.222" transform="translate(-49.105 0)" fill="#12263f"/>
                        <path id="Trazado_183360" data-name="Trazado 183360" d="M222.724,153.084a.62.62,0,0,1-.62-.62V151.27a.62.62,0,1,1,1.24,0v1.194a.62.62,0,0,1-.62.62" transform="translate(-195.874 -132.859)" fill="#12263f"/>
                      </g>
                    </g>
                  </g>
                </g>
              </g>
            </g>
          </g>
        </g>
      </g>
    </g>
  </g>
</svg>
