<svg xmlns="http://www.w3.org/2000/svg" xmlns:xlink="http://www.w3.org/1999/xlink" width="484.015" height="218.159" viewBox="0 0 484.015 218.159">
  <defs>
    <linearGradient id="linear-gradient" y1="0.5" x2="1" y2="0.5" gradientUnits="objectBoundingBox">
      <stop offset="0" stop-color="#fff"/>
      <stop offset="1" stop-color="#c7e0ea"/>
    </linearGradient>
    <linearGradient id="linear-gradient-3" y1="0.5" x2="1" y2="0.5" gradientUnits="objectBoundingBox">
      <stop offset="0" stop-color="#fff"/>
      <stop offset="1" stop-color="#d2e6ee"/>
    </linearGradient>
  </defs>
  <g id="Grupo_1076451" data-name="Grupo 1076451" transform="translate(-869.006 -8682)">
    <g id="Grupo_41977" data-name="Grupo 41977" transform="translate(869.492 8762.002)">
      <g id="Grupo_55332" data-name="Grupo 55332" transform="translate(5.437)">
        <path id="Trazado_119461" data-name="Trazado 119461" d="M275.1,527.974l14.466,8.365V488.6L275.1,480.231Z" transform="translate(-275.097 -460.302)" fill="#001a2e"/>
        <path id="Trazado_119462" data-name="Trazado 119462" d="M277.155,484.877l10.958,6.372V494l-10.958-6.372Zm0,6.816,10.958,6.371v-2.748l-10.958-6.372Zm0,4.068,10.958,6.372v-2.748l-10.958-6.372Zm0,4.069,10.958,6.372v-2.748l-10.958-6.372Zm0,27.921,10.958,6.372v-2.748L277.155,525Z" transform="translate(-275.713 -461.692)" fill="url(#linear-gradient)"/>
        <path id="Trazado_119463" data-name="Trazado 119463" d="M330.1,463.733l-34.36,19.837V531.4l34.36-19.837Z" transform="translate(-281.27 -455.368)" fill="#104769"/>
        <path id="Trazado_119464" data-name="Trazado 119464" d="M275.1,471.728l34.36-19.929,14.466,8.365L289.563,480Z" transform="translate(-275.097 -451.799)" fill="#e2f0f4"/>
      </g>
      <g id="Grupo_55333" data-name="Grupo 55333" transform="translate(23.841 29.234)">
        <path id="Trazado_119465" data-name="Trazado 119465" d="M301.353,540.274l38.691,22.719V520.674l-38.691-22.719Z" transform="translate(-301.353 -494.837)" fill="#e2f0f4"/>
        <path id="Trazado_119466" data-name="Trazado 119466" d="M303.176,502.072l35.582,20.952V559.21l-35.582-20.952Z" transform="translate(-301.898 -496.068)" fill="#001a2e"/>
        <path id="Trazado_119467" data-name="Trazado 119467" d="M361.133,525.919l-4.58,3.037v42.4l4.58-3.037Z" transform="translate(-317.862 -503.2)" fill="#001a2e"/>
        <path id="Trazado_119468" data-name="Trazado 119468" d="M301.353,496.624l4.58-3.118,38.691,22.719-4.58,3.037Z" transform="translate(-301.353 -493.506)" fill="#104769"/>
      </g>
      <g id="Grupo_55335" data-name="Grupo 55335" transform="translate(0 77.54)">
        <path id="Trazado_119469" data-name="Trazado 119469" d="M267.34,575.57l18.03-13.145,38.691,22.719-18.03,13.064Z" transform="translate(-267.34 -562.425)" fill="#104769"/>
        <g id="Grupo_55334" data-name="Grupo 55334" transform="translate(3.524 2.901)">
          <path id="Trazado_119470" data-name="Trazado 119470" d="M294.872,570.225l19.893,11.694,1.641-1.156L296.5,569.085Z" transform="translate(-279.099 -567.318)" fill="#e2f0f4"/>
          <path id="Trazado_119471" data-name="Trazado 119471" d="M312.276,583.862l1.01-.712L293.36,571.477l-.983.689Z" transform="translate(-278.352 -568.033)" fill="#e2f0f4"/>
          <path id="Trazado_119472" data-name="Trazado 119472" d="M313.636,602.735l-2-1.171-1.447,1.014,2.006,1.172Z" transform="translate(-283.68 -577.031)" fill="#e2f0f4"/>
          <path id="Trazado_119473" data-name="Trazado 119473" d="M329.924,588.7l-1.65,1.155,1.957,1.15,1.646-1.16Z" transform="translate(-289.088 -573.183)" fill="#e2f0f4"/>
          <path id="Trazado_119474" data-name="Trazado 119474" d="M324.372,587.559l1.954,1.149,1.643-1.158-1.95-1.144Z" transform="translate(-287.921 -572.498)" fill="#e2f0f4"/>
          <path id="Trazado_119475" data-name="Trazado 119475" d="M326.8,591.075l-1.019.713,1.963,1.154,1.018-.718Z" transform="translate(-288.342 -573.895)" fill="#e2f0f4"/>
          <path id="Trazado_119476" data-name="Trazado 119476" d="M296.688,594.68l1.447-1.02-19.962-11.7L276.7,583Z" transform="translate(-273.662 -571.17)" fill="#e2f0f4"/>
          <path id="Trazado_119477" data-name="Trazado 119477" d="M299.827,592.62l1.01-.712L280.88,580.217l-.983.688Z" transform="translate(-274.62 -570.647)" fill="#e2f0f4"/>
          <path id="Trazado_119478" data-name="Trazado 119478" d="M307.3,587.365l1.01-.712-19.938-11.681-.983.688Z" transform="translate(-276.859 -569.078)" fill="#e2f0f4"/>
          <path id="Trazado_119479" data-name="Trazado 119479" d="M309.724,600.443l-2-1.169-1.451,1.016,2,1.17Z" transform="translate(-282.509 -576.346)" fill="#e2f0f4"/>
          <path id="Trazado_119480" data-name="Trazado 119480" d="M304.806,589.117l1.01-.712-19.944-11.685-.983.688Z" transform="translate(-276.113 -569.601)" fill="#e2f0f4"/>
          <path id="Trazado_119481" data-name="Trazado 119481" d="M302.316,590.869l1.01-.712-19.95-11.688-.983.688Z" transform="translate(-275.366 -570.124)" fill="#e2f0f4"/>
          <path id="Trazado_119482" data-name="Trazado 119482" d="M309.786,585.614l1.01-.712-19.932-11.677-.983.688Z" transform="translate(-277.606 -568.556)" fill="#e2f0f4"/>
          <path id="Trazado_119483" data-name="Trazado 119483" d="M318.856,594.152l1.014-.715-1.972-1.155-1.014.711Z" transform="translate(-285.682 -574.255)" fill="#e2f0f4"/>
          <path id="Trazado_119484" data-name="Trazado 119484" d="M316.366,595.9l1.014-.715L315.4,594.03l-1.014.71Z" transform="translate(-284.935 -574.778)" fill="#e2f0f4"/>
          <path id="Trazado_119485" data-name="Trazado 119485" d="M324.3,592.823l-1.019.714,1.969,1.157,1.018-.718Z" transform="translate(-287.595 -574.417)" fill="#e2f0f4"/>
          <path id="Trazado_119486" data-name="Trazado 119486" d="M321.346,592.4l1.014-.715-1.966-1.152-1.015.711Z" transform="translate(-286.428 -573.732)" fill="#e2f0f4"/>
          <path id="Trazado_119487" data-name="Trazado 119487" d="M322.891,588.785l-1.015.711,1.96,1.152,1.014-.715Z" transform="translate(-287.175 -573.21)" fill="#e2f0f4"/>
          <path id="Trazado_119488" data-name="Trazado 119488" d="M313.877,597.655l1.014-.715-1.984-1.162-1.014.71Z" transform="translate(-284.189 -575.301)" fill="#e2f0f4"/>
          <path id="Trazado_119489" data-name="Trazado 119489" d="M321.805,594.572l-1.019.714,1.975,1.161,1.018-.718Z" transform="translate(-286.849 -574.94)" fill="#e2f0f4"/>
          <path id="Trazado_119490" data-name="Trazado 119490" d="M311.387,599.406l1.014-.715-1.99-1.166-1.014.71Z" transform="translate(-283.442 -575.824)" fill="#e2f0f4"/>
          <path id="Trazado_119491" data-name="Trazado 119491" d="M319.309,596.32l-1.019.713,1.981,1.164,1.018-.718Z" transform="translate(-286.102 -575.463)" fill="#e2f0f4"/>
          <path id="Trazado_119492" data-name="Trazado 119492" d="M316.813,598.068l-1.019.713,1.987,1.168,1.018-.718Z" transform="translate(-285.356 -575.986)" fill="#e2f0f4"/>
          <path id="Trazado_119493" data-name="Trazado 119493" d="M316.31,600.983l-1.992-1.167-1.018.713,1.993,1.171Z" transform="translate(-284.61 -576.509)" fill="#e2f0f4"/>
          <path id="Trazado_119494" data-name="Trazado 119494" d="M281.332,577.27l-2.269-1.329-.979.685,2.27,1.334Z" transform="translate(-274.077 -569.368)" fill="#e2f0f4"/>
          <path id="Trazado_119495" data-name="Trazado 119495" d="M318.018,607.152l2.622,1.532,1.445-1-2.626-1.539Z" transform="translate(-286.021 -578.401)" fill="#e2f0f4"/>
          <path id="Trazado_119496" data-name="Trazado 119496" d="M321.1,605.115l2.626,1.544,1.036-.719-2.636-1.544Z" transform="translate(-286.944 -577.878)" fill="#e2f0f4"/>
          <path id="Trazado_119497" data-name="Trazado 119497" d="M276.135,580.773l-2.284-1.338-1.483,1.036,2.294,1.34Z" transform="translate(-272.368 -570.413)" fill="#e2f0f4"/>
          <path id="Trazado_119498" data-name="Trazado 119498" d="M278.841,579.022l-2.277-1.334-.979.684,2.278,1.339Z" transform="translate(-273.33 -569.891)" fill="#e2f0f4"/>
          <path id="Trazado_119499" data-name="Trazado 119499" d="M323.6,603.366l2.636,1.549,1.036-.719-2.645-1.55Z" transform="translate(-287.69 -577.355)" fill="#e2f0f4"/>
          <path id="Trazado_119500" data-name="Trazado 119500" d="M328.592,599.871l2.655,1.56,1.037-.719-2.664-1.561Z" transform="translate(-289.183 -576.31)" fill="#e2f0f4"/>
          <path id="Trazado_119501" data-name="Trazado 119501" d="M326.1,601.619l2.645,1.555,1.037-.719-2.655-1.555Z" transform="translate(-288.437 -576.833)" fill="#e2f0f4"/>
          <path id="Trazado_119502" data-name="Trazado 119502" d="M333.583,596.374l2.674,1.572,1.037-.719-2.683-1.572Z" transform="translate(-290.676 -575.264)" fill="#e2f0f4"/>
          <path id="Trazado_119503" data-name="Trazado 119503" d="M336.079,594.439l2.683,1.577,1.667-1.156-2.695-1.581Z" transform="translate(-291.422 -574.554)" fill="#e2f0f4"/>
          <path id="Trazado_119504" data-name="Trazado 119504" d="M331.087,598.122l2.664,1.566,1.037-.719-2.674-1.566Z" transform="translate(-289.93 -575.787)" fill="#e2f0f4"/>
          <path id="Trazado_119505" data-name="Trazado 119505" d="M283.822,575.519l-2.261-1.325-.979.685,2.262,1.33Z" transform="translate(-274.825 -568.846)" fill="#e2f0f4"/>
          <path id="Trazado_119506" data-name="Trazado 119506" d="M328.208,595.113l-1.023.716,1.971,1.159,1.022-.721Z" transform="translate(-288.762 -575.102)" fill="#e2f0f4"/>
          <path id="Trazado_119507" data-name="Trazado 119507" d="M325.712,596.861l-1.023.716,1.977,1.162,1.022-.72Z" transform="translate(-288.016 -575.625)" fill="#e2f0f4"/>
          <path id="Trazado_119508" data-name="Trazado 119508" d="M323.216,598.609l-1.023.716,1.983,1.166,1.022-.72Z" transform="translate(-287.27 -576.148)" fill="#e2f0f4"/>
          <path id="Trazado_119509" data-name="Trazado 119509" d="M286.313,573.768l-2.253-1.32-.979.685,2.254,1.325Z" transform="translate(-275.572 -568.324)" fill="#e2f0f4"/>
          <path id="Trazado_119510" data-name="Trazado 119510" d="M318.224,602.106l-1.023.716,2,1.173,1.022-.72Z" transform="translate(-285.777 -577.193)" fill="#e2f0f4"/>
          <path id="Trazado_119511" data-name="Trazado 119511" d="M317.549,605.026l-2-1.172-1.444,1.011,2.008,1.173Z" transform="translate(-284.85 -577.716)" fill="#e2f0f4"/>
          <path id="Trazado_119512" data-name="Trazado 119512" d="M320.72,600.357l-1.023.716,1.989,1.169,1.022-.72Z" transform="translate(-286.523 -576.671)" fill="#e2f0f4"/>
          <path id="Trazado_119513" data-name="Trazado 119513" d="M288.8,572.017l-2.246-1.316-.979.685,2.247,1.321Z" transform="translate(-276.319 -567.801)" fill="#e2f0f4"/>
          <path id="Trazado_119514" data-name="Trazado 119514" d="M291.294,570.266l-2.238-1.311-.979.685,2.239,1.316Z" transform="translate(-277.066 -567.279)" fill="#e2f0f4"/>
          <path id="Trazado_119515" data-name="Trazado 119515" d="M330.7,593.365l-1.023.716,1.965,1.155,1.022-.721Z" transform="translate(-289.509 -574.579)" fill="#e2f0f4"/>
          <path id="Trazado_119516" data-name="Trazado 119516" d="M294.427,567.869l-2.226-1.306-1.626,1.136,2.231,1.311Z" transform="translate(-277.813 -566.564)" fill="#e2f0f4"/>
          <path id="Trazado_119517" data-name="Trazado 119517" d="M333.829,590.988l-1.652,1.157,1.959,1.152,1.649-1.162Z" transform="translate(-290.255 -573.869)" fill="#e2f0f4"/>
        </g>
      </g>
    </g>
    <g id="Grupo_55340" data-name="Grupo 55340" transform="translate(1281.181 8762.002)">
      <g id="Grupo_55332-2" data-name="Grupo 55332" transform="translate(5.437)">
        <path id="Trazado_119461-2" data-name="Trazado 119461" d="M275.1,527.974l14.466,8.365V488.6L275.1,480.231Z" transform="translate(-275.097 -460.302)" fill="#001a2e"/>
        <path id="Trazado_119462-2" data-name="Trazado 119462" d="M277.155,484.877l10.958,6.372V494l-10.958-6.372Zm0,6.816,10.958,6.371v-2.748l-10.958-6.372Zm0,4.068,10.958,6.372v-2.748l-10.958-6.372Zm0,4.069,10.958,6.372v-2.748l-10.958-6.372Zm0,27.921,10.958,6.372v-2.748L277.155,525Z" transform="translate(-275.713 -461.692)" fill="url(#linear-gradient)"/>
        <path id="Trazado_119463-2" data-name="Trazado 119463" d="M330.1,463.733l-34.36,19.837V531.4l34.36-19.837Z" transform="translate(-281.27 -455.368)" fill="#104769"/>
        <path id="Trazado_119464-2" data-name="Trazado 119464" d="M275.1,471.728l34.36-19.929,14.466,8.365L289.563,480Z" transform="translate(-275.097 -451.799)" fill="#e2f0f4"/>
      </g>
      <g id="Grupo_55333-2" data-name="Grupo 55333" transform="translate(23.841 29.234)">
        <path id="Trazado_119465-2" data-name="Trazado 119465" d="M301.353,540.274l38.691,22.719V520.674l-38.691-22.719Z" transform="translate(-301.353 -494.837)" fill="#e2f0f4"/>
        <path id="Trazado_119466-2" data-name="Trazado 119466" d="M303.176,502.072l35.582,20.952V559.21l-35.582-20.952Z" transform="translate(-301.898 -496.068)" fill="#001a2e"/>
        <path id="Trazado_119467-2" data-name="Trazado 119467" d="M361.133,525.919l-4.58,3.037v42.4l4.58-3.037Z" transform="translate(-317.862 -503.2)" fill="#001a2e"/>
        <path id="Trazado_119468-2" data-name="Trazado 119468" d="M301.353,496.624l4.58-3.118,38.691,22.719-4.58,3.037Z" transform="translate(-301.353 -493.506)" fill="#104769"/>
      </g>
      <g id="Grupo_55335-2" data-name="Grupo 55335" transform="translate(0 77.54)">
        <path id="Trazado_119469-2" data-name="Trazado 119469" d="M267.34,575.57l18.03-13.145,38.691,22.719-18.03,13.064Z" transform="translate(-267.34 -562.425)" fill="#104769"/>
        <g id="Grupo_55334-2" data-name="Grupo 55334" transform="translate(3.524 2.901)">
          <path id="Trazado_119470-2" data-name="Trazado 119470" d="M294.872,570.225l19.893,11.694,1.641-1.156L296.5,569.085Z" transform="translate(-279.099 -567.318)" fill="#e2f0f4"/>
          <path id="Trazado_119471-2" data-name="Trazado 119471" d="M312.276,583.862l1.01-.712L293.36,571.477l-.983.689Z" transform="translate(-278.352 -568.033)" fill="#e2f0f4"/>
          <path id="Trazado_119472-2" data-name="Trazado 119472" d="M313.636,602.735l-2-1.171-1.447,1.014,2.006,1.172Z" transform="translate(-283.68 -577.031)" fill="#e2f0f4"/>
          <path id="Trazado_119473-2" data-name="Trazado 119473" d="M329.924,588.7l-1.65,1.155,1.957,1.15,1.646-1.16Z" transform="translate(-289.088 -573.183)" fill="#e2f0f4"/>
          <path id="Trazado_119474-2" data-name="Trazado 119474" d="M324.372,587.559l1.954,1.149,1.643-1.158-1.95-1.144Z" transform="translate(-287.921 -572.498)" fill="#e2f0f4"/>
          <path id="Trazado_119475-2" data-name="Trazado 119475" d="M326.8,591.075l-1.019.713,1.963,1.154,1.018-.718Z" transform="translate(-288.342 -573.895)" fill="#e2f0f4"/>
          <path id="Trazado_119476-2" data-name="Trazado 119476" d="M296.688,594.68l1.447-1.02-19.962-11.7L276.7,583Z" transform="translate(-273.662 -571.17)" fill="#e2f0f4"/>
          <path id="Trazado_119477-2" data-name="Trazado 119477" d="M299.827,592.62l1.01-.712L280.88,580.217l-.983.688Z" transform="translate(-274.62 -570.647)" fill="#e2f0f4"/>
          <path id="Trazado_119478-2" data-name="Trazado 119478" d="M307.3,587.365l1.01-.712-19.938-11.681-.983.688Z" transform="translate(-276.859 -569.078)" fill="#e2f0f4"/>
          <path id="Trazado_119479-2" data-name="Trazado 119479" d="M309.724,600.443l-2-1.169-1.451,1.016,2,1.17Z" transform="translate(-282.509 -576.346)" fill="#e2f0f4"/>
          <path id="Trazado_119480-2" data-name="Trazado 119480" d="M304.806,589.117l1.01-.712-19.944-11.685-.983.688Z" transform="translate(-276.113 -569.601)" fill="#e2f0f4"/>
          <path id="Trazado_119481-2" data-name="Trazado 119481" d="M302.316,590.869l1.01-.712-19.95-11.688-.983.688Z" transform="translate(-275.366 -570.124)" fill="#e2f0f4"/>
          <path id="Trazado_119482-2" data-name="Trazado 119482" d="M309.786,585.614l1.01-.712-19.932-11.677-.983.688Z" transform="translate(-277.606 -568.556)" fill="#e2f0f4"/>
          <path id="Trazado_119483-2" data-name="Trazado 119483" d="M318.856,594.152l1.014-.715-1.972-1.155-1.014.711Z" transform="translate(-285.682 -574.255)" fill="#e2f0f4"/>
          <path id="Trazado_119484-2" data-name="Trazado 119484" d="M316.366,595.9l1.014-.715L315.4,594.03l-1.014.71Z" transform="translate(-284.935 -574.778)" fill="#e2f0f4"/>
          <path id="Trazado_119485-2" data-name="Trazado 119485" d="M324.3,592.823l-1.019.714,1.969,1.157,1.018-.718Z" transform="translate(-287.595 -574.417)" fill="#e2f0f4"/>
          <path id="Trazado_119486-2" data-name="Trazado 119486" d="M321.346,592.4l1.014-.715-1.966-1.152-1.015.711Z" transform="translate(-286.428 -573.732)" fill="#e2f0f4"/>
          <path id="Trazado_119487-2" data-name="Trazado 119487" d="M322.891,588.785l-1.015.711,1.96,1.152,1.014-.715Z" transform="translate(-287.175 -573.21)" fill="#e2f0f4"/>
          <path id="Trazado_119488-2" data-name="Trazado 119488" d="M313.877,597.655l1.014-.715-1.984-1.162-1.014.71Z" transform="translate(-284.189 -575.301)" fill="#e2f0f4"/>
          <path id="Trazado_119489-2" data-name="Trazado 119489" d="M321.805,594.572l-1.019.714,1.975,1.161,1.018-.718Z" transform="translate(-286.849 -574.94)" fill="#e2f0f4"/>
          <path id="Trazado_119490-2" data-name="Trazado 119490" d="M311.387,599.406l1.014-.715-1.99-1.166-1.014.71Z" transform="translate(-283.442 -575.824)" fill="#e2f0f4"/>
          <path id="Trazado_119491-2" data-name="Trazado 119491" d="M319.309,596.32l-1.019.713,1.981,1.164,1.018-.718Z" transform="translate(-286.102 -575.463)" fill="#e2f0f4"/>
          <path id="Trazado_119492-2" data-name="Trazado 119492" d="M316.813,598.068l-1.019.713,1.987,1.168,1.018-.718Z" transform="translate(-285.356 -575.986)" fill="#e2f0f4"/>
          <path id="Trazado_119493-2" data-name="Trazado 119493" d="M316.31,600.983l-1.992-1.167-1.018.713,1.993,1.171Z" transform="translate(-284.61 -576.509)" fill="#e2f0f4"/>
          <path id="Trazado_119494-2" data-name="Trazado 119494" d="M281.332,577.27l-2.269-1.329-.979.685,2.27,1.334Z" transform="translate(-274.077 -569.368)" fill="#e2f0f4"/>
          <path id="Trazado_119495-2" data-name="Trazado 119495" d="M318.018,607.152l2.622,1.532,1.445-1-2.626-1.539Z" transform="translate(-286.021 -578.401)" fill="#e2f0f4"/>
          <path id="Trazado_119496-2" data-name="Trazado 119496" d="M321.1,605.115l2.626,1.544,1.036-.719-2.636-1.544Z" transform="translate(-286.944 -577.878)" fill="#e2f0f4"/>
          <path id="Trazado_119497-2" data-name="Trazado 119497" d="M276.135,580.773l-2.284-1.338-1.483,1.036,2.294,1.34Z" transform="translate(-272.368 -570.413)" fill="#e2f0f4"/>
          <path id="Trazado_119498-2" data-name="Trazado 119498" d="M278.841,579.022l-2.277-1.334-.979.684,2.278,1.339Z" transform="translate(-273.33 -569.891)" fill="#e2f0f4"/>
          <path id="Trazado_119499-2" data-name="Trazado 119499" d="M323.6,603.366l2.636,1.549,1.036-.719-2.645-1.55Z" transform="translate(-287.69 -577.355)" fill="#e2f0f4"/>
          <path id="Trazado_119500-2" data-name="Trazado 119500" d="M328.592,599.871l2.655,1.56,1.037-.719-2.664-1.561Z" transform="translate(-289.183 -576.31)" fill="#e2f0f4"/>
          <path id="Trazado_119501-2" data-name="Trazado 119501" d="M326.1,601.619l2.645,1.555,1.037-.719-2.655-1.555Z" transform="translate(-288.437 -576.833)" fill="#e2f0f4"/>
          <path id="Trazado_119502-2" data-name="Trazado 119502" d="M333.583,596.374l2.674,1.572,1.037-.719-2.683-1.572Z" transform="translate(-290.676 -575.264)" fill="#e2f0f4"/>
          <path id="Trazado_119503-2" data-name="Trazado 119503" d="M336.079,594.439l2.683,1.577,1.667-1.156-2.695-1.581Z" transform="translate(-291.422 -574.554)" fill="#e2f0f4"/>
          <path id="Trazado_119504-2" data-name="Trazado 119504" d="M331.087,598.122l2.664,1.566,1.037-.719-2.674-1.566Z" transform="translate(-289.93 -575.787)" fill="#e2f0f4"/>
          <path id="Trazado_119505-2" data-name="Trazado 119505" d="M283.822,575.519l-2.261-1.325-.979.685,2.262,1.33Z" transform="translate(-274.825 -568.846)" fill="#e2f0f4"/>
          <path id="Trazado_119506-2" data-name="Trazado 119506" d="M328.208,595.113l-1.023.716,1.971,1.159,1.022-.721Z" transform="translate(-288.762 -575.102)" fill="#e2f0f4"/>
          <path id="Trazado_119507-2" data-name="Trazado 119507" d="M325.712,596.861l-1.023.716,1.977,1.162,1.022-.72Z" transform="translate(-288.016 -575.625)" fill="#e2f0f4"/>
          <path id="Trazado_119508-2" data-name="Trazado 119508" d="M323.216,598.609l-1.023.716,1.983,1.166,1.022-.72Z" transform="translate(-287.27 -576.148)" fill="#e2f0f4"/>
          <path id="Trazado_119509-2" data-name="Trazado 119509" d="M286.313,573.768l-2.253-1.32-.979.685,2.254,1.325Z" transform="translate(-275.572 -568.324)" fill="#e2f0f4"/>
          <path id="Trazado_119510-2" data-name="Trazado 119510" d="M318.224,602.106l-1.023.716,2,1.173,1.022-.72Z" transform="translate(-285.777 -577.193)" fill="#e2f0f4"/>
          <path id="Trazado_119511-2" data-name="Trazado 119511" d="M317.549,605.026l-2-1.172-1.444,1.011,2.008,1.173Z" transform="translate(-284.85 -577.716)" fill="#e2f0f4"/>
          <path id="Trazado_119512-2" data-name="Trazado 119512" d="M320.72,600.357l-1.023.716,1.989,1.169,1.022-.72Z" transform="translate(-286.523 -576.671)" fill="#e2f0f4"/>
          <path id="Trazado_119513-2" data-name="Trazado 119513" d="M288.8,572.017l-2.246-1.316-.979.685,2.247,1.321Z" transform="translate(-276.319 -567.801)" fill="#e2f0f4"/>
          <path id="Trazado_119514-2" data-name="Trazado 119514" d="M291.294,570.266l-2.238-1.311-.979.685,2.239,1.316Z" transform="translate(-277.066 -567.279)" fill="#e2f0f4"/>
          <path id="Trazado_119515-2" data-name="Trazado 119515" d="M330.7,593.365l-1.023.716,1.965,1.155,1.022-.721Z" transform="translate(-289.509 -574.579)" fill="#e2f0f4"/>
          <path id="Trazado_119516-2" data-name="Trazado 119516" d="M294.427,567.869l-2.226-1.306-1.626,1.136,2.231,1.311Z" transform="translate(-277.813 -566.564)" fill="#e2f0f4"/>
          <path id="Trazado_119517-2" data-name="Trazado 119517" d="M333.829,590.988l-1.652,1.157,1.959,1.152,1.649-1.162Z" transform="translate(-290.255 -573.869)" fill="#e2f0f4"/>
        </g>
      </g>
    </g>
    <g id="Grupo_55336" data-name="Grupo 55336" transform="translate(1010.736 8766.974)">
      <path id="Trazado_82776" data-name="Trazado 82776" d="M-218.532,479.737c0,.038-.014.076-.017.114a2.953,2.953,0,0,1-.07.462c-.008.032-.006.064-.015.1s-.03.071-.041.106a3.292,3.292,0,0,1-.149.385c-.019.042-.028.086-.049.128-.01.021-.027.042-.039.064a4.287,4.287,0,0,1-.254.416c-.025.037-.042.075-.068.111,0,.007-.013.014-.018.021a5.591,5.591,0,0,1-.444.531c-.005.005-.009.011-.014.017-.034.036-.078.071-.113.106-.132.133-.268.264-.418.394-.02.017-.036.035-.055.052-.051.043-.113.085-.166.128-.138.112-.281.224-.434.335-.038.028-.07.057-.11.085s-.108.069-.159.1q-.246.168-.513.332c-.059.037-.11.075-.17.111-.036.021-.079.042-.116.064q-.349.2-.731.4c-.05.026-.094.054-.145.08l-.034.016c-.333.169-.685.336-1.052.5-.031.014-.057.029-.088.042-.061.027-.131.052-.193.078q-.5.218-1.046.428c-.067.026-.126.053-.193.079l-.11.038q-.738.277-1.543.539c-.044.015-.083.031-.128.045-.124.04-.257.078-.383.118-.189.059-.378.118-.572.176s-.4.118-.61.176-.4.114-.607.17l-.217.06c-.095.025-.2.048-.292.073q-.539.141-1.1.275l-.483.115q-.719.167-1.468.324l-.121.027-.024,0q-.737.152-1.5.295l-.429.076c-.373.067-.748.134-1.13.2-.2.032-.4.063-.6.095-.335.053-.67.106-1.012.156-.223.033-.45.064-.677.1-.327.046-.654.091-.987.134-.237.031-.476.06-.715.089-.33.041-.662.08-1,.117l-.75.082q-.5.053-1.007.1c-.256.025-.512.049-.771.072-.346.031-.7.06-1.046.088-.254.02-.508.041-.766.06-.368.027-.74.052-1.113.076-.185.012-.366.026-.552.037l-.144.007q-1.21.071-2.451.118l-.219.01c-.14.005-.283.007-.423.012q-.746.025-1.5.042c-.141,0-.279.009-.421.012l-.306,0c-.43.007-.863.011-1.3.014-.182,0-.36.005-.542.006h-.414q-.847,0-1.686-.01l-.089,0q-.986-.013-1.957-.04h-.015l-.2-.007q-.867-.026-1.722-.062l-.114,0c-.176-.008-.347-.019-.521-.027-.429-.021-.857-.042-1.281-.066l-.219-.012c-.171-.01-.338-.024-.508-.035q-.589-.038-1.172-.08l-.319-.022c-.143-.011-.281-.025-.423-.036q-.575-.046-1.142-.1c-.135-.013-.275-.022-.41-.035-.105-.01-.207-.022-.312-.032q-.61-.059-1.208-.125c-.149-.016-.3-.03-.45-.046l-.171-.021q-.864-.1-1.705-.209l-.109-.014-.013,0c-.619-.082-1.224-.17-1.823-.261l-.172-.025c-.109-.017-.213-.036-.321-.053q-.721-.114-1.419-.236c-.1-.018-.212-.034-.315-.053l-.187-.036c-.643-.117-1.274-.238-1.888-.366l-.078-.015-.16-.036q-1.051-.222-2.041-.465c-.046-.011-.1-.021-.142-.032l-.07-.018q-.619-.155-1.21-.316l-.121-.032c-.434-.12-.856-.242-1.268-.368l-.048-.014c-.3-.091-.585-.184-.871-.278l-.178-.057q-.538-.179-1.045-.366c-.1-.037-.195-.076-.294-.113-.232-.088-.465-.177-.688-.267-.122-.05-.237-.1-.356-.151-.19-.08-.38-.16-.562-.241-.124-.055-.241-.112-.361-.169-.167-.078-.333-.156-.492-.236-.118-.059-.231-.12-.346-.18-.15-.078-.3-.157-.44-.237-.111-.063-.217-.126-.323-.189-.134-.079-.267-.159-.393-.239-.1-.065-.2-.13-.3-.2q-.18-.121-.349-.243-.137-.1-.265-.2c-.106-.083-.208-.166-.306-.25-.08-.068-.158-.135-.232-.2-.092-.085-.179-.17-.263-.256-.068-.069-.135-.138-.2-.207-.078-.087-.149-.174-.22-.263-.055-.069-.111-.138-.161-.207-.065-.091-.121-.183-.178-.274-.042-.068-.087-.136-.123-.2-.052-.1-.092-.193-.134-.29-.028-.065-.06-.13-.084-.2a2.958,2.958,0,0,1-.09-.327c-.013-.055-.033-.11-.043-.165a2.869,2.869,0,0,1-.046-.5h0v15.412a2.871,2.871,0,0,0,.046.5c.01.055.03.11.042.165a3.111,3.111,0,0,0,.091.328c.024.065.056.129.083.194.042.1.083.2.134.292.037.068.081.135.123.2.056.092.113.184.178.275.05.069.106.138.161.206.071.088.142.177.221.264.063.069.13.137.2.206.084.086.172.172.264.257.075.068.153.136.232.2.1.084.2.167.306.25q.129.1.265.2.169.122.348.243c.1.066.2.132.3.2.126.08.257.159.389.237.108.064.215.128.328.191.141.079.288.157.437.235.115.061.228.121.348.181.16.08.327.159.494.237.12.056.236.112.359.168.182.082.372.162.562.242.119.051.234.1.356.151.222.09.454.178.686.266.1.038.195.077.3.114q.507.186,1.043.365c.067.023.138.044.206.066.293.1.589.192.9.285q.616.188,1.266.367l.117.031q.595.162,1.216.317l.2.049q.995.244,2.053.468l.229.049c.615.128,1.247.25,1.892.367l.5.088q.7.123,1.419.236c.164.026.327.053.493.078.6.092,1.2.179,1.823.262l.122.015q.841.111,1.705.209c.205.024.414.045.621.067q.6.065,1.208.125l.722.067q.567.052,1.142.1c.246.02.493.04.741.058.391.029.786.055,1.182.081.238.015.474.031.713.045.427.025.859.047,1.291.067.21.01.418.022.63.031q.854.036,1.722.062l.211.007q.974.028,1.962.04.88.011,1.77.013c.321,0,.637,0,.956-.007.433,0,.867-.007,1.3-.015.243,0,.485-.01.727-.015q.755-.016,1.5-.042l.643-.022q1.239-.049,2.451-.118c.232-.014.461-.03.691-.044.376-.024.752-.048,1.123-.076.251-.019.5-.038.749-.059.356-.029.712-.058,1.065-.089l.757-.071q.511-.049,1.015-.1l.748-.081q.5-.057,1-.118c.239-.029.478-.058.714-.089.336-.043.667-.089,1-.135.222-.031.445-.061.664-.094.344-.05.682-.1,1.021-.157.2-.032.4-.062.595-.094.382-.064.757-.13,1.13-.2.142-.025.288-.049.429-.076q.765-.142,1.5-.294l.144-.031c.5-.1.992-.213,1.473-.325.16-.037.317-.075.475-.113q.562-.136,1.1-.276c.169-.044.341-.088.508-.133.207-.056.41-.114.612-.171s.4-.115.6-.174.39-.118.582-.179c.169-.053.338-.106.5-.16q.8-.262,1.544-.54c.1-.038.2-.078.3-.117q.545-.211,1.049-.429c.092-.04.187-.079.277-.119.367-.164.72-.331,1.053-.5.062-.032.118-.065.179-.1.253-.133.5-.268.731-.4.1-.058.191-.116.286-.174q.267-.165.513-.333c.092-.063.182-.125.269-.188.152-.11.3-.222.434-.335.074-.06.151-.119.22-.179.151-.131.287-.262.419-.394.041-.042.088-.082.127-.124a5.587,5.587,0,0,0,.444-.531c.032-.043.055-.087.085-.131a4.263,4.263,0,0,0,.255-.417c.033-.064.059-.128.088-.192a3.257,3.257,0,0,0,.149-.385c.021-.067.039-.134.056-.2a2.962,2.962,0,0,0,.07-.462c0-.069.019-.136.019-.2V479.646Q-218.53,479.691-218.532,479.737Z" transform="translate(291.218 -469.631)" fill="url(#linear-gradient-3)"/>
      <path id="Trazado_82777" data-name="Trazado 82777" d="M-254.874,461.386c-20.076,0-36.344,4.484-36.344,10.015s16.267,10.018,36.344,10.018,36.344-4.484,36.344-10.018S-234.807,461.386-254.874,461.386Z" transform="translate(291.218 -461.386)" fill="#e8e8e8"/>
    </g>
    <g id="Grupo_55339" data-name="Grupo 55339" transform="translate(1010.736 8837.11)" opacity="0.19">
      <path id="Trazado_82776-2" data-name="Trazado 82776" d="M-218.532,479.737c0,.038-.014.076-.017.114a2.953,2.953,0,0,1-.07.462c-.008.032-.006.064-.015.1s-.03.071-.041.106a3.292,3.292,0,0,1-.149.385c-.019.042-.028.086-.049.128-.01.021-.027.042-.039.064a4.287,4.287,0,0,1-.254.416c-.025.037-.042.075-.068.111,0,.007-.013.014-.018.021a5.591,5.591,0,0,1-.444.531c-.005.005-.009.011-.014.017-.034.036-.078.071-.113.106-.132.133-.268.264-.418.394-.02.017-.036.035-.055.052-.051.043-.113.085-.166.128-.138.112-.281.224-.434.335-.038.028-.07.057-.11.085s-.108.069-.159.1q-.246.168-.513.332c-.059.037-.11.075-.17.111-.036.021-.079.042-.116.064q-.349.2-.731.4c-.05.026-.094.054-.145.08l-.034.016c-.333.169-.685.336-1.052.5-.031.014-.057.029-.088.042-.061.027-.131.052-.193.078q-.5.218-1.046.428c-.067.026-.126.053-.193.079l-.11.038q-.738.277-1.543.539c-.044.015-.083.031-.128.045-.124.04-.257.078-.383.118-.189.059-.378.118-.572.176s-.4.118-.61.176-.4.114-.607.17l-.217.06c-.095.025-.2.048-.292.073q-.539.141-1.1.275l-.483.115q-.719.167-1.468.324l-.121.027-.024,0q-.737.152-1.5.295l-.429.076c-.373.067-.748.134-1.13.2-.2.032-.4.063-.6.095-.335.053-.67.106-1.012.156-.223.033-.45.064-.677.1-.327.046-.654.091-.987.134-.237.031-.476.06-.715.089-.33.041-.662.08-1,.117l-.75.082q-.5.053-1.007.1c-.256.025-.512.049-.771.072-.346.031-.7.06-1.046.088-.254.02-.508.041-.766.06-.368.027-.74.052-1.113.076-.185.012-.366.026-.552.037l-.144.007q-1.21.071-2.451.118l-.219.01c-.14.005-.283.007-.423.012q-.746.025-1.5.042c-.141,0-.279.009-.421.012l-.306,0c-.43.007-.863.011-1.3.014-.182,0-.36.005-.542.006h-.414q-.847,0-1.686-.01l-.089,0q-.986-.013-1.957-.04h-.015l-.2-.007q-.867-.026-1.722-.062l-.114,0c-.176-.008-.347-.019-.521-.027-.429-.021-.857-.042-1.281-.066l-.219-.012c-.171-.01-.338-.024-.508-.035q-.589-.038-1.172-.08l-.319-.022c-.143-.011-.281-.025-.423-.036q-.575-.046-1.142-.1c-.135-.013-.275-.022-.41-.035-.105-.01-.207-.022-.312-.032q-.61-.059-1.208-.125c-.149-.016-.3-.03-.45-.046l-.171-.021q-.864-.1-1.705-.209l-.109-.014-.013,0c-.619-.082-1.224-.17-1.823-.261l-.172-.025c-.109-.017-.213-.036-.321-.053q-.721-.114-1.419-.236c-.1-.018-.212-.034-.315-.053l-.187-.036c-.643-.117-1.274-.238-1.888-.366l-.078-.015-.16-.036q-1.051-.222-2.041-.465c-.046-.011-.1-.021-.142-.032l-.07-.018q-.619-.155-1.21-.316l-.121-.032c-.434-.12-.856-.242-1.268-.368l-.048-.014c-.3-.091-.585-.184-.871-.278l-.178-.057q-.538-.179-1.045-.366c-.1-.037-.195-.076-.294-.113-.232-.088-.465-.177-.688-.267-.122-.05-.237-.1-.356-.151-.19-.08-.38-.16-.562-.241-.124-.055-.241-.112-.361-.169-.167-.078-.333-.156-.492-.236-.118-.059-.231-.12-.346-.18-.15-.078-.3-.157-.44-.237-.111-.063-.217-.126-.323-.189-.134-.079-.267-.159-.393-.239-.1-.065-.2-.13-.3-.2q-.18-.121-.349-.243-.137-.1-.265-.2c-.106-.083-.208-.166-.306-.25-.08-.068-.158-.135-.232-.2-.092-.085-.179-.17-.263-.256-.068-.069-.135-.138-.2-.207-.078-.087-.149-.174-.22-.263-.055-.069-.111-.138-.161-.207-.065-.091-.121-.183-.178-.274-.042-.068-.087-.136-.123-.2-.052-.1-.092-.193-.134-.29-.028-.065-.06-.13-.084-.2a2.958,2.958,0,0,1-.09-.327c-.013-.055-.033-.11-.043-.165a2.869,2.869,0,0,1-.046-.5h0v15.412a2.871,2.871,0,0,0,.046.5c.01.055.03.11.042.165a3.111,3.111,0,0,0,.091.328c.024.065.056.129.083.194.042.1.083.2.134.292.037.068.081.135.123.2.056.092.113.184.178.275.05.069.106.138.161.206.071.088.142.177.221.264.063.069.13.137.2.206.084.086.172.172.264.257.075.068.153.136.232.2.1.084.2.167.306.25q.129.1.265.2.169.122.348.243c.1.066.2.132.3.2.126.08.257.159.389.237.108.064.215.128.328.191.141.079.288.157.437.235.115.061.228.121.348.181.16.08.327.159.494.237.12.056.236.112.359.168.182.082.372.162.562.242.119.051.234.1.356.151.222.09.454.178.686.266.1.038.195.077.3.114q.507.186,1.043.365c.067.023.138.044.206.066.293.1.589.192.9.285q.616.188,1.266.367l.117.031q.595.162,1.216.317l.2.049q.995.244,2.053.468l.229.049c.615.128,1.247.25,1.892.367l.5.088q.7.123,1.419.236c.164.026.327.053.493.078.6.092,1.2.179,1.823.262l.122.015q.841.111,1.705.209c.205.024.414.045.621.067q.6.065,1.208.125l.722.067q.567.052,1.142.1c.246.02.493.04.741.058.391.029.786.055,1.182.081.238.015.474.031.713.045.427.025.859.047,1.291.067.21.01.418.022.63.031q.854.036,1.722.062l.211.007q.974.028,1.962.04.88.011,1.77.013c.321,0,.637,0,.956-.007.433,0,.867-.007,1.3-.015.243,0,.485-.01.727-.015q.755-.016,1.5-.042l.643-.022q1.239-.049,2.451-.118c.232-.014.461-.03.691-.044.376-.024.752-.048,1.123-.076.251-.019.5-.038.749-.059.356-.029.712-.058,1.065-.089l.757-.071q.511-.049,1.015-.1l.748-.081q.5-.057,1-.118c.239-.029.478-.058.714-.089.336-.043.667-.089,1-.135.222-.031.445-.061.664-.094.344-.05.682-.1,1.021-.157.2-.032.4-.062.595-.094.382-.064.757-.13,1.13-.2.142-.025.288-.049.429-.076q.765-.142,1.5-.294l.144-.031c.5-.1.992-.213,1.473-.325.16-.037.317-.075.475-.113q.562-.136,1.1-.276c.169-.044.341-.088.508-.133.207-.056.41-.114.612-.171s.4-.115.6-.174.39-.118.582-.179c.169-.053.338-.106.5-.16q.8-.262,1.544-.54c.1-.038.2-.078.3-.117q.545-.211,1.049-.429c.092-.04.187-.079.277-.119.367-.164.72-.331,1.053-.5.062-.032.118-.065.179-.1.253-.133.5-.268.731-.4.1-.058.191-.116.286-.174q.267-.165.513-.333c.092-.063.182-.125.269-.188.152-.11.3-.222.434-.335.074-.06.151-.119.22-.179.151-.131.287-.262.419-.394.041-.042.088-.082.127-.124a5.587,5.587,0,0,0,.444-.531c.032-.043.055-.087.085-.131a4.263,4.263,0,0,0,.255-.417c.033-.064.059-.128.088-.192a3.257,3.257,0,0,0,.149-.385c.021-.067.039-.134.056-.2a2.962,2.962,0,0,0,.07-.462c0-.069.019-.136.019-.2V479.646Q-218.53,479.691-218.532,479.737Z" transform="translate(291.218 -469.631)" fill="url(#linear-gradient-3)"/>
      <path id="Trazado_82777-2" data-name="Trazado 82777" d="M-254.874,461.386c-20.076,0-36.344,4.484-36.344,10.015s16.267,10.018,36.344,10.018,36.344-4.484,36.344-10.018S-234.807,461.386-254.874,461.386Z" transform="translate(291.218 -461.386)" fill="#e8e8e8"/>
    </g>
    <g id="Grupo_55337" data-name="Grupo 55337" transform="translate(1156.165 8766.974)">
      <path id="Trazado_82776-3" data-name="Trazado 82776" d="M-218.532,479.737c0,.038-.014.076-.017.114a2.953,2.953,0,0,1-.07.462c-.008.032-.006.064-.015.1s-.03.071-.041.106a3.292,3.292,0,0,1-.149.385c-.019.042-.028.086-.049.128-.01.021-.027.042-.039.064a4.287,4.287,0,0,1-.254.416c-.025.037-.042.075-.068.111,0,.007-.013.014-.018.021a5.591,5.591,0,0,1-.444.531c-.005.005-.009.011-.014.017-.034.036-.078.071-.113.106-.132.133-.268.264-.418.394-.02.017-.036.035-.055.052-.051.043-.113.085-.166.128-.138.112-.281.224-.434.335-.038.028-.07.057-.11.085s-.108.069-.159.1q-.246.168-.513.332c-.059.037-.11.075-.17.111-.036.021-.079.042-.116.064q-.349.2-.731.4c-.05.026-.094.054-.145.08l-.034.016c-.333.169-.685.336-1.052.5-.031.014-.057.029-.088.042-.061.027-.131.052-.193.078q-.5.218-1.046.428c-.067.026-.126.053-.193.079l-.11.038q-.738.277-1.543.539c-.044.015-.083.031-.128.045-.124.04-.257.078-.383.118-.189.059-.378.118-.572.176s-.4.118-.61.176-.4.114-.607.17l-.217.06c-.095.025-.2.048-.292.073q-.539.141-1.1.275l-.483.115q-.719.167-1.468.324l-.121.027-.024,0q-.737.152-1.5.295l-.429.076c-.373.067-.748.134-1.13.2-.2.032-.4.063-.6.095-.335.053-.67.106-1.012.156-.223.033-.45.064-.677.1-.327.046-.654.091-.987.134-.237.031-.476.06-.715.089-.33.041-.662.08-1,.117l-.75.082q-.5.053-1.007.1c-.256.025-.512.049-.771.072-.346.031-.7.06-1.046.088-.254.02-.508.041-.766.06-.368.027-.74.052-1.113.076-.185.012-.366.026-.552.037l-.144.007q-1.21.071-2.451.118l-.219.01c-.14.005-.283.007-.423.012q-.746.025-1.5.042c-.141,0-.279.009-.421.012l-.306,0c-.43.007-.863.011-1.3.014-.182,0-.36.005-.542.006h-.414q-.847,0-1.686-.01l-.089,0q-.986-.013-1.957-.04h-.015l-.2-.007q-.867-.026-1.722-.062l-.114,0c-.176-.008-.347-.019-.521-.027-.429-.021-.857-.042-1.281-.066l-.219-.012c-.171-.01-.338-.024-.508-.035q-.589-.038-1.172-.08l-.319-.022c-.143-.011-.281-.025-.423-.036q-.575-.046-1.142-.1c-.135-.013-.275-.022-.41-.035-.105-.01-.207-.022-.312-.032q-.61-.059-1.208-.125c-.149-.016-.3-.03-.45-.046l-.171-.021q-.864-.1-1.705-.209l-.109-.014-.013,0c-.619-.082-1.224-.17-1.823-.261l-.172-.025c-.109-.017-.213-.036-.321-.053q-.721-.114-1.419-.236c-.1-.018-.212-.034-.315-.053l-.187-.036c-.643-.117-1.274-.238-1.888-.366l-.078-.015-.16-.036q-1.051-.222-2.041-.465c-.046-.011-.1-.021-.142-.032l-.07-.018q-.619-.155-1.21-.316l-.121-.032c-.434-.12-.856-.242-1.268-.368l-.048-.014c-.3-.091-.585-.184-.871-.278l-.178-.057q-.538-.179-1.045-.366c-.1-.037-.195-.076-.294-.113-.232-.088-.465-.177-.688-.267-.122-.05-.237-.1-.356-.151-.19-.08-.38-.16-.562-.241-.124-.055-.241-.112-.361-.169-.167-.078-.333-.156-.492-.236-.118-.059-.231-.12-.346-.18-.15-.078-.3-.157-.44-.237-.111-.063-.217-.126-.323-.189-.134-.079-.267-.159-.393-.239-.1-.065-.2-.13-.3-.2q-.18-.121-.349-.243-.137-.1-.265-.2c-.106-.083-.208-.166-.306-.25-.08-.068-.158-.135-.232-.2-.092-.085-.179-.17-.263-.256-.068-.069-.135-.138-.2-.207-.078-.087-.149-.174-.22-.263-.055-.069-.111-.138-.161-.207-.065-.091-.121-.183-.178-.274-.042-.068-.087-.136-.123-.2-.052-.1-.092-.193-.134-.29-.028-.065-.06-.13-.084-.2a2.958,2.958,0,0,1-.09-.327c-.013-.055-.033-.11-.043-.165a2.869,2.869,0,0,1-.046-.5h0v15.412a2.871,2.871,0,0,0,.046.5c.01.055.03.11.042.165a3.111,3.111,0,0,0,.091.328c.024.065.056.129.083.194.042.1.083.2.134.292.037.068.081.135.123.2.056.092.113.184.178.275.05.069.106.138.161.206.071.088.142.177.221.264.063.069.13.137.2.206.084.086.172.172.264.257.075.068.153.136.232.2.1.084.2.167.306.25q.129.1.265.2.169.122.348.243c.1.066.2.132.3.2.126.08.257.159.389.237.108.064.215.128.328.191.141.079.288.157.437.235.115.061.228.121.348.181.16.08.327.159.494.237.12.056.236.112.359.168.182.082.372.162.562.242.119.051.234.1.356.151.222.09.454.178.686.266.1.038.195.077.3.114q.507.186,1.043.365c.067.023.138.044.206.066.293.1.589.192.9.285q.616.188,1.266.367l.117.031q.595.162,1.216.317l.2.049q.995.244,2.053.468l.229.049c.615.128,1.247.25,1.892.367l.5.088q.7.123,1.419.236c.164.026.327.053.493.078.6.092,1.2.179,1.823.262l.122.015q.841.111,1.705.209c.205.024.414.045.621.067q.6.065,1.208.125l.722.067q.567.052,1.142.1c.246.02.493.04.741.058.391.029.786.055,1.182.081.238.015.474.031.713.045.427.025.859.047,1.291.067.21.01.418.022.63.031q.854.036,1.722.062l.211.007q.974.028,1.962.04.88.011,1.77.013c.321,0,.637,0,.956-.007.433,0,.867-.007,1.3-.015.243,0,.485-.01.727-.015q.755-.016,1.5-.042l.643-.022q1.239-.049,2.451-.118c.232-.014.461-.03.691-.044.376-.024.752-.048,1.123-.076.251-.019.5-.038.749-.059.356-.029.712-.058,1.065-.089l.757-.071q.511-.049,1.015-.1l.748-.081q.5-.057,1-.118c.239-.029.478-.058.714-.089.336-.043.667-.089,1-.135.222-.031.445-.061.664-.094.344-.05.682-.1,1.021-.157.2-.032.4-.062.595-.094.382-.064.757-.13,1.13-.2.142-.025.288-.049.429-.076q.765-.142,1.5-.294l.144-.031c.5-.1.992-.213,1.473-.325.16-.037.317-.075.475-.113q.562-.136,1.1-.276c.169-.044.341-.088.508-.133.207-.056.41-.114.612-.171s.4-.115.6-.174.39-.118.582-.179c.169-.053.338-.106.5-.16q.8-.262,1.544-.54c.1-.038.2-.078.3-.117q.545-.211,1.049-.429c.092-.04.187-.079.277-.119.367-.164.72-.331,1.053-.5.062-.032.118-.065.179-.1.253-.133.5-.268.731-.4.1-.058.191-.116.286-.174q.267-.165.513-.333c.092-.063.182-.125.269-.188.152-.11.3-.222.434-.335.074-.06.151-.119.22-.179.151-.131.287-.262.419-.394.041-.042.088-.082.127-.124a5.587,5.587,0,0,0,.444-.531c.032-.043.055-.087.085-.131a4.263,4.263,0,0,0,.255-.417c.033-.064.059-.128.088-.192a3.257,3.257,0,0,0,.149-.385c.021-.067.039-.134.056-.2a2.962,2.962,0,0,0,.07-.462c0-.069.019-.136.019-.2V479.646Q-218.53,479.691-218.532,479.737Z" transform="translate(291.218 -469.631)" fill="url(#linear-gradient-3)"/>
      <path id="Trazado_82777-3" data-name="Trazado 82777" d="M-254.874,461.386c-20.076,0-36.344,4.484-36.344,10.015s16.267,10.018,36.344,10.018,36.344-4.484,36.344-10.018S-234.807,461.386-254.874,461.386Z" transform="translate(291.218 -461.386)" fill="#e8e8e8"/>
    </g>
    <g id="Grupo_55338" data-name="Grupo 55338" transform="translate(1156.165 8837.11)" opacity="0.19">
      <path id="Trazado_82776-4" data-name="Trazado 82776" d="M-218.532,479.737c0,.038-.014.076-.017.114a2.953,2.953,0,0,1-.07.462c-.008.032-.006.064-.015.1s-.03.071-.041.106a3.292,3.292,0,0,1-.149.385c-.019.042-.028.086-.049.128-.01.021-.027.042-.039.064a4.287,4.287,0,0,1-.254.416c-.025.037-.042.075-.068.111,0,.007-.013.014-.018.021a5.591,5.591,0,0,1-.444.531c-.005.005-.009.011-.014.017-.034.036-.078.071-.113.106-.132.133-.268.264-.418.394-.02.017-.036.035-.055.052-.051.043-.113.085-.166.128-.138.112-.281.224-.434.335-.038.028-.07.057-.11.085s-.108.069-.159.1q-.246.168-.513.332c-.059.037-.11.075-.17.111-.036.021-.079.042-.116.064q-.349.2-.731.4c-.05.026-.094.054-.145.08l-.034.016c-.333.169-.685.336-1.052.5-.031.014-.057.029-.088.042-.061.027-.131.052-.193.078q-.5.218-1.046.428c-.067.026-.126.053-.193.079l-.11.038q-.738.277-1.543.539c-.044.015-.083.031-.128.045-.124.04-.257.078-.383.118-.189.059-.378.118-.572.176s-.4.118-.61.176-.4.114-.607.17l-.217.06c-.095.025-.2.048-.292.073q-.539.141-1.1.275l-.483.115q-.719.167-1.468.324l-.121.027-.024,0q-.737.152-1.5.295l-.429.076c-.373.067-.748.134-1.13.2-.2.032-.4.063-.6.095-.335.053-.67.106-1.012.156-.223.033-.45.064-.677.1-.327.046-.654.091-.987.134-.237.031-.476.06-.715.089-.33.041-.662.08-1,.117l-.75.082q-.5.053-1.007.1c-.256.025-.512.049-.771.072-.346.031-.7.06-1.046.088-.254.02-.508.041-.766.06-.368.027-.74.052-1.113.076-.185.012-.366.026-.552.037l-.144.007q-1.21.071-2.451.118l-.219.01c-.14.005-.283.007-.423.012q-.746.025-1.5.042c-.141,0-.279.009-.421.012l-.306,0c-.43.007-.863.011-1.3.014-.182,0-.36.005-.542.006h-.414q-.847,0-1.686-.01l-.089,0q-.986-.013-1.957-.04h-.015l-.2-.007q-.867-.026-1.722-.062l-.114,0c-.176-.008-.347-.019-.521-.027-.429-.021-.857-.042-1.281-.066l-.219-.012c-.171-.01-.338-.024-.508-.035q-.589-.038-1.172-.08l-.319-.022c-.143-.011-.281-.025-.423-.036q-.575-.046-1.142-.1c-.135-.013-.275-.022-.41-.035-.105-.01-.207-.022-.312-.032q-.61-.059-1.208-.125c-.149-.016-.3-.03-.45-.046l-.171-.021q-.864-.1-1.705-.209l-.109-.014-.013,0c-.619-.082-1.224-.17-1.823-.261l-.172-.025c-.109-.017-.213-.036-.321-.053q-.721-.114-1.419-.236c-.1-.018-.212-.034-.315-.053l-.187-.036c-.643-.117-1.274-.238-1.888-.366l-.078-.015-.16-.036q-1.051-.222-2.041-.465c-.046-.011-.1-.021-.142-.032l-.07-.018q-.619-.155-1.21-.316l-.121-.032c-.434-.12-.856-.242-1.268-.368l-.048-.014c-.3-.091-.585-.184-.871-.278l-.178-.057q-.538-.179-1.045-.366c-.1-.037-.195-.076-.294-.113-.232-.088-.465-.177-.688-.267-.122-.05-.237-.1-.356-.151-.19-.08-.38-.16-.562-.241-.124-.055-.241-.112-.361-.169-.167-.078-.333-.156-.492-.236-.118-.059-.231-.12-.346-.18-.15-.078-.3-.157-.44-.237-.111-.063-.217-.126-.323-.189-.134-.079-.267-.159-.393-.239-.1-.065-.2-.13-.3-.2q-.18-.121-.349-.243-.137-.1-.265-.2c-.106-.083-.208-.166-.306-.25-.08-.068-.158-.135-.232-.2-.092-.085-.179-.17-.263-.256-.068-.069-.135-.138-.2-.207-.078-.087-.149-.174-.22-.263-.055-.069-.111-.138-.161-.207-.065-.091-.121-.183-.178-.274-.042-.068-.087-.136-.123-.2-.052-.1-.092-.193-.134-.29-.028-.065-.06-.13-.084-.2a2.958,2.958,0,0,1-.09-.327c-.013-.055-.033-.11-.043-.165a2.869,2.869,0,0,1-.046-.5h0v15.412a2.871,2.871,0,0,0,.046.5c.01.055.03.11.042.165a3.111,3.111,0,0,0,.091.328c.024.065.056.129.083.194.042.1.083.2.134.292.037.068.081.135.123.2.056.092.113.184.178.275.05.069.106.138.161.206.071.088.142.177.221.264.063.069.13.137.2.206.084.086.172.172.264.257.075.068.153.136.232.2.1.084.2.167.306.25q.129.1.265.2.169.122.348.243c.1.066.2.132.3.2.126.08.257.159.389.237.108.064.215.128.328.191.141.079.288.157.437.235.115.061.228.121.348.181.16.08.327.159.494.237.12.056.236.112.359.168.182.082.372.162.562.242.119.051.234.1.356.151.222.09.454.178.686.266.1.038.195.077.3.114q.507.186,1.043.365c.067.023.138.044.206.066.293.1.589.192.9.285q.616.188,1.266.367l.117.031q.595.162,1.216.317l.2.049q.995.244,2.053.468l.229.049c.615.128,1.247.25,1.892.367l.5.088q.7.123,1.419.236c.164.026.327.053.493.078.6.092,1.2.179,1.823.262l.122.015q.841.111,1.705.209c.205.024.414.045.621.067q.6.065,1.208.125l.722.067q.567.052,1.142.1c.246.02.493.04.741.058.391.029.786.055,1.182.081.238.015.474.031.713.045.427.025.859.047,1.291.067.21.01.418.022.63.031q.854.036,1.722.062l.211.007q.974.028,1.962.04.88.011,1.77.013c.321,0,.637,0,.956-.007.433,0,.867-.007,1.3-.015.243,0,.485-.01.727-.015q.755-.016,1.5-.042l.643-.022q1.239-.049,2.451-.118c.232-.014.461-.03.691-.044.376-.024.752-.048,1.123-.076.251-.019.5-.038.749-.059.356-.029.712-.058,1.065-.089l.757-.071q.511-.049,1.015-.1l.748-.081q.5-.057,1-.118c.239-.029.478-.058.714-.089.336-.043.667-.089,1-.135.222-.031.445-.061.664-.094.344-.05.682-.1,1.021-.157.2-.032.4-.062.595-.094.382-.064.757-.13,1.13-.2.142-.025.288-.049.429-.076q.765-.142,1.5-.294l.144-.031c.5-.1.992-.213,1.473-.325.16-.037.317-.075.475-.113q.562-.136,1.1-.276c.169-.044.341-.088.508-.133.207-.056.41-.114.612-.171s.4-.115.6-.174.39-.118.582-.179c.169-.053.338-.106.5-.16q.8-.262,1.544-.54c.1-.038.2-.078.3-.117q.545-.211,1.049-.429c.092-.04.187-.079.277-.119.367-.164.72-.331,1.053-.5.062-.032.118-.065.179-.1.253-.133.5-.268.731-.4.1-.058.191-.116.286-.174q.267-.165.513-.333c.092-.063.182-.125.269-.188.152-.11.3-.222.434-.335.074-.06.151-.119.22-.179.151-.131.287-.262.419-.394.041-.042.088-.082.127-.124a5.587,5.587,0,0,0,.444-.531c.032-.043.055-.087.085-.131a4.263,4.263,0,0,0,.255-.417c.033-.064.059-.128.088-.192a3.257,3.257,0,0,0,.149-.385c.021-.067.039-.134.056-.2a2.962,2.962,0,0,0,.07-.462c0-.069.019-.136.019-.2V479.646Q-218.53,479.691-218.532,479.737Z" transform="translate(291.218 -469.631)" fill="url(#linear-gradient-3)"/>
      <path id="Trazado_82777-4" data-name="Trazado 82777" d="M-254.874,461.386c-20.076,0-36.344,4.484-36.344,10.015s16.267,10.018,36.344,10.018,36.344-4.484,36.344-10.018S-234.807,461.386-254.874,461.386Z" transform="translate(291.218 -461.386)" fill="#e8e8e8"/>
    </g>
    <path id="Trazado_119518" data-name="Trazado 119518" d="M-12343.392-8211.972l28.9-11.817" transform="translate(13376.164 16994.279)" fill="none" stroke="#00223d" stroke-linecap="round" stroke-width="4"/>
    <path id="Trazado_119524" data-name="Trazado 119524" d="M-12343.392-8211.972l28.9-11.817" transform="translate(13376.164 17064.414)" fill="none" stroke="#00223d" stroke-linecap="round" stroke-width="4" opacity="0.19"/>
    <path id="Trazado_119520" data-name="Trazado 119520" d="M-12343.392-8211.972l28.9-11.817" transform="translate(13521.594 16994.279)" fill="none" stroke="#00223d" stroke-linecap="round" stroke-width="4"/>
    <path id="Trazado_119522" data-name="Trazado 119522" d="M-12343.392-8211.972l28.9-11.817" transform="translate(13521.594 17064.414)" fill="none" stroke="#00223d" stroke-linecap="round" stroke-width="4" opacity="0.19"/>
    <path id="Trazado_119519" data-name="Trazado 119519" d="M0,11.817,28.9,0" transform="translate(1053.264 8790.794) rotate(-135)" fill="none" stroke="#00223d" stroke-linecap="round" stroke-width="4"/>
    <path id="Trazado_119525" data-name="Trazado 119525" d="M0,11.817,28.9,0" transform="translate(1053.264 8860.931) rotate(-135)" fill="none" stroke="#00223d" stroke-linecap="round" stroke-width="4" opacity="0.19"/>
    <path id="Trazado_119521" data-name="Trazado 119521" d="M0,11.817,28.9,0" transform="translate(1198.694 8790.794) rotate(-135)" fill="none" stroke="#00223d" stroke-linecap="round" stroke-width="4"/>
    <path id="Trazado_119523" data-name="Trazado 119523" d="M0,11.817,28.9,0" transform="translate(1198.694 8860.931) rotate(-135)" fill="none" stroke="#00223d" stroke-linecap="round" stroke-width="4" opacity="0.19"/>
    <path id="Trazado_119526" data-name="Trazado 119526" d="M-11040.522-7696.055h41.692" transform="translate(11990.041 16510.316)" fill="none" stroke="#00223d" stroke-width="3"/>
    <path id="Trazado_119527" data-name="Trazado 119527" d="M-10942.913-7742.106l-19.11,24.047,19.11,21.438" transform="translate(11952.022 16532.617)" fill="none" stroke="#00223d" stroke-width="3"/>
    <path id="Trazado_119528" data-name="Trazado 119528" d="M0,0H41.692" transform="translate(1293.78 8812.247) rotate(180)" fill="none" stroke="#00223d" stroke-width="3"/>
    <path id="Trazado_119529" data-name="Trazado 119529" d="M19.11,0,0,24.047,19.11,45.485" transform="translate(1253.297 8835.996) rotate(180)" fill="none" stroke="#00223d" stroke-width="3"/>
    <path id="Trazado_119530" data-name="Trazado 119530" d="M-10569.342-7719.012v33.957" transform="translate(11761.852 16521.434)" fill="none" stroke="#00223d" stroke-width="3"/>
    <path id="Trazado_119531" data-name="Trazado 119531" d="M-10780.866-7753.378h72.638" transform="translate(11864.289 16538.078)" fill="none" stroke="#00223d" stroke-width="3"/>
    <path id="Trazado_119532" data-name="Trazado 119532" d="M-10780.866-7753.378h72.638" transform="translate(11864.289 16608.211)" fill="none" stroke="#00223d" stroke-width="3" opacity="0.19"/>
    <ellipse id="Elipse_3795" data-name="Elipse 3795" cx="5.573" cy="5.573" rx="5.573" ry="5.573" transform="translate(1114.435 8778.984)" fill="#ff6148"/>
    <ellipse id="Elipse_3796" data-name="Elipse 3796" cx="5.573" cy="5.573" rx="5.573" ry="5.573" transform="translate(1237.207 8793.962)" fill="#ff6148"/>
    <path id="Trazado_194064" data-name="Trazado 194064" d="M9.435,20.069v-4.8H0V4.884H9.376V0L27.049,10.046Z" transform="translate(1130.485 8748.498) rotate(90)" fill="#12263f"/>
    <path id="Trazado_826480" data-name="Trazado 826480" d="M2.82-4.453V0H1.32V-11.375h4.2a4.215,4.215,0,0,1,2.926.953A3.231,3.231,0,0,1,9.5-7.9,3.189,3.189,0,0,1,8.465-5.348,4.4,4.4,0,0,1,5.5-4.453Zm0-1.227h2.7a2.7,2.7,0,0,0,1.844-.566A2.069,2.069,0,0,0,8-7.883a2.138,2.138,0,0,0-.641-1.625A2.528,2.528,0,0,0,5.6-10.141H2.82ZM16.32,0a3.036,3.036,0,0,1-.2-.891A3.225,3.225,0,0,1,13.711.156,2.984,2.984,0,0,1,11.66-.551a2.287,2.287,0,0,1-.8-1.793,2.39,2.39,0,0,1,1-2.051,4.733,4.733,0,0,1,2.824-.73h1.406v-.664A1.623,1.623,0,0,0,15.641-7,1.821,1.821,0,0,0,14.3-7.445a2.107,2.107,0,0,0-1.3.391,1.151,1.151,0,0,0-.523.945H11.031a2,2,0,0,1,.449-1.223A3.066,3.066,0,0,1,12.7-8.266a4.1,4.1,0,0,1,1.691-.344,3.342,3.342,0,0,1,2.289.73,2.635,2.635,0,0,1,.859,2.012v3.891a4.757,4.757,0,0,0,.3,1.852V0Zm-2.4-1.1a2.54,2.54,0,0,0,1.289-.352,2.127,2.127,0,0,0,.883-.914V-4.1H14.961Q12.3-4.1,12.3-2.547a1.316,1.316,0,0,0,.453,1.063A1.742,1.742,0,0,0,13.922-1.1Zm5.531-3.2a4.961,4.961,0,0,1,.914-3.152,2.962,2.962,0,0,1,2.453-1.16A2.96,2.96,0,0,1,25.188-7.6l.063-.852h1.328V3.25H25.133V-.781A3.033,3.033,0,0,1,22.8.156a2.915,2.915,0,0,1-2.441-1.191,5.072,5.072,0,0,1-.91-3.16Zm1.445.164a3.761,3.761,0,0,0,.613,2.281,1.951,1.951,0,0,0,1.652.828,2.164,2.164,0,0,0,1.969-1.141V-6.3A2.171,2.171,0,0,0,23.18-7.422a1.965,1.965,0,0,0-1.664.832A4.094,4.094,0,0,0,20.9-4.133Zm13.219,3.3a3.07,3.07,0,0,1-2.477.992,2.628,2.628,0,0,1-2.059-.785,3.4,3.4,0,0,1-.715-2.324v-5.5h1.445v5.461q0,1.922,1.563,1.922a2.163,2.163,0,0,0,2.2-1.234V-8.453h1.445V0H34.148Zm7.109.992a3.693,3.693,0,0,1-2.8-1.129,4.19,4.19,0,0,1-1.078-3.02v-.266a5.073,5.073,0,0,1,.48-2.246,3.748,3.748,0,0,1,1.344-1.547,3.378,3.378,0,0,1,1.871-.559,3.166,3.166,0,0,1,2.563,1.086,4.7,4.7,0,0,1,.914,3.109v.6H38.8a3,3,0,0,0,.73,2.02,2.3,2.3,0,0,0,1.777.77,2.517,2.517,0,0,0,1.3-.312,3.259,3.259,0,0,0,.93-.828l.883.688A3.55,3.55,0,0,1,41.227.156Zm-.18-7.578a1.928,1.928,0,0,0-1.469.637A3.1,3.1,0,0,0,38.844-5h4.234v-.109a2.753,2.753,0,0,0-.594-1.707A1.815,1.815,0,0,0,41.047-7.422ZM48.156-10.5v2.047h1.578v1.117H48.156v5.242a1.171,1.171,0,0,0,.211.762.888.888,0,0,0,.719.254,3.5,3.5,0,0,0,.688-.094V0a4.19,4.19,0,0,1-1.109.156A1.8,1.8,0,0,1,47.2-.43a2.517,2.517,0,0,1-.492-1.664V-7.336H45.172V-8.453h1.539V-10.5ZM54.93.156a3.693,3.693,0,0,1-2.8-1.129,4.19,4.19,0,0,1-1.078-3.02v-.266a5.073,5.073,0,0,1,.48-2.246,3.748,3.748,0,0,1,1.344-1.547,3.378,3.378,0,0,1,1.871-.559,3.166,3.166,0,0,1,2.563,1.086,4.7,4.7,0,0,1,.914,3.109v.6H52.5a3,3,0,0,0,.73,2.02,2.3,2.3,0,0,0,1.777.77,2.517,2.517,0,0,0,1.3-.312,3.259,3.259,0,0,0,.93-.828l.883.688A3.55,3.55,0,0,1,54.93.156Zm-.18-7.578a1.928,1.928,0,0,0-1.469.637A3.1,3.1,0,0,0,52.547-5h4.234v-.109a2.753,2.753,0,0,0-.594-1.707A1.815,1.815,0,0,0,54.75-7.422ZM68.461,0H67.008V-9.633l-2.914,1.07V-9.875l4.141-1.555h.227Z" transform="translate(1084.3 8738.533)" fill="#12263f"/>
    <text id="Equipo_A" data-name="Equipo A" transform="translate(873.812 8896.159)" fill="#12263f" font-size="16" font-family="Roboto-Bold, Roboto" font-weight="700"><tspan x="0" y="0">Equipo A</tspan></text>
    <text id="Equipo_B" data-name="Equipo B" transform="translate(1289.021 8896.159)" fill="#12263f" font-size="16" font-family="Roboto-Bold, Roboto" font-weight="700"><tspan x="0" y="0">Equipo B</tspan></text>
    <text id="Paquete_2" data-name="Paquete 2" transform="translate(1225.586 8757.364)" fill="#12263f" font-size="16" font-family="Roboto-Regular, Roboto"><tspan x="0" y="0">Paquete 2</tspan></text>
    <path id="Trazado_194065" data-name="Trazado 194065" d="M9.435,20.069v-4.8H0V4.884H9.376V0L27.049,10.046Z" transform="matrix(-0.485, 0.875, -0.875, -0.485, 1267.702, 8773.421)" fill="#12263f"/>
    <g id="Grupo_152615" data-name="Grupo 152615" transform="translate(869.006 8682)">
      <text id="Servicios_orientados_a_conexin_" data-name="Servicios orientados
a conexin " transform="translate(7.689 17)" fill="#12263f" font-size="16" font-family="Roboto-Bold, Roboto" font-weight="700"><tspan x="0" y="0">Servicios orientados</tspan><tspan x="0" y="13">a conexin </tspan></text>
      <rect id="Rectngulo_44710" data-name="Rectngulo 44710" width="3.845" height="30.756" transform="translate(0 2.883)" fill="#ff6148"/>
    </g>
  </g>
</svg>
