<svg xmlns="http://www.w3.org/2000/svg" width="400" height="377" viewBox="0 0 400 377">
  <g id="Grupo_1077919" data-name="Grupo 1077919" transform="translate(-1020 -16551)">
    <g id="Grupo_1077918" data-name="Grupo 1077918">
      <g id="Grupo_1077917" data-name="Grupo 1077917">
        <g id="Grupo_1077916" data-name="Grupo 1077916">
          <g id="Grupo_1077915" data-name="Grupo 1077915">
            <g id="Grupo_1077914" data-name="Grupo 1077914">
              <g id="Grupo_1077913" data-name="Grupo 1077913">
                <g id="Grupo_1077912" data-name="Grupo 1077912">
                  <g id="Grupo_1077911" data-name="Grupo 1077911">
                    <g id="Grupo_1077773" data-name="Grupo 1077773">
                      <g id="Rectángulo_45025" data-name="Rectángulo 45025" transform="translate(1020 16551)" fill="#fff" stroke="#ffb476" stroke-width="2">
                        <path d="M20,0H400a0,0,0,0,1,0,0V377a0,0,0,0,1,0,0H0a0,0,0,0,1,0,0V20A20,20,0,0,1,20,0Z" stroke="none"/>
                        <path d="M20,1H399a0,0,0,0,1,0,0V376a0,0,0,0,1,0,0H1a0,0,0,0,1,0,0V20A19,19,0,0,1,20,1Z" fill="none"/>
                      </g>
                      <g id="Grupo_1077772" data-name="Grupo 1077772" transform="translate(0.084)">
                        <g id="Oey2kO" transform="translate(1071.917 16589.275)">
                          <g id="Grupo_151762" data-name="Grupo 151762" transform="translate(0 0)">
                            <path id="Trazado_194213" data-name="Trazado 194213" d="M909.068-1499.8c0-6.376-.015-12.27.006-18.162.015-4.49,2.36-6.538,7.565-6.549q17.574-.035,35.147,0c5.357.009,7.741,2.067,7.762,6.682.026,5.886.006,11.77.006,17.842h16.788c.05-.9.144-1.841.148-2.783.015-5.186-.052-10.372.028-15.557.062-3.984,2.542-6.154,7.1-6.173q18.191-.07,36.38,0c4.553.02,6.914,2.2,6.944,6.243.038,5.185,0,10.372.015,15.557,0,.87.082,1.741.132,2.751h16.966v-2.552c0-5.365-.046-10.729.02-16.094.045-3.686,2.46-5.875,6.71-5.9q18.5-.1,37,0c4.284.026,6.664,2.318,6.713,6.227.064,5.1.015,10.193.015,15.289v3.174h16.942v-6.831q0-5.23,0-10.461c.01-5.57,2.114-7.423,8.466-7.426q16.956-.01,33.913,0c5.98.005,8.1,1.887,8.1,7.159,0,5.709,0,11.419,0,17.557,4.467,0,8.734-.006,13,0,6.5.013,8.543,1.768,8.544,7.323,0,30.132,0,27,0,57.132,0,5.392-2.1,7.206-8.349,7.206q-139.663,0-279.325,0c-6.18,0-8.281-1.848-8.281-7.272,0-30.131,0-27,0-57.132,0-5.4,2.106-7.24,8.316-7.256C900.13-1499.807,904.422-1499.8,909.068-1499.8Zm261.479,60.445v-49.17H900.5v49.17Zm-181.079-73.914v13.256h24.71v-13.256Zm67.33,13.25h24.762V-1513.2H1056.8Zm-110.209.092V-1513.2H922v13.278Zm177.822-13.362V-1500h24.629v-13.286Z" transform="translate(-887.522 1524.544)" fill="#ffb476"/>
                            <path id="Trazado_194214" data-name="Trazado 194214" d="M1181.981-1408.231H908.561V-1457.4h273.42Z" transform="translate(-897.274 1493.421)" fill="#fff"/>
                            <path id="Trazado_194215" data-name="Trazado 194215" d="M1052.846-1503.524h24.63v13.256h-24.63Z" transform="translate(-951.314 1514.8)" fill="#fff"/>
                            <path id="Trazado_194216" data-name="Trazado 194216" d="M1162.034-1490.219V-1503.4h24.994v13.185Z" transform="translate(-992.706 1514.745)" fill="#fff"/>
                            <path id="Trazado_194217" data-name="Trazado 194217" d="M972.292-1490.127H943.429v-13.279h28.864Z" transform="translate(-913.436 1514.746)" fill="#fff"/>
                            <path id="Trazado_194218" data-name="Trazado 194218" d="M1271.68-1503.561h29.183v13.286H1271.68Z" transform="translate(-1034.869 1514.818)" fill="#fff"/>
                          </g>
                        </g>
                        <g id="Oey2kO-2" data-name="Oey2kO" transform="translate(1071.917 16797.496)">
                          <g id="Grupo_151762-2" data-name="Grupo 151762" transform="translate(0 0)">
                            <path id="Trazado_194213-2" data-name="Trazado 194213" d="M909.068-1499.8c0-6.376-.015-12.27.006-18.162.015-4.49,2.36-6.538,7.565-6.549q17.574-.035,35.147,0c5.357.009,7.741,2.067,7.762,6.682.026,5.886.006,11.77.006,17.842h16.788c.05-.9.144-1.841.148-2.783.015-5.186-.052-10.372.028-15.557.062-3.984,2.542-6.154,7.1-6.173q18.191-.07,36.38,0c4.553.02,6.914,2.2,6.944,6.243.038,5.185,0,10.372.015,15.557,0,.87.082,1.741.132,2.751h16.966v-2.552c0-5.365-.046-10.729.02-16.094.045-3.686,2.46-5.875,6.71-5.9q18.5-.1,37,0c4.284.026,6.664,2.318,6.713,6.227.064,5.1.015,10.193.015,15.289v3.174h16.942v-6.831q0-5.23,0-10.461c.01-5.57,2.114-7.423,8.466-7.426q16.956-.01,33.913,0c5.98.005,8.1,1.887,8.1,7.159,0,5.709,0,11.419,0,17.557,4.467,0,8.734-.006,13,0,6.5.013,8.543,1.768,8.544,7.323,0,30.132,0,27,0,57.132,0,5.392-2.1,7.206-8.349,7.206q-139.663,0-279.325,0c-6.18,0-8.281-1.848-8.281-7.272,0-30.131,0-27,0-57.132,0-5.4,2.106-7.24,8.316-7.256C900.13-1499.807,904.422-1499.8,909.068-1499.8Zm261.479,60.445v-49.17H900.5v49.17Zm-181.079-73.914v13.256h24.71v-13.256Zm67.33,13.25h24.762V-1513.2H1056.8Zm-110.209.092V-1513.2H922v13.278Zm177.822-13.362V-1500h24.629v-13.286Z" transform="translate(-887.522 1524.544)" fill="#12263f"/>
                            <path id="Trazado_194214-2" data-name="Trazado 194214" d="M1181.981-1408.231H908.561V-1457.4h273.42Z" transform="translate(-897.274 1493.421)" fill="#fff"/>
                            <path id="Trazado_194215-2" data-name="Trazado 194215" d="M1052.846-1503.524h24.63v13.256h-24.63Z" transform="translate(-951.314 1514.8)" fill="#fff"/>
                            <path id="Trazado_194216-2" data-name="Trazado 194216" d="M1162.034-1490.219V-1503.4h24.994v13.185Z" transform="translate(-992.706 1514.745)" fill="#fff"/>
                            <path id="Trazado_194217-2" data-name="Trazado 194217" d="M972.292-1490.127H943.429v-13.279h28.864Z" transform="translate(-913.436 1514.746)" fill="#fff"/>
                            <path id="Trazado_194218-2" data-name="Trazado 194218" d="M1271.68-1503.561h29.183v13.286H1271.68Z" transform="translate(-1034.869 1514.818)" fill="#fff"/>
                          </g>
                        </g>
                        <g id="Oey2kO-3" data-name="Oey2kO" transform="translate(1071.917 16693.385)">
                          <g id="Grupo_151762-3" data-name="Grupo 151762" transform="translate(0 0)">
                            <path id="Trazado_194213-3" data-name="Trazado 194213" d="M909.068-1499.8c0-6.376-.015-12.27.006-18.162.015-4.49,2.36-6.538,7.565-6.549q17.574-.035,35.147,0c5.357.009,7.741,2.067,7.762,6.682.026,5.886.006,11.77.006,17.842h16.788c.05-.9.144-1.841.148-2.783.015-5.186-.052-10.372.028-15.557.062-3.984,2.542-6.154,7.1-6.173q18.191-.07,36.38,0c4.553.02,6.914,2.2,6.944,6.243.038,5.185,0,10.372.015,15.557,0,.87.082,1.741.132,2.751h16.966v-2.552c0-5.365-.046-10.729.02-16.094.045-3.686,2.46-5.875,6.71-5.9q18.5-.1,37,0c4.284.026,6.664,2.318,6.713,6.227.064,5.1.015,10.193.015,15.289v3.174h16.942v-6.831q0-5.23,0-10.461c.01-5.57,2.114-7.423,8.466-7.426q16.956-.01,33.913,0c5.98.005,8.1,1.887,8.1,7.159,0,5.709,0,11.419,0,17.557,4.467,0,8.734-.006,13,0,6.5.013,8.543,1.768,8.544,7.323,0,30.132,0,27,0,57.132,0,5.392-2.1,7.206-8.349,7.206q-139.663,0-279.325,0c-6.18,0-8.281-1.848-8.281-7.272,0-30.131,0-27,0-57.132,0-5.4,2.106-7.24,8.316-7.256C900.13-1499.807,904.422-1499.8,909.068-1499.8Zm261.479,60.445v-49.17H900.5v49.17Zm-181.079-73.914v13.256h24.71v-13.256Zm67.33,13.25h24.762V-1513.2H1056.8Zm-110.209.092V-1513.2H922v13.278Zm177.822-13.362V-1500h24.629v-13.286Z" transform="translate(-887.522 1524.544)" fill="#b0c0d2"/>
                            <path id="Trazado_194214-3" data-name="Trazado 194214" d="M1181.981-1408.231H908.561V-1457.4h273.42Z" transform="translate(-897.274 1493.421)" fill="#fff"/>
                            <path id="Trazado_194215-3" data-name="Trazado 194215" d="M1052.846-1503.524h24.63v13.256h-24.63Z" transform="translate(-951.314 1514.8)" fill="#fff"/>
                            <path id="Trazado_194216-3" data-name="Trazado 194216" d="M1162.034-1490.219V-1503.4h24.994v13.185Z" transform="translate(-992.706 1514.745)" fill="#fff"/>
                            <path id="Trazado_194217-3" data-name="Trazado 194217" d="M972.292-1490.127H943.429v-13.279h28.864Z" transform="translate(-913.436 1514.746)" fill="#fff"/>
                            <path id="Trazado_194218-3" data-name="Trazado 194218" d="M1271.68-1503.561h29.183v13.286H1271.68Z" transform="translate(-1034.869 1514.818)" fill="#fff"/>
                          </g>
                        </g>
                        <text id="Software_de_aplicación" data-name="Software de aplicación" transform="translate(1126.916 16655)" fill="#12263f" font-size="18" font-family="Roboto-Black, Roboto" font-weight="800"><tspan x="0" y="0">Software de aplicación</tspan></text>
                        <text id="Infraestructura" transform="translate(1158.916 16866)" fill="#12263f" font-size="18" font-family="Roboto-Black, Roboto" font-weight="800"><tspan x="0" y="0">Infraestructura</tspan></text>
                        <text id="Plataformas_de_desarrollo" data-name="Plataformas de desarrollo" transform="translate(1113.916 16761)" fill="#12263f" font-size="18" font-family="Roboto-Black, Roboto" font-weight="800"><tspan x="0" y="0">Plataformas de desarrollo</tspan></text>
                      </g>
                    </g>
                  </g>
                </g>
              </g>
            </g>
          </g>
        </g>
      </g>
    </g>
  </g>
</svg>
