<svg xmlns="http://www.w3.org/2000/svg" xmlns:xlink="http://www.w3.org/1999/xlink" width="479.307" height="222.97" viewBox="0 0 479.307 222.97">
  <defs>
    <linearGradient id="linear-gradient" y1="0.5" x2="1" y2="0.5" gradientUnits="objectBoundingBox">
      <stop offset="0" stop-color="#fff"/>
      <stop offset="1" stop-color="#c7e0ea"/>
    </linearGradient>
    <linearGradient id="linear-gradient-3" y1="0.5" x2="1" y2="0.5" gradientUnits="objectBoundingBox">
      <stop offset="0" stop-color="#fff"/>
      <stop offset="1" stop-color="#d2e6ee"/>
    </linearGradient>
  </defs>
  <g id="Grupo_1078139" data-name="Grupo 1078139" transform="translate(5785 3457.857)">
    <g id="Grupo_1078138" data-name="Grupo 1078138">
      <g id="Grupo_1078137" data-name="Grupo 1078137">
        <g id="Grupo_1078136" data-name="Grupo 1078136">
          <g id="Grupo_1078135" data-name="Grupo 1078135">
            <g id="Grupo_1078134" data-name="Grupo 1078134">
              <g id="Grupo_1078133" data-name="Grupo 1078133">
                <g id="Grupo_1078132" data-name="Grupo 1078132">
                  <g id="Grupo_1078131" data-name="Grupo 1078131">
                    <g id="Grupo_1078130" data-name="Grupo 1078130">
                      <g id="Grupo_1078129" data-name="Grupo 1078129">
                        <g id="Grupo_1078128" data-name="Grupo 1078128">
                          <g id="Grupo_1078127" data-name="Grupo 1078127">
                            <g id="Grupo_1077525" data-name="Grupo 1077525">
                              <g id="Grupo_152615" data-name="Grupo 152615" transform="translate(-5785 -3460.74)">
                                <path id="Trazado_826481" data-name="Trazado 826481" d="M6.914-2.984A1.2,1.2,0,0,0,6.445-4a6.148,6.148,0,0,0-1.687-.75,11.963,11.963,0,0,1-1.93-.777A3.153,3.153,0,0,1,.891-8.352,2.747,2.747,0,0,1,1.41-10,3.389,3.389,0,0,1,2.9-11.125a5.616,5.616,0,0,1,2.184-.406,5.112,5.112,0,0,1,2.172.441,3.458,3.458,0,0,1,1.48,1.246,3.261,3.261,0,0,1,.527,1.828H6.922A1.534,1.534,0,0,0,6.43-9.23a2.023,2.023,0,0,0-1.383-.434A2.162,2.162,0,0,0,3.711-9.3a1.146,1.146,0,0,0-.477.957,1.1,1.1,0,0,0,.559.93,6.311,6.311,0,0,0,1.645.7A7.106,7.106,0,0,1,8.352-5.219,2.972,2.972,0,0,1,9.266-3,2.737,2.737,0,0,1,8.148-.684a4.891,4.891,0,0,1-3.008.84A5.808,5.808,0,0,1,2.75-.324,3.783,3.783,0,0,1,1.105-1.641,3.371,3.371,0,0,1,.539-3.578H2.891q0,1.883,2.25,1.883a2.189,2.189,0,0,0,1.3-.34A1.106,1.106,0,0,0,6.914-2.984ZM14.594.156A4.15,4.15,0,0,1,11.566-.984,4.054,4.054,0,0,1,10.4-4.023v-.219a5.106,5.106,0,0,1,.492-2.277,3.612,3.612,0,0,1,1.395-1.547,3.914,3.914,0,0,1,2.059-.543,3.508,3.508,0,0,1,2.73,1.094,4.444,4.444,0,0,1,1,3.1v.922H12.688a2.1,2.1,0,0,0,.66,1.328,2,2,0,0,0,1.395.5,2.437,2.437,0,0,0,2.039-.945l1.109,1.242A3.389,3.389,0,0,1,16.516-.246,4.511,4.511,0,0,1,14.594.156Zm-.258-6.937a1.414,1.414,0,0,0-1.09.453,2.341,2.341,0,0,0-.535,1.3h3.141v-.18a1.669,1.669,0,0,0-.406-1.16A1.459,1.459,0,0,0,14.336-6.781Zm9.766.445a6.134,6.134,0,0,0-.812-.062,1.654,1.654,0,0,0-1.68.867V0H19.352V-8.453h2.133l.063,1.008A2.092,2.092,0,0,1,23.43-8.609a2.366,2.366,0,0,1,.7.1Zm4.391,3.578,1.57-5.7h2.359L29.57,0H27.414L24.563-8.453h2.359ZM35.8,0H33.531V-8.453H35.8ZM33.4-10.641a1.112,1.112,0,0,1,.34-.836,1.277,1.277,0,0,1,.926-.328,1.28,1.28,0,0,1,.922.328,1.105,1.105,0,0,1,.344.836,1.108,1.108,0,0,1-.348.844,1.283,1.283,0,0,1-.918.328,1.283,1.283,0,0,1-.918-.328A1.108,1.108,0,0,1,33.4-10.641Zm7.773,8.977a1.481,1.481,0,0,0,1.016-.344,1.2,1.2,0,0,0,.406-.914h2.117a2.9,2.9,0,0,1-.469,1.574A3.093,3.093,0,0,1,42.98-.238a3.949,3.949,0,0,1-1.77.395A3.67,3.67,0,0,1,38.352-1,4.56,4.56,0,0,1,37.3-4.18v-.148a4.508,4.508,0,0,1,1.039-3.117A3.627,3.627,0,0,1,41.2-8.609a3.555,3.555,0,0,1,2.543.9,3.2,3.2,0,0,1,.973,2.4H42.594a1.539,1.539,0,0,0-.406-1.066,1.358,1.358,0,0,0-1.031-.41,1.361,1.361,0,0,0-1.191.574,3.324,3.324,0,0,0-.4,1.863v.234a3.366,3.366,0,0,0,.4,1.875A1.378,1.378,0,0,0,41.172-1.664ZM48.383,0H46.117V-8.453h2.266Zm-2.4-10.641a1.112,1.112,0,0,1,.34-.836,1.277,1.277,0,0,1,.926-.328,1.28,1.28,0,0,1,.922.328,1.105,1.105,0,0,1,.344.836,1.108,1.108,0,0,1-.348.844,1.283,1.283,0,0,1-.918.328,1.283,1.283,0,0,1-.918-.328A1.108,1.108,0,0,1,45.984-10.641ZM49.891-4.3a5.013,5.013,0,0,1,.484-2.242A3.546,3.546,0,0,1,51.77-8.07a4.069,4.069,0,0,1,2.113-.539,3.849,3.849,0,0,1,2.793,1.047,4.2,4.2,0,0,1,1.207,2.844l.016.578A4.418,4.418,0,0,1,56.813-1.02,3.775,3.775,0,0,1,53.9.156,3.793,3.793,0,0,1,50.98-1.016,4.5,4.5,0,0,1,49.891-4.2Zm2.258.164A3.151,3.151,0,0,0,52.6-2.3a1.5,1.5,0,0,0,1.3.637,1.5,1.5,0,0,0,1.281-.629A3.448,3.448,0,0,0,55.641-4.3a3.12,3.12,0,0,0-.461-1.828,1.5,1.5,0,0,0-1.3-.648,1.475,1.475,0,0,0-1.281.645A3.506,3.506,0,0,0,52.148-4.141Zm11.719,1.8a.727.727,0,0,0-.41-.652,4.659,4.659,0,0,0-1.316-.426q-3.016-.633-3.016-2.562a2.323,2.323,0,0,1,.934-1.879A3.766,3.766,0,0,1,62.5-8.609a4.053,4.053,0,0,1,2.574.758,2.388,2.388,0,0,1,.965,1.969H63.781a1.092,1.092,0,0,0-.312-.8A1.322,1.322,0,0,0,62.492-7a1.351,1.351,0,0,0-.883.258.814.814,0,0,0-.312.656.7.7,0,0,0,.355.605,3.657,3.657,0,0,0,1.2.4,9.8,9.8,0,0,1,1.422.379A2.336,2.336,0,0,1,66.063-2.43,2.2,2.2,0,0,1,65.07-.559a4.28,4.28,0,0,1-2.562.715,4.47,4.47,0,0,1-1.887-.379,3.166,3.166,0,0,1-1.293-1.039,2.414,2.414,0,0,1-.469-1.426H61a1.179,1.179,0,0,0,.445.922,1.766,1.766,0,0,0,1.109.32,1.635,1.635,0,0,0,.98-.246A.766.766,0,0,0,63.867-2.336Zm7.281-1.953a5.094,5.094,0,0,1,.887-3.148,2.877,2.877,0,0,1,2.426-1.172,2.589,2.589,0,0,1,2.039.922V-12h2.266V0H76.727l-.109-.9A2.657,2.657,0,0,1,74.445.156,2.869,2.869,0,0,1,72.051-1.02,5.258,5.258,0,0,1,71.148-4.289Zm2.258.164A3.328,3.328,0,0,0,73.82-2.3a1.349,1.349,0,0,0,1.2.633A1.511,1.511,0,0,0,76.5-2.555V-5.891a1.489,1.489,0,0,0-1.461-.883Q73.406-6.773,73.406-4.125Zm11,4.281A4.15,4.15,0,0,1,81.379-.984a4.054,4.054,0,0,1-1.168-3.039v-.219A5.106,5.106,0,0,1,80.7-6.52,3.612,3.612,0,0,1,82.1-8.066a3.914,3.914,0,0,1,2.059-.543,3.508,3.508,0,0,1,2.73,1.094,4.444,4.444,0,0,1,1,3.1v.922H82.5a2.1,2.1,0,0,0,.66,1.328,2,2,0,0,0,1.395.5,2.437,2.437,0,0,0,2.039-.945L87.7-1.367A3.389,3.389,0,0,1,86.328-.246,4.511,4.511,0,0,1,84.406.156Zm-.258-6.937a1.414,1.414,0,0,0-1.09.453,2.341,2.341,0,0,0-.535,1.3h3.141v-.18a1.669,1.669,0,0,0-.406-1.16A1.459,1.459,0,0,0,84.148-6.781Zm13.75.445a6.134,6.134,0,0,0-.812-.062,1.654,1.654,0,0,0-1.68.867V0H93.148V-8.453h2.133l.063,1.008a2.092,2.092,0,0,1,1.883-1.164,2.366,2.366,0,0,1,.7.1ZM102.875.156A4.15,4.15,0,0,1,99.848-.984,4.054,4.054,0,0,1,98.68-4.023v-.219a5.106,5.106,0,0,1,.492-2.277,3.612,3.612,0,0,1,1.395-1.547,3.914,3.914,0,0,1,2.059-.543,3.508,3.508,0,0,1,2.73,1.094,4.444,4.444,0,0,1,1,3.1v.922h-5.383a2.1,2.1,0,0,0,.66,1.328,2,2,0,0,0,1.395.5,2.437,2.437,0,0,0,2.039-.945l1.109,1.242A3.389,3.389,0,0,1,104.8-.246,4.511,4.511,0,0,1,102.875.156Zm-.258-6.937a1.414,1.414,0,0,0-1.09.453,2.341,2.341,0,0,0-.535,1.3h3.141v-.18a1.669,1.669,0,0,0-.406-1.16A1.459,1.459,0,0,0,102.617-6.781Zm4.664,2.492a5.094,5.094,0,0,1,.887-3.148,2.877,2.877,0,0,1,2.426-1.172,2.589,2.589,0,0,1,2.039.922V-12H114.9V0h-2.039l-.109-.9A2.657,2.657,0,0,1,110.578.156a2.869,2.869,0,0,1-2.395-1.176A5.258,5.258,0,0,1,107.281-4.289Zm2.258.164a3.328,3.328,0,0,0,.414,1.82,1.349,1.349,0,0,0,1.2.633,1.511,1.511,0,0,0,1.477-.883V-5.891a1.489,1.489,0,0,0-1.461-.883Q109.539-6.773,109.539-4.125Zm13.172-4.328.07.977a2.951,2.951,0,0,1,2.43-1.133,2.453,2.453,0,0,1,2,.789,3.682,3.682,0,0,1,.672,2.359V0h-2.258V-5.406a1.465,1.465,0,0,0-.312-1.043,1.4,1.4,0,0,0-1.039-.324,1.553,1.553,0,0,0-1.43.813V0h-2.258V-8.453ZM129.242-4.3a5.013,5.013,0,0,1,.484-2.242,3.546,3.546,0,0,1,1.395-1.523,4.069,4.069,0,0,1,2.113-.539,3.849,3.849,0,0,1,2.793,1.047,4.2,4.2,0,0,1,1.207,2.844l.016.578a4.418,4.418,0,0,1-1.086,3.121A3.775,3.775,0,0,1,133.25.156a3.793,3.793,0,0,1-2.918-1.172,4.5,4.5,0,0,1-1.09-3.187Zm2.258.164a3.151,3.151,0,0,0,.453,1.84,1.5,1.5,0,0,0,1.3.637,1.5,1.5,0,0,0,1.281-.629,3.448,3.448,0,0,0,.461-2.012,3.12,3.12,0,0,0-.461-1.828,1.5,1.5,0,0,0-1.3-.648,1.475,1.475,0,0,0-1.281.645A3.506,3.506,0,0,0,131.5-4.141ZM.516,8.7A5.013,5.013,0,0,1,1,6.453,3.546,3.546,0,0,1,2.395,4.93a4.069,4.069,0,0,1,2.113-.539A3.849,3.849,0,0,1,7.3,5.438,4.2,4.2,0,0,1,8.508,8.281l.016.578A4.418,4.418,0,0,1,7.438,11.98a3.775,3.775,0,0,1-2.914,1.176,3.793,3.793,0,0,1-2.918-1.172A4.5,4.5,0,0,1,.516,8.8Zm2.258.164a3.151,3.151,0,0,0,.453,1.84,1.5,1.5,0,0,0,1.3.637A1.5,1.5,0,0,0,5.8,10.707,3.448,3.448,0,0,0,6.266,8.7,3.12,3.12,0,0,0,5.8,6.867a1.5,1.5,0,0,0-1.3-.648,1.475,1.475,0,0,0-1.281.645A3.506,3.506,0,0,0,2.773,8.859Zm11.891-2.2a6.134,6.134,0,0,0-.812-.062,1.654,1.654,0,0,0-1.68.867V13H9.914V4.547h2.133l.063,1.008a2.092,2.092,0,0,1,1.883-1.164,2.366,2.366,0,0,1,.7.1ZM18.133,13H15.867V4.547h2.266Zm-2.4-10.641a1.112,1.112,0,0,1,.34-.836,1.465,1.465,0,0,1,1.848,0,1.105,1.105,0,0,1,.344.836,1.108,1.108,0,0,1-.348.844,1.448,1.448,0,0,1-1.836,0A1.108,1.108,0,0,1,15.734,2.359Zm8.148,10.8a4.15,4.15,0,0,1-3.027-1.141,4.054,4.054,0,0,1-1.168-3.039V8.758A5.106,5.106,0,0,1,20.18,6.48a3.612,3.612,0,0,1,1.395-1.547,3.914,3.914,0,0,1,2.059-.543,3.508,3.508,0,0,1,2.73,1.094,4.444,4.444,0,0,1,1,3.1v.922H21.977a2.1,2.1,0,0,0,.66,1.328,2,2,0,0,0,1.395.5,2.437,2.437,0,0,0,2.039-.945l1.109,1.242A3.389,3.389,0,0,1,25.8,12.754,4.511,4.511,0,0,1,23.883,13.156Zm-.258-6.937a1.414,1.414,0,0,0-1.09.453A2.341,2.341,0,0,0,22,7.969h3.141v-.18a1.669,1.669,0,0,0-.406-1.16A1.459,1.459,0,0,0,23.625,6.219Zm7.094-1.672.07.977a2.951,2.951,0,0,1,2.43-1.133,2.453,2.453,0,0,1,2,.789,3.682,3.682,0,0,1,.672,2.359V13H33.633V7.594a1.465,1.465,0,0,0-.312-1.043,1.4,1.4,0,0,0-1.039-.324,1.553,1.553,0,0,0-1.43.813V13H28.594V4.547ZM40.3,2.469V4.547H41.75V6.2H40.3v4.219a1.007,1.007,0,0,0,.18.672.9.9,0,0,0,.688.2,3.6,3.6,0,0,0,.664-.055v1.711a4.648,4.648,0,0,1-1.367.2,2.156,2.156,0,0,1-2.422-2.4V6.2H36.813V4.547h1.234V2.469ZM47.906,13a2.507,2.507,0,0,1-.227-.758,2.732,2.732,0,0,1-2.133.914,3,3,0,0,1-2.059-.719,2.312,2.312,0,0,1-.816-1.812,2.389,2.389,0,0,1,1-2.062,4.915,4.915,0,0,1,2.879-.727h1.039V7.352a1.393,1.393,0,0,0-.3-.937,1.183,1.183,0,0,0-.949-.352,1.345,1.345,0,0,0-.895.273.929.929,0,0,0-.324.75H42.859a2.268,2.268,0,0,1,.453-1.359,3,3,0,0,1,1.281-.98,4.669,4.669,0,0,1,1.859-.355,3.689,3.689,0,0,1,2.48.785,2.747,2.747,0,0,1,.918,2.207v3.664a4.041,4.041,0,0,0,.336,1.82V13Zm-1.867-1.57a1.945,1.945,0,0,0,.922-.223,1.462,1.462,0,0,0,.625-.6V9.156h-.844q-1.7,0-1.8,1.172l-.008.133a.9.9,0,0,0,.3.7A1.153,1.153,0,0,0,46.039,11.43Zm5.2-2.719a5.094,5.094,0,0,1,.887-3.148,2.877,2.877,0,0,1,2.426-1.172,2.589,2.589,0,0,1,2.039.922V1h2.266V13H56.813l-.109-.9a2.657,2.657,0,0,1-2.172,1.055,2.869,2.869,0,0,1-2.395-1.176A5.258,5.258,0,0,1,51.234,8.711Zm2.258.164a3.328,3.328,0,0,0,.414,1.82,1.349,1.349,0,0,0,1.2.633,1.511,1.511,0,0,0,1.477-.883V7.109a1.489,1.489,0,0,0-1.461-.883Q53.492,6.227,53.492,8.875ZM60.25,8.7a5.013,5.013,0,0,1,.484-2.242A3.546,3.546,0,0,1,62.129,4.93a4.069,4.069,0,0,1,2.113-.539,3.849,3.849,0,0,1,2.793,1.047,4.2,4.2,0,0,1,1.207,2.844l.016.578a4.418,4.418,0,0,1-1.086,3.121,4.209,4.209,0,0,1-5.832,0A4.5,4.5,0,0,1,60.25,8.8Zm2.258.164a3.151,3.151,0,0,0,.453,1.84,1.629,1.629,0,0,0,2.578.008A3.448,3.448,0,0,0,66,8.7a3.12,3.12,0,0,0-.461-1.828,1.5,1.5,0,0,0-1.3-.648,1.475,1.475,0,0,0-1.281.645A3.506,3.506,0,0,0,62.508,8.859Zm11.719,1.8a.727.727,0,0,0-.41-.652A4.659,4.659,0,0,0,72.5,9.586q-3.016-.633-3.016-2.562a2.323,2.323,0,0,1,.934-1.879,3.766,3.766,0,0,1,2.441-.754,4.053,4.053,0,0,1,2.574.758A2.388,2.388,0,0,1,76.4,7.117H74.141a1.092,1.092,0,0,0-.312-.8A1.322,1.322,0,0,0,72.852,6a1.351,1.351,0,0,0-.883.258.814.814,0,0,0-.312.656.7.7,0,0,0,.355.605,3.657,3.657,0,0,0,1.2.4,9.8,9.8,0,0,1,1.422.379,2.336,2.336,0,0,1,1.789,2.273,2.2,2.2,0,0,1-.992,1.871,4.28,4.28,0,0,1-2.562.715,4.47,4.47,0,0,1-1.887-.379,3.166,3.166,0,0,1-1.293-1.039,2.414,2.414,0,0,1-.469-1.426h2.141a1.179,1.179,0,0,0,.445.922,1.766,1.766,0,0,0,1.109.32,1.635,1.635,0,0,0,.98-.246A.766.766,0,0,0,74.227,10.664ZM86.758,13a2.507,2.507,0,0,1-.227-.758,2.732,2.732,0,0,1-2.133.914,3,3,0,0,1-2.059-.719,2.312,2.312,0,0,1-.816-1.812,2.389,2.389,0,0,1,1-2.062A4.915,4.915,0,0,1,85.4,7.836h1.039V7.352a1.393,1.393,0,0,0-.3-.937,1.183,1.183,0,0,0-.949-.352,1.345,1.345,0,0,0-.895.273.929.929,0,0,0-.324.75H81.711a2.268,2.268,0,0,1,.453-1.359,3,3,0,0,1,1.281-.98A4.669,4.669,0,0,1,85.3,4.391a3.689,3.689,0,0,1,2.48.785A2.747,2.747,0,0,1,88.7,7.383v3.664a4.041,4.041,0,0,0,.336,1.82V13Zm-1.867-1.57a1.945,1.945,0,0,0,.922-.223,1.462,1.462,0,0,0,.625-.6V9.156h-.844q-1.7,0-1.8,1.172l-.008.133a.9.9,0,0,0,.3.7A1.153,1.153,0,0,0,84.891,11.43Zm13.047-.094a1.481,1.481,0,0,0,1.016-.344,1.2,1.2,0,0,0,.406-.914h2.117a2.9,2.9,0,0,1-.469,1.574,3.093,3.093,0,0,1-1.262,1.109,3.949,3.949,0,0,1-1.77.395A3.67,3.67,0,0,1,95.117,12,4.56,4.56,0,0,1,94.07,8.82V8.672a4.508,4.508,0,0,1,1.039-3.117,3.627,3.627,0,0,1,2.852-1.164,3.555,3.555,0,0,1,2.543.9,3.2,3.2,0,0,1,.973,2.4H99.359a1.539,1.539,0,0,0-.406-1.066,1.513,1.513,0,0,0-2.223.164,3.324,3.324,0,0,0-.4,1.863v.234a3.366,3.366,0,0,0,.4,1.875A1.378,1.378,0,0,0,97.938,11.336ZM102.414,8.7a5.013,5.013,0,0,1,.484-2.242,3.546,3.546,0,0,1,1.395-1.523,4.069,4.069,0,0,1,2.113-.539A3.849,3.849,0,0,1,109.2,5.438a4.2,4.2,0,0,1,1.207,2.844l.016.578a4.418,4.418,0,0,1-1.086,3.121,4.209,4.209,0,0,1-5.832,0,4.5,4.5,0,0,1-1.09-3.187Zm2.258.164a3.151,3.151,0,0,0,.453,1.84,1.629,1.629,0,0,0,2.578.008,3.448,3.448,0,0,0,.461-2.012,3.12,3.12,0,0,0-.461-1.828,1.5,1.5,0,0,0-1.3-.648,1.475,1.475,0,0,0-1.281.645A3.506,3.506,0,0,0,104.672,8.859Zm9.219-4.312.07.977a2.951,2.951,0,0,1,2.43-1.133,2.453,2.453,0,0,1,2,.789,3.682,3.682,0,0,1,.672,2.359V13H116.8V7.594a1.465,1.465,0,0,0-.312-1.043,1.4,1.4,0,0,0-1.039-.324,1.553,1.553,0,0,0-1.43.813V13h-2.258V4.547Zm10.773,8.609a4.15,4.15,0,0,1-3.027-1.141,4.054,4.054,0,0,1-1.168-3.039V8.758a5.106,5.106,0,0,1,.492-2.277,3.612,3.612,0,0,1,1.395-1.547,3.914,3.914,0,0,1,2.059-.543,3.508,3.508,0,0,1,2.73,1.094,4.444,4.444,0,0,1,1,3.1v.922h-5.383a2.1,2.1,0,0,0,.66,1.328,2,2,0,0,0,1.395.5,2.437,2.437,0,0,0,2.039-.945l1.109,1.242a3.389,3.389,0,0,1-1.375,1.121A4.511,4.511,0,0,1,124.664,13.156Zm-.258-6.937a1.414,1.414,0,0,0-1.09.453,2.341,2.341,0,0,0-.535,1.3h3.141v-.18a1.669,1.669,0,0,0-.406-1.16A1.459,1.459,0,0,0,124.406,6.219Zm8.234.852,1.422-2.523h2.414L134.07,8.688,136.578,13h-2.422l-1.508-2.656L131.148,13h-2.43l2.508-4.312-2.4-4.141h2.422Zm7.3,5.93H137.68V4.547h2.266Zm-2.4-10.641a1.112,1.112,0,0,1,.34-.836,1.465,1.465,0,0,1,1.848,0,1.105,1.105,0,0,1,.344.836,1.109,1.109,0,0,1-.348.844,1.448,1.448,0,0,1-1.836,0A1.109,1.109,0,0,1,137.547,2.359ZM141.453,8.7a5.013,5.013,0,0,1,.484-2.242,3.546,3.546,0,0,1,1.395-1.523,4.069,4.069,0,0,1,2.113-.539,3.849,3.849,0,0,1,2.793,1.047,4.2,4.2,0,0,1,1.207,2.844l.016.578a4.418,4.418,0,0,1-1.086,3.121,4.209,4.209,0,0,1-5.832,0,4.5,4.5,0,0,1-1.09-3.187Zm2.258.164a3.151,3.151,0,0,0,.453,1.84,1.629,1.629,0,0,0,2.578.008A3.448,3.448,0,0,0,147.2,8.7a3.12,3.12,0,0,0-.461-1.828,1.5,1.5,0,0,0-1.3-.648,1.475,1.475,0,0,0-1.281.645A3.506,3.506,0,0,0,143.711,8.859ZM145.891,1h2.461l-2.164,2.422h-1.836Zm7.039,3.547.07.977a2.951,2.951,0,0,1,2.43-1.133,2.453,2.453,0,0,1,2,.789,3.682,3.682,0,0,1,.672,2.359V13h-2.258V7.594a1.465,1.465,0,0,0-.312-1.043,1.4,1.4,0,0,0-1.039-.324,1.553,1.553,0,0,0-1.43.813V13H150.8V4.547Z" transform="translate(7.689 17)" fill="#12263f"/>
                                <rect id="Rectángulo_44710" data-name="Rectángulo 44710" width="3.845" height="30.756" transform="translate(0 2.883)" fill="#ff6148"/>
                              </g>
                              <g id="Grupo_1077524" data-name="Grupo 1077524" transform="translate(-6654.512 -12144.914)">
                                <g id="Grupo_41977" data-name="Grupo 41977" transform="translate(869.512 8762.292)">
                                  <g id="Grupo_55332" data-name="Grupo 55332" transform="translate(5.395)">
                                    <path id="Trazado_119461" data-name="Trazado 119461" d="M275.1,527.6l14.353,8.3v-47.37l-14.353-8.3Z" transform="translate(-275.097 -460.458)" fill="#001a2e"/>
                                    <path id="Trazado_119462" data-name="Trazado 119462" d="M277.155,484.877l10.873,6.322v2.726L277.155,487.6Zm0,6.763,10.873,6.322v-2.726l-10.873-6.322Zm0,4.037L288.028,502v-2.726l-10.873-6.322Zm0,4.037,10.873,6.323V503.31l-10.873-6.322Zm0,27.7,10.873,6.323v-2.726l-10.873-6.322Z" transform="translate(-275.724 -461.872)" fill="url(#linear-gradient)"/>
                                    <path id="Trazado_119463" data-name="Trazado 119463" d="M329.828,463.733l-34.092,19.683v47.461l34.092-19.683Z" transform="translate(-281.382 -455.433)" fill="#104769"/>
                                    <path id="Trazado_119464" data-name="Trazado 119464" d="M275.1,471.573,309.189,451.8l14.353,8.3L289.45,479.781Z" transform="translate(-275.097 -451.799)" fill="#e2f0f4"/>
                                  </g>
                                  <g id="Grupo_55333" data-name="Grupo 55333" transform="translate(23.655 29.006)">
                                    <path id="Trazado_119465" data-name="Trazado 119465" d="M301.353,539.944l38.39,22.542V520.5l-38.39-22.542Z" transform="translate(-301.353 -494.861)" fill="#e2f0f4"/>
                                    <path id="Trazado_119466" data-name="Trazado 119466" d="M303.176,502.072l35.3,20.789v35.9l-35.3-20.789Z" transform="translate(-301.908 -496.115)" fill="#001a2e"/>
                                    <path id="Trazado_119467" data-name="Trazado 119467" d="M361.1,525.919l-4.545,3.013V571l4.545-3.013Z" transform="translate(-318.163 -503.377)" fill="#001a2e"/>
                                    <path id="Trazado_119468" data-name="Trazado 119468" d="M301.353,496.6l4.545-3.094,38.39,22.542-4.545,3.013Z" transform="translate(-301.353 -493.506)" fill="#104769"/>
                                  </g>
                                  <g id="Grupo_55335" data-name="Grupo 55335" transform="translate(0 76.936)">
                                    <path id="Trazado_119469" data-name="Trazado 119469" d="M267.34,575.468l17.89-13.043,38.39,22.542-17.89,12.962Z" transform="translate(-267.34 -562.425)" fill="#104769"/>
                                    <g id="Grupo_55334" data-name="Grupo 55334" transform="translate(3.497 2.879)">
                                      <path id="Trazado_119470" data-name="Trazado 119470" d="M294.872,570.216l19.738,11.6,1.628-1.147-19.752-11.586Z" transform="translate(-279.221 -567.332)" fill="#e2f0f4"/>
                                      <path id="Trazado_119471" data-name="Trazado 119471" d="M312.121,583.766l1-.706-19.771-11.583-.975.683Z" transform="translate(-278.461 -568.06)" fill="#e2f0f4"/>
                                      <path id="Trazado_119472" data-name="Trazado 119472" d="M313.61,602.726l-1.983-1.162-1.436,1.006,1.99,1.163Z" transform="translate(-283.887 -577.223)" fill="#e2f0f4"/>
                                      <path id="Trazado_119473" data-name="Trazado 119473" d="M329.911,588.7l-1.637,1.146,1.941,1.141,1.633-1.151Z" transform="translate(-289.394 -573.304)" fill="#e2f0f4"/>
                                      <path id="Trazado_119474" data-name="Trazado 119474" d="M324.372,587.55l1.939,1.14,1.63-1.149-1.935-1.135Z" transform="translate(-288.205 -572.606)" fill="#e2f0f4"/>
                                      <path id="Trazado_119475" data-name="Trazado 119475" d="M326.789,591.075l-1.011.708,1.947,1.145,1.01-.712Z" transform="translate(-288.633 -574.028)" fill="#e2f0f4"/>
                                      <path id="Trazado_119476" data-name="Trazado 119476" d="M296.532,594.581l1.436-1.012-19.807-11.6-1.466,1.026Z" transform="translate(-273.686 -571.254)" fill="#e2f0f4"/>
                                      <path id="Trazado_119477" data-name="Trazado 119477" d="M299.671,592.524l1-.706-19.8-11.6-.975.683Z" transform="translate(-274.661 -570.722)" fill="#e2f0f4"/>
                                      <path id="Trazado_119478" data-name="Trazado 119478" d="M307.141,587.269l1-.706-19.783-11.59-.975.683Z" transform="translate(-276.941 -569.124)" fill="#e2f0f4"/>
                                      <path id="Trazado_119479" data-name="Trazado 119479" d="M309.7,600.434l-1.98-1.16-1.44,1.008,1.988,1.161Z" transform="translate(-282.695 -576.525)" fill="#e2f0f4"/>
                                      <path id="Trazado_119480" data-name="Trazado 119480" d="M304.651,589.021l1-.706-19.789-11.594-.975.683Z" transform="translate(-276.181 -569.657)" fill="#e2f0f4"/>
                                      <path id="Trazado_119481" data-name="Trazado 119481" d="M302.161,590.772l1-.706-19.795-11.6-.975.683Z" transform="translate(-275.421 -570.189)" fill="#e2f0f4"/>
                                      <path id="Trazado_119482" data-name="Trazado 119482" d="M309.631,585.518l1-.706-19.777-11.587-.975.683Z" transform="translate(-277.701 -568.592)" fill="#e2f0f4"/>
                                      <path id="Trazado_119483" data-name="Trazado 119483" d="M318.841,594.137l1.006-.709-1.956-1.146-1.007.7Z" transform="translate(-285.925 -574.396)" fill="#e2f0f4"/>
                                      <path id="Trazado_119484" data-name="Trazado 119484" d="M316.351,595.889l1.006-.709-1.962-1.15-1.006.7Z" transform="translate(-285.165 -574.928)" fill="#e2f0f4"/>
                                      <path id="Trazado_119485" data-name="Trazado 119485" d="M324.293,592.823l-1.011.708,1.953,1.148,1.01-.712Z" transform="translate(-287.873 -574.561)" fill="#e2f0f4"/>
                                      <path id="Trazado_119486" data-name="Trazado 119486" d="M321.331,592.385l1.006-.709-1.95-1.143-1.007.705Z" transform="translate(-286.685 -573.863)" fill="#e2f0f4"/>
                                      <path id="Trazado_119487" data-name="Trazado 119487" d="M322.883,588.786l-1.007.705,1.945,1.143,1.006-.709Z" transform="translate(-287.445 -573.331)" fill="#e2f0f4"/>
                                      <path id="Trazado_119488" data-name="Trazado 119488" d="M313.861,597.64l1.006-.709-1.968-1.153-1.006.7Z" transform="translate(-284.405 -575.46)" fill="#e2f0f4"/>
                                      <path id="Trazado_119489" data-name="Trazado 119489" d="M321.8,594.572l-1.011.708,1.959,1.152,1.01-.712Z" transform="translate(-287.113 -575.093)" fill="#e2f0f4"/>
                                      <path id="Trazado_119490" data-name="Trazado 119490" d="M311.371,599.392l1.006-.709-1.974-1.157-1.006.7Z" transform="translate(-283.645 -575.993)" fill="#e2f0f4"/>
                                      <path id="Trazado_119491" data-name="Trazado 119491" d="M319.3,596.32l-1.011.708,1.965,1.155,1.01-.712Z" transform="translate(-286.353 -575.625)" fill="#e2f0f4"/>
                                      <path id="Trazado_119492" data-name="Trazado 119492" d="M316.805,598.068l-1.011.708,1.971,1.159,1.01-.712Z" transform="translate(-285.593 -576.158)" fill="#e2f0f4"/>
                                      <path id="Trazado_119493" data-name="Trazado 119493" d="M316.286,600.974l-1.977-1.158-1.01.708,1.977,1.162Z" transform="translate(-284.833 -576.69)" fill="#e2f0f4"/>
                                      <path id="Trazado_119494" data-name="Trazado 119494" d="M281.306,577.26l-2.251-1.319-.971.679,2.252,1.324Z" transform="translate(-274.109 -569.419)" fill="#e2f0f4"/>
                                      <path id="Trazado_119495" data-name="Trazado 119495" d="M318.018,607.144l2.6,1.52,1.433-.994-2.606-1.527Z" transform="translate(-286.27 -578.617)" fill="#e2f0f4"/>
                                      <path id="Trazado_119496" data-name="Trazado 119496" d="M321.1,605.109l2.606,1.532,1.028-.713-2.615-1.532Z" transform="translate(-287.21 -578.085)" fill="#e2f0f4"/>
                                      <path id="Trazado_119497" data-name="Trazado 119497" d="M276.106,580.762l-2.267-1.328-1.471,1.028,2.276,1.33Z" transform="translate(-272.368 -570.483)" fill="#e2f0f4"/>
                                      <path id="Trazado_119498" data-name="Trazado 119498" d="M278.816,579.011l-2.259-1.323-.971.679,2.26,1.328Z" transform="translate(-273.348 -569.951)" fill="#e2f0f4"/>
                                      <path id="Trazado_119499" data-name="Trazado 119499" d="M323.6,603.361l2.615,1.537,1.028-.713-2.625-1.538Z" transform="translate(-287.97 -577.552)" fill="#e2f0f4"/>
                                      <path id="Trazado_119500" data-name="Trazado 119500" d="M328.592,599.865l2.634,1.548,1.029-.713-2.644-1.549Z" transform="translate(-289.49 -576.488)" fill="#e2f0f4"/>
                                      <path id="Trazado_119501" data-name="Trazado 119501" d="M326.1,601.613l2.625,1.543,1.029-.713-2.634-1.543Z" transform="translate(-288.73 -577.02)" fill="#e2f0f4"/>
                                      <path id="Trazado_119502" data-name="Trazado 119502" d="M333.583,596.369l2.653,1.559,1.029-.713-2.662-1.56Z" transform="translate(-291.01 -575.423)" fill="#e2f0f4"/>
                                      <path id="Trazado_119503" data-name="Trazado 119503" d="M336.079,594.43l2.662,1.565,1.654-1.147-2.674-1.568Z" transform="translate(-291.77 -574.7)" fill="#e2f0f4"/>
                                      <path id="Trazado_119504" data-name="Trazado 119504" d="M331.087,598.117l2.643,1.554,1.029-.713-2.653-1.554Z" transform="translate(-290.25 -575.955)" fill="#e2f0f4"/>
                                      <path id="Trazado_119505" data-name="Trazado 119505" d="M283.8,575.509l-2.244-1.315-.971.679,2.245,1.319Z" transform="translate(-274.869 -568.888)" fill="#e2f0f4"/>
                                      <path id="Trazado_119506" data-name="Trazado 119506" d="M328.2,595.113l-1.015.711,1.956,1.15,1.014-.715Z" transform="translate(-289.062 -575.258)" fill="#e2f0f4"/>
                                      <path id="Trazado_119507" data-name="Trazado 119507" d="M325.7,596.861l-1.015.711,1.962,1.153,1.014-.715Z" transform="translate(-288.302 -575.79)" fill="#e2f0f4"/>
                                      <path id="Trazado_119508" data-name="Trazado 119508" d="M323.208,598.609l-1.015.711,1.967,1.156,1.014-.715Z" transform="translate(-287.542 -576.323)" fill="#e2f0f4"/>
                                      <path id="Trazado_119509" data-name="Trazado 119509" d="M286.288,573.758l-2.236-1.31-.972.679,2.237,1.315Z" transform="translate(-275.63 -568.356)" fill="#e2f0f4"/>
                                      <path id="Trazado_119510" data-name="Trazado 119510" d="M318.216,602.106l-1.015.711,1.979,1.163,1.014-.715Z" transform="translate(-286.021 -577.388)" fill="#e2f0f4"/>
                                      <path id="Trazado_119511" data-name="Trazado 119511" d="M317.522,605.017l-1.985-1.163-1.433,1,1.992,1.164Z" transform="translate(-285.078 -577.92)" fill="#e2f0f4"/>
                                      <path id="Trazado_119512" data-name="Trazado 119512" d="M320.712,600.357l-1.015.711,1.973,1.16,1.014-.715Z" transform="translate(-286.782 -576.855)" fill="#e2f0f4"/>
                                      <path id="Trazado_119513" data-name="Trazado 119513" d="M288.779,572.007,286.55,570.7l-.972.679,2.229,1.31Z" transform="translate(-276.391 -567.824)" fill="#e2f0f4"/>
                                      <path id="Trazado_119514" data-name="Trazado 119514" d="M291.269,570.255l-2.22-1.3-.972.679,2.221,1.306Z" transform="translate(-277.152 -567.292)" fill="#e2f0f4"/>
                                      <path id="Trazado_119515" data-name="Trazado 119515" d="M330.7,593.365l-1.015.711,1.95,1.146,1.015-.715Z" transform="translate(-289.822 -574.726)" fill="#e2f0f4"/>
                                      <path id="Trazado_119516" data-name="Trazado 119516" d="M294.4,567.859l-2.209-1.3-1.613,1.128,2.214,1.3Z" transform="translate(-277.913 -566.564)" fill="#e2f0f4"/>
                                      <path id="Trazado_119517" data-name="Trazado 119517" d="M333.816,590.988l-1.639,1.148,1.944,1.143,1.636-1.153Z" transform="translate(-290.582 -574.002)" fill="#e2f0f4"/>
                                    </g>
                                  </g>
                                </g>
                                <g id="Grupo_55340" data-name="Grupo 55340" transform="translate(1277.993 8762.292)">
                                  <g id="Grupo_55332-2" data-name="Grupo 55332" transform="translate(5.395)">
                                    <path id="Trazado_119461-2" data-name="Trazado 119461" d="M275.1,527.6l14.353,8.3v-47.37l-14.353-8.3Z" transform="translate(-275.097 -460.458)" fill="#001a2e"/>
                                    <path id="Trazado_119462-2" data-name="Trazado 119462" d="M277.155,484.877l10.873,6.322v2.726L277.155,487.6Zm0,6.763,10.873,6.322v-2.726l-10.873-6.322Zm0,4.037L288.028,502v-2.726l-10.873-6.322Zm0,4.037,10.873,6.323V503.31l-10.873-6.322Zm0,27.7,10.873,6.323v-2.726l-10.873-6.322Z" transform="translate(-275.724 -461.872)" fill="url(#linear-gradient)"/>
                                    <path id="Trazado_119463-2" data-name="Trazado 119463" d="M329.828,463.733l-34.092,19.683v47.461l34.092-19.683Z" transform="translate(-281.382 -455.433)" fill="#104769"/>
                                    <path id="Trazado_119464-2" data-name="Trazado 119464" d="M275.1,471.573,309.189,451.8l14.353,8.3L289.45,479.781Z" transform="translate(-275.097 -451.799)" fill="#e2f0f4"/>
                                  </g>
                                  <g id="Grupo_55333-2" data-name="Grupo 55333" transform="translate(23.655 29.006)">
                                    <path id="Trazado_119465-2" data-name="Trazado 119465" d="M301.353,539.944l38.39,22.542V520.5l-38.39-22.542Z" transform="translate(-301.353 -494.861)" fill="#e2f0f4"/>
                                    <path id="Trazado_119466-2" data-name="Trazado 119466" d="M303.176,502.072l35.3,20.789v35.9l-35.3-20.789Z" transform="translate(-301.908 -496.115)" fill="#001a2e"/>
                                    <path id="Trazado_119467-2" data-name="Trazado 119467" d="M361.1,525.919l-4.545,3.013V571l4.545-3.013Z" transform="translate(-318.163 -503.377)" fill="#001a2e"/>
                                    <path id="Trazado_119468-2" data-name="Trazado 119468" d="M301.353,496.6l4.545-3.094,38.39,22.542-4.545,3.013Z" transform="translate(-301.353 -493.506)" fill="#104769"/>
                                  </g>
                                  <g id="Grupo_55335-2" data-name="Grupo 55335" transform="translate(0 76.936)">
                                    <path id="Trazado_119469-2" data-name="Trazado 119469" d="M267.34,575.468l17.89-13.043,38.39,22.542-17.89,12.962Z" transform="translate(-267.34 -562.425)" fill="#104769"/>
                                    <g id="Grupo_55334-2" data-name="Grupo 55334" transform="translate(3.497 2.879)">
                                      <path id="Trazado_119470-2" data-name="Trazado 119470" d="M294.872,570.216l19.738,11.6,1.628-1.147-19.752-11.586Z" transform="translate(-279.221 -567.332)" fill="#e2f0f4"/>
                                      <path id="Trazado_119471-2" data-name="Trazado 119471" d="M312.121,583.766l1-.706-19.771-11.583-.975.683Z" transform="translate(-278.461 -568.06)" fill="#e2f0f4"/>
                                      <path id="Trazado_119472-2" data-name="Trazado 119472" d="M313.61,602.726l-1.983-1.162-1.436,1.006,1.99,1.163Z" transform="translate(-283.887 -577.223)" fill="#e2f0f4"/>
                                      <path id="Trazado_119473-2" data-name="Trazado 119473" d="M329.911,588.7l-1.637,1.146,1.941,1.141,1.633-1.151Z" transform="translate(-289.394 -573.304)" fill="#e2f0f4"/>
                                      <path id="Trazado_119474-2" data-name="Trazado 119474" d="M324.372,587.55l1.939,1.14,1.63-1.149-1.935-1.135Z" transform="translate(-288.205 -572.606)" fill="#e2f0f4"/>
                                      <path id="Trazado_119475-2" data-name="Trazado 119475" d="M326.789,591.075l-1.011.708,1.947,1.145,1.01-.712Z" transform="translate(-288.633 -574.028)" fill="#e2f0f4"/>
                                      <path id="Trazado_119476-2" data-name="Trazado 119476" d="M296.532,594.581l1.436-1.012-19.807-11.6-1.466,1.026Z" transform="translate(-273.686 -571.254)" fill="#e2f0f4"/>
                                      <path id="Trazado_119477-2" data-name="Trazado 119477" d="M299.671,592.524l1-.706-19.8-11.6-.975.683Z" transform="translate(-274.661 -570.722)" fill="#e2f0f4"/>
                                      <path id="Trazado_119478-2" data-name="Trazado 119478" d="M307.141,587.269l1-.706-19.783-11.59-.975.683Z" transform="translate(-276.941 -569.124)" fill="#e2f0f4"/>
                                      <path id="Trazado_119479-2" data-name="Trazado 119479" d="M309.7,600.434l-1.98-1.16-1.44,1.008,1.988,1.161Z" transform="translate(-282.695 -576.525)" fill="#e2f0f4"/>
                                      <path id="Trazado_119480-2" data-name="Trazado 119480" d="M304.651,589.021l1-.706-19.789-11.594-.975.683Z" transform="translate(-276.181 -569.657)" fill="#e2f0f4"/>
                                      <path id="Trazado_119481-2" data-name="Trazado 119481" d="M302.161,590.772l1-.706-19.795-11.6-.975.683Z" transform="translate(-275.421 -570.189)" fill="#e2f0f4"/>
                                      <path id="Trazado_119482-2" data-name="Trazado 119482" d="M309.631,585.518l1-.706-19.777-11.587-.975.683Z" transform="translate(-277.701 -568.592)" fill="#e2f0f4"/>
                                      <path id="Trazado_119483-2" data-name="Trazado 119483" d="M318.841,594.137l1.006-.709-1.956-1.146-1.007.7Z" transform="translate(-285.925 -574.396)" fill="#e2f0f4"/>
                                      <path id="Trazado_119484-2" data-name="Trazado 119484" d="M316.351,595.889l1.006-.709-1.962-1.15-1.006.7Z" transform="translate(-285.165 -574.928)" fill="#e2f0f4"/>
                                      <path id="Trazado_119485-2" data-name="Trazado 119485" d="M324.293,592.823l-1.011.708,1.953,1.148,1.01-.712Z" transform="translate(-287.873 -574.561)" fill="#e2f0f4"/>
                                      <path id="Trazado_119486-2" data-name="Trazado 119486" d="M321.331,592.385l1.006-.709-1.95-1.143-1.007.705Z" transform="translate(-286.685 -573.863)" fill="#e2f0f4"/>
                                      <path id="Trazado_119487-2" data-name="Trazado 119487" d="M322.883,588.786l-1.007.705,1.945,1.143,1.006-.709Z" transform="translate(-287.445 -573.331)" fill="#e2f0f4"/>
                                      <path id="Trazado_119488-2" data-name="Trazado 119488" d="M313.861,597.64l1.006-.709-1.968-1.153-1.006.7Z" transform="translate(-284.405 -575.46)" fill="#e2f0f4"/>
                                      <path id="Trazado_119489-2" data-name="Trazado 119489" d="M321.8,594.572l-1.011.708,1.959,1.152,1.01-.712Z" transform="translate(-287.113 -575.093)" fill="#e2f0f4"/>
                                      <path id="Trazado_119490-2" data-name="Trazado 119490" d="M311.371,599.392l1.006-.709-1.974-1.157-1.006.7Z" transform="translate(-283.645 -575.993)" fill="#e2f0f4"/>
                                      <path id="Trazado_119491-2" data-name="Trazado 119491" d="M319.3,596.32l-1.011.708,1.965,1.155,1.01-.712Z" transform="translate(-286.353 -575.625)" fill="#e2f0f4"/>
                                      <path id="Trazado_119492-2" data-name="Trazado 119492" d="M316.805,598.068l-1.011.708,1.971,1.159,1.01-.712Z" transform="translate(-285.593 -576.158)" fill="#e2f0f4"/>
                                      <path id="Trazado_119493-2" data-name="Trazado 119493" d="M316.286,600.974l-1.977-1.158-1.01.708,1.977,1.162Z" transform="translate(-284.833 -576.69)" fill="#e2f0f4"/>
                                      <path id="Trazado_119494-2" data-name="Trazado 119494" d="M281.306,577.26l-2.251-1.319-.971.679,2.252,1.324Z" transform="translate(-274.109 -569.419)" fill="#e2f0f4"/>
                                      <path id="Trazado_119495-2" data-name="Trazado 119495" d="M318.018,607.144l2.6,1.52,1.433-.994-2.606-1.527Z" transform="translate(-286.27 -578.617)" fill="#e2f0f4"/>
                                      <path id="Trazado_119496-2" data-name="Trazado 119496" d="M321.1,605.109l2.606,1.532,1.028-.713-2.615-1.532Z" transform="translate(-287.21 -578.085)" fill="#e2f0f4"/>
                                      <path id="Trazado_119497-2" data-name="Trazado 119497" d="M276.106,580.762l-2.267-1.328-1.471,1.028,2.276,1.33Z" transform="translate(-272.368 -570.483)" fill="#e2f0f4"/>
                                      <path id="Trazado_119498-2" data-name="Trazado 119498" d="M278.816,579.011l-2.259-1.323-.971.679,2.26,1.328Z" transform="translate(-273.348 -569.951)" fill="#e2f0f4"/>
                                      <path id="Trazado_119499-2" data-name="Trazado 119499" d="M323.6,603.361l2.615,1.537,1.028-.713-2.625-1.538Z" transform="translate(-287.97 -577.552)" fill="#e2f0f4"/>
                                      <path id="Trazado_119500-2" data-name="Trazado 119500" d="M328.592,599.865l2.634,1.548,1.029-.713-2.644-1.549Z" transform="translate(-289.49 -576.488)" fill="#e2f0f4"/>
                                      <path id="Trazado_119501-2" data-name="Trazado 119501" d="M326.1,601.613l2.625,1.543,1.029-.713-2.634-1.543Z" transform="translate(-288.73 -577.02)" fill="#e2f0f4"/>
                                      <path id="Trazado_119502-2" data-name="Trazado 119502" d="M333.583,596.369l2.653,1.559,1.029-.713-2.662-1.56Z" transform="translate(-291.01 -575.423)" fill="#e2f0f4"/>
                                      <path id="Trazado_119503-2" data-name="Trazado 119503" d="M336.079,594.43l2.662,1.565,1.654-1.147-2.674-1.568Z" transform="translate(-291.77 -574.7)" fill="#e2f0f4"/>
                                      <path id="Trazado_119504-2" data-name="Trazado 119504" d="M331.087,598.117l2.643,1.554,1.029-.713-2.653-1.554Z" transform="translate(-290.25 -575.955)" fill="#e2f0f4"/>
                                      <path id="Trazado_119505-2" data-name="Trazado 119505" d="M283.8,575.509l-2.244-1.315-.971.679,2.245,1.319Z" transform="translate(-274.869 -568.888)" fill="#e2f0f4"/>
                                      <path id="Trazado_119506-2" data-name="Trazado 119506" d="M328.2,595.113l-1.015.711,1.956,1.15,1.014-.715Z" transform="translate(-289.062 -575.258)" fill="#e2f0f4"/>
                                      <path id="Trazado_119507-2" data-name="Trazado 119507" d="M325.7,596.861l-1.015.711,1.962,1.153,1.014-.715Z" transform="translate(-288.302 -575.79)" fill="#e2f0f4"/>
                                      <path id="Trazado_119508-2" data-name="Trazado 119508" d="M323.208,598.609l-1.015.711,1.967,1.156,1.014-.715Z" transform="translate(-287.542 -576.323)" fill="#e2f0f4"/>
                                      <path id="Trazado_119509-2" data-name="Trazado 119509" d="M286.288,573.758l-2.236-1.31-.972.679,2.237,1.315Z" transform="translate(-275.63 -568.356)" fill="#e2f0f4"/>
                                      <path id="Trazado_119510-2" data-name="Trazado 119510" d="M318.216,602.106l-1.015.711,1.979,1.163,1.014-.715Z" transform="translate(-286.021 -577.388)" fill="#e2f0f4"/>
                                      <path id="Trazado_119511-2" data-name="Trazado 119511" d="M317.522,605.017l-1.985-1.163-1.433,1,1.992,1.164Z" transform="translate(-285.078 -577.92)" fill="#e2f0f4"/>
                                      <path id="Trazado_119512-2" data-name="Trazado 119512" d="M320.712,600.357l-1.015.711,1.973,1.16,1.014-.715Z" transform="translate(-286.782 -576.855)" fill="#e2f0f4"/>
                                      <path id="Trazado_119513-2" data-name="Trazado 119513" d="M288.779,572.007,286.55,570.7l-.972.679,2.229,1.31Z" transform="translate(-276.391 -567.824)" fill="#e2f0f4"/>
                                      <path id="Trazado_119514-2" data-name="Trazado 119514" d="M291.269,570.255l-2.22-1.3-.972.679,2.221,1.306Z" transform="translate(-277.152 -567.292)" fill="#e2f0f4"/>
                                      <path id="Trazado_119515-2" data-name="Trazado 119515" d="M330.7,593.365l-1.015.711,1.95,1.146,1.015-.715Z" transform="translate(-289.822 -574.726)" fill="#e2f0f4"/>
                                      <path id="Trazado_119516-2" data-name="Trazado 119516" d="M294.4,567.859l-2.209-1.3-1.613,1.128,2.214,1.3Z" transform="translate(-277.913 -566.564)" fill="#e2f0f4"/>
                                      <path id="Trazado_119517-2" data-name="Trazado 119517" d="M333.816,590.988l-1.639,1.148,1.944,1.143,1.636-1.153Z" transform="translate(-290.582 -574.002)" fill="#e2f0f4"/>
                                    </g>
                                  </g>
                                </g>
                                <g id="Grupo_55336" data-name="Grupo 55336" transform="translate(1009.655 8767.226)">
                                  <path id="Trazado_82776" data-name="Trazado 82776" d="M-219.1,479.736c0,.038-.014.075-.017.113a2.929,2.929,0,0,1-.07.459c-.008.032-.006.063-.015.095s-.029.07-.041.106a3.266,3.266,0,0,1-.147.382c-.019.042-.028.085-.049.127-.01.021-.027.042-.039.063a4.254,4.254,0,0,1-.253.413c-.025.036-.041.074-.067.111,0,.007-.013.014-.017.021a5.554,5.554,0,0,1-.44.527c-.005.005-.009.011-.014.017-.034.036-.077.07-.112.106-.131.132-.266.262-.415.391-.02.017-.035.035-.055.052-.051.043-.112.084-.164.127-.137.112-.279.222-.43.332-.038.028-.07.057-.109.084s-.107.068-.157.1q-.244.167-.509.33c-.058.036-.109.074-.169.11-.036.021-.078.042-.115.063q-.346.2-.725.4c-.05.026-.093.053-.144.079l-.034.016c-.33.168-.68.333-1.044.5-.03.014-.057.028-.087.042-.06.027-.13.051-.191.078q-.5.216-1.038.425c-.066.026-.125.053-.192.078l-.109.038q-.732.275-1.531.535c-.044.015-.083.03-.127.045-.124.04-.255.078-.38.117-.188.059-.375.117-.568.175s-.4.117-.605.175-.4.113-.6.169l-.215.06c-.094.025-.2.048-.29.073q-.535.14-1.089.273l-.479.114q-.713.166-1.457.322l-.12.027-.023,0q-.731.151-1.492.292l-.426.075c-.37.066-.742.133-1.121.2-.2.032-.4.063-.595.094-.333.053-.665.105-1,.155-.221.033-.447.063-.672.095-.324.045-.649.09-.979.133-.235.03-.472.06-.71.089-.328.04-.657.079-.99.116l-.744.081q-.5.052-1,.1c-.254.024-.508.048-.765.071-.343.031-.69.059-1.038.087-.252.02-.5.041-.76.059-.365.027-.735.051-1.1.075-.184.011-.364.026-.548.037l-.143.007q-1.2.07-2.431.118l-.218.01c-.139.005-.281.007-.42.012q-.74.025-1.489.042c-.14,0-.277.009-.417.012l-.3,0c-.427.007-.857.011-1.286.014-.18,0-.357.005-.538.006h-.411q-.841,0-1.673-.01l-.088,0q-.978-.013-1.942-.04h-.015l-.2-.007q-.86-.025-1.708-.062l-.113,0c-.174-.008-.344-.018-.517-.027-.426-.021-.85-.041-1.271-.066l-.218-.011c-.17-.01-.335-.024-.5-.035q-.584-.038-1.162-.079l-.316-.022c-.141-.011-.279-.024-.42-.036q-.571-.046-1.133-.1c-.134-.013-.273-.022-.407-.035-.1-.01-.205-.022-.309-.032q-.6-.059-1.2-.124c-.148-.016-.3-.029-.447-.046l-.169-.021q-.857-.1-1.692-.207l-.108-.014-.013,0c-.614-.081-1.215-.169-1.808-.259l-.17-.024c-.108-.017-.211-.036-.319-.053q-.715-.113-1.408-.234c-.1-.018-.211-.034-.312-.052l-.186-.036c-.638-.116-1.264-.236-1.873-.363l-.078-.015-.159-.036q-1.043-.22-2.025-.461c-.046-.011-.1-.021-.141-.032l-.07-.018q-.614-.153-1.2-.313l-.12-.032c-.431-.119-.85-.241-1.258-.365l-.048-.014c-.3-.09-.581-.183-.864-.276l-.176-.057q-.534-.178-1.037-.364c-.1-.037-.193-.075-.292-.112-.231-.088-.461-.175-.682-.265-.121-.049-.236-.1-.354-.15-.188-.079-.377-.158-.557-.239-.123-.055-.239-.112-.358-.168-.165-.077-.331-.155-.489-.234-.118-.059-.23-.119-.343-.179-.149-.078-.3-.156-.437-.235-.11-.062-.215-.125-.321-.187-.133-.078-.264-.158-.39-.237-.1-.064-.2-.129-.294-.194q-.179-.12-.346-.242-.135-.1-.263-.2c-.106-.082-.206-.165-.3-.248-.079-.068-.157-.134-.231-.2-.091-.084-.177-.169-.261-.254-.068-.069-.134-.137-.2-.206-.078-.086-.148-.173-.218-.261-.054-.069-.11-.137-.16-.206-.065-.09-.12-.181-.176-.272-.041-.068-.086-.135-.122-.2-.051-.1-.091-.192-.133-.288-.028-.065-.06-.129-.083-.194a2.932,2.932,0,0,1-.089-.325c-.013-.054-.033-.109-.042-.163a2.845,2.845,0,0,1-.045-.494h0v15.292a2.846,2.846,0,0,0,.045.495c.01.055.029.109.042.163a3.082,3.082,0,0,0,.09.325c.023.065.056.128.083.193.041.1.082.194.133.29.036.067.081.134.122.2.056.091.112.183.177.273.05.069.105.137.159.2.07.088.141.175.219.262.062.069.129.136.2.2.084.085.17.17.262.255.074.067.152.135.231.2.1.083.2.165.3.248q.128.1.263.2.167.121.346.241c.1.065.194.131.3.195.125.079.255.158.386.236.107.063.213.127.325.189.14.078.286.156.433.233.114.06.226.12.345.18.158.08.324.157.49.235.119.055.235.112.356.166.18.081.369.161.558.24.118.05.232.1.354.15.22.089.451.177.681.264.1.038.193.076.293.113q.5.184,1.035.362c.066.022.137.044.2.065.291.1.584.19.888.283q.611.186,1.256.364l.116.031q.59.161,1.206.315l.2.048q.987.242,2.037.464l.227.049c.61.127,1.237.248,1.877.364l.5.088q.693.122,1.408.235c.163.026.324.052.489.077.594.091,1.194.178,1.808.26l.121.015q.834.11,1.692.207c.2.023.41.045.616.067q.594.064,1.2.124l.716.066q.562.051,1.133.1c.244.02.489.04.735.058.388.029.78.055,1.173.081.236.015.47.031.707.045.424.025.852.046,1.281.067.208.01.415.022.625.031q.847.036,1.708.062l.209.007q.967.028,1.947.04.873.011,1.757.013c.318,0,.632,0,.949-.007.43,0,.86-.007,1.286-.015.241,0,.481-.01.721-.015q.749-.016,1.489-.042l.638-.022q1.229-.048,2.431-.118c.23-.014.458-.029.686-.044.373-.024.746-.048,1.115-.075.249-.018.5-.038.743-.058.354-.028.707-.057,1.056-.088l.751-.07q.507-.049,1.007-.1l.742-.081q.5-.056.99-.117c.237-.029.474-.058.709-.088.333-.043.662-.089.989-.134.22-.03.441-.061.659-.093.342-.05.677-.1,1.013-.156.2-.032.4-.062.59-.094.379-.063.751-.129,1.121-.2.141-.025.286-.049.426-.075q.759-.141,1.492-.292l.143-.031c.5-.1.984-.212,1.461-.323.159-.036.315-.075.471-.112q.558-.135,1.1-.274c.168-.044.339-.088.5-.132.206-.056.406-.113.607-.17s.4-.114.6-.173.387-.118.577-.177c.168-.053.336-.106.5-.159q.8-.26,1.532-.536c.1-.038.2-.078.3-.116q.54-.209,1.041-.426c.091-.04.186-.078.275-.118.364-.163.714-.328,1.045-.5.062-.031.118-.064.178-.1.251-.132.494-.266.725-.4.1-.057.19-.115.284-.173q.265-.163.509-.33c.091-.062.181-.124.267-.187.151-.109.293-.22.43-.332.073-.059.15-.118.219-.178.15-.13.285-.26.416-.391.04-.041.087-.082.126-.123a5.539,5.539,0,0,0,.44-.527c.032-.043.055-.087.084-.13a4.233,4.233,0,0,0,.253-.414c.033-.063.059-.127.088-.19a3.232,3.232,0,0,0,.147-.382c.021-.066.039-.133.056-.2a2.94,2.94,0,0,0,.07-.459c0-.068.019-.135.019-.2V479.646Q-219.1,479.691-219.1,479.736Z" transform="translate(291.218 -469.709)" fill="url(#linear-gradient-3)"/>
                                  <path id="Trazado_82777" data-name="Trazado 82777" d="M-255.157,461.386c-19.92,0-36.061,4.449-36.061,9.937s16.141,9.94,36.061,9.94,36.061-4.449,36.061-9.94S-235.246,461.386-255.157,461.386Z" transform="translate(291.218 -461.386)" fill="#e8e8e8"/>
                                </g>
                                <g id="Grupo_55339" data-name="Grupo 55339" transform="translate(1009.655 8836.815)">
                                  <path id="Trazado_82776-2" data-name="Trazado 82776" d="M-219.1,479.736c0,.038-.014.075-.017.113a2.929,2.929,0,0,1-.07.459c-.008.032-.006.063-.015.095s-.029.07-.041.106a3.266,3.266,0,0,1-.147.382c-.019.042-.028.085-.049.127-.01.021-.027.042-.039.063a4.254,4.254,0,0,1-.253.413c-.025.036-.041.074-.067.111,0,.007-.013.014-.017.021a5.554,5.554,0,0,1-.44.527c-.005.005-.009.011-.014.017-.034.036-.077.07-.112.106-.131.132-.266.262-.415.391-.02.017-.035.035-.055.052-.051.043-.112.084-.164.127-.137.112-.279.222-.43.332-.038.028-.07.057-.109.084s-.107.068-.157.1q-.244.167-.509.33c-.058.036-.109.074-.169.11-.036.021-.078.042-.115.063q-.346.2-.725.4c-.05.026-.093.053-.144.079l-.034.016c-.33.168-.68.333-1.044.5-.03.014-.057.028-.087.042-.06.027-.13.051-.191.078q-.5.216-1.038.425c-.066.026-.125.053-.192.078l-.109.038q-.732.275-1.531.535c-.044.015-.083.03-.127.045-.124.04-.255.078-.38.117-.188.059-.375.117-.568.175s-.4.117-.605.175-.4.113-.6.169l-.215.06c-.094.025-.2.048-.29.073q-.535.14-1.089.273l-.479.114q-.713.166-1.457.322l-.12.027-.023,0q-.731.151-1.492.292l-.426.075c-.37.066-.742.133-1.121.2-.2.032-.4.063-.595.094-.333.053-.665.105-1,.155-.221.033-.447.063-.672.095-.324.045-.649.09-.979.133-.235.03-.472.06-.71.089-.328.04-.657.079-.99.116l-.744.081q-.5.052-1,.1c-.254.024-.508.048-.765.071-.343.031-.69.059-1.038.087-.252.02-.5.041-.76.059-.365.027-.735.051-1.1.075-.184.011-.364.026-.548.037l-.143.007q-1.2.07-2.431.118l-.218.01c-.139.005-.281.007-.42.012q-.74.025-1.489.042c-.14,0-.277.009-.417.012l-.3,0c-.427.007-.857.011-1.286.014-.18,0-.357.005-.538.006h-.411q-.841,0-1.673-.01l-.088,0q-.978-.013-1.942-.04h-.015l-.2-.007q-.86-.025-1.708-.062l-.113,0c-.174-.008-.344-.018-.517-.027-.426-.021-.85-.041-1.271-.066l-.218-.011c-.17-.01-.335-.024-.5-.035q-.584-.038-1.162-.079l-.316-.022c-.141-.011-.279-.024-.42-.036q-.571-.046-1.133-.1c-.134-.013-.273-.022-.407-.035-.1-.01-.205-.022-.309-.032q-.6-.059-1.2-.124c-.148-.016-.3-.029-.447-.046l-.169-.021q-.857-.1-1.692-.207l-.108-.014-.013,0c-.614-.081-1.215-.169-1.808-.259l-.17-.024c-.108-.017-.211-.036-.319-.053q-.715-.113-1.408-.234c-.1-.018-.211-.034-.312-.052l-.186-.036c-.638-.116-1.264-.236-1.873-.363l-.078-.015-.159-.036q-1.043-.22-2.025-.461c-.046-.011-.1-.021-.141-.032l-.07-.018q-.614-.153-1.2-.313l-.12-.032c-.431-.119-.85-.241-1.258-.365l-.048-.014c-.3-.09-.581-.183-.864-.276l-.176-.057q-.534-.178-1.037-.364c-.1-.037-.193-.075-.292-.112-.231-.088-.461-.175-.682-.265-.121-.049-.236-.1-.354-.15-.188-.079-.377-.158-.557-.239-.123-.055-.239-.112-.358-.168-.165-.077-.331-.155-.489-.234-.118-.059-.23-.119-.343-.179-.149-.078-.3-.156-.437-.235-.11-.062-.215-.125-.321-.187-.133-.078-.264-.158-.39-.237-.1-.064-.2-.129-.294-.194q-.179-.12-.346-.242-.135-.1-.263-.2c-.106-.082-.206-.165-.3-.248-.079-.068-.157-.134-.231-.2-.091-.084-.177-.169-.261-.254-.068-.069-.134-.137-.2-.206-.078-.086-.148-.173-.218-.261-.054-.069-.11-.137-.16-.206-.065-.09-.12-.181-.176-.272-.041-.068-.086-.135-.122-.2-.051-.1-.091-.192-.133-.288-.028-.065-.06-.129-.083-.194a2.932,2.932,0,0,1-.089-.325c-.013-.054-.033-.109-.042-.163a2.845,2.845,0,0,1-.045-.494h0v15.292a2.846,2.846,0,0,0,.045.495c.01.055.029.109.042.163a3.082,3.082,0,0,0,.09.325c.023.065.056.128.083.193.041.1.082.194.133.29.036.067.081.134.122.2.056.091.112.183.177.273.05.069.105.137.159.2.07.088.141.175.219.262.062.069.129.136.2.2.084.085.17.17.262.255.074.067.152.135.231.2.1.083.2.165.3.248q.128.1.263.2.167.121.346.241c.1.065.194.131.3.195.125.079.255.158.386.236.107.063.213.127.325.189.14.078.286.156.433.233.114.06.226.12.345.18.158.08.324.157.49.235.119.055.235.112.356.166.18.081.369.161.558.24.118.05.232.1.354.15.22.089.451.177.681.264.1.038.193.076.293.113q.5.184,1.035.362c.066.022.137.044.2.065.291.1.584.19.888.283q.611.186,1.256.364l.116.031q.59.161,1.206.315l.2.048q.987.242,2.037.464l.227.049c.61.127,1.237.248,1.877.364l.5.088q.693.122,1.408.235c.163.026.324.052.489.077.594.091,1.194.178,1.808.26l.121.015q.834.11,1.692.207c.2.023.41.045.616.067q.594.064,1.2.124l.716.066q.562.051,1.133.1c.244.02.489.04.735.058.388.029.78.055,1.173.081.236.015.47.031.707.045.424.025.852.046,1.281.067.208.01.415.022.625.031q.847.036,1.708.062l.209.007q.967.028,1.947.04.873.011,1.757.013c.318,0,.632,0,.949-.007.43,0,.86-.007,1.286-.015.241,0,.481-.01.721-.015q.749-.016,1.489-.042l.638-.022q1.229-.048,2.431-.118c.23-.014.458-.029.686-.044.373-.024.746-.048,1.115-.075.249-.018.5-.038.743-.058.354-.028.707-.057,1.056-.088l.751-.07q.507-.049,1.007-.1l.742-.081q.5-.056.99-.117c.237-.029.474-.058.709-.088.333-.043.662-.089.989-.134.22-.03.441-.061.659-.093.342-.05.677-.1,1.013-.156.2-.032.4-.062.59-.094.379-.063.751-.129,1.121-.2.141-.025.286-.049.426-.075q.759-.141,1.492-.292l.143-.031c.5-.1.984-.212,1.461-.323.159-.036.315-.075.471-.112q.558-.135,1.1-.274c.168-.044.339-.088.5-.132.206-.056.406-.113.607-.17s.4-.114.6-.173.387-.118.577-.177c.168-.053.336-.106.5-.159q.8-.26,1.532-.536c.1-.038.2-.078.3-.116q.54-.209,1.041-.426c.091-.04.186-.078.275-.118.364-.163.714-.328,1.045-.5.062-.031.118-.064.178-.1.251-.132.494-.266.725-.4.1-.057.19-.115.284-.173q.265-.163.509-.33c.091-.062.181-.124.267-.187.151-.109.293-.22.43-.332.073-.059.15-.118.219-.178.15-.13.285-.26.416-.391.04-.041.087-.082.126-.123a5.539,5.539,0,0,0,.44-.527c.032-.043.055-.087.084-.13a4.233,4.233,0,0,0,.253-.414c.033-.063.059-.127.088-.19a3.232,3.232,0,0,0,.147-.382c.021-.066.039-.133.056-.2a2.94,2.94,0,0,0,.07-.459c0-.068.019-.135.019-.2V479.646Q-219.1,479.691-219.1,479.736Z" transform="translate(291.218 -469.709)" fill="url(#linear-gradient-3)"/>
                                  <path id="Trazado_82777-2" data-name="Trazado 82777" d="M-255.157,461.386c-19.92,0-36.061,4.449-36.061,9.937s16.141,9.94,36.061,9.94,36.061-4.449,36.061-9.94S-235.246,461.386-255.157,461.386Z" transform="translate(291.218 -461.386)" fill="#e8e8e8"/>
                                </g>
                                <g id="Grupo_55337" data-name="Grupo 55337" transform="translate(1153.951 8767.226)">
                                  <path id="Trazado_82776-3" data-name="Trazado 82776" d="M-219.1,479.736c0,.038-.014.075-.017.113a2.929,2.929,0,0,1-.07.459c-.008.032-.006.063-.015.095s-.029.07-.041.106a3.266,3.266,0,0,1-.147.382c-.019.042-.028.085-.049.127-.01.021-.027.042-.039.063a4.254,4.254,0,0,1-.253.413c-.025.036-.041.074-.067.111,0,.007-.013.014-.017.021a5.554,5.554,0,0,1-.44.527c-.005.005-.009.011-.014.017-.034.036-.077.07-.112.106-.131.132-.266.262-.415.391-.02.017-.035.035-.055.052-.051.043-.112.084-.164.127-.137.112-.279.222-.43.332-.038.028-.07.057-.109.084s-.107.068-.157.1q-.244.167-.509.33c-.058.036-.109.074-.169.11-.036.021-.078.042-.115.063q-.346.2-.725.4c-.05.026-.093.053-.144.079l-.034.016c-.33.168-.68.333-1.044.5-.03.014-.057.028-.087.042-.06.027-.13.051-.191.078q-.5.216-1.038.425c-.066.026-.125.053-.192.078l-.109.038q-.732.275-1.531.535c-.044.015-.083.03-.127.045-.124.04-.255.078-.38.117-.188.059-.375.117-.568.175s-.4.117-.605.175-.4.113-.6.169l-.215.06c-.094.025-.2.048-.29.073q-.535.14-1.089.273l-.479.114q-.713.166-1.457.322l-.12.027-.023,0q-.731.151-1.492.292l-.426.075c-.37.066-.742.133-1.121.2-.2.032-.4.063-.595.094-.333.053-.665.105-1,.155-.221.033-.447.063-.672.095-.324.045-.649.09-.979.133-.235.03-.472.06-.71.089-.328.04-.657.079-.99.116l-.744.081q-.5.052-1,.1c-.254.024-.508.048-.765.071-.343.031-.69.059-1.038.087-.252.02-.5.041-.76.059-.365.027-.735.051-1.1.075-.184.011-.364.026-.548.037l-.143.007q-1.2.07-2.431.118l-.218.01c-.139.005-.281.007-.42.012q-.74.025-1.489.042c-.14,0-.277.009-.417.012l-.3,0c-.427.007-.857.011-1.286.014-.18,0-.357.005-.538.006h-.411q-.841,0-1.673-.01l-.088,0q-.978-.013-1.942-.04h-.015l-.2-.007q-.86-.025-1.708-.062l-.113,0c-.174-.008-.344-.018-.517-.027-.426-.021-.85-.041-1.271-.066l-.218-.011c-.17-.01-.335-.024-.5-.035q-.584-.038-1.162-.079l-.316-.022c-.141-.011-.279-.024-.42-.036q-.571-.046-1.133-.1c-.134-.013-.273-.022-.407-.035-.1-.01-.205-.022-.309-.032q-.6-.059-1.2-.124c-.148-.016-.3-.029-.447-.046l-.169-.021q-.857-.1-1.692-.207l-.108-.014-.013,0c-.614-.081-1.215-.169-1.808-.259l-.17-.024c-.108-.017-.211-.036-.319-.053q-.715-.113-1.408-.234c-.1-.018-.211-.034-.312-.052l-.186-.036c-.638-.116-1.264-.236-1.873-.363l-.078-.015-.159-.036q-1.043-.22-2.025-.461c-.046-.011-.1-.021-.141-.032l-.07-.018q-.614-.153-1.2-.313l-.12-.032c-.431-.119-.85-.241-1.258-.365l-.048-.014c-.3-.09-.581-.183-.864-.276l-.176-.057q-.534-.178-1.037-.364c-.1-.037-.193-.075-.292-.112-.231-.088-.461-.175-.682-.265-.121-.049-.236-.1-.354-.15-.188-.079-.377-.158-.557-.239-.123-.055-.239-.112-.358-.168-.165-.077-.331-.155-.489-.234-.118-.059-.23-.119-.343-.179-.149-.078-.3-.156-.437-.235-.11-.062-.215-.125-.321-.187-.133-.078-.264-.158-.39-.237-.1-.064-.2-.129-.294-.194q-.179-.12-.346-.242-.135-.1-.263-.2c-.106-.082-.206-.165-.3-.248-.079-.068-.157-.134-.231-.2-.091-.084-.177-.169-.261-.254-.068-.069-.134-.137-.2-.206-.078-.086-.148-.173-.218-.261-.054-.069-.11-.137-.16-.206-.065-.09-.12-.181-.176-.272-.041-.068-.086-.135-.122-.2-.051-.1-.091-.192-.133-.288-.028-.065-.06-.129-.083-.194a2.932,2.932,0,0,1-.089-.325c-.013-.054-.033-.109-.042-.163a2.845,2.845,0,0,1-.045-.494h0v15.292a2.846,2.846,0,0,0,.045.495c.01.055.029.109.042.163a3.082,3.082,0,0,0,.09.325c.023.065.056.128.083.193.041.1.082.194.133.29.036.067.081.134.122.2.056.091.112.183.177.273.05.069.105.137.159.2.07.088.141.175.219.262.062.069.129.136.2.2.084.085.17.17.262.255.074.067.152.135.231.2.1.083.2.165.3.248q.128.1.263.2.167.121.346.241c.1.065.194.131.3.195.125.079.255.158.386.236.107.063.213.127.325.189.14.078.286.156.433.233.114.06.226.12.345.18.158.08.324.157.49.235.119.055.235.112.356.166.18.081.369.161.558.24.118.05.232.1.354.15.22.089.451.177.681.264.1.038.193.076.293.113q.5.184,1.035.362c.066.022.137.044.2.065.291.1.584.19.888.283q.611.186,1.256.364l.116.031q.59.161,1.206.315l.2.048q.987.242,2.037.464l.227.049c.61.127,1.237.248,1.877.364l.5.088q.693.122,1.408.235c.163.026.324.052.489.077.594.091,1.194.178,1.808.26l.121.015q.834.11,1.692.207c.2.023.41.045.616.067q.594.064,1.2.124l.716.066q.562.051,1.133.1c.244.02.489.04.735.058.388.029.78.055,1.173.081.236.015.47.031.707.045.424.025.852.046,1.281.067.208.01.415.022.625.031q.847.036,1.708.062l.209.007q.967.028,1.947.04.873.011,1.757.013c.318,0,.632,0,.949-.007.43,0,.86-.007,1.286-.015.241,0,.481-.01.721-.015q.749-.016,1.489-.042l.638-.022q1.229-.048,2.431-.118c.23-.014.458-.029.686-.044.373-.024.746-.048,1.115-.075.249-.018.5-.038.743-.058.354-.028.707-.057,1.056-.088l.751-.07q.507-.049,1.007-.1l.742-.081q.5-.056.99-.117c.237-.029.474-.058.709-.088.333-.043.662-.089.989-.134.22-.03.441-.061.659-.093.342-.05.677-.1,1.013-.156.2-.032.4-.062.59-.094.379-.063.751-.129,1.121-.2.141-.025.286-.049.426-.075q.759-.141,1.492-.292l.143-.031c.5-.1.984-.212,1.461-.323.159-.036.315-.075.471-.112q.558-.135,1.1-.274c.168-.044.339-.088.5-.132.206-.056.406-.113.607-.17s.4-.114.6-.173.387-.118.577-.177c.168-.053.336-.106.5-.159q.8-.26,1.532-.536c.1-.038.2-.078.3-.116q.54-.209,1.041-.426c.091-.04.186-.078.275-.118.364-.163.714-.328,1.045-.5.062-.031.118-.064.178-.1.251-.132.494-.266.725-.4.1-.057.19-.115.284-.173q.265-.163.509-.33c.091-.062.181-.124.267-.187.151-.109.293-.22.43-.332.073-.059.15-.118.219-.178.15-.13.285-.26.416-.391.04-.041.087-.082.126-.123a5.539,5.539,0,0,0,.44-.527c.032-.043.055-.087.084-.13a4.233,4.233,0,0,0,.253-.414c.033-.063.059-.127.088-.19a3.232,3.232,0,0,0,.147-.382c.021-.066.039-.133.056-.2a2.94,2.94,0,0,0,.07-.459c0-.068.019-.135.019-.2V479.646Q-219.1,479.691-219.1,479.736Z" transform="translate(291.218 -469.709)" fill="url(#linear-gradient-3)"/>
                                  <path id="Trazado_82777-3" data-name="Trazado 82777" d="M-255.157,461.386c-19.92,0-36.061,4.449-36.061,9.937s16.141,9.94,36.061,9.94,36.061-4.449,36.061-9.94S-235.246,461.386-255.157,461.386Z" transform="translate(291.218 -461.386)" fill="#e8e8e8"/>
                                </g>
                                <g id="Grupo_55338" data-name="Grupo 55338" transform="translate(1153.951 8836.815)">
                                  <path id="Trazado_82776-4" data-name="Trazado 82776" d="M-219.1,479.736c0,.038-.014.075-.017.113a2.929,2.929,0,0,1-.07.459c-.008.032-.006.063-.015.095s-.029.07-.041.106a3.266,3.266,0,0,1-.147.382c-.019.042-.028.085-.049.127-.01.021-.027.042-.039.063a4.254,4.254,0,0,1-.253.413c-.025.036-.041.074-.067.111,0,.007-.013.014-.017.021a5.554,5.554,0,0,1-.44.527c-.005.005-.009.011-.014.017-.034.036-.077.07-.112.106-.131.132-.266.262-.415.391-.02.017-.035.035-.055.052-.051.043-.112.084-.164.127-.137.112-.279.222-.43.332-.038.028-.07.057-.109.084s-.107.068-.157.1q-.244.167-.509.33c-.058.036-.109.074-.169.11-.036.021-.078.042-.115.063q-.346.2-.725.4c-.05.026-.093.053-.144.079l-.034.016c-.33.168-.68.333-1.044.5-.03.014-.057.028-.087.042-.06.027-.13.051-.191.078q-.5.216-1.038.425c-.066.026-.125.053-.192.078l-.109.038q-.732.275-1.531.535c-.044.015-.083.03-.127.045-.124.04-.255.078-.38.117-.188.059-.375.117-.568.175s-.4.117-.605.175-.4.113-.6.169l-.215.06c-.094.025-.2.048-.29.073q-.535.14-1.089.273l-.479.114q-.713.166-1.457.322l-.12.027-.023,0q-.731.151-1.492.292l-.426.075c-.37.066-.742.133-1.121.2-.2.032-.4.063-.595.094-.333.053-.665.105-1,.155-.221.033-.447.063-.672.095-.324.045-.649.09-.979.133-.235.03-.472.06-.71.089-.328.04-.657.079-.99.116l-.744.081q-.5.052-1,.1c-.254.024-.508.048-.765.071-.343.031-.69.059-1.038.087-.252.02-.5.041-.76.059-.365.027-.735.051-1.1.075-.184.011-.364.026-.548.037l-.143.007q-1.2.07-2.431.118l-.218.01c-.139.005-.281.007-.42.012q-.74.025-1.489.042c-.14,0-.277.009-.417.012l-.3,0c-.427.007-.857.011-1.286.014-.18,0-.357.005-.538.006h-.411q-.841,0-1.673-.01l-.088,0q-.978-.013-1.942-.04h-.015l-.2-.007q-.86-.025-1.708-.062l-.113,0c-.174-.008-.344-.018-.517-.027-.426-.021-.85-.041-1.271-.066l-.218-.011c-.17-.01-.335-.024-.5-.035q-.584-.038-1.162-.079l-.316-.022c-.141-.011-.279-.024-.42-.036q-.571-.046-1.133-.1c-.134-.013-.273-.022-.407-.035-.1-.01-.205-.022-.309-.032q-.6-.059-1.2-.124c-.148-.016-.3-.029-.447-.046l-.169-.021q-.857-.1-1.692-.207l-.108-.014-.013,0c-.614-.081-1.215-.169-1.808-.259l-.17-.024c-.108-.017-.211-.036-.319-.053q-.715-.113-1.408-.234c-.1-.018-.211-.034-.312-.052l-.186-.036c-.638-.116-1.264-.236-1.873-.363l-.078-.015-.159-.036q-1.043-.22-2.025-.461c-.046-.011-.1-.021-.141-.032l-.07-.018q-.614-.153-1.2-.313l-.12-.032c-.431-.119-.85-.241-1.258-.365l-.048-.014c-.3-.09-.581-.183-.864-.276l-.176-.057q-.534-.178-1.037-.364c-.1-.037-.193-.075-.292-.112-.231-.088-.461-.175-.682-.265-.121-.049-.236-.1-.354-.15-.188-.079-.377-.158-.557-.239-.123-.055-.239-.112-.358-.168-.165-.077-.331-.155-.489-.234-.118-.059-.23-.119-.343-.179-.149-.078-.3-.156-.437-.235-.11-.062-.215-.125-.321-.187-.133-.078-.264-.158-.39-.237-.1-.064-.2-.129-.294-.194q-.179-.12-.346-.242-.135-.1-.263-.2c-.106-.082-.206-.165-.3-.248-.079-.068-.157-.134-.231-.2-.091-.084-.177-.169-.261-.254-.068-.069-.134-.137-.2-.206-.078-.086-.148-.173-.218-.261-.054-.069-.11-.137-.16-.206-.065-.09-.12-.181-.176-.272-.041-.068-.086-.135-.122-.2-.051-.1-.091-.192-.133-.288-.028-.065-.06-.129-.083-.194a2.932,2.932,0,0,1-.089-.325c-.013-.054-.033-.109-.042-.163a2.845,2.845,0,0,1-.045-.494h0v15.292a2.846,2.846,0,0,0,.045.495c.01.055.029.109.042.163a3.082,3.082,0,0,0,.09.325c.023.065.056.128.083.193.041.1.082.194.133.29.036.067.081.134.122.2.056.091.112.183.177.273.05.069.105.137.159.2.07.088.141.175.219.262.062.069.129.136.2.2.084.085.17.17.262.255.074.067.152.135.231.2.1.083.2.165.3.248q.128.1.263.2.167.121.346.241c.1.065.194.131.3.195.125.079.255.158.386.236.107.063.213.127.325.189.14.078.286.156.433.233.114.06.226.12.345.18.158.08.324.157.49.235.119.055.235.112.356.166.18.081.369.161.558.24.118.05.232.1.354.15.22.089.451.177.681.264.1.038.193.076.293.113q.5.184,1.035.362c.066.022.137.044.2.065.291.1.584.19.888.283q.611.186,1.256.364l.116.031q.59.161,1.206.315l.2.048q.987.242,2.037.464l.227.049c.61.127,1.237.248,1.877.364l.5.088q.693.122,1.408.235c.163.026.324.052.489.077.594.091,1.194.178,1.808.26l.121.015q.834.11,1.692.207c.2.023.41.045.616.067q.594.064,1.2.124l.716.066q.562.051,1.133.1c.244.02.489.04.735.058.388.029.78.055,1.173.081.236.015.47.031.707.045.424.025.852.046,1.281.067.208.01.415.022.625.031q.847.036,1.708.062l.209.007q.967.028,1.947.04.873.011,1.757.013c.318,0,.632,0,.949-.007.43,0,.86-.007,1.286-.015.241,0,.481-.01.721-.015q.749-.016,1.489-.042l.638-.022q1.229-.048,2.431-.118c.23-.014.458-.029.686-.044.373-.024.746-.048,1.115-.075.249-.018.5-.038.743-.058.354-.028.707-.057,1.056-.088l.751-.07q.507-.049,1.007-.1l.742-.081q.5-.056.99-.117c.237-.029.474-.058.709-.088.333-.043.662-.089.989-.134.22-.03.441-.061.659-.093.342-.05.677-.1,1.013-.156.2-.032.4-.062.59-.094.379-.063.751-.129,1.121-.2.141-.025.286-.049.426-.075q.759-.141,1.492-.292l.143-.031c.5-.1.984-.212,1.461-.323.159-.036.315-.075.471-.112q.558-.135,1.1-.274c.168-.044.339-.088.5-.132.206-.056.406-.113.607-.17s.4-.114.6-.173.387-.118.577-.177c.168-.053.336-.106.5-.159q.8-.26,1.532-.536c.1-.038.2-.078.3-.116q.54-.209,1.041-.426c.091-.04.186-.078.275-.118.364-.163.714-.328,1.045-.5.062-.031.118-.064.178-.1.251-.132.494-.266.725-.4.1-.057.19-.115.284-.173q.265-.163.509-.33c.091-.062.181-.124.267-.187.151-.109.293-.22.43-.332.073-.059.15-.118.219-.178.15-.13.285-.26.416-.391.04-.041.087-.082.126-.123a5.539,5.539,0,0,0,.44-.527c.032-.043.055-.087.084-.13a4.233,4.233,0,0,0,.253-.414c.033-.063.059-.127.088-.19a3.232,3.232,0,0,0,.147-.382c.021-.066.039-.133.056-.2a2.94,2.94,0,0,0,.07-.459c0-.068.019-.135.019-.2V479.646Q-219.1,479.691-219.1,479.736Z" transform="translate(291.218 -469.709)" fill="url(#linear-gradient-3)"/>
                                  <path id="Trazado_82777-4" data-name="Trazado 82777" d="M-255.157,461.386c-19.92,0-36.061,4.449-36.061,9.937s16.141,9.94,36.061,9.94,36.061-4.449,36.061-9.94S-235.246,461.386-255.157,461.386Z" transform="translate(291.218 -461.386)" fill="#e8e8e8"/>
                                </g>
                                <path id="Trazado_119518" data-name="Trazado 119518" d="M-12343.392-8212.063l28.679-11.726" transform="translate(13374.911 16994.502)" fill="none" stroke="#00223d" stroke-linecap="round" stroke-width="4"/>
                                <path id="Trazado_119524" data-name="Trazado 119524" d="M-12343.392-8212.063l28.679-11.726" transform="translate(13374.911 17064.092)" fill="none" stroke="#00223d" stroke-linecap="round" stroke-width="4"/>
                                <path id="Trazado_119520" data-name="Trazado 119520" d="M-12343.392-8212.063l28.679-11.726" transform="translate(13519.208 16994.502)" fill="none" stroke="#00223d" stroke-linecap="round" stroke-width="4"/>
                                <path id="Trazado_119522" data-name="Trazado 119522" d="M-12343.392-8212.063l28.679-11.726" transform="translate(13519.208 17064.092)" fill="none" stroke="#00223d" stroke-linecap="round" stroke-width="4"/>
                                <path id="Trazado_119519" data-name="Trazado 119519" d="M0,11.725,28.677,0" transform="translate(1051.852 8790.86) rotate(-135)" fill="none" stroke="#00223d" stroke-linecap="round" stroke-width="4"/>
                                <path id="Trazado_119525" data-name="Trazado 119525" d="M0,11.725,28.677,0" transform="translate(1051.852 8860.45) rotate(-135)" fill="none" stroke="#00223d" stroke-linecap="round" stroke-width="4"/>
                                <path id="Trazado_119521" data-name="Trazado 119521" d="M0,11.725,28.677,0" transform="translate(1196.149 8790.86) rotate(-135)" fill="none" stroke="#00223d" stroke-linecap="round" stroke-width="4"/>
                                <path id="Trazado_119523" data-name="Trazado 119523" d="M0,11.725,28.677,0" transform="translate(1196.149 8860.45) rotate(-135)" fill="none" stroke="#00223d" stroke-linecap="round" stroke-width="4"/>
                                <path id="Trazado_119526" data-name="Trazado 119526" d="M-11040.522-7696.055h41.367" transform="translate(11989.437 16510.197)" fill="none" stroke="#00223d" stroke-width="3"/>
                                <path id="Trazado_119527" data-name="Trazado 119527" d="M-10943.062-7742.105l-18.962,23.859,18.962,21.271" transform="translate(11951.104 16532.684)" fill="none" stroke="#00223d" stroke-width="3"/>
                                <path id="Trazado_119528" data-name="Trazado 119528" d="M0,0H41.367" transform="translate(1290.494 8812.146) rotate(180)" fill="none" stroke="#00223d" stroke-width="3"/>
                                <path id="Trazado_119529" data-name="Trazado 119529" d="M18.961,0,0,23.859,18.961,45.131" transform="translate(1250.326 8835.709) rotate(180)" fill="none" stroke="#00223d" stroke-width="3"/>
                                <path id="Trazado_119530" data-name="Trazado 119530" d="M-10569.342-7719.013v33.693" transform="translate(11759.354 16521.41)" fill="none" stroke="#00223d" stroke-width="3"/>
                                <path id="Trazado_119531" data-name="Trazado 119531" d="M-10780.867-7753.378h72.073" transform="translate(11862.644 16538.189)" fill="none" stroke="#00223d" stroke-width="3"/>
                                <path id="Trazado_119532" data-name="Trazado 119532" d="M-10780.867-7753.378h72.073" transform="translate(11862.644 16607.779)" fill="none" stroke="#00223d" stroke-width="3"/>
                                <ellipse id="Elipse_3795" data-name="Elipse 3795" cx="5.53" cy="5.53" rx="5.53" ry="5.53" transform="translate(1112.547 8779.143)" fill="#ff6148"/>
                                <ellipse id="Elipse_3796" data-name="Elipse 3796" cx="5.53" cy="5.53" rx="5.53" ry="5.53" transform="translate(1112.547 8848.906)" fill="#ff6148"/>
                                <path id="Trazado_194064" data-name="Trazado 194064" d="M9.361,19.913V15.151H0V4.846H9.3V0L26.838,9.968Z" transform="translate(1128.471 8748.895) rotate(90)" fill="#12263f"/>
                                <text id="Paquete_1" data-name="Paquete 1" transform="translate(1081.692 8742)" fill="#12263f" font-size="16" font-family="Roboto-Regular, Roboto"><tspan x="0" y="0">Paquete 1</tspan></text>
                                <path id="Trazado_826482" data-name="Trazado 826482" d="M7.859-4.93h-4.5v3.047H8.641V0H1.016V-11.375H8.625v1.9H3.359v2.711h4.5ZM9.516-4.3A5.053,5.053,0,0,1,10.4-7.453a2.9,2.9,0,0,1,2.434-1.156A2.6,2.6,0,0,1,15-7.57l.148-.883h1.984V3.25H14.867V-.727A2.6,2.6,0,0,1,12.82.156a2.878,2.878,0,0,1-2.406-1.172A5.3,5.3,0,0,1,9.516-4.3Zm2.258.164A3.305,3.305,0,0,0,12.2-2.3a1.364,1.364,0,0,0,1.2.633,1.519,1.519,0,0,0,1.469-.828V-5.984a1.506,1.506,0,0,0-1.453-.8,1.38,1.38,0,0,0-1.211.633A3.651,3.651,0,0,0,11.773-4.141Zm12.2,3.281A2.831,2.831,0,0,1,21.656.156a2.67,2.67,0,0,1-2.074-.781,3.335,3.335,0,0,1-.73-2.289V-8.453h2.258v5.461q0,1.32,1.2,1.32a1.631,1.631,0,0,0,1.578-.8V-8.453h2.266V0H24.031ZM30.242,0H27.977V-8.453h2.266Zm-2.4-10.641a1.112,1.112,0,0,1,.34-.836,1.277,1.277,0,0,1,.926-.328,1.28,1.28,0,0,1,.922.328,1.105,1.105,0,0,1,.344.836,1.108,1.108,0,0,1-.348.844,1.283,1.283,0,0,1-.918.328,1.283,1.283,0,0,1-.918-.328A1.108,1.108,0,0,1,27.844-10.641ZM39.711-4.148a5.07,5.07,0,0,1-.887,3.129A2.843,2.843,0,0,1,36.43.156a2.633,2.633,0,0,1-2.07-.891V3.25H32.1v-11.7H34.2l.078.828a2.654,2.654,0,0,1,2.141-.984,2.862,2.862,0,0,1,2.43,1.156,5.207,5.207,0,0,1,.867,3.188Zm-2.258-.164a3.327,3.327,0,0,0-.418-1.82,1.361,1.361,0,0,0-1.215-.641,1.478,1.478,0,0,0-1.461.813V-2.5a1.5,1.5,0,0,0,1.477.836Q37.453-1.664,37.453-4.312Zm3.3.008a5.013,5.013,0,0,1,.484-2.242A3.546,3.546,0,0,1,42.637-8.07a4.069,4.069,0,0,1,2.113-.539,3.849,3.849,0,0,1,2.793,1.047A4.2,4.2,0,0,1,48.75-4.719l.016.578A4.418,4.418,0,0,1,47.68-1.02,3.775,3.775,0,0,1,44.766.156a3.793,3.793,0,0,1-2.918-1.172A4.5,4.5,0,0,1,40.758-4.2Zm2.258.164a3.151,3.151,0,0,0,.453,1.84,1.5,1.5,0,0,0,1.3.637,1.5,1.5,0,0,0,1.281-.629A3.448,3.448,0,0,0,46.508-4.3a3.12,3.12,0,0,0-.461-1.828,1.5,1.5,0,0,0-1.3-.648,1.475,1.475,0,0,0-1.281.645A3.506,3.506,0,0,0,43.016-4.141Zm17.7,1.8H56.6L55.82,0H53.328l4.234-11.375h2.172L63.992,0H61.5Zm-3.477-1.9h2.844L58.648-8.5Z" transform="translate(872.844 8891.723)" fill="#12263f"/>
                                <text id="Equipo_B" data-name="Equipo B" transform="translate(1284.819 8891.723)" fill="#12263f" font-size="16" font-family="Roboto-Bold, Roboto" font-weight="700"><tspan x="0" y="0">Equipo B</tspan></text>
                                <text id="Paquete_2" data-name="Paquete 2" transform="translate(1081.692 8906.027)" fill="#12263f" font-size="16" font-family="Roboto-Regular, Roboto"><tspan x="0" y="0">Paquete 2</tspan></text>
                                <path id="Trazado_194065" data-name="Trazado 194065" d="M9.361,19.913V15.151H0V4.846H9.3V0L26.838,9.968Z" transform="translate(1107.962 8890.895) rotate(-90)" fill="#12263f"/>
                              </g>
                            </g>
                          </g>
                        </g>
                      </g>
                    </g>
                  </g>
                </g>
              </g>
            </g>
          </g>
        </g>
      </g>
    </g>
  </g>
</svg>
