<svg xmlns="http://www.w3.org/2000/svg" xmlns:xlink="http://www.w3.org/1999/xlink" width="246" height="198" viewBox="0 0 246 198">
  <defs>
    <filter id="Trazado_826485" x="0" y="0" width="246" height="198" filterUnits="userSpaceOnUse">
      <feOffset dy="3" input="SourceAlpha"/>
      <feGaussianBlur stdDeviation="3" result="blur"/>
      <feFlood flood-opacity="0.161"/>
      <feComposite operator="in" in2="blur"/>
      <feComposite in="SourceGraphic"/>
    </filter>
  </defs>
  <g id="Grupo_1078235" data-name="Grupo 1078235" transform="translate(-171 -12738.535)">
    <g id="Grupo_1078234" data-name="Grupo 1078234">
      <g id="Grupo_1078233" data-name="Grupo 1078233">
        <g id="Grupo_1078232" data-name="Grupo 1078232">
          <g id="Grupo_1078231" data-name="Grupo 1078231">
            <g id="Grupo_1078230" data-name="Grupo 1078230">
              <g id="Grupo_1078229" data-name="Grupo 1078229">
                <g id="Grupo_1078228" data-name="Grupo 1078228">
                  <g id="Grupo_1078227" data-name="Grupo 1078227">
                    <g id="Grupo_1078226" data-name="Grupo 1078226">
                      <g transform="matrix(1, 0, 0, 1, 171, 12738.54)" filter="url(#Trazado_826485)">
                        <path id="Trazado_826485-2" data-name="Trazado 826485" d="M10,0H218a10,10,0,0,1,10,10V170a10,10,0,0,1-10,10H10A10,10,0,0,1,0,170V10A10,10,0,0,1,10,0Z" transform="translate(9 6)" fill="#fff"/>
                      </g>
                    </g>
                  </g>
                </g>
              </g>
            </g>
            <path id="Trazado_826486" data-name="Trazado 826486" d="M57.777,17H55.434V5.625h2.344Zm4.141-8.453.07.945a2.971,2.971,0,0,1,2.43-1.1A2.255,2.255,0,0,1,66.66,9.68,2.9,2.9,0,0,1,69.2,8.391a2.521,2.521,0,0,1,2.047.8,3.681,3.681,0,0,1,.672,2.41V17H69.652V11.609a1.61,1.61,0,0,0-.281-1.051,1.246,1.246,0,0,0-.992-.332,1.409,1.409,0,0,0-1.406.969L66.98,17H64.723V11.617a1.59,1.59,0,0,0-.289-1.062,1.259,1.259,0,0,0-.984-.328,1.463,1.463,0,0,0-1.391.8V17H59.8V8.547Zm19.344,4.3a5.07,5.07,0,0,1-.887,3.129,2.843,2.843,0,0,1-2.395,1.176,2.633,2.633,0,0,1-2.07-.891V20.25H73.652V8.547h2.094l.078.828a2.654,2.654,0,0,1,2.141-.984,2.862,2.862,0,0,1,2.43,1.156,5.207,5.207,0,0,1,.867,3.188ZM79,12.688a3.327,3.327,0,0,0-.418-1.82,1.361,1.361,0,0,0-1.215-.641,1.478,1.478,0,0,0-1.461.813V14.5a1.5,1.5,0,0,0,1.477.836Q79,15.336,79,12.688Zm8.406-2.023A6.134,6.134,0,0,0,86.6,10.6a1.654,1.654,0,0,0-1.68.867V17H82.66V8.547h2.133l.063,1.008a2.092,2.092,0,0,1,1.883-1.164,2.366,2.366,0,0,1,.7.1Zm4.977,6.492a4.15,4.15,0,0,1-3.027-1.141,4.054,4.054,0,0,1-1.168-3.039v-.219a5.106,5.106,0,0,1,.492-2.277,3.612,3.612,0,0,1,1.395-1.547,3.914,3.914,0,0,1,2.059-.543,3.508,3.508,0,0,1,2.73,1.094,4.444,4.444,0,0,1,1,3.1v.922H90.48a2.1,2.1,0,0,0,.66,1.328,2,2,0,0,0,1.395.5,2.437,2.437,0,0,0,2.039-.945l1.109,1.242a3.389,3.389,0,0,1-1.375,1.121A4.511,4.511,0,0,1,92.387,17.156Zm-.258-6.937a1.414,1.414,0,0,0-1.09.453,2.341,2.341,0,0,0-.535,1.3h3.141v-.18a1.669,1.669,0,0,0-.406-1.16A1.459,1.459,0,0,0,92.129,10.219Zm9.594,4.445a.727.727,0,0,0-.41-.652A4.659,4.659,0,0,0,100,13.586q-3.016-.633-3.016-2.562a2.323,2.323,0,0,1,.934-1.879,3.766,3.766,0,0,1,2.441-.754,4.053,4.053,0,0,1,2.574.758,2.388,2.388,0,0,1,.965,1.969h-2.258a1.092,1.092,0,0,0-.312-.8,1.322,1.322,0,0,0-.977-.316,1.351,1.351,0,0,0-.883.258.814.814,0,0,0-.312.656.7.7,0,0,0,.355.605,3.657,3.657,0,0,0,1.2.4,9.8,9.8,0,0,1,1.422.379,2.336,2.336,0,0,1,1.789,2.273,2.2,2.2,0,0,1-.992,1.871,4.28,4.28,0,0,1-2.562.715,4.47,4.47,0,0,1-1.887-.379,3.166,3.166,0,0,1-1.293-1.039,2.414,2.414,0,0,1-.469-1.426h2.141a1.179,1.179,0,0,0,.445.922,1.766,1.766,0,0,0,1.109.32,1.635,1.635,0,0,0,.98-.246A.766.766,0,0,0,101.723,14.664Zm3.3-1.969a5.013,5.013,0,0,1,.484-2.242A3.546,3.546,0,0,1,106.9,8.93a4.069,4.069,0,0,1,2.113-.539A3.849,3.849,0,0,1,111.8,9.438a4.2,4.2,0,0,1,1.207,2.844l.016.578a4.418,4.418,0,0,1-1.086,3.121,4.209,4.209,0,0,1-5.832,0,4.5,4.5,0,0,1-1.09-3.187Zm2.258.164a3.151,3.151,0,0,0,.453,1.84,1.629,1.629,0,0,0,2.578.008,3.448,3.448,0,0,0,.461-2.012,3.12,3.12,0,0,0-.461-1.828,1.5,1.5,0,0,0-1.3-.648,1.475,1.475,0,0,0-1.281.645A3.506,3.506,0,0,0,107.277,12.859Zm11.891-2.2a6.134,6.134,0,0,0-.812-.062,1.654,1.654,0,0,0-1.68.867V17h-2.258V8.547h2.133l.063,1.008A2.092,2.092,0,0,1,118.5,8.391a2.366,2.366,0,0,1,.7.1ZM124.918,17a2.507,2.507,0,0,1-.227-.758,2.732,2.732,0,0,1-2.133.914,3,3,0,0,1-2.059-.719,2.312,2.312,0,0,1-.816-1.812,2.389,2.389,0,0,1,1-2.062,4.915,4.915,0,0,1,2.879-.727H124.6v-.484a1.393,1.393,0,0,0-.3-.937,1.183,1.183,0,0,0-.949-.352,1.345,1.345,0,0,0-.895.273.929.929,0,0,0-.324.75h-2.258a2.268,2.268,0,0,1,.453-1.359,3,3,0,0,1,1.281-.98,4.669,4.669,0,0,1,1.859-.355,3.689,3.689,0,0,1,2.48.785,2.747,2.747,0,0,1,.918,2.207v3.664a4.041,4.041,0,0,0,.336,1.82V17Zm-1.867-1.57a1.945,1.945,0,0,0,.922-.223,1.462,1.462,0,0,0,.625-.6V13.156h-.844q-1.7,0-1.8,1.172l-.008.133a.9.9,0,0,0,.3.7A1.153,1.153,0,0,0,123.051,15.43Z" transform="translate(204 12861.535)" fill="#12263f"/>
            <g id="Grupo_1078207" data-name="Grupo 1078207">
              <g id="Grupo_1078206" data-name="Grupo 1078206">
                <g id="Grupo_1078205" data-name="Grupo 1078205">
                  <g id="Grupo_1078204" data-name="Grupo 1078204">
                    <g id="Grupo_1078203" data-name="Grupo 1078203">
                      <g id="Grupo_1076375" data-name="Grupo 1076375" transform="translate(-4 6933.535)">
                        <circle id="Elipse_4775" data-name="Elipse 4775" cx="43" cy="43" r="43" transform="translate(256 5830)" fill="#ff8e7c"/>
                        <g id="aCjCKE" transform="translate(-3788.175 9250.463)">
                          <g id="Grupo_151304" data-name="Grupo 151304" transform="translate(4058.055 -3405.614)">
                            <path id="Trazado_193243" data-name="Trazado 193243" d="M4103.363-3348.343h-33.345c-2.542-.979-3.533-2.841-3.349-5.528.131-1.921.025-3.859.025-5.928h-3.256c-3.131,0-4.177-.694-5.384-3.561V-3390.6c1.207-2.868,2.253-3.56,5.384-3.562h3.256c0-2.069.106-4.007-.025-5.929-.185-2.687.806-4.549,3.349-5.528h33.345c2.542.979,3.533,2.84,3.349,5.528-.131,1.921-.025,3.859-.025,5.929h3.256c3.131,0,4.177.694,5.384,3.562v27.236c-1.207,2.867-2.253,3.56-5.384,3.561h-3.256c0,2.069-.106,4.007.025,5.928C4106.9-3351.184,4105.905-3349.322,4103.363-3348.343Zm3.382-14.264c1.375,0,2.6.015,3.829,0,1.359-.021,1.927-.576,1.928-1.938q.014-12.408,0-24.815c0-1.426-.566-1.981-2.014-1.982q-23.8-.008-47.595,0c-1.448,0-2,.555-2.016,1.979-.014,1.909,0,3.817,0,5.727,0,6.32.01,12.641-.009,18.961,0,1.061.293,1.935,1.433,2.029,1.417.118,2.852.028,4.3.028v-8.647c-.563,0-1.15.177-1.464-.04-.516-.356-1.13-.944-1.177-1.48-.034-.386.754-.893,1.245-1.25.195-.143.577-.031.874-.031H4107.3c.3,0,.679-.111.875.031.491.357,1.28.863,1.248,1.249a2.5,2.5,0,0,1-1.175,1.479c-.346.226-.96.042-1.507.042Zm-37.24-8.585c0,6.09,0,12.026,0,17.961,0,1.621.465,2.065,2.15,2.066q15.011.005,30.022,0c1.755,0,2.195-.432,2.2-2.148q.006-8.333,0-16.665v-1.215Zm34.371-22.992c0-2.222,0-4.331,0-6.439,0-1.734-.434-2.167-2.175-2.169q-7.695-.007-15.39,0c-4.918,0-9.836.008-14.754-.007-.922,0-1.916.166-1.971,1.163-.138,2.471-.045,4.955-.045,7.455Z" transform="translate(-4058.055 3405.614)" fill="#12263f"/>
                            <path id="Trazado_193244" data-name="Trazado 193244" d="M4231.249-3337.841a4.153,4.153,0,0,1,4.238,4.253,4.164,4.164,0,0,1-4.286,4.215,4.185,4.185,0,0,1-4.18-4.2A4.161,4.161,0,0,1,4231.249-3337.841Zm-.344,2.746c-.283.385-.909.88-1.017,1.469-.157.855.489,1.411,1.371,1.423a1.287,1.287,0,0,0,1.391-1.32C4232.711-3334.434,4232.195-3334.908,4230.905-3335.095Z" transform="translate(-4184.013 3355.092)" fill="#12263f"/>
                            <path id="Trazado_193245" data-name="Trazado 193245" d="M4128.706-3236.69c4.113,0,8.227.018,12.34-.013,1.009-.007,1.8.2,1.94,1.329.109.9-.677,1.487-1.937,1.488q-12.34.01-24.68,0c-1.268,0-2.048-.583-1.94-1.484.135-1.129.926-1.34,1.937-1.333C4120.479-3236.672,4124.593-3236.69,4128.706-3236.69Z" transform="translate(-4100.073 3279.697)" fill="#12263f"/>
                            <path id="Trazado_193246" data-name="Trazado 193246" d="M4128.735-3256.667q-6.29,0-12.58,0c-.941,0-1.625-.4-1.635-1.367s.685-1.388,1.6-1.437c.3-.016.593-.007.89-.007h23.508c.381,0,.858-.129,1.123.05.538.365,1.265.844,1.361,1.376.15.838-.527,1.364-1.436,1.373-1.271.013-2.542.012-3.812.012Q4133.247-3256.664,4128.735-3256.667Z" transform="translate(-4100.148 3296.709)" fill="#12263f"/>
                            <path id="Trazado_193247" data-name="Trazado 193247" d="M4128.688-3211.618c-4.067,0-8.135-.011-12.2.008-1.02,0-1.918-.135-2.036-1.365-.086-.9.766-1.468,2.112-1.469q12.139-.007,24.276,0c.376,0,.867-.059,1.1.144.436.375,1.06.99.983,1.385a1.872,1.872,0,0,1-1.28,1.221c-1.638.158-3.3.073-4.951.074Q4132.692-3211.614,4128.688-3211.618Z" transform="translate(-4100.092 3263.109)" fill="#12263f"/>
                          </g>
                        </g>
                      </g>
                    </g>
                  </g>
                </g>
              </g>
            </g>
          </g>
        </g>
      </g>
    </g>
  </g>
</svg>
