<svg xmlns="http://www.w3.org/2000/svg" xmlns:xlink="http://www.w3.org/1999/xlink" width="820" height="231.872" viewBox="0 0 820 231.872">
  <defs>
    <linearGradient id="linear-gradient" x1="0.317" y1="0.321" x2="0.831" y2="0.824" gradientUnits="objectBoundingBox">
      <stop offset="0" stop-color="#fff"/>
      <stop offset="0.231" stop-color="#f7f7f6"/>
      <stop offset="0.589" stop-color="#e1e1e1"/>
      <stop offset="1" stop-color="#c1c1c0"/>
    </linearGradient>
    <linearGradient id="linear-gradient-2" x1="0.495" y1="0.493" x2="0.182" y2="0.091" gradientUnits="objectBoundingBox">
      <stop offset="0" stop-color="#fff"/>
      <stop offset="0.38" stop-color="#f7f7f7"/>
      <stop offset="0.968" stop-color="#e1e2e4"/>
      <stop offset="0.994" stop-color="#e0e1e3"/>
    </linearGradient>
    <linearGradient id="linear-gradient-3" x1="0.317" y1="0.753" x2="0.831" y2="1.256" xlink:href="#linear-gradient"/>
    <linearGradient id="linear-gradient-4" x1="0.495" y1="0.947" x2="0.182" y2="0.545" xlink:href="#linear-gradient-2"/>
  </defs>
  <g id="Grupo_1077964" data-name="Grupo 1077964" transform="translate(-390 -1233.202)">
    <g id="Grupo_1077963" data-name="Grupo 1077963">
      <g id="Grupo_1077962" data-name="Grupo 1077962">
        <g id="Grupo_1077961" data-name="Grupo 1077961">
          <g id="Grupo_1077960" data-name="Grupo 1077960">
            <g id="Grupo_1077959" data-name="Grupo 1077959">
              <g id="Grupo_1077958" data-name="Grupo 1077958">
                <g id="Grupo_1077957" data-name="Grupo 1077957">
                  <g id="Grupo_1077956" data-name="Grupo 1077956">
                    <g id="Grupo_1077955" data-name="Grupo 1077955">
                      <g id="Grupo_1077954" data-name="Grupo 1077954">
                        <g id="Grupo_1077953" data-name="Grupo 1077953">
                          <g id="Grupo_1077952" data-name="Grupo 1077952">
                            <g id="Grupo_1077951" data-name="Grupo 1077951">
                              <g id="Grupo_1077950" data-name="Grupo 1077950">
                                <g id="Grupo_1077949" data-name="Grupo 1077949">
                                  <g id="Grupo_1077948" data-name="Grupo 1077948">
                                    <g id="Grupo_1077947" data-name="Grupo 1077947">
                                      <g id="Grupo_1077946" data-name="Grupo 1077946">
                                        <g id="Grupo_1077945" data-name="Grupo 1077945">
                                          <g id="Grupo_1077944" data-name="Grupo 1077944">
                                            <g id="Grupo_1077943" data-name="Grupo 1077943">
                                              <g id="Grupo_1077942" data-name="Grupo 1077942">
                                                <g id="Grupo_1076342" data-name="Grupo 1076342">
                                                  <g id="Grupo_1076275" data-name="Grupo 1076275" transform="translate(390 1233.202)">
                                                    <circle id="Elipse_5005" data-name="Elipse 5005" cx="81.979" cy="81.979" r="81.979" transform="translate(0 115.935) rotate(-45)" fill="#083142"/>
                                                    <path id="Trazado_188204" data-name="Trazado 188204" d="M391.578,428.7l-9.711-9.667-6.971-6.939a2.758,2.758,0,0,0-4.7,1.955v10.176A81.979,81.979,0,0,0,288.212,506.2q0,3.241.249,6.421a81.985,81.985,0,0,1,81.73-75.557v10.194a2.758,2.758,0,0,0,4.7,1.955l6.971-6.939,9.711-9.667A2.758,2.758,0,0,0,391.578,428.7Z" transform="translate(-254.255 -402.215)" fill="#2efec7"/>
                                                    <ellipse id="Elipse_5006" data-name="Elipse 5006" cx="14.303" cy="14.303" rx="14.303" ry="14.303" transform="translate(15.074 108.348) rotate(-22.97)" fill="#2efec7"/>
                                                    <g id="Grupo_149826" data-name="Grupo 149826" transform="translate(23.187 23.188)">
                                                      <g id="Grupo_149802" data-name="Grupo 149802" transform="translate(0 0)">
                                                        <circle id="Elipse_4995" data-name="Elipse 4995" cx="65.583" cy="65.583" r="65.583" transform="translate(0 92.748) rotate(-45)" fill="url(#linear-gradient)"/>
                                                        <circle id="Elipse_4996" data-name="Elipse 4996" cx="62.304" cy="62.304" r="62.304" transform="translate(4.637 92.748) rotate(-45)" fill="url(#linear-gradient-2)"/>
                                                      </g>
                                                      <g id="QGY8wj.tif" transform="translate(64.568 40.815)">
                                                        <g id="Grupo_149843" data-name="Grupo 149843">
                                                          <path id="Trazado_188208" data-name="Trazado 188208" d="M-445.672,1378.055a12.921,12.921,0,0,1-3.056-1.389c-1.242-1.008-2.1-2.426-3.466-3.391-.6-.421-.67-1.588-1.048-2.595h-2.888l-.094-1.459h3l-.345-1.889h-3.611v-1.449h3.366c-1.065-2.8-1.946-5.408-3.047-7.921-.947-2.162-2.113-4.231-3.235-6.313a17.579,17.579,0,0,1,9.321-24.531,17.709,17.709,0,0,1,24.185,18.171,17.173,17.173,0,0,1-2.542,7.592,47.825,47.825,0,0,0-5.251,12.212,6.216,6.216,0,0,0-.106.7h3.1c.025.5.047.92.079,1.549h-2.118c-1.6,0-1.6,0-1.858,1.748l2.777.149v1.289a1.565,1.565,0,0,1-.492.126c-1.685-.194-3.063-.127-3.259,2.153-.049.565-1.183,1.05-1.84,1.542-.264.2-.756.24-.859.478a5.291,5.291,0,0,1-4.307,3.03,1.977,1.977,0,0,0-.437.2Zm9.517-12.264c.124-.4.229-.708.315-1.021a51.221,51.221,0,0,1,5.438-12.8,15.578,15.578,0,0,0,2-11.53,16.18,16.18,0,0,0-21.189-12.171c-10.149,3.442-13.539,15.132-9.194,22.534a64.8,64.8,0,0,1,6.218,14.2,1.325,1.325,0,0,0,.973.751C-446.486,1365.805-441.378,1365.79-436.155,1365.79Zm-15.137,4.921c.005,1.9.29,2.19,2.036,2.193,3.345.006,6.691.014,10.036.007,1.637,0,2.017-.476,1.8-2.2Zm14.776-3.271h-15.316c-.128,1.33.326,1.936,1.654,1.74a12.762,12.762,0,0,1,1.837-.017h11.42Zm-11.956,6.93c.84,1.562,2.537,2.256,4.841,1.953a3.7,3.7,0,0,0,3.2-1.953Z" transform="translate(472.146 -1315.535)" fill="#12263f"/>
                                                          <path id="Trazado_188209" data-name="Trazado 188209" d="M-502.857,1395.167v-1.377h7.727l.071,1.377Z" transform="translate(502.857 -1366.714)" fill="#12263f"/>
                                                          <path id="Trazado_188210" data-name="Trazado 188210" d="M-391.649,1291.568v-7.723h1.409v7.723Z" transform="translate(419.035 -1283.845)" fill="#12263f"/>
                                                          <path id="Trazado_188211" data-name="Trazado 188211" d="M-326.825,1315.742l.667.625-5.53,5.544-.713-.678Z" transform="translate(374.378 -1307.887)" fill="#12263f"/>
                                                          <path id="Trazado_188212" data-name="Trazado 188212" d="M-466.289,1453.569l.676.664-5.58,5.538-.7-.638Z" transform="translate(479.518 -1411.772)" fill="#12263f"/>
                                                          <path id="Trazado_188213" data-name="Trazado 188213" d="M-333.231,1455.1l.767-.73,5.51,5.534-.712.751Z" transform="translate(375.004 -1412.377)" fill="#12263f"/>
                                                          <path id="Trazado_188214" data-name="Trazado 188214" d="M-470.989,1315.624l.659-.7,5.527,5.544-.658.691Z" transform="translate(478.837 -1307.268)" fill="#12263f"/>
                                                          <path id="Trazado_188215" data-name="Trazado 188215" d="M-298.9,1396.5h-7.706v-1.4h7.706Z" transform="translate(354.938 -1367.702)" fill="#12263f"/>
                                                          <path id="Trazado_188216" data-name="Trazado 188216" d="M-477.781,1425.448l.579,1.359-3.6,1.479-.564-1.368Z" transform="translate(486.655 -1390.576)" fill="#12263f"/>
                                                          <path id="Trazado_188217" data-name="Trazado 188217" d="M-311.212,1429.629l-3.584-1.5.521-1.377,3.589,1.472Z" transform="translate(361.109 -1391.56)" fill="#12263f"/>
                                                          <path id="Trazado_188218" data-name="Trazado 188218" d="M-357.126,1306.222l-1.486,3.588-1.371-.557,1.47-3.575Z" transform="translate(395.168 -1300.301)" fill="#12263f"/>
                                                          <path id="Trazado_188219" data-name="Trazado 188219" d="M-476.853,1357.821l-.587,1.355-3.569-1.471.583-1.359Z" transform="translate(486.389 -1338.491)" fill="#12263f"/>
                                                          <path id="Trazado_188220" data-name="Trazado 188220" d="M-310.492,1357.693l.557,1.365-3.573,1.484-.587-1.36Z" transform="translate(360.58 -1339.507)" fill="#12263f"/>
                                                          <path id="Trazado_188221" data-name="Trazado 188221" d="M-426,1308.76l-1.378.542-1.473-3.542,1.347-.627Z" transform="translate(447.077 -1299.89)" fill="#12263f"/>
                                                          <path id="Trazado_188222" data-name="Trazado 188222" d="M-433.377,1367.024v2.93h-1.484v-2.932c-6.157-.984-9.721-4.466-10.723-10.653h-2.955v-1.43h2.942c.913-6.23,4.485-9.684,10.663-10.649v-2.936h1.414v2.905c6.1.979,9.673,4.454,10.672,10.633h2.949v1.4h-2.937C-423.81,1362.369-427.169,1365.994-433.377,1367.024Zm-1.63-21.024a9.356,9.356,0,0,0-8.861,8.836l1.789.132v1.364l-1.864.1c.532,4.969,4.627,9,8.952,8.883l.1-1.785h1.373l.082,1.858c4.874-.417,9.027-4.657,8.86-8.953l-1.866-.13.081-1.344,1.9-.138c-.763-5.118-4.371-8.656-8.967-8.843-.046.626-.092,1.254-.143,1.952l-1.318-.064Z" transform="translate(461.916 -1327.192)" fill="#12263f"/>
                                                        </g>
                                                      </g>
                                                    </g>
                                                    <text id="_01" data-name="01" transform="translate(26.185 121.419)" fill="#12263f" font-size="14" font-family="Roboto-Bold, Roboto" font-weight="700"><tspan x="0" y="0">01</tspan></text>
                                                    <path id="Trazado_826478" data-name="Trazado 826478" d="M6.05-2.611A1.052,1.052,0,0,0,5.64-3.5,5.38,5.38,0,0,0,4.163-4.16a10.467,10.467,0,0,1-1.688-.68,2.759,2.759,0,0,1-1.7-2.468,2.4,2.4,0,0,1,.455-1.439A2.965,2.965,0,0,1,2.54-9.734,4.914,4.914,0,0,1,4.45-10.09a4.473,4.473,0,0,1,1.9.386,3.026,3.026,0,0,1,1.3,1.09,2.853,2.853,0,0,1,.461,1.6H6.057a1.342,1.342,0,0,0-.431-1.063,1.77,1.77,0,0,0-1.21-.379,1.891,1.891,0,0,0-1.169.318A1,1,0,0,0,2.83-7.3a.96.96,0,0,0,.489.813,5.522,5.522,0,0,0,1.439.615,6.217,6.217,0,0,1,2.55,1.306,2.6,2.6,0,0,1,.8,1.941A2.4,2.4,0,0,1,7.13-.6,4.279,4.279,0,0,1,4.5.137a5.082,5.082,0,0,1-2.092-.42A3.31,3.31,0,0,1,.967-1.436a2.95,2.95,0,0,1-.5-1.7H2.529q0,1.647,1.969,1.647a1.915,1.915,0,0,0,1.142-.3A.967.967,0,0,0,6.05-2.611ZM12.77.137a3.631,3.631,0,0,1-2.649-1A3.548,3.548,0,0,1,9.1-3.521v-.191A4.468,4.468,0,0,1,9.529-5.7a3.161,3.161,0,0,1,1.22-1.354,3.425,3.425,0,0,1,1.8-.475,3.07,3.07,0,0,1,2.389.957,3.889,3.889,0,0,1,.872,2.714v.807H11.1a1.835,1.835,0,0,0,.578,1.162,1.746,1.746,0,0,0,1.22.438,2.132,2.132,0,0,0,1.784-.827L15.654-1.2a2.966,2.966,0,0,1-1.2.981A3.947,3.947,0,0,1,12.77.137Zm-.226-6.07a1.237,1.237,0,0,0-.954.4A2.048,2.048,0,0,0,11.122-4.4H13.87V-4.56a1.46,1.46,0,0,0-.355-1.015A1.277,1.277,0,0,0,12.544-5.934Zm8.545.39a5.367,5.367,0,0,0-.711-.055,1.447,1.447,0,0,0-1.47.759V0H16.933V-7.4H18.8l.055.882A1.831,1.831,0,0,1,20.5-7.533a2.07,2.07,0,0,1,.615.089Zm3.842,3.131L26.3-7.4h2.064L25.874,0H23.987l-2.5-7.4h2.064ZM31.322,0H29.34V-7.4h1.982Zm-2.1-9.311a.973.973,0,0,1,.3-.731,1.117,1.117,0,0,1,.81-.287,1.12,1.12,0,0,1,.807.287.967.967,0,0,1,.3.731.97.97,0,0,1-.3.738,1.122,1.122,0,0,1-.8.287,1.122,1.122,0,0,1-.8-.287A.97.97,0,0,1,29.224-9.311Zm6.8,7.854a1.3,1.3,0,0,0,.889-.3,1.054,1.054,0,0,0,.355-.8h1.853a2.534,2.534,0,0,1-.41,1.377,2.706,2.706,0,0,1-1.1.971A3.455,3.455,0,0,1,36.06.137a3.211,3.211,0,0,1-2.5-1.008,3.99,3.99,0,0,1-.916-2.786v-.13a3.944,3.944,0,0,1,.909-2.728,3.174,3.174,0,0,1,2.5-1.019,3.111,3.111,0,0,1,2.225.79,2.8,2.8,0,0,1,.851,2.1H37.27a1.346,1.346,0,0,0-.355-.933,1.188,1.188,0,0,0-.9-.359,1.19,1.19,0,0,0-1.042.5,2.908,2.908,0,0,0-.352,1.63V-3.6a2.945,2.945,0,0,0,.349,1.641A1.205,1.205,0,0,0,36.025-1.456ZM42.335,0H40.353V-7.4h1.982Zm-2.1-9.311a.973.973,0,0,1,.3-.731,1.117,1.117,0,0,1,.81-.287,1.12,1.12,0,0,1,.807.287.967.967,0,0,1,.3.731.97.97,0,0,1-.3.738,1.122,1.122,0,0,1-.8.287,1.122,1.122,0,0,1-.8-.287A.97.97,0,0,1,40.236-9.311Zm3.418,5.544a4.387,4.387,0,0,1,.424-1.962A3.1,3.1,0,0,1,45.3-7.062a3.56,3.56,0,0,1,1.849-.472,3.368,3.368,0,0,1,2.444.916,3.676,3.676,0,0,1,1.056,2.488l.014.506a3.866,3.866,0,0,1-.95,2.731A3.3,3.3,0,0,1,47.161.137,3.319,3.319,0,0,1,44.608-.889a3.934,3.934,0,0,1-.954-2.789Zm1.976.144a2.757,2.757,0,0,0,.4,1.61,1.309,1.309,0,0,0,1.135.557,1.312,1.312,0,0,0,1.121-.55,3.017,3.017,0,0,0,.4-1.76,2.73,2.73,0,0,0-.4-1.6,1.312,1.312,0,0,0-1.135-.567,1.29,1.29,0,0,0-1.121.564A3.068,3.068,0,0,0,45.63-3.623ZM55.884-2.044a.637.637,0,0,0-.359-.571,4.077,4.077,0,0,0-1.152-.373q-2.639-.554-2.639-2.242a2.032,2.032,0,0,1,.817-1.644,3.3,3.3,0,0,1,2.136-.66,3.547,3.547,0,0,1,2.252.663,2.09,2.09,0,0,1,.844,1.723H55.809a.956.956,0,0,0-.273-.7,1.157,1.157,0,0,0-.854-.277,1.182,1.182,0,0,0-.772.226.712.712,0,0,0-.273.574.609.609,0,0,0,.311.53A3.2,3.2,0,0,0,55-4.447a8.571,8.571,0,0,1,1.244.332A2.044,2.044,0,0,1,57.8-2.126a1.929,1.929,0,0,1-.868,1.637,3.745,3.745,0,0,1-2.242.625,3.912,3.912,0,0,1-1.651-.332A2.77,2.77,0,0,1,51.912-1.1a2.113,2.113,0,0,1-.41-1.248h1.873a1.031,1.031,0,0,0,.39.807,1.546,1.546,0,0,0,.971.28,1.43,1.43,0,0,0,.858-.215A.67.67,0,0,0,55.884-2.044Z" transform="translate(86.755 150.315)" fill="#12263f"/>
                                                  </g>
                                                  <g id="Grupo_1076276" data-name="Grupo 1076276" transform="translate(586.044 1233.203)">
                                                    <path id="Trazado_824460" data-name="Trazado 824460" d="M81.979,0A81.979,81.979,0,1,1,0,81.979,81.979,81.979,0,0,1,81.979,0Z" transform="translate(0 115.935) rotate(-45)" fill="#929ba0"/>
                                                    <path id="Trazado_188205" data-name="Trazado 188205" d="M829.493,746.27l-9.711,9.667-6.971,6.939a2.758,2.758,0,0,1-4.7-1.955V750.745a81.979,81.979,0,0,1-81.979-81.979q0-3.241.249-6.421a81.985,81.985,0,0,0,81.73,75.557V727.708a2.759,2.759,0,0,1,4.7-1.955l6.971,6.939,9.711,9.668A2.758,2.758,0,0,1,829.493,746.27Z" transform="translate(-692.171 -540.883)" fill="#2efec7"/>
                                                    <ellipse id="Elipse_5008" data-name="Elipse 5008" cx="14.303" cy="14.303" rx="14.303" ry="14.303" transform="translate(17.527 127.736) rotate(-80.689)" fill="#2efec7"/>
                                                    <g id="Grupo_149829" data-name="Grupo 149829" transform="translate(23.187 23.187)">
                                                      <g id="Grupo_149805" data-name="Grupo 149805" transform="translate(0 0)">
                                                        <circle id="Elipse_4997" data-name="Elipse 4997" cx="65.583" cy="65.583" r="65.583" transform="translate(0 92.748) rotate(-45)" fill="url(#linear-gradient-3)"/>
                                                        <circle id="Elipse_4998" data-name="Elipse 4998" cx="62.304" cy="62.304" r="62.304" transform="translate(4.637 92.748) rotate(-45)" fill="url(#linear-gradient-4)"/>
                                                      </g>
                                                      <text id="Plataforma" transform="translate(58.27 128.127)" fill="#12263f" font-size="14" font-family="Roboto-Bold, Roboto" font-weight="700"><tspan x="0" y="0">Plataforma</tspan></text>
                                                      <g id="tMun8l.tif" transform="translate(64.573 42.894)">
                                                        <g id="Grupo_149871" data-name="Grupo 149871" transform="translate(0)">
                                                          <path id="Trazado_188235" data-name="Trazado 188235" d="M197.831,575.824a1.277,1.277,0,0,1,.719,1.354c-.024.233,0,.47-.005.706-.011.355-.023.659.392.873a1.034,1.034,0,0,0,1.17.02c1.661-1,1.8-.952,2.759.712.461.8.927,1.591,1.378,2.393a1.083,1.083,0,0,1-.461,1.716c-.2.121-.406.237-.609.356-.9.523-.9,1.305.008,1.827,1.643.947,1.676,1.072.725,2.717-.461.8-.915,1.6-1.383,2.391s-.942.915-1.758.46c-.205-.114-.408-.234-.611-.351-.9-.519-1.609-.1-1.609.954,0,1.859-.1,1.963-1.964,1.963-.922,0-1.843.009-2.765,0s-1.277-.371-1.287-1.285a4.157,4.157,0,0,1,.006-.7.92.92,0,0,0-.644-1.081.653.653,0,0,0-.743.023,9.026,9.026,0,0,1-1.017.588.975.975,0,0,1-1.422-.374q-1.017-1.685-1.967-3.41a.983.983,0,0,1,.386-1.421,4.426,4.426,0,0,1,.814-.468.81.81,0,0,0,.575-1.044,1.225,1.225,0,0,0-.369-.631c-.319-.253-.712-.41-1.053-.639a.977.977,0,0,1-.365-1.381q.962-1.75,2-3.46a.971.971,0,0,1,1.383-.358,3.324,3.324,0,0,1,.759.444.923.923,0,0,0,1.351-.032.892.892,0,0,0,.294-.493,3.9,3.9,0,0,0,.009-.939,1.335,1.335,0,0,1,.715-1.418Zm4.293,11.729c-.345-.2-.642-.389-.95-.553a1.224,1.224,0,0,1-.7-1.4,6.064,6.064,0,0,0,.007-1.521,1.189,1.189,0,0,1,.7-1.342c.309-.153.6-.334.936-.52l-.995-1.732c-.332.193-.61.336-.869.507a1.271,1.271,0,0,1-1.623-.048,6.478,6.478,0,0,0-1.266-.731,1.219,1.219,0,0,1-.831-1.275c.015-.361,0-.724,0-1.072h-2.005c0,.343-.02.654,0,.962a1.263,1.263,0,0,1-.868,1.37,9.138,9.138,0,0,0-1.363.8,1.122,1.122,0,0,1-1.316.05c-.33-.2-.667-.386-1.04-.6l-.995,1.736c.346.2.637.4.948.554a1.26,1.26,0,0,1,.714,1.456,5.88,5.88,0,0,0-.01,1.284,1.278,1.278,0,0,1-.809,1.573c-.271.15-.54.3-.842.474l.994,1.729c.329-.189.626-.335.9-.519a1.235,1.235,0,0,1,1.568.041,10.237,10.237,0,0,0,1.421.815,1.121,1.121,0,0,1,.7,1.117c-.009.384,0,.768,0,1.149h2.06c-.309-1.34.258-2,1.4-2.668s2-.773,3,.032c.024.019.072.008.163.014Z" transform="translate(-165.388 -575.824)" fill="#12263f"/>
                                                          <path id="Trazado_188236" data-name="Trazado 188236" d="M44.577,782.19c.2.215.338.37.484.517q3.619,3.622,7.239,7.243a2.888,2.888,0,0,1,.425.484.981.981,0,0,1-1.343,1.358,3.134,3.134,0,0,1-.53-.462q-4.373-4.366-8.735-8.744a1.369,1.369,0,0,0-1.079-.436c-4.2.014-8.4.008-12.595.009-1.115,0-1.435.319-1.436,1.433q0,4.973,0,9.947v.659c.571,0,1.093.008,1.615,0a3.177,3.177,0,0,1,3.149,1.75.817.817,0,0,0,.624.25c3.06.016,6.121.009,9.181.014a3.045,3.045,0,0,1,.813.085.893.893,0,0,1,.676.98.9.9,0,0,1-.782.9,3.963,3.963,0,0,1-.7.041q-4.414,0-8.828,0h-.669v2.012h.676q3.914,0,7.827,0c1.008,0,1.487.334,1.478,1.021s-.481.992-1.5.995c-2.1.006-2.1.006-3.286,1.725-.042.06-.068.13-.148.287.626,0,1.186,0,1.746,0,.765,0,1.531-.012,2.294.03a.92.92,0,0,1,.9.915.951.951,0,0,1-.8,1.008,2.747,2.747,0,0,1-.582.056c-1.766,0-3.531,0-5.3,0a1.083,1.083,0,0,1-.935-1.893c.5-.666,1-1.337,1.565-2.088H32.087v5.989c.6,0,1.181-.008,1.763,0,.83.015,1.158.351,1.2,1.183.1,1.911-.44,3.517-2.272,4.392a4.652,4.652,0,0,1-1.925.427c-6.572.03-13.144.021-19.716.018-2.648,0-4.593-2.014-4.167-5.176A.934.934,0,0,1,8,808.286c.622-.012,1.245,0,1.929,0v-.7q0-4.973,0-9.947a3.1,3.1,0,0,1,3.413-3.437q5.444-.006,10.888,0H25v-.676c0-3.316.041-6.632-.015-9.947a3.227,3.227,0,0,1,3.426-3.444c8.455.05,16.91.02,25.366.022a3.031,3.031,0,0,1,3.365,3.333q.006,4.561,0,9.123c0,.9-.716,1.414-1.429,1.056a1.172,1.172,0,0,1-.575-1.2q0-4.237,0-8.475c0-.235.006-.471,0-.706A1.017,1.017,0,0,0,54,782.164c-1.589-.012-3.178,0-4.767,0q-2.119,0-4.237,0C44.886,782.161,44.776,782.175,44.577,782.19ZM30.038,808.25c0-3.7.01-7.323-.008-10.949,0-.72-.42-1.072-1.191-1.087-.98-.02-1.961-.005-2.941-.005H23.456c.205.229.313.36.432.48q1.768,1.768,3.537,3.534a2.643,2.643,0,0,1,.451.537.983.983,0,0,1-1.4,1.3,3.061,3.061,0,0,1-.484-.426c-1.692-1.691-3.375-3.392-5.083-5.067a1.289,1.289,0,0,0-.806-.345c-2.255-.027-4.51-.019-6.764-.014-1.058,0-1.4.351-1.4,1.422q0,5.03,0,10.059c0,.186.02.372.03.559ZM8.9,810.322a5.477,5.477,0,0,0,.3.922,2.077,2.077,0,0,0,2.018,1.057q9.769-.008,19.538-.007a3.2,3.2,0,0,0,.869-.11,1.845,1.845,0,0,0,1.355-1.861Z" transform="translate(-6.912 -756.033)" fill="#12263f"/>
                                                          <path id="Trazado_188237" data-name="Trazado 188237" d="M335.114,925.821c0,2.286,0,4.421,0,6.555,0,.942.005,1.883,0,2.825-.006.761-.372,1.213-.974,1.226-.618.013-1.014-.464-1.03-1.246-.005-.272,0-.545,0-.75-2.561,0-5.079,0-7.6,0a3.1,3.1,0,0,1-3.452-3.454q0-5.591,0-11.181a3.106,3.106,0,0,1,3.45-3.46c2.06,0,4.12.036,6.178-.011a3.15,3.15,0,0,1,3.442,3.417c-.068,1.172-.013,2.351-.013,3.6.227.01.432.028.638.028,1.707,0,3.413,0,5.119,0a2.029,2.029,0,0,1,2.281,2.234c.014,3.178,0,6.356,0,9.533a2.685,2.685,0,0,1-.014.293,1,1,0,0,1-.967.993.968.968,0,0,1-1-.952c-.049-1.018-.047-2.039-.023-3.058a1.276,1.276,0,0,0-.426-1.027c-1.706-1.678-3.39-3.378-5.083-5.069C335.508,926.184,335.365,926.057,335.114,925.821Zm-10.993,2.542h8.986v-.509q0-4.087,0-8.173c0-.992-.339-1.328-1.353-1.333-1.548-.007-3.1,0-4.645,0-.148,0-.3.026-.534.049.188.2.312.345.445.478q1.6,1.6,3.2,3.2a7.5,7.5,0,0,1,.646.682.967.967,0,0,1-.074,1.332,1.007,1.007,0,0,1-1.338.044,4.022,4.022,0,0,1-.385-.362q-2.2-2.2-4.4-4.41c-.142-.142-.293-.275-.547-.511Zm-.048,2.075c0,.354-.023.646,0,.934a1.018,1.018,0,0,0,1.111,1.044q3.41.025,6.82,0a.971.971,0,0,0,1.062-.823,7.209,7.209,0,0,0,.012-1.156Zm17.034-5.018h-3.333l3.333,3.326Z" transform="translate(-284.882 -876.16)" fill="#12263f"/>
                                                          <path id="Trazado_188238" data-name="Trazado 188238" d="M362.906,663.837q0,7.328,0,14.655a3.431,3.431,0,0,1-.044.7.983.983,0,0,1-1.949-.127c-.021-.214-.012-.431-.012-.647q0-14.567,0-29.135a3.061,3.061,0,0,0-2.21-3.281,5.142,5.142,0,0,0-1.281-.136c-2.707-.012-5.415,0-8.122-.008a2.852,2.852,0,0,1-.7-.047.919.919,0,0,1-.732-.885.9.9,0,0,1,.617-.967,2.194,2.194,0,0,1,.75-.1c2.786-.007,5.572-.014,8.357,0a5,5,0,0,1,5.14,3.814,6.36,6.36,0,0,1,.181,1.629C362.911,654.145,362.906,658.991,362.906,663.837Z" transform="translate(-307.634 -635.826)" fill="#12263f"/>
                                                          <path id="Trazado_188239" data-name="Trazado 188239" d="M72.991,609.8c1.137,0,2.274-.01,3.412,0a1.043,1.043,0,0,1,1.153.869c.092.651-.386,1.128-1.168,1.131-2.059.008-4.117,0-6.176,0-.157,0-.314,0-.471,0a1.078,1.078,0,0,0-1.2,1.2c-.02.862,0,1.725-.008,2.588-.008.768-.367,1.215-.968,1.234s-1.024-.458-1.036-1.241c-.012-.863-.017-1.726,0-2.588a3.051,3.051,0,0,1,3.23-3.2C70.834,609.793,71.912,609.8,72.991,609.8Z" transform="translate(-59.484 -605.791)" fill="#12263f"/>
                                                          <path id="Trazado_188240" data-name="Trazado 188240" d="M25.753,695.205a8.9,8.9,0,0,1,6.133,2.429c.559.518.659,1.087.277,1.541a1.026,1.026,0,0,1-1.6-.049,7.064,7.064,0,0,0-9.655-.019,1.008,1.008,0,0,1-1.555.034A1.055,1.055,0,0,1,19.6,697.6,8.925,8.925,0,0,1,25.753,695.205Z" transform="translate(-17.676 -681.123)" fill="#12263f"/>
                                                          <path id="Trazado_188241" data-name="Trazado 188241" d="M351.2,699.8c0,.627.012,1.254,0,1.88a1,1,0,1,1-2,.008c-.014-1-.058-2,.011-3a1.594,1.594,0,0,0-1.14-1.86,1.793,1.793,0,0,1-.6-.352.916.916,0,0,1-.2-1.222.887.887,0,0,1,1.149-.453c1.609.622,2.88,1.452,2.791,3.7C351.184,698.934,351.2,699.365,351.2,699.8Z" transform="translate(-306.984 -680.706)" fill="#12263f"/>
                                                          <path id="Trazado_188242" data-name="Trazado 188242" d="M46.433,729.245a4.9,4.9,0,0,1,3.373,1.291,1.039,1.039,0,0,1,.259,1.493,1,1,0,0,1-1.511.067,3.08,3.08,0,0,0-3.607-.416,6.773,6.773,0,0,0-.672.472,1.015,1.015,0,0,1-1.423-.1,1,1,0,0,1,.168-1.463A4.943,4.943,0,0,1,46.433,729.245Z" transform="translate(-38.398 -711.148)" fill="#12263f"/>
                                                          <path id="Trazado_188243" data-name="Trazado 188243" d="M68.533,800.889c0,.8.013,1.6,0,2.406a1,1,0,1,1-1.99.042q-.042-2.435,0-4.871a1,1,0,0,1,1.01-1.07c.594.005.97.428.984,1.145C68.545,799.323,68.534,800.106,68.533,800.889Z" transform="translate(-59.487 -771.26)" fill="#12263f"/>
                                                          <path id="Trazado_188244" data-name="Trazado 188244" d="M265.271,1018.769c.49,0,.982-.019,1.471,0a.96.96,0,0,1,.988.9.928.928,0,0,1-.87,1.061,31.533,31.533,0,0,1-3.231,0,.916.916,0,0,1-.867-1.057.965.965,0,0,1,.979-.9c.039,0,.078-.006.117-.006h1.412Z" transform="translate(-232.58 -966.515)" fill="#12263f"/>
                                                          <path id="Trazado_188245" data-name="Trazado 188245" d="M68.712,764.326a1,1,0,0,1-.983,1.025,1.035,1.035,0,0,1-.991-.972,1,1,0,0,1,.939-1.01A.967.967,0,0,1,68.712,764.326Z" transform="translate(-59.68 -741.246)" fill="#12263f"/>
                                                          <path id="Trazado_188246" data-name="Trazado 188246" d="M243.055,629.93a3,3,0,0,1-6.007,0,3,3,0,1,1,6.007,0Zm-3.014.968a.993.993,0,0,0,1.005-1,.994.994,0,1,0-1.988.033A1,1,0,0,0,240.04,630.9Z" transform="translate(-209.902 -620.874)" fill="#12263f"/>
                                                        </g>
                                                      </g>
                                                    </g>
                                                    <text id="_02" data-name="02" transform="translate(25.666 121.418)" fill="#12263f" font-size="14" font-family="Roboto-Bold, Roboto" font-weight="700"><tspan x="0" y="0">02</tspan></text>
                                                  </g>
                                                  <g id="Grupo_1076277" data-name="Grupo 1076277" transform="translate(782.086 1233.202)">
                                                    <circle id="Elipse_5009" data-name="Elipse 5009" cx="81.979" cy="81.979" r="81.979" transform="translate(0 115.935) rotate(-45)" fill="#083142"/>
                                                    <path id="Trazado_188206" data-name="Trazado 188206" d="M1267.409,428.7l-9.712-9.667-6.971-6.939a2.759,2.759,0,0,0-4.7,1.955v10.176a81.979,81.979,0,0,0-81.979,81.979q0,3.241.249,6.421a81.985,81.985,0,0,1,81.73-75.557v10.194a2.759,2.759,0,0,0,4.7,1.955l6.971-6.939,9.712-9.667A2.759,2.759,0,0,0,1267.409,428.7Z" transform="translate(-1130.086 -402.215)" fill="#2efec7"/>
                                                    <ellipse id="Elipse_5010" data-name="Elipse 5010" cx="14.303" cy="14.303" rx="14.303" ry="14.303" transform="matrix(0.16, -0.987, 0.987, 0.16, 17.547, 127.764)" fill="#2efec7"/>
                                                    <g id="Grupo_149832" data-name="Grupo 149832" transform="translate(23.187 23.188)">
                                                      <g id="Grupo_149809" data-name="Grupo 149809" transform="translate(0 0)">
                                                        <circle id="Elipse_4999" data-name="Elipse 4999" cx="65.583" cy="65.583" r="65.583" transform="translate(0 92.748) rotate(-45)" fill="url(#linear-gradient)"/>
                                                        <circle id="Elipse_5000" data-name="Elipse 5000" cx="62.304" cy="62.304" r="62.304" transform="translate(4.637 92.748) rotate(-45)" fill="url(#linear-gradient-2)"/>
                                                      </g>
                                                      <text id="Software" transform="translate(63.495 128.127)" fill="#12263f" font-size="14" font-family="Roboto-BoldItalic, Roboto" font-weight="700" font-style="italic"><tspan x="0" y="0">Software</tspan></text>
                                                      <g id="of24yl.tif" transform="translate(61.898 53.29)">
                                                        <g id="Grupo_149872" data-name="Grupo 149872">
                                                          <path id="Trazado_188247" data-name="Trazado 188247" d="M-366.876,807.9c-.827,2.246-1.475,2.687-3.952,2.687-.761,0-1.527-.049-2.28.026a1.168,1.168,0,0,0-.84.529,1.117,1.117,0,0,0,.166.98c.663.763,1.419,1.445,2.127,2.169a2.941,2.941,0,0,1-.009,4.475q-.678.7-1.375,1.373a2.94,2.94,0,0,1-4.424.014c-.706-.686-1.364-1.425-2.106-2.069a1.2,1.2,0,0,0-1.025-.273,1.372,1.372,0,0,0-.6.979c-.08,1.007-.014,2.026-.033,3.039a2.887,2.887,0,0,1-2.992,2.978c-.733.012-1.466.01-2.2,0a2.909,2.909,0,0,1-3.047-2.938c-.042-.984.04-1.975-.038-2.955a1.456,1.456,0,0,0-.55-1.08c-.274-.125-.839.112-1.134.359-.732.612-1.378,1.327-2.067,1.991a2.928,2.928,0,0,1-4.3.035c-.551-.525-1.093-1.06-1.613-1.614a2.905,2.905,0,0,1,0-4.173c.7-.737,1.466-1.407,2.128-2.172a1.327,1.327,0,0,0,.313-1.093,1.317,1.317,0,0,0-.988-.556c-.981-.075-1.971-.011-2.957-.029a2.967,2.967,0,0,1-3.06-3.033q-.025-1.1,0-2.2a2.947,2.947,0,0,1,3.054-3.03c.958-.012,1.921.051,2.872-.029a1.5,1.5,0,0,0,1.076-.568,1.289,1.289,0,0,0-.3-1.095c-.619-.725-1.348-1.356-2.015-2.042a2.932,2.932,0,0,1-.012-4.416c.491-.5.986-1.006,1.5-1.493a2.971,2.971,0,0,1,4.253-.022c.734.7,1.4,1.466,2.17,2.124a1.28,1.28,0,0,0,1.088.275,1.354,1.354,0,0,0,.545-1c.075-.952.009-1.913.03-2.87a2.922,2.922,0,0,1,3.144-3.095c.789-.008,1.579-.024,2.367.012a2.83,2.83,0,0,1,2.72,2.713c.044,1.04-.041,2.088.045,3.123a1.591,1.591,0,0,0,.611,1.134c.235.131.825-.144,1.121-.4.728-.618,1.368-1.338,2.061-2a2.985,2.985,0,0,1,4.257-.026c.574.54,1.136,1.1,1.67,1.676a2.88,2.88,0,0,1-.023,4.107c-.7.738-1.464,1.409-2.128,2.172-.237.273-.455.828-.33,1.08a1.5,1.5,0,0,0,1.042.6,15.7,15.7,0,0,0,2.11.027c2.479,0,3.122.442,3.927,2.7Zm-27.4,3.608.209.113a14.574,14.574,0,0,1-1.192,2.144,24.118,24.118,0,0,1-2.126,2.171.711.711,0,0,0-.013,1.162c.462.454.926.907,1.373,1.375a.738.738,0,0,0,1.225,0c.707-.726,1.414-1.453,2.151-2.148a3.045,3.045,0,0,1,3.5-.677,3.068,3.068,0,0,1,1.982,2.97c.017,1.013.012,2.028.005,3.041,0,.558.249.838.814.834.648,0,1.3-.015,1.944,0,.606.017.881-.261.879-.858,0-.957.019-1.915.01-2.872a3.1,3.1,0,0,1,2-3.127,3.147,3.147,0,0,1,3.635.8c.668.646,1.319,1.31,1.957,1.986.431.457.828.525,1.283.037.423-.452.861-.892,1.316-1.313.488-.453.431-.847-.029-1.281-.676-.637-1.335-1.294-1.988-1.955a3.173,3.173,0,0,1-.809-3.638,3.145,3.145,0,0,1,3.129-2.021c.958-.007,1.916-.016,2.874,0,.6.012.888-.254.881-.855-.007-.619-.014-1.239,0-1.858.017-.652-.295-.906-.931-.892-.929.021-1.86,0-2.79,0a3.221,3.221,0,0,1-3.16-1.985,3.169,3.169,0,0,1,.8-3.634c.67-.685,1.343-1.367,2.031-2.032a.728.728,0,0,0,.009-1.219c-.451-.425-.894-.86-1.314-1.315a.753.753,0,0,0-1.279-.01c-.658.692-1.343,1.359-2.023,2.031a3.111,3.111,0,0,1-3.561.789,3.091,3.091,0,0,1-2.039-3.1c0-.929-.025-1.859,0-2.787.021-.73-.305-1.026-1.019-.992-.562.027-1.127.019-1.691,0-.69-.02-.958.308-.94.982.025.928,0,1.858,0,2.787a3.077,3.077,0,0,1-1.948,3.077,3.109,3.109,0,0,1-3.586-.683c-.716-.677-1.4-1.385-2.081-2.1a.757.757,0,0,0-1.282,0c-.422.453-.868.884-1.313,1.316a.737.737,0,0,0,.018,1.225c.673.641,1.332,1.3,1.985,1.958a3.238,3.238,0,0,1,.868,3.629,3.264,3.264,0,0,1-3.191,2.068c-.958.016-1.916.014-2.874,0-.558-.006-.841.222-.827.8.015.647.017,1.3,0,1.943-.017.612.264.865.868.855,1.014-.016,2.029-.019,3.043.006A3.237,3.237,0,0,1-394.277,811.51Z" transform="translate(440.555 -769.694)" fill="#12263f"/>
                                                          <path id="Trazado_188248" data-name="Trazado 188248" d="M-561.607,696.675h-2.245v-6.406h-8.982V700.86h-2.29V690.281h-43.459v.908q0,15.8,0,31.6c0,1.25.035,1.286,1.286,1.286h35.49v2.337h-.861q-17.42,0-34.841,0c-2.232,0-3.391-1.145-3.391-3.377q-.006-20.027,0-40.053c0-2.259,1.132-3.392,3.365-3.392q26.342,0,52.684,0a2.931,2.931,0,0,1,3.28,3.284q.008,6.506,0,13.013C-561.57,696.137-561.593,696.384-561.607,696.675Zm-56.974-8.821h54.713c0-1.509,0-2.993,0-4.478,0-1.462,0-1.464-1.451-1.464h-51.815c-.226,0-.451,0-.676,0a.688.688,0,0,0-.771.786C-618.58,684.388-618.581,686.074-618.581,687.854Z" transform="translate(620.902 -679.59)" fill="#12263f"/>
                                                          <path id="Trazado_188249" data-name="Trazado 188249" d="M-462.732,805.706l-5.664-5.969,1.565-1.512c.808.878,1.6,1.79,2.444,2.645,1.445,1.459,2.923,2.885,4.395,4.317.3.289.473.516.084.893-2.36,2.291-4.7,4.6-7.131,6.979l-1.241-1.518Z" transform="translate(494.25 -778.113)" fill="#12263f"/>
                                                          <path id="Trazado_188250" data-name="Trazado 188250" d="M-551.541,799.095l1.361,1.43-5.532,5.876,5.629,5.963-1.534,1.5c-.557-.629-1.063-1.265-1.635-1.836-1.716-1.71-3.459-3.393-5.189-5.088-.257-.252-.615-.493-.2-.9Q-555.088,802.566-551.541,799.095Z" transform="translate(569.353 -778.836)" fill="#12263f"/>
                                                          <path id="Trazado_188251" data-name="Trazado 188251" d="M-503.152,812.96l-2.09-.458,3.288-14.521,2.1.457Z" transform="translate(524.849 -777.91)" fill="#12263f"/>
                                                          <path id="Trazado_188252" data-name="Trazado 188252" d="M-324.142,873.38a5.872,5.872,0,0,1-5.847-5.946,5.9,5.9,0,0,1,5.955-5.85,5.945,5.945,0,0,1,5.866,5.959A5.917,5.917,0,0,1-324.142,873.38Zm3.638-5.918a3.6,3.6,0,0,0-3.63-3.57,3.593,3.593,0,0,0-3.528,3.581,3.59,3.59,0,0,0,3.581,3.613A3.6,3.6,0,0,0-320.5,867.462Z" transform="translate(379.306 -830.731)" fill="#12263f"/>
                                                          <path id="Trazado_188253" data-name="Trazado 188253" d="M-321.516,700.946a2.482,2.482,0,0,1-2.542-2.472,2.535,2.535,0,0,1,2.541-2.581,2.585,2.585,0,0,1,2.523,2.539A2.526,2.526,0,0,1-321.516,700.946Z" transform="translate(374.381 -693.129)" fill="#12263f"/>
                                                          <path id="Trazado_188254" data-name="Trazado 188254" d="M-391.6,700.943a2.484,2.484,0,0,1-2.528-2.486,2.531,2.531,0,0,1,2.552-2.568,2.564,2.564,0,0,1,2.5,2.55A2.517,2.517,0,0,1-391.6,700.943Z" transform="translate(432.57 -693.126)" fill="#12263f"/>
                                                          <path id="Trazado_188255" data-name="Trazado 188255" d="M-356.535,700.948a2.476,2.476,0,0,1-2.531-2.479,2.523,2.523,0,0,1,2.542-2.574,2.582,2.582,0,0,1,2.515,2.544A2.526,2.526,0,0,1-356.535,700.948Z" transform="translate(403.454 -693.131)" fill="#12263f"/>
                                                        </g>
                                                      </g>
                                                    </g>
                                                    <text id="_03" data-name="03" transform="translate(25.149 120.419)" fill="#12263f" font-size="14" font-family="Roboto-Bold, Roboto" font-weight="700"><tspan x="0" y="0">03</tspan></text>
                                                  </g>
                                                  <g id="Grupo_1076278" data-name="Grupo 1076278" transform="translate(978.129 1233.203)">
                                                    <circle id="Elipse_5011" data-name="Elipse 5011" cx="81.979" cy="81.979" r="81.979" transform="translate(0 115.935) rotate(-45)" fill="#929ba0"/>
                                                    <path id="Trazado_188207" data-name="Trazado 188207" d="M1705.323,746.27l-9.711,9.667-6.971,6.939a2.758,2.758,0,0,1-4.7-1.955V750.745a81.979,81.979,0,0,1-81.978-81.979q0-3.241.249-6.421a81.985,81.985,0,0,0,81.729,75.557V727.708a2.759,2.759,0,0,1,4.7-1.955l6.971,6.939,9.711,9.668A2.759,2.759,0,0,1,1705.323,746.27Z" transform="translate(-1568.001 -540.883)" fill="#2efec7"/>
                                                    <ellipse id="Elipse_5012" data-name="Elipse 5012" cx="14.303" cy="14.303" rx="14.303" ry="14.303" transform="matrix(0.16, -0.987, 0.987, 0.16, 17.547, 127.763)" fill="#2efec7"/>
                                                    <g id="Grupo_149835" data-name="Grupo 149835" transform="translate(23.187 23.187)">
                                                      <g id="Grupo_149813" data-name="Grupo 149813" transform="translate(0 0)">
                                                        <circle id="Elipse_5001" data-name="Elipse 5001" cx="65.583" cy="65.583" r="65.583" transform="translate(0 92.748) rotate(-45)" fill="url(#linear-gradient-3)"/>
                                                        <circle id="Elipse_5002" data-name="Elipse 5002" cx="62.304" cy="62.304" r="62.304" transform="translate(4.637 92.748) rotate(-45)" fill="url(#linear-gradient-4)"/>
                                                      </g>
                                                      <text id="_Para_quienes_" data-name="¿Para quienes?" transform="translate(46.641 125.127)" fill="#12263f" font-size="14" font-family="Roboto-Bold, Roboto" font-weight="700"><tspan x="0" y="0">¿Para quienes?</tspan></text>
                                                      <g id="VbkOi2" transform="translate(64.694 46.994)">
                                                        <g id="Grupo_149844" data-name="Grupo 149844" transform="translate(0)">
                                                          <path id="Trazado_188223" data-name="Trazado 188223" d="M-783.735,959.719a1.134,1.134,0,0,1,.65,1.232c-.032.415-.006.834-.006,1.234.9-.159,1.78-.326,2.665-.466a24.656,24.656,0,0,1,4.2-.194,22.74,22.74,0,0,1,9.4,2,18.885,18.885,0,0,1,8.189,7.229,23.106,23.106,0,0,1,2.991,7.487.9.9,0,0,1-1.184,1.067c-.653-.195-1.311-.374-1.968-.555a1.357,1.357,0,0,0-.318-.033c-.669-.018-.736.049-.505.688a16.378,16.378,0,0,1,.892,4.023c.052.543.077,1.088.115,1.639A7.613,7.613,0,0,1-757.7,985a2.587,2.587,0,0,1,2.288,1.706,6.6,6.6,0,0,1,.555,3.034,11.781,11.781,0,0,1-1.454,5.429,5.634,5.634,0,0,1-2.486,2.6,1.429,1.429,0,0,0-.818.973,31.663,31.663,0,0,1-5.9,10.409,19.739,19.739,0,0,1-7.417,5.6,12.643,12.643,0,0,1-6.18.948,14.4,14.4,0,0,1-6.49-2.406,24.481,24.481,0,0,1-6.889-7.1,32.484,32.484,0,0,1-3.791-7.825.658.658,0,0,0-.415-.464,5.5,5.5,0,0,1-2.672-2.585,11.54,11.54,0,0,1-1.539-6.147,5.274,5.274,0,0,1,.8-2.869,3.364,3.364,0,0,1,1.486-1.236h-.4q-3.363,0-6.727,0a4.564,4.564,0,0,1-4.276-3.123,4.538,4.538,0,0,1,4.322-5.944c.277,0,.554,0,.888,0,0-.532,0-1.041,0-1.549q0-3.833-.009-7.666c0-2.009,0-4.019-.005-6.028a1.038,1.038,0,0,1,.688-1.045Zm-11.716,25.356c0,.914.009,1.771,0,2.628a.905.905,0,0,1-.916.918.909.909,0,0,1-.888-.942c0-.15.009-.3,0-.45a.331.331,0,0,0-.068-.2.755.755,0,0,0-1.173.1,4.162,4.162,0,0,0-.483,1.207,8.193,8.193,0,0,0,.289,3.96,7.429,7.429,0,0,0,1.774,3.3,2.326,2.326,0,0,0,1.1.669,1.177,1.177,0,0,1,1.08.962,4.12,4.12,0,0,0,.124.4,29.935,29.935,0,0,0,5.937,10.626,17.888,17.888,0,0,0,6.066,4.659,11.236,11.236,0,0,0,5.745,1.006,12.256,12.256,0,0,0,5.205-1.775,20.931,20.931,0,0,0,6.095-5.771,31.194,31.194,0,0,0,4.614-9.325,1.025,1.025,0,0,1,.862-.744,2.186,2.186,0,0,0,.89-.388,4.874,4.874,0,0,0,.948-1.036,9.533,9.533,0,0,0,1.581-5.588,4.044,4.044,0,0,0-.475-2.007c-.236-.406-.5-.534-.864-.448a.721.721,0,0,0-.669.8c0,.064,0,.13-.009.193a.889.889,0,0,1-.583.743.844.844,0,0,1-.922-.182,1.2,1.2,0,0,1-.281-1.1,19.064,19.064,0,0,0-.374-5.682c-.185-.777-.461-1.533-.638-2.311a1.869,1.869,0,0,1,1.091-2.167,3.36,3.36,0,0,1,1.737-.178c.27.032.538.08.839.126-.028-.12-.043-.2-.067-.282a21.568,21.568,0,0,0-1.482-3.713A17.083,17.083,0,0,0-770.46,964.1a22.446,22.446,0,0,0-4.94-.733,24.237,24.237,0,0,0-7.389.65c-.254.067-.309.166-.309.408q.011,5.439,0,10.878a.427.427,0,0,0,.317.464,27.811,27.811,0,0,0,10.906,2.3,1.182,1.182,0,0,1,.622.194.825.825,0,0,1,.284,1,.854.854,0,0,1-.852.6,29.092,29.092,0,0,1-4.636-.379,28.038,28.038,0,0,1-4.779-1.2c-.611-.213-1.218-.441-1.856-.673v.368c0,.9.015,1.8,0,2.7a4.276,4.276,0,0,1-.921,2.584,4.547,4.547,0,0,1-3.8,1.8q-3.637,0-7.273,0Zm-7.536-9.068h15.123a2.865,2.865,0,0,1,.322,0,.953.953,0,0,1,.839.907.918.918,0,0,1-.9.9c-.138.006-.276.031-.414.049a2.715,2.715,0,0,0-2.252,3.242,2.693,2.693,0,0,0,2.812,2.143,2.707,2.707,0,0,0,2.567-2.772q0-9.3,0-18.6v-.338h-18.094Zm11.728,1.807h-.427q-6.92,0-13.839,0a4.942,4.942,0,0,0-.605.049,2.7,2.7,0,0,0-2.312,2.8,2.749,2.749,0,0,0,2.722,2.6h14.461A4.636,4.636,0,0,1-791.259,977.814Z" transform="translate(810.249 -959.719)" fill="#12263f"/>
                                                          <path id="Trazado_188224" data-name="Trazado 188224" d="M-458.514,1383.484a1.783,1.783,0,0,1,1.888-1.787,1.818,1.818,0,0,1,1.724,1.835,1.808,1.808,0,0,1-1.884,1.77A1.787,1.787,0,0,1-458.514,1383.484Z" transform="translate(481.156 -1354.533)" fill="#12263f"/>
                                                          <path id="Trazado_188225" data-name="Trazado 188225" d="M-191.382,1383.487a1.789,1.789,0,0,1,1.892-1.788,1.8,1.8,0,0,1,1.712,1.836,1.789,1.789,0,0,1-1.877,1.771A1.8,1.8,0,0,1-191.382,1383.487Z" transform="translate(231.221 -1354.535)" fill="#12263f"/>
                                                          <path id="Trazado_188226" data-name="Trazado 188226" d="M-164.223,1244.638c.471,0,.942-.006,1.413,0a.885.885,0,0,1,.907.914.882.882,0,0,1-.9.885q-1.461.012-2.922,0a.885.885,0,0,1-.89-.932.887.887,0,0,1,.886-.87c.5-.011,1.006,0,1.509,0Z" transform="translate(208.051 -1226.292)" fill="#12263f"/>
                                                          <path id="Trazado_188227" data-name="Trazado 188227" d="M-250.866,1047.711a.913.913,0,0,1,.894,1c-.085.6-.189,1.2-.306,1.8a.906.906,0,0,1-1.036.735.929.929,0,0,1-.736-1.071c.1-.579.187-1.159.292-1.736A.89.89,0,0,1-250.866,1047.711Z" transform="translate(287.996 -1042.046)" fill="#12263f"/>
                                                          <path id="Trazado_188228" data-name="Trazado 188228" d="M-321.232,1046.532a2.484,2.484,0,0,1-.069.535.89.89,0,0,1-.845.582.885.885,0,0,1-.846-.667,5.757,5.757,0,0,1-.094-.8c-.036-.405-.087-.811-.089-1.217a.9.9,0,0,1,.879-.888.906.906,0,0,1,.916.847C-321.335,1045.441-321.286,1045.953-321.232,1046.532Z" transform="translate(354.53 -1038.651)" fill="#12263f"/>
                                                          <path id="Trazado_188229" data-name="Trazado 188229" d="M-184.646,1072.621a.858.858,0,0,1,.795,1.168c-.218.589-.471,1.165-.737,1.734a.89.89,0,0,1-1.15.406.864.864,0,0,1-.49-1.136c.226-.563.46-1.124.718-1.673A.843.843,0,0,1-184.646,1072.621Z" transform="translate(226.461 -1065.353)" fill="#12263f"/>
                                                          <path id="Trazado_188230" data-name="Trazado 188230" d="M-126.211,1115.444a1.1,1.1,0,0,1,.824.548.8.8,0,0,1-.039.9c-.368.511-.751,1.012-1.154,1.5a.874.874,0,0,1-1.214.067.886.886,0,0,1-.194-1.182,18.02,18.02,0,0,1,1.126-1.435A2.594,2.594,0,0,1-126.211,1115.444Z" transform="translate(172.046 -1105.419)" fill="#12263f"/>
                                                          <path id="Trazado_188231" data-name="Trazado 188231" d="M-663.35,1048.919l3.213-3.214c-.431,0-.85.008-1.27,0-.635-.014-1.037-.374-1.029-.906a.946.946,0,0,1,1.039-.909q1.686-.01,3.373,0a.948.948,0,0,1,1.038,1.039q.007,1.7,0,3.405a.919.919,0,0,1-.541.908.778.778,0,0,1-.971-.166,1.44,1.44,0,0,1-.3-.742,12.2,12.2,0,0,1-.013-1.325c-.1.088-.168.144-.232.208l-3.551,3.55a.923.923,0,0,1-1.5-.008c-.641-.647-1.281-1.3-1.941-1.962-.1.1-.189.174-.269.255-.6.6-1.194,1.2-1.8,1.8a.877.877,0,0,1-1.313.014.9.9,0,0,1,.036-1.3q1.312-1.328,2.64-2.64a.921.921,0,0,1,1.394.015c.6.588,1.184,1.183,1.776,1.774C-663.491,1048.786-663.413,1048.858-663.35,1048.919Z" transform="translate(678.722 -1038.465)" fill="#12263f"/>
                                                        </g>
                                                      </g>
                                                    </g>
                                                    <text id="_04" data-name="04" transform="translate(25.595 120.418)" fill="#12263f" font-size="14" font-family="Roboto-Bold, Roboto" font-weight="700"><tspan x="0" y="0">04</tspan></text>
                                                  </g>
                                                </g>
                                              </g>
                                            </g>
                                          </g>
                                        </g>
                                      </g>
                                    </g>
                                  </g>
                                </g>
                              </g>
                            </g>
                          </g>
                        </g>
                      </g>
                    </g>
                  </g>
                </g>
              </g>
            </g>
          </g>
        </g>
      </g>
    </g>
  </g>
</svg>
