<svg xmlns="http://www.w3.org/2000/svg" width="112" height="112" viewBox="0 0 112 112">
  <g id="Grupo_1078029" data-name="Grupo 1078029" transform="translate(6381 -6988.316)">
    <g id="Grupo_1078028" data-name="Grupo 1078028">
      <g id="Grupo_1078027" data-name="Grupo 1078027">
        <g id="Grupo_1078026" data-name="Grupo 1078026">
          <g id="Grupo_1078025" data-name="Grupo 1078025">
            <circle id="Elipse_10573" data-name="Elipse 10573" cx="56" cy="56" r="56" transform="translate(-6381 6988.316)" fill="#12263f"/>
            <g id="GfRdp9.tif" transform="translate(-7440.014 8409.006)">
              <g id="Grupo_151932" data-name="Grupo 151932" transform="translate(1073.264 -1403.7)">
                <path id="Trazado_194382" data-name="Trazado 194382" d="M1187.673-1362.494c-.2.764-.413,1.526-.61,2.291a15.612,15.612,0,0,1-15.109,12.028c-8.317.131-16.637.03-24.956.038-1.361,0-2.416-.44-2.567-1.933-.123-1.212.947-1.984,2.67-1.986,8.2-.011,16.408.008,24.612-.01a11.785,11.785,0,0,0,11.9-10.433,11.811,11.811,0,0,0-9.677-13.022,28.484,28.484,0,0,0-4.633-.16c-2.2-.039-2.94-.685-2.861-2.878.155-4.316-.377-8.44-2.689-12.218a18.74,18.74,0,0,0-20.635-8.463,18.65,18.65,0,0,0-14.1,17.427c-.067,1.709-.838,2.709-2.044,2.653-1.23-.057-1.939-1.119-1.868-2.8a22.805,22.805,0,0,1,22.215-21.737,22.6,22.6,0,0,1,22.757,19.938c.154,1.3.262,2.606.4,4,1.567.182,3.168.247,4.714.569a15.641,15.641,0,0,1,12.084,12.826,6.64,6.64,0,0,0,.393,1.115Z" transform="translate(-1107.173 1403.701)" fill="#fff"/>
                <path id="Trazado_194387" data-name="Trazado 194387" d="M1261.6,59.69c-1.821,0-3.641.012-5.461,0a4.545,4.545,0,0,1-4.715-4.718c-.018-2.3.006-4.593-.007-6.89a4.689,4.689,0,0,1,1.993-4.045,1.18,1.18,0,0,0,.392-.82c.04-1.427.011-2.856.024-4.284a7.761,7.761,0,1,1,15.52-.027c.013,1.4-.031,2.8.027,4.2a1.541,1.541,0,0,0,.512,1.006,4.582,4.582,0,0,1,1.856,3.607c.026,2.492.046,4.986,0,7.477a4.513,4.513,0,0,1-4.514,4.488C1265.354,59.716,1263.477,59.689,1261.6,59.69Zm4.68-16.489c0-.39,0-.692,0-.994-.008-1.343.08-2.7-.049-4.028a4.578,4.578,0,0,0-4.169-4.054c-2.306-.165-4.531,1.165-4.925,3.314a43.883,43.883,0,0,0-.328,5.763Z" transform="translate(-1241.318 4.449)" fill="#fff"/>
              </g>
            </g>
          </g>
        </g>
      </g>
    </g>
  </g>
</svg>
