<svg xmlns="http://www.w3.org/2000/svg" width="112" height="112" viewBox="0 0 112 112">
  <g id="Grupo_1078024" data-name="Grupo 1078024" transform="translate(-1003 -18485.154)">
    <g id="Grupo_1078023" data-name="Grupo 1078023">
      <g id="Grupo_1078022" data-name="Grupo 1078022">
        <g id="Grupo_1078021" data-name="Grupo 1078021">
          <g id="Grupo_1078020" data-name="Grupo 1078020">
            <g id="Grupo_1078019" data-name="Grupo 1078019">
              <g id="Grupo_1078018" data-name="Grupo 1078018">
                <g id="Grupo_1078017" data-name="Grupo 1078017">
                  <g id="Grupo_1078016" data-name="Grupo 1078016">
                    <g id="Grupo_1078015" data-name="Grupo 1078015">
                      <g id="Grupo_1078014" data-name="Grupo 1078014">
                        <g id="Grupo_1078013" data-name="Grupo 1078013">
                          <g id="Grupo_1078012" data-name="Grupo 1078012">
                            <g id="Grupo_1078011" data-name="Grupo 1078011">
                              <g id="Grupo_1078010" data-name="Grupo 1078010">
                                <g id="Grupo_1078009" data-name="Grupo 1078009">
                                  <g id="Grupo_1078008" data-name="Grupo 1078008">
                                    <circle id="Elipse_10485" data-name="Elipse 10485" cx="56" cy="56" r="56" transform="translate(1003 18485.154)" fill="#12263f"/>
                                  </g>
                                </g>
                              </g>
                            </g>
                          </g>
                        </g>
                      </g>
                    </g>
                    <g id="GfRdp9.tif" transform="translate(-52.014 19904.844)">
                      <g id="Grupo_151932" data-name="Grupo 151932" transform="translate(1073.264 -1403.7)">
                        <path id="Trazado_194381" data-name="Trazado 194381" d="M1085.567-1266.24c-.7-.212-1.4-.434-2.1-.634a14.081,14.081,0,0,1-10.184-13.419c-.03-1.032-.008-2.065-.007-3.1,0-3.385.684-4.235,4.134-4.964,0-2.527-.033-5.1.007-7.669a9.774,9.774,0,0,1,7.96-9.833,9.549,9.549,0,0,1,10.6,6.267c.38,1.18.283,2.187-.981,2.726-1.337.571-2.067-.222-2.531-1.322-1.027-2.434-2.692-3.952-5.461-3.963a5.54,5.54,0,0,0-5.61,4.993c-.167,2.4-.057,4.817-.059,7.227,0,.506.046,1.013.083,1.759h4.471c3.559,0,7.118-.017,10.677.006,2.718.018,4.073,1.308,4.03,4a33.587,33.587,0,0,1-.483,7.348c-1.357,5.562-5.031,8.973-10.686,10.172a8.224,8.224,0,0,0-1.1.4Zm-.772-12.4a14.125,14.125,0,0,0,.018,2.052,1.968,1.968,0,0,0,2.11,1.825,1.918,1.918,0,0,0,2.133-1.788,11.5,11.5,0,0,0-.07-4.078,3.109,3.109,0,0,0-2.126-1.727,1.832,1.832,0,0,0-2.052,1.835A16.615,16.615,0,0,0,1084.795-1278.637Z" transform="translate(-1073.264 1339.81)" fill="#fff"/>
                        <path id="Trazado_194382" data-name="Trazado 194382" d="M1187.673-1362.494c-.2.764-.413,1.526-.61,2.291a15.612,15.612,0,0,1-15.109,12.028c-8.317.131-16.637.03-24.956.038-1.361,0-2.416-.44-2.567-1.933-.123-1.212.947-1.984,2.67-1.986,8.2-.011,16.408.008,24.612-.01a11.785,11.785,0,0,0,11.9-10.433,11.811,11.811,0,0,0-9.677-13.022,28.484,28.484,0,0,0-4.633-.16c-2.2-.039-2.94-.685-2.861-2.878.155-4.316-.377-8.44-2.689-12.218a18.74,18.74,0,0,0-20.635-8.463,18.65,18.65,0,0,0-14.1,17.427c-.067,1.709-.838,2.709-2.044,2.653-1.23-.057-1.939-1.119-1.868-2.8a22.805,22.805,0,0,1,22.215-21.737,22.6,22.6,0,0,1,22.757,19.938c.154,1.3.262,2.606.4,4,1.567.182,3.168.247,4.714.569a15.641,15.641,0,0,1,12.084,12.826,6.64,6.64,0,0,0,.393,1.115Z" transform="translate(-1107.173 1403.701)" fill="#fff"/>
                      </g>
                    </g>
                  </g>
                </g>
              </g>
            </g>
          </g>
        </g>
      </g>
    </g>
  </g>
</svg>
