<svg xmlns="http://www.w3.org/2000/svg" width="89.764" height="89.764" viewBox="0 0 89.764 89.764">
  <g id="Grupo_1077908" data-name="Grupo 1077908" transform="translate(-1006.667 -2840.171)">
    <g id="Grupo_1077907" data-name="Grupo 1077907">
      <g id="Grupo_1077906" data-name="Grupo 1077906">
        <g id="Grupo_1077905" data-name="Grupo 1077905">
          <g id="Grupo_1076299" data-name="Grupo 1076299" transform="translate(1006.667 2840.172)">
            <ellipse id="Elipse_4775" data-name="Elipse 4775" cx="44.882" cy="44.882" rx="44.882" ry="44.882" transform="translate(0 0)" fill="#ff8e7c"/>
            <g id="RPLRvI.tif" transform="translate(12.079 18.562)">
              <g id="Grupo_142575" data-name="Grupo 142575" transform="translate(0 0)">
                <path id="Trazado_183809" data-name="Trazado 183809" d="M-576.237,1724.528c0,2.759.028,5.518-.009,8.276a3.79,3.79,0,0,1-4.055,4.114q-7.4.077-14.8,0a3.8,3.8,0,0,1-4.078-4.1q-.043-8.355,0-16.71a3.748,3.748,0,0,1,4.056-4.087q7.4-.055,14.8,0c2.627.02,4.062,1.541,4.082,4.224C-576.221,1719.011-576.237,1721.769-576.237,1724.528Zm-2.549-.13h-.008c0-2.545.005-5.09,0-7.635-.005-1.96-.262-2.246-2.166-2.251q-6.76-.018-13.521.011c-1.878.007-2.141.263-2.146,2.092-.015,5.249.015,10.5-.027,15.748-.011,1.405.51,2.046,1.951,2.036q7-.047,14,0c1.466.011,1.961-.666,1.936-2.049C-578.82,1729.7-578.786,1727.049-578.786,1724.4Z" transform="translate(620.879 -1693.313)" fill="#12263f"/>
                <path id="Trazado_183810" data-name="Trazado 183810" d="M-478.833,1719.128a18.887,18.887,0,0,1-6.315,14.117c-.7.643-1.481,1.248-2.316.29-.765-.878-.123-1.52.536-2.148,7.377-7.021,7.368-17.4-.021-24.343-.7-.661-1.4-1.324-.542-2.257.8-.868,1.539-.263,2.2.319A18.542,18.542,0,0,1-478.833,1719.128Z" transform="translate(545.196 -1688.112)" fill="#12263f"/>
                <path id="Trazado_183811" data-name="Trazado 183811" d="M-666.931,1718.037a18.137,18.137,0,0,1,6.037-12.554c.722-.678,1.54-1.635,2.543-.527.932,1.03-.028,1.7-.727,2.357a16.2,16.2,0,0,0,.066,24.033c.623.587,1.441,1.146.777,2.118-.716,1.048-1.511.6-2.284-.045C-664.479,1730.112-666.933,1724.7-666.931,1718.037Z" transform="translate(666.931 -1688.177)" fill="#12263f"/>
                <path id="Trazado_183812" data-name="Trazado 183812" d="M-586,1653.613a13.891,13.891,0,0,1,8.838,3.786c.681.615,1.246,1.311.462,2.161s-1.484.339-2.193-.267c-4.9-4.181-10.957-4.2-15.931-.059-.728.605-1.5,1.263-2.309.276-.794-.964-.02-1.65.662-2.275A15.119,15.119,0,0,1-586,1653.613Z" transform="translate(619.704 -1653.613)" fill="#12263f"/>
                <path id="Trazado_183813" data-name="Trazado 183813" d="M-507.611,1729.892a11.465,11.465,0,0,1-4.637,9.115c-.707.554-1.5,1.022-2.217.11-.7-.889-.123-1.518.607-2.118,4.915-4.036,4.979-10.464.148-14.548-.724-.613-1.536-1.233-.765-2.21.852-1.08,1.706-.325,2.447.291A11.7,11.7,0,0,1-507.611,1729.892Z" transform="translate(563.484 -1698.545)" fill="#12263f"/>
                <path id="Trazado_183814" data-name="Trazado 183814" d="M-628.25,1719.111c.389.308.9.52,1.049.881a1.8,1.8,0,0,1-.11,1.323c-.167.349-.609.567-.933.841a9.057,9.057,0,0,0,.1,14.245c.164.135.439.226.488.39.18.592.285,1.207.418,1.813-.654.067-1.509.435-1.929.153a10.854,10.854,0,0,1-4.883-8.02,11.6,11.6,0,0,1,4.49-10.8A12.257,12.257,0,0,1-628.25,1719.111Z" transform="translate(644.642 -1698.147)" fill="#12263f"/>
                <path id="Trazado_183815" data-name="Trazado 183815" d="M-578.355,1670.023a9.207,9.207,0,0,1,6.088,2.38c.683.608,1.049,1.414.276,2.016a2.041,2.041,0,0,1-1.892-.1c-3.25-2.315-5.851-2.367-8.983.038-.736.565-1.562.867-2.016,0a2.24,2.24,0,0,1,.451-1.989A8.591,8.591,0,0,1-578.355,1670.023Z" transform="translate(611.207 -1664.771)" fill="#12263f"/>
                <path id="Trazado_183816" data-name="Trazado 183816" d="M-570.323,1686.154a2.755,2.755,0,0,1,2.759,2.688,2.789,2.789,0,0,1-2.8,2.828,2.8,2.8,0,0,1-2.756-2.871A2.727,2.727,0,0,1-570.323,1686.154Z" transform="translate(603.145 -1675.739)" fill="#12263f"/>
                <path id="Trazado_183817" data-name="Trazado 183817" d="M-571.237,1734.983c0,1.221.056,2.445-.013,3.662a3.716,3.716,0,0,1-3.788,3.715c-2.121.065-4.248.06-6.369,0a3.687,3.687,0,0,1-3.767-3.732q-.113-3.739,0-7.484a3.729,3.729,0,0,1,3.783-3.737c2.121-.069,4.248-.071,6.369,0a3.758,3.758,0,0,1,3.773,3.753C-571.185,1732.432-571.236,1733.708-571.237,1734.983Zm-2.547-.131h-.007v-3.343a1.4,1.4,0,0,0-1.546-1.6c-1.91-.009-3.82,0-5.731,0a1.391,1.391,0,0,0-1.57,1.568q-.01,3.423-.007,6.845a1.327,1.327,0,0,0,1.471,1.488c1.963.015,3.927.009,5.89.008a1.336,1.336,0,0,0,1.492-1.47C-573.767,1737.187-573.784,1736.019-573.784,1734.851Z" transform="translate(611.38 -1703.752)" fill="#12263f"/>
                <path id="Trazado_183818" data-name="Trazado 183818" d="M-564.153,1748.564c-.9.564-1.428,1.154-1.918,1.124-.41-.025-.776-.774-1.162-1.2.452-.4.865-1.051,1.368-1.131C-565.479,1747.293-564.979,1747.947-564.153,1748.564Z" transform="translate(599.144 -1717.348)" fill="#12263f"/>
              </g>
            </g>
          </g>
        </g>
      </g>
    </g>
  </g>
</svg>
