<svg xmlns="http://www.w3.org/2000/svg" xmlns:xlink="http://www.w3.org/1999/xlink" width="832" height="192" viewBox="0 0 832 192">
  <defs>
    <filter id="Rectángulo_376920" x="0" y="0" width="192" height="192" filterUnits="userSpaceOnUse">
      <feOffset dy="3" input="SourceAlpha"/>
      <feGaussianBlur stdDeviation="3" result="blur"/>
      <feFlood flood-opacity="0.161"/>
      <feComposite operator="in" in2="blur"/>
      <feComposite in="SourceGraphic"/>
    </filter>
    <filter id="Rectángulo_376921" x="212" y="0" width="192" height="192" filterUnits="userSpaceOnUse">
      <feOffset dy="3" input="SourceAlpha"/>
      <feGaussianBlur stdDeviation="3" result="blur-2"/>
      <feFlood flood-opacity="0.161"/>
      <feComposite operator="in" in2="blur-2"/>
      <feComposite in="SourceGraphic"/>
    </filter>
    <filter id="Rectángulo_376922" x="426" y="0" width="192" height="192" filterUnits="userSpaceOnUse">
      <feOffset dy="3" input="SourceAlpha"/>
      <feGaussianBlur stdDeviation="3" result="blur-3"/>
      <feFlood flood-opacity="0.161"/>
      <feComposite operator="in" in2="blur-3"/>
      <feComposite in="SourceGraphic"/>
    </filter>
    <filter id="Rectángulo_376923" x="640" y="0" width="192" height="192" filterUnits="userSpaceOnUse">
      <feOffset dy="3" input="SourceAlpha"/>
      <feGaussianBlur stdDeviation="3" result="blur-4"/>
      <feFlood flood-opacity="0.161"/>
      <feComposite operator="in" in2="blur-4"/>
      <feComposite in="SourceGraphic"/>
    </filter>
  </defs>
  <g id="Grupo_1077975" data-name="Grupo 1077975" transform="translate(-171 -16755)">
    <g id="Grupo_1077974" data-name="Grupo 1077974">
      <g id="Grupo_1077942" data-name="Grupo 1077942">
        <g id="Grupo_1077941" data-name="Grupo 1077941">
          <g id="Grupo_1077940" data-name="Grupo 1077940">
            <g id="Grupo_1077939" data-name="Grupo 1077939">
              <g id="Grupo_1077938" data-name="Grupo 1077938">
                <g id="Grupo_1077937" data-name="Grupo 1077937">
                  <g id="Grupo_1077936" data-name="Grupo 1077936">
                    <g id="Grupo_1077935" data-name="Grupo 1077935">
                      <g id="Grupo_1077934" data-name="Grupo 1077934">
                        <g id="Grupo_1077774" data-name="Grupo 1077774" transform="translate(-4 7)">
                          <g transform="matrix(1, 0, 0, 1, 175, 16748)" filter="url(#Rectángulo_376920)">
                            <rect id="Rectángulo_376920-2" data-name="Rectángulo 376920" width="174" height="174" rx="10" transform="translate(9 6)" fill="#fff"/>
                          </g>
                          <path id="Trazado_826480" data-name="Trazado 826480" d="M52.9,14.656H48.789L48.008,17H45.516L49.75,5.625h2.172L56.18,17H53.688Zm-3.477-1.9h2.844L50.836,8.5Zm7.32-.047a5.094,5.094,0,0,1,.887-3.148,2.877,2.877,0,0,1,2.426-1.172,2.589,2.589,0,0,1,2.039.922V5h2.266V17H62.32l-.109-.9a2.657,2.657,0,0,1-2.172,1.055,2.869,2.869,0,0,1-2.395-1.176A5.258,5.258,0,0,1,56.742,12.711ZM59,12.875a3.328,3.328,0,0,0,.414,1.82,1.349,1.349,0,0,0,1.2.633,1.511,1.511,0,0,0,1.477-.883V11.109a1.489,1.489,0,0,0-1.461-.883Q59,10.227,59,12.875Zm6.758-.18a5.053,5.053,0,0,1,.887-3.148,2.9,2.9,0,0,1,2.434-1.156A2.6,2.6,0,0,1,71.242,9.43l.148-.883h1.984v11.7H71.109V16.273a2.6,2.6,0,0,1-2.047.883,2.878,2.878,0,0,1-2.406-1.172A5.3,5.3,0,0,1,65.758,12.7Zm2.258.164a3.305,3.305,0,0,0,.426,1.844,1.364,1.364,0,0,0,1.2.633,1.519,1.519,0,0,0,1.469-.828V11.016a1.506,1.506,0,0,0-1.453-.8,1.38,1.38,0,0,0-1.211.633A3.65,3.65,0,0,0,68.016,12.859Zm12.2,3.281A2.831,2.831,0,0,1,77.9,17.156a2.67,2.67,0,0,1-2.074-.781,3.335,3.335,0,0,1-.73-2.289V8.547h2.258v5.461q0,1.32,1.2,1.32a1.631,1.631,0,0,0,1.578-.8V8.547H82.4V17H80.273ZM86.484,17H84.219V8.547h2.266Zm-2.4-10.641a1.112,1.112,0,0,1,.34-.836,1.465,1.465,0,0,1,1.848,0,1.105,1.105,0,0,1,.344.836,1.108,1.108,0,0,1-.348.844,1.448,1.448,0,0,1-1.836,0A1.108,1.108,0,0,1,84.086,6.359Zm8.836,8.3a.727.727,0,0,0-.41-.652,4.659,4.659,0,0,0-1.316-.426q-3.016-.633-3.016-2.562a2.323,2.323,0,0,1,.934-1.879,3.766,3.766,0,0,1,2.441-.754,4.053,4.053,0,0,1,2.574.758,2.388,2.388,0,0,1,.965,1.969H92.836a1.092,1.092,0,0,0-.312-.8A1.322,1.322,0,0,0,91.547,10a1.351,1.351,0,0,0-.883.258.814.814,0,0,0-.312.656.7.7,0,0,0,.355.605,3.657,3.657,0,0,0,1.2.4,9.8,9.8,0,0,1,1.422.379,2.336,2.336,0,0,1,1.789,2.273,2.2,2.2,0,0,1-.992,1.871,4.28,4.28,0,0,1-2.562.715,4.47,4.47,0,0,1-1.887-.379,3.166,3.166,0,0,1-1.293-1.039,2.414,2.414,0,0,1-.469-1.426h2.141a1.179,1.179,0,0,0,.445.922,1.766,1.766,0,0,0,1.109.32,1.635,1.635,0,0,0,.98-.246A.766.766,0,0,0,92.922,14.664ZM98.953,17H96.688V8.547h2.266Zm-2.4-10.641a1.112,1.112,0,0,1,.34-.836,1.465,1.465,0,0,1,1.848,0,1.105,1.105,0,0,1,.344.836,1.108,1.108,0,0,1-.348.844,1.448,1.448,0,0,1-1.836,0A1.108,1.108,0,0,1,96.555,6.359Zm7.773,8.977a1.481,1.481,0,0,0,1.016-.344,1.2,1.2,0,0,0,.406-.914h2.117a2.9,2.9,0,0,1-.469,1.574,3.093,3.093,0,0,1-1.262,1.109,3.949,3.949,0,0,1-1.77.395A3.67,3.67,0,0,1,101.508,16a4.56,4.56,0,0,1-1.047-3.184v-.148A4.508,4.508,0,0,1,101.5,9.555a3.627,3.627,0,0,1,2.852-1.164,3.555,3.555,0,0,1,2.543.9,3.2,3.2,0,0,1,.973,2.4H105.75a1.539,1.539,0,0,0-.406-1.066,1.513,1.513,0,0,0-2.223.164,3.324,3.324,0,0,0-.4,1.863v.234a3.366,3.366,0,0,0,.4,1.875A1.378,1.378,0,0,0,104.328,15.336ZM111.539,17h-2.266V8.547h2.266Zm-2.4-10.641a1.112,1.112,0,0,1,.34-.836,1.465,1.465,0,0,1,1.848,0,1.105,1.105,0,0,1,.344.836,1.108,1.108,0,0,1-.348.844,1.448,1.448,0,0,1-1.836,0A1.108,1.108,0,0,1,109.141,6.359Zm3.906,6.336a5.013,5.013,0,0,1,.484-2.242,3.546,3.546,0,0,1,1.395-1.523,4.069,4.069,0,0,1,2.113-.539,3.849,3.849,0,0,1,2.793,1.047,4.2,4.2,0,0,1,1.207,2.844l.016.578a4.418,4.418,0,0,1-1.086,3.121,4.209,4.209,0,0,1-5.832,0,4.5,4.5,0,0,1-1.09-3.187Zm2.258.164a3.151,3.151,0,0,0,.453,1.84,1.629,1.629,0,0,0,2.578.008A3.448,3.448,0,0,0,118.8,12.7a3.12,3.12,0,0,0-.461-1.828,1.5,1.5,0,0,0-1.3-.648,1.475,1.475,0,0,0-1.281.645A3.506,3.506,0,0,0,115.3,12.859ZM117.484,5h2.461l-2.164,2.422h-1.836Zm7.039,3.547.07.977a2.951,2.951,0,0,1,2.43-1.133,2.453,2.453,0,0,1,2,.789,3.682,3.682,0,0,1,.672,2.359V17h-2.258V11.594a1.465,1.465,0,0,0-.312-1.043,1.4,1.4,0,0,0-1.039-.324,1.553,1.553,0,0,0-1.43.813V17H122.4V8.547Z" transform="translate(184 16867)" fill="#12263f" opacity="0.8"/>
                          <g id="Grupo_1076433" data-name="Grupo 1076433" transform="translate(230 16772)">
                            <ellipse id="Elipse_4775" data-name="Elipse 4775" cx="42" cy="41.5" rx="42" ry="41.5" transform="translate(0 0.001)" fill="#ff8e7c"/>
                            <g id="_8QGM6M" data-name="8QGM6M" transform="translate(15.62 16.044)">
                              <g id="Grupo_151393" data-name="Grupo 151393">
                                <path id="Trazado_193784" data-name="Trazado 193784" d="M1255.623-188.452a12.665,12.665,0,0,1-.17,1.707,1.312,1.312,0,0,1-.564.722,11.013,11.013,0,0,1-3.654,1.548,1.587,1.587,0,0,1-1.661-.563c-.412-.5-.809-1.009-1.243-1.487a.967.967,0,0,0-.523-.246,1.376,1.376,0,0,0-1.535.738,8.383,8.383,0,0,1-.822,1.012,1.427,1.427,0,0,1-1.7.507c-1.135-.455-2.252-.958-3.353-1.491a1.325,1.325,0,0,1-.738-1.307c.025-.738.084-1.474.129-2.212a.924.924,0,0,0-.9-.916c-.658.034-1.317.069-1.974.125a1.608,1.608,0,0,1-1.67-.88,14.694,14.694,0,0,1-1.4-3.391,1.569,1.569,0,0,1,.512-1.711q.758-.666,1.514-1.333a.963.963,0,0,0-.009-1.318c-.495-.436-.987-.875-1.485-1.307a1.6,1.6,0,0,1-.52-1.781,14.841,14.841,0,0,1,1.394-3.35,1.6,1.6,0,0,1,1.637-.873c.671.052,1.342.1,2.014.133a.938.938,0,0,0,.882-.892c-.044-.711-.1-1.421-.134-2.132a1.51,1.51,0,0,1,.815-1.471,14.008,14.008,0,0,1,3.5-1.452,1.53,1.53,0,0,1,1.645.489c.465.522.924,1.049,1.389,1.571a.989.989,0,0,0,1.26,0c.465-.522.925-1.048,1.389-1.571a1.528,1.528,0,0,1,1.645-.491,14.133,14.133,0,0,1,3.5,1.451,1.548,1.548,0,0,1,.812,1.552c-.042.684-.086,1.369-.123,2.054a.929.929,0,0,0,.883.89c.672-.038,1.343-.085,2.014-.133a1.508,1.508,0,0,1,1.621.886c.488,1.077.951,2.168,1.374,3.273a1.571,1.571,0,0,1-.557,1.9c-.509.418-.993.867-1.484,1.307a.991.991,0,0,0-.009,1.2c.509.459,1.022.915,1.543,1.36a1.6,1.6,0,0,1,.542,1.775,14.634,14.634,0,0,1-1.434,3.419,1.563,1.563,0,0,1-1.585.822q-1.006-.073-2.014-.128a.919.919,0,0,0-.894.876c.014.369.037.738.057,1.106Zm-3.214-.953h.008c-.021-.3-.039-.606-.062-.908a1.629,1.629,0,0,1,.554-1.377c.45-.424.89-.861,1.313-1.312a1.6,1.6,0,0,1,1.335-.557c.421.028.843.05,1.264.081.953.071.942.069,1.282-.823a.381.381,0,0,0-.139-.5c-.464-.391-.915-.8-1.37-1.2a1.586,1.586,0,0,1-.563-1.295c.017-.658.015-1.317,0-1.975a1.558,1.558,0,0,1,.532-1.267c.335-.3.672-.594,1.008-.891.672-.6.665-.592.289-1.423a.385.385,0,0,0-.446-.273c-.631.053-1.264.078-1.9.114a1.578,1.578,0,0,1-1.3-.555q-.634-.678-1.311-1.314a1.607,1.607,0,0,1-.556-1.336c.028-.434.048-.87.08-1.3.067-.907.066-.9-.787-1.225a.407.407,0,0,0-.541.138c-.4.476-.812.937-1.228,1.4a1.612,1.612,0,0,1-1.347.529c-.6-.026-1.211-.023-1.815,0a1.613,1.613,0,0,1-1.344-.538c-.29-.325-.576-.653-.863-.979-.613-.695-.609-.686-1.452-.31a.385.385,0,0,0-.268.451c.052.618.079,1.237.116,1.856a1.588,1.588,0,0,1-.567,1.331c-.417.382-.812.789-1.207,1.195a1.853,1.853,0,0,1-1.618.658c-.366-.045-.735-.078-1.1-.1-.949-.051-.982-.017-1.292.865a.394.394,0,0,0,.162.5c.5.412.992.827,1.464,1.267a1.6,1.6,0,0,1,.484,1.288c-.02.605-.03,1.212,0,1.817a1.593,1.593,0,0,1-.526,1.346c-.334.3-.672.594-1.009.89-.667.587-.657.582-.307,1.4a.43.43,0,0,0,.51.3c.6-.055,1.211-.079,1.817-.117a1.583,1.583,0,0,1,1.331.562,17.6,17.6,0,0,0,1.253,1.259,1.66,1.66,0,0,1,.609,1.431q-.051.73-.089,1.462c-.035.692-.027.68.614.965a.379.379,0,0,0,.531-.145c.358-.456.732-.9,1.105-1.345a1.5,1.5,0,0,1,1.219-.549c.815.01,1.63.025,2.445.02a1.561,1.561,0,0,1,1.282.586q.5.609,1.008,1.22c.377.459.376.46.922.223.036-.016.072-.034.109-.047.339-.113.525-.3.424-.7A4.689,4.689,0,0,1,1252.409-189.4Z" transform="translate(-1218.948 212.141)" fill="#12263f"/>
                                <path id="Trazado_193785" data-name="Trazado 193785" d="M1063.507-85.518h.406q10.865,0,21.73.008a.5.5,0,0,0,.589-.442c.846-3.018,1.714-6.03,2.573-9.044q1.235-4.333,2.468-8.666a1.556,1.556,0,0,1,1.65-1.293,1.537,1.537,0,0,1,1.323,2.046c-.49,1.752-.993,3.5-1.492,5.249q-1.98,6.94-3.964,13.88a1.57,1.57,0,0,1-1.748,1.323q-12.231,0-24.461,0a1.582,1.582,0,0,1-1.812-1.388q-1.461-5.483-2.916-10.967-2.11-7.947-4.213-15.9a.374.374,0,0,0-.437-.325c-1.662.011-3.324.006-4.986,0a1.733,1.733,0,0,1-1.5-.635,1.483,1.483,0,0,1,.824-2.346,3.707,3.707,0,0,1,.744-.081q3.147-.009,6.294,0a1.545,1.545,0,0,1,1.662,1.278q2.082,7.836,4.161,15.673,1.486,5.594,2.976,11.188C1063.414-85.816,1063.459-85.68,1063.507-85.518Z" transform="translate(-1046.409 121.857)" fill="#12263f"/>
                                <path id="Trazado_193786" data-name="Trazado 193786" d="M1447.719,317.443a5.529,5.529,0,1,1,5.547-5.518A5.528,5.528,0,0,1,1447.719,317.443Zm2.481-5.515a2.465,2.465,0,1,0-2.473,2.459A2.466,2.466,0,0,0,1450.2,311.927Z" transform="translate(-1410.865 -265.334)" fill="#12263f"/>
                                <path id="Trazado_193787" data-name="Trazado 193787" d="M1213.718,312.059a5.528,5.528,0,1,1,11.056.113,5.528,5.528,0,0,1-11.056-.113Zm5.487,2.494a2.473,2.473,0,1,0-2.429-2.5A2.481,2.481,0,0,0,1219.2,314.554Z" transform="translate(-1200.472 -265.504)" fill="#12263f"/>
                                <path id="Trazado_193788" data-name="Trazado 193788" d="M1323.627-115.517a6.738,6.738,0,0,1,6.788-6.733,6.74,6.74,0,0,1,6.692,6.8,6.741,6.741,0,0,1-6.817,6.675A6.727,6.727,0,0,1,1323.627-115.517Zm6.84-3.668a3.668,3.668,0,0,0-3.785,3.662,3.681,3.681,0,0,0,3.63,3.682,3.658,3.658,0,0,0,3.724-3.617A3.665,3.665,0,0,0,1330.467-119.186Z" transform="translate(-1301.68 129.367)" fill="#12263f"/>
                              </g>
                            </g>
                          </g>
                        </g>
                      </g>
                    </g>
                  </g>
                </g>
              </g>
            </g>
          </g>
        </g>
      </g>
      <g id="Grupo_1077933" data-name="Grupo 1077933">
        <g id="Grupo_1077932" data-name="Grupo 1077932">
          <g id="Grupo_1077931" data-name="Grupo 1077931">
            <g id="Grupo_1077930" data-name="Grupo 1077930">
              <g id="Grupo_1077929" data-name="Grupo 1077929">
                <g id="Grupo_1077928" data-name="Grupo 1077928">
                  <g id="Grupo_1077927" data-name="Grupo 1077927">
                    <g id="Grupo_1077926" data-name="Grupo 1077926">
                      <g id="Grupo_1077925" data-name="Grupo 1077925">
                        <g id="Grupo_1077924" data-name="Grupo 1077924">
                          <g id="Grupo_1077923" data-name="Grupo 1077923">
                            <g id="Grupo_1077922" data-name="Grupo 1077922">
                              <g id="Grupo_1077921" data-name="Grupo 1077921">
                                <g id="Grupo_1077920" data-name="Grupo 1077920">
                                  <g id="Grupo_1077775" data-name="Grupo 1077775" transform="translate(-4 7)">
                                    <g transform="matrix(1, 0, 0, 1, 175, 16748)" filter="url(#Rectángulo_376921)">
                                      <rect id="Rectángulo_376921-2" data-name="Rectángulo 376921" width="174" height="174" rx="10" transform="translate(221 6)" fill="#fff"/>
                                    </g>
                                    <path id="Trazado_826478" data-name="Trazado 826478" d="M47.41,13.211A4.025,4.025,0,0,1,46.055,16.1a4.76,4.76,0,0,1-3.223,1.055,4.28,4.28,0,0,1-3.441-1.473,6.038,6.038,0,0,1-1.254-4.043v-.7a6.819,6.819,0,0,1,.578-2.891,4.332,4.332,0,0,1,1.652-1.918,5.164,5.164,0,0,1,5.668.387,4.326,4.326,0,0,1,1.391,2.961H45.082a2.376,2.376,0,0,0-.613-1.6,2.271,2.271,0,0,0-1.605-.5,1.991,1.991,0,0,0-1.754.84,4.707,4.707,0,0,0-.6,2.605V11.7a5.038,5.038,0,0,0,.559,2.7,1.954,1.954,0,0,0,1.762.852,2.314,2.314,0,0,0,1.621-.5,2.241,2.241,0,0,0,.613-1.535Zm1.039-.516a5.013,5.013,0,0,1,.484-2.242A3.546,3.546,0,0,1,50.328,8.93a4.069,4.069,0,0,1,2.113-.539,3.849,3.849,0,0,1,2.793,1.047,4.2,4.2,0,0,1,1.207,2.844l.016.578a4.418,4.418,0,0,1-1.086,3.121,4.209,4.209,0,0,1-5.832,0,4.5,4.5,0,0,1-1.09-3.187Zm2.258.164a3.151,3.151,0,0,0,.453,1.84,1.629,1.629,0,0,0,2.578.008A3.448,3.448,0,0,0,54.2,12.7a3.12,3.12,0,0,0-.461-1.828,1.5,1.5,0,0,0-1.3-.648,1.475,1.475,0,0,0-1.281.645A3.506,3.506,0,0,0,50.707,12.859Zm9.219-4.312.07.977a2.951,2.951,0,0,1,2.43-1.133,2.453,2.453,0,0,1,2,.789,3.682,3.682,0,0,1,.672,2.359V17H62.84V11.594a1.465,1.465,0,0,0-.312-1.043,1.4,1.4,0,0,0-1.039-.324,1.553,1.553,0,0,0-1.43.813V17H57.8V8.547ZM67.355,17V10.2H66.1V8.547h1.258V8.156a3.17,3.17,0,0,1,.98-2.457,3.945,3.945,0,0,1,2.723-.863,9.031,9.031,0,0,1,2.563.461l-.328,1.867a10,10,0,0,0-1.187-.293A5.835,5.835,0,0,0,71.2,6.8q-1.578,0-1.578,1.4v.344h1.664V10.2H69.621V17Zm7.32,0H72.41V8.547h2.266Zm1.539-4.289a4.954,4.954,0,0,1,.926-3.133,3,3,0,0,1,2.5-1.187,2.631,2.631,0,0,1,2.164.953l.094-.8h2.047v8.172a3.613,3.613,0,0,1-.5,1.93A3.236,3.236,0,0,1,82.02,19.9a4.985,4.985,0,0,1-2.141.43,4.635,4.635,0,0,1-1.812-.371A3.217,3.217,0,0,1,76.73,19l1-1.375a2.645,2.645,0,0,0,2.047.945,1.936,1.936,0,0,0,1.4-.48,1.8,1.8,0,0,0,.5-1.363v-.453a2.612,2.612,0,0,1-2.055.883,2.992,2.992,0,0,1-2.465-1.191,4.953,4.953,0,0,1-.941-3.16Zm2.258.164a3.076,3.076,0,0,0,.461,1.8,1.467,1.467,0,0,0,1.266.652,1.568,1.568,0,0,0,1.477-.773V11a1.565,1.565,0,0,0-1.461-.773,1.476,1.476,0,0,0-1.277.664A3.467,3.467,0,0,0,78.473,12.875Zm12.266,3.266a2.831,2.831,0,0,1-2.312,1.016,2.67,2.67,0,0,1-2.074-.781,3.335,3.335,0,0,1-.73-2.289V8.547h2.258v5.461q0,1.32,1.2,1.32a1.631,1.631,0,0,0,1.578-.8V8.547h2.266V17H90.8Zm8.641-5.477a6.134,6.134,0,0,0-.812-.062,1.654,1.654,0,0,0-1.68.867V17H94.629V8.547h2.133l.063,1.008a2.092,2.092,0,0,1,1.883-1.164,2.366,2.366,0,0,1,.7.1ZM105.129,17a2.507,2.507,0,0,1-.227-.758,2.732,2.732,0,0,1-2.133.914,3,3,0,0,1-2.059-.719,2.312,2.312,0,0,1-.816-1.812,2.389,2.389,0,0,1,1-2.062,4.915,4.915,0,0,1,2.879-.727h1.039v-.484a1.393,1.393,0,0,0-.3-.937,1.183,1.183,0,0,0-.949-.352,1.345,1.345,0,0,0-.895.273.929.929,0,0,0-.324.75h-2.258a2.268,2.268,0,0,1,.453-1.359,3,3,0,0,1,1.281-.98,4.669,4.669,0,0,1,1.859-.355,3.689,3.689,0,0,1,2.48.785,2.747,2.747,0,0,1,.918,2.207v3.664a4.041,4.041,0,0,0,.336,1.82V17Zm-1.867-1.57a1.945,1.945,0,0,0,.922-.223,1.462,1.462,0,0,0,.625-.6V13.156h-.844q-1.7,0-1.8,1.172l-.008.133a.9.9,0,0,0,.3.7A1.153,1.153,0,0,0,103.262,15.43Zm9.063-.094a1.481,1.481,0,0,0,1.016-.344,1.2,1.2,0,0,0,.406-.914h2.117a2.9,2.9,0,0,1-.469,1.574,3.093,3.093,0,0,1-1.262,1.109,3.949,3.949,0,0,1-1.77.395A3.67,3.67,0,0,1,109.5,16a4.56,4.56,0,0,1-1.047-3.184v-.148A4.508,4.508,0,0,1,109.5,9.555a3.627,3.627,0,0,1,2.852-1.164,3.555,3.555,0,0,1,2.543.9,3.2,3.2,0,0,1,.973,2.4h-2.117a1.539,1.539,0,0,0-.406-1.066,1.513,1.513,0,0,0-2.223.164,3.324,3.324,0,0,0-.4,1.863v.234a3.366,3.366,0,0,0,.4,1.875A1.378,1.378,0,0,0,112.324,15.336ZM119.535,17H117.27V8.547h2.266Zm-2.4-10.641a1.112,1.112,0,0,1,.34-.836,1.465,1.465,0,0,1,1.848,0,1.105,1.105,0,0,1,.344.836,1.108,1.108,0,0,1-.348.844,1.448,1.448,0,0,1-1.836,0A1.108,1.108,0,0,1,117.137,6.359Zm3.906,6.336a5.013,5.013,0,0,1,.484-2.242,3.546,3.546,0,0,1,1.395-1.523,4.069,4.069,0,0,1,2.113-.539,3.849,3.849,0,0,1,2.793,1.047,4.2,4.2,0,0,1,1.207,2.844l.016.578a4.418,4.418,0,0,1-1.086,3.121,4.209,4.209,0,0,1-5.832,0,4.5,4.5,0,0,1-1.09-3.187Zm2.258.164a3.151,3.151,0,0,0,.453,1.84,1.629,1.629,0,0,0,2.578.008,3.448,3.448,0,0,0,.461-2.012,3.12,3.12,0,0,0-.461-1.828,1.5,1.5,0,0,0-1.3-.648,1.475,1.475,0,0,0-1.281.645A3.506,3.506,0,0,0,123.3,12.859ZM125.48,5h2.461l-2.164,2.422h-1.836Zm7.039,3.547.07.977a2.951,2.951,0,0,1,2.43-1.133,2.453,2.453,0,0,1,2,.789,3.682,3.682,0,0,1,.672,2.359V17h-2.258V11.594a1.465,1.465,0,0,0-.312-1.043,1.4,1.4,0,0,0-1.039-.324,1.553,1.553,0,0,0-1.43.813V17h-2.258V8.547Z" transform="translate(396 16867)" fill="#12263f"/>
                                    <g id="Grupo_1076434" data-name="Grupo 1076434" transform="translate(442.258 16772)">
                                      <circle id="Elipse_4775-2" data-name="Elipse 4775" cx="41.5" cy="41.5" r="41.5" transform="translate(-0.258 0.001)" fill="#ff8e7c"/>
                                      <g id="UyrgcM.tif" transform="translate(18.329 15.353)">
                                        <g id="Grupo_151394" data-name="Grupo 151394">
                                          <path id="Trazado_193789" data-name="Trazado 193789" d="M1969.081,16.522c.468.248.928.512,1.406.74a4.448,4.448,0,0,1,2.065,5.524,1.927,1.927,0,0,1-2.021,1.087c-5.471-.015-10.943-.007-16.414-.007-2.189,0-4.377.006-6.566,0-1.561-.006-2.143-.633-2.238-2.152-.143-2.273.607-3.945,2.874-4.737a6.158,6.158,0,0,0,.964-.6c-.453-.041-.694-.082-.934-.082-3.454-.006-6.907,0-10.361-.011a3.758,3.758,0,0,1-4.079-4.09q-.013-15.389,0-30.778a3.752,3.752,0,0,1,3.939-4.032,5.473,5.473,0,0,1,.82,0,3.311,3.311,0,0,0,3.233-1.242,2.1,2.1,0,0,1,2.952-.409c.739.41,1.127.2,1.343-.58a2.167,2.167,0,0,1,2.376-1.806c.718-.011,1.437-.018,2.154,0a2.133,2.133,0,0,1,2.232,1.739c.213.876.628,1.01,1.374.607a2.148,2.148,0,0,1,2.953.483,3.514,3.514,0,0,0,3.037,1.229c6.634-.057,13.268-.029,19.9-.028,2.689,0,4.193,1.494,4.195,4.189q.007,15.286,0,30.573a3.8,3.8,0,0,1-4.147,4.138q-5.487.009-10.973,0Zm13.179-8.6c0-.4,0-.7,0-1.007q0-12.516,0-25.031c0-1.993-.5-2.495-2.48-2.495-6.326,0-12.652.025-18.978-.018-.924-.006-1.482.126-1.836,1.095-.294.8-.258,1.172.615,1.4a2.107,2.107,0,0,1,1.737,2.224c.021.683.011,1.368,0,2.052a2.209,2.209,0,0,1-1.879,2.527c-.664.206-.89.549-.55,1.2.758,1.449.654,2.1-.513,3.272-.482.485-.952.985-1.464,1.436a2.172,2.172,0,0,1-2.574.307c-1.007-.5-1.193-.427-1.535.647a2.128,2.128,0,0,1-2.239,1.6c-1.582-.086-3.466.652-4.42-1.421a.9.9,0,0,1-.03-.1c-.4-1.183-.544-1.249-1.6-.727a2.086,2.086,0,0,1-2.628-.377c-.555-.557-1.129-1.1-1.667-1.669a2.141,2.141,0,0,1-.376-2.722c.473-.942.371-1.178-.649-1.507a2.125,2.125,0,0,1-1.636-2.31c.061-1.555-.611-3.394,1.405-4.328.123-.057.289-.052.384-.134.278-.24.8-.6.745-.751-.212-.6-.494-1.486-.945-1.623-2.183-.663-3.344.3-3.344,2.567q0,12.413,0,24.826V7.922Zm0,2.128H1935.8c0,.663,0,1.27,0,1.877.008,1.791.531,2.324,2.312,2.325q14.207.005,28.414,0,6.822,0,13.643,0c1.459,0,2.063-.607,2.087-2.039C1982.268,11.532,1982.258,10.851,1982.258,10.05ZM1950.736-4.885c.721-2.526,2.341-3.2,4.726-2.034l1.866-1.83c-1.435-2.021-.343-4.135,1.9-4.749v-2.608c-2.316-.463-3.111-2.417-1.925-4.7l-1.82-1.85a2.975,2.975,0,0,1-4.77-1.892h-2.6c-.219,2.168-2.858,3.211-4.935,1.792a8.122,8.122,0,0,1-.966,1.241,1.086,1.086,0,0,0-.269,1.559,2.644,2.644,0,0,1,.076,1.751,2.411,2.411,0,0,1-2.384,2.067V-13.4a2.953,2.953,0,0,1,2.036,4.622l1.746,1.917c.3-.171.554-.341.828-.464,1.153-.521,3.191.108,3.482,1.3.3,1.242,1.021,1.206,1.928,1.141C1949.993-4.905,1950.335-4.885,1950.736-4.885Zm19.842,26.664c.29-1.78.051-2.108-1.376-2.9a10.389,10.389,0,0,1-2.466-1.937,1.783,1.783,0,0,0-1.466-.661c-4.067.022-8.135.033-12.2-.005a2.142,2.142,0,0,0-1.9.841,7.782,7.782,0,0,1-2.242,1.732c-1.526.831-1.768,1.187-1.446,2.932Z" transform="translate(-1933.769 26.659)" fill="#12263f"/>
                                          <path id="Trazado_193790" data-name="Trazado 193790" d="M2074.554,49.03c-1.173-.892-1.881-.266-2.449,1.061-.147.342-.855.56-1.333.618a11.787,11.787,0,0,1-2.554.026,1.841,1.841,0,0,1-1.686-1.437c-.178-.7-.424-.922-1.135-.535a2.034,2.034,0,0,1-2.612-.434c-.359-.366-.731-.719-1.09-1.086-1.035-1.056-1.126-1.459-.52-2.815.257-.574.162-.838-.464-1.042a2.031,2.031,0,0,1-1.615-2.292c-.008-.547-.01-1.094,0-1.641a1.979,1.979,0,0,1,1.589-2.2c.6-.2.752-.422.442-1.029a2.032,2.032,0,0,1,.467-2.765c.429-.441.862-.879,1.314-1.3a1.887,1.887,0,0,1,2.358-.365c.805.477,1.1.228,1.247-.569a1.179,1.179,0,0,1,.27-.544c1.176-1.306,2.73-.815,4.152-.788a1.814,1.814,0,0,1,1.684,1.558c.161.618.415.753,1.018.442a2.037,2.037,0,0,1,2.769.467c.417.4.829.815,1.231,1.235a1.98,1.98,0,0,1,.37,2.53c-.383.674-.249,1.007.514,1.124a1.213,1.213,0,0,1,.559.235c1.345,1.092.921,2.616.907,4.009a1.85,1.85,0,0,1-1.51,1.846c-.814.2-.81.546-.425,1.152a1.851,1.851,0,0,1,.267.867C2078.382,46.661,2076.088,49.006,2074.554,49.03Zm-11.682-3.506,1.364,1.4c2.1-.867,2.985-.529,4.195,1.5a.8.8,0,0,0,.562.3c.53.041,1.066.014,1.562.014.669-2.118,2.206-2.752,4.243-1.8l1.39-1.408c-.984-1.525-.467-3.489,1.738-4.308V39.335c-1.881-.479-2.758-2.311-1.787-4.329l-1.334-1.363a2.829,2.829,0,0,1-4.335-1.758,10.494,10.494,0,0,0-1.3.015,1.08,1.08,0,0,0-.735.332c-1.145,1.97-1.949,2.273-4.2,1.472l-1.341,1.334c.911,1.929.443,3.283-1.349,4.137a.851.851,0,0,0-.391.585,13.142,13.142,0,0,0-.018,1.494C2063.26,42.121,2063.924,43.738,2062.872,45.524Z" transform="translate(-2033.264 -18.158)" fill="#12263f"/>
                                          <path id="Trazado_193791" data-name="Trazado 193791" d="M2052.37,156.2a1.389,1.389,0,1,1-1.394-1.354A1.423,1.423,0,0,1,2052.37,156.2Z" transform="translate(-2025.725 -117.442)" fill="#12263f"/>
                                          <path id="Trazado_193792" data-name="Trazado 193792" d="M1991.406,17.521a4.764,4.764,0,1,1,4.784-4.735A4.766,4.766,0,0,1,1991.406,17.521Zm.054-7.515a2.743,2.743,0,1,0,2.708,2.771A2.775,2.775,0,0,0,1991.46,10.005Z" transform="translate(-1975.741 -0.853)" fill="#12263f"/>
                                          <path id="Trazado_193793" data-name="Trazado 193793" d="M2089.1,64.346a4.277,4.277,0,0,1,8.554-.063,4.278,4.278,0,1,1-8.554.063Zm2.033-.04a2.237,2.237,0,0,0,2.229,2.292,2.292,2.292,0,0,0,2.274-2.273,2.25,2.25,0,0,0-2.2-2.223A2.2,2.2,0,0,0,2091.138,64.306Z" transform="translate(-2057.096 -42.194)" fill="#12263f"/>
                                        </g>
                                      </g>
                                    </g>
                                  </g>
                                </g>
                              </g>
                            </g>
                          </g>
                        </g>
                      </g>
                    </g>
                  </g>
                </g>
              </g>
            </g>
          </g>
        </g>
      </g>
      <g id="Grupo_1077960" data-name="Grupo 1077960">
        <g id="Grupo_1077959" data-name="Grupo 1077959">
          <g id="Grupo_1077958" data-name="Grupo 1077958">
            <g id="Grupo_1077957" data-name="Grupo 1077957">
              <g id="Grupo_1077956" data-name="Grupo 1077956">
                <g id="Grupo_1077955" data-name="Grupo 1077955">
                  <g id="Grupo_1077954" data-name="Grupo 1077954">
                    <g id="Grupo_1077953" data-name="Grupo 1077953">
                      <g id="Grupo_1077952" data-name="Grupo 1077952">
                        <g id="Grupo_1077951" data-name="Grupo 1077951">
                          <g id="Grupo_1077950" data-name="Grupo 1077950">
                            <g id="Grupo_1077949" data-name="Grupo 1077949">
                              <g id="Grupo_1077948" data-name="Grupo 1077948">
                                <g id="Grupo_1077947" data-name="Grupo 1077947">
                                  <g id="Grupo_1077946" data-name="Grupo 1077946">
                                    <g id="Grupo_1077945" data-name="Grupo 1077945">
                                      <g id="Grupo_1077944" data-name="Grupo 1077944">
                                        <g id="Grupo_1077943" data-name="Grupo 1077943">
                                          <g id="Grupo_1077776" data-name="Grupo 1077776" transform="translate(-4 7)">
                                            <g transform="matrix(1, 0, 0, 1, 175, 16748)" filter="url(#Rectángulo_376922)">
                                              <rect id="Rectángulo_376922-2" data-name="Rectángulo 376922" width="174" height="174" rx="10" transform="translate(435 6)" fill="#fff"/>
                                            </g>
                                            <path id="Trazado_826479" data-name="Trazado 826479" d="M61.621,11.57a6.867,6.867,0,0,1-.594,2.945,4.472,4.472,0,0,1-1.7,1.953,5.021,5.021,0,0,1-5.059.008,4.515,4.515,0,0,1-1.719-1.941,6.67,6.67,0,0,1-.617-2.9V11.07a6.831,6.831,0,0,1,.605-2.957A4.508,4.508,0,0,1,54.25,6.152a5.014,5.014,0,0,1,5.055,0,4.508,4.508,0,0,1,1.711,1.961,6.811,6.811,0,0,1,.605,2.949Zm-2.375-.516a4.787,4.787,0,0,0-.641-2.719,2.263,2.263,0,0,0-3.648-.012,4.732,4.732,0,0,0-.648,2.691v.555a4.847,4.847,0,0,0,.641,2.7,2.243,2.243,0,0,0,3.656.035,4.819,4.819,0,0,0,.641-2.7Zm11.539,1.8A5.07,5.07,0,0,1,69.9,15.98,2.843,2.843,0,0,1,67.5,17.156a2.633,2.633,0,0,1-2.07-.891V20.25H63.176V8.547H65.27l.078.828a2.654,2.654,0,0,1,2.141-.984,2.862,2.862,0,0,1,2.43,1.156,5.207,5.207,0,0,1,.867,3.188Zm-2.258-.164a3.327,3.327,0,0,0-.418-1.82,1.361,1.361,0,0,0-1.215-.641,1.478,1.478,0,0,0-1.461.813V14.5a1.5,1.5,0,0,0,1.477.836Q68.527,15.336,68.527,12.688Zm7.547,4.469a4.15,4.15,0,0,1-3.027-1.141,4.054,4.054,0,0,1-1.168-3.039v-.219a5.106,5.106,0,0,1,.492-2.277,3.612,3.612,0,0,1,1.395-1.547,3.914,3.914,0,0,1,2.059-.543,3.508,3.508,0,0,1,2.73,1.094,4.444,4.444,0,0,1,1,3.1v.922H74.168a2.1,2.1,0,0,0,.66,1.328,2,2,0,0,0,1.395.5,2.437,2.437,0,0,0,2.039-.945l1.109,1.242A3.389,3.389,0,0,1,78,16.754,4.511,4.511,0,0,1,76.074,17.156Zm-.258-6.937a1.414,1.414,0,0,0-1.09.453,2.341,2.341,0,0,0-.535,1.3h3.141v-.18a1.669,1.669,0,0,0-.406-1.16A1.459,1.459,0,0,0,75.816,10.219Zm9.766.445a6.134,6.134,0,0,0-.812-.062,1.654,1.654,0,0,0-1.68.867V17H80.832V8.547h2.133l.063,1.008A2.092,2.092,0,0,1,84.91,8.391a2.366,2.366,0,0,1,.7.1ZM91.332,17a2.507,2.507,0,0,1-.227-.758,2.732,2.732,0,0,1-2.133.914,3,3,0,0,1-2.059-.719,2.312,2.312,0,0,1-.816-1.812,2.389,2.389,0,0,1,1-2.062,4.915,4.915,0,0,1,2.879-.727h1.039v-.484a1.393,1.393,0,0,0-.3-.937,1.183,1.183,0,0,0-.949-.352,1.345,1.345,0,0,0-.895.273.929.929,0,0,0-.324.75H86.285a2.268,2.268,0,0,1,.453-1.359,3,3,0,0,1,1.281-.98,4.669,4.669,0,0,1,1.859-.355,3.689,3.689,0,0,1,2.48.785,2.747,2.747,0,0,1,.918,2.207v3.664a4.041,4.041,0,0,0,.336,1.82V17Zm-1.867-1.57a1.945,1.945,0,0,0,.922-.223,1.462,1.462,0,0,0,.625-.6V13.156h-.844q-1.7,0-1.8,1.172l-.008.133a.9.9,0,0,0,.3.7A1.153,1.153,0,0,0,89.465,15.43Zm9.063-.094a1.481,1.481,0,0,0,1.016-.344,1.2,1.2,0,0,0,.406-.914h2.117a2.9,2.9,0,0,1-.469,1.574,3.093,3.093,0,0,1-1.262,1.109,3.949,3.949,0,0,1-1.77.395A3.67,3.67,0,0,1,95.707,16,4.56,4.56,0,0,1,94.66,12.82v-.148A4.508,4.508,0,0,1,95.7,9.555a3.627,3.627,0,0,1,2.852-1.164,3.555,3.555,0,0,1,2.543.9,3.2,3.2,0,0,1,.973,2.4H99.949a1.539,1.539,0,0,0-.406-1.066,1.513,1.513,0,0,0-2.223.164,3.324,3.324,0,0,0-.4,1.863v.234a3.366,3.366,0,0,0,.4,1.875A1.378,1.378,0,0,0,98.527,15.336ZM105.738,17h-2.266V8.547h2.266Zm-2.4-10.641a1.112,1.112,0,0,1,.34-.836,1.465,1.465,0,0,1,1.848,0,1.105,1.105,0,0,1,.344.836,1.108,1.108,0,0,1-.348.844,1.448,1.448,0,0,1-1.836,0A1.108,1.108,0,0,1,103.34,6.359Zm3.906,6.336a5.013,5.013,0,0,1,.484-2.242,3.546,3.546,0,0,1,1.395-1.523,4.069,4.069,0,0,1,2.113-.539,3.849,3.849,0,0,1,2.793,1.047,4.2,4.2,0,0,1,1.207,2.844l.016.578a4.418,4.418,0,0,1-1.086,3.121,4.209,4.209,0,0,1-5.832,0,4.5,4.5,0,0,1-1.09-3.187Zm2.258.164a3.151,3.151,0,0,0,.453,1.84,1.629,1.629,0,0,0,2.578.008A3.448,3.448,0,0,0,113,12.7a3.12,3.12,0,0,0-.461-1.828,1.5,1.5,0,0,0-1.3-.648,1.475,1.475,0,0,0-1.281.645A3.506,3.506,0,0,0,109.5,12.859ZM111.684,5h2.461L111.98,7.422h-1.836Zm7.039,3.547.07.977a2.951,2.951,0,0,1,2.43-1.133,2.453,2.453,0,0,1,2,.789,3.682,3.682,0,0,1,.672,2.359V17h-2.258V11.594a1.465,1.465,0,0,0-.312-1.043,1.4,1.4,0,0,0-1.039-.324,1.553,1.553,0,0,0-1.43.813V17H116.6V8.547Z" transform="translate(610 16867)" fill="#12263f"/>
                                            <g id="Grupo_1076435" data-name="Grupo 1076435" transform="translate(656.005 16772)">
                                              <ellipse id="Elipse_4775-3" data-name="Elipse 4775" cx="42" cy="41.5" rx="42" ry="41.5" transform="translate(-0.005 0.001)" fill="#ff8e7c"/>
                                              <g id="_5KWReG.tif" data-name="5KWReG.tif" transform="translate(17.348 14.206)">
                                                <g id="Grupo_151395" data-name="Grupo 151395">
                                                  <path id="Trazado_193794" data-name="Trazado 193794" d="M1832.916-106.955c-.891-.131-1.789-.229-2.672-.4a22.222,22.222,0,0,1-14.186-8.984,22.088,22.088,0,0,1-4.243-15.3,21.452,21.452,0,0,1,2.294-8.023c.084-.166.167-.333.226-.45-.685-.76-1.409-1.443-1.993-2.229a10.755,10.755,0,0,1,7.393-17.03,10.716,10.716,0,0,1,11.327,6.879c.124.33.249.425.618.39,1.121-.105,2.247-.195,3.372-.2,4.545-.021,9.09-.009,13.636-.009.694,0,.682,0,.7-.68a2.166,2.166,0,0,1,.148-.842,1.046,1.046,0,0,1,1.536-.393q2.64,1.719,5.246,3.49a1.069,1.069,0,0,1-.016,1.818q-2.583,1.758-5.2,3.461a1.087,1.087,0,0,1-1.711-.938c-.015-.3,0-.607,0-.96h-.611c-4.7,0-9.4-.009-14.1.008-.9,0-1.806.1-2.706.182a.508.508,0,0,0-.364.306,10.861,10.861,0,0,1-3.665,6.395c.489.481.965.959,1.457,1.42a.391.391,0,0,0,.311.024c.146-.04.274-.161.419-.184,1.074-.172,1.293-.854,1.164-1.815a8.906,8.906,0,0,1-.007-1.485,1.378,1.378,0,0,1,1.36-1.45c1.157-.05,2.318-.05,3.475,0a1.385,1.385,0,0,1,1.387,1.477c.017.769.025,1.539,0,2.307-.015.38.066.612.47.7a1.757,1.757,0,0,1,.662.263c.5.361.83.189,1.192-.231.446-.516.952-.981,1.443-1.455a1.361,1.361,0,0,1,2.017-.088,31.923,31.923,0,0,1,2.362,2.337,1.437,1.437,0,0,1-.127,2.285c-.6.6-1.217,1.2-1.828,1.8.227.567.424,1.107.666,1.628a.527.527,0,0,0,.4.193c.786.018,1.572,0,2.358.011,1,.01,1.532.425,1.586,1.415a33.485,33.485,0,0,1-.015,3.525,1.324,1.324,0,0,1-1.419,1.259c-.837.013-1.675-.01-2.511.017a.6.6,0,0,0-.439.278c-.23.474-.406.974-.623,1.518.6.6,1.229,1.224,1.853,1.852a1.413,1.413,0,0,1,.133,2.208,29.785,29.785,0,0,1-2.394,2.377,1.368,1.368,0,0,1-2.057-.116c-.576-.56-1.146-1.126-1.7-1.7a.4.4,0,0,0-.575-.093,3.068,3.068,0,0,1-.463.216c-.982.415-.982.414-.982,1.5,0,.53.006,1.06,0,1.589a1.392,1.392,0,0,1-1.393,1.575,28.852,28.852,0,0,1-3.526-.016,1.352,1.352,0,0,1-1.308-1.489c-.014-.786-.019-1.573,0-2.358.01-.321-.062-.52-.4-.584a.956.956,0,0,1-.382-.14c-.776-.575-1.329-.278-1.858.4a10.862,10.862,0,0,1-1.154,1.164,1.338,1.338,0,0,1-1.94.1,36.208,36.208,0,0,1-2.564-2.567,1.329,1.329,0,0,1,.127-1.934c.655-.672,1.33-1.325,1.975-1.965-.221-.554-.418-1.062-.629-1.563a1.1,1.1,0,0,0-.212-.251,1.09,1.09,0,0,0-.247.221,2.336,2.336,0,0,1-2.26,1.218c-.58-.019-1.162,0-1.743-.006a2.25,2.25,0,0,1-2.169-1.706,13.444,13.444,0,0,1-.359-1.649c-.063-.484-.274-.652-.774-.534a14.676,14.676,0,0,0,.691,4.265c2.309,7.021,7.092,11.327,14.374,12.58a17.645,17.645,0,0,0,20-14.094,26.413,26.413,0,0,0,.313-2.692,1.388,1.388,0,0,1,1.583-1.468c.683.011,1.367.024,2.05.049a1.3,1.3,0,0,1,1.345,1.417,22.613,22.613,0,0,1-5.562,14.163.793.793,0,0,1-1.167.183c-.369-.317-.372-.748.031-1.217a20.907,20.907,0,0,0,4.735-9.634c.218-1.083.319-2.19.483-3.358h-1.841a37.55,37.55,0,0,1-.742,4.019c-2.315,7.833-7.479,12.7-15.533,14.1a19.1,19.1,0,0,1-21.933-15.165,36.309,36.309,0,0,1-.38-3.918,1.711,1.711,0,0,0-.058-.552,2.59,2.59,0,0,1,.382-2.989c-1.047-1.63-.909-2.8.5-3.988l-.517-1.623c-.187.388-.332.667-.459.953a21.048,21.048,0,0,0,5.492,24.228,20.78,20.78,0,0,0,14.594,5.213,20.742,20.742,0,0,0,12.227-4.4c.136-.1.266-.215.406-.313a.772.772,0,0,1,1.134.1.751.751,0,0,1-.215,1.117c-1.046.737-2.074,1.512-3.181,2.144a21.889,21.889,0,0,1-9.276,2.828,3.223,3.223,0,0,0-.4.08Zm-6.344-26.289c.031.045.109.154.183.266a2.552,2.552,0,0,1-1.536,3.93c-.655.159-.7.22-.664.97a1.578,1.578,0,0,1,1.372,1.261,9.165,9.165,0,0,0,.506,1.228,1.494,1.494,0,0,1-.327,2.029c-.612.616-1.229,1.228-1.912,1.91l2.254,2.236c.722-.738,1.347-1.394,1.991-2.029a1.4,1.4,0,0,1,1.775-.288c.5.223,1,.433,1.511.625a1.437,1.437,0,0,1,1.1,1.579c0,.359,0,.718,0,1.076v1.632h3.157c0-1.024-.006-1.963,0-2.9a1.334,1.334,0,0,1,.9-1.3c.614-.255,1.228-.508,1.84-.767a1.378,1.378,0,0,1,1.6.3c.432.414.846.845,1.272,1.265.25.247.5.487.862.831l2.237-2.2c-.784-.773-1.444-1.412-2.09-2.066a1.416,1.416,0,0,1-.3-1.776c.217-.481.431-.966.613-1.461a1.483,1.483,0,0,1,1.638-1.17c.869,0,1.738,0,2.7,0,0-.925-.005-1.808,0-2.69,0-.364-.175-.454-.511-.445-.734.02-1.469.013-2.2,0a1.482,1.482,0,0,1-1.632-1.181c-.149-.417-.31-.832-.5-1.231a1.539,1.539,0,0,1,.38-2.188c.587-.587,1.178-1.17,1.847-1.833l-2.21-2.27c-.76.769-1.39,1.417-2.032,2.052a1.418,1.418,0,0,1-1.818.31c-.433-.2-.866-.406-1.315-.566-1.039-.37-1.28-.692-1.281-1.805,0-.832,0-1.665,0-2.548h-3.156c0,.992.006,1.911,0,2.831a1.387,1.387,0,0,1-1.014,1.431c-.493.189-.989.376-1.466.6a1.47,1.47,0,0,1-2.022-.344c-.477-.478-.944-.966-1.519-1.556-.256.717-.448,1.294-.671,1.859a.448.448,0,0,0,.168.6,2.369,2.369,0,0,1,.852,2.386A7.772,7.772,0,0,1,1826.571-133.245Zm-4.808-4.4c.8,0,1.52-.033,2.233.012a.577.577,0,0,0,.7-.534,6.518,6.518,0,0,1,2.286-3.536,8.74,8.74,0,0,0,3.1-8.494,9.141,9.141,0,0,0-10.491-7.61,9.3,9.3,0,0,0-7.8,8.7,9.108,9.108,0,0,0,3.479,7.628,5.474,5.474,0,0,1,1.88,2.8,6.254,6.254,0,0,0,.26.775c.045.1.17.243.261.245.832.019,1.665.011,2.548.011,0-1.473.008-2.887-.017-4.3,0-.1-.231-.25-.375-.278a6.59,6.59,0,0,1-5.26-7.778,6.543,6.543,0,0,1,7.682-5.116,6.337,6.337,0,0,1,4.926,4.241.766.766,0,0,1-.412,1.059.776.776,0,0,1-1-.47c-.057-.124-.093-.257-.147-.382a5.021,5.021,0,0,0-4.652-3.038,5.024,5.024,0,0,0-4.605,3.109,5.013,5.013,0,0,0,1.084,5.449,4.825,4.825,0,0,0,2.753,1.4v-1.724c-.2-.081-.389-.151-.573-.236a3.289,3.289,0,0,1-1.651-4.275,3.3,3.3,0,0,1,4.229-1.772,3.313,3.313,0,0,1,2.1,3.066,3.348,3.348,0,0,1-2.1,3.073c-.17.07-.4.241-.418.387a13.509,13.509,0,0,0-.02,1.484c.2-.035.346-.049.488-.087a4.9,4.9,0,0,0,3.307-2.756c.1-.215.171-.447.274-.661a.715.715,0,0,1,.937-.406.713.713,0,0,1,.5.891,2.089,2.089,0,0,1-.144.436,6.531,6.531,0,0,1-4.94,4.1c-.154.033-.4.2-.4.311C1821.754-140.519,1821.763-139.121,1821.763-137.649Zm10.034-11.087c.631-.051,1.209-.137,1.787-.139q8.123-.022,16.247-.016a1,1,0,0,1,1.09,1.039c.015.192.02.384.033.659l3.968-2.644-3.955-2.629c-.019.172-.036.27-.04.368-.037,1.028-.346,1.329-1.38,1.331-.786,0-1.572,0-2.358,0q-6.919.013-13.838.033c-.571,0-1.141.1-1.727.149Zm-10.828,18.209c1.178,0,2.356,0,3.535,0,.724,0,1.154-.392,1.15-1.015a1,1,0,0,0-1.114-1.007q-3.535-.016-7.069,0a1.033,1.033,0,0,0-1.138,1.048,1.036,1.036,0,0,0,1.153.975C1818.647-130.522,1819.808-130.527,1820.969-130.527ZM1821-134.1v0c1.161,0,2.322.007,3.483,0,.736-.006,1.163-.385,1.167-1s-.424-1-1.153-1.012c-.375-.006-.751,0-1.127,0-1.946,0-3.892,0-5.839,0a1.08,1.08,0,0,0-1.079.535.992.992,0,0,0,.911,1.472C1818.58-134.079,1819.793-134.1,1821-134.1Zm-.01-12.844a1.765,1.765,0,0,0,1.763-1.757,1.753,1.753,0,0,0-1.724-1.739,1.722,1.722,0,0,0-1.776,1.726A1.732,1.732,0,0,0,1820.995-146.944Zm-2.06,17.978a15,15,0,0,0,.448,1.85.958.958,0,0,0,.693.463,17.978,17.978,0,0,0,1.889.022.685.685,0,0,0,.729-.523c.152-.587.261-1.186.394-1.811Z" transform="translate(-1810.245 159.446)" fill="#12263f"/>
                                                  <path id="Trazado_193795" data-name="Trazado 193795" d="M2185.97,4.246c-.769,0-1.538-.009-2.306,0a1.419,1.419,0,0,1-1.349-.762q-1.173-2.042-2.355-4.08a1.4,1.4,0,0,1-.009-1.5q1.194-2.06,2.383-4.123a1.354,1.354,0,0,1,1.261-.725q2.383.008,4.767,0a1.389,1.389,0,0,1,1.3.755q1.176,2.041,2.356,4.079A1.439,1.439,0,0,1,2192-.56q-1.172,2.013-2.332,4.034a1.42,1.42,0,0,1-1.342.773C2187.542,4.239,2186.756,4.246,2185.97,4.246Zm.006-1.538c.666,0,1.333.02,2-.013a.728.728,0,0,0,.516-.283q1.042-1.733,2.02-3.5a.65.65,0,0,0-.009-.538q-.97-1.745-2-3.459a.712.712,0,0,0-.505-.3q-2.024-.037-4.049,0a.655.655,0,0,0-.465.279q-1.026,1.712-2,3.457a.712.712,0,0,0-.009.59q.966,1.747,2,3.457a.782.782,0,0,0,.551.3C2184.676,2.731,2185.327,2.708,2185.976,2.708Z" transform="translate(-2141.773 22.613)" fill="#12263f"/>
                                                  <path id="Trazado_193796" data-name="Trazado 193796" d="M1984.964,63.507a6.889,6.889,0,0,1,6.688,4.985c.164.577-.007.994-.459,1.123-.472.135-.814-.1-1.006-.684a5.368,5.368,0,0,0-10.321,2.954,5.364,5.364,0,0,0,10.039.752c.071-.155.125-.318.2-.469a.772.772,0,0,1,.993-.39.719.719,0,0,1,.4.981,11.423,11.423,0,0,1-1.369,2.26,6.805,6.805,0,0,1-7.667,1.8,6.9,6.9,0,0,1,2.5-13.311Z" transform="translate(-1960.87 -40.6)" fill="#12263f"/>
                                                  <path id="Trazado_193797" data-name="Trazado 193797" d="M2015.434,96.839a3.871,3.871,0,1,1-3.853-3.9A3.886,3.886,0,0,1,2015.434,96.839Zm-1.538,0a2.333,2.333,0,1,0-2.347,2.335A2.329,2.329,0,0,0,2013.9,96.836Z" transform="translate(-1987.406 -67.011)" fill="#12263f"/>
                                                  <path id="Trazado_193798" data-name="Trazado 193798" d="M2212.306,22.041a2.912,2.912,0,1,1,5.825-.023,2.912,2.912,0,1,1-5.825.023Zm2.9,1.368a1.378,1.378,0,0,0,.046-2.756,1.378,1.378,0,1,0-.046,2.756Z" transform="translate(-2170.997 -0.767)" fill="#12263f"/>
                                                </g>
                                              </g>
                                            </g>
                                          </g>
                                        </g>
                                      </g>
                                    </g>
                                  </g>
                                </g>
                              </g>
                            </g>
                          </g>
                        </g>
                      </g>
                    </g>
                  </g>
                </g>
              </g>
            </g>
          </g>
        </g>
      </g>
      <g id="Grupo_1077973" data-name="Grupo 1077973">
        <g id="Grupo_1077972" data-name="Grupo 1077972">
          <g id="Grupo_1077971" data-name="Grupo 1077971">
            <g id="Grupo_1077970" data-name="Grupo 1077970">
              <g id="Grupo_1077969" data-name="Grupo 1077969">
                <g id="Grupo_1077968" data-name="Grupo 1077968">
                  <g id="Grupo_1077967" data-name="Grupo 1077967">
                    <g id="Grupo_1077966" data-name="Grupo 1077966">
                      <g id="Grupo_1077965" data-name="Grupo 1077965">
                        <g id="Grupo_1077964" data-name="Grupo 1077964">
                          <g id="Grupo_1077963" data-name="Grupo 1077963">
                            <g id="Grupo_1077962" data-name="Grupo 1077962">
                              <g id="Grupo_1077961" data-name="Grupo 1077961">
                                <g id="Grupo_1077777" data-name="Grupo 1077777" transform="translate(-4 7)">
                                  <g transform="matrix(1, 0, 0, 1, 175, 16748)" filter="url(#Rectángulo_376923)">
                                    <rect id="Rectángulo_376923-2" data-name="Rectángulo 376923" width="174" height="174" rx="10" transform="translate(649 6)" fill="#fff"/>
                                  </g>
                                  <path id="Trazado_826481" data-name="Trazado 826481" d="M37.711,5.625l2.922,8.25,2.906-8.25h3.078V17H44.266V13.891L44.5,8.523,41.43,17H39.82L36.758,8.531l.234,5.359V17H34.648V5.625ZM53.414,17a2.507,2.507,0,0,1-.227-.758,2.732,2.732,0,0,1-2.133.914A3,3,0,0,1,49,16.438a2.312,2.312,0,0,1-.816-1.812,2.389,2.389,0,0,1,1-2.062,4.915,4.915,0,0,1,2.879-.727h1.039v-.484a1.393,1.393,0,0,0-.3-.937,1.183,1.183,0,0,0-.949-.352,1.345,1.345,0,0,0-.895.273.929.929,0,0,0-.324.75H48.367a2.268,2.268,0,0,1,.453-1.359,3,3,0,0,1,1.281-.98,4.669,4.669,0,0,1,1.859-.355,3.689,3.689,0,0,1,2.48.785,2.747,2.747,0,0,1,.918,2.207v3.664a4.041,4.041,0,0,0,.336,1.82V17Zm-1.867-1.57a1.945,1.945,0,0,0,.922-.223,1.462,1.462,0,0,0,.625-.6V13.156H52.25q-1.7,0-1.8,1.172l-.008.133a.9.9,0,0,0,.3.7A1.153,1.153,0,0,0,51.547,15.43Zm7.625-6.883.07.977a2.951,2.951,0,0,1,2.43-1.133,2.453,2.453,0,0,1,2,.789,3.682,3.682,0,0,1,.672,2.359V17H62.086V11.594a1.465,1.465,0,0,0-.312-1.043,1.4,1.4,0,0,0-1.039-.324,1.553,1.553,0,0,0-1.43.813V17H57.047V8.547Zm9.586-2.078V8.547H70.2V10.2H68.758v4.219a1.007,1.007,0,0,0,.18.672.9.9,0,0,0,.688.2,3.6,3.6,0,0,0,.664-.055v1.711a4.648,4.648,0,0,1-1.367.2,2.156,2.156,0,0,1-2.422-2.4V10.2H65.266V8.547H66.5V6.469Zm6.594,10.688a4.15,4.15,0,0,1-3.027-1.141,4.054,4.054,0,0,1-1.168-3.039v-.219a5.106,5.106,0,0,1,.492-2.277,3.612,3.612,0,0,1,1.395-1.547A3.914,3.914,0,0,1,75.1,8.391a3.508,3.508,0,0,1,2.73,1.094,4.444,4.444,0,0,1,1,3.1v.922H73.445a2.1,2.1,0,0,0,.66,1.328,2,2,0,0,0,1.395.5,2.437,2.437,0,0,0,2.039-.945l1.109,1.242a3.389,3.389,0,0,1-1.375,1.121A4.511,4.511,0,0,1,75.352,17.156Zm-.258-6.937a1.414,1.414,0,0,0-1.09.453,2.341,2.341,0,0,0-.535,1.3h3.141v-.18a1.669,1.669,0,0,0-.406-1.16A1.459,1.459,0,0,0,75.094,10.219Zm7.094-1.672.07.977a2.951,2.951,0,0,1,2.43-1.133,2.453,2.453,0,0,1,2,.789,3.682,3.682,0,0,1,.672,2.359V17H85.1V11.594a1.465,1.465,0,0,0-.312-1.043,1.4,1.4,0,0,0-1.039-.324,1.553,1.553,0,0,0-1.43.813V17H80.063V8.547ZM91.453,17H89.188V8.547h2.266Zm-2.4-10.641a1.112,1.112,0,0,1,.34-.836,1.465,1.465,0,0,1,1.848,0,1.105,1.105,0,0,1,.344.836,1.108,1.108,0,0,1-.348.844,1.448,1.448,0,0,1-1.836,0A1.108,1.108,0,0,1,89.055,6.359ZM95.43,8.547l.07.945a2.971,2.971,0,0,1,2.43-1.1,2.255,2.255,0,0,1,2.242,1.289,2.9,2.9,0,0,1,2.539-1.289,2.521,2.521,0,0,1,2.047.8,3.681,3.681,0,0,1,.672,2.41V17h-2.266V11.609a1.61,1.61,0,0,0-.281-1.051,1.246,1.246,0,0,0-.992-.332,1.409,1.409,0,0,0-1.406.969l.008,5.8H98.234V11.617a1.59,1.59,0,0,0-.289-1.062,1.259,1.259,0,0,0-.984-.328,1.463,1.463,0,0,0-1.391.8V17H93.313V8.547ZM109.547,17h-2.266V8.547h2.266Zm-2.4-10.641a1.112,1.112,0,0,1,.34-.836,1.465,1.465,0,0,1,1.848,0,1.105,1.105,0,0,1,.344.836,1.108,1.108,0,0,1-.348.844,1.448,1.448,0,0,1-1.836,0A1.108,1.108,0,0,1,107.148,6.359Zm8.148,10.8a4.15,4.15,0,0,1-3.027-1.141,4.054,4.054,0,0,1-1.168-3.039v-.219a5.106,5.106,0,0,1,.492-2.277,3.612,3.612,0,0,1,1.395-1.547,3.914,3.914,0,0,1,2.059-.543,3.508,3.508,0,0,1,2.73,1.094,4.444,4.444,0,0,1,1,3.1v.922h-5.383a2.1,2.1,0,0,0,.66,1.328,2,2,0,0,0,1.395.5,2.437,2.437,0,0,0,2.039-.945l1.109,1.242a3.389,3.389,0,0,1-1.375,1.121A4.511,4.511,0,0,1,115.3,17.156Zm-.258-6.937a1.414,1.414,0,0,0-1.09.453,2.341,2.341,0,0,0-.535,1.3h3.141v-.18a1.669,1.669,0,0,0-.406-1.16A1.459,1.459,0,0,0,115.039,10.219Zm7.094-1.672.07.977a2.951,2.951,0,0,1,2.43-1.133,2.453,2.453,0,0,1,2,.789,3.682,3.682,0,0,1,.672,2.359V17h-2.258V11.594a1.465,1.465,0,0,0-.312-1.043,1.4,1.4,0,0,0-1.039-.324,1.553,1.553,0,0,0-1.43.813V17h-2.258V8.547Zm9.586-2.078V8.547h1.445V10.2h-1.445v4.219a1.007,1.007,0,0,0,.18.672.9.9,0,0,0,.688.2,3.6,3.6,0,0,0,.664-.055v1.711a4.648,4.648,0,0,1-1.367.2,2.156,2.156,0,0,1-2.422-2.4V10.2h-1.234V8.547h1.234V6.469Zm2.117,6.227a5.013,5.013,0,0,1,.484-2.242,3.546,3.546,0,0,1,1.395-1.523,4.069,4.069,0,0,1,2.113-.539,3.849,3.849,0,0,1,2.793,1.047,4.2,4.2,0,0,1,1.207,2.844l.016.578a4.418,4.418,0,0,1-1.086,3.121,4.209,4.209,0,0,1-5.832,0,4.5,4.5,0,0,1-1.09-3.187Zm2.258.164a3.151,3.151,0,0,0,.453,1.84,1.629,1.629,0,0,0,2.578.008,3.448,3.448,0,0,0,.461-2.012,3.12,3.12,0,0,0-.461-1.828,1.5,1.5,0,0,0-1.3-.648,1.475,1.475,0,0,0-1.281.645A3.506,3.506,0,0,0,136.094,12.859Z" transform="translate(824 16867)" fill="#12263f"/>
                                  <g id="Grupo_1076436" data-name="Grupo 1076436" transform="translate(870 16772)">
                                    <path id="Trazado_825832" data-name="Trazado 825832" d="M41.5,0A41.5,41.5,0,1,1,0,41.5,41.5,41.5,0,0,1,41.5,0Z" transform="translate(0 0.001)" fill="#ff8e7c"/>
                                    <g id="_36li9e.tif" data-name="36li9e.tif" transform="translate(17.05 18.392)">
                                      <g id="Grupo_151396" data-name="Grupo 151396">
                                        <path id="Trazado_193799" data-name="Trazado 193799" d="M2358.644,34.565a4.952,4.952,0,0,0,3.406,4.067c.356.1.892.4.926.661a25.548,25.548,0,0,1,.183,3.626c0,.155-.578.434-.89.435-5.7.027-11.408.016-17.113.024-.757,0-1.1-.336-1.084-1.091.017-.7-.012-1.4.01-2.1a1.551,1.551,0,0,1,1.28-1.576,4.829,4.829,0,0,0,3.34-4.045h-4.494c-3.736,0-7.472.007-11.209,0a3.029,3.029,0,0,1-3.34-3.355q-.008-14.962,0-29.924a3.028,3.028,0,0,1,3.334-3.361q20.716-.007,41.432,0a3.009,3.009,0,0,1,3.288,3.305q.01,15.012,0,30.024a3.011,3.011,0,0,1-3.285,3.31c-4.87.015-9.741,0-14.611,0Zm8.69-12.138c-.315-2.222.584-4.561-.726-6.713a1.048,1.048,0,0,1-.06-.677c.235-1.245.441-2.5.784-3.717a1.352,1.352,0,0,1,.964-.747,11.628,11.628,0,0,1,2.794,0,1.446,1.446,0,0,1,1,.824,33.94,33.94,0,0,1,.762,3.618,1.394,1.394,0,0,1-.136.858c-1.2,2.143-.34,4.42-.6,6.431.615.277,1.4.448,1.416.668a17.915,17.915,0,0,1-.143,3.4,7.7,7.7,0,0,1-.686,1.714h3.356V4.994h-44.722V28.1h18.22c.056-.091.085-.117.088-.145a5.826,5.826,0,0,0-1.718-5.347,7.971,7.971,0,0,1,1.185-12.167,3.658,3.658,0,0,0,1.01-1.161,4.846,4.846,0,0,1,8.7-.039,3.68,3.68,0,0,0,1,1.17,8.25,8.25,0,0,1,3.263,8.556,9.5,9.5,0,0,1-3.073,4.815,1.94,1.94,0,0,0-.688,1.024c-.091,1.083-.033,2.178-.033,3.29h7.232c-.039-.465.082-1.042-.132-1.221-.87-.732-.687-1.67-.691-2.585C2365.7,22.7,2365.7,22.7,2367.334,22.427Zm8.776-19.149c0-.822.021-1.553-.005-2.281a1.368,1.368,0,0,0-1.435-1.464c-.466-.025-.934-.01-1.4-.01-12.878,0-25.756.023-38.634-.015-3.472-.01-3.476.14-3.348,3.555,0,.057.058.112.114.215ZM2331.328,29.8c-.27,2.82.03,3.162,2.676,3.162h25.524q7.407,0,14.814,0c1.268,0,1.753-.5,1.767-1.75,0-.455,0-.911,0-1.409Zm26.545-1.7c-.885-3.015.193-5.233,2.443-6.995a.753.753,0,0,0,.123-.157,6.538,6.538,0,0,0-.488-8.287,6.533,6.533,0,0,0-.661-.531c0,1.7.018,3.235,0,4.766a4.8,4.8,0,1,1-9.6.039c-.023-1.333,0-2.667-.01-4,0-.235-.049-.47-.092-.853a6.654,6.654,0,0,0-2.195,6.191,6.138,6.138,0,0,0,2.274,3.888,4,4,0,0,1,1.633,3.988,14.379,14.379,0,0,0-.014,1.949h1.6c0-.411-.005-.77,0-1.128.047-3.036-.483-2.865,2.949-2.8.057,0,.114.056.188.094v1.45l-1.466.073v2.313Zm-7.18,6.489-1.905,3.9h9.791l-1.9-3.9Zm10.926,7.135V40.25h-15.887v1.48Zm-3.981-26.711a5.029,5.029,0,0,1-6.289.032c-.287,3.235.86,5.057,3.122,5.087C2356.693,20.168,2357.843,18.377,2357.638,15.019Zm10.833,13.073h2.677c.164-.776.274-1.481.47-2.161.158-.547.42-1.064.686-1.72h-4.972a3.8,3.8,0,0,0,.018,1.137C2367.66,26.236,2368.056,27.093,2368.471,28.092Zm2.661-13.552c-.764,0-1.427-.007-2.09,0-.894.012-.989.249-.72,1.1a11.565,11.565,0,0,1,.562,2.67c.092,1.382.024,2.776.024,4.158h1.6c0-1.411-.08-2.747.023-4.07C2370.627,17.13,2370.915,15.875,2371.132,14.54Zm-.467-1.64c-.057-.8-.148-.879-1.332-.74-.25.029-.468.333-.7.51l.187.23ZM2354.6,8.952l-.251.016-.528,1.5h1.332Zm-.24,4.758h.246l.549-1.518h-1.348Zm-2.991-3.379c1.325.134.827-.915,1.258-1.379l-.206-.138Zm5.193-1.51-.23.172c.473.388-.037,1.528.925,1.543l.323-.24Zm-4.147,5.028c-.3-1.762-.3-1.762-1.02-1.427Zm5.163-1.507c-1.306-.106-.826.9-1.21,1.378l.206.131Z" transform="translate(-2329.654 2.081)" fill="#12263f"/>
                                        <path id="Trazado_193800" data-name="Trazado 193800" d="M2356.82,70.253a5.6,5.6,0,1,1-5.527-5.578A5.6,5.6,0,0,1,2356.82,70.253Zm-1.827.872h-7.549a3.835,3.835,0,0,0,7.549,0Zm.018-1.7a3.771,3.771,0,0,0-3.912-3.143,3.7,3.7,0,0,0-3.653,3.131c1.835.146,3.762.534,4.6-1.826.021-.06.07-.141.12-.154.35-.085.888-.328,1.015-.192a1.405,1.405,0,0,1,.25,1.085,3.983,3.983,0,0,1-.608,1.1Z" transform="translate(-2342.405 -51.255)" fill="#12263f"/>
                                        <path id="Trazado_193801" data-name="Trazado 193801" d="M2349.788,14.672V13.187h1.5v1.485Z" transform="translate(-2345.741 -10.118)" fill="#12263f"/>
                                        <path id="Trazado_193802" data-name="Trazado 193802" d="M2365.773,13.077h1.484v1.5h-1.484Z" transform="translate(-2358.512 -10.03)" fill="#12263f"/>
                                        <path id="Trazado_193803" data-name="Trazado 193803" d="M2383.314,13.279v1.44h-1.51v-1.44Z" transform="translate(-2371.321 -10.191)" fill="#12263f"/>
                                        <path id="Trazado_193804" data-name="Trazado 193804" d="M2546.58,14.63h-1.463V13.117h1.463Z" transform="translate(-2501.802 -10.062)" fill="#12263f"/>
                                      </g>
                                    </g>
                                  </g>
                                </g>
                              </g>
                            </g>
                          </g>
                        </g>
                      </g>
                    </g>
                  </g>
                </g>
              </g>
            </g>
          </g>
        </g>
      </g>
    </g>
  </g>
</svg>
