<svg xmlns="http://www.w3.org/2000/svg" width="52.594" height="58.385" viewBox="0 0 52.594 58.385">
  <g id="Grupo_1077940" data-name="Grupo 1077940" transform="translate(-451.496 -892.402)">
    <g id="Grupo_1077939" data-name="Grupo 1077939">
      <g id="Grupo_1077938" data-name="Grupo 1077938">
        <g id="Grupo_1077937" data-name="Grupo 1077937">
          <g id="Grupo_1077936" data-name="Grupo 1077936">
            <g id="Grupo_1076272" data-name="Grupo 1076272" transform="translate(451.496 892.402)">
              <path id="Trazado_113152" data-name="Trazado 113152" d="M0,0H52.594V58.385L26.647,50.361,0,58.385Z" fill="#ff6148"/>
              <path id="Icon_awesome-quote-right" data-name="Icon awesome-quote-right" d="M29.569,0H21.412a3.06,3.06,0,0,0-3.059,3.059v8.157a3.06,3.06,0,0,0,3.059,3.059h5.1v4.078a4.082,4.082,0,0,1-4.078,4.078h-.51a1.526,1.526,0,0,0-1.529,1.529V27.02a1.526,1.526,0,0,0,1.529,1.529h.51a10.193,10.193,0,0,0,10.2-10.2V3.059A3.06,3.06,0,0,0,29.569,0ZM11.216,0H3.059A3.06,3.06,0,0,0,0,3.059v8.157a3.06,3.06,0,0,0,3.059,3.059h5.1v4.078a4.082,4.082,0,0,1-4.078,4.078h-.51a1.526,1.526,0,0,0-1.529,1.529V27.02a1.526,1.526,0,0,0,1.529,1.529h.51a10.193,10.193,0,0,0,10.2-10.2V3.059A3.06,3.06,0,0,0,11.216,0Z" transform="translate(42.854 43.646) rotate(180)" fill="#fff"/>
            </g>
          </g>
        </g>
      </g>
    </g>
  </g>
</svg>
