<svg xmlns="http://www.w3.org/2000/svg" xmlns:xlink="http://www.w3.org/1999/xlink" width="400" height="344.397" viewBox="0 0 400 344.397">
  <defs>
    <clipPath id="clip-path">
      <path id="Trazado_165434" data-name="Trazado 165434" d="M0,3.545A3.544,3.544,0,1,0,3.543,0,3.543,3.543,0,0,0,0,3.545" fill="#2efec7"/>
    </clipPath>
    <clipPath id="clip-path-2">
      <path id="Trazado_165438" data-name="Trazado 165438" d="M3.542,0A3.542,3.542,0,1,0,7.086,3.544,3.543,3.543,0,0,0,3.542,0Z" fill="#2efec7"/>
    </clipPath>
    <clipPath id="clip-path-3">
      <path id="Trazado_165440" data-name="Trazado 165440" d="M0,3.545A3.543,3.543,0,1,0,3.543,0,3.544,3.544,0,0,0,0,3.545" fill="#2efec7"/>
    </clipPath>
    <clipPath id="clip-path-4">
      <path id="Trazado_165442" data-name="Trazado 165442" d="M0,3.544A3.543,3.543,0,1,0,3.543,0,3.543,3.543,0,0,0,0,3.544" fill="#2efec7"/>
    </clipPath>
    <clipPath id="clip-path-5">
      <path id="Trazado_165444" data-name="Trazado 165444" d="M3.541,0A3.542,3.542,0,1,0,7.085,3.544,3.542,3.542,0,0,0,3.541,0Z" fill="#2efec7"/>
    </clipPath>
    <clipPath id="clip-path-6">
      <path id="Trazado_165446" data-name="Trazado 165446" d="M0,3.545A3.544,3.544,0,1,0,3.543,0,3.544,3.544,0,0,0,0,3.545" fill="#2efec7"/>
    </clipPath>
    <clipPath id="clip-path-7">
      <path id="Trazado_165448" data-name="Trazado 165448" d="M0,3.544A3.544,3.544,0,1,0,3.544,0h0A3.547,3.547,0,0,0,0,3.544" fill="#2efec7"/>
    </clipPath>
    <clipPath id="clip-path-9">
      <path id="Trazado_165452" data-name="Trazado 165452" d="M0,3.545A3.543,3.543,0,1,0,3.542,0,3.543,3.543,0,0,0,0,3.545" fill="#2efec7"/>
    </clipPath>
    <clipPath id="clip-path-10">
      <path id="Trazado_165454" data-name="Trazado 165454" d="M0,3.544A3.543,3.543,0,1,0,3.542,0,3.542,3.542,0,0,0,0,3.544" fill="#2efec7"/>
    </clipPath>
  </defs>
  <g id="Grupo_1077897" data-name="Grupo 1077897" transform="translate(-180 -14141.283)">
    <g id="Grupo_1077896" data-name="Grupo 1077896">
      <g id="Grupo_1077895" data-name="Grupo 1077895">
        <g id="Grupo_1077894" data-name="Grupo 1077894">
          <g id="Grupo_1077893" data-name="Grupo 1077893">
            <g id="Grupo_1077892" data-name="Grupo 1077892">
              <g id="Grupo_1077891" data-name="Grupo 1077891">
                <g id="Grupo_1077754" data-name="Grupo 1077754">
                  <g id="Grupo_1076197" data-name="Grupo 1076197" transform="translate(180 14181.701)">
                    <rect id="Rectángulo_373681" data-name="Rectángulo 373681" width="10.284" height="60.504" rx="5.142" transform="translate(392.728 -32) rotate(45)" fill="#ffb476"/>
                    <g id="Grupo_1065536" data-name="Grupo 1065536" transform="translate(314.203 278.596) rotate(-90)">
                      <g id="Group_881454" data-name="Group 881454" transform="translate(0 57.585)">
                        <g id="Grupo_108438" data-name="Grupo 108438">
                          <path id="Trazado_165433" data-name="Trazado 165433" d="M0,3.545A3.544,3.544,0,1,0,3.543,0,3.543,3.543,0,0,0,0,3.545" fill="#2efec7"/>
                          <g id="Grupo_108437" data-name="Grupo 108437" clip-path="url(#clip-path)">
                            <g id="Group_881453" data-name="Group 881453" transform="translate(0 0)">
                              <rect id="Rectangle_298909" data-name="Rectangle 298909" width="7.086" height="7.086" fill="#2efec7"/>
                            </g>
                          </g>
                        </g>
                      </g>
                      <g id="Group_881458" data-name="Group 881458" transform="translate(0.001)">
                        <g id="Grupo_108442" data-name="Grupo 108442" transform="translate(0)">
                          <path id="Trazado_165437" data-name="Trazado 165437" d="M3.542,0A3.542,3.542,0,1,0,7.086,3.544,3.543,3.543,0,0,0,3.542,0Z" fill="#2efec7"/>
                          <g id="Grupo_108441" data-name="Grupo 108441" clip-path="url(#clip-path-2)">
                            <g id="Group_881457" data-name="Group 881457" transform="translate(-0.001 0.001)">
                              <rect id="Rectangle_298911" data-name="Rectangle 298911" width="7.086" height="7.085" fill="#2efec7"/>
                            </g>
                          </g>
                        </g>
                      </g>
                      <g id="Group_881460" data-name="Group 881460" transform="translate(24.015 57.585)">
                        <g id="Grupo_108444" data-name="Grupo 108444" transform="translate(0 0)">
                          <path id="Trazado_165439" data-name="Trazado 165439" d="M0,3.545A3.543,3.543,0,1,0,3.543,0,3.544,3.544,0,0,0,0,3.545" fill="#2efec7"/>
                          <g id="Grupo_108443" data-name="Grupo 108443" clip-path="url(#clip-path-3)">
                            <g id="Group_881459" data-name="Group 881459" transform="translate(0 0)">
                              <rect id="Rectangle_298912" data-name="Rectangle 298912" width="7.086" height="7.086" fill="#2efec7"/>
                            </g>
                          </g>
                        </g>
                      </g>
                      <g id="Group_881462" data-name="Group 881462" transform="translate(24.015 29.972)">
                        <g id="Grupo_108446" data-name="Grupo 108446">
                          <path id="Trazado_165441" data-name="Trazado 165441" d="M0,3.544A3.543,3.543,0,1,0,3.543,0,3.543,3.543,0,0,0,0,3.544" fill="#2efec7"/>
                          <g id="Grupo_108445" data-name="Grupo 108445" clip-path="url(#clip-path-4)">
                            <g id="Group_881461" data-name="Group 881461" transform="translate(0 0)">
                              <rect id="Rectangle_298913" data-name="Rectangle 298913" width="7.086" height="7.086" fill="#2efec7"/>
                            </g>
                          </g>
                        </g>
                      </g>
                      <g id="Group_881464" data-name="Group 881464" transform="translate(24.017)">
                        <g id="Grupo_108448" data-name="Grupo 108448" transform="translate(0)">
                          <path id="Trazado_165443" data-name="Trazado 165443" d="M3.541,0A3.542,3.542,0,1,0,7.085,3.544,3.542,3.542,0,0,0,3.541,0Z" fill="#2efec7"/>
                          <g id="Grupo_108447" data-name="Grupo 108447" clip-path="url(#clip-path-5)">
                            <g id="Group_881463" data-name="Group 881463" transform="translate(-0.001 0.001)">
                              <rect id="Rectangle_298914" data-name="Rectangle 298914" width="7.086" height="7.085" fill="#2efec7"/>
                            </g>
                          </g>
                        </g>
                      </g>
                      <g id="Group_881454-2" data-name="Group 881454" transform="translate(49.07 57.585)">
                        <g id="Grupo_108450" data-name="Grupo 108450">
                          <path id="Trazado_165445" data-name="Trazado 165445" d="M0,3.545A3.544,3.544,0,1,0,3.543,0,3.544,3.544,0,0,0,0,3.545" fill="#2efec7"/>
                          <g id="Grupo_108449" data-name="Grupo 108449" clip-path="url(#clip-path-6)">
                            <g id="Group_881453-2" data-name="Group 881453" transform="translate(0 0)">
                              <rect id="Rectangle_298909-2" data-name="Rectangle 298909" width="7.086" height="7.086" fill="#2efec7"/>
                            </g>
                          </g>
                        </g>
                      </g>
                      <g id="Group_881456" data-name="Group 881456" transform="translate(49.07 29.972)">
                        <g id="Grupo_108452" data-name="Grupo 108452" transform="translate(0 0)">
                          <path id="Trazado_165447" data-name="Trazado 165447" d="M0,3.544A3.544,3.544,0,1,0,3.544,0h0A3.547,3.547,0,0,0,0,3.544" fill="#2efec7"/>
                          <g id="Grupo_108451" data-name="Grupo 108451" clip-path="url(#clip-path-7)">
                            <g id="Group_881455" data-name="Group 881455" transform="translate(0 0)">
                              <rect id="Rectangle_298910" data-name="Rectangle 298910" width="7.086" height="7.086" fill="#2efec7"/>
                            </g>
                          </g>
                        </g>
                      </g>
                      <g id="Group_881458-2" data-name="Group 881458" transform="translate(49.071)">
                        <g id="Grupo_108454" data-name="Grupo 108454" transform="translate(0)">
                          <path id="Trazado_165449" data-name="Trazado 165449" d="M3.541,0A3.542,3.542,0,1,0,7.085,3.544,3.542,3.542,0,0,0,3.541,0Z" fill="#2efec7"/>
                          <g id="Grupo_108453" data-name="Grupo 108453" clip-path="url(#clip-path-5)">
                            <g id="Group_881457-2" data-name="Group 881457" transform="translate(-0.001 0.001)">
                              <rect id="Rectangle_298911-2" data-name="Rectangle 298911" width="7.086" height="7.085" fill="#2efec7"/>
                            </g>
                          </g>
                        </g>
                      </g>
                      <g id="Group_881460-2" data-name="Group 881460" transform="translate(73.086 57.585)">
                        <g id="Grupo_108456" data-name="Grupo 108456" transform="translate(0 0)">
                          <path id="Trazado_165451" data-name="Trazado 165451" d="M0,3.545A3.543,3.543,0,1,0,3.542,0,3.543,3.543,0,0,0,0,3.545" fill="#2efec7"/>
                          <g id="Grupo_108455" data-name="Grupo 108455" clip-path="url(#clip-path-9)">
                            <g id="Group_881459-2" data-name="Group 881459" transform="translate(0 0)">
                              <rect id="Rectangle_298912-2" data-name="Rectangle 298912" width="7.086" height="7.086" fill="#2efec7"/>
                            </g>
                          </g>
                        </g>
                      </g>
                      <g id="Group_881462-2" data-name="Group 881462" transform="translate(73.086 29.972)">
                        <g id="Grupo_108458" data-name="Grupo 108458">
                          <path id="Trazado_165453" data-name="Trazado 165453" d="M0,3.544A3.543,3.543,0,1,0,3.542,0,3.542,3.542,0,0,0,0,3.544" fill="#2efec7"/>
                          <g id="Grupo_108457" data-name="Grupo 108457" clip-path="url(#clip-path-10)">
                            <g id="Group_881461-2" data-name="Group 881461" transform="translate(0 0)">
                              <rect id="Rectangle_298913-2" data-name="Rectangle 298913" width="7.086" height="7.086" fill="#2efec7"/>
                            </g>
                          </g>
                        </g>
                      </g>
                      <g id="Group_881464-2" data-name="Group 881464" transform="translate(73.087)">
                        <g id="Grupo_108460" data-name="Grupo 108460" transform="translate(0)">
                          <path id="Trazado_165455" data-name="Trazado 165455" d="M3.541,0A3.542,3.542,0,1,0,7.085,3.544,3.542,3.542,0,0,0,3.541,0Z" fill="#2efec7"/>
                          <g id="Grupo_108459" data-name="Grupo 108459" clip-path="url(#clip-path-5)">
                            <g id="Group_881463-2" data-name="Group 881463" transform="translate(-0.001 0.001)">
                              <rect id="Rectangle_298914-2" data-name="Rectangle 298914" width="7.086" height="7.085" fill="#2efec7"/>
                            </g>
                          </g>
                        </g>
                      </g>
                      <g id="Group_881456-2" data-name="Group 881456" transform="translate(0 29.972)">
                        <g id="Grupo_108440" data-name="Grupo 108440" transform="translate(0 0)">
                          <path id="Trazado_165435" data-name="Trazado 165435" d="M0,3.544A3.544,3.544,0,1,0,3.544,0h0A3.547,3.547,0,0,0,0,3.544" fill="#2efec7"/>
                          <g id="Grupo_108439" data-name="Grupo 108439" clip-path="url(#clip-path-7)">
                            <g id="Group_881455-2" data-name="Group 881455" transform="translate(0 0)">
                              <rect id="Rectangle_298910-2" data-name="Rectangle 298910" width="7.086" height="7.086" fill="#2efec7"/>
                            </g>
                          </g>
                        </g>
                      </g>
                    </g>
                    <rect id="Rectángulo_373680" data-name="Rectángulo 373680" width="11.093" height="87.521" rx="5.546" transform="translate(61.887 208.866) rotate(45)" fill="#ff6148"/>
                  </g>
                  <rect id="Rectángulo_376876" data-name="Rectángulo 376876" width="400" height="225" transform="translate(180 14179.795)" fill="none"/>
                  <g id="Grupo_1077752" data-name="Grupo 1077752" transform="translate(8926 11632.146)">
                    <g id="Grupo_1076440" data-name="Grupo 1076440" transform="translate(-8582.587 2597.697)">
                      <g id="Grupo_34836" data-name="Grupo 34836" transform="translate(0)">
                        <g id="Grupo_34835" data-name="Grupo 34835">
                          <g id="Grupo_34834" data-name="Grupo 34834" style="isolation: isolate">
                            <g id="Grupo_34831" data-name="Grupo 34831" transform="translate(25.446 14.691)">
                              <path id="Trazado_85790" data-name="Trazado 85790" d="M208.032,321.308l2.165-1.258-.083,29.24-2.165,1.259Z" transform="translate(-207.949 -320.05)" fill="#264d65"/>
                            </g>
                            <g id="Grupo_34832" data-name="Grupo 34832" transform="translate(0.083)">
                              <path id="Trazado_85791" data-name="Trazado 85791" d="M194.272,313.386l2.165-1.258,25.447,14.691-2.165,1.258Z" transform="translate(-194.272 -312.128)" fill="#264d65"/>
                            </g>
                            <g id="Grupo_34833" data-name="Grupo 34833" transform="translate(0 1.258)">
                              <path id="Trazado_85792" data-name="Trazado 85792" d="M219.757,327.5l-.083,29.24-25.446-14.692.083-29.239Z" transform="translate(-194.227 -312.806)" fill="#ff6148"/>
                            </g>
                          </g>
                        </g>
                      </g>
                      <g id="Grupo_34838" data-name="Grupo 34838" transform="translate(3.117 10.388)">
                        <g id="Grupo_34837" data-name="Grupo 34837">
                          <path id="Trazado_85793" data-name="Trazado 85793" d="M201.835,327.027c.875.5,1.587.095,1.587-.916v-3.722l6.565,3.79a3.443,3.443,0,0,1,1.55,2.685v6.626c0,.986-.7,1.389-1.55.9l-1.849-1.068.829,3.331c.08.326-.033.367-.252.089l-4.358-5.5a1.209,1.209,0,0,1-.108-.161l-3.416-1.973a3.445,3.445,0,0,1-1.552-2.687v-2.863Z" transform="translate(-193.026 -313.748)" fill="#f5f5fd"/>
                          <path id="Trazado_85794" data-name="Trazado 85794" d="M195.908,318.639v5.452a2.835,2.835,0,0,0,1.276,2.211l1.523.879-.682,1.953c-.067.193.026.332.208.313l3.585-.389a.158.158,0,0,0,.089-.031l2.811,1.624c.7.4,1.276.074,1.276-.736v-5.452a2.829,2.829,0,0,0-1.276-2.21l-7.533-4.349C196.483,317.5,195.908,317.829,195.908,318.639Zm6.726,6.841c0-.519.363-.729.812-.469a1.8,1.8,0,0,1,.814,1.408c0,.519-.363.729-.814.471A1.8,1.8,0,0,1,202.634,325.48Zm-2.5-1.441c0-.519.364-.729.812-.471a1.8,1.8,0,0,1,.814,1.409c0,.519-.365.729-.814.469A1.8,1.8,0,0,1,200.138,324.039Zm-2.5-1.443c0-.517.365-.729.814-.469a1.8,1.8,0,0,1,.814,1.409c0,.519-.365.729-.814.469A1.8,1.8,0,0,1,197.64,322.6Z" transform="translate(-195.908 -317.729)" fill="#f5f5fd"/>
                        </g>
                      </g>
                    </g>
                    <g id="Grupo_1076441" data-name="Grupo 1076441" transform="translate(-8561.698 2535.183)">
                      <g id="Grupo_34845" data-name="Grupo 34845">
                        <g id="Grupo_34844" data-name="Grupo 34844">
                          <g id="Grupo_34843" data-name="Grupo 34843" style="isolation: isolate">
                            <g id="Grupo_34840" data-name="Grupo 34840" transform="translate(24.012 13.863)">
                              <path id="Trazado_85795" data-name="Trazado 85795" d="M218.519,287.079l2.043-1.187-.078,27.591-2.043,1.187Z" transform="translate(-218.441 -285.893)" fill="#cba81f"/>
                            </g>
                            <g id="Grupo_34841" data-name="Grupo 34841" transform="translate(0.078)">
                              <path id="Trazado_85796" data-name="Trazado 85796" d="M205.534,279.6l2.043-1.187L231.59,292.28l-2.043,1.187Z" transform="translate(-205.534 -278.417)" fill="#cba81f"/>
                            </g>
                            <g id="Grupo_34842" data-name="Grupo 34842" transform="translate(0 1.187)">
                              <path id="Trazado_85797" data-name="Trazado 85797" d="M229.583,292.92l-.078,27.592-24.012-13.863.078-27.591Z" transform="translate(-205.492 -279.057)" fill="#e2c140"/>
                            </g>
                          </g>
                        </g>
                      </g>
                      <g id="Grupo_34848" data-name="Grupo 34848" transform="translate(3.257 10.037)">
                        <g id="Grupo_34847" data-name="Grupo 34847">
                          <path id="Trazado_85798" data-name="Trazado 85798" d="M212.327,286.112c0,1.3-.923,1.838-2.053,1.185l-1.977-1.14,4.03-2.327Z" transform="translate(-206.352 -283.829)" fill="#f5f5fd"/>
                          <g id="Grupo_34846" data-name="Grupo 34846" transform="translate(0 0.295)">
                            <path id="Trazado_85799" data-name="Trazado 85799" d="M212.4,303.791l7.92,4.573c1.129.653,2.053.119,2.053-1.185V291.864a4.557,4.557,0,0,0-2.053-3.557l-7.483-4.319v2.283c0,1.634-1.15,2.3-2.565,1.48l-1.977-1.14v9.754a3.532,3.532,0,0,1,.924.382A7.478,7.478,0,0,1,212.6,302.6,3.374,3.374,0,0,1,212.4,303.791Zm8.323-8.137c0,.417-.345.558-.77.313l-9.235-5.331a1.594,1.594,0,0,1-.771-1.2c0-.415.347-.558.771-.313l9.235,5.333A1.588,1.588,0,0,1,220.723,295.654Zm0,2.893c0,.417-.345.558-.77.313l-9.235-5.331a1.593,1.593,0,0,1-.771-1.2c0-.417.347-.558.771-.313l9.235,5.331A1.591,1.591,0,0,1,220.723,298.547Zm0,2.824c0,.415-.345.558-.77.313l-9.235-5.333a1.594,1.594,0,0,1-.771-1.2c0-.417.347-.558.771-.313l9.235,5.333A1.588,1.588,0,0,1,220.723,301.371Zm-7.6-1.244c0-.415.347-.556.77-.313l6.057,3.5a1.591,1.591,0,0,1,.77,1.2c0,.417-.345.558-.77.313l-6.057-3.5A1.59,1.59,0,0,1,213.128,300.127Z" transform="translate(-206.352 -283.988)" fill="#f5f5fd"/>
                            <path id="Trazado_85800" data-name="Trazado 85800" d="M207.248,293.022a6.341,6.341,0,0,0,2.869,4.97c1.584.914,2.869.172,2.869-1.658a6.342,6.342,0,0,0-2.869-4.968C208.531,290.452,207.248,291.194,207.248,293.022Zm1.413.369,1.1.636v-1.233l.707.408v1.233l1.1.634v.9l-1.1-.636v1.231l-.707-.41v-1.229l-1.1-.636Z" transform="translate(-207.248 -278.018)" fill="#f5f5fd"/>
                          </g>
                        </g>
                      </g>
                    </g>
                    <g id="Grupo_1076442" data-name="Grupo 1076442" transform="translate(-8606.701 2544.716)">
                      <g id="Grupo_34855" data-name="Grupo 34855" transform="translate(0)">
                        <g id="Grupo_34854" data-name="Grupo 34854">
                          <g id="Grupo_34853" data-name="Grupo 34853" style="isolation: isolate">
                            <g id="Grupo_34850" data-name="Grupo 34850" transform="translate(25.263 14.586)">
                              <path id="Trazado_85801" data-name="Trazado 85801" d="M194.93,292.673l2.15-1.249L197,320.452l-2.15,1.25Z" transform="translate(-194.847 -291.423)" fill="#336ba2"/>
                            </g>
                            <g id="Grupo_34851" data-name="Grupo 34851" transform="translate(0.082)">
                              <path id="Trazado_85802" data-name="Trazado 85802" d="M181.268,284.807l2.15-1.249,25.263,14.586-2.15,1.249Z" transform="translate(-181.268 -283.558)" fill="#336ba2"/>
                            </g>
                            <g id="Grupo_34852" data-name="Grupo 34852" transform="translate(0 1.25)">
                              <path id="Trazado_85803" data-name="Trazado 85803" d="M206.57,298.817l-.082,29.03-25.263-14.586.082-29.03Z" transform="translate(-181.224 -284.232)" fill="#173d7a"/>
                            </g>
                          </g>
                        </g>
                      </g>
                      <g id="Grupo_34858" data-name="Grupo 34858" transform="translate(4.076 12.287)">
                        <g id="Grupo_34857" data-name="Grupo 34857">
                          <g id="Grupo_34856" data-name="Grupo 34856" transform="translate(4.352 3.487)">
                            <path id="Trazado_85804" data-name="Trazado 85804" d="M193.652,301.264l-2.852,1.645a.845.845,0,0,1-.872-.119,2.27,2.27,0,0,1-.873-.888l-2.85-4.938c-.449-.777-.449-1.619,0-1.877s1.176.161,1.626.938l.727,1.259v-4.241c0-.873.614-1.23,1.37-.792a3.029,3.029,0,0,1,1.37,2.374v4.243l.727-.421c.449-.26,1.178.161,1.626.938S194.1,301,193.652,301.264Z" transform="translate(-185.684 -292.064)" fill="#f5f5fd"/>
                            <path id="Trazado_85805" data-name="Trazado 85805" d="M185.769,298.057c0-.844.6-1.189,1.326-.766l5.836,3.37a2.937,2.937,0,0,1,1.328,2.3c0,.846-.6,1.189-1.328.766l-5.836-3.37A2.937,2.937,0,0,1,185.769,298.057Zm1.326-.6c-.649-.375-1.179-.069-1.179.682a2.614,2.614,0,0,0,1.179,2.044l5.836,3.369c.651.375,1.181.069,1.181-.681a2.614,2.614,0,0,0-1.181-2.045Z" transform="translate(-185.769 -287.752)" fill="#f5f5fd"/>
                            <path id="Trazado_85806" data-name="Trazado 85806" d="M187.2,297.667l4.506,2.6a2.769,2.769,0,0,1,1.254,2.172c0,.8-.56,1.124-1.254.723l-4.506-2.6Z" transform="translate(-184.546 -287.277)" fill="#f5f5fd"/>
                          </g>
                          <path id="Trazado_85807" data-name="Trazado 85807" d="M183.422,296.319c0-5.474,3.855-7.7,8.6-4.964s8.6,9.419,8.6,14.891-3.857,7.7-8.6,4.964S183.42,301.793,183.422,296.319Zm.964.556a16.9,16.9,0,0,0,7.633,13.222c4.21,2.429,7.633.452,7.633-4.408a16.891,16.891,0,0,0-7.633-13.22C187.81,290.04,184.386,292.016,184.386,296.875Z" transform="translate(-183.422 -290.184)" fill="#f5f5fd"/>
                        </g>
                      </g>
                    </g>
                    <g id="Grupo_1076443" data-name="Grupo 1076443" transform="translate(-8700 2509.137)">
                      <g id="Grupo_151354" data-name="Grupo 151354" transform="translate(69.87 46.857)">
                        <path id="Trazado_193591" data-name="Trazado 193591" d="M925.03,208.111,806,139.387c-3.368-1.943-2.945-5.339.943-7.585l81.053-46.78c3.889-2.244,9.77-2.489,13.138-.544L1020.162,153.2c3.367,1.944,2.945,5.339-.943,7.585l-81.053,46.78C934.279,209.811,928.4,210.056,925.03,208.111Z" transform="translate(-799.289 51.878)" fill="#173d7a" opacity="0.5"/>
                        <path id="Trazado_193592" data-name="Trazado 193592" d="M1073.555-6.527,949.695-78.038a5,5,0,0,0-4.2-.514l.008-.013-.225.085-.055.021-4.477,1.713,4.018,1.967c-.018.074-.042.143-.058.218L924.534,17.273c-1.009,4.6,1.013,9.962,4.516,11.985l120.881,69.791-.431,5.122,4.893-1.9a6.876,6.876,0,0,0,3.5-4.983l20.175-91.835C1079.081.861,1077.058-4.5,1073.555-6.527Z" transform="translate(-819.329 78.803)" fill="#173d7a"/>
                        <path id="Trazado_193593" data-name="Trazado 193593" d="M1074.978-6.527,951.118-78.038a5,5,0,0,0-4.2-.514l.008-.013-.225.085-.055.021-4.476,1.713,4.018,1.967c-.018.074-.042.143-.057.218l-13.3,60.525,60.6,47.215,85.451-34.77A9.612,9.612,0,0,0,1074.978-6.527Z" transform="translate(-820.752 78.803)" fill="#396caa"/>
                        <path id="Trazado_193594" data-name="Trazado 193594" d="M1095.86,22.132l9.428-4.015a11.81,11.81,0,0,0-3.82-9.442l-14.925,6.278Z" transform="translate(-846.304 64.261)" fill="#274f89"/>
                        <path id="Trazado_193595" data-name="Trazado 193595" d="M1043.66,104.029,919.8,32.518c-3.5-2.023-5.525-7.388-4.516-11.984L935.459-71.3c1.01-4.6,4.668-6.681,8.172-4.658l123.86,71.51c3.5,2.023,5.526,7.389,4.516,11.985L1051.832,99.37C1050.823,103.965,1047.163,106.052,1043.66,104.029Z" transform="translate(-817.792 78.459)" fill="#d4ecff"/>
                        <path id="Trazado_193596" data-name="Trazado 193596" d="M1073.649-4.969l-123.86-71.51a4.895,4.895,0,0,0-4.877-.212,5.092,5.092,0,0,1,3.687.647l123.86,71.51c3.5,2.023,5.526,7.389,4.516,11.985L1056.8,99.285a6.978,6.978,0,0,1-3.3,4.87c2.091-.457,3.836-2.353,4.485-5.305l20.175-91.834C1079.174,2.42,1077.152-2.946,1073.649-4.969Z" transform="translate(-822.76 78.544)" fill="#fff"/>
                        <path id="Trazado_193597" data-name="Trazado 193597" d="M1041.99,98.541,925.5,31.319c-3.207-1.851-5.057-6.761-4.133-10.966l18.462-84.036c.924-4.206,4.271-6.115,7.478-4.263L1063.8-.726c3.207,1.852,5.057,6.761,4.133,10.967l-18.462,84.036C1048.545,98.483,1045.2,100.392,1041.99,98.541Z" transform="translate(-818.807 77.116)" fill="#fff"/>
                        <path id="Trazado_193598" data-name="Trazado 193598" d="M1041.99,98.541,925.5,31.319c-3.207-1.851-5.057-6.761-4.133-10.966l18.462-84.036c.924-4.206,4.271-6.115,7.478-4.263L1063.8-.726c3.207,1.852,5.057,6.761,4.133,10.967l-18.462,84.036C1048.545,98.483,1045.2,100.392,1041.99,98.541Z" transform="translate(-818.807 77.116)" fill="#173d7a"/>
                        <path id="Trazado_193599" data-name="Trazado 193599" d="M1043.006,98.154,926.517,30.932c-3.206-1.851-5.056-6.761-4.132-10.966L940.846-64.07a6.448,6.448,0,0,1,2.936-4.424c-1.847.475-3.373,2.207-3.95,4.838L921.37,20.379c-.924,4.206.926,9.116,4.133,10.967L1041.99,98.567a4.476,4.476,0,0,0,4.543.16A4.64,4.64,0,0,1,1043.006,98.154Z" transform="translate(-818.807 77.089)" fill="#5793ce"/>
                        <path id="Trazado_193600" data-name="Trazado 193600" d="M1025.984,130.505l-16.93-2.235L899.762,65.17c-3.5-2.023-9.623-1.769-13.67.567l-77.443,44.7-10.238-1.352v5.809h.01a3.988,3.988,0,0,0,2.35,3.589l123.86,71.51c3.5,2.023,9.624,1.769,13.67-.567l84.339-48.677c2.276-1.314,3.411-3.007,3.344-4.6h0Z" transform="translate(-798.406 55.097)" fill="#173d7a"/>
                        <path id="Trazado_193601" data-name="Trazado 193601" d="M943.866,95.089,936.1,90.606H850.734l-42.085,24.282-10.238-1.352v5.809h.01a3.988,3.988,0,0,0,2.35,3.589l123.86,71.51a12.82,12.82,0,0,0,7.055,1.322Z" transform="translate(-798.406 50.641)" fill="#396caa"/>
                        <path id="Trazado_193602" data-name="Trazado 193602" d="M802.954,118.707l-4.543-.6v5.809h.01a3.988,3.988,0,0,0,2.35,3.589l2.183,1.26Z" transform="translate(-798.406 46.069)" fill="#5793ce"/>
                        <path id="Trazado_193603" data-name="Trazado 193603" d="M951.293,213.116a15.866,15.866,0,0,0,11.615-.721V199.438H951.293Z" transform="translate(-823.821 32.549)" fill="#274f89"/>
                        <path id="Trazado_193604" data-name="Trazado 193604" d="M924.63,182.267l-123.86-71.51c-3.5-2.023-3.064-5.556.981-7.892l84.339-48.677c4.046-2.336,10.166-2.59,13.67-.567l123.86,71.51c3.5,2.024,3.065,5.557-.981,7.892L938.3,181.7C934.255,184.036,928.134,184.29,924.63,182.267Z" transform="translate(-798.405 57.017)" fill="#d4ecff"/>
                        <path id="Trazado_193605" data-name="Trazado 193605" d="M1022.641,141.668,938.3,190.345c-4.045,2.335-10.166,2.59-13.67.567L800.772,119.4a4.608,4.608,0,0,1-2.178-2.382c-.549,1.657.15,3.333,2.178,4.5l123.86,71.51c3.5,2.024,9.624,1.769,13.67-.566l84.339-48.678c2.72-1.57,3.8-3.679,3.16-5.51A6.584,6.584,0,0,1,1022.641,141.668Z" transform="translate(-798.407 46.25)" fill="#fff"/>
                        <g id="Grupo_151351" data-name="Grupo 151351" transform="translate(49.136 113.676)">
                          <path id="Trazado_193606" data-name="Trazado 193606" d="M863.246,92.369l-5.6-3.236c-.45-.26-.394-.714.126-1.014l6.615-3.819a1.949,1.949,0,0,1,1.755-.073l5.6,3.235c.45.26.393.714-.126,1.014L865,92.3A1.953,1.953,0,0,1,863.246,92.369Z" transform="translate(-857.339 -61.945)" fill="#5793ce"/>
                          <path id="Trazado_193607" data-name="Trazado 193607" d="M873.627,98.362l-5.6-3.236c-.45-.26-.394-.714.126-1.014l6.615-3.819a1.951,1.951,0,0,1,1.755-.073l5.6,3.236c.45.26.393.714-.126,1.014l-6.615,3.819A1.951,1.951,0,0,1,873.627,98.362Z" transform="translate(-859.064 -62.941)" fill="#5793ce"/>
                          <path id="Trazado_193608" data-name="Trazado 193608" d="M884.007,104.354l-5.6-3.235c-.45-.26-.393-.714.126-1.014l6.615-3.819a1.951,1.951,0,0,1,1.755-.073l5.6,3.236c.45.26.393.714-.126,1.014l-6.615,3.819A1.948,1.948,0,0,1,884.007,104.354Z" transform="translate(-860.79 -63.937)" fill="#5793ce"/>
                          <path id="Trazado_193609" data-name="Trazado 193609" d="M898.363,99.527l-5.6-3.235c-.45-.26-.394-.714.126-1.014l5.553-3.206A1.95,1.95,0,0,1,900.193,92l5.6,3.235c.45.26.394.714-.126,1.014l-5.553,3.206A1.949,1.949,0,0,1,898.363,99.527Z" transform="translate(-863.176 -63.237)" fill="#5793ce"/>
                          <path id="Trazado_193610" data-name="Trazado 193610" d="M908.743,105.52l-5.6-3.235c-.449-.26-.393-.714.126-1.014l5.553-3.206a1.95,1.95,0,0,1,1.756-.073l5.6,3.235c.45.26.394.714-.126,1.014l-5.553,3.206A1.948,1.948,0,0,1,908.743,105.52Z" transform="translate(-864.902 -64.233)" fill="#5793ce"/>
                          <path id="Trazado_193611" data-name="Trazado 193611" d="M919.123,111.513l-5.6-3.236c-.449-.259-.394-.713.126-1.013l5.553-3.206a1.953,1.953,0,0,1,1.756-.073l5.6,3.236c.45.26.394.714-.126,1.014l-5.553,3.206A1.949,1.949,0,0,1,919.123,111.513Z" transform="translate(-866.627 -65.229)" fill="#5793ce"/>
                          <path id="Trazado_193612" data-name="Trazado 193612" d="M929.5,117.506l-5.6-3.236c-.449-.259-.394-.713.126-1.013l5.553-3.206a1.953,1.953,0,0,1,1.756-.073l5.6,3.236c.45.26.394.714-.126,1.014l-5.553,3.206A1.949,1.949,0,0,1,929.5,117.506Z" transform="translate(-868.353 -66.226)" fill="#5793ce"/>
                          <path id="Trazado_193613" data-name="Trazado 193613" d="M939.883,123.5l-5.6-3.236c-.449-.259-.393-.714.126-1.013l5.553-3.206a1.953,1.953,0,0,1,1.756-.073l5.6,3.236c.45.26.394.714-.126,1.014l-5.553,3.206A1.951,1.951,0,0,1,939.883,123.5Z" transform="translate(-870.078 -67.222)" fill="#5793ce"/>
                          <path id="Trazado_193614" data-name="Trazado 193614" d="M950.263,129.492l-5.6-3.236c-.449-.259-.393-.714.127-1.013l5.552-3.207a1.956,1.956,0,0,1,1.756-.073l5.6,3.236c.45.259.393.714-.126,1.013l-5.553,3.207A1.954,1.954,0,0,1,950.263,129.492Z" transform="translate(-871.804 -68.218)" fill="#5793ce"/>
                          <path id="Trazado_193615" data-name="Trazado 193615" d="M960.643,135.485l-5.6-3.236c-.449-.259-.393-.714.127-1.013l5.552-3.207a1.956,1.956,0,0,1,1.756-.073l5.6,3.236c.45.259.393.714-.126,1.013l-5.553,3.207A1.954,1.954,0,0,1,960.643,135.485Z" transform="translate(-873.529 -69.214)" fill="#5793ce"/>
                          <path id="Trazado_193616" data-name="Trazado 193616" d="M971.023,141.478l-5.6-3.236c-.449-.26-.393-.714.127-1.014l5.552-3.206a1.953,1.953,0,0,1,1.756-.073l5.6,3.236c.449.259.394.714-.127,1.013l-5.553,3.206A1.951,1.951,0,0,1,971.023,141.478Z" transform="translate(-875.255 -70.211)" fill="#5793ce"/>
                          <path id="Trazado_193617" data-name="Trazado 193617" d="M981.4,147.471l-5.6-3.236c-.449-.26-.394-.714.127-1.014l5.553-3.206a1.949,1.949,0,0,1,1.755-.073l5.6,3.236c.449.259.394.713-.127,1.013l-5.553,3.206A1.952,1.952,0,0,1,981.4,147.471Z" transform="translate(-876.98 -71.207)" fill="#5793ce"/>
                          <path id="Trazado_193618" data-name="Trazado 193618" d="M991.783,153.464l-5.6-3.236c-.449-.26-.394-.714.127-1.014l5.553-3.206a1.948,1.948,0,0,1,1.755-.073l5.6,3.236c.45.259.394.713-.127,1.013l-5.553,3.206A1.951,1.951,0,0,1,991.783,153.464Z" transform="translate(-878.706 -72.203)" fill="#5793ce"/>
                          <path id="Trazado_193619" data-name="Trazado 193619" d="M913.657,96.69l-5.6-3.236c-.45-.259-.393-.713.126-1.013l5.553-3.206a1.951,1.951,0,0,1,1.755-.073l5.6,3.236c.449.26.394.714-.127,1.014l-5.552,3.206A1.95,1.95,0,0,1,913.657,96.69Z" transform="translate(-865.719 -62.765)" fill="#5793ce"/>
                          <path id="Trazado_193620" data-name="Trazado 193620" d="M903.122,90.608l-5.6-3.236c-.45-.26-.393-.714.126-1.014l5.553-3.206a1.949,1.949,0,0,1,1.755-.073l5.6,3.236c.449.259.394.714-.127,1.013l-5.552,3.206A1.953,1.953,0,0,1,903.122,90.608Z" transform="translate(-863.967 -61.754)" fill="#5793ce"/>
                          <path id="Trazado_193621" data-name="Trazado 193621" d="M891.281,83.771,879.211,76.8c-.449-.259-.393-.713.127-1.013l5.553-3.206a1.951,1.951,0,0,1,1.755-.073l12.07,6.969c.45.26.394.714-.126,1.014L893.036,83.7A1.949,1.949,0,0,1,891.281,83.771Z" transform="translate(-860.924 -59.997)" fill="#5793ce"/>
                          <path id="Trazado_193622" data-name="Trazado 193622" d="M899.111,76.624l-9.8-5.655c-.45-.26-.394-.714.126-1.014l5.553-3.206a1.948,1.948,0,0,1,1.755-.073l9.8,5.655c.45.26.393.714-.126,1.014l-5.553,3.206A1.949,1.949,0,0,1,899.111,76.624Z" transform="translate(-862.604 -59.027)" fill="#5793ce"/>
                          <path id="Trazado_193623" data-name="Trazado 193623" d="M924.037,102.683l-5.6-3.236c-.45-.259-.393-.714.126-1.013l5.553-3.206a1.951,1.951,0,0,1,1.755-.073l5.6,3.236c.449.26.393.714-.127,1.014l-5.552,3.206A1.953,1.953,0,0,1,924.037,102.683Z" transform="translate(-867.444 -63.762)" fill="#5793ce"/>
                          <path id="Trazado_193624" data-name="Trazado 193624" d="M934.417,108.676l-5.6-3.236c-.45-.259-.394-.714.126-1.013l5.553-3.207a1.954,1.954,0,0,1,1.755-.073l5.6,3.236c.449.259.393.714-.127,1.013l-5.552,3.207A1.955,1.955,0,0,1,934.417,108.676Z" transform="translate(-869.17 -64.758)" fill="#5793ce"/>
                          <path id="Trazado_193625" data-name="Trazado 193625" d="M944.8,114.669l-5.6-3.236c-.45-.259-.394-.714.126-1.014l5.553-3.206a1.954,1.954,0,0,1,1.755-.073l5.6,3.236c.449.259.394.714-.126,1.013l-5.553,3.206A1.953,1.953,0,0,1,944.8,114.669Z" transform="translate(-870.895 -65.754)" fill="#5793ce"/>
                          <path id="Trazado_193626" data-name="Trazado 193626" d="M955.177,120.662l-5.6-3.236c-.45-.26-.393-.714.126-1.014l5.553-3.206a1.951,1.951,0,0,1,1.755-.073l5.6,3.236c.449.259.394.714-.126,1.013l-5.553,3.206A1.953,1.953,0,0,1,955.177,120.662Z" transform="translate(-872.621 -66.75)" fill="#5793ce"/>
                          <path id="Trazado_193627" data-name="Trazado 193627" d="M965.557,126.655l-5.6-3.236c-.45-.26-.394-.714.126-1.014l5.553-3.206a1.948,1.948,0,0,1,1.755-.073l5.6,3.236c.449.259.394.713-.126,1.013l-5.553,3.206A1.953,1.953,0,0,1,965.557,126.655Z" transform="translate(-874.346 -67.746)" fill="#5793ce"/>
                          <path id="Trazado_193628" data-name="Trazado 193628" d="M975.937,132.648l-5.6-3.236c-.45-.26-.394-.714.126-1.014l5.553-3.206a1.949,1.949,0,0,1,1.755-.073l5.6,3.236c.449.259.394.713-.126,1.013l-5.553,3.206A1.953,1.953,0,0,1,975.937,132.648Z" transform="translate(-876.072 -68.743)" fill="#5793ce"/>
                          <path id="Trazado_193629" data-name="Trazado 193629" d="M986.317,138.64l-5.6-3.235c-.45-.26-.394-.714.126-1.014l5.553-3.206a1.949,1.949,0,0,1,1.755-.073l5.6,3.235c.45.26.394.714-.126,1.014l-5.553,3.206A1.95,1.95,0,0,1,986.317,138.64Z" transform="translate(-877.797 -69.739)" fill="#5793ce"/>
                          <path id="Trazado_193630" data-name="Trazado 193630" d="M996.7,144.633l-5.6-3.235c-.45-.26-.393-.714.126-1.014l5.553-3.206a1.949,1.949,0,0,1,1.755-.073l5.6,3.235c.45.26.393.714-.126,1.014l-5.553,3.206A1.95,1.95,0,0,1,996.7,144.633Z" transform="translate(-879.523 -70.735)" fill="#5793ce"/>
                          <path id="Trazado_193631" data-name="Trazado 193631" d="M1007.077,150.626l-5.6-3.235c-.45-.26-.393-.714.126-1.014l5.553-3.206a1.949,1.949,0,0,1,1.755-.073l5.6,3.235c.45.26.394.714-.126,1.014l-5.553,3.206A1.95,1.95,0,0,1,1007.077,150.626Z" transform="translate(-881.249 -71.731)" fill="#5793ce"/>
                          <path id="Trazado_193632" data-name="Trazado 193632" d="M1024.211,160.518l-12.228-7.059c-.45-.26-.394-.714.126-1.014l5.553-3.206a1.953,1.953,0,0,1,1.756-.073l12.227,7.059c.45.26.393.714-.126,1.014l-5.553,3.206A1.948,1.948,0,0,1,1024.211,160.518Z" transform="translate(-882.995 -72.74)" fill="#5793ce"/>
                          <path id="Trazado_193633" data-name="Trazado 193633" d="M1044.8,149.07l-10.32-5.959c-.45-.259-.394-.714.126-1.013l5.553-3.207a1.954,1.954,0,0,1,1.755-.073l10.321,5.959c.45.259.394.714-.126,1.014L1046.555,149A1.955,1.955,0,0,1,1044.8,149.07Z" transform="translate(-886.735 -71.02)" fill="#5793ce"/>
                          <path id="Trazado_193634" data-name="Trazado 193634" d="M942.215,101.51l-5.6-3.235c-.449-.26-.393-.714.126-1.014l5.553-3.206a1.95,1.95,0,0,1,1.756-.073l5.6,3.235c.45.26.393.714-.126,1.014l-5.553,3.206A1.949,1.949,0,0,1,942.215,101.51Z" transform="translate(-870.466 -63.567)" fill="#5793ce"/>
                          <path id="Trazado_193635" data-name="Trazado 193635" d="M931.576,95.368l-5.6-3.235c-.45-.26-.394-.714.126-1.014l5.553-3.206a1.95,1.95,0,0,1,1.756-.073l5.6,3.235c.45.26.394.714-.126,1.014L933.332,95.3A1.95,1.95,0,0,1,931.576,95.368Z" transform="translate(-868.698 -62.546)" fill="#5793ce"/>
                          <path id="Trazado_193636" data-name="Trazado 193636" d="M920.938,89.226l-5.6-3.235c-.45-.26-.394-.714.126-1.014l5.553-3.206a1.948,1.948,0,0,1,1.755-.073l5.6,3.235c.449.26.393.714-.126,1.014l-5.553,3.206A1.95,1.95,0,0,1,920.938,89.226Z" transform="translate(-866.929 -61.525)" fill="#5793ce"/>
                          <path id="Trazado_193637" data-name="Trazado 193637" d="M910.3,83.084l-5.6-3.235c-.449-.26-.393-.714.127-1.014l5.553-3.206a1.949,1.949,0,0,1,1.755-.073l5.6,3.235c.449.26.394.714-.127,1.014l-5.553,3.206A1.949,1.949,0,0,1,910.3,83.084Z" transform="translate(-865.161 -60.503)" fill="#5793ce"/>
                          <path id="Trazado_193638" data-name="Trazado 193638" d="M952.6,107.5l-5.6-3.235c-.449-.26-.394-.714.126-1.014l5.553-3.206a1.951,1.951,0,0,1,1.756-.073l5.6,3.235c.45.26.393.714-.126,1.014l-5.553,3.206A1.949,1.949,0,0,1,952.6,107.5Z" transform="translate(-872.191 -64.563)" fill="#5793ce"/>
                          <path id="Trazado_193639" data-name="Trazado 193639" d="M962.975,113.5l-5.6-3.235c-.449-.26-.394-.714.126-1.014l5.553-3.206a1.951,1.951,0,0,1,1.756-.073l5.6,3.235c.45.26.394.714-.126,1.014l-5.553,3.206A1.949,1.949,0,0,1,962.975,113.5Z" transform="translate(-873.917 -65.559)" fill="#5793ce"/>
                          <path id="Trazado_193640" data-name="Trazado 193640" d="M973.355,119.489l-5.6-3.236c-.449-.259-.393-.713.126-1.013l5.553-3.206a1.953,1.953,0,0,1,1.756-.073l5.6,3.236c.45.26.394.714-.126,1.014l-5.553,3.206A1.949,1.949,0,0,1,973.355,119.489Z" transform="translate(-875.643 -66.555)" fill="#5793ce"/>
                          <path id="Trazado_193641" data-name="Trazado 193641" d="M983.735,125.482l-5.6-3.236c-.449-.259-.394-.713.127-1.013l5.552-3.206a1.953,1.953,0,0,1,1.756-.073l5.6,3.236c.45.26.394.714-.126,1.014l-5.553,3.206A1.949,1.949,0,0,1,983.735,125.482Z" transform="translate(-877.368 -67.552)" fill="#5793ce"/>
                          <path id="Trazado_193642" data-name="Trazado 193642" d="M994.115,131.475l-5.6-3.236c-.449-.259-.394-.714.127-1.013l5.552-3.206a1.953,1.953,0,0,1,1.756-.073l5.6,3.236c.45.26.394.714-.126,1.014L995.87,131.4A1.951,1.951,0,0,1,994.115,131.475Z" transform="translate(-879.094 -68.548)" fill="#5793ce"/>
                          <path id="Trazado_193643" data-name="Trazado 193643" d="M1004.5,137.468l-5.6-3.236c-.449-.259-.393-.714.127-1.013l5.552-3.207a1.956,1.956,0,0,1,1.756-.073l5.6,3.236c.449.259.393.714-.127,1.013l-5.553,3.207A1.954,1.954,0,0,1,1004.5,137.468Z" transform="translate(-880.819 -69.544)" fill="#5793ce"/>
                          <path id="Trazado_193644" data-name="Trazado 193644" d="M1014.875,143.461l-5.6-3.236c-.449-.259-.393-.714.127-1.014l5.553-3.206a1.954,1.954,0,0,1,1.755-.073l5.6,3.236c.449.259.394.714-.127,1.013l-5.553,3.207A1.954,1.954,0,0,1,1014.875,143.461Z" transform="translate(-882.545 -70.54)" fill="#5793ce"/>
                          <path id="Trazado_193645" data-name="Trazado 193645" d="M1025.255,149.454l-5.6-3.236c-.449-.26-.393-.714.127-1.014L1025.33,142a1.951,1.951,0,0,1,1.755-.073l5.6,3.236c.449.259.394.714-.127,1.013l-5.552,3.206A1.953,1.953,0,0,1,1025.255,149.454Z" transform="translate(-884.27 -71.536)" fill="#5793ce"/>
                          <path id="Trazado_193646" data-name="Trazado 193646" d="M1035.635,155.447l-5.6-3.236c-.45-.26-.394-.714.126-1.014l5.553-3.206a1.949,1.949,0,0,1,1.755-.073l5.6,3.236c.449.259.394.713-.127,1.013l-5.552,3.206A1.953,1.953,0,0,1,1035.635,155.447Z" transform="translate(-885.996 -72.533)" fill="#5793ce"/>
                          <path id="Trazado_193647" data-name="Trazado 193647" d="M936.749,86.687l-5.6-3.235c-.449-.26-.394-.714.127-1.014l5.553-3.206a1.949,1.949,0,0,1,1.755-.073l5.6,3.235c.45.26.394.714-.127,1.014L938.5,86.615A1.949,1.949,0,0,1,936.749,86.687Z" transform="translate(-869.557 -61.102)" fill="#5793ce"/>
                          <path id="Trazado_193648" data-name="Trazado 193648" d="M926.421,80.724l-5.6-3.235c-.45-.26-.394-.714.126-1.014L926.5,73.27a1.95,1.95,0,0,1,1.756-.073l5.6,3.235c.45.26.394.714-.126,1.014l-5.553,3.206A1.949,1.949,0,0,1,926.421,80.724Z" transform="translate(-867.84 -60.111)" fill="#5793ce"/>
                          <path id="Trazado_193649" data-name="Trazado 193649" d="M916.092,74.761l-5.6-3.236c-.45-.259-.393-.713.126-1.013l5.553-3.206a1.951,1.951,0,0,1,1.755-.073l5.6,3.236c.449.26.393.714-.126,1.014l-5.553,3.206A1.95,1.95,0,0,1,916.092,74.761Z" transform="translate(-866.123 -59.12)" fill="#5793ce"/>
                          <path id="Trazado_193650" data-name="Trazado 193650" d="M905.764,68.8l-5.6-3.236c-.449-.259-.394-.714.126-1.013l5.553-3.206a1.953,1.953,0,0,1,1.756-.073l5.6,3.236c.45.26.394.714-.126,1.014l-5.553,3.206A1.951,1.951,0,0,1,905.764,68.8Z" transform="translate(-864.407 -58.129)" fill="#5793ce"/>
                          <path id="Trazado_193651" data-name="Trazado 193651" d="M916.385,63.094l-5.6-3.236c-.45-.259-.394-.713.126-1.013l1.836-1.06a1.952,1.952,0,0,1,1.755-.073l5.6,3.236c.449.26.394.714-.126,1.014l-1.836,1.06A1.949,1.949,0,0,1,916.385,63.094Z" transform="translate(-866.172 -57.537)" fill="#5793ce"/>
                          <path id="Trazado_193652" data-name="Trazado 193652" d="M929.863,70.876l-5.6-3.236c-.45-.259-.394-.714.126-1.013l1.835-1.06a1.953,1.953,0,0,1,1.756-.073l5.6,3.236c.45.26.393.714-.126,1.014l-1.835,1.06A1.953,1.953,0,0,1,929.863,70.876Z" transform="translate(-868.413 -58.831)" fill="#5793ce"/>
                          <path id="Trazado_193653" data-name="Trazado 193653" d="M940.148,76.814l-5.6-3.235c-.45-.26-.393-.714.126-1.014l1.836-1.06a1.949,1.949,0,0,1,1.755-.073l5.6,3.235c.449.26.394.714-.126,1.014l-1.836,1.06A1.95,1.95,0,0,1,940.148,76.814Z" transform="translate(-870.122 -59.818)" fill="#5793ce"/>
                          <path id="Trazado_193654" data-name="Trazado 193654" d="M950.434,82.752l-5.6-3.235c-.45-.26-.394-.714.126-1.014l1.836-1.06a1.95,1.95,0,0,1,1.756-.073l5.6,3.235c.45.26.393.714-.126,1.014l-1.836,1.06A1.948,1.948,0,0,1,950.434,82.752Z" transform="translate(-871.832 -60.805)" fill="#5793ce"/>
                          <path id="Trazado_193655" data-name="Trazado 193655" d="M960.719,88.691l-5.6-3.236c-.45-.26-.394-.714.126-1.014l1.835-1.06a1.953,1.953,0,0,1,1.756-.073l5.6,3.236c.45.259.393.714-.126,1.013l-1.835,1.06A1.953,1.953,0,0,1,960.719,88.691Z" transform="translate(-873.542 -61.792)" fill="#5793ce"/>
                          <path id="Trazado_193656" data-name="Trazado 193656" d="M1018.141,121.843l-5.6-3.236c-.449-.259-.393-.713.126-1.013l1.836-1.06a1.951,1.951,0,0,1,1.755-.073l5.6,3.236c.45.26.394.714-.126,1.014l-1.836,1.06A1.949,1.949,0,0,1,1018.141,121.843Z" transform="translate(-883.088 -67.303)" fill="#5793ce"/>
                          <path id="Trazado_193657" data-name="Trazado 193657" d="M1028.426,127.781l-5.6-3.235c-.45-.26-.394-.714.126-1.014l1.835-1.06a1.95,1.95,0,0,1,1.756-.073l5.6,3.235c.45.26.394.714-.126,1.014l-1.835,1.06A1.95,1.95,0,0,1,1028.426,127.781Z" transform="translate(-884.797 -68.291)" fill="#5793ce"/>
                          <path id="Trazado_193658" data-name="Trazado 193658" d="M1038.711,133.72l-5.6-3.236c-.45-.26-.394-.714.126-1.014l1.836-1.06a1.949,1.949,0,0,1,1.755-.073l5.6,3.236c.449.259.394.713-.126,1.013l-1.836,1.06A1.953,1.953,0,0,1,1038.711,133.72Z" transform="translate(-886.507 -69.278)" fill="#5793ce"/>
                          <path id="Trazado_193659" data-name="Trazado 193659" d="M1049,139.658l-5.6-3.236c-.449-.259-.394-.714.126-1.013l1.836-1.061a1.956,1.956,0,0,1,1.756-.073l5.6,3.236c.45.259.394.714-.126,1.013l-1.836,1.061A1.954,1.954,0,0,1,1049,139.658Z" transform="translate(-888.217 -70.265)" fill="#5793ce"/>
                          <path id="Trazado_193660" data-name="Trazado 193660" d="M947.129,92.68l-5.6-3.235c-.45-.26-.393-.714.126-1.014l5.553-3.206a1.948,1.948,0,0,1,1.755-.073l5.6,3.235c.449.26.394.714-.127,1.014l-5.552,3.206A1.951,1.951,0,0,1,947.129,92.68Z" transform="translate(-871.283 -62.099)" fill="#5793ce"/>
                          <path id="Trazado_193661" data-name="Trazado 193661" d="M957.509,98.673l-5.6-3.236c-.45-.259-.393-.713.126-1.013l5.553-3.206a1.951,1.951,0,0,1,1.755-.073l5.6,3.236c.449.26.394.714-.127,1.014L959.265,98.6A1.95,1.95,0,0,1,957.509,98.673Z" transform="translate(-873.009 -63.095)" fill="#5793ce"/>
                          <path id="Trazado_193662" data-name="Trazado 193662" d="M967.889,104.666l-5.6-3.236c-.45-.259-.393-.713.126-1.013l5.553-3.206a1.951,1.951,0,0,1,1.755-.073l5.6,3.236c.449.26.393.714-.126,1.014l-5.553,3.206A1.95,1.95,0,0,1,967.889,104.666Z" transform="translate(-874.734 -64.091)" fill="#5793ce"/>
                          <path id="Trazado_193663" data-name="Trazado 193663" d="M978.269,110.659l-5.6-3.236c-.45-.259-.393-.714.126-1.013l5.553-3.206a1.951,1.951,0,0,1,1.755-.073l5.6,3.236c.449.26.394.714-.126,1.014l-5.553,3.206A1.953,1.953,0,0,1,978.269,110.659Z" transform="translate(-876.459 -65.087)" fill="#5793ce"/>
                          <path id="Trazado_193664" data-name="Trazado 193664" d="M988.649,116.652l-5.6-3.236c-.45-.259-.394-.714.126-1.013l5.553-3.207a1.954,1.954,0,0,1,1.755-.073l5.6,3.236c.449.259.393.714-.126,1.013l-5.553,3.207A1.955,1.955,0,0,1,988.649,116.652Z" transform="translate(-878.185 -66.084)" fill="#5793ce"/>
                          <path id="Trazado_193665" data-name="Trazado 193665" d="M999.029,122.645l-5.6-3.236c-.45-.259-.394-.714.126-1.014l5.553-3.206a1.954,1.954,0,0,1,1.755-.073l5.6,3.236c.449.259.394.714-.126,1.013l-5.553,3.206A1.953,1.953,0,0,1,999.029,122.645Z" transform="translate(-879.911 -67.08)" fill="#5793ce"/>
                          <path id="Trazado_193666" data-name="Trazado 193666" d="M1009.409,128.638l-5.6-3.236c-.45-.26-.394-.714.126-1.014l5.553-3.206a1.951,1.951,0,0,1,1.755-.073l5.6,3.236c.449.259.394.714-.126,1.013l-5.553,3.206A1.953,1.953,0,0,1,1009.409,128.638Z" transform="translate(-881.636 -68.076)" fill="#5793ce"/>
                          <path id="Trazado_193667" data-name="Trazado 193667" d="M1019.789,134.631l-5.6-3.236c-.45-.26-.394-.714.126-1.014l5.553-3.206a1.948,1.948,0,0,1,1.755-.073l5.6,3.236c.45.259.393.713-.126,1.013l-5.553,3.206A1.953,1.953,0,0,1,1019.789,134.631Z" transform="translate(-883.362 -69.072)" fill="#5793ce"/>
                          <path id="Trazado_193668" data-name="Trazado 193668" d="M1030.169,140.624l-5.6-3.236c-.45-.26-.394-.714.126-1.014l5.553-3.206A1.949,1.949,0,0,1,1032,133.1l5.6,3.236c.45.259.393.713-.126,1.013l-5.553,3.206A1.953,1.953,0,0,1,1030.169,140.624Z" transform="translate(-885.087 -70.069)" fill="#5793ce"/>
                          <path id="Trazado_193669" data-name="Trazado 193669" d="M885.612,92.165l-16.505-9.529c-.45-.259-.393-.714.126-1.013l5.553-3.207a1.955,1.955,0,0,1,1.756-.073l16.5,9.529c.45.26.393.714-.126,1.014l-5.553,3.206A1.949,1.949,0,0,1,885.612,92.165Z" transform="translate(-859.244 -60.967)" fill="#5793ce"/>
                          <path id="Trazado_193670" data-name="Trazado 193670" d="M1013.133,165.789l-16.505-9.528c-.449-.26-.394-.714.127-1.014l5.552-3.206a1.95,1.95,0,0,1,1.756-.073l16.5,9.529c.45.259.394.713-.126,1.013l-5.553,3.206A1.948,1.948,0,0,1,1013.133,165.789Z" transform="translate(-880.443 -73.206)" fill="#5793ce"/>
                          <path id="Trazado_193671" data-name="Trazado 193671" d="M973.8,156.194l-5.6-3.236c-.449-.26-.393-.714.126-1.014l6.615-3.819a1.95,1.95,0,0,1,1.756-.073l5.6,3.235c.45.26.394.714-.126,1.014l-6.615,3.819A1.951,1.951,0,0,1,973.8,156.194Z" transform="translate(-875.716 -72.555)" fill="#5793ce"/>
                          <path id="Trazado_193672" data-name="Trazado 193672" d="M897.745,112.286l-8.963-5.174c-.45-.26-.394-.714.126-1.014l6.615-3.819a1.951,1.951,0,0,1,1.755-.073l8.963,5.175c.45.259.393.713-.126,1.013l-6.615,3.819A1.949,1.949,0,0,1,897.745,112.286Z" transform="translate(-862.515 -64.934)" fill="#5793ce"/>
                          <path id="Trazado_193673" data-name="Trazado 193673" d="M963.124,150.032l-8.962-5.174c-.45-.259-.394-.714.126-1.013l6.615-3.819a1.949,1.949,0,0,1,1.755-.073l8.963,5.174c.449.26.394.714-.126,1.014l-6.615,3.819A1.95,1.95,0,0,1,963.124,150.032Z" transform="translate(-873.383 -71.208)" fill="#5793ce"/>
                          <path id="Trazado_193674" data-name="Trazado 193674" d="M912.721,120.932l-8.963-5.174c-.449-.259-.393-.714.126-1.013l6.615-3.819a1.95,1.95,0,0,1,1.756-.073l8.962,5.174c.45.26.394.714-.126,1.014l-6.615,3.819A1.949,1.949,0,0,1,912.721,120.932Z" transform="translate(-865.005 -66.371)" fill="#5793ce"/>
                          <path id="Trazado_193675" data-name="Trazado 193675" d="M912.389,110.93l38.966,22.5a.533.533,0,0,1,0,1.011l-6.746,3.895a1.934,1.934,0,0,1-1.751,0l-38.967-22.5Z" transform="translate(-865.078 -66.413)" fill="#5793ce"/>
                          <path id="Trazado_193676" data-name="Trazado 193676" d="M1003.086,168.688l6.242,3.6c.369.213.323.585-.1.831l-2.706,1.562a1.6,1.6,0,0,1-1.439.06l-6.242-3.6c-.368-.213-.323-.584.1-.83l2.706-1.562A1.6,1.6,0,0,1,1003.086,168.688Z" transform="translate(-880.82 -75.991)" fill="#5793ce"/>
                          <path id="Trazado_193677" data-name="Trazado 193677" d="M992.62,162.646l6.242,3.6c.369.213.323.584-.1.83l-2.706,1.562a1.6,1.6,0,0,1-1.439.059l-6.242-3.6c-.369-.213-.323-.585.1-.831l2.706-1.562A1.6,1.6,0,0,1,992.62,162.646Z" transform="translate(-879.08 -74.986)" fill="#5793ce"/>
                          <path id="Trazado_193678" data-name="Trazado 193678" d="M982.24,156.653l6.243,3.6c.369.213.323.584-.1.83l-2.706,1.562a1.6,1.6,0,0,1-1.439.059l-6.242-3.6c-.368-.213-.323-.585.1-.831l2.706-1.562A1.6,1.6,0,0,1,982.24,156.653Z" transform="translate(-877.354 -73.99)" fill="#5793ce"/>
                          <path id="Trazado_193679" data-name="Trazado 193679" d="M998.352,159.336l6.242,3.6c.369.213.323.585-.1.831l-2.706,1.562a1.6,1.6,0,0,1-1.439.06l-6.242-3.6c-.369-.213-.323-.584.1-.83l2.706-1.562A1.6,1.6,0,0,1,998.352,159.336Z" transform="translate(-880.033 -74.436)" fill="#5793ce"/>
                        </g>
                        <g id="Grupo_151352" data-name="Grupo 151352" transform="translate(131.403 36.565)">
                          <path id="Trazado_193680" data-name="Trazado 193680" d="M1030.957,36.457,984.34,9.543l.6-3.031,46.618,26.914Z" transform="translate(-960.717 28.056)" fill="#d4ecff"/>
                          <path id="Trazado_193681" data-name="Trazado 193681" d="M1013.739,44.211,981.2,25.423l.6-3.031,32.541,18.788Z" transform="translate(-960.195 25.416)" fill="#d4ecff"/>
                          <path id="Trazado_193682" data-name="Trazado 193682" d="M1010.921,33.737,982.768,17.483l.6-3.031,28.152,16.254Z" transform="translate(-960.456 26.736)" fill="#fff"/>
                          <path id="Trazado_193683" data-name="Trazado 193683" d="M1035.874,48.143,1021.8,40.017l.6-3.031,14.076,8.127Z" transform="translate(-966.944 22.99)" fill="#ffb476"/>
                          <path id="Trazado_193684" data-name="Trazado 193684" d="M975.579-23.79,961.5-31.917l.6-3.031,14.076,8.127Z" transform="translate(-956.921 34.948)" fill="#d4ecff"/>
                          <path id="Trazado_193685" data-name="Trazado 193685" d="M973.747-15.343,959.671-23.47l.6-3.031,14.076,8.127Z" transform="translate(-956.616 33.543)" fill="#fff"/>
                          <path id="Trazado_193686" data-name="Trazado 193686" d="M1056.609,101.824,1042.533,93.7l.6-3.031,14.076,8.127Z" transform="translate(-970.391 14.066)" fill="#d4ecff"/>
                          <path id="Trazado_193687" data-name="Trazado 193687" d="M970.083,1.551,956.007-6.575l.6-3.031,14.076,8.127Z" transform="translate(-956.007 30.735)" fill="#d4ecff"/>
                        </g>
                        <g id="Grupo_151353" data-name="Grupo 151353" transform="translate(172.272 68.01)">
                          <path id="Trazado_193688" data-name="Trazado 193688" d="M1008.645,5.79a1.757,1.757,0,0,1-2.531.78,2.2,2.2,0,0,1-.906-2.764,1.757,1.757,0,0,1,2.531-.78A2.2,2.2,0,0,1,1008.645,5.79Z" transform="translate(-1005.025 -2.767)" fill="#d2e1f1"/>
                          <path id="Trazado_193689" data-name="Trazado 193689" d="M1015.917,9.988a1.757,1.757,0,0,1-2.531.78A2.2,2.2,0,0,1,1012.48,8a1.757,1.757,0,0,1,2.53-.78A2.2,2.2,0,0,1,1015.917,9.988Z" transform="translate(-1006.234 -3.465)" fill="#fff"/>
                          <path id="Trazado_193690" data-name="Trazado 193690" d="M1023.188,14.187a1.757,1.757,0,0,1-2.53.78,2.2,2.2,0,0,1-.906-2.764,1.755,1.755,0,0,1,2.53-.78A2.2,2.2,0,0,1,1023.188,14.187Z" transform="translate(-1007.443 -4.163)" fill="#d4ecff"/>
                          <path id="Trazado_193691" data-name="Trazado 193691" d="M1030.46,18.385a1.756,1.756,0,0,1-2.531.78,2.2,2.2,0,0,1-.907-2.764,1.757,1.757,0,0,1,2.531-.78A2.2,2.2,0,0,1,1030.46,18.385Z" transform="translate(-1008.651 -4.861)" fill="#d2e1f1"/>
                        </g>
                        <path id="Trazado_193692" data-name="Trazado 193692" d="M902.457,162.527l-38.643-22.311c-1.125-.649-.984-1.783.315-2.534l23.32-13.464a4.879,4.879,0,0,1,4.389-.182l38.642,22.311c1.125.649.984,1.784-.315,2.534l-23.32,13.464A4.879,4.879,0,0,1,902.457,162.527Z" transform="translate(-809.152 45.157)" fill="#fff"/>
                      </g>
                      <g id="Grupo_151357" data-name="Grupo 151357" transform="translate(180.143 230.459)">
                        <g id="Grupo_151355" data-name="Grupo 151355">
                          <ellipse id="Elipse_5369" data-name="Elipse 5369" cx="16.997" cy="9.813" rx="16.997" ry="9.813" transform="translate(2.34 15.173)" fill="#173d7a" opacity="0.5"/>
                          <path id="Trazado_193693" data-name="Trazado 193693" d="M969.339,158.708v-5.429h-1.025a12.348,12.348,0,0,0-4.639-4.339c-7.552-4.36-19.8-4.36-27.347,0a12.349,12.349,0,0,0-4.639,4.339h-1.024v5.4h0c-.013,2.866,1.873,5.736,5.661,7.923,7.551,4.361,19.8,4.361,27.347,0C967.452,164.423,969.339,161.566,969.339,158.708Z" transform="translate(-930.665 -142.115)" fill="#727997"/>
                          <ellipse id="Elipse_5370" data-name="Elipse 5370" cx="19.337" cy="11.164" rx="19.337" ry="11.164" fill="#12263f"/>
                          <path id="Trazado_193694" data-name="Trazado 193694" d="M963.679,162.761c-7.551,4.361-19.8,4.361-27.347,0-3.619-2.089-5.485-4.8-5.635-7.539-.163,2.975,1.7,5.979,5.635,8.249,7.551,4.361,19.8,4.361,27.347,0,3.933-2.27,5.8-5.274,5.635-8.249C969.164,157.959,967.3,160.671,963.679,162.761Z" transform="translate(-930.669 -143.703)" fill="#fff"/>
                        </g>
                        <g id="Grupo_151356" data-name="Grupo 151356" transform="translate(9.507 5.872)">
                          <path id="Trazado_193695" data-name="Trazado 193695" d="M942.578,157.437a.869.869,0,0,1-.51-.712l.019-7.274c0-.554.782-1,1.743-1s1.737.45,1.737,1.006l-.016,6.031,17.5-2.144c.941-.115,1.864.232,2.064.775s-.4,1.076-1.341,1.191l-19.61,2.4a2.767,2.767,0,0,1-1.458-.2C942.665,157.484,942.62,157.462,942.578,157.437Z" transform="translate(-942.068 -148.448)" fill="#fff"/>
                        </g>
                      </g>
                      <g id="Grupo_151359" data-name="Grupo 151359" transform="translate(85.176 141.545)">
                        <g id="Grupo_151358" data-name="Grupo 151358">
                          <path id="Trazado_193696" data-name="Trazado 193696" d="M831.129,83.878l-14.367-8.295,14.366-8.294L845.5,75.584Z" transform="translate(-816.763 -40.171)" fill="#173d7a" opacity="0.5"/>
                          <path id="Trazado_193697" data-name="Trazado 193697" d="M848.36,61.3l-14.366,8.294V53.006l14.366-8.294Z" transform="translate(-819.627 -36.417)" fill="#e4e9eb"/>
                          <path id="Trazado_193698" data-name="Trazado 193698" d="M831.129,51.352l-14.366-8.294,14.366-8.294L845.5,43.058Z" transform="translate(-816.763 -34.764)" fill="#6a838d"/>
                          <path id="Trazado_193699" data-name="Trazado 193699" d="M831.129,69.594,816.763,61.3V44.711l14.366,8.294Z" transform="translate(-816.763 -36.417)" fill="#9bacb2"/>
                        </g>
                        <path id="Trazado_193700" data-name="Trazado 193700" d="M826.987,62.419l-4.018-2.32V55.46l4.018,2.32Z" transform="translate(-817.795 -38.204)" fill="#fff"/>
                      </g>
                      <g id="Grupo_151361" data-name="Grupo 151361" transform="translate(243.76 281.098)">
                        <g id="Grupo_151360" data-name="Grupo 151360" transform="translate(0 0)">
                          <path id="Trazado_193701" data-name="Trazado 193701" d="M1021.923,253.273l-14.957-8.635L1021.922,236l14.957,8.635Z" transform="translate(-1006.966 -207.77)" fill="#173d7a" opacity="0.5"/>
                          <path id="Trazado_193702" data-name="Trazado 193702" d="M1039.861,229.767,1024.9,238.4v-17.27l14.957-8.635Z" transform="translate(-1009.948 -203.863)" fill="#173d7a"/>
                          <path id="Trazado_193703" data-name="Trazado 193703" d="M1021.923,219.411l-14.956-8.635,14.956-8.635,14.956,8.635Z" transform="translate(-1006.966 -202.141)" fill="#d4ecff"/>
                          <path id="Trazado_193704" data-name="Trazado 193704" d="M1021.923,238.4l-14.956-8.635V212.5l14.956,8.635Z" transform="translate(-1006.966 -203.863)" fill="#5793ce"/>
                        </g>
                        <path id="Trazado_193705" data-name="Trazado 193705" d="M1017.61,230.933l-4.183-2.415v-4.83l4.183,2.415Z" transform="translate(-1008.04 -205.723)" fill="#fff"/>
                      </g>
                      <g id="Grupo_151367" data-name="Grupo 151367" transform="translate(100.777 280.285)">
                        <path id="Trazado_193706" data-name="Trazado 193706" d="M849.812,266.287c11.513,6.648,30.181,6.648,41.7,0s11.514-17.426,0-24.073-30.182-6.648-41.7,0S838.3,259.64,849.812,266.287Zm11.265-17.569c5.293-3.056,13.874-3.056,19.167,0s5.293,8.011,0,11.067-13.874,3.056-19.167,0S855.785,251.774,861.077,248.718Z" transform="translate(-836.422 -207.161)" fill="#173d7a" opacity="0.5"/>
                        <g id="Grupo_151366" data-name="Grupo 151366" transform="translate(0 0)">
                          <g id="Grupo_151362" data-name="Grupo 151362" transform="translate(8.545)">
                            <path id="Trazado_193707" data-name="Trazado 193707" d="M896.614,235.326l-10.517.164a11.187,11.187,0,0,0-3.322-2.793c-5.784-3.339-14.878-3.6-21.178-.779l-6.25-5.878-9.623.15c.476-.311.964-.618,1.479-.915,13.374-7.721,35.056-7.721,48.428,0a25.441,25.441,0,0,1,6.017,4.687Z" transform="translate(-845.723 -204.211)" fill="#727997"/>
                            <path id="Trazado_193708" data-name="Trazado 193708" d="M845.723,209.179v15.273l9.623-.15V209.029Z" transform="translate(-845.723 -202.473)" fill="#12263f"/>
                            <path id="Trazado_193709" data-name="Trazado 193709" d="M863.515,214.907V230.18l-6.25-5.878V209.029Z" transform="translate(-847.642 -202.473)" fill="#12263f"/>
                            <path id="Trazado_193710" data-name="Trazado 193710" d="M889.261,218.7v15.273L875.426,222.7l-10.665,7.7V215.129l9.82-4.764S888.1,214.5,888.8,214.679,889.261,218.7,889.261,218.7Z" transform="translate(-848.888 -202.695)" fill="#727997"/>
                            <path id="Trazado_193711" data-name="Trazado 193711" d="M904.664,220.166v15.273l-10.517.164V220.33Z" transform="translate(-853.773 -204.324)" fill="#12263f"/>
                            <path id="Trazado_193712" data-name="Trazado 193712" d="M911.795,213.733v15.273l-5.034,5.363V219.1Z" transform="translate(-855.87 -203.255)" fill="#12263f"/>
                            <path id="Trazado_193713" data-name="Trazado 193713" d="M896.614,217.007l-10.517.164a11.186,11.186,0,0,0-3.322-2.793c-5.784-3.339-14.878-3.6-21.178-.779l-6.25-5.878-9.623.15c.476-.311.964-.618,1.479-.915,13.374-7.721,35.056-7.721,48.428,0a25.44,25.44,0,0,1,6.017,4.687Z" transform="translate(-845.723 -201.166)" fill="#b0c0d2"/>
                          </g>
                          <g id="Grupo_151364" data-name="Grupo 151364" transform="translate(0 9.137)">
                            <path id="Trazado_193714" data-name="Trazado 193714" d="M859.146,218.332v14.04l-9.1-2.181s.534-8.215.729-8.435S859.146,218.332,859.146,218.332Z" transform="translate(-837.896 -213.156)" fill="#5793ce"/>
                            <g id="Grupo_151363" data-name="Grupo 151363">
                              <path id="Trazado_193715" data-name="Trazado 193715" d="M867.748,235.171v15.273l-.983,1.048-6.418-3.7s1-11.659,1.112-11.894S867.748,235.171,867.748,235.171Z" transform="translate(-839.609 -215.955)" fill="#173d7a"/>
                              <path id="Trazado_193716" data-name="Trazado 193716" d="M851.221,230.442l5.5,5.176c-4.585,3.628-4.043,8.741,1.629,12.016a19.573,19.573,0,0,0,5.26,2.024l-5.689,6.061,5.041,4.741a45.787,45.787,0,0,1-17.468-5.4c-11.5-6.638-13.1-16.817-4.829-24.45Z" transform="translate(-835.475 -215.169)" fill="#396caa"/>
                              <path id="Trazado_193717" data-name="Trazado 193717" d="M862.966,244.121v15.273l-12.481-4.82-15.01-14.321.056-16.218,15.881,12.588Z" transform="translate(-835.475 -214.104)" fill="#396caa"/>
                              <path id="Trazado_193718" data-name="Trazado 193718" d="M851.221,212.124l5.5,5.176c-4.585,3.628-4.043,8.741,1.629,12.016a19.573,19.573,0,0,0,5.26,2.024l-5.689,6.061,5.041,4.741a45.787,45.787,0,0,1-17.468-5.4c-11.5-6.638-13.1-16.818-4.829-24.45Z" transform="translate(-835.475 -212.124)" fill="#d4ecff"/>
                            </g>
                          </g>
                          <g id="Grupo_151365" data-name="Grupo 151365" transform="translate(27.532 13.451)">
                            <path id="Trazado_193719" data-name="Trazado 193719" d="M868.5,256.5l5.014-5.342a23.977,23.977,0,0,0,13.05-2.663c3.684-2.128,5.2-5.032,4.558-7.8l11.94-.186,4.591-4.892c4.016,6.893,1.276,14.808-8.234,20.3-6.988,4.035-16.245,5.957-25.4,5.775Z" transform="translate(-868.496 -220.344)" fill="#396caa"/>
                            <path id="Trazado_193720" data-name="Trazado 193720" d="M875.116,244.656v15.273L910.538,240.3V225.019l-5.172,2.091Z" transform="translate(-869.596 -218.582)" fill="#396caa"/>
                            <path id="Trazado_193721" data-name="Trazado 193721" d="M868.5,242.345v15.273l5.52,5.191V247.536Z" transform="translate(-868.496 -221.463)" fill="#173d7a"/>
                            <path id="Trazado_193722" data-name="Trazado 193722" d="M868.5,238.181l5.014-5.342a23.977,23.977,0,0,0,13.05-2.664c3.684-2.127,5.2-5.031,4.558-7.8l11.94-.186,4.591-4.892c4.016,6.893,1.276,14.808-8.234,20.3-6.988,4.035-16.245,5.957-25.4,5.775Z" transform="translate(-868.496 -217.299)" fill="#5793ce"/>
                          </g>
                        </g>
                      </g>
                      <g id="Grupo_151383" data-name="Grupo 151383" transform="translate(229.327 0)">
                        <g id="Grupo_151371" data-name="Grupo 151371" transform="translate(19.717 38.942)">
                          <path id="Trazado_193723" data-name="Trazado 193723" d="M1017.227-47.574a.417.417,0,0,1-.417-.417V-71.719a.416.416,0,0,1,.417-.417.416.416,0,0,1,.417.417v23.728A.417.417,0,0,1,1017.227-47.574Z" transform="translate(-1013.887 85.61)" fill="#396caa"/>
                          <g id="Grupo_151370" data-name="Grupo 151370">
                            <g id="Grupo_151368" data-name="Grupo 151368" transform="translate(1.279 12.398)">
                              <rect id="Rectángulo_44591" data-name="Rectángulo 44591" width="4.122" height="8.896" transform="translate(0)" fill="#5793ce"/>
                              <path id="Trazado_193724" data-name="Trazado 193724" d="M1018.357-62.153a3.218,3.218,0,0,1-2.915,0,.888.888,0,0,1,0-1.683,3.22,3.22,0,0,1,2.916,0A.888.888,0,0,1,1018.357-62.153Z" transform="translate(-1014.837 71.89)" fill="#5793ce"/>
                            </g>
                            <g id="Grupo_151369" data-name="Grupo 151369">
                              <rect id="Rectángulo_44592" data-name="Rectángulo 44592" width="6.68" height="13.952" transform="translate(0)" fill="#5793ce"/>
                              <path id="Trazado_193725" data-name="Trazado 193725" d="M1014.837-71.754v3.01a5.336,5.336,0,0,0,4.123,0v-3.011A5.332,5.332,0,0,0,1014.837-71.754Z" transform="translate(-1013.559 85.616)" fill="#396caa"/>
                              <path id="Trazado_193726" data-name="Trazado 193726" d="M1019.005-70.583a5.221,5.221,0,0,1-4.723,0c-1.3-.753-1.3-1.974,0-2.727a5.221,5.221,0,0,1,4.723,0C1020.31-72.558,1020.31-71.336,1019.005-70.583Z" transform="translate(-1013.304 85.899)" fill="#5793ce"/>
                            </g>
                          </g>
                        </g>
                        <g id="Grupo_151375" data-name="Grupo 151375" transform="translate(42.857 51.962)">
                          <path id="Trazado_193727" data-name="Trazado 193727" d="M1044.981-31.958a.417.417,0,0,1-.417-.417V-56.1a.416.416,0,0,1,.417-.417.417.417,0,0,1,.417.417v23.728A.417.417,0,0,1,1044.981-31.958Z" transform="translate(-1041.64 69.994)" fill="#396caa"/>
                          <g id="Grupo_151374" data-name="Grupo 151374">
                            <g id="Grupo_151372" data-name="Grupo 151372" transform="translate(1.279 12.398)">
                              <rect id="Rectángulo_44593" data-name="Rectángulo 44593" width="4.122" height="8.896" transform="translate(0)" fill="#5793ce"/>
                              <path id="Trazado_193728" data-name="Trazado 193728" d="M1046.11-46.536a3.225,3.225,0,0,1-2.916,0,.889.889,0,0,1,0-1.683,3.225,3.225,0,0,1,2.916,0A.889.889,0,0,1,1046.11-46.536Z" transform="translate(-1042.591 56.274)" fill="#5793ce"/>
                            </g>
                            <g id="Grupo_151373" data-name="Grupo 151373">
                              <rect id="Rectángulo_44594" data-name="Rectángulo 44594" width="6.68" height="13.952" transform="translate(0)" fill="#5793ce"/>
                              <path id="Trazado_193729" data-name="Trazado 193729" d="M1042.591-56.138v3.011a5.333,5.333,0,0,0,4.123,0v-3.011A5.333,5.333,0,0,0,1042.591-56.138Z" transform="translate(-1041.312 69.999)" fill="#396caa"/>
                              <path id="Trazado_193730" data-name="Trazado 193730" d="M1046.759-54.967a5.216,5.216,0,0,1-4.723,0c-1.3-.753-1.3-1.974,0-2.727a5.218,5.218,0,0,1,4.723,0C1048.064-56.941,1048.064-55.72,1046.759-54.967Z" transform="translate(-1041.057 70.283)" fill="#5793ce"/>
                            </g>
                          </g>
                        </g>
                        <g id="Grupo_151382" data-name="Grupo 151382">
                          <g id="Grupo_151378" data-name="Grupo 151378">
                            <path id="Trazado_193731" data-name="Trazado 193731" d="M1071.68-48.088l8.957-5.275-8.53-10.646-2.243,3.664Z" transform="translate(-1002.989 123.201)" fill="#5793ce"/>
                            <path id="Trazado_193732" data-name="Trazado 193732" d="M994.039-116.634l14.3-8.225s-.538,8.208-.538,8.225-8.213,2.543-8.213,2.543Z" transform="translate(-990.384 133.317)" fill="#5793ce"/>
                            <path id="Trazado_193733" data-name="Trazado 193733" d="M1063.682-86.661a8.995,8.995,0,0,0-3.092-1.146c-1.442-7.575-6.712-15.618-13-19.247a12.718,12.718,0,0,0-5.318-1.8c-.858-9.181-7.242-19.615-14.994-24.09-4.049-2.338-7.723-2.615-10.434-1.183v-.007l-.132.075c-.069.038-.138.078-.206.118l-8.429,4.978,2.8,2.213c-2.514,1.1-4.1,3.919-4.1,8.087,0,7.686,5.4,17.034,12.054,20.877l44.85,32.027c5,2.886,9.051.546,9.051-5.226S1068.681-83.776,1063.682-86.661Z" transform="translate(-992.501 135.003)" fill="#5793ce"/>
                            <path id="Trazado_193734" data-name="Trazado 193734" d="M1007.277-122.047l19.347-11.3c-3.756-1.958-7.149-2.12-9.694-.776v-.007l-.132.075c-.069.038-.139.078-.206.118l-8.429,4.978,2.8,2.213A6.756,6.756,0,0,0,1007.277-122.047Z" transform="translate(-992.584 135.003)" fill="#5793ce"/>
                            <path id="Trazado_193735" data-name="Trazado 193735" d="M1047.192-83.37l14.116-8.283a27.343,27.343,0,0,0-9.447-9.977c-.489-.283-.971-.529-1.445-.744l-17.955,10.5Z" transform="translate(-996.771 129.579)" fill="#5793ce"/>
                            <path id="Trazado_193736" data-name="Trazado 193736" d="M1013.11-127.964l6.291,3.632,11.521-6.786a22.829,22.829,0,0,0-2.588-1.753,16.179,16.179,0,0,0-4.026-1.692Z" transform="translate(-993.554 134.93)" fill="#d4ecff"/>
                            <path id="Trazado_193737" data-name="Trazado 193737" d="M1062.946-92.439,1051.679-85.8l3.919,4.371,10.228-6.039A32.8,32.8,0,0,0,1062.946-92.439Z" transform="translate(-999.966 127.927)" fill="#d4ecff"/>
                            <path id="Trazado_193738" data-name="Trazado 193738" d="M1051.986-80.41a9.012,9.012,0,0,0-3.092-1.146c-1.442-7.574-6.712-15.618-13-19.247a12.729,12.729,0,0,0-5.318-1.8c-.858-9.181-7.241-19.614-14.994-24.09-8.336-4.813-15.095-.911-15.095,8.714,0,.327.009.656.025.987-6.1-2.827-10.86.359-10.86,7.58,0,7.686,5.4,17.033,12.054,20.877l50.277,29.027c5,2.886,9.051.547,9.051-5.225S1056.985-77.524,1051.986-80.41Z" transform="translate(-989.655 133.964)" fill="#d4ecff"/>
                            <g id="Grupo_151376" data-name="Grupo 151376" transform="translate(2.757 4.493)">
                              <path id="Trazado_193739" data-name="Trazado 193739" d="M1001.065-114.99c-.016-.331-.025-.66-.025-.987v-.041c-3.368-1.309-6.262-.74-8.078,1.362C994.935-116.281,997.8-116.5,1001.065-114.99Z" transform="translate(-992.962 127.471)" fill="#fff"/>
                              <path id="Trazado_193740" data-name="Trazado 193740" d="M1055.548-81.27a9,9,0,0,0-3.093-1.146c-1.441-7.575-6.712-15.619-13-19.247a12.717,12.717,0,0,0-5.319-1.8c-.858-9.181-7.241-19.615-14.993-24.09-5.194-3-9.774-2.614-12.49.429,2.766-2.365,7-2.455,11.754.288,7.751,4.476,14.135,14.909,14.993,24.09a12.729,12.729,0,0,1,5.318,1.8c6.285,3.629,11.555,11.672,13,19.247a8.992,8.992,0,0,1,3.092,1.146c5,2.886,9.052,9.905,9.052,15.677a7.456,7.456,0,0,1-1.443,4.815c1.356-1.045,2.179-2.938,2.179-5.533C1064.6-71.366,1060.547-78.384,1055.548-81.27Z" transform="translate(-995.239 129.614)" fill="#fff"/>
                            </g>
                            <g id="Grupo_151377" data-name="Grupo 151377" transform="translate(2.527 7.73)">
                              <path id="Trazado_193741" data-name="Trazado 193741" d="M999.955-114.2l3.779,1.753-.192-4.161c-.014-.292-.022-.582-.022-.87,0-3.714,1.122-6.407,3.158-7.584s4.93-.8,8.147,1.058c6.919,3.995,12.954,13.718,13.741,22.136l.2,2.121,2.124.163a10.227,10.227,0,0,1,4.249,1.469c5.5,3.172,10.448,10.545,11.777,17.531l.333,1.748,1.758.275a6.529,6.529,0,0,1,2.221.839c4.221,2.437,7.787,8.614,7.787,13.488,0,1.824-.505,3.162-1.387,3.672s-2.293.278-3.873-.634L1003.476-90.22c-5.849-3.377-10.79-11.935-10.79-18.69,0-2.65.781-4.669,2.144-5.54a3.672,3.672,0,0,1,2-.536A7.552,7.552,0,0,1,999.955-114.2Z" transform="translate(-992.686 125.731)" fill="#173d7a"/>
                            </g>
                          </g>
                          <g id="Grupo_151381" data-name="Grupo 151381" transform="translate(23.924 32.161)">
                            <path id="Trazado_193742" data-name="Trazado 193742" d="M1031.5-74.433l1.326-.666-1.306-.989Z" transform="translate(-1020.535 93.048)" fill="#5793ce"/>
                            <path id="Trazado_193743" data-name="Trazado 193743" d="M1026.723-95.722l1.288-.651.023.674Z" transform="translate(-1019.741 96.42)" fill="#5793ce"/>
                            <path id="Trazado_193744" data-name="Trazado 193744" d="M1035.79-79.752l1.344-.676-2.586-2.46Z" transform="translate(-1021.042 94.179)" fill="#5793ce"/>
                            <g id="Grupo_151379" data-name="Grupo 151379" transform="translate(1.347)">
                              <path id="Trazado_193745" data-name="Trazado 193745" d="M1031.258-77.35l-6.279-3.7a1.339,1.339,0,0,1-.575-1.056l.021-7.27L1031.859-85l-.021,7.27C1031.837-77.331,1031.578-77.163,1031.258-77.35Z" transform="translate(-1020.702 95.257)" fill="#5793ce"/>
                              <path id="Trazado_193746" data-name="Trazado 193746" d="M1026.873-96.374l-6.782,4.364c-.288.185-.055.875.382,1.133l6.927,4.08,6.926,4.079c.437.258.673-.157.387-.68l-6.734-12.325C1027.687-96.256,1027.166-96.563,1026.873-96.374Z" transform="translate(-1019.964 96.43)" fill="#5793ce"/>
                            </g>
                            <g id="Grupo_151380" data-name="Grupo 151380" transform="translate(0 0.678)">
                              <path id="Trazado_193747" data-name="Trazado 193747" d="M1029.643-76.537l-6.279-3.7a1.342,1.342,0,0,1-.575-1.056l.021-7.27,7.434,4.378-.021,7.27C1030.222-76.518,1029.963-76.35,1029.643-76.537Z" transform="translate(-1019.087 94.444)" fill="#d4ecff"/>
                              <path id="Trazado_193748" data-name="Trazado 193748" d="M1025.258-95.561l-6.782,4.364c-.288.186-.055.875.382,1.133l6.927,4.08,6.926,4.08c.437.257.673-.158.387-.68l-6.734-12.325C1026.072-95.443,1025.551-95.75,1025.258-95.561Z" transform="translate(-1018.349 95.617)" fill="#d4ecff"/>
                            </g>
                          </g>
                        </g>
                        <path id="Trazado_193749" data-name="Trazado 193749" d="M1016.3-64.845c0,.409-.288.574-.642.37a1.419,1.419,0,0,1-.642-1.111c0-.409.288-.575.642-.37A1.418,1.418,0,0,1,1016.3-64.845Z" transform="translate(-993.87 123.54)" fill="#d4ecff"/>
                        <path id="Trazado_193750" data-name="Trazado 193750" d="M1044.114-49c0,.409-.288.575-.642.371a1.42,1.42,0,0,1-.641-1.111c0-.409.287-.575.641-.371A1.421,1.421,0,0,1,1044.114-49Z" transform="translate(-998.495 120.906)" fill="#d4ecff"/>
                      </g>
                      <g id="Grupo_151388" data-name="Grupo 151388" transform="translate(0 220.278)">
                        <g id="Grupo_151384" data-name="Grupo 151384" transform="translate(0 0)">
                          <path id="Trazado_193751" data-name="Trazado 193751" d="M798.7,204.156l35.224-20.4a2.826,2.826,0,0,0,1.658-2.514l.008,0-.014-5.111-1.959,2.295c-.127-.083-.255-.167-.394-.247l-72.056-41.469c-2.861-1.646-7.185-1.819-9.658-.387L716.782,156.44c-.7-.77-2.177-2.395-2.177-2.395l.017,5h0c-.052,1.127.75,2.328,2.365,3.258l72.056,41.468C791.905,205.416,796.23,205.589,798.7,204.156Z" transform="translate(-714.605 -130.219)" fill="#396caa"/>
                          <path id="Trazado_193752" data-name="Trazado 193752" d="M837.813,202.594l-2.029,1.171c-.27.155-.489-.01-.489-.369h0a1.166,1.166,0,0,1,.489-.932l2.029-1.171c.269-.156.488.009.488.369h0A1.168,1.168,0,0,1,837.813,202.594Z" transform="translate(-734.668 -141.17)" fill="#173d7a"/>
                          <path id="Trazado_193753" data-name="Trazado 193753" d="M761.169,136.715c-2.861-1.646-7.185-1.819-9.658-.387L716.782,156.44c-.7-.77-2.177-2.395-2.177-2.395l.017,5h0c-.052,1.127.75,2.328,2.365,3.258l72.056,41.468a11.14,11.14,0,0,0,5.2,1.352l-.068-49.409Z" transform="translate(-714.605 -130.219)" fill="#5793ce"/>
                          <path id="Trazado_193754" data-name="Trazado 193754" d="M716.272,150.563l35.223-20.4c2.474-1.432,6.8-1.26,9.658.387L833.21,172.02c2.861,1.647,3.174,4.143.7,5.575l-35.223,20.4c-2.474,1.432-6.8,1.26-9.659-.387l-72.056-41.468C714.113,154.491,713.8,152,716.272,150.563Z" transform="translate(-714.605 -129.195)" fill="#d4ecff"/>
                          <path id="Trazado_193755" data-name="Trazado 193755" d="M798.721,203.357l35.223-20.4a2.732,2.732,0,0,0,1.63-2.8,2.936,2.936,0,0,1-1.657,2.257l-35.223,20.4c-2.474,1.433-6.8,1.26-9.659-.387L716.98,160.957a4.286,4.286,0,0,1-2.331-2.772c-.084,1.145.714,2.371,2.358,3.318l72.056,41.468C791.924,204.617,796.248,204.791,798.721,203.357Z" transform="translate(-714.611 -134.014)" fill="#fff"/>
                          <path id="Trazado_193756" data-name="Trazado 193756" d="M719.612,151.735l33.846-19.6a7.978,7.978,0,0,1,7.179.288L831.669,173.3c2.126,1.224,2.36,3.079.521,4.144l-33.846,19.6a7.978,7.978,0,0,1-7.179-.288l-71.033-40.879C718.007,154.656,717.773,152.8,719.612,151.735Z" transform="translate(-715.231 -129.564)" fill="#173d7a"/>
                        </g>
                        <g id="Grupo_151386" data-name="Grupo 151386" transform="translate(73.063 42.634)">
                          <path id="Trazado_193757" data-name="Trazado 193757" d="M803.76,195l23.883-13.789-1.524-.88-23.883,13.789Z" transform="translate(-802.235 -180.329)" fill="#d4ecff"/>
                          <path id="Trazado_193758" data-name="Trazado 193758" d="M823.691,191.534l12.093-6.982-1.524-.88-12.093,6.982Z" transform="translate(-805.549 -180.885)" fill="#d4ecff"/>
                          <path id="Trazado_193759" data-name="Trazado 193759" d="M816.652,196.538l3.922-2.264-1.524-.88-3.922,2.264Z" transform="translate(-804.378 -182.501)" fill="#dee4f0"/>
                          <path id="Trazado_193760" data-name="Trazado 193760" d="M809.55,200.639l3.922-2.264-1.524-.88-3.922,2.264Z" transform="translate(-803.198 -183.183)" fill="#fff"/>
                          <path id="Trazado_193761" data-name="Trazado 193761" d="M823.528,188.547l9.815-5.667-1.524-.88L822,187.667Z" transform="translate(-805.522 -180.607)" fill="#fff"/>
                          <path id="Trazado_193762" data-name="Trazado 193762" d="M809.159,196.843l9.815-5.667-1.525-.88-9.815,5.667Z" transform="translate(-803.133 -181.986)" fill="#d4ecff"/>
                          <g id="Grupo_151385" data-name="Grupo 151385" transform="translate(2.294 1.505)">
                            <path id="Trazado_193763" data-name="Trazado 193763" d="M818.1,183.374a1.966,1.966,0,0,0,1.778,0,.542.542,0,0,0,0-1.027,1.966,1.966,0,0,0-1.778,0A.542.542,0,0,0,818.1,183.374Z" transform="translate(-807.107 -182.134)" fill="#dee4f0"/>
                            <path id="Trazado_193764" data-name="Trazado 193764" d="M814.918,185.214a1.966,1.966,0,0,0,1.778,0,.542.542,0,0,0,0-1.027,1.966,1.966,0,0,0-1.778,0A.542.542,0,0,0,814.918,185.214Z" transform="translate(-806.577 -182.44)" fill="#fff"/>
                            <path id="Trazado_193765" data-name="Trazado 193765" d="M811.73,187.054a1.966,1.966,0,0,0,1.778,0,.542.542,0,0,0,0-1.027,1.966,1.966,0,0,0-1.778,0A.542.542,0,0,0,811.73,187.054Z" transform="translate(-806.047 -182.746)" fill="#d4ecff"/>
                            <path id="Trazado_193766" data-name="Trazado 193766" d="M808.543,188.894a1.966,1.966,0,0,0,1.778,0,.542.542,0,0,0,0-1.026,1.966,1.966,0,0,0-1.778,0A.542.542,0,0,0,808.543,188.894Z" transform="translate(-805.517 -183.052)" fill="#d2e1f1"/>
                            <path id="Trazado_193767" data-name="Trazado 193767" d="M805.356,190.734a1.966,1.966,0,0,0,1.778,0,.542.542,0,0,0,0-1.026,1.966,1.966,0,0,0-1.778,0A.542.542,0,0,0,805.356,190.734Z" transform="translate(-804.987 -183.358)" fill="#fff"/>
                          </g>
                        </g>
                        <g id="Grupo_151387" data-name="Grupo 151387" transform="translate(15.148 8.632)">
                          <path id="Trazado_193768" data-name="Trazado 193768" d="M741.051,155.326,745.072,153l-1.563-.9-4.021,2.322Z" transform="translate(-733.889 -141.634)" fill="#d2e1f1"/>
                          <path id="Trazado_193769" data-name="Trazado 193769" d="M734.335,159.2l4.021-2.322-1.563-.9-4.021,2.322Z" transform="translate(-732.772 -142.279)" fill="#fff"/>
                          <path id="Trazado_193770" data-name="Trazado 193770" d="M762.594,142.771l4.021-2.322-1.563-.9-4.021,2.322Z" transform="translate(-737.47 -139.547)" fill="#fff"/>
                          <path id="Trazado_193771" data-name="Trazado 193771" d="M742.126,157.951l5.6-3.233-1.563-.9-5.6,3.233Z" transform="translate(-734.068 -141.919)" fill="#fff"/>
                          <path id="Trazado_193772" data-name="Trazado 193772" d="M737.3,161.1l2.457-1.419-1.563-.9-2.457,1.419Z" transform="translate(-733.266 -142.744)" fill="#d4ecff"/>
                        </g>
                      </g>
                      <g id="Grupo_151389" data-name="Grupo 151389" transform="translate(44.052 245.522)">
                        <path id="Trazado_193773" data-name="Trazado 193773" d="M786.714,167.671l4.6-2.686a1.772,1.772,0,0,1,1.594.058l4.4,2.511c.474.27.526.681.119.92l-4.6,2.686a1.772,1.772,0,0,1-1.594-.058l-4.4-2.511C786.359,168.32,786.307,167.909,786.714,167.671Z" transform="translate(-770.599 -160.361)" fill="#fff"/>
                        <path id="Trazado_193774" data-name="Trazado 193774" d="M777.085,173.292l4.6-2.686a1.772,1.772,0,0,1,1.594.058l4.4,2.511c.473.27.526.681.118.92l-4.6,2.686a1.772,1.772,0,0,1-1.594-.058l-4.4-2.511C776.731,173.941,776.678,173.53,777.085,173.292Z" transform="translate(-768.998 -161.295)" fill="#b3e0ff"/>
                        <path id="Trazado_193775" data-name="Trazado 193775" d="M777.342,162.321l4.6-2.687a1.772,1.772,0,0,1,1.594.058l4.4,2.511c.473.27.526.682.118.92l-4.6,2.687a1.773,1.773,0,0,1-1.593-.058l-4.4-2.511C776.988,162.97,776.935,162.558,777.342,162.321Z" transform="translate(-769.041 -159.471)" fill="#fff"/>
                        <path id="Trazado_193776" data-name="Trazado 193776" d="M767.714,167.942l4.6-2.687a1.772,1.772,0,0,1,1.594.058l4.4,2.511c.474.27.527.682.119.92l-4.6,2.687a1.775,1.775,0,0,1-1.594-.058l-4.4-2.511C767.36,168.591,767.307,168.179,767.714,167.942Z" transform="translate(-767.44 -160.405)" fill="#396caa"/>
                      </g>
                      <g id="Grupo_151392" data-name="Grupo 151392" transform="translate(35.426 177.969)">
                        <g id="Grupo_151390" data-name="Grupo 151390" transform="translate(0 0)">
                          <path id="Trazado_193777" data-name="Trazado 193777" d="M776.649,109.325l22.664-13.111a1.162,1.162,0,0,0,.667-.969l.012.009,0-5.963-1.261,1.057L784.42,82.1a4.37,4.37,0,0,0-3.931-.159L758.826,94.476l-1.678-.967V99.5l.009-.008a1.619,1.619,0,0,0,.953,1.261l14.608,8.418A4.37,4.37,0,0,0,776.649,109.325Z" transform="translate(-757.103 -78.965)" fill="#5793ce"/>
                          <path id="Trazado_193778" data-name="Trazado 193778" d="M802.256,90.349,787.949,82.1a4.37,4.37,0,0,0-3.931-.159l-5.645,3.265v24.5a3.549,3.549,0,0,0,1.805-.389l22.664-13.111a1.162,1.162,0,0,0,.667-.969l.012.009,0-5.963Z" transform="translate(-760.631 -78.965)" fill="#396caa"/>
                          <path id="Trazado_193779" data-name="Trazado 193779" d="M757.825,91.954l22.663-13.111a4.37,4.37,0,0,1,3.931.16l14.609,8.418c1.164.671,1.292,1.687.284,2.27L776.648,102.8a4.37,4.37,0,0,1-3.931-.16l-14.609-8.418C756.944,93.553,756.817,92.537,757.825,91.954Z" transform="translate(-757.102 -78.45)" fill="#d4ecff"/>
                          <path id="Trazado_193780" data-name="Trazado 193780" d="M776.587,105.532l22.663-13.111a1.086,1.086,0,0,0,.639-1.22,1.364,1.364,0,0,1-.585.609L776.64,104.921a4.367,4.367,0,0,1-3.931-.16L758.1,96.344a1.8,1.8,0,0,1-.922-1.05c-.245.544.048,1.186.87,1.66l14.609,8.419A4.37,4.37,0,0,0,776.587,105.532Z" transform="translate(-757.094 -80.569)" fill="#fff"/>
                        </g>
                        <g id="Grupo_151391" data-name="Grupo 151391" transform="translate(14.714 7.768)">
                          <path id="Trazado_193781" data-name="Trazado 193781" d="M786.488,89.9a.932.932,0,0,1,0-1.767,3.382,3.382,0,0,1,3.06,0,.933.933,0,0,1,0,1.767A3.382,3.382,0,0,1,786.488,89.9Z" transform="translate(-776.588 -87.767)" fill="#fff"/>
                          <path id="Trazado_193782" data-name="Trazado 193782" d="M780.932,93.115a.933.933,0,0,1,0-1.767,3.382,3.382,0,0,1,3.06,0,.933.933,0,0,1,0,1.767A3.382,3.382,0,0,1,780.932,93.115Z" transform="translate(-775.665 -88.301)" fill="#173d7a"/>
                          <path id="Trazado_193783" data-name="Trazado 193783" d="M775.376,96.329a.933.933,0,0,1,0-1.767,3.382,3.382,0,0,1,3.06,0,.933.933,0,0,1,0,1.767A3.382,3.382,0,0,1,775.376,96.329Z" transform="translate(-774.741 -88.835)" fill="#396caa"/>
                        </g>
                      </g>
                    </g>
                  </g>
                </g>
              </g>
            </g>
          </g>
        </g>
      </g>
    </g>
  </g>
</svg>
