<svg xmlns="http://www.w3.org/2000/svg" width="86" height="86" viewBox="0 0 86 86">
  <g id="Grupo_1076373" data-name="Grupo 1076373" transform="translate(-500 -5830)">
    <circle id="Elipse_4868" data-name="Elipse 4868" cx="43" cy="43" r="43" transform="translate(500 5830)" fill="#ff8e7c"/>
    <g id="TZUFsd.tif" transform="translate(-3076.888 9312.591)">
      <g id="Grupo_151305" data-name="Grupo 151305" transform="translate(3592.572 -3466.763)">
        <path id="Trazado_193248" data-name="Trazado 193248" d="M3597.9-3447.855a9.642,9.642,0,0,1-1.282-.1,3.416,3.416,0,0,1-2.393-4.8c1.967-4.36,3.964-8.707,5.925-13.068a1.428,1.428,0,0,1,1.482-.936q17.818.017,35.637,0a1.479,1.479,0,0,1,1.528.982c1.951,4.343,3.937,8.669,5.893,13.009a3.411,3.411,0,0,1-3.073,4.878c-.187,0-.373.019-.621.031.534,2.228,1.055,4.42,1.586,6.61q1.8,7.415,3.606,14.829a3.336,3.336,0,0,1,.059.772c.005,1.606-.03,3.213.011,4.818a3.706,3.706,0,0,1-1.909,3.4,6.856,6.856,0,0,1-3.771,1.012q-14.312-.007-28.623,0-6.837,0-13.674,0a6.733,6.733,0,0,1-3.761-1.047,3.588,3.588,0,0,1-1.849-3.358.4.4,0,0,0,0-.071c-.471-4.542.857-8.82,1.91-13.14q1.649-6.761,3.277-13.526A2.935,2.935,0,0,0,3597.9-3447.855Zm43.9-5.58a1.357,1.357,0,0,0-.053-.234c-1.57-3.478-3.135-6.958-4.733-10.422a.9.9,0,0,0-.7-.374q-16.855-.027-33.71-.025a.728.728,0,0,0-.782.513c-1.013,2.282-2.052,4.553-3.083,6.828l-1.683,3.715Zm-46.768,28.675c-.044.1-.076.145-.076.187-.008,1.086.032,2.175-.029,3.257-.07,1.248.208,1.78,1.686,2.322a5.363,5.363,0,0,0,1.8.3q21.072.023,42.144-.017a6.9,6.9,0,0,0,2.493-.648,1.542,1.542,0,0,0,.869-1.019c.1-1.446.041-2.9.041-4.338h-16.91c-.015.2-.028.334-.035.474a3.429,3.429,0,0,1-3.719,3.558c-2.644,0-5.289.012-7.933,0a3.4,3.4,0,0,1-3.447-3.247c-.02-.271-.04-.541-.061-.822Zm42.294-23.1a2.982,2.982,0,0,0,.024.438c1.146,5.463,2.271,10.931,3.462,16.384.327,1.5-.235,2.032-1.594,2.029q-19.87-.047-39.74-.02c-1.232,0-1.661-.519-1.406-1.737q1.226-5.843,2.472-11.682c.38-1.791.76-3.582,1.149-5.415h-1.4l-5.037,20.815h.756q8.394,0,16.789,0c.964,0,1.38.413,1.4,1.366.008.5-.007.992.007,1.488a1.077,1.077,0,0,0,1.116,1.195q4.144.036,8.287,0a1.08,1.08,0,0,0,1.108-1.2c.011-.425,0-.85,0-1.275,0-1.193.375-1.571,1.55-1.571h17.394l-5.038-20.812Zm-4.136,0a5.215,5.215,0,0,0,.047.588c.255,1.294.518,2.586.78,3.879a1.569,1.569,0,0,1-.412,1.608c-3.081,3-6.128,6.026-9.205,9.026a1.479,1.479,0,0,1-.9.438q-9.775.037-19.55.014a1.126,1.126,0,0,1-1.167-1.412q.935-5.5,1.884-11.007c.176-1.033.342-2.067.516-3.123h-1.141c-1.169,5.516-2.33,10.992-3.5,16.514h37.835l-3.475-16.527Zm-25.66-.009c-.754,4.42-1.506,8.824-2.262,13.254H3622.3c0-2.669,0-5.286,0-7.9,0-1.008.387-1.4,1.406-1.4h7.853c-.269-1.366-.523-2.65-.78-3.952Zm-11.3-3.2a1.312,1.312,0,0,0,1.488.913q16.857-.007,33.714,0,4.923,0,9.845,0c.89,0,1.181-.207,1.3-.909Zm28.4,14.855,5.189-5.382h-5.189Z" transform="translate(-3592.572 3466.763)" fill="#12263f"/>
        <path id="Trazado_193249" data-name="Trazado 193249" d="M3891.192-3155.526c-.706,0-1.412.018-2.117,0a1.171,1.171,0,0,1-1.268-1.14,1.15,1.15,0,0,1,1.237-1.171c1.458-.031,2.918-.032,4.376.005a1.111,1.111,0,0,1,1.184,1.205,1.138,1.138,0,0,1-1.224,1.1C3892.651-3155.507,3891.921-3155.526,3891.192-3155.526Z" transform="translate(-3845.89 3201.72)" fill="#12263f"/>
        <path id="Trazado_193250" data-name="Trazado 193250" d="M3867.219-3158.483a1.44,1.44,0,0,1-1.485,1.453,1.488,1.488,0,0,1-1.437-1.451,1.5,1.5,0,0,1,1.47-1.5A1.464,1.464,0,0,1,3867.219-3158.483Z" transform="translate(-3825.718 3203.535)" fill="#12263f"/>
        <path id="Trazado_193251" data-name="Trazado 193251" d="M3720.948-3325.278q-4.177,0-8.353,0c-.28,0-.638.041-.821-.108a2.2,2.2,0,0,1-.744-.99.906.906,0,0,1,.671-1.1,2.972,2.972,0,0,1,.972-.122q8.282-.01,16.565,0c1.122,0,1.7.381,1.726,1.134.027.775-.579,1.193-1.733,1.194Z" transform="translate(-3694.182 3347.363)" fill="#12263f"/>
        <path id="Trazado_193252" data-name="Trazado 193252" d="M3699.26-3270.383h6.084c.141,0,.283,0,.424.007a1.175,1.175,0,0,1,1.2,1.137,1.185,1.185,0,0,1-1.259,1.159c-1.391.017-2.782,0-4.174,0q-4.174,0-8.348,0a2.779,2.779,0,0,1-.832-.1,1.03,1.03,0,0,1-.744-1.148,1.006,1.006,0,0,1,.926-1c.584-.058,1.176-.05,1.765-.052C3695.959-3270.387,3697.61-3270.383,3699.26-3270.383Z" transform="translate(-3677.551 3298.265)" fill="#12263f"/>
        <path id="Trazado_193253" data-name="Trazado 193253" d="M3708.322-3298.943c1.747,0,3.494,0,5.24,0,.9,0,1.376.42,1.358,1.163-.017.707-.488,1.1-1.348,1.1q-5.276.006-10.551,0c-.825,0-1.332-.438-1.335-1.127s.5-1.133,1.325-1.137C3704.781-3298.948,3706.552-3298.943,3708.322-3298.943Z" transform="translate(-3686.194 3322.771)" fill="#12263f"/>
      </g>
    </g>
  </g>
</svg>
