<svg xmlns="http://www.w3.org/2000/svg" width="400" height="377" viewBox="0 0 400 377">
  <g id="Grupo_1077931" data-name="Grupo 1077931" transform="translate(-1020 -16404.498)">
    <g id="Trazado_826601" data-name="Trazado 826601" transform="translate(1020 16404.498)" fill="#fff">
      <path d="M 399 376 L 1 376 L 1 20 C 1 17.43454933166504 1.50220000743866 14.9463996887207 2.492700099945068 12.60464954376221 C 3.449599981307983 10.34224987030029 4.819699764251709 8.310199737548828 6.564949989318848 6.564949989318848 C 8.310199737548828 4.819699764251709 10.34224987030029 3.449599981307983 12.60464954376221 2.492700099945068 C 14.9463996887207 1.50220000743866 17.43454933166504 1 20 1 L 399 1 L 399 376 Z" stroke="none"/>
      <path d="M 20 2 C 15.19204711914062 2 10.67184448242188 3.872314453125 7.2720947265625 7.2720947265625 C 3.872314453125 10.67184448242188 2 15.19204711914062 2 20 L 2 375 L 398 375 L 398 2 L 20 2 M 20 0 L 400 0 L 400 377 L 0 377 L 0 20 C 0 8.954315185546875 8.954315185546875 0 20 0 Z" stroke="none" fill="#ffb476"/>
    </g>
    <g id="Grupo_151762" data-name="Grupo 151762" transform="translate(1072 16442.773)">
      <path id="Trazado_194213" data-name="Trazado 194213" d="M909.068-1499.8c0-6.376-.015-12.27.006-18.162.015-4.49,2.36-6.538,7.565-6.549q17.574-.035,35.147,0c5.357.009,7.741,2.067,7.762,6.682.026,5.886.006,11.77.006,17.842h16.788c.05-.9.144-1.841.148-2.783.015-5.186-.052-10.372.028-15.557.062-3.984,2.542-6.154,7.1-6.173q18.191-.07,36.38,0c4.553.02,6.914,2.2,6.944,6.243.038,5.185,0,10.372.015,15.557,0,.87.082,1.741.132,2.751h16.966v-2.552c0-5.365-.046-10.729.02-16.094.045-3.686,2.46-5.875,6.71-5.9q18.5-.1,37,0c4.284.026,6.664,2.318,6.713,6.227.064,5.1.015,10.193.015,15.289v3.174h16.942v-6.831q0-5.23,0-10.461c.01-5.57,2.114-7.423,8.466-7.426q16.956-.01,33.913,0c5.98.005,8.1,1.887,8.1,7.159,0,5.709,0,11.419,0,17.557,4.467,0,8.734-.006,13,0,6.5.013,8.543,1.768,8.544,7.323,0,30.132,0,27,0,57.132,0,5.392-2.1,7.206-8.349,7.206q-139.663,0-279.325,0c-6.18,0-8.281-1.848-8.281-7.272,0-30.131,0-27,0-57.132,0-5.4,2.106-7.24,8.316-7.256C900.13-1499.807,904.422-1499.8,909.068-1499.8Zm261.479,60.445v-49.17H900.5v49.17Zm-181.079-73.914v13.256h24.71v-13.256Zm67.33,13.25h24.762V-1513.2H1056.8Zm-110.209.092V-1513.2H922v13.278Zm177.822-13.362V-1500h24.629v-13.286Z" transform="translate(-887.522 1524.544)" fill="#ffb476"/>
      <path id="Trazado_194214" data-name="Trazado 194214" d="M1181.981-1408.231H908.561V-1457.4h273.42Z" transform="translate(-897.274 1493.421)" fill="#fff"/>
      <path id="Trazado_194215" data-name="Trazado 194215" d="M1052.846-1503.524h24.63v13.256h-24.63Z" transform="translate(-951.314 1514.8)" fill="#fff"/>
      <path id="Trazado_194216" data-name="Trazado 194216" d="M1162.034-1490.219V-1503.4h24.994v13.185Z" transform="translate(-992.706 1514.745)" fill="#fff"/>
      <path id="Trazado_194217" data-name="Trazado 194217" d="M972.292-1490.127H943.429v-13.279h28.864Z" transform="translate(-913.436 1514.746)" fill="#fff"/>
      <path id="Trazado_194218" data-name="Trazado 194218" d="M1271.68-1503.561h29.183v13.286H1271.68Z" transform="translate(-1034.869 1514.818)" fill="#fff"/>
    </g>
    <g id="Grupo_151762-2" data-name="Grupo 151762" transform="translate(1072 16650.996)">
      <path id="Trazado_194213-2" data-name="Trazado 194213" d="M909.068-1499.8c0-6.376-.015-12.27.006-18.162.015-4.49,2.36-6.538,7.565-6.549q17.574-.035,35.147,0c5.357.009,7.741,2.067,7.762,6.682.026,5.886.006,11.77.006,17.842h16.788c.05-.9.144-1.841.148-2.783.015-5.186-.052-10.372.028-15.557.062-3.984,2.542-6.154,7.1-6.173q18.191-.07,36.38,0c4.553.02,6.914,2.2,6.944,6.243.038,5.185,0,10.372.015,15.557,0,.87.082,1.741.132,2.751h16.966v-2.552c0-5.365-.046-10.729.02-16.094.045-3.686,2.46-5.875,6.71-5.9q18.5-.1,37,0c4.284.026,6.664,2.318,6.713,6.227.064,5.1.015,10.193.015,15.289v3.174h16.942v-6.831q0-5.23,0-10.461c.01-5.57,2.114-7.423,8.466-7.426q16.956-.01,33.913,0c5.98.005,8.1,1.887,8.1,7.159,0,5.709,0,11.419,0,17.557,4.467,0,8.734-.006,13,0,6.5.013,8.543,1.768,8.544,7.323,0,30.132,0,27,0,57.132,0,5.392-2.1,7.206-8.349,7.206q-139.663,0-279.325,0c-6.18,0-8.281-1.848-8.281-7.272,0-30.131,0-27,0-57.132,0-5.4,2.106-7.24,8.316-7.256C900.13-1499.807,904.422-1499.8,909.068-1499.8Zm261.479,60.445v-49.17H900.5v49.17Zm-181.079-73.914v13.256h24.71v-13.256Zm67.33,13.25h24.762V-1513.2H1056.8Zm-110.209.092V-1513.2H922v13.278Zm177.822-13.362V-1500h24.629v-13.286Z" transform="translate(-887.522 1524.544)" fill="#12263f"/>
      <path id="Trazado_194214-2" data-name="Trazado 194214" d="M1181.981-1408.231H908.561V-1457.4h273.42Z" transform="translate(-897.274 1493.421)" fill="#fff"/>
      <path id="Trazado_194215-2" data-name="Trazado 194215" d="M1052.846-1503.524h24.63v13.256h-24.63Z" transform="translate(-951.314 1514.8)" fill="#fff"/>
      <path id="Trazado_194216-2" data-name="Trazado 194216" d="M1162.034-1490.219V-1503.4h24.994v13.185Z" transform="translate(-992.706 1514.745)" fill="#fff"/>
      <path id="Trazado_194217-2" data-name="Trazado 194217" d="M972.292-1490.127H943.429v-13.279h28.864Z" transform="translate(-913.436 1514.746)" fill="#fff"/>
      <path id="Trazado_194218-2" data-name="Trazado 194218" d="M1271.68-1503.561h29.183v13.286H1271.68Z" transform="translate(-1034.869 1514.818)" fill="#fff"/>
    </g>
    <g id="Grupo_151762-3" data-name="Grupo 151762" transform="translate(1072 16546.883)">
      <path id="Trazado_194213-3" data-name="Trazado 194213" d="M909.068-1499.8c0-6.376-.015-12.27.006-18.162.015-4.49,2.36-6.538,7.565-6.549q17.574-.035,35.147,0c5.357.009,7.741,2.067,7.762,6.682.026,5.886.006,11.77.006,17.842h16.788c.05-.9.144-1.841.148-2.783.015-5.186-.052-10.372.028-15.557.062-3.984,2.542-6.154,7.1-6.173q18.191-.07,36.38,0c4.553.02,6.914,2.2,6.944,6.243.038,5.185,0,10.372.015,15.557,0,.87.082,1.741.132,2.751h16.966v-2.552c0-5.365-.046-10.729.02-16.094.045-3.686,2.46-5.875,6.71-5.9q18.5-.1,37,0c4.284.026,6.664,2.318,6.713,6.227.064,5.1.015,10.193.015,15.289v3.174h16.942v-6.831q0-5.23,0-10.461c.01-5.57,2.114-7.423,8.466-7.426q16.956-.01,33.913,0c5.98.005,8.1,1.887,8.1,7.159,0,5.709,0,11.419,0,17.557,4.467,0,8.734-.006,13,0,6.5.013,8.543,1.768,8.544,7.323,0,30.132,0,27,0,57.132,0,5.392-2.1,7.206-8.349,7.206q-139.663,0-279.325,0c-6.18,0-8.281-1.848-8.281-7.272,0-30.131,0-27,0-57.132,0-5.4,2.106-7.24,8.316-7.256C900.13-1499.807,904.422-1499.8,909.068-1499.8Zm261.479,60.445v-49.17H900.5v49.17Zm-181.079-73.914v13.256h24.71v-13.256Zm67.33,13.25h24.762V-1513.2H1056.8Zm-110.209.092V-1513.2H922v13.278Zm177.822-13.362V-1500h24.629v-13.286Z" transform="translate(-887.522 1524.544)" fill="#b0c0d2"/>
      <path id="Trazado_194214-3" data-name="Trazado 194214" d="M1181.981-1408.231H908.561V-1457.4h273.42Z" transform="translate(-897.274 1493.421)" fill="#fff"/>
      <path id="Trazado_194215-3" data-name="Trazado 194215" d="M1052.846-1503.524h24.63v13.256h-24.63Z" transform="translate(-951.314 1514.8)" fill="#fff"/>
      <path id="Trazado_194216-3" data-name="Trazado 194216" d="M1162.034-1490.219V-1503.4h24.994v13.185Z" transform="translate(-992.706 1514.745)" fill="#fff"/>
      <path id="Trazado_194217-3" data-name="Trazado 194217" d="M972.292-1490.127H943.429v-13.279h28.864Z" transform="translate(-913.436 1514.746)" fill="#fff"/>
      <path id="Trazado_194218-3" data-name="Trazado 194218" d="M1271.68-1503.561h29.183v13.286H1271.68Z" transform="translate(-1034.869 1514.818)" fill="#fff"/>
    </g>
    <path id="Trazado_826602" data-name="Trazado 826602" d="M7.049-3.463Q7.242-4.456,5.977-5L4.535-5.6Q1.5-6.961,1.652-9.308a3.274,3.274,0,0,1,.738-1.912,4.385,4.385,0,0,1,1.872-1.305,6.889,6.889,0,0,1,2.61-.448,4.439,4.439,0,0,1,3.054,1.107,3.679,3.679,0,0,1,1.138,2.874H8.077a1.79,1.79,0,0,0-.312-1.182,1.351,1.351,0,0,0-1.112-.461,2.33,2.33,0,0,0-1.336.352,1.426,1.426,0,0,0-.686.993q-.167.879,1.305,1.441a14.352,14.352,0,0,1,2.14.967,3.534,3.534,0,0,1,1.969,3.393,3.474,3.474,0,0,1-.712,1.942A4.115,4.115,0,0,1,7.554-.255,6.576,6.576,0,0,1,5,.185,6.164,6.164,0,0,1,3.076-.141a4.235,4.235,0,0,1-1.521-.9,3.9,3.9,0,0,1-1.23-3.12l3.015.009a2.064,2.064,0,0,0,.378,1.49,1.816,1.816,0,0,0,1.45.505A2.176,2.176,0,0,0,6.429-2.5,1.441,1.441,0,0,0,7.049-3.463Zm9.4-6.223a3.994,3.994,0,0,1,2.206.637,3.59,3.59,0,0,1,1.367,1.727,5.33,5.33,0,0,1,.312,2.461l-.018.193a5.636,5.636,0,0,1-1.626,3.533,4.575,4.575,0,0,1-3.41,1.31A3.977,3.977,0,0,1,13.1-.453a3.612,3.612,0,0,1-1.367-1.709,5.179,5.179,0,0,1-.321-2.443,5.863,5.863,0,0,1,1.6-3.727A4.547,4.547,0,0,1,16.453-9.686ZM14.3-4.6l-.026.518q-.123,1.957,1.2,1.992,1.705.053,1.978-2.764l.035-.8a2.155,2.155,0,0,0-.294-1.259,1.073,1.073,0,0,0-.918-.487,1.512,1.512,0,0,0-1.314.654A4.278,4.278,0,0,0,14.3-4.6ZM21.437,0l1.292-7.453H21.393l.352-2.057,1.336-.009.114-.835a3.881,3.881,0,0,1,1.213-2.417,3.937,3.937,0,0,1,2.769-.932,8.524,8.524,0,0,1,1.433.194l-.22,2.2a2.8,2.8,0,0,0-.686-.105,1.8,1.8,0,0,0-1.059.293,1.311,1.311,0,0,0-.532.844l-.132.77h1.8l-.352,2.057h-1.8L24.337,0ZM32.643-11.874,32.229-9.51H33.75l-.36,2.057H31.869l-.738,4.368a1.164,1.164,0,0,0,.057.677q.119.229.593.246a6.873,6.873,0,0,0,.756-.044L32.326-.062a4.673,4.673,0,0,1-1.556.22,2.563,2.563,0,0,1-2.013-.791,2.7,2.7,0,0,1-.545-2.1l.773-4.72H27.809L28.16-9.51h1.178l.413-2.364Zm9.272,7.963,1.907-5.6h2.83L42.829,0H40.395L39.85-5.607,37.345,0H34.893l-.527-9.51h2.716l-.088,5.66,2.435-5.66H41.44ZM51.425,0A2.578,2.578,0,0,1,51.3-.861,2.933,2.933,0,0,1,48.973.176,2.866,2.866,0,0,1,46.916-.65a2.483,2.483,0,0,1-.765-1.96,2.79,2.79,0,0,1,1.292-2.377,6.091,6.091,0,0,1,3.41-.831l.967.018.105-.536.035-.466a.755.755,0,0,0-.8-.826,1.111,1.111,0,0,0-1.169,1.046l-2.9.009a2.754,2.754,0,0,1,.624-1.666,3.7,3.7,0,0,1,1.578-1.09,5.512,5.512,0,0,1,2.123-.356,4.251,4.251,0,0,1,1.894.453,2.82,2.82,0,0,1,1.217,1.187,3.031,3.031,0,0,1,.308,1.753l-.712,4.474-.044.545a2.4,2.4,0,0,0,.167,1.107L54.237,0ZM49.772-1.916A1.865,1.865,0,0,0,51.328-2.7l.29-1.529-.747-.009a1.969,1.969,0,0,0-1.2.409,1.55,1.55,0,0,0-.589,1.068.778.778,0,0,0,.136.593A.7.7,0,0,0,49.772-1.916ZM62.279-6.829a8.273,8.273,0,0,0-.9-.088,2.233,2.233,0,0,0-1.986.9L58.324,0H55.433l1.652-9.51,2.7-.009-.22,1.248a2.64,2.64,0,0,1,2.2-1.441,4.144,4.144,0,0,1,.9.123Zm4.57,7a4.421,4.421,0,0,1-2.272-.6A3.793,3.793,0,0,1,63.07-2.079a4.44,4.44,0,0,1-.4-2.333l.026-.246a5.829,5.829,0,0,1,1.63-3.713,4.51,4.51,0,0,1,3.415-1.314,3.678,3.678,0,0,1,2.092.621A3.468,3.468,0,0,1,71.1-7.4a5.1,5.1,0,0,1,.264,2.381L71.2-3.814H65.54A1.854,1.854,0,0,0,65.962-2.6a1.549,1.549,0,0,0,1.178.492A2.993,2.993,0,0,0,69.4-3.076l1.213,1.6a3.578,3.578,0,0,1-1.5,1.2,5.263,5.263,0,0,1-2.1.451Zm.7-7.576a1.487,1.487,0,0,0-1.068.385A3.229,3.229,0,0,0,65.7-5.669H68.59l.053-.254A1.929,1.929,0,0,0,68.66-6.5,1.017,1.017,0,0,0,67.553-7.4Zm9.22,2.575a5.809,5.809,0,0,1,.976-3.56,3.211,3.211,0,0,1,2.725-1.3,2.731,2.731,0,0,1,2.145,1V-13.5h2.971V0H82.925l-.149-1.02a2.8,2.8,0,0,1-2.32,1.2,3.205,3.205,0,0,1-2.689-1.3A5.993,5.993,0,0,1,76.772-4.825Zm2.962.185q0,2.531,1.477,2.531a1.458,1.458,0,0,0,1.406-.826V-6.557A1.419,1.419,0,0,0,81.229-7.4q-1.371,0-1.485,2.215ZM91.872.176A4.889,4.889,0,0,1,88.33-1.129a4.507,4.507,0,0,1-1.354-3.4v-.246a5.84,5.84,0,0,1,.541-2.575,3.955,3.955,0,0,1,1.578-1.727,4.763,4.763,0,0,1,2.461-.611A4.117,4.117,0,0,1,94.72-8.442a4.887,4.887,0,0,1,1.16,3.467v1.151H89.991a2.135,2.135,0,0,0,.694,1.257,2.066,2.066,0,0,0,1.389.457,2.662,2.662,0,0,0,2.2-.984l1.354,1.6A3.784,3.784,0,0,1,94.056-.277,5.3,5.3,0,0,1,91.872.176ZM91.538-7.4q-1.3,0-1.547,1.723h2.988v-.229a1.467,1.467,0,0,0-.36-1.1A1.434,1.434,0,0,0,91.538-7.4ZM106.91,0a3.344,3.344,0,0,1-.281-.853A2.754,2.754,0,0,1,104.344.176a3.374,3.374,0,0,1-2.285-.813,2.588,2.588,0,0,1-.94-2.043,2.66,2.66,0,0,1,1.143-2.338,5.821,5.821,0,0,1,3.322-.791h.914v-.5q0-1.316-1.134-1.316a.927.927,0,0,0-1.055,1.042h-2.962a2.655,2.655,0,0,1,1.173-2.239,4.931,4.931,0,0,1,2.993-.86,4.323,4.323,0,0,1,2.874.888,3.086,3.086,0,0,1,1.081,2.435v4.21a4.311,4.311,0,0,0,.4,2V0Zm-1.854-1.934a1.652,1.652,0,0,0,.918-.237,1.487,1.487,0,0,0,.523-.536V-4.228h-.861q-1.547,0-1.547,1.389a.848.848,0,0,0,.272.655A.986.986,0,0,0,105.056-1.934Zm14.88-2.751a5.735,5.735,0,0,1-1,3.538A3.2,3.2,0,0,1,116.244.176a2.742,2.742,0,0,1-2.153-.958V3.656h-2.962V-9.51H113.9l.088.879a2.742,2.742,0,0,1,2.241-1.055,3.224,3.224,0,0,1,2.733,1.3,5.805,5.805,0,0,1,.976,3.564Zm-2.962-.185q0-2.531-1.477-2.531a1.394,1.394,0,0,0-1.406.756V-2.9a1.439,1.439,0,0,0,1.424.791q1.415,0,1.459-2.443ZM124.365,0h-2.971V-13.5h2.971Zm4.948,0h-2.971V-9.51h2.971Zm-3.146-11.971a1.334,1.334,0,0,1,.457-1.043,1.718,1.718,0,0,1,1.187-.407,1.718,1.718,0,0,1,1.187.407,1.334,1.334,0,0,1,.457,1.043A1.334,1.334,0,0,1,129-10.927a1.718,1.718,0,0,1-1.187.407,1.718,1.718,0,0,1-1.187-.407A1.334,1.334,0,0,1,126.167-11.971Zm8.991,9.861a1.317,1.317,0,0,0,.967-.338,1.241,1.241,0,0,0,.334-.945h2.777a3.288,3.288,0,0,1-1.121,2.566,4.168,4.168,0,0,1-2.887,1,4.22,4.22,0,0,1-3.27-1.3,5.125,5.125,0,0,1-1.2-3.6v-.123A5.792,5.792,0,0,1,131.3-7.4a3.872,3.872,0,0,1,1.534-1.7,4.573,4.573,0,0,1,2.373-.593,4.116,4.116,0,0,1,2.944,1.028,3.647,3.647,0,0,1,1.09,2.786h-2.777A1.626,1.626,0,0,0,136.1-7a1.244,1.244,0,0,0-.967-.4q-1.151,0-1.345,1.468a10.357,10.357,0,0,0-.062,1.283,4.068,4.068,0,0,0,.343,1.986A1.187,1.187,0,0,0,135.158-2.109ZM145.846,0a3.344,3.344,0,0,1-.281-.853A2.754,2.754,0,0,1,143.279.176a3.374,3.374,0,0,1-2.285-.813,2.588,2.588,0,0,1-.94-2.043A2.66,2.66,0,0,1,141.2-5.019a5.821,5.821,0,0,1,3.322-.791h.914v-.5q0-1.316-1.134-1.316a.927.927,0,0,0-1.055,1.042h-2.962a2.655,2.655,0,0,1,1.173-2.239,4.931,4.931,0,0,1,2.993-.86,4.323,4.323,0,0,1,2.874.888A3.086,3.086,0,0,1,148.4-6.363v4.21a4.311,4.311,0,0,0,.4,2V0Zm-1.854-1.934a1.652,1.652,0,0,0,.918-.237,1.487,1.487,0,0,0,.523-.536V-4.228h-.861q-1.547,0-1.547,1.389a.848.848,0,0,0,.272.655A.986.986,0,0,0,143.991-1.934Zm10.072-.176a1.317,1.317,0,0,0,.967-.338,1.241,1.241,0,0,0,.334-.945h2.777a3.288,3.288,0,0,1-1.121,2.566,4.168,4.168,0,0,1-2.887,1,4.22,4.22,0,0,1-3.27-1.3,5.125,5.125,0,0,1-1.2-3.6v-.123A5.792,5.792,0,0,1,150.2-7.4a3.872,3.872,0,0,1,1.534-1.7,4.573,4.573,0,0,1,2.373-.593,4.116,4.116,0,0,1,2.944,1.028,3.647,3.647,0,0,1,1.09,2.786h-2.777A1.626,1.626,0,0,0,155-7a1.244,1.244,0,0,0-.967-.4q-1.151,0-1.345,1.468a10.357,10.357,0,0,0-.062,1.283,4.068,4.068,0,0,0,.343,1.986A1.187,1.187,0,0,0,154.063-2.109ZM162.519,0h-2.971V-9.51h2.971Zm-3.146-11.971a1.334,1.334,0,0,1,.457-1.043,1.718,1.718,0,0,1,1.187-.407,1.718,1.718,0,0,1,1.187.407,1.334,1.334,0,0,1,.457,1.043,1.334,1.334,0,0,1-.457,1.043,1.718,1.718,0,0,1-1.187.407,1.718,1.718,0,0,1-1.187-.407A1.334,1.334,0,0,1,159.372-11.971Zm4.6,7.128a5.613,5.613,0,0,1,.554-2.536,3.96,3.96,0,0,1,1.591-1.709,4.791,4.791,0,0,1,2.435-.6,4.373,4.373,0,0,1,3.366,1.323,5.076,5.076,0,0,1,1.23,3.6v.105a4.925,4.925,0,0,1-1.235,3.529A4.384,4.384,0,0,1,168.565.176,4.434,4.434,0,0,1,165.3-1.042a4.761,4.761,0,0,1-1.327-3.3Zm2.962.185a3.538,3.538,0,0,0,.413,1.934,1.376,1.376,0,0,0,1.222.615q1.582,0,1.617-2.435v-.3q0-2.558-1.635-2.558-1.485,0-1.608,2.206Zm2.021-8.842h3.129l-2.443,2.76-2.417,0Zm8.218,3.99.1,1.116a3.225,3.225,0,0,1,2.716-1.292A2.713,2.713,0,0,1,182.2-8.8a4.226,4.226,0,0,1,.76,2.672V0h-2.971V-6a1.6,1.6,0,0,0-.29-1.059,1.342,1.342,0,0,0-1.055-.338,1.413,1.413,0,0,0-1.292.686V0h-2.962V-9.51Z" transform="translate(1127 16508.5)" fill="#12263f"/>
    <path id="Trazado_826603" data-name="Trazado 826603" d="M4.254,0H1.178V-12.8H4.254ZM8.982-9.51l.1,1.116a3.225,3.225,0,0,1,2.716-1.292,2.713,2.713,0,0,1,2.219.888,4.226,4.226,0,0,1,.76,2.672V0H11.8V-6a1.6,1.6,0,0,0-.29-1.059A1.342,1.342,0,0,0,10.459-7.4a1.413,1.413,0,0,0-1.292.686V0H6.205V-9.51ZM17.068,0V-7.453h-1.38V-9.51h1.38v-.756a3.286,3.286,0,0,1,.958-2.522,3.785,3.785,0,0,1,2.689-.9A5.89,5.89,0,0,1,22.1-13.5l.009,2.18a2.706,2.706,0,0,0-.729-.079q-1.345,0-1.345,1.16v.729h1.854v2.057H20.039V0ZM28.688-6.829l-.976-.07a1.752,1.752,0,0,0-1.793.879V0H22.957V-9.51h2.777l.1,1.222a2.294,2.294,0,0,1,2.083-1.4,2.888,2.888,0,0,1,.826.105ZM34.849,0a3.344,3.344,0,0,1-.281-.853A2.754,2.754,0,0,1,32.282.176,3.374,3.374,0,0,1,30-.637a2.588,2.588,0,0,1-.94-2.043A2.66,2.66,0,0,1,30.2-5.019a5.821,5.821,0,0,1,3.322-.791h.914v-.5q0-1.316-1.134-1.316a.927.927,0,0,0-1.055,1.042H29.285a2.655,2.655,0,0,1,1.173-2.239,4.931,4.931,0,0,1,2.993-.86,4.323,4.323,0,0,1,2.874.888,3.086,3.086,0,0,1,1.081,2.435v4.21a4.311,4.311,0,0,0,.4,2V0ZM32.994-1.934a1.652,1.652,0,0,0,.918-.237,1.487,1.487,0,0,0,.523-.536V-4.228h-.861q-1.547,0-1.547,1.389a.848.848,0,0,0,.272.655A.986.986,0,0,0,32.994-1.934ZM43.646.176A4.889,4.889,0,0,1,40.1-1.129a4.507,4.507,0,0,1-1.354-3.4v-.246a5.84,5.84,0,0,1,.541-2.575,3.955,3.955,0,0,1,1.578-1.727,4.763,4.763,0,0,1,2.461-.611,4.117,4.117,0,0,1,3.164,1.244,4.887,4.887,0,0,1,1.16,3.467v1.151H41.766a2.135,2.135,0,0,0,.694,1.257,2.066,2.066,0,0,0,1.389.457,2.662,2.662,0,0,0,2.2-.984l1.354,1.6A3.784,3.784,0,0,1,45.831-.277,5.3,5.3,0,0,1,43.646.176ZM43.313-7.4q-1.3,0-1.547,1.723h2.988v-.229a1.467,1.467,0,0,0-.36-1.1A1.434,1.434,0,0,0,43.313-7.4ZM53.824-2.672a.684.684,0,0,0-.4-.606,6.016,6.016,0,0,0-1.5-.475A6.853,6.853,0,0,1,50.1-4.4,3.062,3.062,0,0,1,49-5.37a2.319,2.319,0,0,1-.378-1.31A2.628,2.628,0,0,1,49.7-8.837a4.453,4.453,0,0,1,2.83-.848,4.934,4.934,0,0,1,3.023.853A2.666,2.666,0,0,1,56.7-6.592H53.728q0-1.143-1.2-1.143a1.194,1.194,0,0,0-.782.259.8.8,0,0,0-.316.646.737.737,0,0,0,.387.642,3.654,3.654,0,0,0,1.235.4,10.671,10.671,0,0,1,1.49.378A2.706,2.706,0,0,1,56.681-2.76,2.491,2.491,0,0,1,55.525-.642a5.068,5.068,0,0,1-2.993.817,5.172,5.172,0,0,1-2.18-.439,3.645,3.645,0,0,1-1.494-1.2,2.707,2.707,0,0,1-.536-1.591h2.769a1.145,1.145,0,0,0,.439.962,1.808,1.808,0,0,0,1.081.3,1.422,1.422,0,0,0,.91-.246A.787.787,0,0,0,53.824-2.672Zm7.69-9.2V-9.51h1.564v2.057H61.515V-3.1a1.111,1.111,0,0,0,.193.747,1.037,1.037,0,0,0,.765.211,4.345,4.345,0,0,0,.738-.053V-.079a5.466,5.466,0,0,1-1.67.255,3.1,3.1,0,0,1-2.259-.721,2.954,2.954,0,0,1-.729-2.188v-4.72H57.34V-9.51h1.213v-2.364ZM70-6.829l-.976-.07a1.752,1.752,0,0,0-1.793.879V0H64.266V-9.51h2.777l.1,1.222a2.294,2.294,0,0,1,2.083-1.4,2.888,2.888,0,0,1,.826.105Zm6.732,5.8a3.054,3.054,0,0,1-2.54,1.2,3,3,0,0,1-2.369-.91,3.826,3.826,0,0,1-.8-2.615V-9.51h2.962v6.179a1.065,1.065,0,0,0,1.187,1.222,1.548,1.548,0,0,0,1.45-.729V-9.51h2.979V0H76.816Zm8.508-1.081a1.317,1.317,0,0,0,.967-.338,1.241,1.241,0,0,0,.334-.945h2.777A3.288,3.288,0,0,1,88.194-.826a4.168,4.168,0,0,1-2.887,1,4.22,4.22,0,0,1-3.27-1.3,5.125,5.125,0,0,1-1.2-3.6v-.123A5.792,5.792,0,0,1,81.374-7.4a3.872,3.872,0,0,1,1.534-1.7,4.573,4.573,0,0,1,2.373-.593,4.116,4.116,0,0,1,2.944,1.028,3.647,3.647,0,0,1,1.09,2.786H86.537A1.626,1.626,0,0,0,86.177-7a1.244,1.244,0,0,0-.967-.4q-1.151,0-1.345,1.468A10.357,10.357,0,0,0,83.8-4.649a4.068,4.068,0,0,0,.343,1.986A1.187,1.187,0,0,0,85.236-2.109Zm8.78-9.765V-9.51h1.564v2.057H94.017V-3.1a1.111,1.111,0,0,0,.193.747,1.037,1.037,0,0,0,.765.211,4.345,4.345,0,0,0,.738-.053V-.079a5.466,5.466,0,0,1-1.67.255,3.1,3.1,0,0,1-2.259-.721,2.954,2.954,0,0,1-.729-2.188v-4.72H89.842V-9.51h1.213v-2.364ZM102.41-1.028a3.054,3.054,0,0,1-2.54,1.2A3,3,0,0,1,97.5-.734a3.826,3.826,0,0,1-.8-2.615V-9.51h2.962v6.179a1.065,1.065,0,0,0,1.187,1.222,1.548,1.548,0,0,0,1.45-.729V-9.51h2.979V0H102.5Zm10.239-5.8-.976-.07a1.752,1.752,0,0,0-1.793.879V0h-2.962V-9.51H109.7l.1,1.222a2.294,2.294,0,0,1,2.083-1.4,2.888,2.888,0,0,1,.826.105ZM118.811,0a3.344,3.344,0,0,1-.281-.853A2.754,2.754,0,0,1,116.244.176a3.374,3.374,0,0,1-2.285-.813,2.588,2.588,0,0,1-.94-2.043,2.66,2.66,0,0,1,1.143-2.338,5.821,5.821,0,0,1,3.322-.791h.914v-.5q0-1.316-1.134-1.316a.927.927,0,0,0-1.055,1.042h-2.962a2.655,2.655,0,0,1,1.173-2.239,4.931,4.931,0,0,1,2.993-.86,4.323,4.323,0,0,1,2.874.888,3.086,3.086,0,0,1,1.081,2.435v4.21a4.311,4.311,0,0,0,.4,2V0Zm-1.854-1.934a1.652,1.652,0,0,0,.918-.237,1.487,1.487,0,0,0,.523-.536V-4.228h-.861q-1.547,0-1.547,1.389a.848.848,0,0,0,.272.655A.986.986,0,0,0,116.956-1.934Z" transform="translate(1159 16719.5)" fill="#12263f"/>
    <path id="Trazado_826604" data-name="Trazado 826604" d="M4.052-4.342V0H.967V-12.8H6.073a5.948,5.948,0,0,1,2.6.541,4.074,4.074,0,0,1,1.749,1.538,4.2,4.2,0,0,1,.62,2.263A3.7,3.7,0,0,1,9.7-5.462,5.561,5.561,0,0,1,6.021-4.342Zm0-2.382H6.073A1.906,1.906,0,0,0,7.44-7.172a1.665,1.665,0,0,0,.47-1.266A2.059,2.059,0,0,0,7.427-9.87a1.712,1.712,0,0,0-1.318-.545H4.052ZM15.671,0H12.7V-13.5h2.971Zm7.181,0a3.344,3.344,0,0,1-.281-.853A2.754,2.754,0,0,1,20.285.176,3.374,3.374,0,0,1,18-.637a2.588,2.588,0,0,1-.94-2.043A2.66,2.66,0,0,1,18.2-5.019a5.821,5.821,0,0,1,3.322-.791h.914v-.5q0-1.316-1.134-1.316A.927.927,0,0,0,20.25-6.587H17.288a2.655,2.655,0,0,1,1.173-2.239,4.931,4.931,0,0,1,2.993-.86,4.323,4.323,0,0,1,2.874.888,3.086,3.086,0,0,1,1.081,2.435v4.21a4.311,4.311,0,0,0,.4,2V0ZM21-1.934a1.652,1.652,0,0,0,.918-.237,1.487,1.487,0,0,0,.523-.536V-4.228h-.861q-1.547,0-1.547,1.389a.848.848,0,0,0,.272.655A.986.986,0,0,0,21-1.934Zm9.5-9.94V-9.51h1.564v2.057H30.5V-3.1a1.111,1.111,0,0,0,.193.747,1.037,1.037,0,0,0,.765.211,4.345,4.345,0,0,0,.738-.053V-.079a5.466,5.466,0,0,1-1.67.255,3.1,3.1,0,0,1-2.259-.721,2.954,2.954,0,0,1-.729-2.188v-4.72H26.323V-9.51h1.213v-2.364ZM38.584,0A3.344,3.344,0,0,1,38.3-.853,2.754,2.754,0,0,1,36.018.176a3.374,3.374,0,0,1-2.285-.813,2.588,2.588,0,0,1-.94-2.043,2.66,2.66,0,0,1,1.143-2.338,5.821,5.821,0,0,1,3.322-.791h.914v-.5q0-1.316-1.134-1.316a.927.927,0,0,0-1.055,1.042H33.021a2.655,2.655,0,0,1,1.173-2.239,4.931,4.931,0,0,1,2.993-.86,4.323,4.323,0,0,1,2.874.888,3.086,3.086,0,0,1,1.081,2.435v4.21a4.311,4.311,0,0,0,.4,2V0ZM36.729-1.934a1.652,1.652,0,0,0,.918-.237,1.487,1.487,0,0,0,.523-.536V-4.228H37.31q-1.547,0-1.547,1.389a.848.848,0,0,0,.272.655A.986.986,0,0,0,36.729-1.934ZM43.436,0V-7.453h-1.38V-9.51h1.38v-.756a3.286,3.286,0,0,1,.958-2.522,3.785,3.785,0,0,1,2.689-.9,5.89,5.89,0,0,1,1.389.185l.009,2.18a2.706,2.706,0,0,0-.729-.079q-1.345,0-1.345,1.16v.729h1.854v2.057H46.406V0Zm5.493-4.843a5.613,5.613,0,0,1,.554-2.536,3.96,3.96,0,0,1,1.591-1.709,4.791,4.791,0,0,1,2.435-.6,4.373,4.373,0,0,1,3.366,1.323,5.076,5.076,0,0,1,1.23,3.6v.105A4.925,4.925,0,0,1,56.87-1.129,4.384,4.384,0,0,1,53.525.176a4.434,4.434,0,0,1-3.261-1.217,4.761,4.761,0,0,1-1.327-3.3Zm2.962.185A3.538,3.538,0,0,0,52.3-2.725a1.376,1.376,0,0,0,1.222.615q1.582,0,1.617-2.435v-.3q0-2.558-1.635-2.558-1.485,0-1.608,2.206ZM65.162-6.829l-.976-.07a1.752,1.752,0,0,0-1.793.879V0H59.432V-9.51h2.777l.1,1.222a2.294,2.294,0,0,1,2.083-1.4,2.888,2.888,0,0,1,.826.105ZM69.029-9.51l.1,1.116a3.27,3.27,0,0,1,2.716-1.292,2.407,2.407,0,0,1,2.435,1.433,3.165,3.165,0,0,1,2.795-1.433q2.892,0,2.971,3.5V0H77.071V-6a1.813,1.813,0,0,0-.246-1.063,1.048,1.048,0,0,0-.9-.334,1.4,1.4,0,0,0-1.31.782l.009.123V0H71.657V-5.985a1.906,1.906,0,0,0-.237-1.081,1.045,1.045,0,0,0-.905-.334,1.42,1.42,0,0,0-1.3.782V0H66.252V-9.51ZM87.091,0a3.344,3.344,0,0,1-.281-.853A2.754,2.754,0,0,1,84.524.176a3.374,3.374,0,0,1-2.285-.813,2.588,2.588,0,0,1-.94-2.043,2.66,2.66,0,0,1,1.143-2.338,5.821,5.821,0,0,1,3.322-.791h.914v-.5q0-1.316-1.134-1.316a.927.927,0,0,0-1.055,1.042H81.527A2.655,2.655,0,0,1,82.7-8.825a4.931,4.931,0,0,1,2.993-.86,4.323,4.323,0,0,1,2.874.888,3.086,3.086,0,0,1,1.081,2.435v4.21a4.311,4.311,0,0,0,.4,2V0ZM85.236-1.934a1.652,1.652,0,0,0,.918-.237,1.487,1.487,0,0,0,.523-.536V-4.228h-.861q-1.547,0-1.547,1.389a.848.848,0,0,0,.272.655A.986.986,0,0,0,85.236-1.934Zm11.03-.738a.684.684,0,0,0-.4-.606,6.016,6.016,0,0,0-1.5-.475A6.853,6.853,0,0,1,92.54-4.4a3.062,3.062,0,0,1-1.1-.971,2.319,2.319,0,0,1-.378-1.31,2.628,2.628,0,0,1,1.081-2.158,4.453,4.453,0,0,1,2.83-.848A4.934,4.934,0,0,1,98-8.833a2.666,2.666,0,0,1,1.143,2.241H96.17q0-1.143-1.2-1.143a1.194,1.194,0,0,0-.782.259.8.8,0,0,0-.316.646.737.737,0,0,0,.387.642,3.654,3.654,0,0,0,1.235.4,10.671,10.671,0,0,1,1.49.378A2.706,2.706,0,0,1,99.123-2.76,2.491,2.491,0,0,1,97.967-.642a5.068,5.068,0,0,1-2.993.817,5.172,5.172,0,0,1-2.18-.439,3.645,3.645,0,0,1-1.494-1.2,2.707,2.707,0,0,1-.536-1.591h2.769a1.145,1.145,0,0,0,.439.962,1.808,1.808,0,0,0,1.081.3,1.422,1.422,0,0,0,.91-.246A.787.787,0,0,0,96.267-2.672Zm8.35-2.153a5.809,5.809,0,0,1,.976-3.56,3.211,3.211,0,0,1,2.725-1.3,2.731,2.731,0,0,1,2.145,1V-13.5h2.971V0h-2.663l-.149-1.02a2.8,2.8,0,0,1-2.32,1.2,3.205,3.205,0,0,1-2.689-1.3A5.993,5.993,0,0,1,104.616-4.825Zm2.962.185q0,2.531,1.477,2.531a1.458,1.458,0,0,0,1.406-.826V-6.557a1.419,1.419,0,0,0-1.389-.844q-1.371,0-1.485,2.215ZM119.716.176a4.889,4.889,0,0,1-3.542-1.305,4.507,4.507,0,0,1-1.354-3.4v-.246a5.84,5.84,0,0,1,.541-2.575,3.955,3.955,0,0,1,1.578-1.727,4.763,4.763,0,0,1,2.461-.611,4.117,4.117,0,0,1,3.164,1.244,4.887,4.887,0,0,1,1.16,3.467v1.151h-5.889a2.135,2.135,0,0,0,.694,1.257,2.066,2.066,0,0,0,1.389.457,2.662,2.662,0,0,0,2.2-.984l1.354,1.6A3.784,3.784,0,0,1,121.9-.277,5.3,5.3,0,0,1,119.716.176ZM119.382-7.4q-1.3,0-1.547,1.723h2.988v-.229a1.467,1.467,0,0,0-.36-1.1A1.434,1.434,0,0,0,119.382-7.4Zm9.642,2.575A5.809,5.809,0,0,1,130-8.385a3.211,3.211,0,0,1,2.725-1.3,2.731,2.731,0,0,1,2.145,1V-13.5h2.971V0h-2.663l-.149-1.02a2.8,2.8,0,0,1-2.32,1.2,3.205,3.205,0,0,1-2.689-1.3A5.993,5.993,0,0,1,129.023-4.825Zm2.962.185q0,2.531,1.477,2.531a1.458,1.458,0,0,0,1.406-.826V-6.557a1.419,1.419,0,0,0-1.389-.844q-1.371,0-1.485,2.215ZM144.123.176a4.889,4.889,0,0,1-3.542-1.305,4.507,4.507,0,0,1-1.354-3.4v-.246a5.84,5.84,0,0,1,.541-2.575,3.955,3.955,0,0,1,1.578-1.727,4.763,4.763,0,0,1,2.461-.611,4.117,4.117,0,0,1,3.164,1.244,4.887,4.887,0,0,1,1.16,3.467v1.151h-5.889a2.135,2.135,0,0,0,.694,1.257,2.066,2.066,0,0,0,1.389.457,2.662,2.662,0,0,0,2.2-.984l1.354,1.6a3.784,3.784,0,0,1-1.569,1.217A5.3,5.3,0,0,1,144.123.176ZM143.789-7.4q-1.3,0-1.547,1.723h2.988v-.229a1.467,1.467,0,0,0-.36-1.1A1.434,1.434,0,0,0,143.789-7.4ZM154.3-2.672a.684.684,0,0,0-.4-.606,6.016,6.016,0,0,0-1.5-.475,6.853,6.853,0,0,1-1.828-.646,3.062,3.062,0,0,1-1.1-.971,2.319,2.319,0,0,1-.378-1.31,2.628,2.628,0,0,1,1.081-2.158,4.453,4.453,0,0,1,2.83-.848,4.934,4.934,0,0,1,3.023.853,2.666,2.666,0,0,1,1.143,2.241H154.2q0-1.143-1.2-1.143a1.194,1.194,0,0,0-.782.259.8.8,0,0,0-.316.646.737.737,0,0,0,.387.642,3.654,3.654,0,0,0,1.235.4,10.671,10.671,0,0,1,1.49.378,2.706,2.706,0,0,1,2.145,2.646A2.491,2.491,0,0,1,156-.642a5.068,5.068,0,0,1-2.993.817,5.172,5.172,0,0,1-2.18-.439,3.645,3.645,0,0,1-1.494-1.2A2.707,2.707,0,0,1,148.8-3.05h2.769a1.145,1.145,0,0,0,.439.962,1.808,1.808,0,0,0,1.081.3A1.422,1.422,0,0,0,154-2.03.787.787,0,0,0,154.3-2.672ZM163.9,0a3.344,3.344,0,0,1-.281-.853A2.754,2.754,0,0,1,161.332.176a3.374,3.374,0,0,1-2.285-.813,2.588,2.588,0,0,1-.94-2.043,2.66,2.66,0,0,1,1.143-2.338,5.821,5.821,0,0,1,3.322-.791h.914v-.5q0-1.316-1.134-1.316A.927.927,0,0,0,161.3-6.587h-2.962a2.655,2.655,0,0,1,1.173-2.239,4.931,4.931,0,0,1,2.993-.86,4.323,4.323,0,0,1,2.874.888,3.086,3.086,0,0,1,1.081,2.435v4.21a4.311,4.311,0,0,0,.4,2V0Zm-1.854-1.934a1.652,1.652,0,0,0,.918-.237,1.487,1.487,0,0,0,.523-.536V-4.228h-.861q-1.547,0-1.547,1.389a.848.848,0,0,0,.272.655A.986.986,0,0,0,162.044-1.934Zm11.8-4.9-.976-.07a1.752,1.752,0,0,0-1.793.879V0h-2.962V-9.51h2.777l.1,1.222a2.294,2.294,0,0,1,2.083-1.4,2.888,2.888,0,0,1,.826.105Zm6.82,0-.976-.07a1.752,1.752,0,0,0-1.793.879V0h-2.962V-9.51h2.777l.1,1.222a2.294,2.294,0,0,1,2.083-1.4,2.888,2.888,0,0,1,.826.105Zm.378,1.986a5.613,5.613,0,0,1,.554-2.536,3.96,3.96,0,0,1,1.591-1.709,4.791,4.791,0,0,1,2.435-.6,4.373,4.373,0,0,1,3.366,1.323,5.076,5.076,0,0,1,1.23,3.6v.105a4.925,4.925,0,0,1-1.235,3.529A4.384,4.384,0,0,1,185.643.176a4.434,4.434,0,0,1-3.261-1.217,4.761,4.761,0,0,1-1.327-3.3Zm2.962.185a3.538,3.538,0,0,0,.413,1.934,1.376,1.376,0,0,0,1.222.615q1.582,0,1.617-2.435v-.3q0-2.558-1.635-2.558-1.485,0-1.608,2.206ZM194.651,0h-2.971V-13.5h2.971ZM199.6,0h-2.971V-13.5H199.6Zm1.45-4.843a5.613,5.613,0,0,1,.554-2.536,3.96,3.96,0,0,1,1.591-1.709,4.791,4.791,0,0,1,2.435-.6A4.373,4.373,0,0,1,209-8.363a5.076,5.076,0,0,1,1.23,3.6v.105a4.925,4.925,0,0,1-1.235,3.529A4.384,4.384,0,0,1,205.646.176a4.434,4.434,0,0,1-3.261-1.217,4.761,4.761,0,0,1-1.327-3.3Zm2.962.185a3.538,3.538,0,0,0,.413,1.934,1.376,1.376,0,0,0,1.222.615q1.582,0,1.617-2.435v-.3q0-2.558-1.635-2.558-1.485,0-1.608,2.206Z" transform="translate(1114 16614.5)" fill="#12263f"/>
  </g>
</svg>
