<svg xmlns="http://www.w3.org/2000/svg" width="43.343" height="79.293" viewBox="0 0 43.343 79.293">
  <g id="Grupo_151288" data-name="Grupo 151288" transform="translate(0 0)">
    <path id="Trazado_193199" data-name="Trazado 193199" d="M703.654,71.931c1.321.745.995,2.065,1.063,3.305h4.924V85.308c.651,0,1.193-.021,1.733,0a1.569,1.569,0,0,1,1.643,1.645q.027,8.408-.013,16.816a7.087,7.087,0,0,1-.428,2.03,26.691,26.691,0,0,0-1.208,10.072,4.961,4.961,0,0,1-.776,3.174c-2.163,3.318-2.681,6.932-2.632,10.881.171,13.646.066,6.357.066,20.005v1.286h-9.994v-1.188c0-15.25.006-9.561-.02-24.811a3.863,3.863,0,0,0-.475-1.968,19.469,19.469,0,0,1-2.932-11.985c.116-1.928-.8-3.911-1.2-5.879a14.556,14.556,0,0,1-.356-2.77c-.035-4.944-.017-9.888-.016-14.832,0-2.088.376-2.463,2.487-2.483.238,0,.476,0,.828,0v-10h4.967c.158-1.228-.294-2.637,1.091-3.376Zm6.024,16.8h-13.25v13.212h13.25Zm-5.053,59.17V132.189h-3.211V147.9Zm-4.886-62.666h6.545V78.668h-6.545Zm-2.072,23.435h10.719l.789-3.27H696.881Zm10.293,6.679v-3.221h-9.882v3.221Zm-1.026,3.451h-7.706c1.1,3.283,1.1,3.283,4.366,3.283a8.6,8.6,0,0,0,1.248-.018.962.962,0,0,0,.645-.373C705.982,120.782,706.42,119.841,706.934,118.8Zm-5.555,9.9h3.244v-3.2h-3.244Z" transform="translate(-693.025 -71.931)" fill="#fff"/>
    <path id="Trazado_193200" data-name="Trazado 193200" d="M824.495,104.526c-.557,2.338-1.627,4.691-1.558,7.011a19.761,19.761,0,0,1-2.775,11.4,5.292,5.292,0,0,0-.645,2.652c-.038,15.071-.027,9.205-.027,24.277V151.2H809.5v-1.193c0-15.245.005-9.553-.018-24.8a3.662,3.662,0,0,0-.439-1.872,19.56,19.56,0,0,1-2.969-12.076c.117-1.926-.8-3.909-1.2-5.877a14.565,14.565,0,0,1-.354-2.769c-.034-4.942-.016-9.885-.016-14.828,0-2.082.377-2.456,2.493-2.477.238,0,.476,0,.825,0v-10h4.964c.157-1.228-.293-2.636,1.091-3.375h1.25c1.378.742.938,2.145,1.09,3.373h4.961v9.977c1.27.07,2.584-.259,3.326,1.067Zm-16.633-2.584h13.25V88.7h-13.25Zm5.035,30.207v15.712h3.211V132.149Zm4.863-46.892V78.693h-6.552v6.563Zm2.881,20.142H808.348l.782,3.239h10.733Zm-11.105,9.922h9.878V112.1h-9.878Zm8.856,3.49h-7.713c1.193,3.27,1.193,3.27,4.512,3.27a5.277,5.277,0,0,0,1.038-.017,1.152,1.152,0,0,0,.731-.4C817.462,120.762,817.894,119.82,818.391,118.811Zm-2.28,6.668h-3.219v3.209h3.219Z" transform="translate(-781.152 -71.931)" fill="#fff"/>
    <path id="Trazado_193201" data-name="Trazado 193201" d="M725.123,187.185v-3.208h6.528v3.208Z" transform="translate(-718.403 -160.517)" fill="#fff"/>
    <path id="Trazado_193202" data-name="Trazado 193202" d="M836.6,187.283v-3.2h6.539v3.2Z" transform="translate(-806.542 -160.6)" fill="#fff"/>
  </g>
</svg>
