<svg xmlns="http://www.w3.org/2000/svg" xmlns:xlink="http://www.w3.org/1999/xlink" width="83" height="83" viewBox="0 0 83 83">
  <defs>
    <clipPath id="clip-path">
      <rect id="Rect치ngulo_377922" data-name="Rect치ngulo 377922" width="70.409" height="69.701" fill="#12263f"/>
    </clipPath>
  </defs>
  <g id="Grupo_1078126" data-name="Grupo 1078126" transform="translate(-1069 -8039)">
    <g id="Grupo_1078125" data-name="Grupo 1078125">
      <g id="Grupo_1078124" data-name="Grupo 1078124">
        <g id="Grupo_1078123" data-name="Grupo 1078123">
          <g id="Grupo_1078122" data-name="Grupo 1078122">
            <g id="Grupo_1078121" data-name="Grupo 1078121">
              <g id="Grupo_1077518" data-name="Grupo 1077518" transform="translate(-13)">
                <g id="Grupo_1077515" data-name="Grupo 1077515" transform="translate(1088 8046)">
                  <g id="Grupo_1077513" data-name="Grupo 1077513" clip-path="url(#clip-path)">
                    <path id="Trazado_825620" data-name="Trazado 825620" d="M3.252,26.133A7.29,7.29,0,0,1,0,20.283a2.826,2.826,0,0,1,3.252-2.791V8.458a3.814,3.814,0,0,1,.092-.832A5.739,5.739,0,0,1,6.036,4.04C9.29,1.825,15.625.215,23.037.02q.744-.02,1.5-.02h.019c8.061,0,15.048,1.675,18.522,4.04,1.82,1.239,2.746,2.715,2.746,4.206V21.576h8.992a1.138,1.138,0,0,1,.8.333l5.4,5.4a1.137,1.137,0,0,1,.333.8V45.243l8.367,3.582a1.137,1.137,0,0,1,.69,1.046v7.814a12.26,12.26,0,0,1-9.989,12,1.14,1.14,0,0,1-.414,0,12.137,12.137,0,0,1-5.613-2.66H26.9a1.137,1.137,0,0,1-1.137-1.137V56.492c-7.442.139-15.093-1.038-19.137-3.438-2.179-1.293-3.38-2.967-3.38-4.879v-6.8A7.294,7.294,0,0,1,0,35.524a2.826,2.826,0,0,1,3.252-2.791Zm2.275-6.669a2.826,2.826,0,0,1,.121.819,1.391,1.391,0,0,0,.541.95,8.755,8.755,0,0,0,2.831,1.658c4.187,1.689,10.543,2.432,16.749,2.315V22.713A1.137,1.137,0,0,1,26.9,21.576H43.55V12.11q-.224.173-.471.341c-3.474,2.365-10.461,4.04-18.522,4.04S9.51,14.816,6.036,12.451q-.268-.182-.51-.371Zm20.241,8.018c-6.524.117-13.2-.7-17.6-2.481A11.012,11.012,0,0,1,4.6,22.86a3.581,3.581,0,0,1-1.226-2.577.549.549,0,0,0-1.1,0c0,1.837,1.194,3.412,3.278,4.659,4.258,2.546,12.339,3.774,20.215,3.638Zm0,3.372c-7.679.124-15.528-1.053-20.241-3.346v7.2a2.827,2.827,0,0,1,.121.82,1.415,1.415,0,0,0,.563.971A9.042,9.042,0,0,0,9.138,38.18c4.191,1.655,10.483,2.384,16.63,2.268ZM24.558,2.275h-.019q-.724,0-1.436.019c-5.876.152-11.034,1.232-14.32,2.861A8.614,8.614,0,0,0,6.255,6.914,2.727,2.727,0,0,0,5.578,8.05a1.463,1.463,0,0,0-.013.2,2.191,2.191,0,0,0,.717,1.465,8.616,8.616,0,0,0,2.525,1.707c3.552,1.711,9.289,2.8,15.75,2.8s12.2-1.088,15.75-2.8a8.615,8.615,0,0,0,2.525-1.707,2.282,2.282,0,0,0,.713-1.361,2.423,2.423,0,0,0-.725-1.436,8.611,8.611,0,0,0-2.527-1.759C36.747,3.4,31.018,2.277,24.558,2.275m34.52,42.967V29.249H54.816a1.137,1.137,0,0,1-1.137-1.137V23.851H28.042v40.9H52.294a12.147,12.147,0,0,1-2.273-6.907H44.5a1.137,1.137,0,1,1,0-2.275h5.525v-.641H44.5a1.137,1.137,0,1,1,0-2.275h5.525V49.872a1.137,1.137,0,0,1,.69-1.046ZM57.469,26.974l-1.515-1.515v1.515Zm-31.7,27.243V46.095c-7.68.122-15.532-1.051-20.241-3.345v5.425a2.721,2.721,0,0,0,.959,1.951,9.69,9.69,0,0,0,3.141,1.859C13.674,53.6,19.8,54.336,25.768,54.217Zm0-10.4v-1.1C19.31,42.839,12.706,42.035,8.3,40.3a11.3,11.3,0,0,1-3.668-2.16,3.6,3.6,0,0,1-1.263-2.612.549.549,0,1,0-1.1,0c0,1.862,1.228,3.456,3.366,4.71,4.279,2.511,12.306,3.719,20.127,3.585M60.213,47.23,52.3,50.622v7.063A9.977,9.977,0,0,0,60.213,67.4a9.977,9.977,0,0,0,7.92-9.719V50.622Zm-4.963,11.1a1.137,1.137,0,0,1,1.607-1.61l1.661,1.658,5.094-4.619a1.137,1.137,0,0,1,1.528,1.685l-5.9,5.346a1.137,1.137,0,0,1-1.567-.038ZM35.684,4.759A8.068,8.068,0,0,1,40.1,5.92a2.859,2.859,0,0,1,1.4,2.325,2.859,2.859,0,0,1-1.4,2.325,8.068,8.068,0,0,1-4.414,1.162,8.068,8.068,0,0,1-4.413-1.162,2.859,2.859,0,0,1-1.4-2.325,2.859,2.859,0,0,1,1.4-2.325,8.068,8.068,0,0,1,4.413-1.162m0,2.275a6.389,6.389,0,0,0-2.792.567,2.29,2.29,0,0,0-.566.382c-.088.085-.176.16-.176.263s.088.177.176.263a2.29,2.29,0,0,0,.566.382,7.155,7.155,0,0,0,5.584,0,2.29,2.29,0,0,0,.566-.382c.088-.085.176-.16.176-.263s-.088-.177-.176-.263a2.29,2.29,0,0,0-.566-.382,6.389,6.389,0,0,0-2.792-.567M33.976,40.839H38.93a1.788,1.788,0,0,1,1.784,1.784v4.954A1.788,1.788,0,0,1,38.93,49.36H33.976a1.788,1.788,0,0,1-1.784-1.784V42.623A1.788,1.788,0,0,1,33.976,40.839Zm.491,6.247h3.972V43.114H34.467ZM33.976,30.7H38.93a1.788,1.788,0,0,1,1.784,1.784v4.954a1.788,1.788,0,0,1-1.784,1.784H33.976a1.788,1.788,0,0,1-1.784-1.784V32.48A1.788,1.788,0,0,1,33.976,30.7Zm.491,6.247h3.972V32.971H34.467Zm-.49,14.04h4.952a1.791,1.791,0,0,1,1.784,1.786v4.952A1.788,1.788,0,0,1,38.929,59.5H33.977a1.788,1.788,0,0,1-1.784-1.784V52.768a1.791,1.791,0,0,1,1.784-1.786m.491,6.247h3.97V53.257h-3.97ZM44.5,34.636a1.137,1.137,0,1,1,0-2.275h9.225a1.137,1.137,0,1,1,0,2.275Zm0,2.916a1.137,1.137,0,0,1,0-2.275H50.5a1.137,1.137,0,1,1,0,2.275Zm0,7.226a1.137,1.137,0,1,1,0-2.275h9.225a1.137,1.137,0,1,1,0,2.275Zm0,2.916a1.137,1.137,0,1,1,0-2.275H50.5a1.137,1.137,0,1,1,0,2.275Z" fill="#12263f" fill-rule="evenodd"/>
                  </g>
                </g>
                <rect id="Rect치ngulo_377925" data-name="Rect치ngulo 377925" width="83" height="83" transform="translate(1082 8039)" fill="none"/>
              </g>
            </g>
          </g>
        </g>
      </g>
    </g>
  </g>
</svg>
