<svg xmlns="http://www.w3.org/2000/svg" xmlns:xlink="http://www.w3.org/1999/xlink" width="83" height="83" viewBox="0 0 83 83">
  <defs>
    <clipPath id="clip-path">
      <rect id="Rect치ngulo_377923" data-name="Rect치ngulo 377923" width="68.624" height="67.582" fill="#12263f"/>
    </clipPath>
  </defs>
  <g id="Grupo_1078120" data-name="Grupo 1078120" transform="translate(-449 -8039)">
    <g id="Grupo_1078119" data-name="Grupo 1078119">
      <g id="Grupo_1078118" data-name="Grupo 1078118">
        <g id="Grupo_1078117" data-name="Grupo 1078117">
          <g id="Grupo_1078116" data-name="Grupo 1078116">
            <g id="Grupo_1078115" data-name="Grupo 1078115">
              <g id="Grupo_1077519" data-name="Grupo 1077519" transform="translate(-26)">
                <g id="Grupo_1077517" data-name="Grupo 1077517" transform="translate(482 8044.667)">
                  <g id="Grupo_1077516" data-name="Grupo 1077516" clip-path="url(#clip-path)">
                    <path id="Trazado_825621" data-name="Trazado 825621" d="M43.83,352.3a.8.8,0,0,0,.641.325c.506,0,.246-.053,5.99-4.543a.795.795,0,0,0-.989-1.244L44.624,350.7l-1.729-2.363a.795.795,0,1,0-1.283.938Z" transform="translate(-35.623 -297.874)" fill="#12263f"/>
                    <path id="Trazado_825622" data-name="Trazado 825622" d="M209.6,130.476a.793.793,0,0,0,.495-.173l4.742-3.771a.795.795,0,0,0-.99-1.244l-4.094,3.256-1.425-1.948a.795.795,0,1,0-1.283.938c1.952,2.54,1.9,2.942,2.555,2.942" transform="translate(-177.771 -107.505)" fill="#12263f"/>
                    <path id="Trazado_825623" data-name="Trazado 825623" d="M46.111,62.562c.577,0,.584-.363,3.012-2.682,2.015,1.914,2.123,2.369,2.7,2.369a.8.8,0,0,0,.562-1.357l-2.136-2.136,2.34-2.34a.795.795,0,1,0-1.124-1.124l-2.34,2.34-2.45-2.45a.795.795,0,0,0-1.124,1.124L48,58.755l-2.45,2.45a.8.8,0,0,0,.562,1.357" transform="translate(-38.937 -47.214)" fill="#12263f"/>
                    <path id="Trazado_825624" data-name="Trazado 825624" d="M346.791,378.589c.579,0,.57-.351,3.172-2.843,2.164,2.06,2.262,2.513,2.842,2.513a.8.8,0,0,0,.562-1.357l-2.28-2.28,2.5-2.5A.795.795,0,0,0,352.459,371l-2.5,2.5-2.61-2.61a.795.795,0,1,0-1.124,1.124l2.61,2.61-2.61,2.61a.8.8,0,0,0,.562,1.357" transform="translate(-297.294 -318.482)" fill="#12263f"/>
                    <path id="Trazado_825625" data-name="Trazado 825625" d="M59.012,10.688c-.219-.031-.44-.057-.664-.074l.013-2.5c1.726-1.04,5.6-2.407,7.378-3.511a.8.8,0,0,0,.01-1.343C63.858,2.042,59.707,1.2,58.032.127a.8.8,0,0,0-1.224.664L56.758,10.6c-7.49.476-12.256,8.733-6.746,16.676a9.428,9.428,0,0,0,6.711,4.058,3.821,3.821,0,0,1-3.815,3.793H17.688v-4.05a2.139,2.139,0,0,0-2.137-2.137H10.587a.548.548,0,0,1-.547-.547V22.367A10.557,10.557,0,0,0,16.491,3.124,9.681,9.681,0,0,0,6.886,2.7,9.638,9.638,0,0,0,.973,14.835c-.065,1.075.99,2.688,1.482,3.4A9.435,9.435,0,0,0,8.45,22.179v6.213a2.139,2.139,0,0,0,2.137,2.137h4.964a.548.548,0,0,1,.548.548v4.05H14.123a5.414,5.414,0,0,0-5.408,5.408v1.929A9.664,9.664,0,0,0,.812,56c.025,1.365,2.142,4.767,5.235,6.193a10.447,10.447,0,0,0,9.672-.64,10.86,10.86,0,0,0,5.006-8.25c.466-5.785-3.974-11.424-10.421-11v-1.77a3.822,3.822,0,0,1,3.818-3.818H35.2v3.872a2.776,2.776,0,0,0,2.773,2.774c13.107.09,12.946-.226,13.417.257a.84.84,0,0,1,.24.614l-.041,1.532a10.135,10.135,0,0,0-9.209,7.023h0a10.472,10.472,0,0,0,.6,7.742,9.328,9.328,0,0,0,1.668,3.026,10.6,10.6,0,0,0,13.992,2.4,11.439,11.439,0,0,0,5.274-8.691c.476-5.913-3.956-11.874-10.732-11.584l.038-1.407a2.436,2.436,0,0,0-2.437-2.5H37.974a1.185,1.185,0,0,1-1.183-1.184V36.717H52.908a5.407,5.407,0,0,0,5.4-5.282,10.566,10.566,0,0,0,10.243-9.32c.679-5.437-3.088-11.314-9.534-11.426M2.457,9.312c2.5-7.61,13.713-7.473,15.855.258a8.555,8.555,0,0,1-3.287,9.08,8.494,8.494,0,0,1-9.645-.157,8.441,8.441,0,0,1-2.924-9.18M1.969,49.6c2.479-7.563,13.7-7.513,15.856.257a8.555,8.555,0,0,1-3.287,9.08,8.494,8.494,0,0,1-9.645-.157A8.441,8.441,0,0,1,1.969,49.6m41.923,3.681h0c2.645-8.066,14.516-7.9,16.783.272A8.792,8.792,0,0,1,46.988,63a8.936,8.936,0,0,1-3.1-9.717M49.57,17.79a8.04,8.04,0,0,1,7.181-5.6l-.044,8.882a.8.8,0,0,0,.791.8h0a.794.794,0,0,0,.795-.791l.044-8.854a7.929,7.929,0,0,1,7.085,5.819A8.307,8.307,0,0,1,52.493,26.97a8.441,8.441,0,0,1-2.924-9.18" transform="translate(0 0)" fill="#12263f"/>
                    <path id="Trazado_825626" data-name="Trazado 825626" d="M191.4,91.355c.659-5.275-3.471-10.507-9.386-9.8a8.509,8.509,0,0,0-8.133,5.85,8.647,8.647,0,0,0,.281,5.9,7.759,7.759,0,0,0,1.247,2.5,8.324,8.324,0,0,0,3,2.654,8.462,8.462,0,0,0,2.671.829l.012,3.205a.8.8,0,0,0,.795.792h0a.8.8,0,0,0,.792-.8l-.011-3.1a9.119,9.119,0,0,0,8.728-8.038M175.39,87.9c2.094-6.387,11.631-6.427,13.472.216A7.058,7.058,0,0,1,177.874,95.7a7.17,7.17,0,0,1-2.484-7.8" transform="translate(-149.067 -70.021)" fill="#12263f"/>
                  </g>
                </g>
                <rect id="Rect치ngulo_377924" data-name="Rect치ngulo 377924" width="83" height="83" transform="translate(475 8039)" fill="none"/>
              </g>
            </g>
          </g>
        </g>
      </g>
    </g>
  </g>
</svg>
