<svg xmlns="http://www.w3.org/2000/svg" width="116.619" height="116.619" viewBox="0 0 116.619 116.619">
  <g id="Grupo_1078091" data-name="Grupo 1078091" transform="translate(-901.1 -7308.632)">
    <g id="Grupo_1078090" data-name="Grupo 1078090">
      <g id="Grupo_1078089" data-name="Grupo 1078089">
        <g id="Grupo_1078088" data-name="Grupo 1078088">
          <g id="Grupo_1078087" data-name="Grupo 1078087">
            <g id="Grupo_1078086" data-name="Grupo 1078086">
              <g id="Grupo_1078085" data-name="Grupo 1078085">
                <g id="Grupo_1078084" data-name="Grupo 1078084">
                  <g id="Grupo_1078083" data-name="Grupo 1078083">
                    <g id="Grupo_1078082" data-name="Grupo 1078082">
                      <g id="Grupo_1078081" data-name="Grupo 1078081">
                        <g id="Grupo_1078080" data-name="Grupo 1078080">
                          <g id="Grupo_1078079" data-name="Grupo 1078079">
                            <g id="Grupo_1078078" data-name="Grupo 1078078">
                              <g id="Grupo_1078077" data-name="Grupo 1078077">
                                <g id="Grupo_1078076" data-name="Grupo 1078076">
                                  <g id="Grupo_1078075" data-name="Grupo 1078075">
                                    <g id="Grupo_1078074" data-name="Grupo 1078074">
                                      <circle id="Elipse_10488" data-name="Elipse 10488" cx="58.309" cy="58.309" r="58.309" transform="translate(901.1 7308.632)" fill="#12263f"/>
                                    </g>
                                  </g>
                                </g>
                              </g>
                            </g>
                          </g>
                        </g>
                      </g>
                    </g>
                  </g>
                </g>
              </g>
            </g>
            <g id="Yl0wVf.tif" transform="translate(925.742 7326.385)">
              <g id="Grupo_151173" data-name="Grupo 151173" transform="translate(0 0)">
                <path id="Trazado_192850" data-name="Trazado 192850" d="M3515.6-302.8h1.052a11.764,11.764,0,0,1,1.5,1.4c2.6,3.412,5.161,6.855,7.735,10.287q1.793,2.39,3.584,4.781a1.942,1.942,0,0,1,.252,2.158,1.946,1.946,0,0,1-1.934,1.1c-.525-.015-1.052,0-1.577,0h-4.132v3.95h.82q10.382,0,20.763,0a5.692,5.692,0,0,1,5,2.508,14.533,14.533,0,0,1,1.125,2.621v33.4a.781.781,0,0,0-.078.177,6.191,6.191,0,0,1-6.448,4.979c-18.164-.061-36.329-.029-54.494-.03a5.935,5.935,0,0,1-6.313-6.339q0-15.481,0-30.961a5.938,5.938,0,0,1,6.361-6.357h21.342v-3.95c-1.906,0-3.766-.016-5.626.007a2.021,2.021,0,0,1-2.007-1.1,1.99,1.99,0,0,1,.319-2.264c.134-.173.263-.35.394-.525,3.613-4.818,7.215-9.644,10.851-14.444A11.564,11.564,0,0,1,3515.6-302.8ZM3489.47-275.16c.366.327.62.556.877.782l10.508,9.248q6.808,5.992,13.622,11.976a3.458,3.458,0,0,0,1.218.712c.972.3,1.643-.309,2.315-.9q12.005-10.581,24.021-21.15c.217-.192.426-.393.7-.652h-20.7v.758c0,1.709.01,3.418,0,5.127a1.89,1.89,0,0,1-1.825,1.948q-4.075.042-8.15,0a1.9,1.9,0,0,1-1.846-1.928c-.018-1.227,0-2.454-.005-3.681v-2.242Zm17.394,20.609-17.349,15.094h53.219l-17.353-15.094c-1.7,1.493-3.374,2.969-5.054,4.44a5.965,5.965,0,0,1-8.417-.008C3510.231-251.589,3508.556-253.065,3506.864-254.551Zm-20.43,12.511,17.428-15.159-17.428-15.341Zm59.36-.016v-30.469L3528.384-257.2ZM3524-287.021l-7.883-10.5-7.87,10.5c1.317,0,2.456,0,3.594,0a2.006,2.006,0,0,1,2.3,2.276q0,6.377,0,12.753v.708h3.95v-.759q0-6.377,0-12.753a1.985,1.985,0,0,1,2.222-2.224C3521.5-287.023,3522.669-287.021,3524-287.021Z" transform="translate(-3482.457 302.805)" fill="#fff"/>
              </g>
            </g>
          </g>
        </g>
      </g>
    </g>
  </g>
</svg>
