<svg xmlns="http://www.w3.org/2000/svg" width="112" height="112" viewBox="0 0 112 112">
  <g id="Grupo_1078107" data-name="Grupo 1078107" transform="translate(5798 4405.338)">
    <g id="Grupo_1078106" data-name="Grupo 1078106">
      <g id="Grupo_1078105" data-name="Grupo 1078105">
        <g id="Grupo_1078104" data-name="Grupo 1078104">
          <g id="Grupo_1078103" data-name="Grupo 1078103">
            <g id="Grupo_1078102" data-name="Grupo 1078102">
              <g id="Grupo_1078101" data-name="Grupo 1078101">
                <g id="Grupo_1078100" data-name="Grupo 1078100">
                  <circle id="Elipse_10571" data-name="Elipse 10571" cx="56" cy="56" r="56" transform="translate(-5798 -4405.338)" fill="#12263f"/>
                  <g id="j8NPcn.tif" transform="translate(-9030.917 -3182.021)">
                    <g id="Grupo_151181" data-name="Grupo 151181" transform="translate(3263.917 -1199.645)">
                      <path id="Trazado_192882" data-name="Trazado 192882" d="M3263.917-1138.989v-44.189a4.465,4.465,0,0,0,.44-.362q7.03-7.416,14.053-14.838c.39-.412.758-.844,1.137-1.267h33.393v60.656Zm18.109-42.511h-14.287v38.683H3309.1v-52.99h-27.075Zm-3.806-11.132-6.886,7.275h6.886Z" transform="translate(-3263.917 1199.645)" fill="#fff"/>
                      <path id="Trazado_192883" data-name="Trazado 192883" d="M3522.29-974.424l-5.484-5.492c-.2-.2-.4-.385-.582-.59a2.4,2.4,0,0,1,.038-3.451,2.407,2.407,0,0,1,3.407.082c.628.6,1.231,1.225,1.845,1.839q2.847,2.848,5.692,5.7a2.421,2.421,0,0,1,.026,3.787q-3.613,3.63-7.241,7.245a2.44,2.44,0,0,1-3.5.12,2.352,2.352,0,0,1-.163-3.22c.7-.8,1.478-1.534,2.229-2.289C3519.784-971.926,3521.014-973.15,3522.29-974.424Z" transform="translate(-3485.646 1010.147)" fill="#fff"/>
                      <path id="Trazado_192884" data-name="Trazado 192884" d="M3324.611-974.481a6.675,6.675,0,0,1,.713.51q2.583,2.566,5.152,5.148a2.431,2.431,0,0,1,.184,3.58,2.448,2.448,0,0,1-3.579-.155q-3.607-3.594-7.2-7.2a2.4,2.4,0,0,1-.018-3.7q3.757-3.779,7.532-7.54a2.377,2.377,0,0,1,2.537-.69,2.308,2.308,0,0,1,1.651,1.911,2.484,2.484,0,0,1-.861,2.278q-2.7,2.7-5.407,5.4A5.3,5.3,0,0,1,3324.611-974.481Z" transform="translate(-3312.462 1010.179)" fill="#fff"/>
                      <path id="Trazado_192885" data-name="Trazado 192885" d="M3421.433-1002.611a1.574,1.574,0,0,1-1.512-2.086c.938-3.149,1.9-6.29,2.865-9.432q2.9-9.484,5.8-18.966c.342-1.116,1.061-1.647,1.953-1.452a1.567,1.567,0,0,1,1.213,2.112c-.9,3.017-1.827,6.026-2.748,9.036q-2.945,9.624-5.894,19.247C3422.79-1003.089,3422.267-1002.61,3421.433-1002.611Z" transform="translate(-3401.336 1054.18)" fill="#fff"/>
                    </g>
                  </g>
                </g>
              </g>
            </g>
          </g>
        </g>
      </g>
    </g>
  </g>
</svg>
