<svg xmlns="http://www.w3.org/2000/svg" width="112" height="112" viewBox="0 0 112 112">
  <g id="Grupo_1078114" data-name="Grupo 1078114" transform="translate(5486 4405.338)">
    <g id="Grupo_1078113" data-name="Grupo 1078113">
      <g id="Grupo_1078112" data-name="Grupo 1078112">
        <g id="Grupo_1078111" data-name="Grupo 1078111">
          <g id="Grupo_1078110" data-name="Grupo 1078110">
            <g id="Grupo_1078109" data-name="Grupo 1078109">
              <g id="Grupo_1078108" data-name="Grupo 1078108">
                <circle id="Elipse_10572" data-name="Elipse 10572" cx="56" cy="56" r="56" transform="translate(-5486 -4405.338)" fill="#12263f"/>
                <g id="_9Ydd4P" data-name="9Ydd4P" transform="translate(-8821.444 -3333.303)">
                  <g id="Grupo_151174" data-name="Grupo 151174" transform="translate(3359.445 -1049.083)">
                    <path id="Trazado_192851" data-name="Trazado 192851" d="M3423.135-1030.333v38.39c-.936,2.443-1.5,2.822-4.217,2.823h-17.906q-18.972,0-37.943,0c-2.372,0-3.613-1.071-3.615-3.209q-.023-18.687-.009-37.375a3.122,3.122,0,0,1,1.8-2.961c2.492-1.354,4.922-2.824,7.421-4.166a1.8,1.8,0,0,0,1.08-1.9c-.066-2.225-.037-4.452-.017-6.679.022-2.477,1.2-3.663,3.666-3.665,9.711-.009,19.421-.017,29.132.026a3.24,3.24,0,0,1,1.893.689c2.233,1.831,4.319,3.846,6.6,5.611,1.448,1.12,2.263,2.328,1.924,4.178-.16.877.271,1.36,1.033,1.771,2.205,1.189,4.339,2.512,6.558,3.675A4.916,4.916,0,0,1,3423.135-1030.333Zm-20.793-16.531a9.967,9.967,0,0,0-1.006-.117c-9.285-.005-18.57.006-27.855-.018-1.224,0-1.655.478-1.648,1.7.04,6.4.047,12.791-.01,19.185a2.479,2.479,0,0,0,1.229,2.31q8.712,6.121,17.35,12.348a1.476,1.476,0,0,0,2.079-.048q8.7-6.266,17.465-12.431a2.1,2.1,0,0,0,.99-1.99c-.045-4.073-.018-8.148-.023-12.222,0-.409-.051-.819-.084-1.323-2.368,0-4.635-.03-6.9.013-1.146.022-1.635-.414-1.6-1.59C3402.384-1042.939,3402.342-1044.832,3402.342-1046.863Zm-38.879,55.539h55.9l-22.756-20.594c-1.39.99-2.732,1.882-4,2.87a1.692,1.692,0,0,1-2.4-.008c-1.29-1.006-2.657-1.914-3.991-2.864Zm21.029-21.832-22.922-16.31v37.049Zm13.836,0,22.454,20.313v-36.3Zm14.714-21.813v8.786l6.858-4.9Zm-43.356-.089-6.878,3.928,6.878,4.862Zm34.743-6.557h4.719l-4.719-4.066Z" transform="translate(-3359.445 1049.083)" fill="#fff"/>
                    <path id="Trazado_192852" data-name="Trazado 192852" d="M3435.8-963.176c4.257,0,8.514-.024,12.77.03.52.007,1.376.323,1.488.68.349,1.118-.5,1.309-1.4,1.308q-6.385-.005-12.771,0c-4.257,0-8.514.014-12.77-.02a2.539,2.539,0,0,1-1.388-.46,1.025,1.025,0,0,1-.057-.993,2.371,2.371,0,0,1,1.354-.522C3427.287-963.191,3431.544-963.176,3435.8-963.176Z" transform="translate(-3403.906 987.609)" fill="#fff"/>
                    <path id="Trazado_192853" data-name="Trazado 192853" d="M3435.761-980.327h-12.2c-.284,0-.623.1-.84-.022a11.662,11.662,0,0,1-1.308-.96,4.716,4.716,0,0,1,1.251-.99,5.491,5.491,0,0,1,1.689-.041h23.27c.283,0,.568.013.851,0,.764-.041,1.552.057,1.576.981s-.734,1.059-1.517,1.041c-1.135-.026-2.27-.006-3.405-.006Z" transform="translate(-3403.79 1001.354)" fill="#fff"/>
                    <path id="Trazado_192854" data-name="Trazado 192854" d="M3435.727-999.354h-12.209c-.284,0-.63.1-.839-.022a11.129,11.129,0,0,1-1.268-1.008c.42-.33.828-.926,1.261-.945,2.267-.1,4.541-.047,6.812-.047H3447.8a2.74,2.74,0,0,1,1.121.034,6.287,6.287,0,0,1,1.166.972c-.385.338-.752.939-1.158.966-1.648.112-3.309.049-4.965.05Z" transform="translate(-3403.79 1014.973)" fill="#fff"/>
                    <path id="Trazado_192855" data-name="Trazado 192855" d="M3430.485-1020.346q3.688,0,7.377,0c.771,0,1.7-.06,1.72.973.02.989-.834,1.074-1.652,1.072q-7.448-.019-14.9,0c-.76,0-1.51-.062-1.557-1.012-.051-1.029.753-1.027,1.489-1.027Z" transform="translate(-3403.835 1028.52)" fill="#fff"/>
                  </g>
                </g>
              </g>
            </g>
          </g>
        </g>
      </g>
    </g>
  </g>
</svg>
