<svg id="_6rYPND.tif" data-name="6rYPND.tif" xmlns="http://www.w3.org/2000/svg" width="34.811" height="74.553" viewBox="0 0 34.811 74.553">
  <g id="Grupo_151251" data-name="Grupo 151251" transform="translate(0)">
    <path id="Trazado_193118" data-name="Trazado 193118" d="M-326.845-2550.337v18.283h-2.484v-36.165c0-3.607.93-4.928,4.34-6.1a5.354,5.354,0,0,1-.5-3.432,4.824,4.824,0,0,1,3.065-3.634.749.749,0,0,0,.568-.833,49.878,49.878,0,0,1,.139-5.893,9.479,9.479,0,0,1,5.458-7.531.925.925,0,0,0,.622-.981c-.033-2.019-.02-4.04-.012-6.06a3.748,3.748,0,0,1,3.734-3.923,3.739,3.739,0,0,1,3.721,3.936c.013,2.02.016,4.04-.008,6.06a.88.88,0,0,0,.561.94,9.831,9.831,0,0,1,5.66,9.115c.034,1.629.005,3.261.005,4.873,3.6,1.886,4.45,3.887,3.129,7.378.168.055.331.119.5.161a4.894,4.894,0,0,1,3.822,4.776q.024,18.452.008,36.906c0,.124-.016.248-.026.407h-2.442v-18.3c-3.667,5.44-8.571,8.372-14.943,8.362S-323.209-2544.908-326.845-2550.337Zm22.337-29.723a10.019,10.019,0,0,1-7.386,3.281,9.961,9.961,0,0,1-7.445-3.288v13.207c3.23.391,4.531,1.853,4.994,5.623a5.14,5.14,0,0,1,4.913.034,5.261,5.261,0,0,1,1.258-3.955,5.258,5.258,0,0,1,3.666-1.706Zm-3.686-13.022c0,1.112,0,2.148,0,3.183s.013,2.071,0,3.107a3.748,3.748,0,0,1-3.7,3.807,3.737,3.737,0,0,1-3.761-3.818c-.016-1.89,0-3.78-.01-5.67,0-.189-.032-.377-.052-.592a7.346,7.346,0,0,0-3.443,8.165,7.469,7.469,0,0,0,7.366,5.64,7.489,7.489,0,0,0,7.144-5.825C-303.959-2588.257-305.489-2591.783-308.194-2593.081Zm-8.757,47.74v-12.171a5.136,5.136,0,0,1-4.918-.006c0,3.055,0,5.98.009,8.906a.781.781,0,0,0,.213.536A14.335,14.335,0,0,0-316.951-2545.341Zm10.046-12.167v12.163a14.758,14.758,0,0,0,4.369-2.424,1.3,1.3,0,0,0,.571-1.166c-.03-2.356-.013-4.713-.013-7.07v-1.536A5.109,5.109,0,0,1-306.905-2557.508Zm-7.472,12.919h4.908v-7.87c-2.533.732-2.533.732-4.908,0Zm1.21-54.63q0,3.687,0,7.374c0,1.684-.012,3.368.008,5.051a1.228,1.228,0,0,0,1.236,1.314,1.256,1.256,0,0,0,1.24-1.318c.005-.1,0-.207,0-.311q0-5.75-.006-11.5c0-.223-.024-.446-.033-.612Zm-13.644,34.406c-.444,6.087.58,11.784,2.456,13.394,0-2.925,0-5.82,0-8.715,0-1.414-.128-2.845.595-4.067Zm26.934.569a30.923,30.923,0,0,1,.368,3.178c.051,3,.017,6,.019,9,0,.216.018.432.033.776,2.988-4.262,2.437-8.972,2.429-13.526Zm.373-7.551a2.5,2.5,0,0,0-2.469,2.473,2.489,2.489,0,0,0,2.532,2.486,2.479,2.479,0,0,0,2.429-2.507A2.5,2.5,0,0,0-299.5-2571.795Zm-4.97,7.461a2.489,2.489,0,0,0-2.471,2.469,2.5,2.5,0,0,0,2.452,2.493,2.494,2.494,0,0,0,2.512-2.509A2.513,2.513,0,0,0-304.475-2564.334Zm-17.4-5.008a2.494,2.494,0,0,0-2.494-2.449,2.493,2.493,0,0,0-2.467,2.472,2.493,2.493,0,0,0,2.531,2.489A2.493,2.493,0,0,0-321.875-2569.342Zm2.488,5.008a2.494,2.494,0,0,0-2.479,2.463,2.507,2.507,0,0,0,2.523,2.5,2.506,2.506,0,0,0,2.442-2.5A2.506,2.506,0,0,0-319.386-2564.334Zm7.444,9.931a2.477,2.477,0,0,0,2.5-2.441,2.491,2.491,0,0,0-2.5-2.519,2.507,2.507,0,0,0-2.46,2.485A2.487,2.487,0,0,0-311.942-2554.4Zm.005-47.238a1.25,1.25,0,0,0,1.25-1.206,1.248,1.248,0,0,0-1.186-1.269,1.248,1.248,0,0,0-1.288,1.245A1.246,1.246,0,0,0-311.937-2601.64Zm-9.979,22.792c-1.593,1.148-1.573,3.209,0,4.083Zm19.986,4.141a2.335,2.335,0,0,0,0-4.063Z" transform="translate(329.329 2606.606)" fill="#fff"/>
  </g>
</svg>
