<svg xmlns="http://www.w3.org/2000/svg" width="112" height="112" viewBox="0 0 112 112">
  <g id="Grupo_1078091" data-name="Grupo 1078091" transform="translate(6440 4405.338)">
    <g id="Grupo_1078090" data-name="Grupo 1078090">
      <g id="Grupo_1078089" data-name="Grupo 1078089">
        <g id="Grupo_1078088" data-name="Grupo 1078088">
          <g id="Grupo_1078087" data-name="Grupo 1078087">
            <g id="Grupo_1078086" data-name="Grupo 1078086">
              <g id="Grupo_1078085" data-name="Grupo 1078085">
                <circle id="Elipse_10569" data-name="Elipse 10569" cx="56" cy="56" r="56" transform="translate(-6440 -4405.338)" fill="#12263f"/>
                <g id="aWQSrj.tif" transform="translate(-9271.054 -3081.582)">
                  <g id="Grupo_151180" data-name="Grupo 151180" transform="translate(2853.054 -1305.75)">
                    <path id="Trazado_192879" data-name="Trazado 192879" d="M2906.911-1305.75c1.167.774,1.309,1.46.535,2.631-.6.9-1.186,1.81-1.808,2.695a.681.681,0,0,0,0,.9c.657.948,1.283,1.918,1.927,2.874a1.517,1.517,0,0,1,.178,1.69,1.546,1.546,0,0,1-1.519.76c-3.246-.013-6.493-.006-9.8-.006v3.759h.756c2.117,0,4.234-.007,6.352,0a15.846,15.846,0,0,1,15.8,13.861,12.338,12.338,0,0,1,.131,1.65q.012,11.62,0,23.24a1.471,1.471,0,0,1-1.686,1.668q-7.4.005-14.8,0h-.845c0,.569.012,1.068,0,1.567a4.293,4.293,0,0,1-4.2,4.2c-.979.024-1.96,0-3.016,0v.839q0,4.872,0,9.743c0,1.331-.5,1.834-1.819,1.836q-3.97,0-7.939,0c-1.279,0-1.784-.51-1.785-1.8q0-4.872,0-9.743v-.876c-.879,0-1.712,0-2.544,0a4.335,4.335,0,0,1-4.675-4.674c0-.334,0-.668,0-1.1h-.8q-7.326,0-14.651,0c-1.387,0-1.869-.479-1.87-1.857,0-2.235,0-4.469,0-6.805h-3.687c-1.687,0-2.094-.4-2.094-2.073q0-8.119.006-16.239c0-1.417.482-1.894,1.908-1.9,1.466,0,2.932,0,4.326,0,.53-1.172.947-2.333,1.55-3.387a15.654,15.654,0,0,1,11.546-8,12.834,12.834,0,0,1,2.074-.16q9.022-.018,18.043-.007h.978v-.782c0-4.186.018-8.372-.015-12.558a1.95,1.95,0,0,1,1.023-1.967Zm-22.852,18.214c.948.928,1.924,1.752,2.744,2.709a16.018,16.018,0,0,1,3.807,10.9c-.038,6.71-.014,13.421-.016,20.131v.845h25.994v-.541c0-6.037.018-12.074-.016-18.111a37.615,37.615,0,0,0-.288-5.46c-.768-5.016-5.265-9.579-10.277-10.172-3.134-.371-6.33-.221-9.5-.3-.035,0-.072.056-.141.113,0,1.366.016,2.76-.006,4.153a1.422,1.422,0,0,1-1.442,1.479,1.442,1.442,0,0,1-1.429-1.5c-.013-.312,0-.625,0-.938,0-1.1,0-2.193,0-3.311Zm-22.287,28.851v5.744h25.939v-.593c0-6.954.012-13.907-.014-20.861a14.136,14.136,0,0,0-.312-2.934,12.966,12.966,0,0,0-10.587-10.038,12.949,12.949,0,0,0-12.955,5.74c-.536.824-.93,1.74-1.452,2.734h1.012q8.337,0,16.675,0c1.372,0,1.859.491,1.859,1.871q0,8.229-.006,16.458c0,1.415-.475,1.878-1.922,1.878h-18.236Zm17.251-15.753c-.319.239-.529.393-.735.553q-4.786,3.714-9.573,7.429a1.581,1.581,0,0,1-2.437,0q-3.506-2.718-7.006-5.443c-1.072-.833-2.145-1.664-3.281-2.545v12.814h23.032Zm-11.526,5.249,8.687-6.764H2858.8Zm31.717,19.221h-20.129c-.167,2.41.224,2.838,2.538,2.838,5.027,0,10.054-.042,15.079.019C2898.9-1247.084,2899.451-1247.7,2899.215-1249.968Zm-7.222,15.22v-9.441H2886.3v9.441Zm11.735-62.377c-.443-.666-.832-1.261-1.231-1.849a1.619,1.619,0,0,1,.006-2c.406-.583.79-1.182,1.228-1.841h-7.311v5.694Z" transform="translate(-2853.054 1305.75)" fill="#fff"/>
                    <path id="Trazado_192880" data-name="Trazado 192880" d="M3204.573-1148.776c0,.625.019,1.251,0,1.875a1.41,1.41,0,0,1-1.42,1.42,1.417,1.417,0,0,1-1.445-1.4,38,38,0,0,0-.119-3.814,7.168,7.168,0,0,0-6.939-6.316c-.656-.039-1.255-.226-1.441-.858a1.883,1.883,0,0,1,.139-1.4,1.667,1.667,0,0,1,1.19-.62,10.044,10.044,0,0,1,9.89,8.382c.121.9.145,1.815.213,2.724Z" transform="translate(-3143.934 1180.992)" fill="#fff"/>
                    <path id="Trazado_192881" data-name="Trazado 192881" d="M3255.2-1038.837a1.444,1.444,0,0,1-1.38,1.458,1.452,1.452,0,0,1-1.5-1.419,1.443,1.443,0,0,1,1.379-1.458A1.454,1.454,0,0,1,3255.2-1038.837Z" transform="translate(-3194.561 1078.663)" fill="#fff"/>
                  </g>
                </g>
              </g>
            </g>
          </g>
        </g>
      </g>
    </g>
  </g>
</svg>
