<svg xmlns="http://www.w3.org/2000/svg" width="112" height="112" viewBox="0 0 112 112">
  <g id="Grupo_1078099" data-name="Grupo 1078099" transform="translate(6128 4405.338)">
    <g id="Grupo_1078098" data-name="Grupo 1078098">
      <g id="Grupo_1078097" data-name="Grupo 1078097">
        <g id="Grupo_1078096" data-name="Grupo 1078096">
          <g id="Grupo_1078095" data-name="Grupo 1078095">
            <g id="Grupo_1078094" data-name="Grupo 1078094">
              <g id="Grupo_1078093" data-name="Grupo 1078093">
                <g id="Grupo_1078092" data-name="Grupo 1078092">
                  <circle id="Elipse_10570" data-name="Elipse 10570" cx="56" cy="56" r="56" transform="translate(-6128 -4405.338)" fill="#12263f"/>
                  <g id="R5jWQj.tif" transform="translate(-9698.438 -3985.224)">
                    <g id="Grupo_151172" data-name="Grupo 151172" transform="translate(3601.438 -399.894)">
                      <path id="Trazado_192843" data-name="Trazado 192843" d="M3080.38-159.815c-1.712-1.28-2.259-2.579-1.728-4.051a3.222,3.222,0,0,1,3.181-2.123,3.14,3.14,0,0,1,2.905,2.367c.419,1.45-.161,2.71-1.772,3.771q1.432,2.785,2.871,5.583,9.842,19.171,19.678,38.345a3.006,3.006,0,0,1,.4,1.106c.09,1.383-1.088,2.1-2.44,1.51q-7.938-3.478-15.87-6.969c-1.771-.778-3.552-1.535-5.309-2.341a1.361,1.361,0,0,0-1.246.015c-6.985,3.089-13.981,6.153-20.962,9.25a1.955,1.955,0,0,1-1.83,0,1.525,1.525,0,0,1-.6-2.174c.727-1.467,1.489-2.918,2.237-4.375l20.3-39.532C3080.26-159.564,3080.32-159.693,3080.38-159.815Zm11.5,28.958a4.094,4.094,0,0,0-.34-.3c-3.184-2.157-6.375-4.3-9.548-6.477-.413-.283-.659-.118-.982.106q-4.5,3.112-9.012,6.208c-.171.118-.325.261-.554.446,3.369,1.477,6.632,2.914,9.905,4.325a1.072,1.072,0,0,0,.761-.038C3085.341-127.985,3088.561-129.4,3091.883-130.857Zm-5.115-14.538-5.1-9.913-5.189,10.13,5.074,3.373Zm-18.685,16.54-5.473,10.671.11.129,14.968-6.573Zm27.182.017-9.589,4.218,14.947,6.56.1-.147ZM3084.4-139.866l7.687,5.192.118-.128-3.962-7.691Zm-13.283,5.054.13.091,7.463-5.125-3.7-2.5Z" transform="translate(-3057.438 178.526)" fill="#fff"/>
                      <path id="Trazado_192844" data-name="Trazado 192844" d="M3077.051-249.894l2.189,2.2a19.041,19.041,0,0,0-5.522,13.529,19.022,19.022,0,0,0,5.509,13.5l-2.23,2.117C3068.719-226.217,3067.921-241.033,3077.051-249.894Z" transform="translate(-3068.543 249.894)" fill="#fff"/>
                      <path id="Trazado_192845" data-name="Trazado 192845" d="M3313.453-217.99l-2.1-2.134q10.882-13.5.009-27.094l2.095-2.086A22.147,22.147,0,0,1,3313.453-217.99Z" transform="translate(-3273.42 249.393)" fill="#fff"/>
                      <path id="Trazado_192846" data-name="Trazado 192846" d="M3117.717-219.394l2.206,2.211a12.525,12.525,0,0,0-3.677,8.945,12.423,12.423,0,0,0,3.615,8.881l-2.244,2.167C3111.69-202.632,3111.239-213.23,3117.717-219.394Z" transform="translate(-3104.711 223.951)" fill="#fff"/>
                      <path id="Trazado_192847" data-name="Trazado 192847" d="M3280.218-198.844a12.787,12.787,0,0,0-.1-17.854l2.212-2.091c5.836,5.122,6.6,15.946-.025,22.223Z" transform="translate(-3246.849 223.436)" fill="#fff"/>
                      <path id="Trazado_192848" data-name="Trazado 192848" d="M3250.448-178.12a6.644,6.644,0,0,0-.094-8.947l2.18-2.109c3.422,2.992,3.985,9.482.075,13.273Z" transform="translate(-3221.531 198.248)" fill="#fff"/>
                      <path id="Trazado_192849" data-name="Trazado 192849" d="M3158.415-176.1a9.5,9.5,0,0,1,.081-13.3l2.151,2.207a6.589,6.589,0,0,0-.012,8.9Z" transform="translate(-3141.052 198.446)" fill="#fff"/>
                    </g>
                  </g>
                </g>
              </g>
            </g>
          </g>
        </g>
      </g>
    </g>
  </g>
</svg>
