<svg xmlns="http://www.w3.org/2000/svg" xmlns:xlink="http://www.w3.org/1999/xlink" width="188.334" height="313.373" viewBox="0 0 188.334 313.373">
  <defs>
    <linearGradient id="linear-gradient" x1="0.5" x2="0.5" y2="1" gradientUnits="objectBoundingBox">
      <stop offset="0" stop-color="#fff"/>
      <stop offset="1" stop-color="#d3d3d3"/>
    </linearGradient>
    <clipPath id="clip-path">
      <path id="Trazado_85321" data-name="Trazado 85321" d="M129.7,412.408l-.037,5.54c-.021,7.131-4.707,14.252-14.071,19.693-18.847,10.953-49.5,10.953-68.474,0C37.568,432.129,32.8,424.9,32.821,417.672l.039-5.54c-.021,7.225,4.747,14.459,14.293,19.97,18.971,10.953,49.627,10.953,68.474,0C124.99,426.661,129.675,419.541,129.7,412.408Z" transform="translate(-32.821 -412.132)" fill="#cdd1f6"/>
    </clipPath>
    <clipPath id="clip-path-2">
      <path id="Trazado_85346" data-name="Trazado 85346" d="M129.7,389.346l-.037,5.54c-.021,7.131-4.707,14.252-14.071,19.693-18.847,10.953-49.5,10.953-68.474,0-9.546-5.512-14.313-12.746-14.293-19.969l.039-5.54c-.021,7.225,4.747,14.459,14.293,19.97,18.971,10.953,49.627,10.953,68.474,0C124.99,403.6,129.675,396.479,129.7,389.346Z" transform="translate(-32.821 -389.07)" fill="#cdd1f6"/>
    </clipPath>
    <clipPath id="clip-path-3">
      <path id="Trazado_85371" data-name="Trazado 85371" d="M129.7,366.365l-.037,5.539c-.021,7.132-4.707,14.252-14.071,19.693-18.847,10.953-49.5,10.953-68.474,0-9.546-5.51-14.313-12.746-14.293-19.969l.039-5.539c-.021,7.224,4.747,14.459,14.293,19.969,18.971,10.953,49.627,10.953,68.474,0C124.99,380.617,129.675,373.5,129.7,366.365Z" transform="translate(-32.821 -366.089)" fill="#cdd1f6"/>
    </clipPath>
    <clipPath id="clip-path-4">
      <path id="Trazado_85396" data-name="Trazado 85396" d="M129.7,342.681l-.037,5.539c-.021,7.131-4.707,14.252-14.071,19.693-18.847,10.952-49.5,10.952-68.474,0C37.568,362.4,32.8,355.167,32.821,347.943l.039-5.54c-.021,7.225,4.747,14.459,14.293,19.97,18.971,10.953,49.627,10.953,68.474,0C124.99,356.932,129.675,349.812,129.7,342.681Z" transform="translate(-32.821 -342.403)" fill="#cdd1f6"/>
    </clipPath>
  </defs>
  <g id="Grupo_1078023" data-name="Grupo 1078023" transform="translate(-1125 -4635.625)">
    <g id="Grupo_1078022" data-name="Grupo 1078022">
      <g id="Grupo_1078021" data-name="Grupo 1078021">
        <g id="Grupo_1078020" data-name="Grupo 1078020">
          <g id="Grupo_1076322" data-name="Grupo 1076322" transform="translate(9.324 250.625)">
            <g id="Grupo_151572" data-name="Grupo 151572" transform="translate(1115.676 4385)">
              <g id="Grupo_53152" data-name="Grupo 53152" transform="translate(30.233 59.951)">
                <path id="Trazado_98869" data-name="Trazado 98869" d="M190.684,228.311l-1.236-2.007a5.431,5.431,0,0,0-2.739,0,11.279,11.279,0,0,0-3.908,3.655l3.151,7.071" transform="translate(-182.801 -226.112)" fill="#173d7a"/>
                <path id="Trazado_98870" data-name="Trazado 98870" d="M212.089,256.033s-14.266.486-17.319-1.961S164.5,226.947,164.5,226.947a3.431,3.431,0,0,0-3.593.244c-1.716,1.3-3.368,4.67-3.368,4.67s21.139,32.935,24.038,34.931,29.922,4.654,29.922,4.654" transform="translate(-157.369 -225.682)" fill="#173d7a"/>
                <path id="Trazado_98871" data-name="Trazado 98871" d="M184.724,260.643c2.4,1.651,17.394,2.587,27.365,3.753l-.592,5.4s-27.022-2.659-29.922-4.654-24.038-34.931-24.038-34.931.463-.936,1.145-2.009C161.016,231.262,181.988,258.759,184.724,260.643Z" transform="translate(-157.369 -224.028)" fill="#173d7a"/>
              </g>
              <path id="Trazado_98872" data-name="Trazado 98872" d="M148.459,353.469a71.325,71.325,0,0,1-1.611-13.633c-.214-7.839,1.94-16.2,11.593-17.6,15.1-2.179,31.135-.39,46.14,1.743,12.419,1.767,28.612,1.755,38.724,9.408,15.531,11.754-4.568,26.708-15.387,33.437-20.726,12.891-50.753,29.283-70.5,5.612A44.381,44.381,0,0,1,148.459,353.469Z" transform="translate(-146.833 -71.096)" fill="#92b4d1" opacity="0.2"/>
              <path id="Trazado_98873" data-name="Trazado 98873" d="M194.581,345.716v.122a.662.662,0,0,1-.02.142.5.5,0,0,0-.042.184c-.222.792-1.136,2.841-4.608,3.451a6.309,6.309,0,0,1-.65.08,1.189,1.189,0,0,1-.262.042,21.8,21.8,0,0,1-2.6.04c-.284-.02-.568-.04-.854-.082-3.775-.77-7.287-3.675-8.2-4.466-.162-.142-.244-.222-.244-.222v-.712s-2.5-1.663-3.411-2.211c-2.781-1.645-6.779-3.045-10.6-4.934a11.2,11.2,0,0,1-2.679-1.807c-.122-.12-.244-.264-.366-.364a2.364,2.364,0,0,1-.224-.224c-.08-.1-.142-.224-.224-.324-.162-.224-.3-.428-.426-.61-.06-.122-.122-.224-.162-.3l-.142-.286a1.753,1.753,0,0,1-.1-.3v-.02a4.975,4.975,0,0,1-.224-1.441v-2.5l23.245,9.52,12.707,4.75Z" transform="translate(-112.925 -63.383)" fill="#190b05"/>
              <path id="Trazado_98874" data-name="Trazado 98874" d="M180.442,329.731a91.986,91.986,0,0,1-10.238-1.262c-6.344-1.086-10.72-1.4-11.542.582-.794,1.919-.978,3.974,4.69,7.853s10.052,4.282,14.59,7.937a15.866,15.866,0,0,0,9.774,3.583c3.383.234,5.666-1.064,6.4-2.443,1.713-3.2-.06-9.269-.06-9.269" transform="translate(-112.697 -64.742)" fill="#64549d"/>
              <path id="Trazado_98875" data-name="Trazado 98875" d="M206.091,341.776l.022,3.151a2.958,2.958,0,0,1-1.6,2.723,4.419,4.419,0,0,1-1.371.386,48.126,48.126,0,0,1-9.99-.488v-1.164s-2.155-.24-8.5-1.03a37.876,37.876,0,0,1-13.151-3.917,2.855,2.855,0,0,1-1.519-2.527l.012-2.305,24.97,4.4Z" transform="translate(-143.322 -55.751)" fill="#190b05"/>
              <path id="Trazado_98876" data-name="Trazado 98876" d="M188.349,333.66s-2.779,2.615-6.048,2.615-9.646-.082-11.282,1.064a2.682,2.682,0,0,0-1.278,2.043,4.142,4.142,0,0,0,.87,2.533c1.226,1.8,9.482,4.5,15.694,4.988s6.54.408,9.482.9,6,.724,7.855-.194c3.2-1.587,3.425-6.425,1.463-9.614S188.349,333.66,188.349,333.66Z" transform="translate(-143.129 -58.695)" fill="#64549d"/>
              <path id="Trazado_98877" data-name="Trazado 98877" d="M186.647,234.828l.508,1.178-.772,3.9-12.423,6.252-.732-.1-1.989-.244-3.127-.406v-4.3a5.647,5.647,0,0,0-3.227-5.238,1.3,1.3,0,0,0-.142-.06,6.034,6.034,0,0,1-2.111-1.421l-.184-.184c-2.4-2.537-4.526-8.241-3.919-20.726.122-2.171.61-5.948,1.605-7.877,1.805-3.471,5.642-5.764,13.559-3.593,13.2,3.655,18.961,9.642,19.631,14.82C193.994,221.979,186.647,234.828,186.647,234.828Z" transform="translate(-111.563 -191.098)" fill="#ffd0a3"/>
              <path id="Trazado_98878" data-name="Trazado 98878" d="M172.72,228.056v-4.3a5.647,5.647,0,0,0-3.227-5.238c.65.284,2.651,1.246,5.318,2.673,1.068.572,1.036,4.007,1.036,7.273Z" transform="translate(-114.447 -173.751)" fill="#f1b987"/>
              <g id="Grupo_53154" data-name="Grupo 53154" transform="translate(7.34 36.655)">
                <g id="Grupo_53153" data-name="Grupo 53153" transform="translate(0)">
                  <path id="Trazado_98879" data-name="Trazado 98879" d="M218.065,255.219l-22.2,11.406a2.291,2.291,0,0,1-3.235-1.355l-11.2-35.85A2.908,2.908,0,0,1,182.829,226l22.026-11.308a2.091,2.091,0,0,1,2.955,1.323l11.4,36.486A2.292,2.292,0,0,1,218.065,255.219Z" transform="translate(-181.308 -214.459)" fill="#12263f"/>
                  <path id="Trazado_98880" data-name="Trazado 98880" d="M215.444,253.534,195.8,263.686a2.12,2.12,0,0,1-2.995-1.25l-10.428-33.3c-.438-1.629-.362-2.341,1.287-3.159l20.55-10.618a.924.924,0,0,1,1.309.586L216.5,251.019A2.12,2.12,0,0,1,215.444,253.534Z" transform="translate(-180.266 -213.664)" fill="url(#linear-gradient)"/>
                  <path id="Trazado_98881" data-name="Trazado 98881" d="M194.886,230.185l-7.271,3.753a.35.35,0,0,1-.5-.22l-2.005-6.645a.381.381,0,0,1,.182-.446l7.273-3.753a.351.351,0,0,1,.5.22l2,6.645A.376.376,0,0,1,194.886,230.185ZM200.23,247,194.6,249.9a.27.27,0,0,1-.382-.172L189.8,235.609a.3.3,0,0,1,.142-.346l5.632-2.907a.271.271,0,0,1,.384.172l4.414,14.123A.293.293,0,0,1,200.23,247Zm3.285-12.657-4.316,2.227a.207.207,0,0,1-.294-.132l-.068-.278a.223.223,0,0,1,.108-.264l4.318-2.227a.208.208,0,0,1,.294.132l.066.276A.225.225,0,0,1,203.515,234.34ZM199.946,238a.369.369,0,0,1-.522-.234l-.118-.49a.4.4,0,0,1,.192-.47l7.647-3.947a.369.369,0,0,1,.522.234l.118.49a.4.4,0,0,1-.192.47m.432,1.425-7.647,3.946a.369.369,0,0,1-.522-.232l-.118-.492a.4.4,0,0,1,.192-.47l7.647-3.946a.371.371,0,0,1,.522.234l.118.49A.4.4,0,0,1,208.025,235.475Zm.434,1.425-7.649,3.947a.369.369,0,0,1-.522-.232l-.118-.492a.4.4,0,0,1,.192-.468l7.647-3.947a.369.369,0,0,1,.522.232l.118.492A.4.4,0,0,1,208.459,236.9Zm.432,1.427-7.649,3.947a.368.368,0,0,1-.52-.234l-.118-.49a.4.4,0,0,1,.19-.47l7.649-3.947a.367.367,0,0,1,.52.232l.118.492A.4.4,0,0,1,208.891,238.328Zm.432,1.425-7.649,3.947a.367.367,0,0,1-.52-.234l-.118-.49a.4.4,0,0,1,.19-.47l7.649-3.947a.368.368,0,0,1,.52.234l.118.49A.4.4,0,0,1,209.323,239.753Zm-4.272-13.975-7.975,4.114a.384.384,0,0,1-.544-.242l-2.2-7.287a.415.415,0,0,1,.2-.49l7.977-4.116a.386.386,0,0,1,.544.244l2.2,7.287A.416.416,0,0,1,205.051,225.779Z" transform="translate(-179.105 -211.205)" fill="#173d7a" opacity="0.55"/>
                </g>
                <path id="Trazado_98882" data-name="Trazado 98882" d="M205.462,246.011l-4.248,3.537-.8.67s-.974-4.074-2.691-5.618a11.08,11.08,0,0,0-3.289-1.483,2.629,2.629,0,0,1-1.411-.948c-.83-1.134-2.053-3.623-1.411-7.945a4.8,4.8,0,0,1,.552-1.789.046.046,0,0,0,.014-.03c.524-.9,1.18-.872,1.18-.872s2.867,2.037,3.7,2.647c.684.51,1.557,1.5,2.227.758.362-.378-1.733-3.027-2.315-4.234s.54-2.519,1.034-2.053a29.249,29.249,0,0,1,4.612,7.305C203.8,239.069,205.462,246.011,205.462,246.011Z" transform="translate(-187.696 -200.377)" fill="#ffd0a3"/>
                <path id="Trazado_98883" data-name="Trazado 98883" d="M203.825,244.6l-.974,3.027-.8.67s-.974-4.074-2.691-5.618a11.08,11.08,0,0,0-3.289-1.483,2.63,2.63,0,0,1-1.411-.948c-.83-1.134-2.053-3.623-1.411-7.945a4.8,4.8,0,0,1,.552-1.789.046.046,0,0,0,.014-.03s.03.744,1.21,1.791a29.606,29.606,0,0,0,3.739,2.517,11.278,11.278,0,0,1,2.881,4.336C202.444,241.045,203.825,244.6,203.825,244.6Z" transform="translate(-189.334 -198.452)" fill="#f1b987"/>
                <path id="Trazado_98884" data-name="Trazado 98884" d="M192.19,243.186l-.742-2.371a1.861,1.861,0,0,1,.092-1.367,11.125,11.125,0,0,1,1.943-3,2.928,2.928,0,0,1,3.555-.576,5.2,5.2,0,0,1,.924,1.791,6,6,0,0,1,.182,2.117c-.064.16-1.575,2.325-1.751,2.515A40.549,40.549,0,0,1,192.19,243.186Z" transform="translate(-180.267 -193.442)" fill="#eee"/>
              </g>
              <path id="Trazado_98885" data-name="Trazado 98885" d="M182.993,285.526c-2.943,16.078-5.054,36.012-5.054,36.012s4.912,39.931-.61,74.705c-.242,1.645-.812,5.116-2.923,6.476a7.909,7.909,0,0,1-6.821-.04c-.1-.06-.2-.1-.3-.162-8.241-4.506-7.369-10.354-8.567-14.191.02-15.468,1.645-53.532-1.643-61.9l-2.945-33.737,1.076-24.119h29.517v.082l.142-.082S187.379,275.052,182.993,285.526Z" transform="translate(-101.439 -123.73)" fill="#00223d"/>
              <path id="Trazado_98886" data-name="Trazado 98886" d="M178.879,286.176c-2.781,9.135-6.354,32.987-7.105,38.815,0,0,2.741,45.938.406,77.526-8.241-4.506-7.369-10.354-8.567-14.191.02-15.468,1.645-53.532-1.643-61.9l-2.945-33.737,1.076-24.119h20.3A44.729,44.729,0,0,1,178.879,286.176Z" transform="translate(-100.466 -123.73)" fill="#031422"/>
              <path id="Trazado_98887" data-name="Trazado 98887" d="M202.706,272.81a47.324,47.324,0,0,1-6.376,15.428c-.568.852-1.076,1.725-1.563,2.6-.1.406-1.541,5.806-3.329,13.053-1.807,7.247-3.959,16.342-5.5,24.077.854,9.7,3.249,43.685-1.319,73.12a5.394,5.394,0,0,1-3.876,4.386,9.671,9.671,0,0,1-3.249.344,8.139,8.139,0,0,1-2.719-.65c-4.832-2.029-8.323-9.764-8.323-9.764s-.122-48.883-2.661-61.712a57.409,57.409,0,0,1-.892-7.409c-.468-7.857-1.32-22.19-1.585-28.177-.506-11.654-.588-21.438-.182-25.8l24.179.3Z" transform="translate(-124.498 -120.006)" fill="#00223d"/>
              <path id="Trazado_98888" data-name="Trazado 98888" d="M194.011,272.606c-.122,1.441-.2,2.4-.2,2.4a60.7,60.7,0,0,1-3.309,15.224c-3.087,9.134-6.144,30.8-6.47,38.915-.324,7.471,3.649,43.078,2.165,76.675a8.139,8.139,0,0,1-2.719-.65c-4.832-2.029-8.323-9.764-8.323-9.764s-.122-48.883-2.661-61.712a57.409,57.409,0,0,1-.892-7.409c-.468-7.857-1.319-22.19-1.585-28.177-.506-11.654-.588-21.438-.182-25.8Z" transform="translate(-131.6 -120.006)" fill="#031422"/>
              <path id="Trazado_98889" data-name="Trazado 98889" d="M207.994,258.837c-3.9,11.836-6.09,31.284-3.735,39.4a147.029,147.029,0,0,1,3.735,19.629c-2.213,6.092-22.837,19.287-34.347,20.3a17.28,17.28,0,0,1-4.222-.162c-10.13-1.5-19.631-10.494-19.631-10.494s2.191-33.333,3.553-54.649c.912-14.171,3-23,4.322-27.324a32.447,32.447,0,0,1,1.1-3.209c1.218-1.6,4.85-4.324,9.48-7.369a.339.339,0,0,0,.1-.04c3.107-2.071,6.639-4.262,10.192-6.354h.02c4.73-2.8,9.5-5.42,13.317-7.329.446-.224.874-.426,1.279-.61a30.359,30.359,0,0,1,5.866-2.4c5.42-1.014,12.687,1.847,14.88,11.674C216.115,239.714,211.873,246.981,207.994,258.837Z" transform="translate(-119.26 -174.223)" fill="#173d7a"/>
              <path id="Trazado_98890" data-name="Trazado 98890" d="M186.563,285.379c-.69,9.095.692,31.792,1.22,39.911-10.13-1.5-19.631-10.494-19.631-10.494s2.191-33.333,3.553-54.649c.912-14.171,3-23,4.322-27.324,1.1-1.26,1.807-2.051,1.807-2.051h13.357s6.943,1.421,4.426,17.235C193.061,263.821,187.4,274.215,186.563,285.379Z" transform="translate(-131.073 -161.504)" fill="#13356a"/>
              <path id="Trazado_98891" data-name="Trazado 98891" d="M203.5,206.747" transform="translate(-202.519 -185.511)" fill="#cbcbcb"/>
              <path id="Trazado_98892" data-name="Trazado 98892" d="M185.029,224.332c-2.029,2.781-9.31,6.8-12.661,7.513a29.82,29.82,0,0,1-7.639.324,9.72,9.72,0,0,0-4.588,1.461.338.338,0,0,1-.1.04.069.069,0,0,1-.042.02l1.989-3.025,2.315-1.481s3.391-1.238,4.14-1.583a8.641,8.641,0,0,1,1.889-.324h.02c2.009-.244,4.892-.448,5.338-.508.63-.082,5.868-3.675,6.092-3.816.122-.082,1.156-1.787,1.887-3,.446-.224.874-.426,1.279-.61A3.877,3.877,0,0,1,185.029,224.332Z" transform="translate(-107.165 -172.929)" fill="#64549d"/>
              <path id="Trazado_98893" data-name="Trazado 98893" d="M192.835,222.315c-1.138,6.781-6.881,17.437-9.784,18.413a17.1,17.1,0,0,1-4.792.914,4.573,4.573,0,0,1-4.71-3.737,21.8,21.8,0,0,0-1.967-6.13c-2.031-3.757-4.69-5.726-6.03-5.014-1.339.69-1.2,3.1-1.2,3.1l-.874-.02s-.082-.772-.2-1.807c-.1-1.014-.2-2.313-.264-3.309a11.513,11.513,0,0,0-2.335-7.023,27.8,27.8,0,0,1-3.249-5.988,10.984,10.984,0,0,1-.812-5.36v-.02c.548-5.218,2.673-7.355,4.69-8.831,6.565-4.808,20.3,4.12,25.374,8.383a17.469,17.469,0,0,1,5.684,8.081v.02A17.421,17.421,0,0,1,192.835,222.315Z" transform="translate(-108.17 -196.125)" fill="#00223d"/>
              <path id="Trazado_98894" data-name="Trazado 98894" d="M184.532,219.761l-1.258-1.17a29.214,29.214,0,0,1-19.031,9.388,16.242,16.242,0,0,0-3.811,6.468l1.729-1.118a7.7,7.7,0,0,1,2.993-1.166c.68-.108,2.183-.182,2.183-.182,6.779-.094,13.527-4.826,17.055-7.749A2.973,2.973,0,0,0,184.532,219.761Z" transform="translate(-107.517 -173.676)" fill="#fff"/>
              <path id="Trazado_98895" data-name="Trazado 98895" d="M194.158,237.9" transform="translate(-172.463 -154.376)" fill="none" stroke="#381e1e" stroke-miterlimit="10" stroke-width="0.759"/>
              <path id="Trazado_98896" data-name="Trazado 98896" d="M200.547,222.556" transform="translate(-193.668 -169.714)" fill="none" stroke="#381e1e" stroke-miterlimit="10" stroke-width="0.759"/>
              <path id="Trazado_98897" data-name="Trazado 98897" d="M176.042,331.713a3.429,3.429,0,0,0,.428.616C176.3,332.1,176.158,331.9,176.042,331.713Z" transform="translate(-126.915 -60.64)" fill="#474747"/>
              <path id="Trazado_98898" data-name="Trazado 98898" d="M176.041,332.339c-.09-.1-.142-.216-.222-.318.13.17.27.348.446.542A2.141,2.141,0,0,1,176.041,332.339Z" transform="translate(-126.316 -60.332)" fill="#474747"/>
              <path id="Trazado_98899" data-name="Trazado 98899" d="M218.743,243.609c-1.28,7.471-15.53,29.213-16.12,30.085a104.554,104.554,0,0,1-7.125,10.17h-.02c-1.887,2.355-3.451,3.879-4.426,4.162a4.623,4.623,0,0,1-.568.142,7.664,7.664,0,0,1-8.993-5.014,157.884,157.884,0,0,1-7.431-16.24c-1.887-5.136-3.025-11.41-4.242-16.526a4.991,4.991,0,0,1,.508-3.653c.062-.082.1-.184.162-.264.792-1.32,1.889-2.8,2.863-2.965,1.787-.264,2.131.2,2.131.2s3.269,5.258,5.868,9.316a76.771,76.771,0,0,1,5.176,10.964c.244.69.406,1.1.406,1.1,4.71-10.942,10.862-24.381,13.359-30a10.149,10.149,0,0,1,16.989-2.537,2.207,2.207,0,0,0,.2.244,4.06,4.06,0,0,1,.67,1.359l.02-.02.04.04C218.457,234.474,219.94,236.625,218.743,243.609Z" transform="translate(-157.054 -163.277)" fill="#13356a"/>
              <path id="Trazado_98900" data-name="Trazado 98900" d="M192.835,217.2c-1.138,6.781-6.881,17.437-9.784,18.413a17.1,17.1,0,0,1-4.792.914,4.573,4.573,0,0,1-4.71-3.737,21.8,21.8,0,0,0-1.967-6.13c-2.031-3.757-4.69-5.726-6.03-5.014-1.339.69-1.2,3.1-1.2,3.1l-.874-.02s-.082-.772-.2-1.807c-.1-1.014-.2-2.313-.264-3.309a11.513,11.513,0,0,0-2.335-7.023,27.8,27.8,0,0,1-3.249-5.988,10.984,10.984,0,0,1-.812-5.36,30,30,0,0,0,21.4,17.6c15.956,3.349,14.454-9.318,14.353-9.968A17.421,17.421,0,0,1,192.835,217.2Z" transform="translate(-108.17 -191.009)" fill="#00223d"/>
              <path id="Trazado_98901" data-name="Trazado 98901" d="M187.26,246.5c.244.69.406,1.1.406,1.1a14.8,14.8,0,0,0-1.28,6.6A8.3,8.3,0,0,1,187.26,246.5Z" transform="translate(-155.241 -145.787)" fill="#173d7a"/>
              <path id="Trazado_98902" data-name="Trazado 98902" d="M218.213,231.594l-.06-.02s.488,6.232-5.42,16.626c-5.924,10.408-18.493,35.279-24.707,34.593-3.273-.362-10.494-15.734-13.195-22.919a120.417,120.417,0,0,1-4.344-15.976c-.06.08-.1.182-.162.264a4.991,4.991,0,0,0-.508,3.653c1.218,5.116,2.355,11.39,4.242,16.526a157.876,157.876,0,0,0,7.431,16.24,7.666,7.666,0,0,0,8.993,4.986v.028a4.623,4.623,0,0,0,.568-.142c.976-.284,2.539-1.807,4.426-4.162h.02a104.558,104.558,0,0,0,7.125-10.17c.59-.872,14.84-22.613,16.12-30.085C219.94,234.051,218.457,231.9,218.213,231.594Z" transform="translate(-157.054 -160.703)" fill="#173d7a"/>
            </g>
            <g id="Grupo_151573" data-name="Grupo 151573" transform="translate(1207.134 4531.194)">
              <g id="Grupo_34494" data-name="Grupo 34494" transform="translate(0 89.609)">
                <g id="Grupo_34493" data-name="Grupo 34493" style="isolation: isolate">
                  <g id="Grupo_34491" data-name="Grupo 34491" transform="translate(0 27.906)" style="isolation: isolate">
                    <path id="Trazado_85315" data-name="Trazado 85315" d="M129.7,412.408l-.037,5.54c-.021,7.131-4.707,14.252-14.071,19.693-18.847,10.953-49.5,10.953-68.474,0C37.568,432.129,32.8,424.9,32.821,417.672l.039-5.54c-.021,7.225,4.747,14.459,14.293,19.97,18.971,10.953,49.627,10.953,68.474,0C124.99,426.661,129.675,419.541,129.7,412.408Z" transform="translate(-32.821 -412.132)" fill="#cdd1f6"/>
                    <g id="Grupo_34490" data-name="Grupo 34490" clip-path="url(#clip-path)">
                      <g id="Grupo_34489" data-name="Grupo 34489" style="isolation: isolate">
                        <path id="Trazado_85316" data-name="Trazado 85316" d="M109.338,412.347l-.037,5.54a19.128,19.128,0,0,1-5.075,12.458l.039-5.539a19.122,19.122,0,0,0,5.074-12.459Z" transform="translate(-12.463 -412.071)" fill="#cdd1f6"/>
                        <path id="Trazado_85317" data-name="Trazado 85317" d="M107.348,422.042l-.039,5.539a34.949,34.949,0,0,1-9,7.235,50.909,50.909,0,0,1-4.9,2.492l.037-5.539a50.77,50.77,0,0,0,4.9-2.492,34.972,34.972,0,0,0,9-7.235Z" transform="translate(-15.547 -409.307)" fill="#cdd1f6"/>
                        <path id="Trazado_85318" data-name="Trazado 85318" d="M101.84,429.611l-.037,5.539c-10.993,4.868-24.783,6.631-37.824,5.286l.039-5.539c13.041,1.346,26.832-.418,37.823-5.286Z" transform="translate(-23.938 -407.149)" fill="#cdd1f6"/>
                        <path id="Trazado_85319" data-name="Trazado 85319" d="M68.443,434.814l-.039,5.539a70.459,70.459,0,0,1-19.952-4.914l.039-5.539a70.45,70.45,0,0,0,19.952,4.914Z" transform="translate(-28.365 -407.066)" fill="#cdd1f6"/>
                        <path id="Trazado_85320" data-name="Trazado 85320" d="M52.947,434.966l-.039,5.539a51.572,51.572,0,0,1-5.795-2.863C37.568,432.129,32.8,424.9,32.821,417.672l.039-5.54c-.021,7.225,4.747,14.459,14.293,19.97a51.674,51.674,0,0,0,5.795,2.863Z" transform="translate(-32.821 -412.132)" fill="#cdd1f6"/>
                      </g>
                    </g>
                  </g>
                  <g id="Grupo_34492" data-name="Grupo 34492" transform="translate(0.038)">
                    <path id="Trazado_85322" data-name="Trazado 85322" d="M115.394,398.631c18.971,10.952,19.07,28.709.224,39.662s-49.5,10.953-68.474,0-19.07-28.71-.224-39.662S96.424,387.678,115.394,398.631Z" transform="translate(-32.851 -390.417)" fill="#e8ecf2"/>
                  </g>
                </g>
              </g>
              <g id="Grupo_34496" data-name="Grupo 34496" transform="translate(0.925 69.866)">
                <g id="Grupo_34495" data-name="Grupo 34495">
                  <path id="Trazado_85323" data-name="Trazado 85323" d="M114.54,397.005c18.615,10.747,18.712,28.173.218,38.921s-48.575,10.747-67.19,0-18.715-28.172-.22-38.921S95.925,386.258,114.54,397.005Z" transform="translate(-33.541 -371.094)" fill="#00223d"/>
                  <path id="Trazado_85324" data-name="Trazado 85324" d="M114.54,396.137c18.615,10.747,18.712,28.172.218,38.919s-48.575,10.748-67.19,0-18.715-28.172-.22-38.921S95.925,385.39,114.54,396.137Z" transform="translate(-33.541 -371.341)" fill="#00223d"/>
                  <path id="Trazado_85325" data-name="Trazado 85325" d="M114.54,395.269c18.615,10.747,18.712,28.172.218,38.919s-48.575,10.749-67.19,0-18.715-28.172-.22-38.921S95.925,384.522,114.54,395.269Z" transform="translate(-33.541 -371.589)" fill="#00223d"/>
                  <path id="Trazado_85326" data-name="Trazado 85326" d="M114.54,394.4c18.615,10.747,18.712,28.172.218,38.919s-48.575,10.749-67.19,0-18.715-28.171-.22-38.919S95.925,383.654,114.54,394.4Z" transform="translate(-33.541 -371.836)" fill="#00223d"/>
                  <path id="Trazado_85327" data-name="Trazado 85327" d="M114.54,393.533c18.615,10.747,18.712,28.172.218,38.919s-48.575,10.747-67.19,0-18.715-28.172-.22-38.919S95.925,382.786,114.54,393.533Z" transform="translate(-33.541 -372.083)" fill="#00223d"/>
                  <path id="Trazado_85328" data-name="Trazado 85328" d="M114.54,392.665c18.615,10.747,18.712,28.172.218,38.919s-48.575,10.747-67.19,0-18.715-28.172-.22-38.919S95.925,381.918,114.54,392.665Z" transform="translate(-33.541 -372.331)" fill="#00223d"/>
                  <path id="Trazado_85329" data-name="Trazado 85329" d="M114.54,391.8c18.615,10.747,18.712,28.172.218,38.921s-48.575,10.747-67.19,0-18.715-28.172-.22-38.921S95.925,381.049,114.54,391.8Z" transform="translate(-33.541 -372.579)" fill="#00223d"/>
                  <path id="Trazado_85330" data-name="Trazado 85330" d="M114.54,390.928c18.615,10.747,18.712,28.172.218,38.919s-48.575,10.749-67.19,0-18.715-28.172-.22-38.92S95.925,380.181,114.54,390.928Z" transform="translate(-33.541 -372.826)" fill="#00223d"/>
                  <path id="Trazado_85331" data-name="Trazado 85331" d="M114.54,390.06c18.615,10.747,18.712,28.172.218,38.919s-48.575,10.749-67.19,0-18.715-28.172-.22-38.921S95.925,379.313,114.54,390.06Z" transform="translate(-33.541 -373.074)" fill="#00223d"/>
                  <path id="Trazado_85332" data-name="Trazado 85332" d="M114.54,389.192c18.615,10.747,18.712,28.172.218,38.919s-48.575,10.749-67.19,0-18.715-28.172-.22-38.919S95.925,378.445,114.54,389.192Z" transform="translate(-33.541 -373.321)" fill="#00223d"/>
                  <path id="Trazado_85333" data-name="Trazado 85333" d="M114.54,388.323c18.615,10.749,18.712,28.173.218,38.921s-48.575,10.748-67.19,0-18.715-28.172-.22-38.919S95.925,377.577,114.54,388.323Z" transform="translate(-33.541 -373.569)" fill="#00223d"/>
                  <path id="Trazado_85334" data-name="Trazado 85334" d="M114.54,387.455c18.615,10.749,18.712,28.173.218,38.921s-48.575,10.749-67.19,0-18.715-28.172-.22-38.919S95.925,376.708,114.54,387.455Z" transform="translate(-33.541 -373.816)" fill="#00223d"/>
                  <path id="Trazado_85335" data-name="Trazado 85335" d="M114.54,386.587c18.615,10.749,18.712,28.172.218,38.92s-48.575,10.747-67.19,0-18.715-28.172-.22-38.919S95.925,375.84,114.54,386.587Z" transform="translate(-33.541 -374.064)" fill="#00223d"/>
                  <path id="Trazado_85336" data-name="Trazado 85336" d="M114.54,385.719c18.615,10.749,18.712,28.172.218,38.921s-48.575,10.747-67.19,0-18.715-28.172-.22-38.919S95.925,374.972,114.54,385.719Z" transform="translate(-33.541 -374.311)" fill="#00223d"/>
                  <path id="Trazado_85337" data-name="Trazado 85337" d="M114.54,384.851c18.615,10.747,18.712,28.172.218,38.921s-48.575,10.747-67.19,0-18.715-28.173-.22-38.921S95.925,374.1,114.54,384.851Z" transform="translate(-33.541 -374.559)" fill="#00223d"/>
                  <path id="Trazado_85338" data-name="Trazado 85338" d="M114.54,383.983c18.615,10.747,18.712,28.172.218,38.919s-48.575,10.749-67.19,0-18.715-28.172-.22-38.919S95.925,373.236,114.54,383.983Z" transform="translate(-33.541 -374.806)" fill="#00223d"/>
                  <path id="Trazado_85339" data-name="Trazado 85339" d="M114.54,383.114c18.615,10.749,18.712,28.172.218,38.921s-48.575,10.749-67.19,0-18.715-28.172-.22-38.919S95.925,372.367,114.54,383.114Z" transform="translate(-33.541 -375.054)" fill="#00223d"/>
                </g>
              </g>
              <g id="Grupo_34502" data-name="Grupo 34502" transform="translate(0 59.972)">
                <g id="Grupo_34501" data-name="Grupo 34501" style="isolation: isolate">
                  <g id="Grupo_34499" data-name="Grupo 34499" transform="translate(0 27.906)" style="isolation: isolate">
                    <path id="Trazado_85340" data-name="Trazado 85340" d="M129.7,389.346l-.037,5.54c-.021,7.131-4.707,14.252-14.071,19.693-18.847,10.953-49.5,10.953-68.474,0-9.546-5.512-14.313-12.746-14.293-19.969l.039-5.54c-.021,7.225,4.747,14.459,14.293,19.97,18.971,10.953,49.627,10.953,68.474,0C124.99,403.6,129.675,396.479,129.7,389.346Z" transform="translate(-32.821 -389.07)" fill="#cdd1f6"/>
                    <g id="Grupo_34498" data-name="Grupo 34498" clip-path="url(#clip-path-2)">
                      <g id="Grupo_34497" data-name="Grupo 34497" style="isolation: isolate">
                        <path id="Trazado_85341" data-name="Trazado 85341" d="M109.338,389.285l-.037,5.54a19.128,19.128,0,0,1-5.075,12.458l.039-5.539a19.123,19.123,0,0,0,5.074-12.459Z" transform="translate(-12.463 -389.009)" fill="#cdd1f6"/>
                        <path id="Trazado_85342" data-name="Trazado 85342" d="M107.348,398.98l-.039,5.539a34.949,34.949,0,0,1-9,7.235,50.93,50.93,0,0,1-4.9,2.492l.037-5.539a50.522,50.522,0,0,0,4.9-2.492,34.972,34.972,0,0,0,9-7.235Z" transform="translate(-15.547 -386.245)" fill="#cdd1f6"/>
                        <path id="Trazado_85343" data-name="Trazado 85343" d="M101.84,406.549l-.037,5.539c-10.993,4.868-24.783,6.631-37.824,5.286l.039-5.539c13.041,1.346,26.832-.418,37.823-5.286Z" transform="translate(-23.938 -384.087)" fill="#cdd1f6"/>
                        <path id="Trazado_85344" data-name="Trazado 85344" d="M68.443,411.752l-.039,5.539a70.456,70.456,0,0,1-19.952-4.914l.039-5.539a70.444,70.444,0,0,0,19.952,4.914Z" transform="translate(-28.365 -384.004)" fill="#cdd1f6"/>
                        <path id="Trazado_85345" data-name="Trazado 85345" d="M52.947,411.9l-.039,5.539a51.556,51.556,0,0,1-5.795-2.863c-9.546-5.512-14.313-12.746-14.293-19.969l.039-5.54c-.021,7.225,4.747,14.459,14.293,19.97a51.685,51.685,0,0,0,5.795,2.863Z" transform="translate(-32.821 -389.07)" fill="#cdd1f6"/>
                      </g>
                    </g>
                  </g>
                  <g id="Grupo_34500" data-name="Grupo 34500" transform="translate(0.038)">
                    <path id="Trazado_85347" data-name="Trazado 85347" d="M115.394,375.569c18.971,10.952,19.07,28.709.224,39.662s-49.5,10.953-68.474,0-19.07-28.71-.224-39.662S96.424,364.617,115.394,375.569Z" transform="translate(-32.851 -367.355)" fill="#e8ecf2"/>
                  </g>
                </g>
              </g>
              <g id="Grupo_34504" data-name="Grupo 34504" transform="translate(0.925 40.333)">
                <g id="Grupo_34503" data-name="Grupo 34503">
                  <path id="Trazado_85348" data-name="Trazado 85348" d="M114.54,374.024c18.615,10.747,18.712,28.172.218,38.919s-48.575,10.749-67.19,0-18.715-28.172-.22-38.921S95.925,363.277,114.54,374.024Z" transform="translate(-33.541 -348.112)" fill="#00223d"/>
                  <path id="Trazado_85349" data-name="Trazado 85349" d="M114.54,373.156c18.615,10.747,18.712,28.172.218,38.919s-48.575,10.747-67.19,0-18.715-28.173-.22-38.92S95.925,362.409,114.54,373.156Z" transform="translate(-33.541 -348.36)" fill="#00223d"/>
                  <path id="Trazado_85350" data-name="Trazado 85350" d="M114.54,372.288c18.615,10.747,18.712,28.172.218,38.919s-48.575,10.747-67.19,0-18.715-28.172-.22-38.919S95.925,361.541,114.54,372.288Z" transform="translate(-33.541 -348.607)" fill="#00223d"/>
                  <path id="Trazado_85351" data-name="Trazado 85351" d="M114.54,371.419c18.615,10.749,18.712,28.173.218,38.921s-48.575,10.747-67.19,0-18.715-28.172-.22-38.921S95.925,360.672,114.54,371.419Z" transform="translate(-33.541 -348.855)" fill="#00223d"/>
                  <path id="Trazado_85352" data-name="Trazado 85352" d="M114.54,370.551c18.615,10.747,18.712,28.172.218,38.921s-48.575,10.747-67.19,0-18.715-28.172-.22-38.921S95.925,359.8,114.54,370.551Z" transform="translate(-33.541 -349.103)" fill="#00223d"/>
                  <path id="Trazado_85353" data-name="Trazado 85353" d="M114.54,369.683c18.615,10.747,18.712,28.172.218,38.919s-48.575,10.749-67.19,0-18.715-28.172-.22-38.921S95.925,358.936,114.54,369.683Z" transform="translate(-33.541 -349.35)" fill="#00223d"/>
                  <path id="Trazado_85354" data-name="Trazado 85354" d="M114.54,368.815c18.615,10.747,18.712,28.172.218,38.919s-48.575,10.749-67.19,0-18.715-28.173-.22-38.921S95.925,358.068,114.54,368.815Z" transform="translate(-33.541 -349.597)" fill="#00223d"/>
                  <path id="Trazado_85355" data-name="Trazado 85355" d="M114.54,367.947c18.615,10.747,18.712,28.172.218,38.919s-48.575,10.749-67.19,0-18.715-28.172-.22-38.919S95.925,357.2,114.54,367.947Z" transform="translate(-33.541 -349.845)" fill="#00223d"/>
                  <path id="Trazado_85356" data-name="Trazado 85356" d="M114.54,367.078c18.615,10.749,18.712,28.173.218,38.92s-48.575,10.749-67.19,0-18.715-28.172-.22-38.919S95.925,356.331,114.54,367.078Z" transform="translate(-33.541 -350.093)" fill="#00223d"/>
                  <path id="Trazado_85357" data-name="Trazado 85357" d="M114.54,366.21c18.615,10.749,18.712,28.172.218,38.921s-48.575,10.747-67.19,0-18.715-28.172-.22-38.919S95.925,355.463,114.54,366.21Z" transform="translate(-33.541 -350.34)" fill="#00223d"/>
                  <path id="Trazado_85358" data-name="Trazado 85358" d="M114.54,365.342c18.615,10.747,18.712,28.172.218,38.921s-48.575,10.747-67.19,0-18.715-28.172-.22-38.921S95.925,354.595,114.54,365.342Z" transform="translate(-33.541 -350.588)" fill="#00223d"/>
                  <path id="Trazado_85359" data-name="Trazado 85359" d="M114.54,364.474c18.615,10.747,18.712,28.172.218,38.919s-48.575,10.749-67.19,0-18.715-28.173-.22-38.921S95.925,353.727,114.54,364.474Z" transform="translate(-33.541 -350.835)" fill="#00223d"/>
                  <path id="Trazado_85360" data-name="Trazado 85360" d="M114.54,363.606c18.615,10.747,18.712,28.172.218,38.919s-48.575,10.749-67.19,0-18.715-28.172-.22-38.919S95.925,352.859,114.54,363.606Z" transform="translate(-33.541 -351.083)" fill="#00223d"/>
                  <path id="Trazado_85361" data-name="Trazado 85361" d="M114.54,362.738c18.615,10.747,18.712,28.172.218,38.919s-48.575,10.749-67.19,0-18.715-28.172-.22-38.919S95.925,351.991,114.54,362.738Z" transform="translate(-33.541 -351.33)" fill="#00223d"/>
                  <path id="Trazado_85362" data-name="Trazado 85362" d="M114.54,361.869c18.615,10.749,18.712,28.173.218,38.921s-48.575,10.747-67.19,0-18.715-28.172-.22-38.919S95.925,351.122,114.54,361.869Z" transform="translate(-33.541 -351.578)" fill="#00223d"/>
                  <path id="Trazado_85363" data-name="Trazado 85363" d="M114.54,361c18.615,10.748,18.712,28.172.218,38.921s-48.575,10.747-67.19,0S28.853,371.75,47.348,361,95.925,350.254,114.54,361Z" transform="translate(-33.541 -351.825)" fill="#00223d"/>
                  <path id="Trazado_85364" data-name="Trazado 85364" d="M114.54,360.133c18.615,10.749,18.712,28.172.218,38.921s-48.575,10.747-67.19,0-18.715-28.172-.22-38.921S95.925,349.386,114.54,360.133Z" transform="translate(-33.541 -352.073)" fill="#00223d"/>
                </g>
              </g>
              <g id="Grupo_34510" data-name="Grupo 34510" transform="translate(0 30.438)">
                <g id="Grupo_34509" data-name="Grupo 34509" style="isolation: isolate">
                  <g id="Grupo_34507" data-name="Grupo 34507" transform="translate(0 27.908)" style="isolation: isolate">
                    <path id="Trazado_85365" data-name="Trazado 85365" d="M129.7,366.365l-.037,5.539c-.021,7.132-4.707,14.252-14.071,19.693-18.847,10.953-49.5,10.953-68.474,0-9.546-5.51-14.313-12.746-14.293-19.969l.039-5.539c-.021,7.224,4.747,14.459,14.293,19.969,18.971,10.953,49.627,10.953,68.474,0C124.99,380.617,129.675,373.5,129.7,366.365Z" transform="translate(-32.821 -366.089)" fill="#cdd1f6"/>
                    <g id="Grupo_34506" data-name="Grupo 34506" clip-path="url(#clip-path-3)">
                      <g id="Grupo_34505" data-name="Grupo 34505" style="isolation: isolate">
                        <path id="Trazado_85366" data-name="Trazado 85366" d="M109.338,366.3l-.037,5.539a19.134,19.134,0,0,1-5.075,12.459l.039-5.539a19.125,19.125,0,0,0,5.074-12.459Z" transform="translate(-12.463 -366.028)" fill="#cdd1f6"/>
                        <path id="Trazado_85367" data-name="Trazado 85367" d="M107.348,376l-.039,5.539a34.948,34.948,0,0,1-9,7.234,50.344,50.344,0,0,1-4.9,2.492l.037-5.539a50.194,50.194,0,0,0,4.9-2.492,34.994,34.994,0,0,0,9-7.234Z" transform="translate(-15.547 -363.264)" fill="#cdd1f6"/>
                        <path id="Trazado_85368" data-name="Trazado 85368" d="M101.84,383.567l-.037,5.539c-10.993,4.869-24.783,6.631-37.824,5.287l.039-5.539c13.041,1.344,26.832-.418,37.823-5.287Z" transform="translate(-23.938 -361.106)" fill="#cdd1f6"/>
                        <path id="Trazado_85369" data-name="Trazado 85369" d="M68.443,388.771,68.4,394.31A70.545,70.545,0,0,1,48.452,389.4l.039-5.539a70.493,70.493,0,0,0,19.952,4.914Z" transform="translate(-28.365 -361.023)" fill="#cdd1f6"/>
                        <path id="Trazado_85370" data-name="Trazado 85370" d="M52.947,388.923l-.039,5.539a51.579,51.579,0,0,1-5.795-2.865c-9.546-5.51-14.313-12.746-14.293-19.969l.039-5.539c-.021,7.224,4.747,14.459,14.293,19.969a51.907,51.907,0,0,0,5.795,2.865Z" transform="translate(-32.821 -366.089)" fill="#cdd1f6"/>
                      </g>
                    </g>
                  </g>
                  <g id="Grupo_34508" data-name="Grupo 34508" transform="translate(0.038)">
                    <path id="Trazado_85372" data-name="Trazado 85372" d="M115.394,352.587c18.971,10.953,19.07,28.71.224,39.662s-49.5,10.953-68.474,0-19.07-28.709-.224-39.662S96.424,341.635,115.394,352.587Z" transform="translate(-32.851 -344.373)" fill="#e8ecf2"/>
                  </g>
                </g>
              </g>
              <g id="Grupo_34512" data-name="Grupo 34512" transform="translate(0.925 9.894)">
                <g id="Grupo_34511" data-name="Grupo 34511">
                  <path id="Trazado_85373" data-name="Trazado 85373" d="M114.54,350.338c18.615,10.747,18.712,28.172.218,38.919s-48.575,10.749-67.19,0-18.715-28.172-.22-38.921S95.925,339.591,114.54,350.338Z" transform="translate(-33.541 -324.427)" fill="#00223d"/>
                  <path id="Trazado_85374" data-name="Trazado 85374" d="M114.54,349.47c18.615,10.747,18.712,28.172.218,38.919s-48.575,10.749-67.19,0-18.715-28.172-.22-38.921S95.925,338.723,114.54,349.47Z" transform="translate(-33.541 -324.674)" fill="#00223d"/>
                  <path id="Trazado_85375" data-name="Trazado 85375" d="M114.54,348.6c18.615,10.747,18.712,28.172.218,38.919s-48.575,10.749-67.19,0-18.715-28.173-.22-38.92S95.925,337.855,114.54,348.6Z" transform="translate(-33.541 -324.922)" fill="#00223d"/>
                  <path id="Trazado_85376" data-name="Trazado 85376" d="M114.54,347.734c18.615,10.747,18.712,28.172.218,38.919s-48.575,10.747-67.19,0-18.715-28.172-.22-38.919S95.925,336.987,114.54,347.734Z" transform="translate(-33.541 -325.169)" fill="#00223d"/>
                  <path id="Trazado_85377" data-name="Trazado 85377" d="M114.54,346.866c18.615,10.747,18.712,28.172.218,38.919s-48.575,10.747-67.19,0-18.715-28.172-.22-38.919S95.925,336.119,114.54,346.866Z" transform="translate(-33.541 -325.417)" fill="#00223d"/>
                  <path id="Trazado_85378" data-name="Trazado 85378" d="M114.54,346c18.615,10.749,18.712,28.173.218,38.921s-48.575,10.747-67.19,0S28.853,356.746,47.348,346,95.925,335.25,114.54,346Z" transform="translate(-33.541 -325.664)" fill="#00223d"/>
                  <path id="Trazado_85379" data-name="Trazado 85379" d="M114.54,345.129c18.615,10.747,18.712,28.172.218,38.92s-48.575,10.747-67.19,0-18.715-28.172-.22-38.919S95.925,334.382,114.54,345.129Z" transform="translate(-33.541 -325.912)" fill="#00223d"/>
                  <path id="Trazado_85380" data-name="Trazado 85380" d="M114.54,344.261c18.615,10.747,18.712,28.172.218,38.919s-48.575,10.749-67.19,0-18.715-28.173-.22-38.921S95.925,333.514,114.54,344.261Z" transform="translate(-33.541 -326.159)" fill="#00223d"/>
                  <path id="Trazado_85381" data-name="Trazado 85381" d="M114.54,343.393c18.615,10.747,18.712,28.172.218,38.919s-48.575,10.749-67.19,0-18.715-28.172-.22-38.919S95.925,332.646,114.54,343.393Z" transform="translate(-33.541 -326.407)" fill="#00223d"/>
                  <path id="Trazado_85382" data-name="Trazado 85382" d="M114.54,342.525c18.615,10.747,18.712,28.172.218,38.919s-48.575,10.749-67.19,0-18.715-28.172-.22-38.919S95.925,331.778,114.54,342.525Z" transform="translate(-33.541 -326.654)" fill="#00223d"/>
                  <path id="Trazado_85383" data-name="Trazado 85383" d="M114.54,341.657c18.615,10.747,18.712,28.172.218,38.919s-48.575,10.747-67.19,0-18.715-28.172-.22-38.919S95.925,330.909,114.54,341.657Z" transform="translate(-33.541 -326.902)" fill="#00223d"/>
                  <path id="Trazado_85384" data-name="Trazado 85384" d="M114.54,340.788c18.615,10.749,18.712,28.172.218,38.921s-48.575,10.747-67.19,0-18.715-28.172-.22-38.919S95.925,330.041,114.54,340.788Z" transform="translate(-33.541 -327.149)" fill="#00223d"/>
                  <path id="Trazado_85385" data-name="Trazado 85385" d="M114.54,339.92c18.615,10.749,18.712,28.172.218,38.921s-48.575,10.747-67.19,0-18.715-28.172-.22-38.921S95.925,329.173,114.54,339.92Z" transform="translate(-33.541 -327.397)" fill="#00223d"/>
                  <path id="Trazado_85386" data-name="Trazado 85386" d="M114.54,339.052c18.615,10.747,18.712,28.172.218,38.921s-48.575,10.747-67.19,0-18.715-28.172-.22-38.921S95.925,328.3,114.54,339.052Z" transform="translate(-33.541 -327.644)" fill="#00223d"/>
                  <path id="Trazado_85387" data-name="Trazado 85387" d="M114.54,338.184c18.615,10.747,18.712,28.172.218,38.919-9.025,5.245-20.81,7.931-32.935,8.059-12.187.13-24.724-2.556-34.255-8.059-18.616-10.747-18.715-28.172-.22-38.919S95.925,327.437,114.54,338.184Z" transform="translate(-33.541 -327.892)" fill="#00223d"/>
                  <path id="Trazado_85388" data-name="Trazado 85388" d="M114.54,337.316c18.615,10.747,18.712,28.172.218,38.919s-48.575,10.749-67.19,0-18.715-28.172-.22-38.919S95.925,326.569,114.54,337.316Z" transform="translate(-33.541 -328.139)" fill="#00223d"/>
                  <path id="Trazado_85389" data-name="Trazado 85389" d="M114.54,336.447c18.615,10.749,18.712,28.173.218,38.921s-48.575,10.747-67.19,0-18.715-28.172-.22-38.919S95.925,325.7,114.54,336.447Z" transform="translate(-33.541 -328.387)" fill="#00223d"/>
                </g>
              </g>
              <g id="Grupo_34518" data-name="Grupo 34518">
                <g id="Grupo_34517" data-name="Grupo 34517" style="isolation: isolate">
                  <g id="Grupo_34515" data-name="Grupo 34515" transform="translate(0 27.907)" style="isolation: isolate">
                    <path id="Trazado_85390" data-name="Trazado 85390" d="M129.7,342.681l-.037,5.539c-.021,7.131-4.707,14.252-14.071,19.693-18.847,10.952-49.5,10.952-68.474,0C37.568,362.4,32.8,355.167,32.821,347.943l.039-5.54c-.021,7.225,4.747,14.459,14.293,19.97,18.971,10.953,49.627,10.953,68.474,0C124.99,356.932,129.675,349.812,129.7,342.681Z" transform="translate(-32.821 -342.403)" fill="#cdd1f6"/>
                    <g id="Grupo_34514" data-name="Grupo 34514" clip-path="url(#clip-path-4)">
                      <g id="Grupo_34513" data-name="Grupo 34513" style="isolation: isolate">
                        <path id="Trazado_85391" data-name="Trazado 85391" d="M109.338,342.619l-.037,5.539a19.128,19.128,0,0,1-5.075,12.458l.039-5.539a19.122,19.122,0,0,0,5.074-12.458Z" transform="translate(-12.463 -342.341)" fill="#cdd1f6"/>
                        <path id="Trazado_85392" data-name="Trazado 85392" d="M107.348,352.313l-.039,5.539a34.948,34.948,0,0,1-9,7.235,50.937,50.937,0,0,1-4.9,2.492l.037-5.539a50.763,50.763,0,0,0,4.9-2.492,34.968,34.968,0,0,0,9-7.235Z" transform="translate(-15.547 -339.578)" fill="#cdd1f6"/>
                        <path id="Trazado_85393" data-name="Trazado 85393" d="M101.84,359.882l-.037,5.539c-10.993,4.868-24.783,6.631-37.824,5.286l.039-5.539c13.041,1.345,26.832-.418,37.823-5.286Z" transform="translate(-23.938 -337.42)" fill="#cdd1f6"/>
                        <path id="Trazado_85394" data-name="Trazado 85394" d="M68.443,365.085l-.039,5.539a70.458,70.458,0,0,1-19.952-4.914l.039-5.539a70.45,70.45,0,0,0,19.952,4.914Z" transform="translate(-28.365 -337.337)" fill="#cdd1f6"/>
                        <path id="Trazado_85395" data-name="Trazado 85395" d="M52.947,365.237l-.039,5.539a51.546,51.546,0,0,1-5.795-2.863C37.568,362.4,32.8,355.167,32.821,347.943l.039-5.54c-.021,7.225,4.747,14.459,14.293,19.97a51.664,51.664,0,0,0,5.795,2.863Z" transform="translate(-32.821 -342.403)" fill="#cdd1f6"/>
                      </g>
                    </g>
                  </g>
                  <g id="Grupo_34516" data-name="Grupo 34516" transform="translate(0.038)">
                    <path id="Trazado_85397" data-name="Trazado 85397" d="M115.394,328.9c18.971,10.953,19.07,28.71.224,39.663s-49.5,10.953-68.474,0-19.07-28.71-.224-39.663S96.424,317.95,115.394,328.9Z" transform="translate(-32.851 -320.688)" fill="#e8ecf2"/>
                  </g>
                </g>
              </g>
              <g id="Grupo_34524" data-name="Grupo 34524" transform="translate(10.633 6.287)">
                <g id="Grupo_34523" data-name="Grupo 34523">
                  <g id="Grupo_34520" data-name="Grupo 34520">
                    <g id="Grupo_34519" data-name="Grupo 34519">
                      <path id="Trazado_85398" data-name="Trazado 85398" d="M112.886,347.686c.008,4.506-3.361,8.818-9.48,12.142-6.711,3.643-15.542,5.464-24.389,5.464s-17.7-1.824-24.463-5.467c-6.211-3.349-9.633-7.7-9.642-12.241,0-.15,0-.3.01-.446s-.01-.27-.01-.4c-.005-4.507,3.361-8.818,9.483-12.143,6.711-3.642,15.542-5.464,24.387-5.464s17.706,1.824,24.462,5.467c6.211,3.35,9.637,7.7,9.642,12.241,0,.143,0,.283-.009.425v.01C112.882,347.41,112.886,347.548,112.886,347.686Zm-7.736-16.177c-7.082-3.826-16.448-5.93-26.366-5.93s-19.26,2.1-26.31,5.93c-7.346,3.99-11.387,9.4-11.378,15.232,0,.134,0,.269.008.395.008.143.008.276.023.418.368,5.55,4.425,10.682,11.523,14.509,7.082,3.819,16.448,5.931,26.365,5.931s19.261-2.111,26.311-5.931c6.979-3.79,10.98-8.868,11.347-14.366.015-.143.015-.276.023-.418s.009-.3.009-.449C116.7,340.96,112.592,335.523,105.15,331.509Z" transform="translate(-41.095 -325.58)" fill="#b5b9dc"/>
                    </g>
                  </g>
                  <g id="Grupo_34522" data-name="Grupo 34522" transform="translate(0.031 1.685)">
                    <g id="Grupo_34521" data-name="Grupo 34521">
                      <path id="Trazado_85399" data-name="Trazado 85399" d="M105.143,332.814c-7.082-3.819-16.448-5.923-26.366-5.923s-19.26,2.1-26.31,5.931c-6.979,3.782-10.98,8.861-11.347,14.358.368,5.55,4.425,10.682,11.523,14.509,7.082,3.819,16.448,5.931,26.365,5.931s19.261-2.111,26.311-5.931c6.979-3.79,10.98-8.868,11.347-14.366C116.3,341.772,112.242,336.641,105.143,332.814Z" transform="translate(-41.119 -326.891)" fill="#12263f"/>
                    </g>
                  </g>
                </g>
                <path id="Trazado_85400" data-name="Trazado 85400" d="M99.553,357.769c-6.086,3.229-14.089,4.849-22.1,4.849S61.41,361,55.283,357.762c-5.622-2.969-8.727-6.833-8.735-10.868,0-.135.008-.261.008-.4.2-3.857,3.227-7.533,8.588-10.382,6.079-3.238,14.081-4.856,22.091-4.856s16.044,1.626,22.172,4.856c5.451,2.879,8.532,6.594,8.727,10.494v.008c0,.127.008.247.008.366C108.151,350.989,105.095,354.815,99.553,357.769Z" transform="translate(-39.54 -323.961)" fill="#b5b9dc"/>
                <path id="Trazado_85401" data-name="Trazado 85401" d="M99.553,356.324c-6.086,3.231-14.089,4.849-22.1,4.849s-16.044-1.618-22.172-4.855c-5.622-2.969-8.727-6.833-8.735-10.869,0-.134.008-.26.008-.395.2-3.857,3.227-7.534,8.588-10.384,6.079-3.237,14.081-4.855,22.091-4.855s16.044,1.626,22.172,4.855c5.451,2.88,8.532,6.594,8.727,10.5v.008c0,.127.008.245.008.365C108.151,349.544,105.095,353.371,99.553,356.324Z" transform="translate(-39.54 -324.373)" fill="#e8ecf2"/>
              </g>
            </g>
            <g id="Grupo_151575" data-name="Grupo 151575" transform="translate(1217.825 4442.117)">
              <g id="Grupo_34775" data-name="Grupo 34775" transform="translate(0.795)" style="isolation: isolate">
                <g id="Grupo_34764" data-name="Grupo 34764" transform="translate(57.058)">
                  <g id="Grupo_34763" data-name="Grupo 34763" style="isolation: isolate">
                    <path id="Trazado_85695" data-name="Trazado 85695" d="M198.932,348.841l-3.567-2.018a2.724,2.724,0,0,1,.786-.325l3.567,2.02a2.738,2.738,0,0,0-.786.324Z" transform="translate(-195.365 -346.453)" fill="#00223d"/>
                    <path id="Trazado_85696" data-name="Trazado 85696" d="M199.362,348.537l-3.567-2.02a1.463,1.463,0,0,1,1.051.122l3.567,2.019a1.456,1.456,0,0,0-1.051-.121Z" transform="translate(-195.009 -346.473)" fill="#00223d"/>
                  </g>
                </g>
                <g id="Grupo_34766" data-name="Grupo 34766" transform="translate(1.63 66.725)">
                  <g id="Grupo_34765" data-name="Grupo 34765" style="isolation: isolate">
                    <path id="Trazado_85697" data-name="Trazado 85697" d="M169.357,386.564l-3.567-2.018a1.735,1.735,0,0,1-.74-1.578l3.567,2.02a1.729,1.729,0,0,0,.74,1.576Z" transform="translate(-165.049 -382.968)" fill="#ffb200"/>
                  </g>
                </g>
                <g id="Grupo_34767" data-name="Grupo 34767" transform="translate(24.932 0.369)">
                  <path id="Trazado_85698" data-name="Trazado 85698" d="M181.361,367.713l-3.567-2.02,32.127-19.018,3.567,2.019Z" transform="translate(-177.794 -346.675)" fill="#00223d"/>
                </g>
                <g id="Grupo_34769" data-name="Grupo 34769" transform="translate(20.432 15.657)">
                  <g id="Grupo_34768" data-name="Grupo 34768" style="isolation: isolate">
                    <path id="Trazado_85699" data-name="Trazado 85699" d="M178.9,357.472l-3.567-2.019a3.224,3.224,0,0,1,.947-.38l3.567,2.02a3.214,3.214,0,0,0-.947.378Z" transform="translate(-175.333 -355.007)" fill="#00223d"/>
                    <path id="Trazado_85700" data-name="Trazado 85700" d="M179.418,357.124l-3.567-2.02a2.324,2.324,0,0,1,1.655.2l3.569,2.02a2.312,2.312,0,0,0-1.656-.2Z" transform="translate(-174.904 -355.037)" fill="#00223d"/>
                  </g>
                </g>
                <g id="Grupo_34770" data-name="Grupo 34770" transform="translate(0 31.001)">
                  <path id="Trazado_85701" data-name="Trazado 85701" d="M169.355,401.173l-3.567-2.021-1.63-35.723,3.566,2.021Z" transform="translate(-164.158 -363.429)" fill="#00223d"/>
                </g>
                <g id="Grupo_34771" data-name="Grupo 34771" transform="translate(2.524 16.105)">
                  <path id="Trazado_85702" data-name="Trazado 85702" d="M169.1,367.707l-3.566-2.018,17.909-10.407,3.567,2.018Z" transform="translate(-165.538 -355.281)" fill="#00223d"/>
                </g>
                <g id="Grupo_34773" data-name="Grupo 34773" transform="translate(0 26.513)">
                  <g id="Grupo_34772" data-name="Grupo 34772" style="isolation: isolate">
                    <path id="Trazado_85703" data-name="Trazado 85703" d="M167.723,366.981l-3.565-2.02a5.594,5.594,0,0,1,1.283-3.381l3.565,2.018a5.645,5.645,0,0,0-1.283,3.382Z" transform="translate(-164.158 -360.472)" fill="#00223d"/>
                    <path id="Trazado_85704" data-name="Trazado 85704" d="M168.425,364.1l-3.565-2.019a4.666,4.666,0,0,1,1.24-1.108l3.565,2.017a4.763,4.763,0,0,0-1.24,1.11Z" transform="translate(-163.576 -360.974)" fill="#00223d"/>
                  </g>
                </g>
                <g id="Grupo_34774" data-name="Grupo 34774" transform="translate(3.566 2.019)">
                  <path id="Trazado_85705" data-name="Trazado 85705" d="M168.631,374.088l17.911-10.407c1.355-.8,2.87-.492,3.37.682l1.13,2.6,32.126-19.018c1.419-.841,2.587-.194,2.609,1.446l-.686,30.872a5.44,5.44,0,0,1-2.415,4.295l-52.441,31.129c-1.353.8-2.474.183-2.5-1.384l-1.631-35.724A5.677,5.677,0,0,1,168.631,374.088Z" transform="translate(-166.108 -347.577)" fill="#b29521"/>
                </g>
              </g>
              <g id="Grupo_34779" data-name="Grupo 34779" transform="translate(2.871 1.205)" style="isolation: isolate">
                <g id="Grupo_34776" data-name="Grupo 34776" transform="translate(0 36.37)">
                  <path id="Trazado_85706" data-name="Trazado 85706" d="M168.631,382.381l-1.623.02-1.715-15.376,1.784,1.01Z" transform="translate(-165.293 -367.025)" fill="#a5a9d3"/>
                </g>
                <g id="Grupo_34777" data-name="Grupo 34777">
                  <path id="Trazado_85707" data-name="Trazado 85707" d="M167.077,384.513l-1.784-1.01,55.036-36.37,1.783,1.01Z" transform="translate(-165.293 -347.132)" fill="#cdd1f6"/>
                </g>
                <g id="Grupo_34778" data-name="Grupo 34778" transform="translate(1.784 1.01)">
                  <path id="Trazado_85708" data-name="Trazado 85708" d="M221.3,347.685l1.538,14.358L167.823,398.4l-1.554-14.346Z" transform="translate(-166.269 -347.685)" fill="#f8f9fc"/>
                </g>
              </g>
              <path id="Trazado_85709" data-name="Trazado 85709" d="M192.068,379.825a8.3,8.3,0,0,1,1.474-2.616,8.056,8.056,0,0,1,2.031-1.859l31.405-18.87a3.3,3.3,0,0,1,.947-.393,1.6,1.6,0,0,1,1.148.119l-3.567-2.018a1.6,1.6,0,0,0-1.148-.117,3.248,3.248,0,0,0-.945.389l-31.405,18.87a8.038,8.038,0,0,0-2.031,1.861,8.291,8.291,0,0,0-1.475,2.616l-1.108,3.594-20.966,12.5a5.667,5.667,0,0,0-1.494,1.331,5,5,0,0,0-1.21,2.969l1.582,26.476a1.4,1.4,0,0,0,.636,1.276l3.567,2.018a1.4,1.4,0,0,1-.638-1.278l-1.582-26.473a5.021,5.021,0,0,1,1.212-2.973,5.69,5.69,0,0,1,1.494-1.327l20.966-12.5Z" transform="translate(-163.723 -340.225)" fill="#00223d"/>
              <path id="Trazado_85710" data-name="Trazado 85710" d="M225.363,355.564c1.5-.888,2.744-.4,2.764,1.077l-.715,33.433a5.43,5.43,0,0,1-2.58,4.112l-54.925,32.6c-1.435.852-2.633.389-2.653-1.015L165.673,399.3a5.674,5.674,0,0,1,2.706-4.3l20.966-12.5,1.108-3.595a9.107,9.107,0,0,1,3.5-4.476Z" transform="translate(-162.108 -339.31)" fill="#e2c140"/>
            </g>
          </g>
        </g>
      </g>
    </g>
  </g>
</svg>
