<svg xmlns="http://www.w3.org/2000/svg" xmlns:xlink="http://www.w3.org/1999/xlink" width="948.281" height="428.664" viewBox="0 0 948.281 428.664">
  <defs>
    <filter id="Trazado_824504" x="337.907" y="21.413" width="137.949" height="108.705" filterUnits="userSpaceOnUse">
      <feOffset dy="3" input="SourceAlpha"/>
      <feGaussianBlur stdDeviation="3" result="blur"/>
      <feFlood flood-opacity="0.161"/>
      <feComposite operator="in" in2="blur"/>
      <feComposite in="SourceGraphic"/>
    </filter>
    <filter id="Trazado_824505" x="646.256" y="279.476" width="137.949" height="108.704" filterUnits="userSpaceOnUse">
      <feOffset dy="3" input="SourceAlpha"/>
      <feGaussianBlur stdDeviation="3" result="blur-2"/>
      <feFlood flood-opacity="0.161"/>
      <feComposite operator="in" in2="blur-2"/>
      <feComposite in="SourceGraphic"/>
    </filter>
    <filter id="Trazado_824506" x="510.235" y="126.511" width="108.705" height="137.948" filterUnits="userSpaceOnUse">
      <feOffset dy="3" input="SourceAlpha"/>
      <feGaussianBlur stdDeviation="3" result="blur-3"/>
      <feFlood flood-opacity="0.161"/>
      <feComposite operator="in" in2="blur-3"/>
      <feComposite in="SourceGraphic"/>
    </filter>
    <filter id="Trazado_824507" x="807.504" y="125.709" width="108.705" height="137.948" filterUnits="userSpaceOnUse">
      <feOffset dy="3" input="SourceAlpha"/>
      <feGaussianBlur stdDeviation="3" result="blur-4"/>
      <feFlood flood-opacity="0.161"/>
      <feComposite operator="in" in2="blur-4"/>
      <feComposite in="SourceGraphic"/>
    </filter>
    <filter id="Rectángulo_376897" x="481.5" y="254.884" width="173.78" height="173.78" filterUnits="userSpaceOnUse">
      <feOffset dy="3" input="SourceAlpha"/>
      <feGaussianBlur stdDeviation="3" result="blur-5"/>
      <feFlood flood-opacity="0.161"/>
      <feComposite operator="in" in2="blur-5"/>
      <feComposite in="SourceGraphic"/>
    </filter>
    <filter id="Rectángulo_376898" x="774.5" y="253.278" width="173.78" height="173.78" filterUnits="userSpaceOnUse">
      <feOffset dy="3" input="SourceAlpha"/>
      <feGaussianBlur stdDeviation="3" result="blur-6"/>
      <feFlood flood-opacity="0.161"/>
      <feComposite operator="in" in2="blur-6"/>
      <feComposite in="SourceGraphic"/>
    </filter>
    <filter id="Rectángulo_44476" x="0" y="274.426" width="398.48" height="89.817" filterUnits="userSpaceOnUse">
      <feOffset dy="3" input="SourceAlpha"/>
      <feGaussianBlur stdDeviation="3" result="blur-7"/>
      <feFlood flood-opacity="0.161"/>
      <feComposite operator="in" in2="blur-7"/>
      <feComposite in="SourceGraphic"/>
    </filter>
  </defs>
  <g id="Grupo_1077722" data-name="Grupo 1077722" transform="translate(-294.5 -10111.944)">
    <g id="a1kq1p" transform="translate(303.5 10111.944)">
      <g id="Grupo_151210" data-name="Grupo 151210" transform="translate(0 0)">
        <path id="Trazado_192902" data-name="Trazado 192902" d="M2557.437,671.884c-4.774-.974-9.328-1.881-13.873-2.833q-28.372-5.946-56.74-11.915c-9.855-2.071-19.7-4.188-29.573-6.177-1.38-.278-1.723-.89-1.669-2.081.02-.445,0-.893,0-1.34q0-63.664,0-127.327c0-3.149.008-3.131,3.216-3.754q35.228-6.849,70.457-13.7c9.092-1.76,18.2-3.426,27.3-5.129a6.175,6.175,0,0,1,.879-.005Zm-27.588-89.071a33.452,33.452,0,0,0-4.388-17.6c-5.585-9.631-14.208-12.276-23.684-9.831-6.991,1.8-11.284,6.963-14.056,13.354-2.8,6.455-3.445,13.258-2.913,20.263a32.456,32.456,0,0,0,5.409,16.485c8.028,11.593,23.916,12.262,32.822,1.331C2528.38,600.262,2529.9,592.493,2529.849,582.813Z" transform="translate(-2455.577 -497.607)" fill="#12263f"/>
        <path id="Trazado_192903" data-name="Trazado 192903" d="M2696.915,652.093c3.482,2.388,6.53,4.476,9.573,6.568,2.984,2.051,3.2,2.034,6.127.08q23.387-15.593,46.792-31.162c.591-.393,1.225-.721,2.176-1.276.067,1.092.148,1.794.148,2.5q.01,29.918,0,59.835c0,5.328-2.257,8.713-6.572,9.923a9.074,9.074,0,0,1-2.415.292c-17.934.016-35.867-.013-53.8.052-1.8.006-2.256-.566-2.249-2.288.057-14.066.031-28.131.038-42.2C2696.733,653.841,2696.82,653.265,2696.915,652.093Z" transform="translate(-2588.968 -568.804)" fill="#12263f"/>
        <path id="Trazado_192904" data-name="Trazado 192904" d="M2726.989,579.866q13.953,0,27.906.005c3.29.006,6.558,2.953,6.678,6.225a3.249,3.249,0,0,1-1.465,2.157q-14.091,9.629-28.263,19.138c-6.6,4.451-13.222,8.857-19.777,13.367a3.823,3.823,0,0,1-4.873.088c-2.9-1.954-5.875-3.786-8.863-5.6a2.957,2.957,0,0,1-1.635-2.856q.085-15.183,0-30.366c-.01-1.668.505-2.158,2.164-2.145,9.376.071,18.754.034,28.13.034Z" transform="translate(-2588.969 -543.112)" fill="#12263f"/>
        <path id="Trazado_192905" data-name="Trazado 192905" d="M2568.422,668.657a28.607,28.607,0,0,0-2.291-12.6c-1.837-4.039-4.869-6.707-9.4-6.76-4.582-.053-7.729,2.521-9.83,6.534a26.394,26.394,0,0,0-2.606,12.517c0,4.529.393,9.062,2.772,13.134,2.16,3.7,5.016,6.134,9.636,6,4.389-.132,7.156-2.452,9.1-6.1A25.5,25.5,0,0,0,2568.422,668.657Z" transform="translate(-2504.66 -581.526)" fill="#12263f"/>
        <path id="Trazado_192906" data-name="Trazado 192906" d="M2568.425,668.657a25.522,25.522,0,0,1-2.617,12.722c-1.944,3.653-4.711,5.972-9.1,6.1-4.62.138-7.476-2.3-9.636-6-2.38-4.072-2.771-8.606-2.772-13.134a26.394,26.394,0,0,1,2.606-12.517c2.1-4.014,5.248-6.587,9.83-6.534,4.528.052,7.56,2.721,9.4,6.76A28.64,28.64,0,0,1,2568.425,668.657Z" transform="translate(-2504.66 -581.526)" fill="#12263f"/>
      </g>
    </g>
    <g transform="matrix(1, 0, 0, 1, 294.5, 10111.94)" filter="url(#Trazado_824504)">
      <path id="Trazado_824504-2" data-name="Trazado 824504" d="M-7515.024-4557.876h67.164v-12.209l48.983,40.466-48.983,43.7V-4497.7h-67.164Z" transform="translate(7863.43 4600.68)" fill="none" stroke="#12263f" stroke-width="3"/>
    </g>
    <g transform="matrix(1, 0, 0, 1, 294.5, 10111.94)" filter="url(#Trazado_824505)">
      <path id="Trazado_824505-2" data-name="Trazado 824505" d="M-7515.024-4557.876h67.164v-12.209l48.983,40.466-48.983,43.7V-4497.7h-67.164Z" transform="translate(8171.78 4858.75)" fill="none" stroke="#12263f" stroke-width="3"/>
    </g>
    <text id="Solicitud_de_intercambio_de_texto" data-name="Solicitud de
intercambio
de texto" transform="translate(550.217 10166.99)" fill="#12263f" font-size="20" font-family="Roboto-Bold, Roboto" font-weight="700"><tspan x="-53.11" y="0">Solicitud de</tspan><tspan x="-53.76" y="21">intercambio</tspan><tspan x="-36.289" y="42">de texto</tspan></text>
    <text id="Servicio_SMTP" data-name="Servicio SMTP" transform="translate(844.294 10164.99)" fill="#12263f" font-size="18" font-family="Roboto-Bold, Roboto" font-weight="700"><tspan x="-59.893" y="0">Servicio SMTP</tspan></text>
    <text id="Protocolo_TCP" data-name="Protocolo
TCP" transform="translate(853.383 10203.929)" fill="#12263f" font-size="20" font-family="Roboto-Bold, Roboto" font-weight="700"><tspan x="-43.638" y="0">Protocolo</tspan><tspan x="-19.18" y="21">TCP</tspan></text>
    <text id="Red_local_LAN" data-name="Red local
LAN" transform="translate(1150.703 10205.534)" fill="#12263f" font-size="20" font-family="Roboto-Bold, Roboto" font-weight="700"><tspan x="-41.445" y="0">Red local</tspan><tspan x="-19.297" y="21">LAN</tspan></text>
    <g transform="matrix(1, 0, 0, 1, 294.5, 10111.94)" filter="url(#Trazado_824506)">
      <path id="Trazado_824506-2" data-name="Trazado 824506" d="M0,12.21H67.163V0l48.983,40.467-48.983,43.7V72.382H0Z" transform="translate(606.75 134.01) rotate(90)" fill="none" stroke="#12263f" stroke-width="3"/>
    </g>
    <g transform="matrix(1, 0, 0, 1, 294.5, 10111.94)" filter="url(#Trazado_824507)">
      <path id="Trazado_824507-2" data-name="Trazado 824507" d="M0,12.21H67.163V0l48.983,40.467-48.983,43.7V72.382H0Z" transform="translate(819.69 250.16) rotate(-90)" fill="none" stroke="#12263f" stroke-width="3"/>
    </g>
    <g transform="matrix(1, 0, 0, 1, 294.5, 10111.94)" filter="url(#Rectángulo_376897)">
      <rect id="Rectángulo_376897-2" data-name="Rectángulo 376897" width="155.78" height="155.78" rx="5" transform="translate(490.5 260.88)" fill="#2efec7"/>
    </g>
    <g transform="matrix(1, 0, 0, 1, 294.5, 10111.94)" filter="url(#Rectángulo_376898)">
      <rect id="Rectángulo_376898-2" data-name="Rectángulo 376898" width="155.78" height="155.78" rx="5" transform="translate(783.5 259.28)" fill="#2efec7"/>
    </g>
    <text id="Puerto_lógico_25" data-name="Puerto lógico
25" transform="translate(863 10489.793)" fill="#12263f" font-size="20" font-family="Roboto-Bold, Roboto" font-weight="700"><tspan x="-60.254" y="0">Puerto lógico</tspan><tspan x="-11.475" y="21">25</tspan></text>
    <text id="Puerto_físico_RJ-45" data-name="Puerto físico
RJ-45" transform="translate(1155 10488.187)" fill="#12263f" font-size="20" font-family="Roboto-Bold, Roboto" font-weight="700"><tspan x="-57.705" y="0">Puerto físico</tspan><tspan x="-27.319" y="21">RJ-45</tspan></text>
    <g id="cvsCpv.tif" transform="translate(1116 10389.531)">
      <g id="Grupo_151211" data-name="Grupo 151211" transform="translate(0 0)">
        <path id="Trazado_192911" data-name="Trazado 192911" d="M3520.477-595.5a3.041,3.041,0,0,1-3.267,1.887c-3.509-.07-7.021-.02-10.532-.018h-.894v9.944h2.622c.722,0,1.446-.027,2.168,0a2.516,2.516,0,0,1,2.606,2.667q.022,7.28,0,14.56a2.5,2.5,0,0,1-2.646,2.7q-7.318.024-14.637,0a2.464,2.464,0,0,1-2.629-2.555q-.054-7.4,0-14.792a2.493,2.493,0,0,1,2.7-2.576c1.546-.026,3.093-.005,4.706-.005v-9.886h-39.711v9.891c1.461,0,2.877,0,4.291,0,2.245,0,3.143.9,3.143,3.147q0,6.854,0,13.708c0,2.144-.928,3.074-3.059,3.075q-6.932,0-13.863,0c-2.09,0-3.007-.928-3.008-3.038q0-6.931,0-13.863c0-2.085.94-3.023,3.028-3.029,1.439,0,2.88,0,4.375,0v-9.948h-.848c-3.743,0-7.486.012-11.23-.006a2.486,2.486,0,0,1-2.441-3.385,2.512,2.512,0,0,1,2.516-1.573q6.621-.01,13.243,0l20.446,0h.737v-9.948h-3.317c-.517,0-1.034.02-1.549-.009a2.465,2.465,0,0,1-2.535-2.637c-.019-3.253-.007-6.506-.007-9.758,0-1.626-.014-3.253.005-4.879a2.464,2.464,0,0,1,2.677-2.643q7.24-.018,14.483,0a2.5,2.5,0,0,1,2.719,2.765q.014,7.2,0,14.4a2.5,2.5,0,0,1-2.735,2.752c-1.543.022-3.086,0-4.675,0v9.945h.941c10.972,0,21.944.023,32.915-.018a3.08,3.08,0,0,1,3.267,1.886Zm-57.147,26.732v-9.862h-9.823v9.862Zm44.848,0v-9.863h-9.87v9.863Zm-32.277-54.7v9.883h9.825v-9.883Z" transform="translate(-3441.167 628.484)" fill="#12263f"/>
      </g>
    </g>
    <g id="FVuvf5" transform="translate(831.583 10393.617)">
      <g id="Grupo_151212" data-name="Grupo 151212" transform="translate(0 0)">
        <path id="Trazado_192912" data-name="Trazado 192912" d="M4072.514-574.724h-63.522v-63.525h63.522Zm-3.624-3.661c0-.491,0-.862,0-1.232q0-6.57-.009-13.141,0-20.387.026-40.774c0-.808-.15-1.128-1.054-1.127q-27.116.039-54.235,0c-.817,0-1.034.231-1.033,1.043q.035,27.062.021,54.124c0,.361.034.722.052,1.1Z" transform="translate(-4009.576 638.249)" fill="#12263f"/>
        <path id="Trazado_192913" data-name="Trazado 192913" d="M4063.988-510.026V-540h7.427v-7.432H4097.5v7.393h7.4v30.009Zm3.683-14.889h33.553v-11.448h-7.459v-7.372h-18.683v7.413h-7.411Zm.007,3.75v7.521c1.113,0,2.134.035,3.15-.029a.856.856,0,0,0,.571-.605q.089-3.127.052-6.256a.851.851,0,0,0-.571-.6C4069.835-521.2,4068.784-521.165,4067.678-521.165Zm26.079,7.459v-7.38h-3.686v7.38Zm3.8-7.428v7.421h3.672v-7.421Zm-22.458-.052c0,2.395-.013,4.641.02,6.887,0,.22.277.616.442.625,1.075.057,2.155.029,3.31.029,0-2.432.016-4.711-.029-6.989,0-.188-.411-.512-.646-.526C4077.222-521.22,4076.237-521.185,4075.1-521.185Zm7.427,7.451h3.743v-7.429c-1.11,0-2.157-.028-3.2.026a.774.774,0,0,0-.521.546C4082.518-518.318,4082.531-516.043,4082.531-513.734Z" transform="translate(-4052.689 566.086)" fill="#12263f"/>
        <path id="Trazado_192914" data-name="Trazado 192914" d="M4126.473-601.773v3.517h-25.964v-3.517Z" transform="translate(-4081.708 609.267)" fill="#12263f"/>
      </g>
    </g>
    <g id="Grupo_1076405" data-name="Grupo 1076405" transform="translate(303.5 10353.557)">
      <g transform="matrix(1, 0, 0, 1, -9, -241.61)" filter="url(#Rectángulo_44476)">
        <path id="Rectángulo_44476-2" data-name="Rectángulo 44476" d="M2,0H360.48a20,20,0,0,1,20,20V69.817a2,2,0,0,1-2,2H2a2,2,0,0,1-2-2V2A2,2,0,0,1,2,0Z" transform="translate(9 280.43)" fill="#ffc8bf"/>
      </g>
      <text id="Servicio_simplificado_de_correo_electrónico" data-name="Servicio simplificado
de correo electrónico" transform="translate(103.74 71.222)" fill="#12263f" font-size="18" font-family="Roboto-Black, Roboto" font-weight="800"><tspan x="0" y="0">Servicio simplificado</tspan><tspan x="0" y="25">de correo electrónico</tspan></text>
    </g>
  </g>
</svg>
