<svg xmlns="http://www.w3.org/2000/svg" xmlns:xlink="http://www.w3.org/1999/xlink" width="1030" height="132" viewBox="0 0 1030 132">
  <defs>
    <clipPath id="clip-path">
      <rect id="Rectángulo_377987" data-name="Rectángulo 377987" width="74.679" height="84.017" fill="none"/>
    </clipPath>
    <clipPath id="clip-path-2">
      <rect id="Rectángulo_377988" data-name="Rectángulo 377988" width="85" height="84.845" fill="none"/>
    </clipPath>
    <clipPath id="clip-path-3">
      <rect id="Rectángulo_377989" data-name="Rectángulo 377989" width="102" height="83.743" fill="none"/>
    </clipPath>
    <clipPath id="clip-path-4">
      <rect id="Rectángulo_377990" data-name="Rectángulo 377990" width="64.219" height="82.915" fill="none"/>
    </clipPath>
    <clipPath id="clip-path-5">
      <rect id="Rectángulo_377991" data-name="Rectángulo 377991" width="89" height="84" transform="translate(0 0)" fill="none"/>
    </clipPath>
    <clipPath id="clip-path-6">
      <rect id="Rectángulo_377992" data-name="Rectángulo 377992" width="62" height="86" transform="translate(0 0.261)" fill="none"/>
    </clipPath>
    <clipPath id="clip-path-7">
      <rect id="Rectángulo_377993" data-name="Rectángulo 377993" width="80" height="77.354" fill="none"/>
    </clipPath>
  </defs>
  <g id="Grupo_1077747" data-name="Grupo 1077747" transform="translate(-285 -12310)">
    <rect id="Rectángulo_377994" data-name="Rectángulo 377994" width="1030" height="132" rx="23" transform="translate(285 12310)" fill="#f6f6f6"/>
    <g id="Grupo_1077733" data-name="Grupo 1077733" transform="translate(347.321 12334)">
      <g id="Grupo_1077732" data-name="Grupo 1077732" clip-path="url(#clip-path)">
        <path id="Trazado_825766" data-name="Trazado 825766" d="M365.4.651V.644a1.436,1.436,0,0,0-2.337,1.67,34.391,34.391,0,0,1,0,39.985,1.436,1.436,0,0,0,.326,2l.008.006a1.436,1.436,0,0,0,2-.333,37.264,37.264,0,0,0,0-43.326" transform="translate(-297.668 -0.044)"/>
        <path id="Trazado_825767" data-name="Trazado 825767" d="M8.946.268h0a1.436,1.436,0,0,0-2,.333,37.263,37.263,0,0,0,0,43.325,1.436,1.436,0,0,0,2.337-1.67,34.391,34.391,0,0,1,0-39.985,1.436,1.436,0,0,0-.334-2" transform="translate(0 0)"/>
        <path id="Trazado_825768" data-name="Trazado 825768" d="M64.053,30.12a1.436,1.436,0,0,0-2.266-1.765,27.17,27.17,0,0,0,0,33.442,1.436,1.436,0,0,0,2.266-1.765,24.3,24.3,0,0,1,0-29.912" transform="translate(-45.974 -22.813)"/>
        <path id="Trazado_825769" data-name="Trazado 825769" d="M314.185,28.085h0a1.436,1.436,0,0,0-.25,2.011,24.3,24.3,0,0,1,0,29.912,1.436,1.436,0,0,0,2.266,1.765,27.17,27.17,0,0,0,0-33.442,1.436,1.436,0,0,0-2.016-.246" transform="translate(-257.33 -22.793)"/>
        <path id="Trazado_825770" data-name="Trazado 825770" d="M264.423,58.191a14.308,14.308,0,0,1,0,19.649,1.436,1.436,0,0,0,.061,2.03h0a1.436,1.436,0,0,0,2.03-.062h0a17.18,17.18,0,0,0,0-23.584,1.436,1.436,0,1,0-2.108,1.951l.015.017" transform="translate(-216.628 -45.753)"/>
        <path id="Trazado_825771" data-name="Trazado 825771" d="M117.732,80.26a1.436,1.436,0,0,0,1.047-2.42,14.308,14.308,0,0,1,0-19.649,1.436,1.436,0,1,0-2.077-1.984l-.015.017a17.18,17.18,0,0,0,0,23.584,1.436,1.436,0,0,0,1.046.452" transform="translate(-91.895 -45.752)"/>
        <path id="Trazado_825772" data-name="Trazado 825772" d="M141.291,150.946,127.308,96.418a7.181,7.181,0,1,0-9.286,0l-13.982,54.529a1.436,1.436,0,0,0,1.033,1.749h0a1.462,1.462,0,0,0,.356.045,1.436,1.436,0,0,0,1.39-1.079l.48-1.867a1.442,1.442,0,0,0,.234-.089l26.846-14.13,4.125,16.085a1.436,1.436,0,0,0,1.393,1.08,1.455,1.455,0,0,0,.358-.045,1.436,1.436,0,0,0,1.036-1.747v0m-13.846-42.425-7.81-6.835.988-3.852a6.443,6.443,0,0,0,4.081,0Zm-4.781-21.844a4.308,4.308,0,1,1-4.308,4.308,4.308,4.308,0,0,1,4.308-4.308M118.837,104.8l8.65,7.571-12.782,8.516Zm-10.584,41.276,5.156-20.106,17.521,8.174Zm7.28-22.283,13.518-9.013,4.462,17.4Z" transform="translate(-85.325 -68.723)"/>
      </g>
    </g>
    <g id="Grupo_1077736" data-name="Grupo 1077736" transform="translate(-66 241)">
      <g id="Grupo_1077735" data-name="Grupo 1077735" transform="translate(544 12093)">
        <g id="Grupo_1077734" data-name="Grupo 1077734" clip-path="url(#clip-path-2)">
          <path id="Trazado_825773" data-name="Trazado 825773" d="M338.31,20.855a42.082,42.082,0,0,0-16.982-10.405l-.641-.2a1.575,1.575,0,1,0-.918,3.014l.587.184a39.351,39.351,0,0,1,19.557,60.788,6.457,6.457,0,0,0-7.174,1.172,6.308,6.308,0,1,0,9.606.844,42.475,42.475,0,0,0-4.034-55.4m1.115,61.24a3.224,3.224,0,0,1-4.453,0,3.149,3.149,0,1,1,4.454,0h0" transform="translate(-265.751 -8.493)"/>
          <path id="Trazado_825774" data-name="Trazado 825774" d="M153.047,16.057a1.549,1.549,0,0,0,.6-.121c.929-.386,1.89-.742,2.835-1.055a1.575,1.575,0,1,0-.984-2.991c-1.03.339-2.061.722-3.062,1.14a1.574,1.574,0,0,0,.608,3.028" transform="translate(-126.324 -9.849)"/>
          <path id="Trazado_825775" data-name="Trazado 825775" d="M264.231,3.145c1,.066,2.012.17,3.014.315a1.575,1.575,0,1,0,.444-3.119c-1.08-.158-2.174-.266-3.25-.337a1.578,1.578,0,0,0-.208,3.15Z" transform="translate(-219.136 0)"/>
          <path id="Trazado_825776" data-name="Trazado 825776" d="M207.631,3.913a1.428,1.428,0,0,0,.258-.022c.986-.158,2-.29,3.006-.378a1.578,1.578,0,0,0-.278-3.145c-1.088.1-2.178.235-3.24.41a1.574,1.574,0,0,0,.254,3.128Z" transform="translate(-171.847 -0.302)"/>
          <path id="Trazado_825777" data-name="Trazado 825777" d="M272.017,489.383c-.993.158-2,.29-3.006.377a1.576,1.576,0,1,0,.135,3.149c.046,0,.091,0,.137,0,1.082-.093,2.172-.23,3.245-.407a1.575,1.575,0,0,0,1.3-1.809,1.558,1.558,0,0,0-1.765-1.317l-.044.007" transform="translate(-223.093 -408.119)"/>
          <path id="Trazado_825778" data-name="Trazado 825778" d="M327.335,473.882c-.934.388-1.89.743-2.835,1.055a1.575,1.575,0,0,0,.916,3.013l.065-.021c1.027-.337,2.058-.72,3.066-1.137a1.576,1.576,0,0,0-1.209-2.91Z" transform="translate(-269.698 -395.109)"/>
          <path id="Trazado_825779" data-name="Trazado 825779" d="M216.112,490.483c-1.009-.066-2.021-.172-3.009-.315a1.575,1.575,0,0,0-.452,3.116c1.069.158,2.164.271,3.254.342h.106a1.575,1.575,0,1,0,.1-3.149Z" transform="translate(-176.245 -408.782)"/>
          <path id="Trazado_825780" data-name="Trazado 825780" d="M30.951,116.408q-1.045-.315-2.08-.7A39.356,39.356,0,0,1,10.807,55.46,6.285,6.285,0,0,0,18,45.361a6.444,6.444,0,0,0-8.906,0,6.27,6.27,0,0,0-.7,8.059A42.514,42.514,0,0,0,27.78,118.661q1.115.412,2.247.756a1.5,1.5,0,0,0,.462.069,1.575,1.575,0,0,0,.46-3.08ZM11.319,47.587a3.149,3.149,0,0,1,4.53,4.375c-.025.027-.051.052-.077.078a3.224,3.224,0,0,1-4.453,0,3.149,3.149,0,0,1,0-4.453" transform="translate(0 -36.341)"/>
          <path id="Trazado_825781" data-name="Trazado 825781" d="M138.675,126.292a28.174,28.174,0,0,0,0-26.321c-.017-.042-.04-.08-.058-.121a28.316,28.316,0,0,0-50.044,0c-.019.041-.041.079-.058.121a28.171,28.171,0,0,0,0,26.321c.017.043.039.08.058.121a28.316,28.316,0,0,0,50.044,0c.014-.041.041-.078.058-.121M103.061,90.276l-1.019,3.4c-.524,1.748-.969,3.512-1.351,5.283H92.782a25.343,25.343,0,0,1,10.279-8.684M90.976,102.109H100.1a67.294,67.294,0,0,0-.892,9.447H88.482a24.942,24.942,0,0,1,2.494-9.447m-2.494,12.6H99.206a67.379,67.379,0,0,0,.892,9.448H90.976a24.942,24.942,0,0,1-2.494-9.448m4.3,12.6h7.909c.381,1.772.827,3.535,1.351,5.283l1.019,3.4A25.333,25.333,0,0,1,92.782,127.3m19.238,10.942a24.986,24.986,0,0,1-5.259-.887l-1.7-5.676c-.436-1.451-.812-2.912-1.143-4.379h8.1Zm0-14.091h-8.7a64.2,64.2,0,0,1-.935-9.448h9.635Zm0-12.6h-9.635a64.287,64.287,0,0,1,.935-9.447h8.7Zm0-12.6h-8.1c.331-1.468.707-2.929,1.143-4.379l1.7-5.676a24.987,24.987,0,0,1,5.259-.887Zm26.688,12.6H127.746a67.652,67.652,0,0,0-.89-9.447h9.358a24.966,24.966,0,0,1,2.494,9.447m-4.3-12.6h-8.147c-.381-1.771-.825-3.535-1.35-5.283l-1.062-3.535a25.34,25.34,0,0,1,10.558,8.818M115.169,88.018a24.983,24.983,0,0,1,5,.82l1.723,5.742c.434,1.45.811,2.911,1.141,4.379h-7.867Zm0,14.091h8.462a64.2,64.2,0,0,1,.935,9.447h-9.4Zm6.725,29.573-1.722,5.742a25.087,25.087,0,0,1-5,.82V127.3h7.873c-.337,1.468-.713,2.929-1.148,4.379m-6.725-7.528v-9.448h9.4a64.287,64.287,0,0,1-.935,9.448Zm8.681,11.967,1.061-3.535c.525-1.748.968-3.512,1.35-5.283h8.147a25.344,25.344,0,0,1-10.557,8.818m3.006-11.967a67.652,67.652,0,0,0,.89-9.448h10.962a24.966,24.966,0,0,1-2.494,9.448Z" transform="translate(-71.099 -70.707)"/>
        </g>
      </g>
    </g>
    <g id="Grupo_1077738" data-name="Grupo 1077738" transform="translate(613.281 12334)">
      <g id="Grupo_1077737" data-name="Grupo 1077737" clip-path="url(#clip-path-3)">
        <path id="Trazado_825782" data-name="Trazado 825782" d="M90.6,89.558a2.988,2.988,0,0,0-.978-2.211L76.407,75.332a2.988,2.988,0,0,0-5,2.211V94.272l-5.427-5.519a2.988,2.988,0,0,0-4.261,4.19l8.486,8.63L61.72,110.2a2.988,2.988,0,1,0,4.261,4.19l5.427-5.519V125.6a2.988,2.988,0,0,0,5,2.211L89.621,115.8a2.988,2.988,0,0,0,0-4.422l-10.782-9.8,10.782-9.8a2.988,2.988,0,0,0,.978-2.211M77.385,118.847V108.33l5.784,5.259Zm0-24.03V84.3l5.784,5.259Z" transform="translate(-48.737 -59.702)"/>
        <path id="Trazado_825783" data-name="Trazado 825783" d="M26.5,0A26.525,26.525,0,0,0,0,26.5V57.247a26.5,26.5,0,0,0,52.991,0V26.5A26.526,26.526,0,0,0,26.5,0M47.014,57.247a20.519,20.519,0,1,1-41.037,0V26.5a20.519,20.519,0,1,1,41.038,0V57.247Z"/>
        <path id="Trazado_825784" data-name="Trazado 825784" d="M394.2,1.663A2.988,2.988,0,0,0,390.4,6.281a46.885,46.885,0,0,1-.208,72.745,2.988,2.988,0,1,0,3.767,4.64,52.861,52.861,0,0,0,.234-82Z" transform="translate(-311.575 -0.788)"/>
        <path id="Trazado_825785" data-name="Trazado 825785" d="M347.624,58.782a2.988,2.988,0,1,0-3.793,4.618,32.182,32.182,0,0,1-.142,49.934,2.988,2.988,0,1,0,3.767,4.64,38.158,38.158,0,0,0,.169-59.192Z" transform="translate(-274.334 -46.527)"/>
        <path id="Trazado_825786" data-name="Trazado 825786" d="M301.081,115.864a2.988,2.988,0,0,0-3.792,4.62,17.5,17.5,0,0,1-.077,27.137,2.988,2.988,0,1,0,3.766,4.641,23.48,23.48,0,0,0,.1-36.4Z" transform="translate(-237.116 -92.239)"/>
      </g>
    </g>
    <g id="Grupo_1077740" data-name="Grupo 1077740" transform="translate(771.781 12335)">
      <g id="Grupo_1077739" data-name="Grupo 1077739" clip-path="url(#clip-path-4)">
        <path id="Trazado_825787" data-name="Trazado 825787" d="M32.112,39.24A9.364,9.364,0,1,0,41.475,48.6a9.374,9.374,0,0,0-9.364-9.364m0,16.3A6.934,6.934,0,1,1,39.046,48.6a6.942,6.942,0,0,1-6.934,6.934m2.511-10.11L30.848,49.2,29.6,47.956a1.215,1.215,0,1,0-1.718,1.718l1.648,1.648a1.865,1.865,0,0,0,2.634,0l4.176-4.175a1.215,1.215,0,0,0-1.718-1.718M49.521,60.4H41.449a1.215,1.215,0,0,0,0,2.429h8.072a2.026,2.026,0,0,1,2.024,2.024V78.462a2.026,2.026,0,0,1-2.024,2.024H14.7a2.026,2.026,0,0,1-2.024-2.024V64.85A2.026,2.026,0,0,1,14.7,62.825H35.781a1.215,1.215,0,1,0,0-2.429H14.7a4.459,4.459,0,0,0-4.453,4.453V78.462A4.459,4.459,0,0,0,14.7,82.915H49.521a4.459,4.459,0,0,0,4.453-4.453V64.85A4.459,4.459,0,0,0,49.521,60.4M42.247,67.76a1.215,1.215,0,1,0,0-2.429H38.073a1.214,1.214,0,0,0-1.215,1.215v10.3a1.215,1.215,0,1,0,2.429,0V72.811h2.628a1.215,1.215,0,1,0,0-2.429H39.288V67.76Zm8.79-41.14a4.076,4.076,0,0,0,0-5.694,26.8,26.8,0,0,0-37.851,0A4.026,4.026,0,1,0,18.88,26.62a18.734,18.734,0,0,1,26.464,0,4.078,4.078,0,0,0,5.694,0m-18.925-7.9A21.077,21.077,0,0,0,17.162,24.9,1.6,1.6,0,1,1,14.9,22.644a24.364,24.364,0,0,1,34.416,0A1.6,1.6,0,0,1,47.062,24.9a21.077,21.077,0,0,0-14.95-6.182m30.948-5.9A43.48,43.48,0,0,0,32.112,0a44.184,44.184,0,0,0-9.966,1.133A1.215,1.215,0,0,0,22.694,3.5a41.762,41.762,0,0,1,9.417-1.071,41.067,41.067,0,0,1,29.23,12.108,1.616,1.616,0,0,1,0,2.258,1.6,1.6,0,0,1-2.258,0,38.144,38.144,0,0,0-53.943,0,1.6,1.6,0,1,1-2.258-2.258A41.044,41.044,0,0,1,17.4,5.111a1.215,1.215,0,1,0-.863-2.271A43.458,43.458,0,0,0,1.164,12.819a4.063,4.063,0,0,0,0,5.694,4.031,4.031,0,0,0,5.694,0,35.714,35.714,0,0,1,50.508,0,4.031,4.031,0,0,0,5.694,0A4.076,4.076,0,0,0,63.06,12.819ZM48.32,76.842V66.469a1.215,1.215,0,1,0-2.429,0V76.842a1.215,1.215,0,1,0,2.429,0m-3.994-39.6a4.076,4.076,0,0,0,0-5.694,17.292,17.292,0,0,0-24.428,0,4.026,4.026,0,1,0,5.694,5.694,9.231,9.231,0,0,1,13.04,0A4.078,4.078,0,0,0,44.326,37.247ZM32.112,32.122a11.615,11.615,0,0,0-8.238,3.407,1.6,1.6,0,1,1-2.258-2.258,14.86,14.86,0,0,1,20.992,0,1.6,1.6,0,0,1-2.258,2.258,11.614,11.614,0,0,0-8.238-3.407M27.165,66.251,25.9,72.609l-2-6.5a1.214,1.214,0,0,0-2.349.109L19.571,72.61,18.31,66.234a1.215,1.215,0,0,0-2.383.471l2.021,10.218a1.232,1.232,0,0,0,.047.171,1.45,1.45,0,0,0,1.365.964h.01a1.45,1.45,0,0,0,1.362-.982l.01-.032,2-6.447,1.987,6.449c.005.017.011.033.016.049a1.45,1.45,0,0,0,1.365.964h.01a1.45,1.45,0,0,0,1.362-.982,1.241,1.241,0,0,0,.041-.154l2.029-10.2a1.215,1.215,0,0,0-2.383-.474ZM32,66.469V76.842a1.215,1.215,0,1,0,2.429,0V66.469a1.215,1.215,0,1,0-2.429,0Z" transform="translate(0)"/>
      </g>
    </g>
    <g id="Grupo_1077742" data-name="Grupo 1077742" transform="translate(895 12334.464)">
      <g id="Grupo_1077741" data-name="Grupo 1077741" transform="translate(0 -0.464)" clip-path="url(#clip-path-5)">
        <path id="Trazado_825788" data-name="Trazado 825788" d="M80.768,96.316H74.152l14.016-32.7A2.594,2.594,0,1,0,83.4,61.569L68.507,96.316H20.043L5.152,61.569A2.594,2.594,0,1,0,.383,63.613L14.4,96.316H7.783A7.792,7.792,0,0,0,0,104.1v15.566a7.792,7.792,0,0,0,7.783,7.783H10.55v2.767a2.594,2.594,0,1,0,5.189,0v-2.767H72.812v2.767a2.594,2.594,0,1,0,5.189,0v-2.767h2.767a7.792,7.792,0,0,0,7.783-7.783V104.1a7.792,7.792,0,0,0-7.783-7.783m2.594,23.348a2.6,2.6,0,0,1-2.594,2.594H7.783a2.6,2.6,0,0,1-2.594-2.594V104.1A2.6,2.6,0,0,1,7.783,101.5H80.768a2.6,2.6,0,0,1,2.594,2.594Z" transform="translate(0 -49.202)"/>
        <path id="Trazado_825789" data-name="Trazado 825789" d="M220.607,182.282a2.594,2.594,0,0,0,3.669,3.669,2.562,2.562,0,0,1,3.648,0,2.594,2.594,0,0,0,3.669-3.669,7.75,7.75,0,0,0-10.985,0" transform="translate(-181.825 -148.452)"/>
        <path id="Trazado_825790" data-name="Trazado 825790" d="M96.923,15.079a33.7,33.7,0,0,1,47.7,0,2.594,2.594,0,1,0,3.67-3.667,38.888,38.888,0,0,0-55.038,0,2.594,2.594,0,0,0,3.67,3.668" transform="translate(-76.497 0.417)"/>
        <path id="Trazado_825791" data-name="Trazado 825791" d="M176.057,72.038a2.6,2.6,0,0,0,0-3.669,28.509,28.509,0,0,0-40.355,0,2.594,2.594,0,1,0,3.671,3.667,23.32,23.32,0,0,1,33.013,0,2.594,2.594,0,0,0,3.669,0" transform="translate(-111.607 -49.206)"/>
        <path id="Trazado_825792" data-name="Trazado 825792" d="M203.821,128.993a2.594,2.594,0,0,0,0-3.669,18.136,18.136,0,0,0-25.672,0,2.594,2.594,0,1,0,3.669,3.669,12.947,12.947,0,0,1,18.334,0,2.594,2.594,0,0,0,3.669,0" transform="translate(-146.71 -98.829)"/>
        <path id="Trazado_825793" data-name="Trazado 825793" d="M303.594,330A2.594,2.594,0,0,0,301,332.594v5.189a2.594,2.594,0,0,0,5.189,0v-5.189A2.594,2.594,0,0,0,303.594,330" transform="translate(-248.942 -272.509)"/>
        <path id="Trazado_825794" data-name="Trazado 825794" d="M363.594,330A2.594,2.594,0,0,0,361,332.594v5.189a2.594,2.594,0,0,0,5.189,0v-5.189A2.594,2.594,0,0,0,363.594,330" transform="translate(-298.565 -272.509)"/>
        <path id="Trazado_825795" data-name="Trazado 825795" d="M423.594,330A2.594,2.594,0,0,0,421,332.594v5.189a2.594,2.594,0,0,0,5.189,0v-5.189A2.594,2.594,0,0,0,423.594,330" transform="translate(-348.188 -272.509)"/>
      </g>
    </g>
    <g id="Grupo_1077744" data-name="Grupo 1077744" transform="translate(1043 12332.739)">
      <g id="Grupo_1077743" data-name="Grupo 1077743" clip-path="url(#clip-path-6)">
        <path id="Trazado_825796" data-name="Trazado 825796" d="M5.391,86.261H45.826a5.391,5.391,0,0,0,5.391-5.391V70.087h6.739A4.043,4.043,0,0,0,62,66.043v-28.3A4.043,4.043,0,0,0,57.957,33.7h-15.5a1.348,1.348,0,1,0,0,2.7H52.565v31H20.217v-31H30.326a1.348,1.348,0,1,0,0-2.7h-15.5a4.043,4.043,0,0,0-4.043,4.043v28.3a4.043,4.043,0,0,0,4.043,4.043h28.3v8.087H8.087V8.087h6.739V9.435a2.7,2.7,0,0,0,2.7,2.7H33.7a2.7,2.7,0,0,0,2.7-2.7V8.087H43.13v5.391a1.348,1.348,0,1,0,2.7,0V6.739a1.348,1.348,0,0,0-1.348-1.348H35.043A1.348,1.348,0,0,0,33.7,6.739v2.7H17.522v-2.7a1.348,1.348,0,0,0-1.348-1.348H6.739A1.348,1.348,0,0,0,5.391,6.739V79.522A1.348,1.348,0,0,0,6.739,80.87H44.478a1.348,1.348,0,0,0,1.348-1.348V70.087h2.7V80.87a2.7,2.7,0,0,1-2.7,2.7H5.391a2.7,2.7,0,0,1-2.7-2.7V5.391a2.7,2.7,0,0,1,2.7-2.7H45.826a2.7,2.7,0,0,1,2.7,2.7V16.174a1.348,1.348,0,1,0,2.7,0V5.391A5.391,5.391,0,0,0,45.826,0H5.391A5.391,5.391,0,0,0,0,5.391V80.87a5.391,5.391,0,0,0,5.391,5.391m49.87-49.87h2.7A1.348,1.348,0,0,1,59.3,37.739v2.7H55.261Zm0,6.739H59.3v4.043H55.261Zm0,6.739H59.3v4.043H55.261Zm0,6.739H59.3v4.043H55.261Zm0,6.739H59.3v2.7a1.348,1.348,0,0,1-1.348,1.348h-2.7ZM17.522,67.391h-2.7a1.348,1.348,0,0,1-1.348-1.348v-2.7h4.043Zm0-6.739H13.478V56.609h4.043Zm0-6.739H13.478V49.87h4.043Zm0-6.739H13.478V43.13h4.043Zm0-6.739H13.478v-2.7a1.348,1.348,0,0,1,1.348-1.348h2.7Z"/>
        <path id="Trazado_825797" data-name="Trazado 825797" d="M206.022,192A2.022,2.022,0,1,1,204,194.022,2.022,2.022,0,0,1,206.022,192" transform="translate(-169.63 -159.652)"/>
        <path id="Trazado_825798" data-name="Trazado 825798" d="M192.235,162.607a7.4,7.4,0,0,0-11.279,0,1.348,1.348,0,1,0,2.059,1.74,4.7,4.7,0,0,1,7.16,0,1.348,1.348,0,0,0,2.059-1.74" transform="translate(-150.205 -133.043)"/>
        <path id="Trazado_825799" data-name="Trazado 825799" d="M176.2,134.4a1.348,1.348,0,0,0,.993-2.259,12.773,12.773,0,0,0-18.047-.787q-.411.376-.787.787a1.348,1.348,0,0,0,1.987,1.822,10.078,10.078,0,0,1,14.238-.623q.325.3.623.623a1.348,1.348,0,0,0,.993.437" transform="translate(-131.38 -106.433)"/>
        <path id="Trazado_825800" data-name="Trazado 825800" d="M161.049,103.979a1.348,1.348,0,0,0,.981-2.272,18.165,18.165,0,0,0-25.677-.762q-.392.369-.762.762a1.348,1.348,0,1,0,1.908,1.9q.028-.028.053-.057a15.473,15.473,0,0,1,21.873-.644q.332.313.644.644A1.34,1.34,0,0,0,161.049,103.979Z" transform="translate(-112.42 -79.826)"/>
        <path id="Trazado_825801" data-name="Trazado 825801" d="M171.529,260A3.534,3.534,0,0,0,168,263.529v9.117a3.53,3.53,0,0,0,5.107,3.157l9.118-4.558a3.53,3.53,0,0,0,0-6.313l-9.117-4.558A3.559,3.559,0,0,0,171.529,260Zm9.95,8.087a.83.83,0,0,1-.461.745l-9.109,4.558a.857.857,0,0,1-1.213-.745v-9.117a.834.834,0,0,1,1.213-.745l9.114,4.558A.829.829,0,0,1,181.478,268.087Z" transform="translate(-139.696 -216.196)"/>
      </g>
    </g>
    <g id="Grupo_1077746" data-name="Grupo 1077746" transform="translate(1161.5 12337)">
      <g id="Grupo_1077745" data-name="Grupo 1077745" clip-path="url(#clip-path-7)">
        <path id="Trazado_825802" data-name="Trazado 825802" d="M76.257,48H56.219a1.248,1.248,0,1,0,0,2.5H76.257a1.248,1.248,0,0,1,1.248,1.248V92.756l-74.859.211V51.743A1.248,1.248,0,0,1,3.894,50.5H23.78a1.248,1.248,0,1,0,0-2.5H3.894A3.743,3.743,0,0,0,.151,51.743V93.654a1.123,1.123,0,0,0,0,1.123v1.881A3.743,3.743,0,0,0,3.894,100.4h26.2v9.981a2.5,2.5,0,0,0-2.5,2.5v2.5a2.5,2.5,0,0,0,2.5,2.5H50.057a2.5,2.5,0,0,0,2.5-2.5v-2.5a2.5,2.5,0,0,0-2.5-2.5V100.4h26.2A3.743,3.743,0,0,0,80,96.658V51.743A3.743,3.743,0,0,0,76.257,48Zm-26.2,67.373H30.094v-2.5H50.057Zm-9.981-7.486a4.367,4.367,0,0,0,4.367-4.367V100.4h3.119v9.981H32.59V100.4h3.119v3.119a4.367,4.367,0,0,0,4.367,4.367h0ZM38.2,103.52V100.4h3.743v3.119a1.871,1.871,0,1,1-3.743,0m39.3-6.862a1.248,1.248,0,0,1-1.248,1.248H3.894a1.248,1.248,0,0,1-1.248-1.248v-1.2l74.859-.211Z" transform="translate(0 -40.514)"/>
        <path id="Trazado_825803" data-name="Trazado 825803" d="M104.477,107.743v26.2a3.743,3.743,0,0,0,3.743,3.743h39.925a3.743,3.743,0,0,0,3.743-3.743v-26.2A3.743,3.743,0,0,0,148.145,104H133.8a1.248,1.248,0,0,0,0,2.5h9.357v28.7H113.211V106.5h9.357a1.248,1.248,0,0,0,0-2.5H108.22a3.743,3.743,0,0,0-3.743,3.743m41.172-1.248h2.5a1.248,1.248,0,0,1,1.248,1.248v2.5h-3.743Zm0,6.238h3.743v3.743h-3.743Zm0,6.238h3.743v3.743h-3.743Zm0,6.238h3.743v3.743h-3.743Zm0,6.238h3.743v2.5a1.248,1.248,0,0,1-1.248,1.248h-2.5Zm-34.934,3.743h-2.5a1.248,1.248,0,0,1-1.248-1.248v-2.5h3.743Zm0-6.238h-3.743V125.21h3.743Zm0-6.238h-3.743v-3.743h3.743Zm0-6.238h-3.743v-3.743h3.743Zm0-6.238h-3.743v-2.5a1.248,1.248,0,0,1,1.248-1.248h2.5Z" transform="translate(-88.183 -87.781)"/>
        <path id="Trazado_825804" data-name="Trazado 825804" d="M246.348,96a1.871,1.871,0,1,1-1.871,1.871A1.872,1.872,0,0,1,246.348,96" transform="translate(-206.349 -81.028)"/>
        <path id="Trazado_825805" data-name="Trazado 825805" d="M231.852,66.413a6.852,6.852,0,0,0-10.442,0,1.248,1.248,0,1,0,1.906,1.611,4.356,4.356,0,0,1,6.629,0,1.248,1.248,0,0,0,1.906-1.611" transform="translate(-186.631 -54.018)"/>
        <path id="Trazado_825806" data-name="Trazado 825806" d="M215.32,37.924a1.248,1.248,0,0,0,.92-2.091,11.824,11.824,0,0,0-16.706-.729q-.38.348-.729.729a1.248,1.248,0,0,0,1.839,1.687,9.329,9.329,0,0,1,13.18-.576q.3.275.576.576a1.248,1.248,0,0,0,.92.4" transform="translate(-167.523 -27.007)"/>
        <path id="Trazado_825807" data-name="Trazado 825807" d="M199.743,7.386a1.248,1.248,0,0,0,.908-2.1,16.815,16.815,0,0,0-23.769-.7q-.363.342-.7.7A1.248,1.248,0,0,0,178,6.993a14.318,14.318,0,0,1,20.24-.6q.306.289.6.6A1.248,1.248,0,0,0,199.743,7.386Z" transform="translate(-148.415 0)"/>
        <path id="Trazado_825808" data-name="Trazado 825808" d="M211.743,164a3.271,3.271,0,0,0-3.266,3.266v8.439a3.268,3.268,0,0,0,4.727,2.922l8.442-4.22a3.269,3.269,0,0,0,0-5.844l-8.44-4.22a3.3,3.3,0,0,0-1.462-.344m9.21,7.486a.77.77,0,0,1-.425.69L212.1,176.4a.792.792,0,0,1-1.123-.69v-8.439a.772.772,0,0,1,1.117-.69l8.438,4.22a.769.769,0,0,1,.427.69" transform="translate(-175.964 -138.423)"/>
      </g>
    </g>
  </g>
</svg>
