<svg xmlns="http://www.w3.org/2000/svg" xmlns:xlink="http://www.w3.org/1999/xlink" width="442.051" height="284.036" viewBox="0 0 442.051 284.036">
  <defs>
    <clipPath id="clip-path">
      <path id="Trazado_165434" data-name="Trazado 165434" d="M0,4.151A4.149,4.149,0,1,0,4.148,0,4.148,4.148,0,0,0,0,4.151" fill="#2efec7"/>
    </clipPath>
    <clipPath id="clip-path-2">
      <path id="Trazado_165438" data-name="Trazado 165438" d="M4.147,0A4.148,4.148,0,1,0,8.3,4.15,4.148,4.148,0,0,0,4.147,0Z" fill="#2efec7"/>
    </clipPath>
    <clipPath id="clip-path-3">
      <path id="Trazado_165440" data-name="Trazado 165440" d="M0,4.151A4.148,4.148,0,1,0,4.148,0,4.149,4.149,0,0,0,0,4.151" fill="#2efec7"/>
    </clipPath>
    <clipPath id="clip-path-4">
      <path id="Trazado_165442" data-name="Trazado 165442" d="M0,4.149A4.148,4.148,0,1,0,4.148,0,4.148,4.148,0,0,0,0,4.149" fill="#2efec7"/>
    </clipPath>
    <clipPath id="clip-path-5">
      <path id="Trazado_165444" data-name="Trazado 165444" d="M4.146,0A4.148,4.148,0,1,0,8.3,4.149,4.147,4.147,0,0,0,4.146,0Z" fill="#2efec7"/>
    </clipPath>
    <clipPath id="clip-path-6">
      <path id="Trazado_165446" data-name="Trazado 165446" d="M0,4.151A4.149,4.149,0,1,0,4.148,0,4.149,4.149,0,0,0,0,4.151" fill="#2efec7"/>
    </clipPath>
    <clipPath id="clip-path-7">
      <path id="Trazado_165448" data-name="Trazado 165448" d="M0,4.149A4.149,4.149,0,1,0,4.15,0h0A4.153,4.153,0,0,0,0,4.149" fill="#2efec7"/>
    </clipPath>
    <clipPath id="clip-path-8">
      <path id="Trazado_165450" data-name="Trazado 165450" d="M4.146,0A4.148,4.148,0,1,0,8.3,4.15,4.147,4.147,0,0,0,4.146,0Z" fill="#2efec7"/>
    </clipPath>
    <clipPath id="clip-path-9">
      <path id="Trazado_165452" data-name="Trazado 165452" d="M0,4.151A4.148,4.148,0,1,0,4.147,0,4.148,4.148,0,0,0,0,4.151" fill="#2efec7"/>
    </clipPath>
    <clipPath id="clip-path-10">
      <path id="Trazado_165454" data-name="Trazado 165454" d="M0,4.149A4.148,4.148,0,1,0,4.147,0,4.147,4.147,0,0,0,0,4.149" fill="#2efec7"/>
    </clipPath>
    <clipPath id="clip-path-12">
      <path id="Trazado_165436" data-name="Trazado 165436" d="M0,4.149A4.149,4.149,0,1,0,4.149,0h0A4.153,4.153,0,0,0,0,4.149" fill="#2efec7"/>
    </clipPath>
  </defs>
  <g id="Grupo_1078021" data-name="Grupo 1078021" transform="translate(1035.662 4949.517)">
    <g id="Grupo_1078020" data-name="Grupo 1078020">
      <g id="Grupo_1078019" data-name="Grupo 1078019">
        <g id="Grupo_1077828" data-name="Grupo 1077828" transform="translate(4732 -10861)">
          <g id="Grupo_1077781" data-name="Grupo 1077781" transform="translate(-5834.662 5911.483)">
            <rect id="Rectángulo_373681" data-name="Rectángulo 373681" width="12.041" height="70.838" rx="6.021" transform="translate(500.537 0) rotate(45)" fill="#ffb476"/>
            <g id="Grupo_1065536" data-name="Grupo 1065536" transform="translate(408.6 284.035) rotate(-90)">
              <g id="Group_881454" data-name="Group 881454" transform="translate(0 67.421)">
                <g id="Grupo_108438" data-name="Grupo 108438">
                  <path id="Trazado_165433" data-name="Trazado 165433" d="M0,4.151A4.149,4.149,0,1,0,4.148,0,4.148,4.148,0,0,0,0,4.151" fill="#2efec7"/>
                  <g id="Grupo_108437" data-name="Grupo 108437" clip-path="url(#clip-path)">
                    <g id="Group_881453" data-name="Group 881453" transform="translate(0 0)">
                      <rect id="Rectangle_298909" data-name="Rectangle 298909" width="8.297" height="8.297" fill="#2efec7"/>
                    </g>
                  </g>
                </g>
              </g>
              <g id="Group_881458" data-name="Group 881458" transform="translate(0.001)">
                <g id="Grupo_108442" data-name="Grupo 108442">
                  <path id="Trazado_165437" data-name="Trazado 165437" d="M4.147,0A4.148,4.148,0,1,0,8.3,4.15,4.148,4.148,0,0,0,4.147,0Z" fill="#2efec7"/>
                  <g id="Grupo_108441" data-name="Grupo 108441" clip-path="url(#clip-path-2)">
                    <g id="Group_881457" data-name="Group 881457" transform="translate(-0.001 0.001)">
                      <rect id="Rectangle_298911" data-name="Rectangle 298911" width="8.297" height="8.295" fill="#2efec7"/>
                    </g>
                  </g>
                </g>
              </g>
              <g id="Group_881460" data-name="Group 881460" transform="translate(28.117 67.421)">
                <g id="Grupo_108444" data-name="Grupo 108444">
                  <path id="Trazado_165439" data-name="Trazado 165439" d="M0,4.151A4.148,4.148,0,1,0,4.148,0,4.149,4.149,0,0,0,0,4.151" fill="#2efec7"/>
                  <g id="Grupo_108443" data-name="Grupo 108443" clip-path="url(#clip-path-3)">
                    <g id="Group_881459" data-name="Group 881459" transform="translate(0 0)">
                      <rect id="Rectangle_298912" data-name="Rectangle 298912" width="8.297" height="8.297" fill="#2efec7"/>
                    </g>
                  </g>
                </g>
              </g>
              <g id="Group_881462" data-name="Group 881462" transform="translate(28.117 35.091)">
                <g id="Grupo_108446" data-name="Grupo 108446">
                  <path id="Trazado_165441" data-name="Trazado 165441" d="M0,4.149A4.148,4.148,0,1,0,4.148,0,4.148,4.148,0,0,0,0,4.149" fill="#2efec7"/>
                  <g id="Grupo_108445" data-name="Grupo 108445" clip-path="url(#clip-path-4)">
                    <g id="Group_881461" data-name="Group 881461" transform="translate(0 0)">
                      <rect id="Rectangle_298913" data-name="Rectangle 298913" width="8.297" height="8.297" fill="#2efec7"/>
                    </g>
                  </g>
                </g>
              </g>
              <g id="Group_881464" data-name="Group 881464" transform="translate(28.119)">
                <g id="Grupo_108448" data-name="Grupo 108448">
                  <path id="Trazado_165443" data-name="Trazado 165443" d="M4.146,0A4.148,4.148,0,1,0,8.3,4.149,4.147,4.147,0,0,0,4.146,0Z" fill="#2efec7"/>
                  <g id="Grupo_108447" data-name="Grupo 108447" clip-path="url(#clip-path-5)">
                    <g id="Group_881463" data-name="Group 881463" transform="translate(-0.002 0.001)">
                      <rect id="Rectangle_298914" data-name="Rectangle 298914" width="8.297" height="8.295" fill="#2efec7"/>
                    </g>
                  </g>
                </g>
              </g>
              <g id="Group_881454-2" data-name="Group 881454" transform="translate(57.451 67.421)">
                <g id="Grupo_108450" data-name="Grupo 108450">
                  <path id="Trazado_165445" data-name="Trazado 165445" d="M0,4.151A4.149,4.149,0,1,0,4.148,0,4.149,4.149,0,0,0,0,4.151" fill="#2efec7"/>
                  <g id="Grupo_108449" data-name="Grupo 108449" clip-path="url(#clip-path-6)">
                    <g id="Group_881453-2" data-name="Group 881453" transform="translate(0 0)">
                      <rect id="Rectangle_298909-2" data-name="Rectangle 298909" width="8.297" height="8.297" fill="#2efec7"/>
                    </g>
                  </g>
                </g>
              </g>
              <g id="Group_881456" data-name="Group 881456" transform="translate(57.451 35.091)">
                <g id="Grupo_108452" data-name="Grupo 108452">
                  <path id="Trazado_165447" data-name="Trazado 165447" d="M0,4.149A4.149,4.149,0,1,0,4.15,0h0A4.153,4.153,0,0,0,0,4.149" fill="#2efec7"/>
                  <g id="Grupo_108451" data-name="Grupo 108451" clip-path="url(#clip-path-7)">
                    <g id="Group_881455" data-name="Group 881455" transform="translate(0 0)">
                      <rect id="Rectangle_298910" data-name="Rectangle 298910" width="8.297" height="8.297" fill="#2efec7"/>
                    </g>
                  </g>
                </g>
              </g>
              <g id="Group_881458-2" data-name="Group 881458" transform="translate(57.453)">
                <g id="Grupo_108454" data-name="Grupo 108454">
                  <path id="Trazado_165449" data-name="Trazado 165449" d="M4.146,0A4.148,4.148,0,1,0,8.3,4.15,4.147,4.147,0,0,0,4.146,0Z" fill="#2efec7"/>
                  <g id="Grupo_108453" data-name="Grupo 108453" clip-path="url(#clip-path-8)">
                    <g id="Group_881457-2" data-name="Group 881457" transform="translate(-0.001 0.001)">
                      <rect id="Rectangle_298911-2" data-name="Rectangle 298911" width="8.297" height="8.295" fill="#2efec7"/>
                    </g>
                  </g>
                </g>
              </g>
              <g id="Group_881460-2" data-name="Group 881460" transform="translate(85.569 67.421)">
                <g id="Grupo_108456" data-name="Grupo 108456">
                  <path id="Trazado_165451" data-name="Trazado 165451" d="M0,4.151A4.148,4.148,0,1,0,4.147,0,4.148,4.148,0,0,0,0,4.151" fill="#2efec7"/>
                  <g id="Grupo_108455" data-name="Grupo 108455" clip-path="url(#clip-path-9)">
                    <g id="Group_881459-2" data-name="Group 881459" transform="translate(0 0)">
                      <rect id="Rectangle_298912-2" data-name="Rectangle 298912" width="8.297" height="8.297" fill="#2efec7"/>
                    </g>
                  </g>
                </g>
              </g>
              <g id="Group_881462-2" data-name="Group 881462" transform="translate(85.569 35.091)">
                <g id="Grupo_108458" data-name="Grupo 108458">
                  <path id="Trazado_165453" data-name="Trazado 165453" d="M0,4.149A4.148,4.148,0,1,0,4.147,0,4.147,4.147,0,0,0,0,4.149" fill="#2efec7"/>
                  <g id="Grupo_108457" data-name="Grupo 108457" clip-path="url(#clip-path-10)">
                    <g id="Group_881461-2" data-name="Group 881461" transform="translate(0 0)">
                      <rect id="Rectangle_298913-2" data-name="Rectangle 298913" width="8.297" height="8.297" fill="#2efec7"/>
                    </g>
                  </g>
                </g>
              </g>
              <g id="Group_881464-2" data-name="Group 881464" transform="translate(85.57)">
                <g id="Grupo_108460" data-name="Grupo 108460">
                  <path id="Trazado_165455" data-name="Trazado 165455" d="M4.146,0A4.148,4.148,0,1,0,8.3,4.149,4.147,4.147,0,0,0,4.146,0Z" fill="#2efec7"/>
                  <g id="Grupo_108459" data-name="Grupo 108459" clip-path="url(#clip-path-5)">
                    <g id="Group_881463-2" data-name="Group 881463" transform="translate(-0.001 0.001)">
                      <rect id="Rectangle_298914-2" data-name="Rectangle 298914" width="8.297" height="8.295" fill="#2efec7"/>
                    </g>
                  </g>
                </g>
              </g>
              <g id="Group_881456-2" data-name="Group 881456" transform="translate(0 35.091)">
                <g id="Grupo_108440" data-name="Grupo 108440">
                  <path id="Trazado_165435" data-name="Trazado 165435" d="M0,4.149A4.149,4.149,0,1,0,4.149,0h0A4.153,4.153,0,0,0,0,4.149" fill="#2efec7"/>
                  <g id="Grupo_108439" data-name="Grupo 108439" clip-path="url(#clip-path-12)">
                    <g id="Group_881455-2" data-name="Group 881455" transform="translate(0 0)">
                      <rect id="Rectangle_298910-2" data-name="Rectangle 298910" width="8.297" height="8.297" fill="#2efec7"/>
                    </g>
                  </g>
                </g>
              </g>
            </g>
            <rect id="Rectángulo_373680" data-name="Rectángulo 373680" width="12.987" height="102.47" rx="6.494" transform="translate(139.457 202.395) rotate(45)" fill="#ff6148"/>
          </g>
          <g id="Grupo_1077836" data-name="Grupo 1077836" transform="translate(-5719.891 5921.808)">
            <g id="Background_Complete" data-name="Background Complete" transform="translate(0 0)">
              <g id="Grupo_66249" data-name="Grupo 66249">
                <rect id="Rectángulo_30170" data-name="Rectángulo 30170" width="375.557" height="0.188" transform="translate(0 245.949)" fill="#ebebeb"/>
                <rect id="Rectángulo_30171" data-name="Rectángulo 30171" width="24.878" height="0.188" transform="translate(313.049 258.039)" fill="#ebebeb"/>
                <rect id="Rectángulo_30172" data-name="Rectángulo 30172" width="6.53" height="0.188" transform="translate(242.255 260.077)" fill="#ebebeb"/>
                <rect id="Rectángulo_30173" data-name="Rectángulo 30173" width="14.416" height="0.188" transform="translate(297.881 251.064)" fill="#ebebeb"/>
                <rect id="Rectángulo_30174" data-name="Rectángulo 30174" width="32.443" height="0.188" transform="translate(39.403 252.326)" fill="#ebebeb"/>
                <rect id="Rectángulo_30175" data-name="Rectángulo 30175" width="4.757" height="0.188" transform="translate(78.533 252.326)" fill="#ebebeb"/>
                <rect id="Rectángulo_30176" data-name="Rectángulo 30176" width="70.361" height="0.188" transform="translate(98.75 255.497)" fill="#ebebeb"/>
                <path id="Trazado_132629" data-name="Trazado 132629" d="M187.534,267.4H42.494a4.293,4.293,0,0,1-4.287-4.287V59.24a4.292,4.292,0,0,1,4.287-4.287H187.534a4.292,4.292,0,0,1,4.287,4.287V263.116A4.292,4.292,0,0,1,187.534,267.4ZM42.494,55.141a4.1,4.1,0,0,0-4.1,4.1V263.116a4.1,4.1,0,0,0,4.1,4.1H187.534a4.1,4.1,0,0,0,4.1-4.1V59.24a4.1,4.1,0,0,0-4.1-4.1Z" transform="translate(-9.509 -54.953)" fill="#ebebeb"/>
                <path id="Trazado_132630" data-name="Trazado 132630" d="M403.83,267.4H258.792a4.292,4.292,0,0,1-4.287-4.287V59.24a4.291,4.291,0,0,1,4.287-4.287H403.83a4.292,4.292,0,0,1,4.288,4.287V263.116A4.293,4.293,0,0,1,403.83,267.4ZM258.792,55.141a4.1,4.1,0,0,0-4.1,4.1V263.116a4.1,4.1,0,0,0,4.1,4.1H403.83a4.1,4.1,0,0,0,4.1-4.1V59.24a4.1,4.1,0,0,0-4.1-4.1Z" transform="translate(-63.343 -54.953)" fill="#ebebeb"/>
              </g>
              <g id="Grupo_66269" data-name="Grupo 66269" transform="translate(35.913 10.229)">
                <g id="Grupo_66250" data-name="Grupo 66250" transform="translate(197.087 6.65)">
                  <path id="Trazado_132631" data-name="Trazado 132631" d="M343.045,92.981a3.67,3.67,0,0,0-4.727-3.517,7.872,7.872,0,0,0,.082-1.127,7.774,7.774,0,0,0-9.21-7.644,6.8,6.8,0,0,0-12.605,3.437c-.038,0-.075-.006-.113-.006a6.265,6.265,0,1,0,0,12.531h23.01l-.005-.005A3.67,3.67,0,0,0,343.045,92.981Z" transform="translate(-310.205 -77.425)" fill="#ff6148"/>
                  <path id="Trazado_132632" data-name="Trazado 132632" d="M332.443,103.081V95.92H326.6v7.16h-4.755l7.676,6.486,7.676-6.486Z" transform="translate(-313.102 -82.028)" fill="#12263f"/>
                </g>
                <g id="Grupo_66251" data-name="Grupo 66251" transform="translate(45.076)">
                  <path id="Trazado_132633" data-name="Trazado 132633" d="M177.57,101.609a7.795,7.795,0,0,0-10.04-7.47,16.69,16.69,0,0,0,.175-2.4A16.509,16.509,0,0,0,148.143,75.51a14.436,14.436,0,0,0-26.771,7.3c-.081,0-.159-.012-.24-.012a13.306,13.306,0,1,0,0,26.613H170l-.01-.011A7.8,7.8,0,0,0,177.57,101.609Z" transform="translate(-107.825 -68.572)" fill="#b0c0d2"/>
                  <path id="Trazado_132634" data-name="Trazado 132634" d="M142.649,108.8v15.207h12.4V108.8h10.1l-16.3-13.775-16.3,13.775Z" transform="translate(-113.979 -75.155)" fill="#12263f"/>
                </g>
                <g id="Grupo_66256" data-name="Grupo 66256" transform="translate(109.504 23.508)">
                  <path id="Trazado_132635" data-name="Trazado 132635" d="M208.97,156.355V135.9H271.6v20.245" transform="translate(-197.427 -108.838)" fill="none" stroke="#e6e6e6" stroke-miterlimit="10" stroke-width="1"/>
                  <line id="Línea_1769" data-name="Línea 1769" y2="39.669" transform="translate(43.785 7.792)" fill="none" stroke="#e6e6e6" stroke-miterlimit="10" stroke-width="1"/>
                  <g id="Grupo_66252" data-name="Grupo 66252" transform="translate(32.241)">
                    <rect id="Rectángulo_30177" data-name="Rectángulo 30177" width="23.087" height="14.463" rx="1.187" fill="#f0f0f0"/>
                    <rect id="Rectángulo_30178" data-name="Rectángulo 30178" width="21.493" height="12.186" rx="0.421" transform="translate(0.797 1.699)" fill="#e0e0e0"/>
                  </g>
                  <g id="Grupo_66253" data-name="Grupo 66253" transform="translate(0 45.662)">
                    <rect id="Rectángulo_30179" data-name="Rectángulo 30179" width="23.088" height="14.463" rx="1.187" fill="#f0f0f0"/>
                    <rect id="Rectángulo_30180" data-name="Rectángulo 30180" width="21.493" height="12.186" rx="0.421" transform="translate(0.797 1.699)" fill="#e0e0e0"/>
                  </g>
                  <g id="Grupo_66254" data-name="Grupo 66254" transform="translate(32.241 45.662)">
                    <rect id="Rectángulo_30181" data-name="Rectángulo 30181" width="23.087" height="14.463" rx="1.187" fill="#f0f0f0"/>
                    <rect id="Rectángulo_30182" data-name="Rectángulo 30182" width="21.493" height="12.186" rx="0.421" transform="translate(0.797 1.699)" fill="#e0e0e0"/>
                  </g>
                  <g id="Grupo_66255" data-name="Grupo 66255" transform="translate(62.68 45.662)">
                    <rect id="Rectángulo_30183" data-name="Rectángulo 30183" width="23.087" height="14.463" rx="1.187" fill="#f0f0f0"/>
                    <rect id="Rectángulo_30184" data-name="Rectángulo 30184" width="21.493" height="12.186" rx="0.421" transform="translate(0.797 1.699)" fill="#e0e0e0"/>
                  </g>
                  <path id="Rectángulo_30185" data-name="Rectángulo 30185" d="M.806,0H8.57a.805.805,0,0,1,.805.805V8.57a.806.806,0,0,1-.806.806H.805A.805.805,0,0,1,0,8.57V.806A.806.806,0,0,1,.806,0Z" transform="translate(37.155 27.066) rotate(-45)" fill="#e0e0e0" style="isolation: isolate"/>
                </g>
                <g id="Grupo_66259" data-name="Grupo 66259" transform="translate(0.596 40.619)">
                  <rect id="Rectángulo_30186" data-name="Rectángulo 30186" width="16.337" height="9.79" rx="0.871" transform="translate(14.721)" fill="#e0e0e0" opacity="0.8"/>
                  <rect id="Rectángulo_30187" data-name="Rectángulo 30187" width="13.213" height="7.474" rx="0.871" transform="translate(6.381 21.057)" fill="#e0e0e0"/>
                  <rect id="Rectángulo_30188" data-name="Rectángulo 30188" width="13.213" height="7.474" rx="0.871" transform="translate(26.428 21.057)" fill="#e0e0e0"/>
                  <g id="Grupo_66257" data-name="Grupo 66257" transform="translate(20.379 36.872)">
                    <rect id="Rectángulo_30189" data-name="Rectángulo 30189" width="6.935" height="6.384" rx="0.871" fill="#e0e0e0"/>
                    <rect id="Rectángulo_30190" data-name="Rectángulo 30190" width="6.935" height="6.384" rx="0.871" transform="translate(8.807)" fill="#e0e0e0"/>
                    <rect id="Rectángulo_30191" data-name="Rectángulo 30191" width="6.935" height="6.384" rx="0.871" transform="translate(17.615)" fill="#e0e0e0"/>
                  </g>
                  <rect id="Rectángulo_30192" data-name="Rectángulo 30192" width="6.935" height="6.384" rx="0.871" transform="translate(0 36.872)" fill="#e0e0e0"/>
                  <rect id="Rectángulo_30193" data-name="Rectángulo 30193" width="6.935" height="6.384" rx="0.871" transform="translate(9.559 36.872)" fill="#e0e0e0"/>
                  <g id="Grupo_66258" data-name="Grupo 66258" transform="translate(2.985 9.79)">
                    <path id="Trazado_132636" data-name="Trazado 132636" d="M85.109,146.951h.751v-5.258H76.1v-6.009h-.751v6.009H65.58v5.258h.751v-4.507H85.109Z" transform="translate(-55.816 -135.684)" fill="#e0e0e0"/>
                    <path id="Trazado_132637" data-name="Trazado 132637" d="M62.345,165.191H52.58v3.756h.751v-3h9.013v3H63.1v-8.262h-.751Z" transform="translate(-52.58 -141.906)" fill="#e0e0e0"/>
                    <path id="Trazado_132638" data-name="Trazado 132638" d="M89.345,165.942v-5.258h-.751v5.258H79.58v3h.751v-2.253h8.262v2.253h.751v-2.253h8.262v2.253h.751v-3Z" transform="translate(-59.3 -141.906)" fill="#e0e0e0"/>
                  </g>
                </g>
                <g id="Grupo_66260" data-name="Grupo 66260" transform="translate(227.904 28.687)">
                  <path id="Trazado_132639" data-name="Trazado 132639" d="M380.993,121.046v5.4l2.778.262a14.409,14.409,0,0,0,2.072,4.984l-1.785,2.156,3.816,3.816,2.156-1.785a14.424,14.424,0,0,0,4.984,2.072l.262,2.778h5.4l.261-2.779a14.412,14.412,0,0,0,4.984-2.072l2.156,1.785,3.816-3.816-1.785-2.156a14.409,14.409,0,0,0,2.072-4.984l2.779-.262v-5.4l-2.779-.261A14.4,14.4,0,0,0,410.1,115.8l1.785-2.156-3.816-3.816-2.156,1.784a14.426,14.426,0,0,0-4.984-2.072l-.261-2.778h-5.4l-.262,2.778a14.423,14.423,0,0,0-4.984,2.072l-2.156-1.784-3.816,3.816,1.785,2.155a14.413,14.413,0,0,0-2.072,4.984Zm16.98-4.607a7.3,7.3,0,1,1-7.3,7.3A7.3,7.3,0,0,1,397.973,116.44Z" transform="translate(-358.64 -106.764)" fill="#f5f5f5"/>
                  <path id="Trazado_132640" data-name="Trazado 132640" d="M380.455,170.1a11.29,11.29,0,0,0,3.906-1.624l1.689,1.4,2.99-2.989-1.4-1.689a11.283,11.283,0,0,0,1.624-3.906l2.177-.205v-4.228l-2.177-.205a11.277,11.277,0,0,0-1.624-3.906l1.4-1.689-2.99-2.989-1.689,1.4a11.3,11.3,0,0,0-3.906-1.623l-.205-2.177h-4.229l-.205,2.177a11.294,11.294,0,0,0-3.905,1.623l-1.689-1.4-2.99,2.989,1.4,1.689a11.31,11.31,0,0,0-1.624,3.906l-2.177.205v4.228l2.177.205a11.316,11.316,0,0,0,1.624,3.906l-1.4,1.689,2.99,2.989,1.689-1.4a11.281,11.281,0,0,0,3.905,1.624l.205,2.178h4.229Zm-8.043-11.129a5.724,5.724,0,1,1,5.724,5.724A5.724,5.724,0,0,1,372.412,158.97Z" transform="translate(-354.617 -116.446)" fill="#f5f5f5"/>
                  <path id="Trazado_132641" data-name="Trazado 132641" d="M367.638,141.379l1.418,1.175,2.512-2.511-1.175-1.419a9.494,9.494,0,0,0,1.364-3.281l1.829-.172V131.62l-1.829-.172a9.488,9.488,0,0,0-1.364-3.281l1.175-1.419-2.512-2.512-1.418,1.176a9.494,9.494,0,0,0-3.281-1.364l-.172-1.829h-3.551l-.172,1.828a9.472,9.472,0,0,0-3.281,1.364l-1.419-1.176-2.511,2.512,1.174,1.419a9.489,9.489,0,0,0-1.364,3.281l-1.828.172v3.551l1.828.172a9.509,9.509,0,0,0,1.364,3.281l-1.174,1.419,2.511,2.511,1.419-1.175a9.487,9.487,0,0,0,3.281,1.364l.172,1.829h3.551l.172-1.829A9.494,9.494,0,0,0,367.638,141.379ZM357.6,133.4a4.808,4.808,0,1,1,4.808,4.808A4.808,4.808,0,0,1,357.6,133.4Z" transform="translate(-351.233 -110.611)" fill="#f5f5f5"/>
                </g>
                <g id="Grupo_66263" data-name="Grupo 66263" transform="translate(243.679 191.879)">
                  <g id="Grupo_66261" data-name="Grupo 66261" transform="translate(0)">
                    <rect id="Rectángulo_30194" data-name="Rectángulo 30194" width="50.436" height="32.804" fill="#f5f5f5"/>
                  </g>
                  <rect id="Rectángulo_30195" data-name="Rectángulo 30195" width="46.746" height="25.013" transform="translate(1.845 6.151)" fill="#e0e0e0"/>
                  <g id="Grupo_66262" data-name="Grupo 66262" transform="translate(5.654 9.888)">
                    <rect id="Rectángulo_30196" data-name="Rectángulo 30196" width="34.579" height="1.076" fill="#f5f5f5"/>
                    <rect id="Rectángulo_30197" data-name="Rectángulo 30197" width="16.591" height="1.076" transform="translate(0 3.296)" fill="#f5f5f5"/>
                    <rect id="Rectángulo_30198" data-name="Rectángulo 30198" width="20.896" height="1.076" transform="translate(0 6.591)" fill="#f5f5f5"/>
                    <rect id="Rectángulo_30199" data-name="Rectángulo 30199" width="7.365" height="1.076" transform="translate(0 9.886)" fill="#f5f5f5"/>
                    <rect id="Rectángulo_30200" data-name="Rectángulo 30200" width="4.769" height="1.076" transform="translate(0 13.182)" fill="#f5f5f5"/>
                  </g>
                </g>
                <g id="Grupo_66268" data-name="Grupo 66268" transform="translate(0 191.693)">
                  <rect id="Rectángulo_30201" data-name="Rectángulo 30201" width="35.889" height="22.136" transform="matrix(1, -0.005, 0.005, 1, 0, 0.164)" fill="#ebebeb"/>
                  <g id="Grupo_66267" data-name="Grupo 66267" transform="translate(6.469 5.566)">
                    <g id="Grupo_66264" data-name="Grupo 66264" transform="translate(0 0.039)">
                      <path id="Trazado_132642" data-name="Trazado 132642" d="M63.724,342.375a.747.747,0,0,1-.442-.145l-6.548-4.784a.751.751,0,0,1-.005-1.209l6.5-4.843a.751.751,0,1,1,.9,1.2l-5.687,4.234,5.726,4.184a.751.751,0,0,1-.444,1.358Z" transform="translate(-56.425 -331.246)" fill="#fafafa"/>
                    </g>
                    <g id="Grupo_66265" data-name="Grupo 66265" transform="translate(15)">
                      <path id="Trazado_132643" data-name="Trazado 132643" d="M77.192,342.323a.751.751,0,0,1-.45-1.354l5.687-4.236L76.7,332.552a.751.751,0,1,1,.886-1.213l6.548,4.783a.751.751,0,0,1,.005,1.209l-6.5,4.844A.751.751,0,0,1,77.192,342.323Z" transform="translate(-76.396 -331.194)" fill="#fafafa"/>
                    </g>
                    <g id="Grupo_66266" data-name="Grupo 66266" transform="translate(9.087 0.011)">
                      <path id="Trazado_132644" data-name="Trazado 132644" d="M69.275,342.354a.751.751,0,0,1-.709-1l3.373-9.643a.751.751,0,1,1,1.418.5l-3.373,9.643A.751.751,0,0,1,69.275,342.354Z" transform="translate(-68.523 -331.208)" fill="#fafafa"/>
                    </g>
                  </g>
                </g>
              </g>
            </g>
            <g id="Ladder" transform="translate(228.628 227.895)">
              <g id="Grupo_66275" data-name="Grupo 66275">
                <g id="Grupo_66270" data-name="Grupo 66270" transform="translate(22.533 1.979)">
                  <path id="Trazado_132645" data-name="Trazado 132645" d="M334.385,402.491H339.9L347.409,361H341.9Z" transform="translate(-334.385 -360.998)" fill="#263238"/>
                  <path id="Trazado_132646" data-name="Trazado 132646" d="M334.385,402.491H339.9L347.409,361H341.9Z" transform="translate(-334.385 -360.998)" fill="#fff" opacity="0.2"/>
                  <path id="Trazado_132647" data-name="Trazado 132647" d="M334.385,402.491H338.4L345.907,361H341.9Z" transform="translate(-334.385 -360.998)" fill="#fff" opacity="0.2"/>
                </g>
                <path id="Trazado_132648" data-name="Trazado 132648" d="M313.284,376.624h22.078a1.219,1.219,0,0,0,1.218-1.219h0a1.218,1.218,0,0,0-1.218-1.218H313.284a1.218,1.218,0,0,0-1.218,1.218h0A1.219,1.219,0,0,0,313.284,376.624Z" transform="translate(-306.296 -362.301)" fill="#263238"/>
                <path id="Trazado_132649" data-name="Trazado 132649" d="M310.021,395.118H332.1a1.219,1.219,0,0,0,1.219-1.218h0a1.219,1.219,0,0,0-1.219-1.219H310.021A1.219,1.219,0,0,0,308.8,393.9h0A1.219,1.219,0,0,0,310.021,395.118Z" transform="translate(-305.484 -366.904)" fill="#263238"/>
                <g id="Grupo_66271" data-name="Grupo 66271" transform="translate(0 1.979)">
                  <path id="Trazado_132650" data-name="Trazado 132650" d="M304.385,402.491H309.9L317.409,361H311.9Z" transform="translate(-304.385 -360.998)" fill="#263238"/>
                  <path id="Trazado_132651" data-name="Trazado 132651" d="M304.385,402.491H309.9L317.409,361H311.9Z" transform="translate(-304.385 -360.998)" fill="#fff" opacity="0.2"/>
                  <path id="Trazado_132652" data-name="Trazado 132652" d="M304.385,402.491H308.4L315.907,361H311.9Z" transform="translate(-304.385 -360.998)" fill="#fff" opacity="0.2"/>
                </g>
                <g id="Grupo_66272" data-name="Grupo 66272" transform="translate(38.307 1.979)">
                  <path id="Trazado_132653" data-name="Trazado 132653" d="M368.409,402.491H362.9L355.385,361H360.9Z" transform="translate(-355.385 -360.998)" fill="#263238"/>
                  <path id="Trazado_132654" data-name="Trazado 132654" d="M368.409,402.491H362.9L355.385,361H360.9Z" transform="translate(-355.385 -360.998)" fill="#fff" opacity="0.4"/>
                  <path id="Trazado_132655" data-name="Trazado 132655" d="M366.907,402.491H362.9L355.385,361H359.4Z" transform="translate(-355.385 -360.998)" fill="#fff" opacity="0.2"/>
                </g>
                <path id="Trazado_132656" data-name="Trazado 132656" d="M352.1,376.624H330.021a1.219,1.219,0,0,1-1.219-1.219h0a1.219,1.219,0,0,1,1.219-1.218H352.1a1.219,1.219,0,0,1,1.219,1.218h0A1.219,1.219,0,0,1,352.1,376.624Z" transform="translate(-310.462 -362.301)" fill="#263238"/>
                <path id="Trazado_132657" data-name="Trazado 132657" d="M355.362,395.118H333.284a1.218,1.218,0,0,1-1.218-1.218h0a1.219,1.219,0,0,1,1.218-1.219h22.077a1.219,1.219,0,0,1,1.218,1.219h0A1.218,1.218,0,0,1,355.362,395.118Z" transform="translate(-311.274 -366.904)" fill="#263238"/>
                <path id="Trazado_132658" data-name="Trazado 132658" d="M352.1,376.624H330.021a1.219,1.219,0,0,1-1.219-1.219h0a1.219,1.219,0,0,1,1.219-1.218H352.1a1.219,1.219,0,0,1,1.219,1.218h0A1.219,1.219,0,0,1,352.1,376.624Z" transform="translate(-310.462 -362.301)" fill="#fff" opacity="0.2"/>
                <path id="Trazado_132659" data-name="Trazado 132659" d="M355.362,395.118H333.284a1.218,1.218,0,0,1-1.218-1.218h0a1.219,1.219,0,0,1,1.218-1.219h22.077a1.219,1.219,0,0,1,1.218,1.219h0A1.218,1.218,0,0,1,355.362,395.118Z" transform="translate(-311.274 -366.904)" fill="#fff" opacity="0.2"/>
                <g id="Grupo_66273" data-name="Grupo 66273" transform="translate(15.773 1.979)">
                  <path id="Trazado_132660" data-name="Trazado 132660" d="M338.409,402.491H332.9L325.385,361H330.9Z" transform="translate(-325.385 -360.998)" fill="#263238"/>
                  <path id="Trazado_132661" data-name="Trazado 132661" d="M338.409,402.491H332.9L325.385,361H330.9Z" transform="translate(-325.385 -360.998)" fill="#fff" opacity="0.4"/>
                  <path id="Trazado_132662" data-name="Trazado 132662" d="M336.907,402.491H332.9L325.385,361H329.4Z" transform="translate(-325.385 -360.998)" fill="#fff" opacity="0.2"/>
                </g>
                <g id="Grupo_66274" data-name="Grupo 66274" transform="translate(5.2)">
                  <rect id="Rectángulo_30202" data-name="Rectángulo 30202" width="41.666" height="3.959" rx="1.187" fill="#263238"/>
                  <rect id="Rectángulo_30203" data-name="Rectángulo 30203" width="16.945" height="3.959" rx="1.187" fill="#fff" opacity="0.2"/>
                </g>
              </g>
            </g>
            <g id="interface" transform="translate(95.544 238.024)">
              <g id="Grupo_66278" data-name="Grupo 66278" transform="translate(0 0)">
                <g id="Grupo_66276" data-name="Grupo 66276">
                  <rect id="Rectángulo_30204" data-name="Rectángulo 30204" width="50.436" height="32.804" fill="#12263f"/>
                </g>
                <rect id="Rectángulo_30206" data-name="Rectángulo 30206" width="46.746" height="25.013" transform="translate(1.845 6.151)" fill="#d2e1f1"/>
                <g id="Grupo_66277" data-name="Grupo 66277" transform="translate(5.654 9.888)">
                  <rect id="Rectángulo_30207" data-name="Rectángulo 30207" width="34.579" height="1.076" fill="#fff"/>
                  <rect id="Rectángulo_30208" data-name="Rectángulo 30208" width="16.591" height="1.076" transform="translate(0 3.296)" fill="#fff"/>
                  <rect id="Rectángulo_30209" data-name="Rectángulo 30209" width="20.896" height="1.076" transform="translate(0 6.591)" fill="#fff"/>
                  <rect id="Rectángulo_30210" data-name="Rectángulo 30210" width="7.365" height="1.076" transform="translate(0 9.886)" fill="#fff"/>
                  <rect id="Rectángulo_30211" data-name="Rectángulo 30211" width="4.769" height="1.076" transform="translate(0 13.182)" fill="#fff"/>
                </g>
              </g>
            </g>
            <g id="Monitor" transform="translate(86.031 82.194)">
              <g id="Grupo_66296" data-name="Grupo 66296">
                <g id="Grupo_66279" data-name="Grupo 66279" transform="translate(81.217 134.591)">
                  <path id="Trazado_132663" data-name="Trazado 132663" d="M263.728,398.152H222.667l6.953-54.583h27.155Z" transform="translate(-222.667 -343.57)" fill="#12263f"/>
                  <path id="Trazado_132665" data-name="Trazado 132665" d="M261.59,369,229,360.811l2.2-17.24h27.151Z" transform="translate(-224.244 -343.57)" opacity="0.1" style="isolation: isolate"/>
                </g>
                <g id="Grupo_66280" data-name="Grupo 66280">
                  <path id="Trazado_132666" data-name="Trazado 132666" d="M313.079,164.382H119.492a4.954,4.954,0,0,0-4.954,4.954V300.392a4.954,4.954,0,0,0,4.954,4.954H313.079a4.954,4.954,0,0,0,4.954-4.954V169.336A4.954,4.954,0,0,0,313.079,164.382Z" transform="translate(-114.538 -164.382)" fill="#12263f"/>
                </g>
                <rect id="Rectángulo_30212" data-name="Rectángulo 30212" width="190.46" height="126.375" transform="translate(6.519 4.851)" fill="#d2e1f1"/>
                <g id="Grupo_66281" data-name="Grupo 66281" transform="translate(66.486 185.072)">
                  <rect id="Rectángulo_30213" data-name="Rectángulo 30213" width="70.522" height="4.035" rx="1.037" fill="#12263f"/>
                </g>
                <g id="Grupo_66291" data-name="Grupo 66291" transform="translate(6.519 4.972)">
                  <rect id="Rectángulo_30215" data-name="Rectángulo 30215" width="190.46" height="18.836" opacity="0.2" style="isolation: isolate"/>
                  <rect id="Rectángulo_30216" data-name="Rectángulo 30216" width="81.618" height="107.195" transform="translate(0 19.06)" fill="#fff" opacity="0.4"/>
                  <g id="Grupo_66285" data-name="Grupo 66285" transform="translate(88.734 5.913)">
                    <rect id="Rectángulo_30217" data-name="Rectángulo 30217" width="71.223" height="41.179" transform="translate(1.191 1.191)" fill="none" stroke="#fff" stroke-miterlimit="10" stroke-width="1" stroke-dasharray="5"/>
                    <g id="Grupo_66282" data-name="Grupo 66282">
                      <rect id="Rectángulo_30218" data-name="Rectángulo 30218" width="2.381" height="2.381" transform="translate(71.223)" fill="#407bff" stroke="#fff" stroke-miterlimit="10" stroke-width="1"/>
                      <rect id="Rectángulo_30219" data-name="Rectángulo 30219" width="2.381" height="2.381" transform="translate(71.223 41.179)" fill="#407bff" stroke="#fff" stroke-miterlimit="10" stroke-width="1"/>
                      <rect id="Rectángulo_30220" data-name="Rectángulo 30220" width="2.381" height="2.381" fill="#407bff" stroke="#fff" stroke-miterlimit="10" stroke-width="1"/>
                      <rect id="Rectángulo_30221" data-name="Rectángulo 30221" width="2.381" height="2.381" transform="translate(0 41.179)" fill="#407bff" stroke="#fff" stroke-miterlimit="10" stroke-width="1"/>
                    </g>
                    <g id="Grupo_66283" data-name="Grupo 66283" transform="translate(35.612)">
                      <rect id="Rectángulo_30222" data-name="Rectángulo 30222" width="2.381" height="2.381" fill="#407bff" stroke="#fff" stroke-miterlimit="10" stroke-width="1"/>
                      <rect id="Rectángulo_30223" data-name="Rectángulo 30223" width="2.381" height="2.381" transform="translate(0 41.179)" fill="#407bff" stroke="#fff" stroke-miterlimit="10" stroke-width="1"/>
                    </g>
                    <g id="Grupo_66284" data-name="Grupo 66284" transform="translate(0 20.589)">
                      <rect id="Rectángulo_30224" data-name="Rectángulo 30224" width="2.381" height="2.381" transform="translate(71.223)" fill="#407bff" stroke="#fff" stroke-miterlimit="10" stroke-width="1"/>
                      <rect id="Rectángulo_30225" data-name="Rectángulo 30225" width="2.381" height="2.381" fill="#407bff" stroke="#fff" stroke-miterlimit="10" stroke-width="1"/>
                    </g>
                  </g>
                  <path id="Rectángulo_30226" data-name="Rectángulo 30226" d="M1.893,0H18.378a1.894,1.894,0,0,1,1.894,1.894V5.607A1.894,1.894,0,0,1,18.378,7.5H1.893A1.893,1.893,0,0,1,0,5.607V1.893A1.893,1.893,0,0,1,1.893,0Z" transform="translate(135.83 20.935)" fill="#fff" opacity="0.7"/>
                  <path id="Rectángulo_30227" data-name="Rectángulo 30227" d="M1.893,0H18.378a1.894,1.894,0,0,1,1.894,1.894V5.607A1.893,1.893,0,0,1,18.378,7.5H1.894A1.894,1.894,0,0,1,0,5.607V1.893A1.893,1.893,0,0,1,1.893,0Z" transform="translate(105.786 20.935)" fill="#fff" opacity="0.7"/>
                  <path id="Rectángulo_30228" data-name="Rectángulo 30228" d="M1.894,0H18.378a1.894,1.894,0,0,1,1.894,1.894V5.607A1.893,1.893,0,0,1,18.378,7.5H1.894A1.894,1.894,0,0,1,0,5.607V1.894A1.894,1.894,0,0,1,1.894,0Z" transform="translate(67.105 112.261)" fill="#fff" opacity="0.7"/>
                  <g id="Grupo_66286" data-name="Grupo 66286" transform="translate(177.893 6.698)">
                    <line id="Línea_1770" data-name="Línea 1770" x2="6.339" fill="none" stroke="#fff" stroke-linecap="round" stroke-linejoin="round" stroke-width="1.5"/>
                    <line id="Línea_1771" data-name="Línea 1771" x2="6.339" transform="translate(0 3.004)" fill="none" stroke="#fff" stroke-linecap="round" stroke-linejoin="round" stroke-width="1.5"/>
                    <line id="Línea_1772" data-name="Línea 1772" x2="6.339" transform="translate(0 6.009)" fill="none" stroke="#fff" stroke-linecap="round" stroke-linejoin="round" stroke-width="1.5"/>
                  </g>
                  <path id="Trazado_188482" data-name="Trazado 188482" d="M0,0H63.885V63.885H0Z" transform="translate(12.912 35.676)" fill="#fff" opacity="0.5"/>
                  <path id="Trazado_132671" data-name="Trazado 132671" d="M308.669,317.966H289.33a5.588,5.588,0,0,1-5.588-5.588h0a5.588,5.588,0,0,1,5.588-5.588h19.338a5.588,5.588,0,0,1,5.588,5.588h0A5.588,5.588,0,0,1,308.669,317.966Z" transform="translate(-163.169 -204.797)" fill="#fff" opacity="0.7"/>
                  <g id="Grupo_66288" data-name="Grupo 66288" transform="translate(6.015 5.222)">
                    <rect id="Rectángulo_30233" data-name="Rectángulo 30233" width="4.22" height="4.22" opacity="0.4" style="isolation: isolate"/>
                    <path id="Rectángulo_30234" data-name="Rectángulo 30234" d="M1.439,0H2.781A1.44,1.44,0,0,1,4.22,1.44V2.781A1.439,1.439,0,0,1,2.781,4.22H1.44A1.44,1.44,0,0,1,0,2.781V1.439A1.439,1.439,0,0,1,1.439,0Z" transform="translate(8.206)" opacity="0.4" style="isolation: isolate"/>
                    <path id="Rectángulo_30235" data-name="Rectángulo 30235" d="M2.11,0h0A2.11,2.11,0,0,1,4.22,2.11v0A2.11,2.11,0,0,1,2.11,4.22h0A2.11,2.11,0,0,1,0,2.11v0A2.11,2.11,0,0,1,2.11,0Z" transform="translate(16.413)" opacity="0.4" style="isolation: isolate"/>
                  </g>
                  <g id="Grupo_66290" data-name="Grupo 66290" transform="translate(8.605 103.29)">
                    <g id="Grupo_66289" data-name="Grupo 66289">
                      <path id="Trazado_132675" data-name="Trazado 132675" d="M145.025,314.514v-1.645l-.847-.08a4.386,4.386,0,0,0-.632-1.52l.545-.657-1.163-1.163-.657.544a4.384,4.384,0,0,0-1.519-.632l-.08-.847h-1.645l-.08.847a4.382,4.382,0,0,0-1.52.632l-.657-.544-1.163,1.163.544.657a4.389,4.389,0,0,0-.632,1.52l-.846.08v1.645l.846.08a4.386,4.386,0,0,0,.632,1.519l-.544.657,1.163,1.163.657-.545a4.382,4.382,0,0,0,1.52.632l.08.847h1.645l.08-.847a4.385,4.385,0,0,0,1.519-.632l.657.545,1.163-1.163-.545-.657a4.383,4.383,0,0,0,.632-1.519Zm-5.176,1.4a2.227,2.227,0,1,1,2.226-2.226A2.226,2.226,0,0,1,139.849,315.918Z" transform="translate(-134.673 -308.516)" fill="#fff" opacity="0.9"/>
                      <path id="Trazado_132676" data-name="Trazado 132676" d="M154.642,321.125v-1.289l-.664-.063a3.433,3.433,0,0,0-.495-1.19l.427-.515-.911-.911-.515.426a3.447,3.447,0,0,0-1.19-.495l-.062-.663h-1.289l-.062.663a3.447,3.447,0,0,0-1.191.495l-.515-.426-.911.911.427.515a3.433,3.433,0,0,0-.495,1.19l-.664.063v1.289l.664.062a3.436,3.436,0,0,0,.495,1.191l-.427.514.911.912.515-.427a3.435,3.435,0,0,0,1.191.495l.062.664h1.289l.062-.664a3.434,3.434,0,0,0,1.19-.495l.515.427.911-.912-.427-.514a3.436,3.436,0,0,0,.495-1.191Zm-4.056,1.1a1.745,1.745,0,1,1,1.745-1.745A1.745,1.745,0,0,1,150.586,322.226Z" transform="translate(-137.624 -310.484)" fill="#fff" opacity="0.6"/>
                      <path id="Trazado_132677" data-name="Trazado 132677" d="M146.2,326.246v-1.082l-.557-.053a2.887,2.887,0,0,0-.416-1l.358-.433-.765-.765-.433.358a2.887,2.887,0,0,0-1-.416l-.053-.557h-1.082l-.053.557a2.891,2.891,0,0,0-1,.416l-.432-.358-.766.765.358.433a2.886,2.886,0,0,0-.415,1l-.558.053v1.082l.557.053a2.886,2.886,0,0,0,.415,1l-.358.433.766.765.432-.358a2.9,2.9,0,0,0,1,.415l.053.557h1.082l.053-.557a2.9,2.9,0,0,0,1-.415l.433.358.765-.765-.358-.433a2.886,2.886,0,0,0,.416-1Zm-3.407.925a1.466,1.466,0,1,1,1.465-1.465A1.466,1.466,0,0,1,142.79,327.17Z" transform="translate(-135.845 -311.946)" fill="#fff" opacity="0.4"/>
                    </g>
                  </g>
                </g>
                <g id="Grupo_66293" data-name="Grupo 66293" transform="translate(167.227 11.65)">
                  <g id="Grupo_66292" data-name="Grupo 66292" transform="translate(0 0)">
                    <path id="Trazado_132678" data-name="Trazado 132678" d="M337.177,179.892l3.187,8.516,5.33-5.33Z" transform="translate(-337.177 -179.892)" fill="#12263f"/>
                    <rect id="Rectángulo_30236" data-name="Rectángulo 30236" width="1.679" height="3.732" transform="translate(3.939 5.126) rotate(-45)" fill="#12263f"/>
                  </g>
                </g>
              </g>
            </g>
            <g id="Character_2" data-name="Character 2" transform="translate(261.455 79.691)">
              <g id="Grupo_66305" data-name="Grupo 66305">
                <g id="Grupo_66298" data-name="Grupo 66298" transform="translate(58.842 35.233)">
                  <path id="Trazado_132686" data-name="Trazado 132686" d="M438.052,207.958c2.664,3.077,16.229,29.208,13.607,35.308s-24.357-.932-24.357-.932l1.3-8.609s8.446.3,9.254-.5S426.429,220.2,426.429,220.2Z" transform="translate(-426.429 -207.958)" fill="#1565c0"/>
                </g>
                <path id="Trazado_132688" data-name="Trazado 132688" d="M450.364,247.137c-.007,0-.015.008-.022.015-.135.068-.285.135-.436.2a.517.517,0,0,1-.06.023,3.345,3.345,0,0,1-.413.143,9.115,9.115,0,0,1-1.878.391c-.18.023-.361.038-.548.053-.27.023-.541.038-.819.045-.233.008-.473.015-.714.015-7.286.008-17.884-3.418-17.884-3.418l1.3-8.615s9.509.8,10.32,0a.1.1,0,0,0,.023-.038c.15-.315-.9-1.382-2.456-2.742l-.015-.015c-2.389-2.937-7.173-7.827-9.149-9.825l5.5-5.874,4.184-.451S446.533,231.995,450.364,247.137Z" transform="translate(-367.876 -174.985)" opacity="0.2" style="isolation: isolate"/>
                <g id="Grupo_66299" data-name="Grupo 66299" transform="translate(41.199 33.386)">
                  <path id="Trazado_132689" data-name="Trazado 132689" d="M404.8,206.489c-1.506,1.092-2.247,2.639-1.655,3.456l39.691,54.722c.592.816,2.292.593,3.8-.5s2.247-2.639,1.654-3.456L408.6,205.99C408,205.174,406.3,205.4,404.8,206.489Z" transform="translate(-402.94 -205.499)" fill="#263238"/>
                  <path id="Trazado_132690" data-name="Trazado 132690" d="M408.6,205.991l39.69,54.722c.591.815-.151,2.364-1.652,3.453s-3.2,1.313-3.8.5l-39.69-54.722a1.708,1.708,0,0,1,.145-1.821,4.4,4.4,0,0,1,.753-.982,5.9,5.9,0,0,1,.754-.649C406.3,205.4,408.005,205.176,408.6,205.991Z" transform="translate(-402.942 -205.499)" fill="#fff" opacity="0.7"/>
                  <path id="Trazado_132691" data-name="Trazado 132691" d="M448.4,261.256c.591.815-.151,2.364-1.653,3.453s-3.2,1.313-3.8.5c-.327-.45.493-1.129.968-2.117l-40.514-54.427a4.4,4.4,0,0,1,.753-.982l39.695,54.728a5.933,5.933,0,0,1,.75-.655C446.108,260.665,447.811,260.441,448.4,261.256Z" transform="translate(-403.057 -206.042)" opacity="0.3" style="isolation: isolate"/>
                </g>
                <g id="Grupo_66300" data-name="Grupo 66300" transform="translate(36.815 31.349)">
                  <path id="Trazado_132692" data-name="Trazado 132692" d="M398.43,204.3c-1.271,1.358-1.7,3.017-.968,3.706l49.348,46.2c.736.69,2.364.148,3.635-1.21s1.705-3.017.968-3.707l-49.348-46.2C401.329,202.4,399.7,202.938,398.43,204.3Z" transform="translate(-397.104 -202.786)" fill="#407bff"/>
                  <path id="Trazado_132693" data-name="Trazado 132693" d="M402.065,203.086l49.348,46.2c.735.688.3,2.35-.967,3.7s-2.9,1.9-3.632,1.209L397.465,208a1.708,1.708,0,0,1-.2-1.815,4.406,4.406,0,0,1,.553-1.108,6.05,6.05,0,0,1,.617-.78C399.7,202.941,401.33,202.4,402.065,203.086Z" transform="translate(-397.105 -202.787)" fill="#fff" opacity="0.7"/>
                  <path id="Trazado_132694" data-name="Trazado 132694" d="M451.464,250.045c.735.688.3,2.35-.967,3.7s-2.9,1.9-3.632,1.208c-.406-.379.27-1.2.549-2.262l-50.1-45.755a4.41,4.41,0,0,1,.553-1.108L447.22,252.04a5.961,5.961,0,0,1,.612-.786C449.1,249.9,450.729,249.358,451.464,250.045Z" transform="translate(-397.156 -203.545)" opacity="0.3" style="isolation: isolate"/>
                </g>
                <path id="Trazado_132695" data-name="Trazado 132695" d="M409.981,373.991l-3.763.06c-3.823-17.959-6.527-40.185-8.21-56.95-.263-2.629-.5-5.115-.714-7.436-.1-1.1-.2-2.163-.285-3.185-.451-5.04-.759-9.036-.946-11.507-.135-1.8-.2-2.794-.2-2.794h13.6l-.128,3.463-.421,11.432-.045,1.307-.285,7.549-.473,12.852C412.768,346.876,409.981,373.991,409.981,373.991Z" transform="translate(-359.979 -193.686)" fill="#ebb376"/>
                <path id="Trazado_132696" data-name="Trazado 132696" d="M446.036,373.134l-3.7.7C434.92,355.3,427.957,331.575,423.428,315c-.7-2.569-1.345-4.972-1.923-7.151-.03-.113-.053-.218-.083-.323-1.142-4.326-2.021-7.774-2.569-9.96-.421-1.713-.653-2.652-.653-2.652l13.4-2.313.759,5.633,1.119,8.277.218,1.622.759,5.641L436.49,328.9C444.166,345.937,446.036,373.134,446.036,373.134Z" transform="translate(-365.539 -193.791)" fill="#ebb376"/>
                <path id="Trazado_132697" data-name="Trazado 132697" d="M433.694,308.156l-11.973,1.337c-.03-.113-.053-.218-.083-.323-1.142-4.326-2.02-7.774-2.569-9.96l13.505.668Z" transform="translate(-365.756 -195.436)" opacity="0.2" style="isolation: isolate"/>
                <path id="Trazado_132698" data-name="Trazado 132698" d="M409.395,296.568,408.974,308l-.045,1.307-11.567,1.284c-.1-1.1-.2-2.163-.285-3.185-.451-5.04-.759-9.036-.946-11.507Z" transform="translate(-360.046 -194.612)" opacity="0.2" style="isolation: isolate"/>
                <path id="Trazado_132699" data-name="Trazado 132699" d="M399.759,413.6a7.387,7.387,0,0,1,2.355-1.281h0s2.561-2.541,3.794-10.19l3.353-.874a2.856,2.856,0,0,1,3.05,1.191,1.614,1.614,0,0,1,.213.44,19.534,19.534,0,0,1,.358,2.486,69.109,69.109,0,0,1,.048,8.4h-.606l-.24-5.274c-.09-1.79-1.46.31-1.852,2.238s-1.226,3.98-5.15,4.076C400.5,414.9,398.6,414.725,399.759,413.6Z" transform="translate(-360.867 -220.814)" fill="#1565c0"/>
                <path id="Trazado_132700" data-name="Trazado 132700" d="M414.363,401.327c.22-1.79.289-4.9.289-4.9l-7.45.826a14.37,14.37,0,0,1,.158,6.2C411.113,402.464,414.363,401.327,414.363,401.327Z" transform="translate(-362.802 -219.631)" fill="#1565c0"/>
                <path id="Trazado_132701" data-name="Trazado 132701" d="M440.118,413.6a7.378,7.378,0,0,1,2.355-1.281h0s2.561-2.541,3.794-10.19l3.353-.874a2.857,2.857,0,0,1,3.05,1.191,1.635,1.635,0,0,1,.213.44,19.534,19.534,0,0,1,.358,2.486,69.118,69.118,0,0,1,.048,8.4h-.606l-.241-5.274c-.089-1.79-1.459.31-1.852,2.238s-1.226,3.98-5.15,4.076C440.862,414.9,438.962,414.725,440.118,413.6Z" transform="translate(-370.912 -220.814)" fill="#1565c0"/>
                <path id="Trazado_132702" data-name="Trazado 132702" d="M454.722,401.327c.22-1.79.289-4.9.289-4.9l-7.45.826a14.365,14.365,0,0,1,.158,6.2C451.472,402.464,454.722,401.327,454.722,401.327Z" transform="translate(-372.846 -219.631)" fill="#1565c0"/>
                <path id="Trazado_132703" data-name="Trazado 132703" d="M428.426,290.555l-14.174,1.81-.548.068-2.914-10.681-.766,11.447-15.187-.8c-6.768-39.711,4.8-49.093,4.8-49.093l20.6,4.146c9.331,15.86,7.111,34.3,7.111,34.3Z" transform="translate(-359.195 -181.523)" fill="#ffd947"/>
                <g id="Grupo_66301" data-name="Grupo 66301" transform="translate(46.63)">
                  <path id="Trazado_132704" data-name="Trazado 132704" d="M413.26,176.5c0,1.559-.692,2.823-1.545,2.823s-1.545-1.264-1.545-2.823.692-2.823,1.545-2.823S413.26,174.945,413.26,176.5Z" transform="translate(-410.17 -164.194)" fill="none" stroke="#263238" stroke-linecap="round" stroke-linejoin="round" stroke-width="0.5"/>
                  <path id="Trazado_132705" data-name="Trazado 132705" d="M423.946,183.71a1.062,1.062,0,0,1-.179.131,8.212,8.212,0,0,1-2.878,1.408c-3.043.7-5.123.286-6.479-1.091H414.4c-1.9-2.066-2.376-5.725-2.107-10.139a16.581,16.581,0,0,1,.964-5.155c.007-.014.007-.065.014-.078.027-.056.048-.132.075-.188a6.026,6.026,0,0,1,4.428-3.677,12.212,12.212,0,0,1,2.609-.294C428.993,164.538,430.542,178.795,423.946,183.71Z" transform="translate(-410.682 -161.941)" fill="#ebb376"/>
                  <path id="Trazado_132706" data-name="Trazado 132706" d="M424.49,189.985a8.008,8.008,0,0,1-2.878,1.287c-3.043.7-5.123.186-6.479-1.212a8.588,8.588,0,0,0,5.46-.448A4.476,4.476,0,0,1,424.49,189.985Z" transform="translate(-411.405 -168.084)" opacity="0.2" style="isolation: isolate"/>
                  <path id="Trazado_132707" data-name="Trazado 132707" d="M425.839,197.185c.53,2.451-2.644,3.449-2.644,3.449-5.192-2.217-6.155-4.978-6.155-4.978,4.331-2.259,3.077-8.648,3.077-8.648l.882.434,6.185,1.21s-1.716,3.293-1.944,4.043c0,.007-.007.014-.007.021C424.07,196.641,425.839,197.185,425.839,197.185Z" transform="translate(-411.88 -167.511)" fill="#ebb376"/>
                  <path id="Trazado_132708" data-name="Trazado 132708" d="M413.595,168.066a9.049,9.049,0,0,0,5.245,8.628s2.456,6.27,6.071,6.358c4.93.12,9.274-6.894,7.566-14.037C430.263,159.752,416.228,159,413.595,168.066Z" transform="translate(-411.02 -161.2)" fill="#263238"/>
                  <path id="Trazado_132709" data-name="Trazado 132709" d="M416.725,178.6c0-.942.759-2.523,2.222-2.309,1.515.222,2.355,3.956-1.368,4.791C417.045,181.2,416.72,180.565,416.725,178.6Z" transform="translate(-411.801 -164.839)" fill="#ebb376"/>
                  <path id="Trazado_132710" data-name="Trazado 132710" d="M423.482,161.5s-5.758-1.456-8.941.859c-3.717,2.7-5.126,5.5-.726,9.842,0,0,9.668-3.134,12.882-2.47a34.792,34.792,0,0,1,5.512,1.6C432.886,164.949,426.7,160.2,423.482,161.5Z" transform="translate(-410.397 -161.05)" fill="#263238"/>
                  <path id="Trazado_132711" data-name="Trazado 132711" d="M416.441,173.429s1.538,6.961-.858,12.888c0,0,13.669,4.743,18.423,2.167s.4-11.224.2-16.21-2.365-12.355-9.6-10.7S416.441,173.429,416.441,173.429Z" transform="translate(-411.517 -161.121)" fill="#263238"/>
                  <line id="Línea_1774" data-name="Línea 1774" x2="5.775" transform="translate(0 11.865)" fill="none" stroke="#263238" stroke-linecap="round" stroke-linejoin="round" stroke-width="0.5"/>
                </g>
                <path id="Trazado_132712" data-name="Trazado 132712" d="M420.243,299.725l-.548.068-2.914-10.681s6.249-10.673,4.3-16.232C421.354,273.271,428.084,283.253,420.243,299.725Z" transform="translate(-365.185 -188.883)" opacity="0.2" style="isolation: isolate"/>
                <g id="Grupo_66302" data-name="Grupo 66302" transform="translate(36.232 28.189)">
                  <path id="Trazado_132713" data-name="Trazado 132713" d="M403.45,199.526s6.873-2.452,17.234.539,10.742,7.4,10.742,7.4a104.5,104.5,0,0,0-7.6,31.723l-27-1.009S393.612,214.41,403.45,199.526Z" transform="translate(-396.327 -198.58)" fill="#1565c0"/>
                </g>
                <path id="Trazado_132715" data-name="Trazado 132715" d="M403.076,225.274a19.073,19.073,0,0,1-6.738,11.072,80.555,80.555,0,0,1,.751-12.085Z" transform="translate(-360.097 -176.782)" opacity="0.2" style="isolation: isolate"/>
                <path id="Trazado_132716" data-name="Trazado 132716" d="M361.245,195.566l-3.4-5.049s-.523-2.193-1.178-2.693-7.2-3.276-7.985-3.263-.786,5.093,0,5.956,4.909,2.714,5.989,2.9.557,0,.557,0l3.011,6Z" transform="translate(-348.09 -166.902)" fill="#ebb376"/>
                <g id="Grupo_66303" data-name="Grupo 66303" transform="translate(7.265 25.009)">
                  <path id="Trazado_132717" data-name="Trazado 132717" d="M393.852,198.472a148.372,148.372,0,0,0-21.049,10.86L361.82,194.346s-2.966.92-4.058,6.071c0,0,5.643,21.493,12.973,23.623s22.741-6.208,22.741-6.208S397.952,206.63,393.852,198.472Z" transform="translate(-357.762 -194.346)" fill="#1565c0"/>
                </g>
                <g id="Grupo_66304" data-name="Grupo 66304" transform="translate(50.303 28.188)">
                  <path id="Trazado_132719" data-name="Trazado 132719" d="M415.06,198.582s2.4,17.152,9.992,17.845,10.994-11.978,9.707-13.517S423.69,198.467,415.06,198.582Z" transform="translate(-415.06 -198.579)" fill="#263238"/>
                  <path id="Trazado_132720" data-name="Trazado 132720" d="M415.06,198.582s2.4,17.152,9.992,17.845,10.994-11.978,9.707-13.517S423.69,198.467,415.06,198.582Z" transform="translate(-415.06 -198.579)" fill="#7d6eb2" opacity="0.3" style="isolation: isolate"/>
                </g>
              </g>
            </g>
            <g id="Character_1" data-name="Character 1" transform="translate(16.001 63.581)">
              <g id="_Group_" data-name="&lt;Group&gt;" transform="translate(0 0)">
                <path id="Trazado_132721" data-name="Trazado 132721" d="M55.362,404.4h5.561l.46-12.884H55.815Z" transform="translate(-29.78 -202.299)" fill="#b97964"/>
                <path id="Trazado_132722" data-name="Trazado 132722" d="M61.028,407.809H54.271a.489.489,0,0,0-.474.382l-1.1,4.953a.82.82,0,0,0,.633.973.811.811,0,0,0,.18.018c2.186-.036,3.779-.171,6.524-.171,1.691,0,6.792.177,9.127.177s2.639-2.307,1.684-2.518c-4.287-.934-7.514-2.229-8.886-3.46A1.343,1.343,0,0,0,61.028,407.809Z" transform="translate(-29.113 -206.354)" fill="#ffb476"/>
                <path id="Trazado_132723" data-name="Trazado 132723" d="M64.269,408.435a.134.134,0,0,1-.1-.113.12.12,0,0,1,.064-.127c.2-.128,1.995-1.231,2.611-.913a.4.4,0,0,1,.226.368.776.776,0,0,1-.276.708,1.664,1.664,0,0,1-1.068.283A6.678,6.678,0,0,1,64.269,408.435Zm.382-.184a2.7,2.7,0,0,0,1.981-.1.544.544,0,0,0,.177-.474c-.008-.107-.05-.155-.085-.155a.3.3,0,0,0-.17-.035A5.4,5.4,0,0,0,64.651,408.251Z" transform="translate(-31.971 -206.209)" fill="#407bff"/>
                <path id="Trazado_132724" data-name="Trazado 132724" d="M64.234,408.046a.14.14,0,0,1-.064-.12c.008-.077.142-1.676.786-2.2a.706.706,0,0,1,.559-.17.431.431,0,0,1,.424.346c.113.587-1,1.812-1.571,2.123H64.3A.117.117,0,0,1,64.234,408.046Zm.892-2.165a3.116,3.116,0,0,0-.658,1.74c.573-.431,1.281-1.358,1.21-1.719-.007-.035-.022-.134-.192-.134h-.064A.455.455,0,0,0,65.125,405.881Z" transform="translate(-31.972 -205.792)" fill="#407bff"/>
                <path id="Trazado_132725" data-name="Trazado 132725" d="M55.886,391.522h5.568l-.241,6.644H55.645Z" transform="translate(-29.85 -202.301)" opacity="0.2" style="isolation: isolate"/>
                <path id="Trazado_132726" data-name="Trazado 132726" d="M93.494,405.121l5.74.606,1.077-12.38-5.74-.606Z" transform="translate(-39.27 -202.604)" fill="#b97964"/>
                <path id="Trazado_132727" data-name="Trazado 132727" d="M99.179,407.574H92.422a.487.487,0,0,0-.474.382l-1.1,4.953a.82.82,0,0,0,.633.973.806.806,0,0,0,.18.018c2.187-.035,3.779-.17,6.524-.17,1.691,0,6.792.177,9.127.177s2.639-2.306,1.684-2.518c-4.287-.934-7.514-2.229-8.886-3.46A1.343,1.343,0,0,0,99.179,407.574Z" transform="translate(-38.608 -206.296)" fill="#ffb476"/>
                <path id="Trazado_132728" data-name="Trazado 132728" d="M102.42,408.2a.133.133,0,0,1-.1-.113.121.121,0,0,1,.064-.128c.2-.127,1.995-1.231,2.611-.913a.4.4,0,0,1,.226.368.777.777,0,0,1-.276.708,1.659,1.659,0,0,1-1.068.282A6.635,6.635,0,0,1,102.42,408.2Zm.382-.184a2.7,2.7,0,0,0,1.981-.1.544.544,0,0,0,.177-.475c-.007-.106-.05-.156-.085-.156a.31.31,0,0,0-.17-.035A5.409,5.409,0,0,0,102.8,408.015Z" transform="translate(-41.467 -206.15)" fill="#407bff"/>
                <path id="Trazado_132729" data-name="Trazado 132729" d="M102.385,407.811a.141.141,0,0,1-.064-.12c.008-.078.142-1.677.786-2.2a.708.708,0,0,1,.559-.17.432.432,0,0,1,.424.347c.113.587-1,1.811-1.571,2.123h-.064A.119.119,0,0,1,102.385,407.811Zm.892-2.165a3.114,3.114,0,0,0-.658,1.74c.573-.432,1.281-1.359,1.21-1.719-.008-.035-.022-.134-.192-.134h-.064A.447.447,0,0,0,103.276,405.646Z" transform="translate(-41.467 -205.734)" fill="#407bff"/>
                <path id="Trazado_132730" data-name="Trazado 132730" d="M94.742,392.741l5.74.606-.56,6.385-5.74-.606Z" transform="translate(-39.442 -202.604)" opacity="0.2" style="isolation: isolate"/>
                <path id="Trazado_132731" data-name="Trazado 132731" d="M57.5,241.05H87.023c2.808,15.328,11.593,69.569,5.29,117.9l-9.994-1.239s.925-64.159-7.9-87.877c-1.015,12.694-2.22,26.2-3.267,33.387-2.568,17.689-8.066,56.347-8.066,56.347H52.913s2.081-37,3.043-54.387C57.007,286.3,57.462,244.926,57.5,241.05Z" transform="translate(-29.17 -164.851)" fill="#12263f"/>
                <g id="Grupo_66306" data-name="Grupo 66306" transform="translate(51.916 191.159)">
                  <path id="Trazado_132732" data-name="Trazado 132732" d="M102.792,399.368l-12.37-1.84L90.8,394.1l12.868,1.689Z" transform="translate(-90.422 -394.102)" fill="#727997"/>
                </g>
                <g id="Grupo_66307" data-name="Grupo 66307" transform="translate(23.141 190.976)">
                  <path id="Trazado_132733" data-name="Trazado 132733" d="M64.113,397.679h-12v-3.587l12.453-.233Z" transform="translate(-52.112 -393.858)" fill="#727997"/>
                </g>
                <path id="Trazado_132734" data-name="Trazado 132734" d="M81.55,275.889a79.131,79.131,0,0,1,3.3,12.771c.826-11.3-2.476-23.276-2.476-23.276Z" transform="translate(-36.298 -170.907)" opacity="0.2" style="isolation: isolate"/>
                <path id="Trazado_132735" data-name="Trazado 132735" d="M57.689,247.89l-.674,3.566s20.656,2.675,33.508,2.6l-.445-2.452Z" transform="translate(-30.191 -166.553)" fill="#7d6eb2"/>
                <path id="Trazado_132736" data-name="Trazado 132736" d="M113.737,205.9s7.148,22.527,12.033,24,17.312-17.117,17.312-17.117,11.136-.107,11.635-.868-2.894-8.6-3.708-8.616-10.51,3.648-10.886,4.26-11.5,11.252-12.046,10.951-4.749-13.7-4.749-13.7Z" transform="translate(-44.308 -155.454)" fill="#b97964"/>
                <path id="Trazado_132737" data-name="Trazado 132737" d="M154.7,214.3a2.389,2.389,0,0,0,.267-.068c-.048-.028-.089-.055-.131-.083A.917.917,0,0,1,154.7,214.3Z" transform="translate(-54.503 -158.155)" fill="#b97964"/>
                <g id="Grupo_66308" data-name="Grupo 66308" transform="translate(65.373 35.028)">
                  <path id="Trazado_132738" data-name="Trazado 132738" d="M108.338,199.051l.871,1.605,4.068,7.519.843,1.55,11.408-3.965s-4.74-17.712-6.387-19.523Z" transform="translate(-108.338 -186.237)" fill="#ffb476"/>
                </g>
                <path id="Trazado_132740" data-name="Trazado 132740" d="M109.5,204.05l4.068,7.519c2.51-4.939,1.783-11.7,1.783-11.7Z" transform="translate(-43.253 -154.602)" opacity="0.2" style="isolation: isolate"/>
                <g id="Grupo_66309" data-name="Grupo 66309" transform="translate(26.824 26.565)">
                  <path id="Trazado_132741" data-name="Trazado 132741" d="M106.367,183.431a24.2,24.2,0,0,0-17.182-8.34c-11.184-.525-14.695.587-18.782,4.236-5.971,5.33-13.388,51.261-13.388,51.261a103.718,103.718,0,0,0,33.513,3.645s.134-12.749,4.168-21.343A238.677,238.677,0,0,0,106.367,183.431Z" transform="translate(-57.015 -174.969)" fill="#ffb476"/>
                  <path id="Trazado_132744" data-name="Trazado 132744" d="M107.066,200.615l2.229.223L107.66,202.1Z" transform="translate(-69.472 -181.352)" fill="#ffb476" opacity="0.4" style="isolation: isolate"/>
                </g>
                <path id="Trazado_132745" data-name="Trazado 132745" d="M95.468,172.879c1.209,3.456,5.708,5.032,8.069,5.232a4.011,4.011,0,0,0,4.278-2.319s-2.691-1.339-2.426-2.854a7.108,7.108,0,0,1,1.111-2.569,14.825,14.825,0,0,1,.922-1.27l-4.317-9.255C102.137,163.884,99.186,171.587,95.468,172.879Z" transform="translate(-39.762 -144.64)" fill="#b97964"/>
                <path id="Trazado_132746" data-name="Trazado 132746" d="M105.166,165.57a6.959,6.959,0,0,0,2.459,8.794,7.108,7.108,0,0,1,1.111-2.569Z" transform="translate(-41.998 -146.065)" opacity="0.2" style="isolation: isolate"/>
                <g id="Grupo_66312" data-name="Grupo 66312" transform="translate(56.988)">
                  <g id="Grupo_66310" data-name="Grupo 66310" transform="translate(13.674 6.969)">
                    <path id="Trazado_132747" data-name="Trazado 132747" d="M122.369,149.39s1.381,7.629-2.6,10.691-4.387-11.2-4.387-11.2Z" transform="translate(-115.38 -148.88)" fill="#b97964"/>
                    <path id="Trazado_132748" data-name="Trazado 132748" d="M122.369,149.39s1.381,7.629-2.6,10.691-4.387-11.2-4.387-11.2Z" transform="translate(-115.38 -148.88)" opacity="0.4" style="isolation: isolate"/>
                  </g>
                  <path id="Trazado_132749" data-name="Trazado 132749" d="M105.142,166.417a6.958,6.958,0,0,0,8.061,2.469,7.863,7.863,0,0,0,4.665-4.471c1.87-4.739,2.291-16.308-2.763-15.876-4.141.354-8.2-.928-10.316,2.656a7.487,7.487,0,0,0-1.038,3.349C103.3,160.035,102.772,163.242,105.142,166.417Z" transform="translate(-98.714 -141.823)" fill="#b97964"/>
                  <path id="Trazado_132750" data-name="Trazado 132750" d="M114.608,159.887c-.093.436.118.835.413.877s.575-.289.641-.732-.125-.837-.413-.877S114.674,159.438,114.608,159.887Z" transform="translate(-101.508 -144.468)" fill="#263238"/>
                  <path id="Trazado_132751" data-name="Trazado 132751" d="M121.293,160.835c-.093.436.125.838.413.877s.575-.29.641-.732-.125-.837-.413-.877S121.354,160.413,121.293,160.835Z" transform="translate(-103.172 -144.704)" fill="#263238"/>
                  <path id="Trazado_132752" data-name="Trazado 132752" d="M118.933,161.068a15.955,15.955,0,0,0,1.583,4.1,2.6,2.6,0,0,1-2.191.1Z" transform="translate(-102.438 -144.944)" fill="#a24e3f"/>
                  <path id="Trazado_132753" data-name="Trazado 132753" d="M112.787,157.26a.276.276,0,0,0,.267-.066,2.125,2.125,0,0,1,1.793-.637.262.262,0,1,0,.11-.512h0a2.611,2.611,0,0,0-2.271.773.263.263,0,0,0-.012.37l0,0A.4.4,0,0,0,112.787,157.26Z" transform="translate(-101.014 -143.687)" fill="#263238"/>
                  <path id="Trazado_132754" data-name="Trazado 132754" d="M123.944,158.5a.256.256,0,0,0,.152.032.262.262,0,0,0,.173-.327V158.2a2.611,2.611,0,0,0-1.67-1.732.261.261,0,0,0-.321.184h0a.269.269,0,0,0,.184.322h0a2.122,2.122,0,0,1,1.3,1.393A.27.27,0,0,0,123.944,158.5Z" transform="translate(-103.42 -143.798)" fill="#263238"/>
                  <path id="Trazado_132755" data-name="Trazado 132755" d="M113.684,166.918a3.3,3.3,0,0,0,2.8,1.911" transform="translate(-101.283 -146.4)" fill="none" stroke="#263238" stroke-linecap="round" stroke-linejoin="round" stroke-width="0.5"/>
                  <g id="Grupo_66311" data-name="Grupo 66311" transform="translate(2.006 6.483)">
                    <path id="Trazado_132756" data-name="Trazado 132756" d="M107.843,148.233l.069,2.446a1.81,1.81,0,0,0-1.118,2.185c.59,2.107-.858,5.153-2.537,6.265,0,0,.035-.886-.729-.746s-.986,4.746.259,7.071a13.313,13.313,0,0,1-3.448-7.376c-.729-4.562-.6-7.453.044-9.634Z" transform="translate(-99.845 -148.233)" fill="#b97964"/>
                    <path id="Trazado_132757" data-name="Trazado 132757" d="M107.843,148.233l.069,2.446a1.81,1.81,0,0,0-1.118,2.185c.59,2.107-.858,5.153-2.537,6.265,0,0,.035-.886-.729-.746s-.986,4.746.259,7.071a13.313,13.313,0,0,1-3.448-7.376c-.729-4.562-.6-7.453.044-9.634Z" transform="translate(-99.845 -148.233)" opacity="0.4" style="isolation: isolate"/>
                  </g>
                  <path id="Trazado_132758" data-name="Trazado 132758" d="M99.236,149.022a25.384,25.384,0,0,0,8.011-.491c7.571-1.506,10.789,1.279,10.789,1.279a4.766,4.766,0,0,0,1.574-3.725c-.223-2.181-3.248-2.552-3.248-2.552a5.9,5.9,0,0,0-2.918-3.195c-2.005-.743-4.015,1.115-4.015,1.115s-2.5-2.414-5.416-1.728a4.372,4.372,0,0,0-3.495,4.254s-3.417.349-3.342,2.106S99.236,149.022,99.236,149.022Z" transform="translate(-97.174 -139.602)" fill="#263238"/>
                  <ellipse id="Elipse_4103" data-name="Elipse 4103" cx="2.453" cy="2.828" rx="2.453" ry="2.828" transform="translate(11.227 12.956)" fill="none" stroke="#263238" stroke-linecap="round" stroke-linejoin="round" stroke-width="0.5"/>
                  <path id="Trazado_132759" data-name="Trazado 132759" d="M125.249,160.238a2.478,2.478,0,1,1-2.453-2.828A2.661,2.661,0,0,1,125.249,160.238Z" transform="translate(-102.941 -144.034)" fill="none" stroke="#263238" stroke-linecap="round" stroke-linejoin="round" stroke-width="0.5"/>
                  <path id="Trazado_132760" data-name="Trazado 132760" d="M118.654,161s.791-.5,1.269.08" transform="translate(-102.52 -144.878)" fill="none" stroke="#263238" stroke-linecap="round" stroke-linejoin="round" stroke-width="0.5"/>
                  <path id="Trazado_132761" data-name="Trazado 132761" d="M110.109,160.42l-4.308-.575a2.116,2.116,0,0,0-1.58.428l-.188.146" transform="translate(-98.881 -144.636)" fill="none" stroke="#263238" stroke-linecap="round" stroke-linejoin="round" stroke-width="0.5"/>
                  <path id="Trazado_132762" data-name="Trazado 132762" d="M99.819,160.976a5.242,5.242,0,0,0,2.6,3.046c1.643.824,2.814-.563,2.656-2.3-.156-1.541-1.183-3.876-2.98-3.961A2.341,2.341,0,0,0,99.819,160.976Z" transform="translate(-97.8 -144.121)" fill="#b97964"/>
                </g>
                <path id="Trazado_132763" data-name="Trazado 132763" d="M63.322,209.979c7.086-2.943,12.691-15.106,12.691-15.106l-4.027-2.435-5.467,4.4c-.165.6-.33,1.208-.494,1.825-.734,2.785-1.454,5.755-2.133,8.76C63.7,208.271,63.507,209.128,63.322,209.979Z" transform="translate(-31.761 -152.752)" opacity="0.2" style="isolation: isolate"/>
                <path id="Trazado_132764" data-name="Trazado 132764" d="M115.308,216.02l12.232-4.492.347,1.04-12.232,4.358Z" transform="translate(-44.699 -157.503)" fill="#7d6eb2"/>
                <g id="Grupo_66314" data-name="Grupo 66314" transform="translate(0 83.808)">
                  <rect id="Rectángulo_30237" data-name="Rectángulo 30237" width="35.889" height="22.136" transform="translate(3.468 0) rotate(9.013)" fill="#727997"/>
                  <g id="Grupo_66313" data-name="Grupo 66313" transform="translate(8.815 8.323)">
                    <path id="Trazado_132765" data-name="Trazado 132765" d="M40.239,262.261l-7.2,3.732,5.692,5.776" transform="translate(-33.04 -262.261)" fill="none" stroke="#fff" stroke-linecap="round" stroke-linejoin="round" stroke-width="2"/>
                    <path id="Trazado_132766" data-name="Trazado 132766" d="M51.789,273.541l7.2-3.732L53.3,264.033" transform="translate(-37.706 -262.702)" fill="none" stroke="#fff" stroke-linecap="round" stroke-linejoin="round" stroke-width="2"/>
                    <line id="Línea_1775" data-name="Línea 1775" y1="8.973" x2="4.883" transform="translate(8.2 0.933)" fill="none" stroke="#fff" stroke-linecap="round" stroke-linejoin="round" stroke-width="2"/>
                  </g>
                </g>
                <path id="Trazado_132767" data-name="Trazado 132767" d="M62.129,183.375s-13.356,13.41-15.182,16.018-5.306,31.5-5.306,31.5-.734.255-.8.879-.118,8.738,0,9.114,6.268,4.17,7.172,3.268,2.171-10.091,2.171-10.091l-3.241-3.17s3.774-21.28,6.131-24.724,12.092-10.823,12.092-10.823Z" transform="translate(-26.149 -150.496)" fill="#b97964"/>
                <g id="Grupo_66315" data-name="Grupo 66315" transform="translate(24.557 27.48)">
                  <path id="Trazado_132768" data-name="Trazado 132768" d="M75.69,176.188c1.947,4.123.466,12.805-3.121,15.869a105.287,105.287,0,0,1-12.009,8.617L54,192.093s6.97-6.806,11.192-10.727A19.1,19.1,0,0,1,75.69,176.188Z" transform="translate(-53.997 -176.188)" fill="#ffb476"/>
                </g>
                <path id="Trazado_132770" data-name="Trazado 132770" d="M53.728,196.626l-.811,1.105,6.847,8.948.968-.693Z" transform="translate(-29.171 -153.794)" fill="#7d6eb2"/>
              </g>
            </g>
          </g>
        </g>
      </g>
    </g>
  </g>
</svg>
