<svg xmlns="http://www.w3.org/2000/svg" xmlns:xlink="http://www.w3.org/1999/xlink" width="190" height="71.27" viewBox="0 0 190 71.27">
  <defs>
    <clipPath id="clip-path">
      <rect id="Rectángulo_376883" data-name="Rectángulo 376883" width="69.5" height="63.989" fill="none"/>
    </clipPath>
  </defs>
  <g id="Grupo_1077921" data-name="Grupo 1077921" transform="translate(-180 -3147)">
    <g id="Grupo_1077920" data-name="Grupo 1077920">
      <g id="Grupo_1077919" data-name="Grupo 1077919">
        <g id="Grupo_1076349" data-name="Grupo 1076349" transform="translate(0 -58)">
          <rect id="Rectángulo_37233" data-name="Rectángulo 37233" width="190" height="51" transform="translate(180 3205)" fill="#ffe5cf"/>
          <g id="Grupo_1076348" data-name="Grupo 1076348" transform="translate(240.25 3212.281)">
            <rect id="Rectángulo_376878" data-name="Rectángulo 376878" width="16.289" height="7.405" transform="translate(26.605 46.899)" fill="#9facba"/>
            <rect id="Rectángulo_376879" data-name="Rectángulo 376879" width="5.43" height="7.405" transform="translate(26.605 46.899)" fill="#8d9ca8"/>
            <g id="Grupo_1076347" data-name="Grupo 1076347">
              <g id="Grupo_1076346" data-name="Grupo 1076346" clip-path="url(#clip-path)">
                <path id="Trazado_824462" data-name="Trazado 824462" d="M205.807,347.441H189.518a1.018,1.018,0,0,1-1.018-1.018v-7.4A1.018,1.018,0,0,1,189.518,338h16.289a1.018,1.018,0,0,1,1.018,1.018v7.4a1.018,1.018,0,0,1-1.018,1.018M190.536,345.4h14.253v-5.369H190.536Z" transform="translate(-162.913 -292.119)"/>
                <path id="Trazado_824463" data-name="Trazado 824463" d="M7.5,296.115a2.715,2.715,0,0,0,2.715,2.715H72.249a2.715,2.715,0,0,0,2.715-2.715V291.5H7.5Z" transform="translate(-6.482 -251.931)" fill="#c5d3dd"/>
                <path id="Trazado_824464" data-name="Trazado 824464" d="M13,296.115V291.5H7.5v4.615a2.715,2.715,0,0,0,2.715,2.715h5.5A2.715,2.715,0,0,1,13,296.115" transform="translate(-6.482 -251.931)" fill="#b6c4cf"/>
                <path id="Trazado_824465" data-name="Trazado 824465" d="M65.767,293.366H61.22a1.018,1.018,0,1,1,0-2.036h4.547a1.7,1.7,0,0,0,1.7-1.7v-3.6H2.036v3.6a1.7,1.7,0,0,0,1.7,1.7H56.469a1.018,1.018,0,1,1,0,2.036H3.733A3.737,3.737,0,0,1,0,289.633v-4.615A1.018,1.018,0,0,1,1.018,284H68.482a1.018,1.018,0,0,1,1.018,1.018v4.615a3.737,3.737,0,0,1-3.733,3.733" transform="translate(0 -245.449)"/>
                <path id="Trazado_824466" data-name="Trazado 824466" d="M143.155,394.588H103.518a1.018,1.018,0,1,1,0-2.036h39.637a1.018,1.018,0,0,1,0,2.036" transform="translate(-88.586 -339.266)"/>
                <rect id="Rectángulo_376880" data-name="Rectángulo 376880" width="67.464" height="33.363" transform="translate(1.018 6.206)" fill="#dff6fd"/>
                <rect id="Rectángulo_376881" data-name="Rectángulo 376881" width="5.498" height="33.363" transform="translate(1.018 6.206)" fill="#c8effe"/>
                <path id="Trazado_824467" data-name="Trazado 824467" d="M68.482,73.62H1.018A1.018,1.018,0,0,1,0,72.6V39.239a1.018,1.018,0,0,1,1.018-1.018H68.482A1.018,1.018,0,0,1,69.5,39.239V72.6a1.018,1.018,0,0,1-1.018,1.018M2.036,71.584H67.464V40.257H2.036Z" transform="translate(0 -33.033)"/>
                <path id="Trazado_824468" data-name="Trazado 824468" d="M72.249,7.5H10.215A2.715,2.715,0,0,0,7.5,10.215v2.473H74.964V10.215A2.715,2.715,0,0,0,72.249,7.5" transform="translate(-6.482 -6.482)" fill="#6bd9e7"/>
                <path id="Trazado_824469" data-name="Trazado 824469" d="M68.482,7.224H1.018A1.018,1.018,0,0,1,0,6.206V3.733A3.737,3.737,0,0,1,3.733,0h12.42a1.018,1.018,0,1,1,0,2.036H3.733a1.7,1.7,0,0,0-1.7,1.7V5.188H67.464V3.733a1.7,1.7,0,0,0-1.7-1.7H20.9A1.018,1.018,0,1,1,20.9,0H65.767A3.737,3.737,0,0,1,69.5,3.733V6.206a1.018,1.018,0,0,1-1.018,1.018"/>
                <path id="Trazado_824470" data-name="Trazado 824470" d="M10.215,7.5A2.715,2.715,0,0,0,7.5,10.215v2.473H18.371V7.5Z" transform="translate(-6.482 -6.482)" fill="#6bd9e7"/>
                <path id="Trazado_824471" data-name="Trazado 824471" d="M15.712,7.5h-5.5A2.715,2.715,0,0,0,7.5,10.215v2.473H13V10.215A2.715,2.715,0,0,1,15.712,7.5" transform="translate(-6.482 -6.482)" fill="#2ed1e2"/>
                <path id="Trazado_824472" data-name="Trazado 824472" d="M11.889,7.224H1.018A1.018,1.018,0,0,1,0,6.206V3.733A3.737,3.737,0,0,1,3.733,0h8.156a1.018,1.018,0,0,1,1.018,1.018V6.206a1.018,1.018,0,0,1-1.018,1.018M2.036,5.188h8.835V2.036H3.733a1.7,1.7,0,0,0-1.7,1.7Z"/>
                <path id="Trazado_824473" data-name="Trazado 824473" d="M358.462,80.5v23.66h13.07a.679.679,0,0,0,.679-.679v-22.3a.679.679,0,0,0-.679-.679Z" transform="translate(-309.804 -69.573)" fill="#fea613"/>
                <rect id="Rectángulo_376882" data-name="Rectángulo 376882" width="4.553" height="23.66" transform="translate(48.658 10.927)" fill="#fe9901"/>
                <path id="Trazado_824474" data-name="Trazado 824474" d="M365.05,98.7H351.98a1.018,1.018,0,0,1-1.018-1.018V74.018A1.018,1.018,0,0,1,351.98,73h13.07a1.7,1.7,0,0,1,1.7,1.7V97a1.7,1.7,0,0,1-1.7,1.7M353,96.66h11.712V75.036H353Z" transform="translate(-303.322 -63.091)"/>
                <path id="Trazado_824475" data-name="Trazado 824475" d="M387.9,117.529V110.35a.407.407,0,0,1,.407-.407h4.941a.407.407,0,0,1,.407.407v7.179a.407.407,0,0,1-.407.407h-4.941a.407.407,0,0,1-.407-.407" transform="translate(-335.25 -95.019)" fill="#fff"/>
                <path id="Trazado_824476" data-name="Trazado 824476" d="M386.771,112.472H381.83a1.427,1.427,0,0,1-1.425-1.425v-7.179a1.427,1.427,0,0,1,1.425-1.425h4.941a1.427,1.427,0,0,1,1.425,1.425v7.179a1.427,1.427,0,0,1-1.425,1.425m-4.33-2.036h3.719v-5.957h-3.719Z" transform="translate(-328.768 -88.537)"/>
                <path id="Trazado_824477" data-name="Trazado 824477" d="M56.371,85.3H52.933a.679.679,0,0,1-.679-.679V81.179a.679.679,0,0,1,.679-.679h3.439a.679.679,0,0,1,.679.679v3.439a.679.679,0,0,1-.679.679" transform="translate(-45.161 -69.573)" fill="#fed402"/>
                <path id="Trazado_824478" data-name="Trazado 824478" d="M54.527,84.617V81.179a.679.679,0,0,1,.679-.679H52.933a.679.679,0,0,0-.679.679v3.439a.679.679,0,0,0,.679.679h2.273a.679.679,0,0,1-.679-.679" transform="translate(-45.161 -69.573)" fill="#fac600"/>
                <path id="Trazado_824479" data-name="Trazado 824479" d="M56.371,154.782H52.933a.679.679,0,0,1-.679-.679v-3.439a.679.679,0,0,1,.679-.679h3.439a.679.679,0,0,1,.679.679V154.1a.679.679,0,0,1-.679.679" transform="translate(-45.161 -129.627)" fill="#00f2a6"/>
                <path id="Trazado_824480" data-name="Trazado 824480" d="M54.527,154.1v-3.439a.679.679,0,0,1,.679-.679H52.933a.679.679,0,0,0-.679.679V154.1a.679.679,0,0,0,.679.679h2.273a.679.679,0,0,1-.679-.679" transform="translate(-45.161 -129.626)" fill="#05e39c"/>
                <path id="Trazado_824481" data-name="Trazado 824481" d="M56.371,224.267H52.933a.679.679,0,0,1-.679-.679V220.15a.679.679,0,0,1,.679-.679h3.439a.679.679,0,0,1,.679.679v3.439a.679.679,0,0,1-.679.679" transform="translate(-45.161 -189.68)" fill="#6bd9e7"/>
                <path id="Trazado_824482" data-name="Trazado 824482" d="M54.527,223.588V220.15a.679.679,0,0,1,.679-.679H52.933a.679.679,0,0,0-.679.679v3.439a.679.679,0,0,0,.679.679h2.273a.679.679,0,0,1-.679-.679" transform="translate(-45.161 -189.68)" fill="#2ed1e2"/>
                <path id="Trazado_824483" data-name="Trazado 824483" d="M49.889,79.832H46.451a1.7,1.7,0,0,1-1.7-1.7V74.7a1.7,1.7,0,0,1,1.7-1.7h3.439a1.7,1.7,0,0,1,1.7,1.7v3.439a1.7,1.7,0,0,1-1.7,1.7M46.79,77.8h2.76v-2.76H46.79Z" transform="translate(-38.679 -63.091)"/>
                <path id="Trazado_824484" data-name="Trazado 824484" d="M49.889,149.318H46.451a1.7,1.7,0,0,1-1.7-1.7v-3.439a1.7,1.7,0,0,1,1.7-1.7h3.439a1.7,1.7,0,0,1,1.7,1.7v3.439a1.7,1.7,0,0,1-1.7,1.7m-3.1-2.036h2.76v-2.76H46.79Z" transform="translate(-38.679 -123.145)"/>
                <path id="Trazado_824485" data-name="Trazado 824485" d="M49.889,218.8H46.451a1.7,1.7,0,0,1-1.7-1.7v-3.438a1.7,1.7,0,0,1,1.7-1.7h3.439a1.7,1.7,0,0,1,1.7,1.7v3.438a1.7,1.7,0,0,1-1.7,1.7m-3.1-2.036h2.76v-2.76H46.79Z" transform="translate(-38.679 -183.198)"/>
                <path id="Trazado_824486" data-name="Trazado 824486" d="M163.033,104.16H133.018a.679.679,0,0,1-.679-.679v-22.3a.679.679,0,0,1,.679-.679h30.016Z" transform="translate(-114.375 -69.573)" fill="#fff"/>
                <path id="Trazado_824487" data-name="Trazado 824487" d="M156.551,98.7H126.536a1.7,1.7,0,0,1-1.7-1.7V74.7a1.7,1.7,0,0,1,1.7-1.7h30.016a1.018,1.018,0,0,1,1.018,1.018v23.66a1.018,1.018,0,0,1-1.018,1.018M126.875,96.66h28.658V75.036H126.875Z" transform="translate(-107.893 -63.091)"/>
                <path id="Trazado_824488" data-name="Trazado 824488" d="M209.688,150.41H192.518a1.018,1.018,0,0,1,0-2.036h17.169a1.018,1.018,0,0,1,0,2.036" transform="translate(-165.505 -128.233)"/>
                <path id="Trazado_824489" data-name="Trazado 824489" d="M160.012,150.41h-1.179a1.018,1.018,0,0,1,0-2.036h1.179a1.018,1.018,0,0,1,0,2.036" transform="translate(-136.393 -128.233)"/>
                <path id="Trazado_824490" data-name="Trazado 824490" d="M180.575,181.031H158.833a1.018,1.018,0,1,1,0-2.036h21.742a1.018,1.018,0,0,1,0,2.036" transform="translate(-136.393 -154.698)"/>
                <path id="Trazado_824491" data-name="Trazado 824491" d="M170.343,211.652h-11.51a1.018,1.018,0,0,1,0-2.036h11.51a1.018,1.018,0,1,1,0,2.036" transform="translate(-136.393 -181.162)"/>
                <path id="Trazado_824492" data-name="Trazado 824492" d="M163.033,86.255H132.339V81.179a.679.679,0,0,1,.679-.679h30.016Z" transform="translate(-114.375 -69.573)" fill="#ffb476"/>
                <path id="Trazado_824493" data-name="Trazado 824493" d="M156.551,80.791H125.857a1.018,1.018,0,0,1-1.018-1.018V74.7a1.7,1.7,0,0,1,1.7-1.7h30.016a1.018,1.018,0,0,1,1.018,1.018v5.755a1.018,1.018,0,0,1-1.018,1.018m-29.676-2.036h28.658V75.036H126.875Z" transform="translate(-107.893 -63.091)"/>
                <path id="Trazado_824494" data-name="Trazado 824494" d="M138.094,86.255h-5.755V81.179a.679.679,0,0,1,.679-.679h5.076Z" transform="translate(-114.375 -69.573)" fill="#ffb476"/>
                <path id="Trazado_824495" data-name="Trazado 824495" d="M131.612,80.791h-5.755a1.018,1.018,0,0,1-1.018-1.018V74.7a1.7,1.7,0,0,1,1.7-1.7h5.076a1.018,1.018,0,0,1,1.018,1.018v5.755a1.018,1.018,0,0,1-1.018,1.018m-4.737-2.036h3.719V75.036h-3.719Z" transform="translate(-107.893 -63.091)"/>
                <path id="Trazado_824496" data-name="Trazado 824496" d="M387.179,219.9h-5.755a1.018,1.018,0,0,1,0-2.036h5.755a1.018,1.018,0,0,1,0,2.036" transform="translate(-328.769 -188.287)"/>
                <path id="Trazado_824497" data-name="Trazado 824497" d="M387.179,191.631h-5.755a1.018,1.018,0,0,1,0-2.036h5.755a1.018,1.018,0,0,1,0,2.036" transform="translate(-328.769 -163.859)"/>
                <path id="Trazado_824498" data-name="Trazado 824498" d="M57.114,437.627H8.179a.679.679,0,0,1-.679-.679v-2.769a.679.679,0,0,1,.679-.679H57.114a.679.679,0,0,1,.679.679v2.769a.679.679,0,0,1-.679.679" transform="translate(-6.482 -374.656)" fill="#c5d3dd"/>
                <path id="Trazado_824499" data-name="Trazado 824499" d="M14.423,436.948v-2.769a.679.679,0,0,1,.679-.679H8.179a.679.679,0,0,0-.679.679v2.769a.679.679,0,0,0,.679.679H15.1a.679.679,0,0,1-.679-.679" transform="translate(-6.482 -374.656)" fill="#b6c4cf"/>
                <path id="Trazado_824500" data-name="Trazado 824500" d="M50.632,432.163H1.7a1.7,1.7,0,0,1-1.7-1.7V427.7A1.7,1.7,0,0,1,1.7,426H12.081a1.018,1.018,0,0,1,0,2.036H2.036v2.091H50.292v-2.091H16.832a1.018,1.018,0,0,1,0-2.036h33.8a1.7,1.7,0,0,1,1.7,1.7v2.769a1.7,1.7,0,0,1-1.7,1.7" transform="translate(0 -368.174)"/>
                <path id="Trazado_824501" data-name="Trazado 824501" d="M422.4,420.535H410.179a.679.679,0,0,1-.679-.679v-1.521a4.611,4.611,0,0,1,4.611-4.611h3.673a4.611,4.611,0,0,1,4.611,4.611v2.2Z" transform="translate(-353.914 -357.564)" fill="#c5d3dd"/>
                <path id="Trazado_824502" data-name="Trazado 824502" d="M413.911,419.857v-1.521a4.611,4.611,0,0,1,4.242-4.6c-.122-.01-.245-.016-.369-.016H414.11a4.611,4.611,0,0,0-4.611,4.611v1.521a.679.679,0,0,0,.679.679h4.412a.679.679,0,0,1-.679-.679" transform="translate(-353.913 -357.564)" fill="#b6c4cf"/>
                <path id="Trazado_824503" data-name="Trazado 824503" d="M415.914,415.071H403.7a1.7,1.7,0,0,1-1.7-1.7v-1.521a5.636,5.636,0,0,1,5.629-5.629H411.3a5.636,5.636,0,0,1,5.629,5.629v2.2a1.018,1.018,0,0,1-1.018,1.018m-11.877-2.036H414.9v-1.182a3.6,3.6,0,0,0-3.593-3.593h-3.673a3.6,3.6,0,0,0-3.593,3.593Z" transform="translate(-347.432 -351.082)"/>
              </g>
            </g>
          </g>
        </g>
      </g>
    </g>
  </g>
</svg>
