<svg xmlns="http://www.w3.org/2000/svg" width="566.992" height="225.367" viewBox="0 0 566.992 225.367">
  <g id="Grupo_1076985" data-name="Grupo 1076985" transform="translate(6731.577 1658.653)">
    <g id="Rectángulo_44526" data-name="Rectángulo 44526" transform="translate(-6731.577 -1622.53)" fill="none" stroke="#fff" stroke-width="4">
      <rect width="474.922" height="158.961" rx="10" stroke="none"/>
      <rect x="2" y="2" width="470.922" height="154.961" rx="8" fill="none"/>
    </g>
    <g id="swdVQE" transform="translate(-6706.38 -1486.156) rotate(-90)">
      <g id="Grupo_151223" data-name="Grupo 151223" transform="translate(0 0)">
        <path id="Trazado_192920" data-name="Trazado 192920" d="M0,26.979c.222-1.392.381-2.8.678-4.173A29.006,29.006,0,1,1,1.909,39.4,28.636,28.636,0,0,1,.123,31.73,4.533,4.533,0,0,0,0,31.162ZM28.994,1A28.022,28.022,0,1,0,57.063,28.988,28.025,28.025,0,0,0,28.994,1Z" transform="translate(0 0.343)" fill="#fff"/>
        <path id="Trazado_192921" data-name="Trazado 192921" d="M31.067,0c1.585.264,3.189.446,4.753.806A29.014,29.014,0,0,1,58.011,27.019c.017.277.077.551.116.826v2.484c-.2,1.462-.33,2.939-.619,4.383A29.031,29.031,0,1,1,23.924.445C24.906.271,25.9.147,26.883,0ZM1.011,29.021A28.036,28.036,0,1,0,29.041,1,28.023,28.023,0,0,0,1.011,29.021Z" transform="translate(59.526)" fill="#fff"/>
        <path id="Trazado_192922" data-name="Trazado 192922" d="M21.553.157V4.733h9.208V0c1.807.566,3.521.985,5.144,1.63a26.159,26.159,0,0,1,13,37.19,1.141,1.141,0,0,1-1.163.694c-2.611-.04-5.224-.017-7.917-.017-.013.261-.034.49-.034.718,0,2.461-.011,4.923.006,7.384a.85.85,0,0,1-.48.886q-13.162,7.15-26.316,0a.854.854,0,0,1-.477-.89c.017-2.44.007-4.879.007-7.319V39.5h-.773c-2.439,0-4.879-.012-7.318.01a.93.93,0,0,1-.931-.524A26.148,26.148,0,0,1,21.1.232C21.2.211,21.311.2,21.553.157ZM38.778,38.488h7.573c1.636,0,1.636,0,2.367-1.469A25.176,25.176,0,0,0,38.511,3.961a23.817,23.817,0,0,0-6.76-2.579V5.717H20.543V1.384c-.26.052-.449.082-.634.128A25.206,25.206,0,0,0,4.06,37.946a.941.941,0,0,0,.971.553c2.592-.022,5.185-.011,7.778-.009.229,0,.459.021.725.034,0,.293,0,.51,0,.726,0,2.614,0,5.228-.011,7.843a.742.742,0,0,0,.417.785c8.112,4.214,16.223,4.255,24.348.037a.832.832,0,0,0,.5-.87c-.021-2.57-.011-5.141-.011-7.712Z" transform="translate(2.802 3.49)" fill="#fff"/>
        <path id="Trazado_192923" data-name="Trazado 192923" d="M21.563,4.624h9.188V0c.907.215,1.732.378,2.538.608A26.186,26.186,0,0,1,48.823,38.844a.909.909,0,0,1-.917.537c-2.44-.023-4.879-.01-7.319-.01h-.776c-.013.279-.032.51-.032.742,0,2.44-.018,4.88.012,7.319a.982.982,0,0,1-.6,1.013q-13.057,7-26.09-.026a.938.938,0,0,1-.564-.967c.025-2.418.011-4.836.011-7.254v-.79c-.268-.014-.5-.035-.726-.036-2.461,0-4.923-.011-7.385.008a.921.921,0,0,1-.927-.523A26.135,26.135,0,0,1,20.734.19c.25-.053.5-.1.829-.159Zm-1.037-3.35c-.252.054-.442.088-.628.135a25.147,25.147,0,0,0-15.952,36.2,1.218,1.218,0,0,0,1.264.743c2.483-.041,4.966-.017,7.449-.016.9,0,.9,0,.9.878,0,2.57.013,5.14-.009,7.71a.888.888,0,0,0,.545.917,25.074,25.074,0,0,0,24.118,0,.889.889,0,0,0,.548-.916c-.021-2.614.008-5.228-.023-7.841-.007-.615.2-.769.785-.763,2.548.026,5.1-.014,7.645.029a1.163,1.163,0,0,0,1.2-.739A25.182,25.182,0,0,0,32.436,1.4c-.2-.051-.4-.074-.631-.114,0,1.292-.015,2.508.009,3.724.01.459-.091.654-.609.651q-5.031-.033-10.062,0c-.5,0-.635-.161-.625-.638C20.544,3.811,20.526,2.594,20.526,1.274Z" transform="translate(62.342 3.254)" fill="#fff"/>
        <path id="Trazado_192926" data-name="Trazado 192926" d="M.013,8.485C.013,5.894.026,3.3,0,.712,0,.183.13,0,.688,0Q5,.039,9.312,0c.52,0,.727.122.725.682q-.028,7.774,0,15.547c0,.619-.218.759-.8.754q-4.245-.039-8.492,0c-.563.005-.754-.141-.747-.727C.029,13.668.013,11.076.013,8.485ZM8.974,1.066H1.07v14.8h7.9Z" transform="translate(23.937 15.207)" fill="#fff"/>
        <path id="Trazado_192927" data-name="Trazado 192927" d="M3.366,6.634A3.3,3.3,0,0,1,0,3.311,3.388,3.388,0,0,1,3.345,0,3.411,3.411,0,0,1,6.69,3.326,3.314,3.314,0,0,1,3.366,6.634Zm2.278-3.32A2.3,2.3,0,1,0,3.39,5.63,2.3,2.3,0,0,0,5.644,3.314Z" transform="translate(42.083 28.276)" fill="#fff"/>
        <path id="Trazado_192928" data-name="Trazado 192928" d="M3.284,6.644A3.316,3.316,0,0,1,0,3.357,3.359,3.359,0,0,1,3.371,0a3.412,3.412,0,0,1,3.3,3.374A3.376,3.376,0,0,1,3.284,6.644ZM5.63,3.364a2.3,2.3,0,1,0-4.6-.063A2.278,2.278,0,0,0,3.262,5.632,2.29,2.29,0,0,0,5.63,3.364Z" transform="translate(9.147 28.273)" fill="#fff"/>
        <path id="Trazado_192929" data-name="Trazado 192929" d="M6.622,3.348A3.276,3.276,0,0,1,3.339,6.679,3.315,3.315,0,0,1,0,3.453,3.377,3.377,0,0,1,3.27,0,3.313,3.313,0,0,1,6.622,3.348ZM3.3,5.653a2.307,2.307,0,1,0-2.283-2.3A2.317,2.317,0,0,0,3.3,5.653Z" transform="translate(18.914 41.338)" fill="#fff"/>
        <path id="Trazado_192930" data-name="Trazado 192930" d="M6.652,3.328A3.3,3.3,0,0,1,3.308,6.619,3.242,3.242,0,0,1,0,3.314,3.354,3.354,0,0,1,3.409,0,3.31,3.31,0,0,1,6.652,3.328Zm-3.323-2.3A2.3,2.3,0,0,0,1.014,3.287a2.307,2.307,0,1,0,4.613.008A2.277,2.277,0,0,0,3.329,1.025Z" transform="translate(12.471 15.135)" fill="#fff"/>
        <path id="Trazado_192931" data-name="Trazado 192931" d="M3.279,6.659A3.261,3.261,0,0,1,0,3.323,3.331,3.331,0,0,1,3.321,0a3.434,3.434,0,0,1,3.31,3.3A3.3,3.3,0,0,1,3.279,6.659ZM5.6,3.373a2.3,2.3,0,1,0-2.292,2.28A2.3,2.3,0,0,0,5.6,3.373Z" transform="translate(32.355 41.339)" fill="#fff"/>
        <path id="Trazado_192932" data-name="Trazado 192932" d="M6.638,3.407a3.269,3.269,0,0,1-3.4,3.214A3.257,3.257,0,0,1,0,3.238a3.32,3.32,0,1,1,6.637.169ZM3.327,1.023A2.314,2.314,0,0,0,1,3.346,2.335,2.335,0,0,0,3.307,5.633,2.332,2.332,0,0,0,5.632,3.3,2.313,2.313,0,0,0,3.327,1.023Z" transform="translate(38.782 15.134)" fill="#fff"/>
        <path id="Trazado_192933" data-name="Trazado 192933" d="M.709,1.9c.143-.051.2-.067.256-.093.914-.454,1.7-.256,2.059.524a1.684,1.684,0,0,1-.86,2.19A1.484,1.484,0,0,1,.2,3.614,2.608,2.608,0,0,1,2.179,0c.162-.013.336.132.5.2C2.545.3,2.417.448,2.265.477A1.828,1.828,0,0,0,.709,1.9ZM.674,2.942c.01.693.405,1.165.965,1.154.527-.01.865-.449.843-1.1a.888.888,0,0,0-.912-.964A.893.893,0,0,0,.674,2.942Z" transform="translate(19.838 13.162)" fill="#fff"/>
        <path id="Trazado_192934" data-name="Trazado 192934" d="M2.065,3.367c-.579,0-1.116,0-1.652,0-.432,0-.51-.219-.3-.533.559-.854,1.124-1.7,1.735-2.52C1.973.142,2.31.125,2.65,0V2.669l.636.442-.6.421a3.2,3.2,0,0,1-.013.66c-.028.144-.186.263-.284.393-.109-.128-.278-.242-.312-.388A4.1,4.1,0,0,1,2.065,3.367ZM.711,2.82H2.038V.921Z" transform="translate(16.862 26.164)" fill="#fff"/>
        <path id="Trazado_192937" data-name="Trazado 192937" d="M.28.743C.324.608.327.43.418.345A1.736,1.736,0,0,1,2.376.263,1.4,1.4,0,0,1,2.72,2.035,8.032,8.032,0,0,1,1.676,3.359a4.265,4.265,0,0,1-.659.506l.12.185c.488,0,.978-.017,1.464.012.125.007.241.162.361.248-.108.1-.214.281-.324.285C1.814,4.62.991,4.608,0,4.608a3.608,3.608,0,0,1,.365-.656c.4-.432.835-.827,1.234-1.258A1.556,1.556,0,0,0,2.063,2c.062-.4.126-.963-.091-1.19S1.2.686.79.674C.677.671.56.773.446.827Z" transform="translate(20.574 35.786)" fill="#fff"/>
        <path id="Trazado_192938" data-name="Trazado 192938" d="M.825.581.02.951C.02.741-.03.492.028.462A7.976,7.976,0,0,1,1.211,0,1.039,1.039,0,0,1,1.42.483c.021,1.153.029,2.306,0,3.458,0,.175-.224.344-.344.516a1.712,1.712,0,0,1-.24-.565C.813,2.814.825,1.735.825.581Z" transform="translate(34.8 35.915)" fill="#fff"/>
        <path id="Trazado_192939" data-name="Trazado 192939" d="M0,0H9.846V16.828H0ZM8.849,15.855V1.014H.984V15.855Z" transform="translate(83.574 14.889)" fill="#fff"/>
        <path id="Trazado_192940" data-name="Trazado 192940" d="M0,3.28a3.325,3.325,0,0,1,6.649.056A3.357,3.357,0,0,1,3.305,6.649,3.413,3.413,0,0,1,0,3.28Zm1.023,0A2.306,2.306,0,1,0,3.319,1,2.288,2.288,0,0,0,1.023,3.278Z" transform="translate(91.876 41.033)" fill="#fff"/>
        <path id="Trazado_192941" data-name="Trazado 192941" d="M3.327,0A3.286,3.286,0,0,1,6.635,3.316,3.37,3.37,0,0,1,3.3,6.636,3.306,3.306,0,0,1,0,3.3,3.28,3.28,0,0,1,3.327,0Zm0,5.615A2.284,2.284,0,0,0,5.615,3.339,2.278,2.278,0,0,0,3.308,1.015a2.3,2.3,0,1,0,.015,4.6Z" transform="translate(98.332 14.79)" fill="#fff"/>
        <path id="Trazado_192942" data-name="Trazado 192942" d="M3.309,0a3.336,3.336,0,0,1,3.35,3.36,3.379,3.379,0,0,1-3.3,3.295A3.415,3.415,0,0,1,0,3.266,3.331,3.331,0,0,1,3.309,0ZM5.632,3.284a2.3,2.3,0,0,0-4.608.047,2.3,2.3,0,1,0,4.608-.047Z" transform="translate(78.459 41.03)" fill="#fff"/>
        <path id="Trazado_192943" data-name="Trazado 192943" d="M0,3.284A3.257,3.257,0,0,1,3.332,0,3.346,3.346,0,0,1,6.649,3.334a3.408,3.408,0,0,1-3.371,3.3A3.285,3.285,0,0,1,0,3.284Zm3.329-2.27A2.3,2.3,0,1,0,5.614,3.3,2.285,2.285,0,0,0,3.329,1.014Z" transform="translate(72.037 14.79)" fill="#fff"/>
        <path id="Trazado_192944" data-name="Trazado 192944" d="M6.633,3.349A3.286,3.286,0,0,1,3.282,6.614,3.324,3.324,0,0,1,0,3.333,3.325,3.325,0,0,1,3.368,0,3.271,3.271,0,0,1,6.633,3.349Zm-1-.029A2.315,2.315,0,0,0,1,3.3,2.335,2.335,0,0,0,3.34,5.621,2.338,2.338,0,0,0,5.633,3.32Z" transform="translate(101.654 27.945)" fill="#fff"/>
        <path id="Trazado_192945" data-name="Trazado 192945" d="M3.279,6.638A3.319,3.319,0,0,1,3.289,0a3.279,3.279,0,0,1,3.32,3.363A3.226,3.226,0,0,1,3.279,6.638Zm2.35-3.321A2.315,2.315,0,0,0,1,3.332a2.335,2.335,0,0,0,2.355,2.3A2.333,2.333,0,0,0,5.629,3.317Z" transform="translate(68.705 27.93)" fill="#fff"/>
        <path id="Trazado_192946" data-name="Trazado 192946" d="M.724,1.879c1-.463,1.627-.421,2.072.083a1.7,1.7,0,0,1,.066,1.954A1.5,1.5,0,0,1,.3,3.817,2.662,2.662,0,0,1,2.1,0c.184-.026.392.11.59.171-.159.1-.305.266-.478.3A1.785,1.785,0,0,0,.724,1.879Zm1.75,1.149c0-.635-.31-.986-.863-.993a.911.911,0,0,0-.942.873,1.015,1.015,0,0,0,.98,1.137C2.195,4.035,2.479,3.685,2.474,3.027Z" transform="translate(79.376 12.83)" fill="#fff"/>
        <path id="Trazado_192947" data-name="Trazado 192947" d="M2.662,0V2.8l.656.408-.647.394a2.338,2.338,0,0,1-.013.585,1.589,1.589,0,0,1-.287.453,1.4,1.4,0,0,1-.261-.42A4.24,4.24,0,0,1,2.1,3.462c-.584,0-1.1.01-1.612,0s-.618-.216-.324-.647C.7,2.021,1.232,1.223,1.813.462,1.96.268,2.275.2,2.662,0ZM.74,2.88c1.323.166,1.324.166,1.338-1.007,0-.273,0-.545,0-.931Z" transform="translate(76.413 25.726)" fill="#fff"/>
        <path id="Trazado_192948" data-name="Trazado 192948" d="M1.019,4.108H2.93C2.675,4.715.8,4.83,0,4.308L.417,3.85A14.247,14.247,0,0,0,1.954,2.1,1.468,1.468,0,0,0,1.972.846C1.734.388,1.2.5.742.668a1.448,1.448,0,0,1-.489,0C.344.523.4.323.531.241A1.6,1.6,0,0,1,2.413.376a1.419,1.419,0,0,1,.157,1.8A24.5,24.5,0,0,1,1.019,4.108Z" transform="translate(80.17 35.421)" fill="#fff"/>
        <path id="Trazado_192949" data-name="Trazado 192949" d="M1.985,2.051a4.4,4.4,0,0,1,.684,1.122A1.132,1.132,0,0,1,1.955,4.5a2.3,2.3,0,0,1-1.89-.093C.01,4.343-.021,4.167.017,4.133a.49.49,0,0,1,.332-.125c.278.024.553.131.828.128a.8.8,0,0,0,.881-.776c.043-.529-.291-.79-.758-.909-.145-.037-.311,0-.45-.053C.752,2.365.683,2.248.6,2.168a1.463,1.463,0,0,1,.259-.23c.069-.038.171-.013.256-.028.478-.083.873-.3.767-.849S1.325.454.854.553C.666.593.485.669.145.78.2.541.182.318.281.236A1.713,1.713,0,0,1,2.319.47C2.709.986,2.58,1.5,1.985,2.051Z" transform="translate(97.537 25.812)" fill="#fff"/>
        <path id="Trazado_192950" data-name="Trazado 192950" d="M2.593.528H.953C.9.9.85,1.221.794,1.6c.232.023.417.038.6.059a1.376,1.376,0,0,1,1.35,1.263,1.481,1.481,0,0,1-1.1,1.576,4.605,4.605,0,0,1-1.4-.066C.151,4.418.08,4.23,0,4.123a1.194,1.194,0,0,1,.4-.156c.256,0,.514.107.767.093a.9.9,0,0,0,.935-.9.853.853,0,0,0-.758-.977C1.009,2.123.661,2.117.238,2.077.3,1.524.37.953.44.381.444.339.46.268.482.263A9.955,9.955,0,0,1,1.9,0a2.385,2.385,0,0,1,.789.244Z" transform="translate(94.619 12.82)" fill="#fff"/>
        <path id="Trazado_192951" data-name="Trazado 192951" d="M.84.613,0,.98C.055.727.042.483.129.439A11.123,11.123,0,0,1,1.248,0a1.842,1.842,0,0,1,.2.55c.02,1.149.025,2.3,0,3.447,0,.167-.211.33-.323.494-.094-.159-.264-.317-.267-.478C.828,2.915.84,1.816.84.613Z" transform="translate(94.334 35.528)" fill="#fff"/>
        <path id="Trazado_192952" data-name="Trazado 192952" d="M0,.906A.893.893,0,0,1,.9,0a.888.888,0,0,1,.912.964c.022.646-.316,1.085-.843,1.1C.4,2.07.01,1.6,0,.906Z" transform="translate(20.512 15.198)" fill="#fff"/>
        <path id="Trazado_192953" data-name="Trazado 192953" d="M0,1.9,1.328,0V1.9Z" transform="translate(17.573 27.085)" fill="#fff"/>
        <path id="Trazado_192954" data-name="Trazado 192954" d="M1.805.993C1.811,1.651,1.527,2,.98,2.01A1.014,1.014,0,0,1,0,.873.911.911,0,0,1,.942,0C1.5.007,1.8.358,1.805.993Z" transform="translate(80.044 14.864)" fill="#fff"/>
        <path id="Trazado_192955" data-name="Trazado 192955" d="M0,1.938,1.339,0c0,.386,0,.658,0,.931C1.324,2.1,1.323,2.1,0,1.938Z" transform="translate(77.153 26.669)" fill="#fff"/>
      </g>
    </g>
    <g id="wqustP.tif" transform="translate(-6619.714 -1534.157)">
      <g id="Grupo_151224" data-name="Grupo 151224" transform="translate(0 0)">
        <path id="Trazado_192956" data-name="Trazado 192956" d="M4541.863-6.435V-39.58a1.283,1.283,0,0,0,.112-.266,8.51,8.51,0,0,1,8.654-7.2q49.138-.007,98.276,0a8.534,8.534,0,0,1,8.8,8.792q.007,4.971,0,9.943,0,10.334,0,20.669a8.461,8.461,0,0,1-3.012,6.7,8.806,8.806,0,0,1-6.019,2.055q-48.9-.014-97.794-.007c-.121,0-.242,0-.362,0a8.3,8.3,0,0,1-7.5-4.334A19.037,19.037,0,0,1,4541.863-6.435ZM4599.8-43.844h-17.917q-15.563,0-31.128,0c-3.375,0-5.663,2.168-5.672,5.467-.028,10.263-.01,20.527-.01,30.79a5.284,5.284,0,0,0,.729,2.821,5.482,5.482,0,0,0,5.068,2.667q48.893-.014,97.787-.007a3.386,3.386,0,0,0,.722-.018,9.3,9.3,0,0,0,2.081-.542A5.287,5.287,0,0,0,4654.5-7.85q-.021-15.124-.006-30.248c0-.241-.008-.482-.021-.723a5.154,5.154,0,0,0-1.659-3.568,5.688,5.688,0,0,0-4.148-1.463Q4624.233-43.833,4599.8-43.844Z" transform="translate(-4541.863 47.054)" fill="#fff"/>
        <path id="Trazado_192957" data-name="Trazado 192957" d="M4795.474,42.987c-7.259,0-14.519.017-21.778-.006a8.2,8.2,0,0,1-8.321-7.326q-.382-3.957-.8-7.91c-.375-3.595-.792-7.185-1.129-10.784a8.1,8.1,0,0,1,7.173-8.7A13.25,13.25,0,0,1,4772,8.192q23.829-.005,47.659,0a8.261,8.261,0,0,1,8.177,5.577,9.613,9.613,0,0,1,.134,4.814c-.844,5.476-1.687,10.953-2.451,16.441a10.405,10.405,0,0,1-1.112,4.082,8.134,8.134,0,0,1-7.459,4.156q-10.738-.015-21.476,0Zm.382-32.285q-11.853,0-23.7,0a10.513,10.513,0,0,0-1.5.1,5.623,5.623,0,0,0-4.726,5.684c.127,1.52.314,3.035.475,4.552.487,4.612,1.088,9.216,1.417,13.839a5.979,5.979,0,0,0,6.041,5.613c14.335.045,28.669.17,43,.263.281,0,.563-.012.844-.032a5.618,5.618,0,0,0,5.119-4.457c.1-.469.1-.957.167-1.432q1.274-8.547,2.561-17.091a6.421,6.421,0,0,0-.111-3.209,5.763,5.763,0,0,0-5.7-3.828Q4807.8,10.7,4795.856,10.7Z" transform="translate(-4736.653 -1.516)" fill="#fff"/>
        <path id="Trazado_192958" data-name="Trazado 192958" d="M4597.174,94.706a8.079,8.079,0,1,1-8.1-8.078A8.088,8.088,0,0,1,4597.174,94.706Zm-8.059-5.558a5.552,5.552,0,1,0,5.536,5.566A5.554,5.554,0,0,0,4589.116,89.149Z" transform="translate(-4576.287 -70.483)" fill="#fff"/>
        <path id="Trazado_192959" data-name="Trazado 192959" d="M5334.978,94.709a8.078,8.078,0,1,1,8.05,8.066A8.065,8.065,0,0,1,5334.978,94.709Zm8.044-5.56a5.552,5.552,0,1,0,5.589,5.522A5.531,5.531,0,0,0,5343.022,89.15Z" transform="translate(-5239.186 -70.484)" fill="#fff"/>
        <path id="Trazado_192960" data-name="Trazado 192960" d="M4881.7,175.927a3.2,3.2,0,1,1,3.179-3.195A3.2,3.2,0,0,1,4881.7,175.927Z" transform="translate(-4837.82 -143.366)" fill="#fff"/>
        <path id="Trazado_192961" data-name="Trazado 192961" d="M5128.388,175.929a3.2,3.2,0,1,1,3.187-3.189A3.2,3.2,0,0,1,5128.388,175.929Z" transform="translate(-5054.715 -143.367)" fill="#fff"/>
        <path id="Trazado_192962" data-name="Trazado 192962" d="M5079.092,78.238a3.2,3.2,0,1,1,3.175,3.2A3.213,3.213,0,0,1,5079.092,78.238Z" transform="translate(-5014.206 -60.276)" fill="#fff"/>
        <path id="Trazado_192963" data-name="Trazado 192963" d="M5045.4,175.928a3.2,3.2,0,0,1-.022-6.4,3.2,3.2,0,1,1,.022,6.4Z" transform="translate(-4981.76 -143.367)" fill="#fff"/>
        <path id="Trazado_192964" data-name="Trazado 192964" d="M5168.484,78.241a3.2,3.2,0,1,1-3.241-3.208A3.23,3.23,0,0,1,5168.484,78.241Z" transform="translate(-5087.167 -60.287)" fill="#fff"/>
        <path id="Trazado_192965" data-name="Trazado 192965" d="M4915.387,78.233a3.2,3.2,0,1,1,3.174,3.2A3.221,3.221,0,0,1,4915.387,78.233Z" transform="translate(-4870.273 -60.275)" fill="#fff"/>
        <path id="Trazado_192966" data-name="Trazado 192966" d="M4998.949,78.224a3.2,3.2,0,1,1-3.182-3.195A3.211,3.211,0,0,1,4998.949,78.224Z" transform="translate(-4938.109 -60.284)" fill="#fff"/>
        <path id="Trazado_192967" data-name="Trazado 192967" d="M4958.851,175.927a3.2,3.2,0,1,1,3.189-3.176A3.221,3.221,0,0,1,4958.851,175.927Z" transform="translate(-4905.655 -143.366)" fill="#fff"/>
        <path id="Trazado_192968" data-name="Trazado 192968" d="M4833.141,81.444a3.2,3.2,0,1,1,3.288-3.153A3.227,3.227,0,0,1,4833.141,81.444Z" transform="translate(-4795.207 -60.288)" fill="#fff"/>
      </g>
    </g>
    <g id="_2oHvv9.tif" data-name="2oHvv9.tif" transform="translate(-6496.011 -1534.157)">
      <g id="Grupo_151226" data-name="Grupo 151226" transform="translate(0 0)">
        <path id="Trazado_193015" data-name="Trazado 193015" d="M6132.31,145.273v37.358a15.55,15.55,0,0,1-1.2,2.8,6.046,6.046,0,0,1-5.42,2.508q-29.366-.014-58.733-.005c-.14,0-.281,0-.421,0a6.052,6.052,0,0,1-6.2-6.363c0-1.287,0-2.574,0-3.86q0-15.687,0-31.373a5.923,5.923,0,0,1,3.493-5.762,12.948,12.948,0,0,1,2.271-.635h60.449a1.891,1.891,0,0,0,.392.116,5.7,5.7,0,0,1,3.164,1.312A6.5,6.5,0,0,1,6132.31,145.273Zm-35.989-2.283q-14.8,0-29.592,0a3.049,3.049,0,0,0-3.405,3.371c-.006.8,0,1.592,0,2.387q0,16.362,0,32.723c0,2.2,1.16,3.437,3.266,3.438q29.732.01,59.465,0a3.006,3.006,0,0,0,3.263-3.228c.017-.866,0-1.732,0-2.6q0-16.291,0-32.583a3.559,3.559,0,0,0-.714-2.434,3.321,3.321,0,0,0-2.765-1.086Q6111.082,143,6096.321,142.99Z" transform="translate(-6060.332 -139.936)" fill="#fff"/>
        <path id="Trazado_193016" data-name="Trazado 193016" d="M6178.537,241.633c-4.1,0-8.2-.062-12.3.017a7.614,7.614,0,0,1-7.888-6.371c-.778-3.944-1.526-7.894-2.2-11.856a7.585,7.585,0,0,1,7.383-8.749q15-.03,30.007,0a7.574,7.574,0,0,1,7.409,8.784c-.734,4.212-1.484,8.426-2.436,12.592a7.184,7.184,0,0,1-7.256,5.58C6187.017,241.645,6182.777,241.633,6178.537,241.633Zm.093-23.979c-4.871,0-9.741-.007-14.612.009a6.217,6.217,0,0,0-1.729.211c-2.335.693-3.593,3.024-3.1,5.709q1.024,5.548,2.091,11.089a4.565,4.565,0,0,0,4.831,3.974q12.434,0,24.869,0a4.562,4.562,0,0,0,4.84-3.963c.712-3.693,1.4-7.392,2.1-11.088a4.777,4.777,0,0,0-4.958-5.966C6188.187,217.733,6183.408,217.655,6178.63,217.655Z" transform="translate(-6142.564 -204.135)" fill="#fff"/>
        <path id="Trazado_193017" data-name="Trazado 193017" d="M6109.029,292.295a2.979,2.979,0,1,1-2.97-2.984A2.95,2.95,0,0,1,6109.029,292.295Z" transform="translate(-6097.052 -268.271)" fill="#fff"/>
        <path id="Trazado_193018" data-name="Trazado 193018" d="M6492.28,292.291a2.979,2.979,0,1,1-2.974-2.98A2.95,2.95,0,0,1,6492.28,292.291Z" transform="translate(-6426.319 -268.271)" fill="#fff"/>
        <path id="Trazado_193019" data-name="Trazado 193019" d="M6276.351,301.432a1.481,1.481,0,1,1-1.441-1.5A1.5,1.5,0,0,1,6276.351,301.432Z" transform="translate(-6243.378 -277.394)" fill="#fff"/>
        <path id="Trazado_193020" data-name="Trazado 193020" d="M6402.645,299.932a1.479,1.479,0,1,1-1.506,1.437A1.5,1.5,0,0,1,6402.645,299.932Z" transform="translate(-6353.133 -277.396)" fill="#fff"/>
        <path id="Trazado_193021" data-name="Trazado 193021" d="M6255,258.887a1.5,1.5,0,0,1-1.426,1.514,1.534,1.534,0,0,1-1.535-1.492,1.5,1.5,0,0,1,1.479-1.466A1.458,1.458,0,0,1,6255,258.887Z" transform="translate(-6225.039 -240.891)" fill="#fff"/>
        <path id="Trazado_193022" data-name="Trazado 193022" d="M6294.75,258.892a1.458,1.458,0,0,1,1.477-1.449,1.5,1.5,0,0,1,1.483,1.461,1.533,1.533,0,0,1-1.529,1.5A1.5,1.5,0,0,1,6294.75,258.892Z" transform="translate(-6261.73 -240.892)" fill="#fff"/>
        <path id="Trazado_193023" data-name="Trazado 193023" d="M6381.313,257.457a1.458,1.458,0,0,1,1.449,1.477,1.5,1.5,0,0,1-1.463,1.48,1.534,1.534,0,0,1-1.5-1.529A1.5,1.5,0,0,1,6381.313,257.457Z" transform="translate(-6334.803 -240.903)" fill="#fff"/>
        <path id="Trazado_193024" data-name="Trazado 193024" d="M6253.557,345.378a1.5,1.5,0,0,1-1.506-1.435,1.533,1.533,0,0,1,1.5-1.523,1.5,1.5,0,0,1,1.458,1.486A1.459,1.459,0,0,1,6253.557,345.378Z" transform="translate(-6225.046 -313.899)" fill="#fff"/>
        <path id="Trazado_193025" data-name="Trazado 193025" d="M6296.212,345.376a1.46,1.46,0,0,1-1.467-1.459,1.5,1.5,0,0,1,1.513-1.5,1.539,1.539,0,0,1,1.448,1.509A1.5,1.5,0,0,1,6296.212,345.376Z" transform="translate(-6261.727 -313.896)" fill="#fff"/>
        <path id="Trazado_193026" data-name="Trazado 193026" d="M6382.754,343.937a1.458,1.458,0,0,1-1.479,1.448,1.5,1.5,0,0,1-1.481-1.462,1.533,1.533,0,0,1,1.53-1.5A1.5,1.5,0,0,1,6382.754,343.937Z" transform="translate(-6334.797 -313.904)" fill="#fff"/>
        <path id="Trazado_193027" data-name="Trazado 193027" d="M6210.941,257.459a1.474,1.474,0,0,1,1.507,1.428,1.483,1.483,0,1,1-2.965.053A1.485,1.485,0,0,1,6210.941,257.459Z" transform="translate(-6188.474 -240.905)" fill="#fff"/>
        <path id="Trazado_193028" data-name="Trazado 193028" d="M6338.729,257.46a1.478,1.478,0,0,1,1.487,1.449,1.483,1.483,0,1,1-2.966.01A1.479,1.479,0,0,1,6338.729,257.46Z" transform="translate(-6298.245 -240.906)" fill="#fff"/>
        <path id="Trazado_193029" data-name="Trazado 193029" d="M6230.875,301.344a1.488,1.488,0,0,1,1.489-1.451,1.482,1.482,0,1,1-.067,2.963A1.474,1.474,0,0,1,6230.875,301.344Z" transform="translate(-6206.853 -277.362)" fill="#fff"/>
        <path id="Trazado_193030" data-name="Trazado 193030" d="M6318.884,301.351a1.474,1.474,0,0,1-1.426,1.507,1.482,1.482,0,1,1-.059-2.963A1.486,1.486,0,0,1,6318.884,301.351Z" transform="translate(-6279.923 -277.365)" fill="#fff"/>
        <path id="Trazado_193031" data-name="Trazado 193031" d="M6360.028,302.926a1.474,1.474,0,1,1,.208-2.941,1.474,1.474,0,0,1-.208,2.941Z" transform="translate(-6316.626 -277.436)" fill="#fff"/>
        <path id="Trazado_193032" data-name="Trazado 193032" d="M6211.023,345.381a1.473,1.473,0,0,1-1.505-1.43,1.483,1.483,0,1,1,2.966-.049A1.484,1.484,0,0,1,6211.023,345.381Z" transform="translate(-6188.503 -313.903)" fill="#fff"/>
        <path id="Trazado_193033" data-name="Trazado 193033" d="M6338.687,345.381a1.486,1.486,0,0,1-1.457-1.483,1.483,1.483,0,1,1,2.966.058A1.475,1.475,0,0,1,6338.687,345.381Z" transform="translate(-6298.228 -313.903)" fill="#fff"/>
      </g>
    </g>
    <g id="rcJnib.tif" transform="translate(-6619.713 -1603.81)">
      <g id="Grupo_151225" data-name="Grupo 151225" transform="translate(0 0)">
        <path id="Trazado_192969" data-name="Trazado 192969" d="M4924.163,460.2v39.876c-.19.051-.14.22-.169.348a9.375,9.375,0,0,1-9.571,7.622c-39.164,0-136.221,0-175.385,0a9.381,9.381,0,0,1-9.733-9.749q0-9.292,0-18.585,0-8.972,0-17.944a9.313,9.313,0,0,1,2.337-6.4,9.6,9.6,0,0,1,7.613-3.219c39.021.014,135.936.009,174.958.009.143,0,.286,0,.429,0a9.411,9.411,0,0,1,9.334,7.479C4924.014,459.824,4923.9,460.081,4924.163,460.2Zm-2.273,39.31a1.663,1.663,0,0,0,.118-.972q.008-18.437,0-36.875a1.564,1.564,0,0,0-.112-.9,6.735,6.735,0,0,0-2.425-4.672,7.686,7.686,0,0,0-5.275-1.755c-39.013.018-135.919.013-174.932.014-.38,0-.76,0-1.141.015a7.162,7.162,0,0,0-6.559,6.4,1.389,1.389,0,0,0-.111.832q-.006,18.509,0,37.017a1.489,1.489,0,0,0,.118.9,7.1,7.1,0,0,0,6.282,6.275,1.636,1.636,0,0,0,1.005.085c.308.011.617.03.925.03,38.666,0,135.226,0,173.891,0,.309,0,.617-.02.925-.03a1.636,1.636,0,0,0,1.005-.085A7.1,7.1,0,0,0,4921.89,499.506Z" transform="translate(-4729.302 -452.148)" fill="#fff"/>
        <path id="Trazado_192970" data-name="Trazado 192970" d="M4744.407,512.417c.242.2.157.483.157.732q.005,18.64,0,37.28c0,.25.085.529-.149.736a1.481,1.481,0,0,1-.118-.9q-.008-18.509,0-37.017A1.392,1.392,0,0,1,4744.407,512.417Z" transform="translate(-4742.144 -503.807)" fill="#fff"/>
        <path id="Trazado_192972" data-name="Trazado 192972" d="M4789.179,826.489c.355-.206.7-.311,1,.085A1.639,1.639,0,0,1,4789.179,826.489Z" transform="translate(-4780.625 -772.856)" fill="#fff"/>
        <path id="Trazado_192973" data-name="Trazado 192973" d="M5621.167,826.574c.3-.4.65-.291,1.005-.085A1.637,1.637,0,0,1,5621.167,826.574Z" transform="translate(-5493.761 -772.856)" fill="#fff"/>
        <path id="Trazado_192974" data-name="Trazado 192974" d="M4827.173,517.269l2.844,0h5.716q11.045,0,22.089-.013c1.47,0,2.941-.066,4.412-.1l21.866-.028q4.706,0,9.412,0c9.51-.009,76.912-.005,86.421-.048a25.991,25.991,0,0,1,4.61.173c4.023.7,5.792,3.344,4.89,7.359-1.059,4.711-2.179,9.409-3.28,14.111-.868,3.71-1.651,7.439-2.774,11.089-1.029,3.345-3.136,5.025-7.012,5.186-.333.014-.664.025-1,.038H4973.1c-3.128-.013-64.149-.031-67.277-.037q-6.223-.012-12.444-.009c-2.66-.068-5.319-.013-7.979-.088-3.063-.086-6.13-.031-9.2-.032a1.824,1.824,0,0,0-.843.075c-7.31-.155-14.621-.089-21.932-.095-2.682-.072-5.364-.009-8.048-.087-2.991-.087-5.986-.03-8.979-.034a2.136,2.136,0,0,0-.844.087l-2.24-.123-.141-.044c-3.384-.8-5.358-3.158-6.713-6.149-1.125-2.481-1.466-5.185-2.082-7.807-1.268-5.389-2.533-10.781-3.673-16.2-.419-1.99-.256-4,1.421-5.524a6.894,6.894,0,0,1,3.826-1.563,4.7,4.7,0,0,0,.476-.116Zm6.7,34.007c2.578.032,5.155.071,7.734.092,1.275.01,2.551-.012,3.826-.02a3.336,3.336,0,0,0,1.136.009.554.554,0,0,0,.433,0l12.41.054h1.712c.094.008.188.024.283.024q11.67.049,23.342.093c.163,0,.327-.028.49-.043a3.347,3.347,0,0,0,1.137.01.556.556,0,0,0,.433,0c5.468.1,10.936.079,16.4.058,4.688.023,67.27.048,71.959.065.448,0,.9-.045,1.346-.07a.892.892,0,0,0,.584-.085l.414-.057a.287.287,0,0,0,.3-.083,2.459,2.459,0,0,0,2.083-1.89c.478-1.459.956-2.925,1.312-4.417,1.642-6.88,3.1-13.8,4.8-20.668a3.838,3.838,0,0,0-.012-2.709c-.535-.9-1.467-.95-2.354-1.093l-.427-.023a6.064,6.064,0,0,0-1.555-.1q-4.871.018-9.743.047c-2.369.014-62.632.038-65,.057l-10.985.017c-.189-.007-.379-.022-.568-.021q-12.961.032-25.922.068c-3.774.013-7.547.051-11.32.078l-10.985.017q-9.96,0-19.922,0a4.863,4.863,0,0,0-.768.122l-.283.022a2.051,2.051,0,0,0-1,.26.594.594,0,0,0-.424.176c-.99.575-.853,1.484-.714,2.393l.02.284a3.05,3.05,0,0,0,.262,1.141,2.278,2.278,0,0,0,.03.352q2.068,9.02,4.14,18.039a14.555,14.555,0,0,0,1.9,5.154,5.557,5.557,0,0,0,3.184,2.57C4833.646,551.329,4833.761,551.3,4833.873,551.276Z" transform="translate(-4807.479 -507.789)" fill="#fff"/>
        <path id="Trazado_192975" data-name="Trazado 192975" d="M5602.245,630.527a4.105,4.105,0,0,1-4.113-4.264,4.15,4.15,0,0,1,4.249-4.148,4.207,4.207,0,1,1-.136,8.412Zm-3.814-4.191a3.909,3.909,0,0,0,7.817.029,3.909,3.909,0,1,0-7.817-.029Z" transform="translate(-5415.142 -597.834)" fill="#fff"/>
        <path id="Trazado_192976" data-name="Trazado 192976" d="M4759.423,630.524a4.141,4.141,0,0,1-4.2-4.191,4.215,4.215,0,1,1,8.43.033A4.124,4.124,0,0,1,4759.423,630.524Zm-.016-.3a3.905,3.905,0,1,0-3.883-3.915A3.927,3.927,0,0,0,4759.407,630.229Z" transform="translate(-4751.518 -597.832)" fill="#fff"/>
        <path id="Trazado_192983" data-name="Trazado 192983" d="M4909.153,780.179l.142.044C4909.2,780.35,4909.17,780.288,4909.153,780.179Z" transform="translate(-4883.46 -733.318)" fill="#fff"/>
        <path id="Trazado_192988" data-name="Trazado 192988" d="M5284.609,756.848c.127-.3.4-.2.618-.2q7.573-.007,15.144,0c.236,0,.549-.12.643.259C5295.545,756.928,5290.077,756.943,5284.609,756.848Z" transform="translate(-5205.282 -713.132)" fill="#fff"/>
        <path id="Trazado_192989" data-name="Trazado 192989" d="M5005.96,755.845c.127-.3.4-.2.617-.2q5.575-.008,11.149,0c.235,0,.547-.121.644.256Z" transform="translate(-4966.438 -712.272)" fill="#fff"/>
        <path id="Trazado_192994" data-name="Trazado 192994" d="M4994.975,755.667a.794.794,0,0,1,1.136.01A3.339,3.339,0,0,1,4994.975,755.667Z" transform="translate(-4957.022 -712.107)" fill="#fff"/>
        <path id="Trazado_192995" data-name="Trazado 192995" d="M5096.839,755.736a.687.687,0,0,1,1.139,0Z" transform="translate(-5044.334 -712.108)" fill="#fff"/>
        <path id="Trazado_192996" data-name="Trazado 192996" d="M5273.623,756.664a.8.8,0,0,1,1.137.01A3.346,3.346,0,0,1,5273.623,756.664Z" transform="translate(-5195.864 -712.961)" fill="#fff"/>
        <path id="Trazado_192997" data-name="Trazado 192997" d="M5507.324,756.9c.142-.386.353-.311.584-.085A.893.893,0,0,1,5507.324,756.9Z" transform="translate(-5396.18 -713.132)" fill="#fff"/>
        <path id="Trazado_192998" data-name="Trazado 192998" d="M4911.894,755.188c.159-.243.253-.18.308.065C4912.09,755.275,4911.977,755.305,4911.894,755.188Z" transform="translate(-4885.81 -711.765)" fill="#fff"/>
        <path id="Trazado_192999" data-name="Trazado 192999" d="M5514.314,756.239c.049-.213.127-.319.3-.083A.287.287,0,0,1,5514.314,756.239Z" transform="translate(-5402.171 -712.612)" fill="#fff"/>
        <path id="Trazado_193000" data-name="Trazado 193000" d="M5189.141,665.927a3.66,3.66,0,1,1-3.684-3.65A3.69,3.69,0,0,1,5189.141,665.927Z" transform="translate(-5117.177 -632.259)" fill="#fff"/>
        <path id="Trazado_193001" data-name="Trazado 193001" d="M5025.877,665.941a3.659,3.659,0,1,1-3.7-3.648A3.719,3.719,0,0,1,5025.877,665.941Z" transform="translate(-4977.238 -632.272)" fill="#fff"/>
        <path id="Trazado_193002" data-name="Trazado 193002" d="M4988.588,593.063a3.643,3.643,0,1,1-3.675,3.631A3.627,3.627,0,0,1,4988.588,593.063Z" transform="translate(-4948.398 -572.932)" fill="#fff"/>
        <path id="Trazado_193003" data-name="Trazado 193003" d="M5350.961,665.838a3.674,3.674,0,0,1-3.565,3.758,3.662,3.662,0,1,1,3.565-3.758Z" transform="translate(-5255.884 -632.254)" fill="#fff"/>
        <path id="Trazado_193039" data-name="Trazado 193039" d="M5350.961,665.838a3.674,3.674,0,0,1-3.565,3.758,3.662,3.662,0,1,1,3.565-3.758Z" transform="translate(-5222.085 -632.254)" fill="#fff"/>
        <path id="Trazado_193044" data-name="Trazado 193044" d="M5350.961,665.838a3.674,3.674,0,0,1-3.565,3.758,3.662,3.662,0,1,1,3.565-3.758Z" transform="translate(-5186.045 -632.254)" fill="#fff"/>
        <path id="Trazado_193004" data-name="Trazado 193004" d="M5109.151,665.923a3.652,3.652,0,1,1-3.679-3.647A3.675,3.675,0,0,1,5109.151,665.923Z" transform="translate(-5048.626 -632.258)" fill="#fff"/>
        <path id="Trazado_193005" data-name="Trazado 193005" d="M5146.406,593.062a3.643,3.643,0,1,1-3.675,3.633A3.627,3.627,0,0,1,5146.406,593.062Z" transform="translate(-5083.671 -572.931)" fill="#fff"/>
        <path id="Trazado_193006" data-name="Trazado 193006" d="M5260.458,665.936a3.649,3.649,0,1,1,3.655,3.67A3.676,3.676,0,0,1,5260.458,665.936Z" transform="translate(-5184.58 -632.259)" fill="#fff"/>
        <path id="Trazado_193042" data-name="Trazado 193042" d="M5260.458,665.936a3.649,3.649,0,1,1,3.655,3.67A3.676,3.676,0,0,1,5260.458,665.936Z" transform="translate(-5150.782 -632.259)" fill="#fff"/>
        <path id="Trazado_193048" data-name="Trazado 193048" d="M5260.458,665.936a3.649,3.649,0,1,1,3.655,3.67A3.676,3.676,0,0,1,5260.458,665.936Z" transform="translate(-5114.742 -632.259)" fill="#fff"/>
        <path id="Trazado_193007" data-name="Trazado 193007" d="M4951.344,665.929a3.65,3.65,0,1,1-3.675-3.65A3.676,3.676,0,0,1,4951.344,665.929Z" transform="translate(-4913.367 -632.261)" fill="#fff"/>
        <path id="Trazado_193008" data-name="Trazado 193008" d="M5230,596.687a3.653,3.653,0,1,1-3.669-3.633A3.648,3.648,0,0,1,5230,596.687Z" transform="translate(-5152.208 -572.925)" fill="#fff"/>
        <path id="Trazado_193009" data-name="Trazado 193009" d="M5388.131,593.057a3.643,3.643,0,1,1,.028,7.287,3.643,3.643,0,0,1-.028-7.287Z" transform="translate(-5290.904 -572.928)" fill="#fff"/>
        <path id="Trazado_193040" data-name="Trazado 193040" d="M5388.131,593.057a3.643,3.643,0,1,1,.028,7.287,3.643,3.643,0,0,1-.028-7.287Z" transform="translate(-5257.106 -572.928)" fill="#fff"/>
        <path id="Trazado_193043" data-name="Trazado 193043" d="M5388.131,593.057a3.643,3.643,0,1,1,.028,7.287,3.643,3.643,0,0,1-.028-7.287Z" transform="translate(-5221.066 -572.928)" fill="#fff"/>
        <path id="Trazado_193010" data-name="Trazado 193010" d="M5062.951,593.067a3.642,3.642,0,1,1-3.694,3.628A3.675,3.675,0,0,1,5062.951,593.067Z" transform="translate(-5012.121 -572.936)" fill="#fff"/>
        <path id="Trazado_193011" data-name="Trazado 193011" d="M5468.167,593.069a3.642,3.642,0,1,1-.083,7.284,3.642,3.642,0,1,1,.083-7.284Z" transform="translate(-5359.452 -572.937)" fill="#fff"/>
        <path id="Trazado_193037" data-name="Trazado 193037" d="M5468.167,593.069a3.642,3.642,0,1,1-.083,7.284,3.642,3.642,0,1,1,.083-7.284Z" transform="translate(-5325.654 -572.937)" fill="#fff"/>
        <path id="Trazado_193012" data-name="Trazado 193012" d="M4906.278,593.064a3.643,3.643,0,1,1-3.671,3.643A3.672,3.672,0,0,1,4906.278,593.064Z" transform="translate(-4877.85 -572.933)" fill="#fff"/>
        <path id="Trazado_193013" data-name="Trazado 193013" d="M5304.849,593.071a3.642,3.642,0,1,1-3.613,3.689A3.627,3.627,0,0,1,5304.849,593.071Z" transform="translate(-5219.533 -572.94)" fill="#fff"/>
        <path id="Trazado_193041" data-name="Trazado 193041" d="M5304.849,593.071a3.642,3.642,0,1,1-3.613,3.689A3.627,3.627,0,0,1,5304.849,593.071Z" transform="translate(-5185.734 -572.94)" fill="#fff"/>
        <path id="Trazado_193047" data-name="Trazado 193047" d="M5304.849,593.071a3.642,3.642,0,1,1-3.613,3.689A3.627,3.627,0,0,1,5304.849,593.071Z" transform="translate(-5149.694 -572.94)" fill="#fff"/>
        <path id="Trazado_193014" data-name="Trazado 193014" d="M5427.312,669.612a3.662,3.662,0,1,1,3.676-3.67A3.729,3.729,0,0,1,5427.312,669.612Z" transform="translate(-5324.458 -632.267)" fill="#fff"/>
        <path id="Trazado_193038" data-name="Trazado 193038" d="M5427.312,669.612a3.662,3.662,0,1,1,3.676-3.67A3.729,3.729,0,0,1,5427.312,669.612Z" transform="translate(-5290.66 -632.267)" fill="#fff"/>
      </g>
    </g>
    <g id="L6Getv.tif" transform="translate(-6378.086 -1534.111)">
      <g id="Grupo_151227" data-name="Grupo 151227">
        <path id="Trazado_193035" data-name="Trazado 193035" d="M6269.823,679.254c6.918,0,13.837.01,20.755-.006a4.184,4.184,0,0,1,4.151,2.368,4.922,4.922,0,0,1,.457,2.03c.039,4.576.03,9.153.016,13.729a4.2,4.2,0,0,1-4.293,4.383c-1.366.036-2.733.008-4.1.009q-18.837,0-37.677.008a4.47,4.47,0,0,1-3.782-1.636,4.226,4.226,0,0,1-.908-2.7c-.005-4.621-.021-9.241,0-13.861a4.217,4.217,0,0,1,4.554-4.323q8.031-.015,16.063,0Zm-.068,19.706h20.68c1.49,0,1.959-.474,1.961-1.982q0-6.466,0-12.931c0-1.509-.471-1.986-1.958-1.986h-41.225c-1.491,0-1.96.474-1.96,1.982q0,6.465,0,12.931c0,1.529.467,1.986,2.023,1.986Z" transform="translate(-6244.434 -679.248)" fill="#fff"/>
        <path id="Trazado_193036" data-name="Trazado 193036" d="M6306.863,721.673q8.884,0,17.77.009a3.23,3.23,0,0,1,1.211.22,1.239,1.239,0,0,1,.718,1.239c0,1.847.021,3.695-.006,5.541a1.35,1.35,0,0,1-1.472,1.43c-1.188.028-2.378.018-3.566,0-.369,0-.583.043-.7.481a1.365,1.365,0,0,1-2.588-.022c-.105-.4-.3-.461-.647-.459q-2.279.018-4.558,0c-.34,0-.553.033-.657.446a1.244,1.244,0,0,1-1.276.953,1.262,1.262,0,0,1-1.331-.97c-.1-.369-.278-.431-.6-.428-1.542.011-3.083.014-4.625,0a.54.54,0,0,0-.632.477,1.368,1.368,0,0,1-2.593-.012c-.107-.393-.288-.468-.643-.464-1.519.014-3.039.011-4.558,0-.336,0-.557.025-.66.442a1.243,1.243,0,0,1-1.274.956,1.264,1.264,0,0,1-1.334-.965c-.1-.364-.269-.438-.6-.434q-1.718.02-3.435,0c-1.185-.011-1.689-.508-1.7-1.684q-.017-2.507,0-5.014c.007-1.252.533-1.747,1.853-1.748Q6297.911,721.669,6306.863,721.673Zm-16.926,5.6h33.779v-2.711h-33.779Z" transform="translate(-6281.449 -716.053)" fill="#fff"/>
      </g>
    </g>
    <g id="L6Getv.tif-2" data-name="L6Getv.tif" transform="translate(-6378.086 -1508.527)">
      <g id="Grupo_151227-2" data-name="Grupo 151227" transform="translate(0 0)">
        <path id="Trazado_193035-2" data-name="Trazado 193035" d="M6269.823,679.254c6.918,0,13.837.01,20.755-.006a4.184,4.184,0,0,1,4.151,2.368,4.922,4.922,0,0,1,.457,2.03c.039,4.576.03,9.153.016,13.729a4.2,4.2,0,0,1-4.293,4.383c-1.366.036-2.733.008-4.1.009q-18.837,0-37.677.008a4.47,4.47,0,0,1-3.782-1.636,4.226,4.226,0,0,1-.908-2.7c-.005-4.621-.021-9.241,0-13.861a4.217,4.217,0,0,1,4.554-4.323q8.031-.015,16.063,0Zm-.068,19.706h20.68c1.49,0,1.959-.474,1.961-1.982q0-6.466,0-12.931c0-1.509-.471-1.986-1.958-1.986h-41.225c-1.491,0-1.96.474-1.96,1.982q0,6.465,0,12.931c0,1.529.467,1.986,2.023,1.986Z" transform="translate(-6244.434 -679.248)" fill="#fff"/>
        <path id="Trazado_193036-2" data-name="Trazado 193036" d="M6306.863,721.673q8.884,0,17.77.009a3.23,3.23,0,0,1,1.211.22,1.239,1.239,0,0,1,.718,1.239c0,1.847.021,3.695-.006,5.541a1.35,1.35,0,0,1-1.472,1.43c-1.188.028-2.378.018-3.566,0-.369,0-.583.043-.7.481a1.365,1.365,0,0,1-2.588-.022c-.105-.4-.3-.461-.647-.459q-2.279.018-4.558,0c-.34,0-.553.033-.657.446a1.244,1.244,0,0,1-1.276.953,1.262,1.262,0,0,1-1.331-.97c-.1-.369-.278-.431-.6-.428-1.542.011-3.083.014-4.625,0a.54.54,0,0,0-.632.477,1.368,1.368,0,0,1-2.593-.012c-.107-.393-.288-.468-.643-.464-1.519.014-3.039.011-4.558,0-.336,0-.557.025-.66.442a1.243,1.243,0,0,1-1.274.956,1.264,1.264,0,0,1-1.334-.965c-.1-.364-.269-.438-.6-.434q-1.718.02-3.435,0c-1.185-.011-1.689-.508-1.7-1.684q-.017-2.507,0-5.014c.007-1.252.533-1.747,1.853-1.748Q6297.911,721.669,6306.863,721.673Zm-16.926,5.6h33.779v-2.711h-33.779Z" transform="translate(-6281.449 -716.053)" fill="#fff"/>
      </g>
    </g>
    <g id="FVuvf5" transform="translate(-6378.085 -1593.836)">
      <g id="Grupo_151212" data-name="Grupo 151212" transform="translate(0 0)">
        <path id="Trazado_192912" data-name="Trazado 192912" d="M4059.773-587.466h-50.781v-50.783h50.781Zm-2.9-2.927c0-.393,0-.689,0-.985q0-5.252-.007-10.505,0-16.3.021-32.6c0-.646-.12-.9-.842-.9q-21.677.031-43.357,0c-.653,0-.826.185-.826.833q.027,21.634.017,43.268c0,.289.027.577.042.883Z" transform="translate(-4008.993 638.249)" fill="#fff"/>
        <path id="Trazado_192913" data-name="Trazado 192913" d="M4063.988-517.529v-23.958h5.938v-5.941h20.85v5.91h5.916v23.99Zm2.944-11.9h26.823v-9.152h-5.963v-5.893h-14.935v5.926h-5.924Zm.006,3v6.012c.89,0,1.706.028,2.518-.023a.684.684,0,0,0,.457-.484q.071-2.5.041-5a.679.679,0,0,0-.457-.481C4068.662-526.46,4067.822-526.433,4066.938-526.433Zm20.848,5.963v-5.9h-2.947v5.9Zm3.042-5.938v5.932h2.936v-5.932Zm-17.953-.041c0,1.914-.011,3.71.015,5.506,0,.176.222.492.353.5.86.045,1.722.023,2.646.023,0-1.944.012-3.766-.023-5.587,0-.15-.328-.41-.516-.421C4074.568-526.477,4073.781-526.449,4072.875-526.449Zm5.937,5.956h2.992v-5.939c-.887,0-1.724-.023-2.557.021a.62.62,0,0,0-.416.437C4078.8-524.157,4078.812-522.338,4078.812-520.493Z" transform="translate(-4054.489 562.344)" fill="#fff"/>
        <path id="Trazado_192914" data-name="Trazado 192914" d="M4121.265-601.773v2.812h-20.756v-2.812Z" transform="translate(-4085.012 607.764)" fill="#fff"/>
      </g>
    </g>
    <circle id="Elipse_5017" data-name="Elipse 5017" cx="8.831" cy="8.831" r="8.831" transform="translate(-6303.755 -1512.631)" fill="#fff"/>
    <circle id="Elipse_5018" data-name="Elipse 5018" cx="8.831" cy="8.831" r="8.831" transform="translate(-6303.755 -1548.937)" fill="#fff"/>
    <circle id="Elipse_5019" data-name="Elipse 5019" cx="8.831" cy="8.831" r="8.831" transform="translate(-6303.755 -1583.281)" fill="#fff"/>
    <g id="Elipse_5020" data-name="Elipse 5020" transform="translate(-6306.698 -1515.575)" fill="none" stroke="#fff" stroke-width="1">
      <circle cx="11.775" cy="11.775" r="11.775" stroke="none"/>
      <circle cx="11.775" cy="11.775" r="11.275" fill="none"/>
    </g>
    <g id="Elipse_5021" data-name="Elipse 5021" transform="translate(-6306.698 -1551.881)" fill="none" stroke="#fff" stroke-width="1">
      <circle cx="11.775" cy="11.775" r="11.775" stroke="none"/>
      <circle cx="11.775" cy="11.775" r="11.275" fill="none"/>
    </g>
    <g id="Elipse_5022" data-name="Elipse 5022" transform="translate(-6306.698 -1586.224)" fill="none" stroke="#fff" stroke-width="1">
      <circle cx="11.775" cy="11.775" r="11.775" stroke="none"/>
      <circle cx="11.775" cy="11.775" r="11.275" fill="none"/>
    </g>
    <text id="Puerto_PS2" data-name="Puerto PS2" transform="translate(-6678.249 -1643.653)" fill="#fff" font-size="14" font-family="Roboto-Regular, Roboto"><tspan x="-34.966" y="0">Puerto PS2</tspan></text>
    <text id="Puerto_serie" data-name="Puerto serie" transform="translate(-6563.043 -1437.287)" fill="#fff" font-size="14" font-family="Roboto-Regular, Roboto"><tspan x="-37.56" y="0">Puerto serie</tspan></text>
    <text id="Puerto_de_video" data-name="Puerto de video" transform="translate(-6462.048 -1437.287)" fill="#fff" font-size="14" font-family="Roboto-Regular, Roboto"><tspan x="-48.593" y="0">Puerto de video</tspan></text>
    <text id="Puertos_USB" data-name="Puertos USB" transform="translate(-6351.862 -1437.287)" fill="#fff" font-size="14" font-family="Roboto-Regular, Roboto"><tspan x="-39.125" y="0">Puertos USB</tspan></text>
    <text id="Conectores_altavoz_y_microfono" data-name="Conectores
altavoz y
microfono" transform="translate(-6236.584 -1554.546)" fill="#fff" font-size="14" font-family="Roboto-Regular, Roboto"><tspan x="0" y="0">Conectores</tspan><tspan x="0" y="15">altavoz y</tspan><tspan x="0" y="30">microfono</tspan></text>
    <text id="Puerto_paralelo" data-name="Puerto paralelo" transform="translate(-6521.663 -1643.653)" fill="#fff" font-size="14" font-family="Roboto-Regular, Roboto"><tspan x="-47.339" y="0">Puerto paralelo</tspan></text>
    <text id="Conector_de_red" data-name="Conector de red" transform="translate(-6355.804 -1643.653)" fill="#fff" font-size="14" font-family="Roboto-Regular, Roboto"><tspan x="-49.509" y="0">Conector de red</tspan></text>
    <path id="Trazado_193034" data-name="Trazado 193034" d="M-6681.568-872.937v-23.672" transform="translate(4.384 -738.294)" fill="none" stroke="#fff" stroke-width="2"/>
    <path id="Trazado_193035-3" data-name="Trazado 193035" d="M0,23.672V0" transform="translate(-6561.793 -1450.573) rotate(180)" fill="none" stroke="#fff" stroke-width="2"/>
    <path id="Trazado_193036-3" data-name="Trazado 193036" d="M0,23.672V0" transform="translate(-6460.023 -1450.573) rotate(180)" fill="none" stroke="#fff" stroke-width="2"/>
    <path id="Trazado_193037-2" data-name="Trazado 193037" d="M0,23.672V0" transform="translate(-6349.651 -1450.573) rotate(180)" fill="none" stroke="#fff" stroke-width="2"/>
    <path id="Trazado_193038-2" data-name="Trazado 193038" d="M0,23.672V0" transform="translate(-6245.71 -1543.05) rotate(90)" fill="none" stroke="#fff" stroke-width="2"/>
    <path id="Trazado_193039-2" data-name="Trazado 193039" d="M-6681.568-872.937v-23.672" transform="translate(162.686 -738.294)" fill="none" stroke="#fff" stroke-width="2"/>
    <path id="Trazado_193040-2" data-name="Trazado 193040" d="M-6681.568-872.937v-23.672" transform="translate(328.873 -738.294)" fill="none" stroke="#fff" stroke-width="2"/>
    <path id="Trazado_193041-2" data-name="Trazado 193041" d="M-6715.321-858.9v-7.334h69.1v7.334" transform="translate(4.035 -744.751)" fill="none" stroke="#fff" stroke-width="2"/>
    <path id="Trazado_193042-2" data-name="Trazado 193042" d="M0,7.334V0H115.841V7.334" transform="translate(-6503.873 -1474.495) rotate(180)" fill="none" stroke="#fff" stroke-width="2"/>
    <path id="Trazado_193043-2" data-name="Trazado 193043" d="M0,7.334V0H71.979V7.334" transform="translate(-6424.034 -1474.495) rotate(180)" fill="none" stroke="#fff" stroke-width="2"/>
    <path id="Trazado_193044-2" data-name="Trazado 193044" d="M0,7.334V0H58.054V7.334" transform="translate(-6320.623 -1474.495) rotate(180)" fill="none" stroke="#fff" stroke-width="2"/>
    <path id="Trazado_193045" data-name="Trazado 193045" d="M0,7.334V0H99.958V7.334" transform="translate(-6269.632 -1589.818) rotate(90)" fill="none" stroke="#fff" stroke-width="2"/>
    <path id="Trazado_193046" data-name="Trazado 193046" d="M-6715.322-858.9v-7.334h203.855v7.334" transform="translate(90.385 -744.751)" fill="none" stroke="#fff" stroke-width="2"/>
    <path id="Trazado_193047-2" data-name="Trazado 193047" d="M-6715.322-858.9v-7.334h63.472v7.334" transform="translate(331.227 -744.751)" fill="none" stroke="#fff" stroke-width="2"/>
  </g>
</svg>
