<svg xmlns="http://www.w3.org/2000/svg" xmlns:xlink="http://www.w3.org/1999/xlink" width="477.9" height="178.707" viewBox="0 0 477.9 178.707">
  <defs>
    <linearGradient id="linear-gradient" y1="0.5" x2="1" y2="0.5" gradientUnits="objectBoundingBox">
      <stop offset="0" stop-color="#fff"/>
      <stop offset="1" stop-color="#c7e0ea"/>
    </linearGradient>
    <linearGradient id="linear-gradient-2" y1="0.5" x2="1" y2="0.5" gradientUnits="objectBoundingBox">
      <stop offset="0" stop-color="#fff"/>
      <stop offset="1" stop-color="#d2e6ee"/>
    </linearGradient>
  </defs>
  <g id="Grupo_1077900" data-name="Grupo 1077900" transform="translate(5785 3414.344)">
    <g id="Grupo_1077899" data-name="Grupo 1077899">
      <path id="Trazado_119463" data-name="Trazado 119463" d="M329.828,463.733l-34.092,19.683v47.461l34.092-19.683Z" transform="translate(-6060.987 -3838.055)" fill="#104769"/>
      <path id="Trazado_119464" data-name="Trazado 119464" d="M275.1,471.573,309.189,451.8l14.353,8.3L289.45,479.781Z" transform="translate(-6054.702 -3834.421)" fill="#e2f0f4"/>
      <path id="Trazado_119465" data-name="Trazado 119465" d="M301.353,539.944l38.39,22.542V520.5l-38.39-22.542Z" transform="translate(-6062.698 -3848.477)" fill="#e2f0f4"/>
      <path id="Trazado_119466" data-name="Trazado 119466" d="M303.176,502.072l35.3,20.789v35.9l-35.3-20.789Z" transform="translate(-6063.253 -3849.731)" fill="#001a2e"/>
      <path id="Trazado_119467" data-name="Trazado 119467" d="M361.1,525.919l-4.545,3.013V571l4.545-3.013Z" transform="translate(-6079.508 -3856.993)" fill="#001a2e"/>
      <path id="Trazado_119468" data-name="Trazado 119468" d="M301.353,496.6l4.545-3.094,38.39,22.542-4.545,3.013Z" transform="translate(-6062.698 -3847.122)" fill="#104769"/>
      <path id="Trazado_119469" data-name="Trazado 119469" d="M267.34,575.468l17.89-13.043,38.39,22.542-17.89,12.962Z" transform="translate(-6052.34 -3868.11)" fill="#104769"/>
      <path id="Trazado_119470" data-name="Trazado 119470" d="M294.872,570.216l19.738,11.6,1.628-1.147-19.752-11.586Z" transform="translate(-6060.725 -3870.139)" fill="#e2f0f4"/>
      <path id="Trazado_119471" data-name="Trazado 119471" d="M312.121,583.766l1-.706-19.771-11.583-.975.683Z" transform="translate(-6059.964 -3870.867)" fill="#e2f0f4"/>
      <path id="Trazado_119472" data-name="Trazado 119472" d="M313.61,602.726l-1.983-1.162-1.436,1.006,1.99,1.163Z" transform="translate(-6065.39 -3880.03)" fill="#e2f0f4"/>
      <path id="Trazado_119473" data-name="Trazado 119473" d="M329.911,588.7l-1.637,1.146,1.941,1.141,1.633-1.151Z" transform="translate(-6070.896 -3876.111)" fill="#e2f0f4"/>
      <path id="Trazado_119474" data-name="Trazado 119474" d="M324.372,587.55l1.939,1.14,1.63-1.149-1.935-1.135Z" transform="translate(-6069.708 -3875.414)" fill="#e2f0f4"/>
      <path id="Trazado_119475" data-name="Trazado 119475" d="M326.789,591.075l-1.011.708,1.947,1.145,1.01-.712Z" transform="translate(-6070.136 -3876.835)" fill="#e2f0f4"/>
      <path id="Trazado_119477" data-name="Trazado 119477" d="M299.671,592.524l1-.706-19.8-11.6-.975.683Z" transform="translate(-6056.164 -3873.529)" fill="#e2f0f4"/>
      <path id="Trazado_119478" data-name="Trazado 119478" d="M307.141,587.269l1-.706-19.783-11.59-.975.683Z" transform="translate(-6058.444 -3871.932)" fill="#e2f0f4"/>
      <path id="Trazado_119479" data-name="Trazado 119479" d="M309.7,600.434l-1.98-1.16-1.44,1.008,1.988,1.161Z" transform="translate(-6064.198 -3879.332)" fill="#e2f0f4"/>
      <path id="Trazado_119480" data-name="Trazado 119480" d="M304.651,589.021l1-.706-19.789-11.594-.975.683Z" transform="translate(-6057.684 -3872.464)" fill="#e2f0f4"/>
      <path id="Trazado_119481" data-name="Trazado 119481" d="M302.161,590.772l1-.706-19.795-11.6-.975.683Z" transform="translate(-6056.924 -3872.996)" fill="#e2f0f4"/>
      <path id="Trazado_119482" data-name="Trazado 119482" d="M309.631,585.518l1-.706-19.777-11.587-.975.683Z" transform="translate(-6059.204 -3871.399)" fill="#e2f0f4"/>
      <path id="Trazado_119483" data-name="Trazado 119483" d="M318.841,594.137l1.006-.709-1.956-1.146-1.007.7Z" transform="translate(-6067.428 -3877.203)" fill="#e2f0f4"/>
      <path id="Trazado_119484" data-name="Trazado 119484" d="M316.351,595.889l1.006-.709-1.962-1.15-1.006.7Z" transform="translate(-6066.667 -3877.735)" fill="#e2f0f4"/>
      <path id="Trazado_119485" data-name="Trazado 119485" d="M324.293,592.823l-1.011.708,1.953,1.148,1.01-.712Z" transform="translate(-6069.376 -3877.368)" fill="#e2f0f4"/>
      <path id="Trazado_119486" data-name="Trazado 119486" d="M321.331,592.385l1.006-.709-1.95-1.143-1.007.705Z" transform="translate(-6068.188 -3876.671)" fill="#e2f0f4"/>
      <path id="Trazado_119487" data-name="Trazado 119487" d="M322.883,588.786l-1.007.705,1.945,1.143,1.006-.709Z" transform="translate(-6068.948 -3876.138)" fill="#e2f0f4"/>
      <path id="Trazado_119488" data-name="Trazado 119488" d="M313.861,597.64l1.006-.709-1.968-1.153-1.006.7Z" transform="translate(-6065.908 -3878.268)" fill="#e2f0f4"/>
      <path id="Trazado_119489" data-name="Trazado 119489" d="M321.8,594.572l-1.011.708,1.959,1.152,1.01-.712Z" transform="translate(-6068.616 -3877.9)" fill="#e2f0f4"/>
      <path id="Trazado_119490" data-name="Trazado 119490" d="M311.371,599.392l1.006-.709-1.974-1.157-1.006.7Z" transform="translate(-6065.147 -3878.8)" fill="#e2f0f4"/>
      <path id="Trazado_119491" data-name="Trazado 119491" d="M319.3,596.32l-1.011.708,1.965,1.155,1.01-.712Z" transform="translate(-6067.856 -3878.433)" fill="#e2f0f4"/>
      <path id="Trazado_119492" data-name="Trazado 119492" d="M316.805,598.068l-1.011.708,1.971,1.159,1.01-.712Z" transform="translate(-6067.096 -3878.965)" fill="#e2f0f4"/>
      <path id="Trazado_119493" data-name="Trazado 119493" d="M316.286,600.974l-1.977-1.158-1.01.708,1.977,1.162Z" transform="translate(-6066.336 -3879.497)" fill="#e2f0f4"/>
      <path id="Trazado_119495" data-name="Trazado 119495" d="M318.018,607.144l2.6,1.52,1.433-.994-2.606-1.527Z" transform="translate(-6067.773 -3881.424)" fill="#e2f0f4"/>
      <path id="Trazado_119496" data-name="Trazado 119496" d="M321.1,605.109l2.606,1.532,1.028-.713-2.615-1.532Z" transform="translate(-6068.713 -3880.892)" fill="#e2f0f4"/>
      <path id="Trazado_119499" data-name="Trazado 119499" d="M323.6,603.361l2.615,1.537,1.028-.713-2.625-1.538Z" transform="translate(-6069.473 -3880.359)" fill="#e2f0f4"/>
      <path id="Trazado_119500" data-name="Trazado 119500" d="M328.592,599.865l2.634,1.548,1.029-.713-2.644-1.549Z" transform="translate(-6070.993 -3879.295)" fill="#e2f0f4"/>
      <path id="Trazado_119501" data-name="Trazado 119501" d="M326.1,601.613l2.625,1.543,1.029-.713-2.634-1.543Z" transform="translate(-6070.233 -3879.827)" fill="#e2f0f4"/>
      <path id="Trazado_119502" data-name="Trazado 119502" d="M333.583,596.369l2.653,1.559,1.029-.713-2.662-1.56Z" transform="translate(-6072.513 -3878.23)" fill="#e2f0f4"/>
      <path id="Trazado_119503" data-name="Trazado 119503" d="M336.079,594.43l2.662,1.565,1.654-1.147-2.674-1.568Z" transform="translate(-6073.273 -3877.507)" fill="#e2f0f4"/>
      <path id="Trazado_119504" data-name="Trazado 119504" d="M331.087,598.117l2.643,1.554,1.029-.713-2.653-1.554Z" transform="translate(-6071.753 -3878.763)" fill="#e2f0f4"/>
      <path id="Trazado_119506" data-name="Trazado 119506" d="M328.2,595.113l-1.015.711,1.956,1.15,1.014-.715Z" transform="translate(-6070.565 -3878.065)" fill="#e2f0f4"/>
      <path id="Trazado_119507" data-name="Trazado 119507" d="M325.7,596.861l-1.015.711,1.962,1.153,1.014-.715Z" transform="translate(-6069.805 -3878.598)" fill="#e2f0f4"/>
      <path id="Trazado_119508" data-name="Trazado 119508" d="M323.208,598.609l-1.015.711,1.967,1.156,1.014-.715Z" transform="translate(-6069.044 -3879.13)" fill="#e2f0f4"/>
      <path id="Trazado_119510" data-name="Trazado 119510" d="M318.216,602.106l-1.015.711,1.979,1.163,1.014-.715Z" transform="translate(-6067.524 -3880.195)" fill="#e2f0f4"/>
      <path id="Trazado_119511" data-name="Trazado 119511" d="M317.522,605.017l-1.985-1.163-1.433,1,1.992,1.164Z" transform="translate(-6066.581 -3880.727)" fill="#e2f0f4"/>
      <path id="Trazado_119512" data-name="Trazado 119512" d="M320.712,600.357l-1.015.711,1.973,1.16,1.014-.715Z" transform="translate(-6068.285 -3879.662)" fill="#e2f0f4"/>
      <path id="Trazado_119515" data-name="Trazado 119515" d="M330.7,593.365l-1.015.711,1.95,1.146,1.015-.715Z" transform="translate(-6071.325 -3877.533)" fill="#e2f0f4"/>
      <path id="Trazado_119517" data-name="Trazado 119517" d="M333.816,590.988l-1.639,1.148,1.944,1.143,1.636-1.153Z" transform="translate(-6072.085 -3876.809)" fill="#e2f0f4"/>
      <path id="Trazado_119461" data-name="Trazado 119461" d="M275.1,527.6l14.353,8.3v-47.37l-14.353-8.3Z" transform="translate(-5646.222 -3843.08)" fill="#001a2e"/>
      <path id="Trazado_119462" data-name="Trazado 119462" d="M277.155,484.877l10.873,6.322v2.726L277.155,487.6Zm0,6.763,10.873,6.322v-2.726l-10.873-6.322Zm0,4.037L288.028,502v-2.726l-10.873-6.322Zm0,4.037,10.873,6.323V503.31l-10.873-6.322Zm0,27.7,10.873,6.323v-2.726l-10.873-6.322Z" transform="translate(-5646.849 -3844.494)" fill="url(#linear-gradient)"/>
      <path id="Trazado_119463-2" data-name="Trazado 119463" d="M329.828,463.733l-34.092,19.683v47.461l34.092-19.683Z" transform="translate(-5652.507 -3838.055)" fill="#104769"/>
      <path id="Trazado_119464-2" data-name="Trazado 119464" d="M275.1,471.573,309.189,451.8l14.353,8.3L289.45,479.781Z" transform="translate(-5646.222 -3834.421)" fill="#e2f0f4"/>
      <path id="Trazado_119465-2" data-name="Trazado 119465" d="M301.353,539.944l38.39,22.542V520.5l-38.39-22.542Z" transform="translate(-5654.217 -3848.477)" fill="#e2f0f4"/>
      <path id="Trazado_119466-2" data-name="Trazado 119466" d="M303.176,502.072l35.3,20.789v35.9l-35.3-20.789Z" transform="translate(-5654.772 -3849.731)" fill="#001a2e"/>
      <path id="Trazado_119467-2" data-name="Trazado 119467" d="M361.1,525.919l-4.545,3.013V571l4.545-3.013Z" transform="translate(-5671.028 -3856.993)" fill="#001a2e"/>
      <path id="Trazado_119468-2" data-name="Trazado 119468" d="M301.353,496.6l4.545-3.094,38.39,22.542-4.545,3.013Z" transform="translate(-5654.217 -3847.122)" fill="#104769"/>
      <path id="Trazado_119469-2" data-name="Trazado 119469" d="M267.34,575.468l17.89-13.043,38.39,22.542-17.89,12.962Z" transform="translate(-5643.859 -3868.11)" fill="#104769"/>
      <path id="Trazado_119470-2" data-name="Trazado 119470" d="M294.872,570.216l19.738,11.6,1.628-1.147-19.752-11.586Z" transform="translate(-5652.244 -3870.139)" fill="#e2f0f4"/>
      <path id="Trazado_119471-2" data-name="Trazado 119471" d="M312.121,583.766l1-.706-19.771-11.583-.975.683Z" transform="translate(-5651.484 -3870.867)" fill="#e2f0f4"/>
      <path id="Trazado_119472-2" data-name="Trazado 119472" d="M313.61,602.726l-1.983-1.162-1.436,1.006,1.99,1.163Z" transform="translate(-5656.909 -3880.03)" fill="#e2f0f4"/>
      <path id="Trazado_119473-2" data-name="Trazado 119473" d="M329.911,588.7l-1.637,1.146,1.941,1.141,1.633-1.151Z" transform="translate(-5662.416 -3876.111)" fill="#e2f0f4"/>
      <path id="Trazado_119474-2" data-name="Trazado 119474" d="M324.372,587.55l1.939,1.14,1.63-1.149-1.935-1.135Z" transform="translate(-5661.228 -3875.414)" fill="#e2f0f4"/>
      <path id="Trazado_119475-2" data-name="Trazado 119475" d="M326.789,591.075l-1.011.708,1.947,1.145,1.01-.712Z" transform="translate(-5661.656 -3876.835)" fill="#e2f0f4"/>
      <path id="Trazado_119476" data-name="Trazado 119476" d="M296.532,594.581l1.436-1.012-19.807-11.6-1.466,1.026Z" transform="translate(-5646.708 -3874.061)" fill="#e2f0f4"/>
      <path id="Trazado_119477-2" data-name="Trazado 119477" d="M299.671,592.524l1-.706-19.8-11.6-.975.683Z" transform="translate(-5647.684 -3873.529)" fill="#e2f0f4"/>
      <path id="Trazado_119478-2" data-name="Trazado 119478" d="M307.141,587.269l1-.706-19.783-11.59-.975.683Z" transform="translate(-5649.964 -3871.932)" fill="#e2f0f4"/>
      <path id="Trazado_119479-2" data-name="Trazado 119479" d="M309.7,600.434l-1.98-1.16-1.44,1.008,1.988,1.161Z" transform="translate(-5655.717 -3879.332)" fill="#e2f0f4"/>
      <path id="Trazado_119480-2" data-name="Trazado 119480" d="M304.651,589.021l1-.706-19.789-11.594-.975.683Z" transform="translate(-5649.204 -3872.464)" fill="#e2f0f4"/>
      <path id="Trazado_119481-2" data-name="Trazado 119481" d="M302.161,590.772l1-.706-19.795-11.6-.975.683Z" transform="translate(-5648.443 -3872.996)" fill="#e2f0f4"/>
      <path id="Trazado_119482-2" data-name="Trazado 119482" d="M309.631,585.518l1-.706-19.777-11.587-.975.683Z" transform="translate(-5650.724 -3871.399)" fill="#e2f0f4"/>
      <path id="Trazado_119483-2" data-name="Trazado 119483" d="M318.841,594.137l1.006-.709-1.956-1.146-1.007.7Z" transform="translate(-5658.947 -3877.203)" fill="#e2f0f4"/>
      <path id="Trazado_119484-2" data-name="Trazado 119484" d="M316.351,595.889l1.006-.709-1.962-1.15-1.006.7Z" transform="translate(-5658.187 -3877.735)" fill="#e2f0f4"/>
      <path id="Trazado_119485-2" data-name="Trazado 119485" d="M324.293,592.823l-1.011.708,1.953,1.148,1.01-.712Z" transform="translate(-5660.896 -3877.368)" fill="#e2f0f4"/>
      <path id="Trazado_119486-2" data-name="Trazado 119486" d="M321.331,592.385l1.006-.709-1.95-1.143-1.007.705Z" transform="translate(-5659.708 -3876.671)" fill="#e2f0f4"/>
      <path id="Trazado_119487-2" data-name="Trazado 119487" d="M322.883,588.786l-1.007.705,1.945,1.143,1.006-.709Z" transform="translate(-5660.467 -3876.138)" fill="#e2f0f4"/>
      <path id="Trazado_119488-2" data-name="Trazado 119488" d="M313.861,597.64l1.006-.709-1.968-1.153-1.006.7Z" transform="translate(-5657.427 -3878.268)" fill="#e2f0f4"/>
      <path id="Trazado_119489-2" data-name="Trazado 119489" d="M321.8,594.572l-1.011.708,1.959,1.152,1.01-.712Z" transform="translate(-5660.136 -3877.9)" fill="#e2f0f4"/>
      <path id="Trazado_119490-2" data-name="Trazado 119490" d="M311.371,599.392l1.006-.709-1.974-1.157-1.006.7Z" transform="translate(-5656.667 -3878.8)" fill="#e2f0f4"/>
      <path id="Trazado_119491-2" data-name="Trazado 119491" d="M319.3,596.32l-1.011.708,1.965,1.155,1.01-.712Z" transform="translate(-5659.375 -3878.433)" fill="#e2f0f4"/>
      <path id="Trazado_119492-2" data-name="Trazado 119492" d="M316.805,598.068l-1.011.708,1.971,1.159,1.01-.712Z" transform="translate(-5658.616 -3878.965)" fill="#e2f0f4"/>
      <path id="Trazado_119493-2" data-name="Trazado 119493" d="M316.286,600.974l-1.977-1.158-1.01.708,1.977,1.162Z" transform="translate(-5657.855 -3879.497)" fill="#e2f0f4"/>
      <path id="Trazado_119494" data-name="Trazado 119494" d="M281.306,577.26l-2.251-1.319-.971.679,2.252,1.324Z" transform="translate(-5647.131 -3872.227)" fill="#e2f0f4"/>
      <path id="Trazado_119495-2" data-name="Trazado 119495" d="M318.018,607.144l2.6,1.52,1.433-.994-2.606-1.527Z" transform="translate(-5659.292 -3881.424)" fill="#e2f0f4"/>
      <path id="Trazado_119496-2" data-name="Trazado 119496" d="M321.1,605.109l2.606,1.532,1.028-.713-2.615-1.532Z" transform="translate(-5660.232 -3880.892)" fill="#e2f0f4"/>
      <path id="Trazado_119497" data-name="Trazado 119497" d="M276.106,580.762l-2.267-1.328-1.471,1.028,2.276,1.33Z" transform="translate(-5645.391 -3873.291)" fill="#e2f0f4"/>
      <path id="Trazado_119498" data-name="Trazado 119498" d="M278.816,579.011l-2.259-1.323-.971.679,2.26,1.328Z" transform="translate(-5646.37 -3872.759)" fill="#e2f0f4"/>
      <path id="Trazado_119499-2" data-name="Trazado 119499" d="M323.6,603.361l2.615,1.537,1.028-.713-2.625-1.538Z" transform="translate(-5660.993 -3880.359)" fill="#e2f0f4"/>
      <path id="Trazado_119500-2" data-name="Trazado 119500" d="M328.592,599.865l2.634,1.548,1.029-.713-2.644-1.549Z" transform="translate(-5662.513 -3879.295)" fill="#e2f0f4"/>
      <path id="Trazado_119501-2" data-name="Trazado 119501" d="M326.1,601.613l2.625,1.543,1.029-.713-2.634-1.543Z" transform="translate(-5661.752 -3879.827)" fill="#e2f0f4"/>
      <path id="Trazado_119502-2" data-name="Trazado 119502" d="M333.583,596.369l2.653,1.559,1.029-.713-2.662-1.56Z" transform="translate(-5664.033 -3878.23)" fill="#e2f0f4"/>
      <path id="Trazado_119503-2" data-name="Trazado 119503" d="M336.079,594.43l2.662,1.565,1.654-1.147-2.674-1.568Z" transform="translate(-5664.793 -3877.507)" fill="#e2f0f4"/>
      <path id="Trazado_119504-2" data-name="Trazado 119504" d="M331.087,598.117l2.643,1.554,1.029-.713-2.653-1.554Z" transform="translate(-5663.272 -3878.763)" fill="#e2f0f4"/>
      <path id="Trazado_119505" data-name="Trazado 119505" d="M283.8,575.509l-2.244-1.315-.971.679,2.245,1.319Z" transform="translate(-5647.892 -3871.695)" fill="#e2f0f4"/>
      <path id="Trazado_119506-2" data-name="Trazado 119506" d="M328.2,595.113l-1.015.711,1.956,1.15,1.014-.715Z" transform="translate(-5662.084 -3878.065)" fill="#e2f0f4"/>
      <path id="Trazado_119507-2" data-name="Trazado 119507" d="M325.7,596.861l-1.015.711,1.962,1.153,1.014-.715Z" transform="translate(-5661.324 -3878.598)" fill="#e2f0f4"/>
      <path id="Trazado_119508-2" data-name="Trazado 119508" d="M323.208,598.609l-1.015.711,1.967,1.156,1.014-.715Z" transform="translate(-5660.564 -3879.13)" fill="#e2f0f4"/>
      <path id="Trazado_119509" data-name="Trazado 119509" d="M286.288,573.758l-2.236-1.31-.972.679,2.237,1.315Z" transform="translate(-5648.653 -3871.163)" fill="#e2f0f4"/>
      <path id="Trazado_119510-2" data-name="Trazado 119510" d="M318.216,602.106l-1.015.711,1.979,1.163,1.014-.715Z" transform="translate(-5659.044 -3880.195)" fill="#e2f0f4"/>
      <path id="Trazado_119511-2" data-name="Trazado 119511" d="M317.522,605.017l-1.985-1.163-1.433,1,1.992,1.164Z" transform="translate(-5658.101 -3880.727)" fill="#e2f0f4"/>
      <path id="Trazado_119512-2" data-name="Trazado 119512" d="M320.712,600.357l-1.015.711,1.973,1.16,1.014-.715Z" transform="translate(-5659.804 -3879.662)" fill="#e2f0f4"/>
      <path id="Trazado_119513" data-name="Trazado 119513" d="M288.779,572.007,286.55,570.7l-.972.679,2.229,1.31Z" transform="translate(-5649.414 -3870.631)" fill="#e2f0f4"/>
      <path id="Trazado_119514" data-name="Trazado 119514" d="M291.269,570.255l-2.22-1.3-.972.679,2.221,1.306Z" transform="translate(-5650.174 -3870.099)" fill="#e2f0f4"/>
      <path id="Trazado_119515-2" data-name="Trazado 119515" d="M330.7,593.365l-1.015.711,1.95,1.146,1.015-.715Z" transform="translate(-5662.844 -3877.533)" fill="#e2f0f4"/>
      <path id="Trazado_119516" data-name="Trazado 119516" d="M294.4,567.859l-2.209-1.3-1.613,1.128,2.214,1.3Z" transform="translate(-5650.935 -3869.371)" fill="#e2f0f4"/>
      <path id="Trazado_119517-2" data-name="Trazado 119517" d="M333.816,590.988l-1.639,1.148,1.944,1.143,1.636-1.153Z" transform="translate(-5663.604 -3876.809)" fill="#e2f0f4"/>
      <path id="Trazado_82776" data-name="Trazado 82776" d="M-219.1,479.736c0,.038-.014.075-.017.113a2.929,2.929,0,0,1-.07.459c-.008.032-.006.063-.015.095s-.029.07-.041.106a3.266,3.266,0,0,1-.147.382c-.019.042-.028.085-.049.127-.01.021-.027.042-.039.063a4.254,4.254,0,0,1-.253.413c-.025.036-.041.074-.067.111,0,.007-.013.014-.017.021a5.554,5.554,0,0,1-.44.527c-.005.005-.009.011-.014.017-.034.036-.077.07-.112.106-.131.132-.266.262-.415.391-.02.017-.035.035-.055.052-.051.043-.112.084-.164.127-.137.112-.279.222-.43.332-.038.028-.07.057-.109.084s-.107.068-.157.1q-.244.167-.509.33c-.058.036-.109.074-.169.11-.036.021-.078.042-.115.063q-.346.2-.725.4c-.05.026-.093.053-.144.079l-.034.016c-.33.168-.68.333-1.044.5-.03.014-.057.028-.087.042-.06.027-.13.051-.191.078q-.5.216-1.038.425c-.066.026-.125.053-.192.078l-.109.038q-.732.275-1.531.535c-.044.015-.083.03-.127.045-.124.04-.255.078-.38.117-.188.059-.375.117-.568.175s-.4.117-.605.175-.4.113-.6.169l-.215.06c-.094.025-.2.048-.29.073q-.535.14-1.089.273l-.479.114q-.713.166-1.457.322l-.12.027-.023,0q-.731.151-1.492.292l-.426.075c-.37.066-.742.133-1.121.2-.2.032-.4.063-.595.094-.333.053-.665.105-1,.155-.221.033-.447.063-.672.095-.324.045-.649.09-.979.133-.235.03-.472.06-.71.089-.328.04-.657.079-.99.116l-.744.081q-.5.052-1,.1c-.254.024-.508.048-.765.071-.343.031-.69.059-1.038.087-.252.02-.5.041-.76.059-.365.027-.735.051-1.1.075-.184.011-.364.026-.548.037l-.143.007q-1.2.07-2.431.118l-.218.01c-.139.005-.281.007-.42.012q-.74.025-1.489.042c-.14,0-.277.009-.417.012l-.3,0c-.427.007-.857.011-1.286.014-.18,0-.357.005-.538.006h-.411q-.841,0-1.673-.01l-.088,0q-.978-.013-1.942-.04h-.015l-.2-.007q-.86-.025-1.708-.062l-.113,0c-.174-.008-.344-.018-.517-.027-.426-.021-.85-.041-1.271-.066l-.218-.011c-.17-.01-.335-.024-.5-.035q-.584-.038-1.162-.079l-.316-.022c-.141-.011-.279-.024-.42-.036q-.571-.046-1.133-.1c-.134-.013-.273-.022-.407-.035-.1-.01-.205-.022-.309-.032q-.6-.059-1.2-.124c-.148-.016-.3-.029-.447-.046l-.169-.021q-.857-.1-1.692-.207l-.108-.014-.013,0c-.614-.081-1.215-.169-1.808-.259l-.17-.024c-.108-.017-.211-.036-.319-.053q-.715-.113-1.408-.234c-.1-.018-.211-.034-.312-.052l-.186-.036c-.638-.116-1.264-.236-1.873-.363l-.078-.015-.159-.036q-1.043-.22-2.025-.461c-.046-.011-.1-.021-.141-.032l-.07-.018q-.614-.153-1.2-.313l-.12-.032c-.431-.119-.85-.241-1.258-.365l-.048-.014c-.3-.09-.581-.183-.864-.276l-.176-.057q-.534-.178-1.037-.364c-.1-.037-.193-.075-.292-.112-.231-.088-.461-.175-.682-.265-.121-.049-.236-.1-.354-.15-.188-.079-.377-.158-.557-.239-.123-.055-.239-.112-.358-.168-.165-.077-.331-.155-.489-.234-.118-.059-.23-.119-.343-.179-.149-.078-.3-.156-.437-.235-.11-.062-.215-.125-.321-.187-.133-.078-.264-.158-.39-.237-.1-.064-.2-.129-.294-.194q-.179-.12-.346-.242-.135-.1-.263-.2c-.106-.082-.206-.165-.3-.248-.079-.068-.157-.134-.231-.2-.091-.084-.177-.169-.261-.254-.068-.069-.134-.137-.2-.206-.078-.086-.148-.173-.218-.261-.054-.069-.11-.137-.16-.206-.065-.09-.12-.181-.176-.272-.041-.068-.086-.135-.122-.2-.051-.1-.091-.192-.133-.288-.028-.065-.06-.129-.083-.194a2.932,2.932,0,0,1-.089-.325c-.013-.054-.033-.109-.042-.163a2.845,2.845,0,0,1-.045-.494h0v15.292a2.846,2.846,0,0,0,.045.495c.01.055.029.109.042.163a3.082,3.082,0,0,0,.09.325c.023.065.056.128.083.193.041.1.082.194.133.29.036.067.081.134.122.2.056.091.112.183.177.273.05.069.105.137.159.2.07.088.141.175.219.262.062.069.129.136.2.2.084.085.17.17.262.255.074.067.152.135.231.2.1.083.2.165.3.248q.128.1.263.2.167.121.346.241c.1.065.194.131.3.195.125.079.255.158.386.236.107.063.213.127.325.189.14.078.286.156.433.233.114.06.226.12.345.18.158.08.324.157.49.235.119.055.235.112.356.166.18.081.369.161.558.24.118.05.232.1.354.15.22.089.451.177.681.264.1.038.193.076.293.113q.5.184,1.035.362c.066.022.137.044.2.065.291.1.584.19.888.283q.611.186,1.256.364l.116.031q.59.161,1.206.315l.2.048q.987.242,2.037.464l.227.049c.61.127,1.237.248,1.877.364l.5.088q.693.122,1.408.235c.163.026.324.052.489.077.594.091,1.194.178,1.808.26l.121.015q.834.11,1.692.207c.2.023.41.045.616.067q.594.064,1.2.124l.716.066q.562.051,1.133.1c.244.02.489.04.735.058.388.029.78.055,1.173.081.236.015.47.031.707.045.424.025.852.046,1.281.067.208.01.415.022.625.031q.847.036,1.708.062l.209.007q.967.028,1.947.04.873.011,1.757.013c.318,0,.632,0,.949-.007.43,0,.86-.007,1.286-.015.241,0,.481-.01.721-.015q.749-.016,1.489-.042l.638-.022q1.229-.048,2.431-.118c.23-.014.458-.029.686-.044.373-.024.746-.048,1.115-.075.249-.018.5-.038.743-.058.354-.028.707-.057,1.056-.088l.751-.07q.507-.049,1.007-.1l.742-.081q.5-.056.99-.117c.237-.029.474-.058.709-.088.333-.043.662-.089.989-.134.22-.03.441-.061.659-.093.342-.05.677-.1,1.013-.156.2-.032.4-.062.59-.094.379-.063.751-.129,1.121-.2.141-.025.286-.049.426-.075q.759-.141,1.492-.292l.143-.031c.5-.1.984-.212,1.461-.323.159-.036.315-.075.471-.112q.558-.135,1.1-.274c.168-.044.339-.088.5-.132.206-.056.406-.113.607-.17s.4-.114.6-.173.387-.118.577-.177c.168-.053.336-.106.5-.159q.8-.26,1.532-.536c.1-.038.2-.078.3-.116q.54-.209,1.041-.426c.091-.04.186-.078.275-.118.364-.163.714-.328,1.045-.5.062-.031.118-.064.178-.1.251-.132.494-.266.725-.4.1-.057.19-.115.284-.173q.265-.163.509-.33c.091-.062.181-.124.267-.187.151-.109.293-.22.43-.332.073-.059.15-.118.219-.178.15-.13.285-.26.416-.391.04-.041.087-.082.126-.123a5.539,5.539,0,0,0,.44-.527c.032-.043.055-.087.084-.13a4.233,4.233,0,0,0,.253-.414c.033-.063.059-.127.088-.19a3.232,3.232,0,0,0,.147-.382c.021-.066.039-.133.056-.2a2.94,2.94,0,0,0,.07-.459c0-.068.019-.135.019-.2V479.646Q-219.1,479.691-219.1,479.736Z" transform="translate(-5353.64 -3847.397)" fill="url(#linear-gradient-2)"/>
      <path id="Trazado_82777" data-name="Trazado 82777" d="M-255.157,461.386c-19.92,0-36.061,4.449-36.061,9.937s16.141,9.94,36.061,9.94,36.061-4.449,36.061-9.94S-235.246,461.386-255.157,461.386Z" transform="translate(-5353.64 -3839.074)" fill="#e8e8e8"/>
      <path id="Trazado_82776-2" data-name="Trazado 82776" d="M-219.1,479.736c0,.038-.014.075-.017.113a2.929,2.929,0,0,1-.07.459c-.008.032-.006.063-.015.095s-.029.07-.041.106a3.266,3.266,0,0,1-.147.382c-.019.042-.028.085-.049.127-.01.021-.027.042-.039.063a4.254,4.254,0,0,1-.253.413c-.025.036-.041.074-.067.111,0,.007-.013.014-.017.021a5.554,5.554,0,0,1-.44.527c-.005.005-.009.011-.014.017-.034.036-.077.07-.112.106-.131.132-.266.262-.415.391-.02.017-.035.035-.055.052-.051.043-.112.084-.164.127-.137.112-.279.222-.43.332-.038.028-.07.057-.109.084s-.107.068-.157.1q-.244.167-.509.33c-.058.036-.109.074-.169.11-.036.021-.078.042-.115.063q-.346.2-.725.4c-.05.026-.093.053-.144.079l-.034.016c-.33.168-.68.333-1.044.5-.03.014-.057.028-.087.042-.06.027-.13.051-.191.078q-.5.216-1.038.425c-.066.026-.125.053-.192.078l-.109.038q-.732.275-1.531.535c-.044.015-.083.03-.127.045-.124.04-.255.078-.38.117-.188.059-.375.117-.568.175s-.4.117-.605.175-.4.113-.6.169l-.215.06c-.094.025-.2.048-.29.073q-.535.14-1.089.273l-.479.114q-.713.166-1.457.322l-.12.027-.023,0q-.731.151-1.492.292l-.426.075c-.37.066-.742.133-1.121.2-.2.032-.4.063-.595.094-.333.053-.665.105-1,.155-.221.033-.447.063-.672.095-.324.045-.649.09-.979.133-.235.03-.472.06-.71.089-.328.04-.657.079-.99.116l-.744.081q-.5.052-1,.1c-.254.024-.508.048-.765.071-.343.031-.69.059-1.038.087-.252.02-.5.041-.76.059-.365.027-.735.051-1.1.075-.184.011-.364.026-.548.037l-.143.007q-1.2.07-2.431.118l-.218.01c-.139.005-.281.007-.42.012q-.74.025-1.489.042c-.14,0-.277.009-.417.012l-.3,0c-.427.007-.857.011-1.286.014-.18,0-.357.005-.538.006h-.411q-.841,0-1.673-.01l-.088,0q-.978-.013-1.942-.04h-.015l-.2-.007q-.86-.025-1.708-.062l-.113,0c-.174-.008-.344-.018-.517-.027-.426-.021-.85-.041-1.271-.066l-.218-.011c-.17-.01-.335-.024-.5-.035q-.584-.038-1.162-.079l-.316-.022c-.141-.011-.279-.024-.42-.036q-.571-.046-1.133-.1c-.134-.013-.273-.022-.407-.035-.1-.01-.205-.022-.309-.032q-.6-.059-1.2-.124c-.148-.016-.3-.029-.447-.046l-.169-.021q-.857-.1-1.692-.207l-.108-.014-.013,0c-.614-.081-1.215-.169-1.808-.259l-.17-.024c-.108-.017-.211-.036-.319-.053q-.715-.113-1.408-.234c-.1-.018-.211-.034-.312-.052l-.186-.036c-.638-.116-1.264-.236-1.873-.363l-.078-.015-.159-.036q-1.043-.22-2.025-.461c-.046-.011-.1-.021-.141-.032l-.07-.018q-.614-.153-1.2-.313l-.12-.032c-.431-.119-.85-.241-1.258-.365l-.048-.014c-.3-.09-.581-.183-.864-.276l-.176-.057q-.534-.178-1.037-.364c-.1-.037-.193-.075-.292-.112-.231-.088-.461-.175-.682-.265-.121-.049-.236-.1-.354-.15-.188-.079-.377-.158-.557-.239-.123-.055-.239-.112-.358-.168-.165-.077-.331-.155-.489-.234-.118-.059-.23-.119-.343-.179-.149-.078-.3-.156-.437-.235-.11-.062-.215-.125-.321-.187-.133-.078-.264-.158-.39-.237-.1-.064-.2-.129-.294-.194q-.179-.12-.346-.242-.135-.1-.263-.2c-.106-.082-.206-.165-.3-.248-.079-.068-.157-.134-.231-.2-.091-.084-.177-.169-.261-.254-.068-.069-.134-.137-.2-.206-.078-.086-.148-.173-.218-.261-.054-.069-.11-.137-.16-.206-.065-.09-.12-.181-.176-.272-.041-.068-.086-.135-.122-.2-.051-.1-.091-.192-.133-.288-.028-.065-.06-.129-.083-.194a2.932,2.932,0,0,1-.089-.325c-.013-.054-.033-.109-.042-.163a2.845,2.845,0,0,1-.045-.494h0v15.292a2.846,2.846,0,0,0,.045.495c.01.055.029.109.042.163a3.082,3.082,0,0,0,.09.325c.023.065.056.128.083.193.041.1.082.194.133.29.036.067.081.134.122.2.056.091.112.183.177.273.05.069.105.137.159.2.07.088.141.175.219.262.062.069.129.136.2.2.084.085.17.17.262.255.074.067.152.135.231.2.1.083.2.165.3.248q.128.1.263.2.167.121.346.241c.1.065.194.131.3.195.125.079.255.158.386.236.107.063.213.127.325.189.14.078.286.156.433.233.114.06.226.12.345.18.158.08.324.157.49.235.119.055.235.112.356.166.18.081.369.161.558.24.118.05.232.1.354.15.22.089.451.177.681.264.1.038.193.076.293.113q.5.184,1.035.362c.066.022.137.044.2.065.291.1.584.19.888.283q.611.186,1.256.364l.116.031q.59.161,1.206.315l.2.048q.987.242,2.037.464l.227.049c.61.127,1.237.248,1.877.364l.5.088q.693.122,1.408.235c.163.026.324.052.489.077.594.091,1.194.178,1.808.26l.121.015q.834.11,1.692.207c.2.023.41.045.616.067q.594.064,1.2.124l.716.066q.562.051,1.133.1c.244.02.489.04.735.058.388.029.78.055,1.173.081.236.015.47.031.707.045.424.025.852.046,1.281.067.208.01.415.022.625.031q.847.036,1.708.062l.209.007q.967.028,1.947.04.873.011,1.757.013c.318,0,.632,0,.949-.007.43,0,.86-.007,1.286-.015.241,0,.481-.01.721-.015q.749-.016,1.489-.042l.638-.022q1.229-.048,2.431-.118c.23-.014.458-.029.686-.044.373-.024.746-.048,1.115-.075.249-.018.5-.038.743-.058.354-.028.707-.057,1.056-.088l.751-.07q.507-.049,1.007-.1l.742-.081q.5-.056.99-.117c.237-.029.474-.058.709-.088.333-.043.662-.089.989-.134.22-.03.441-.061.659-.093.342-.05.677-.1,1.013-.156.2-.032.4-.062.59-.094.379-.063.751-.129,1.121-.2.141-.025.286-.049.426-.075q.759-.141,1.492-.292l.143-.031c.5-.1.984-.212,1.461-.323.159-.036.315-.075.471-.112q.558-.135,1.1-.274c.168-.044.339-.088.5-.132.206-.056.406-.113.607-.17s.4-.114.6-.173.387-.118.577-.177c.168-.053.336-.106.5-.159q.8-.26,1.532-.536c.1-.038.2-.078.3-.116q.54-.209,1.041-.426c.091-.04.186-.078.275-.118.364-.163.714-.328,1.045-.5.062-.031.118-.064.178-.1.251-.132.494-.266.725-.4.1-.057.19-.115.284-.173q.265-.163.509-.33c.091-.062.181-.124.267-.187.151-.109.293-.22.43-.332.073-.059.15-.118.219-.178.15-.13.285-.26.416-.391.04-.041.087-.082.126-.123a5.539,5.539,0,0,0,.44-.527c.032-.043.055-.087.084-.13a4.233,4.233,0,0,0,.253-.414c.033-.063.059-.127.088-.19a3.232,3.232,0,0,0,.147-.382c.021-.066.039-.133.056-.2a2.94,2.94,0,0,0,.07-.459c0-.068.019-.135.019-.2V479.646Q-219.1,479.691-219.1,479.736Z" transform="translate(-5353.64 -3777.808)" fill="url(#linear-gradient-2)"/>
      <path id="Trazado_82777-2" data-name="Trazado 82777" d="M-255.157,461.386c-19.92,0-36.061,4.449-36.061,9.937s16.141,9.94,36.061,9.94,36.061-4.449,36.061-9.94S-235.246,461.386-255.157,461.386Z" transform="translate(-5353.64 -3769.485)" fill="#e8e8e8"/>
      <path id="Trazado_82776-3" data-name="Trazado 82776" d="M-219.1,479.736c0,.038-.014.075-.017.113a2.929,2.929,0,0,1-.07.459c-.008.032-.006.063-.015.095s-.029.07-.041.106a3.266,3.266,0,0,1-.147.382c-.019.042-.028.085-.049.127-.01.021-.027.042-.039.063a4.254,4.254,0,0,1-.253.413c-.025.036-.041.074-.067.111,0,.007-.013.014-.017.021a5.554,5.554,0,0,1-.44.527c-.005.005-.009.011-.014.017-.034.036-.077.07-.112.106-.131.132-.266.262-.415.391-.02.017-.035.035-.055.052-.051.043-.112.084-.164.127-.137.112-.279.222-.43.332-.038.028-.07.057-.109.084s-.107.068-.157.1q-.244.167-.509.33c-.058.036-.109.074-.169.11-.036.021-.078.042-.115.063q-.346.2-.725.4c-.05.026-.093.053-.144.079l-.034.016c-.33.168-.68.333-1.044.5-.03.014-.057.028-.087.042-.06.027-.13.051-.191.078q-.5.216-1.038.425c-.066.026-.125.053-.192.078l-.109.038q-.732.275-1.531.535c-.044.015-.083.03-.127.045-.124.04-.255.078-.38.117-.188.059-.375.117-.568.175s-.4.117-.605.175-.4.113-.6.169l-.215.06c-.094.025-.2.048-.29.073q-.535.14-1.089.273l-.479.114q-.713.166-1.457.322l-.12.027-.023,0q-.731.151-1.492.292l-.426.075c-.37.066-.742.133-1.121.2-.2.032-.4.063-.595.094-.333.053-.665.105-1,.155-.221.033-.447.063-.672.095-.324.045-.649.09-.979.133-.235.03-.472.06-.71.089-.328.04-.657.079-.99.116l-.744.081q-.5.052-1,.1c-.254.024-.508.048-.765.071-.343.031-.69.059-1.038.087-.252.02-.5.041-.76.059-.365.027-.735.051-1.1.075-.184.011-.364.026-.548.037l-.143.007q-1.2.07-2.431.118l-.218.01c-.139.005-.281.007-.42.012q-.74.025-1.489.042c-.14,0-.277.009-.417.012l-.3,0c-.427.007-.857.011-1.286.014-.18,0-.357.005-.538.006h-.411q-.841,0-1.673-.01l-.088,0q-.978-.013-1.942-.04h-.015l-.2-.007q-.86-.025-1.708-.062l-.113,0c-.174-.008-.344-.018-.517-.027-.426-.021-.85-.041-1.271-.066l-.218-.011c-.17-.01-.335-.024-.5-.035q-.584-.038-1.162-.079l-.316-.022c-.141-.011-.279-.024-.42-.036q-.571-.046-1.133-.1c-.134-.013-.273-.022-.407-.035-.1-.01-.205-.022-.309-.032q-.6-.059-1.2-.124c-.148-.016-.3-.029-.447-.046l-.169-.021q-.857-.1-1.692-.207l-.108-.014-.013,0c-.614-.081-1.215-.169-1.808-.259l-.17-.024c-.108-.017-.211-.036-.319-.053q-.715-.113-1.408-.234c-.1-.018-.211-.034-.312-.052l-.186-.036c-.638-.116-1.264-.236-1.873-.363l-.078-.015-.159-.036q-1.043-.22-2.025-.461c-.046-.011-.1-.021-.141-.032l-.07-.018q-.614-.153-1.2-.313l-.12-.032c-.431-.119-.85-.241-1.258-.365l-.048-.014c-.3-.09-.581-.183-.864-.276l-.176-.057q-.534-.178-1.037-.364c-.1-.037-.193-.075-.292-.112-.231-.088-.461-.175-.682-.265-.121-.049-.236-.1-.354-.15-.188-.079-.377-.158-.557-.239-.123-.055-.239-.112-.358-.168-.165-.077-.331-.155-.489-.234-.118-.059-.23-.119-.343-.179-.149-.078-.3-.156-.437-.235-.11-.062-.215-.125-.321-.187-.133-.078-.264-.158-.39-.237-.1-.064-.2-.129-.294-.194q-.179-.12-.346-.242-.135-.1-.263-.2c-.106-.082-.206-.165-.3-.248-.079-.068-.157-.134-.231-.2-.091-.084-.177-.169-.261-.254-.068-.069-.134-.137-.2-.206-.078-.086-.148-.173-.218-.261-.054-.069-.11-.137-.16-.206-.065-.09-.12-.181-.176-.272-.041-.068-.086-.135-.122-.2-.051-.1-.091-.192-.133-.288-.028-.065-.06-.129-.083-.194a2.932,2.932,0,0,1-.089-.325c-.013-.054-.033-.109-.042-.163a2.845,2.845,0,0,1-.045-.494h0v15.292a2.846,2.846,0,0,0,.045.495c.01.055.029.109.042.163a3.082,3.082,0,0,0,.09.325c.023.065.056.128.083.193.041.1.082.194.133.29.036.067.081.134.122.2.056.091.112.183.177.273.05.069.105.137.159.2.07.088.141.175.219.262.062.069.129.136.2.2.084.085.17.17.262.255.074.067.152.135.231.2.1.083.2.165.3.248q.128.1.263.2.167.121.346.241c.1.065.194.131.3.195.125.079.255.158.386.236.107.063.213.127.325.189.14.078.286.156.433.233.114.06.226.12.345.18.158.08.324.157.49.235.119.055.235.112.356.166.18.081.369.161.558.24.118.05.232.1.354.15.22.089.451.177.681.264.1.038.193.076.293.113q.5.184,1.035.362c.066.022.137.044.2.065.291.1.584.19.888.283q.611.186,1.256.364l.116.031q.59.161,1.206.315l.2.048q.987.242,2.037.464l.227.049c.61.127,1.237.248,1.877.364l.5.088q.693.122,1.408.235c.163.026.324.052.489.077.594.091,1.194.178,1.808.26l.121.015q.834.11,1.692.207c.2.023.41.045.616.067q.594.064,1.2.124l.716.066q.562.051,1.133.1c.244.02.489.04.735.058.388.029.78.055,1.173.081.236.015.47.031.707.045.424.025.852.046,1.281.067.208.01.415.022.625.031q.847.036,1.708.062l.209.007q.967.028,1.947.04.873.011,1.757.013c.318,0,.632,0,.949-.007.43,0,.86-.007,1.286-.015.241,0,.481-.01.721-.015q.749-.016,1.489-.042l.638-.022q1.229-.048,2.431-.118c.23-.014.458-.029.686-.044.373-.024.746-.048,1.115-.075.249-.018.5-.038.743-.058.354-.028.707-.057,1.056-.088l.751-.07q.507-.049,1.007-.1l.742-.081q.5-.056.99-.117c.237-.029.474-.058.709-.088.333-.043.662-.089.989-.134.22-.03.441-.061.659-.093.342-.05.677-.1,1.013-.156.2-.032.4-.062.59-.094.379-.063.751-.129,1.121-.2.141-.025.286-.049.426-.075q.759-.141,1.492-.292l.143-.031c.5-.1.984-.212,1.461-.323.159-.036.315-.075.471-.112q.558-.135,1.1-.274c.168-.044.339-.088.5-.132.206-.056.406-.113.607-.17s.4-.114.6-.173.387-.118.577-.177c.168-.053.336-.106.5-.159q.8-.26,1.532-.536c.1-.038.2-.078.3-.116q.54-.209,1.041-.426c.091-.04.186-.078.275-.118.364-.163.714-.328,1.045-.5.062-.031.118-.064.178-.1.251-.132.494-.266.725-.4.1-.057.19-.115.284-.173q.265-.163.509-.33c.091-.062.181-.124.267-.187.151-.109.293-.22.43-.332.073-.059.15-.118.219-.178.15-.13.285-.26.416-.391.04-.041.087-.082.126-.123a5.539,5.539,0,0,0,.44-.527c.032-.043.055-.087.084-.13a4.233,4.233,0,0,0,.253-.414c.033-.063.059-.127.088-.19a3.232,3.232,0,0,0,.147-.382c.021-.066.039-.133.056-.2a2.94,2.94,0,0,0,.07-.459c0-.068.019-.135.019-.2V479.646Q-219.1,479.691-219.1,479.736Z" transform="translate(-5209.343 -3847.397)" fill="url(#linear-gradient-2)"/>
      <path id="Trazado_82777-3" data-name="Trazado 82777" d="M-255.157,461.386c-19.92,0-36.061,4.449-36.061,9.937s16.141,9.94,36.061,9.94,36.061-4.449,36.061-9.94S-235.246,461.386-255.157,461.386Z" transform="translate(-5209.343 -3839.074)" fill="#e8e8e8"/>
      <path id="Trazado_82776-4" data-name="Trazado 82776" d="M-219.1,479.736c0,.038-.014.075-.017.113a2.929,2.929,0,0,1-.07.459c-.008.032-.006.063-.015.095s-.029.07-.041.106a3.266,3.266,0,0,1-.147.382c-.019.042-.028.085-.049.127-.01.021-.027.042-.039.063a4.254,4.254,0,0,1-.253.413c-.025.036-.041.074-.067.111,0,.007-.013.014-.017.021a5.554,5.554,0,0,1-.44.527c-.005.005-.009.011-.014.017-.034.036-.077.07-.112.106-.131.132-.266.262-.415.391-.02.017-.035.035-.055.052-.051.043-.112.084-.164.127-.137.112-.279.222-.43.332-.038.028-.07.057-.109.084s-.107.068-.157.1q-.244.167-.509.33c-.058.036-.109.074-.169.11-.036.021-.078.042-.115.063q-.346.2-.725.4c-.05.026-.093.053-.144.079l-.034.016c-.33.168-.68.333-1.044.5-.03.014-.057.028-.087.042-.06.027-.13.051-.191.078q-.5.216-1.038.425c-.066.026-.125.053-.192.078l-.109.038q-.732.275-1.531.535c-.044.015-.083.03-.127.045-.124.04-.255.078-.38.117-.188.059-.375.117-.568.175s-.4.117-.605.175-.4.113-.6.169l-.215.06c-.094.025-.2.048-.29.073q-.535.14-1.089.273l-.479.114q-.713.166-1.457.322l-.12.027-.023,0q-.731.151-1.492.292l-.426.075c-.37.066-.742.133-1.121.2-.2.032-.4.063-.595.094-.333.053-.665.105-1,.155-.221.033-.447.063-.672.095-.324.045-.649.09-.979.133-.235.03-.472.06-.71.089-.328.04-.657.079-.99.116l-.744.081q-.5.052-1,.1c-.254.024-.508.048-.765.071-.343.031-.69.059-1.038.087-.252.02-.5.041-.76.059-.365.027-.735.051-1.1.075-.184.011-.364.026-.548.037l-.143.007q-1.2.07-2.431.118l-.218.01c-.139.005-.281.007-.42.012q-.74.025-1.489.042c-.14,0-.277.009-.417.012l-.3,0c-.427.007-.857.011-1.286.014-.18,0-.357.005-.538.006h-.411q-.841,0-1.673-.01l-.088,0q-.978-.013-1.942-.04h-.015l-.2-.007q-.86-.025-1.708-.062l-.113,0c-.174-.008-.344-.018-.517-.027-.426-.021-.85-.041-1.271-.066l-.218-.011c-.17-.01-.335-.024-.5-.035q-.584-.038-1.162-.079l-.316-.022c-.141-.011-.279-.024-.42-.036q-.571-.046-1.133-.1c-.134-.013-.273-.022-.407-.035-.1-.01-.205-.022-.309-.032q-.6-.059-1.2-.124c-.148-.016-.3-.029-.447-.046l-.169-.021q-.857-.1-1.692-.207l-.108-.014-.013,0c-.614-.081-1.215-.169-1.808-.259l-.17-.024c-.108-.017-.211-.036-.319-.053q-.715-.113-1.408-.234c-.1-.018-.211-.034-.312-.052l-.186-.036c-.638-.116-1.264-.236-1.873-.363l-.078-.015-.159-.036q-1.043-.22-2.025-.461c-.046-.011-.1-.021-.141-.032l-.07-.018q-.614-.153-1.2-.313l-.12-.032c-.431-.119-.85-.241-1.258-.365l-.048-.014c-.3-.09-.581-.183-.864-.276l-.176-.057q-.534-.178-1.037-.364c-.1-.037-.193-.075-.292-.112-.231-.088-.461-.175-.682-.265-.121-.049-.236-.1-.354-.15-.188-.079-.377-.158-.557-.239-.123-.055-.239-.112-.358-.168-.165-.077-.331-.155-.489-.234-.118-.059-.23-.119-.343-.179-.149-.078-.3-.156-.437-.235-.11-.062-.215-.125-.321-.187-.133-.078-.264-.158-.39-.237-.1-.064-.2-.129-.294-.194q-.179-.12-.346-.242-.135-.1-.263-.2c-.106-.082-.206-.165-.3-.248-.079-.068-.157-.134-.231-.2-.091-.084-.177-.169-.261-.254-.068-.069-.134-.137-.2-.206-.078-.086-.148-.173-.218-.261-.054-.069-.11-.137-.16-.206-.065-.09-.12-.181-.176-.272-.041-.068-.086-.135-.122-.2-.051-.1-.091-.192-.133-.288-.028-.065-.06-.129-.083-.194a2.932,2.932,0,0,1-.089-.325c-.013-.054-.033-.109-.042-.163a2.845,2.845,0,0,1-.045-.494h0v15.292a2.846,2.846,0,0,0,.045.495c.01.055.029.109.042.163a3.082,3.082,0,0,0,.09.325c.023.065.056.128.083.193.041.1.082.194.133.29.036.067.081.134.122.2.056.091.112.183.177.273.05.069.105.137.159.2.07.088.141.175.219.262.062.069.129.136.2.2.084.085.17.17.262.255.074.067.152.135.231.2.1.083.2.165.3.248q.128.1.263.2.167.121.346.241c.1.065.194.131.3.195.125.079.255.158.386.236.107.063.213.127.325.189.14.078.286.156.433.233.114.06.226.12.345.18.158.08.324.157.49.235.119.055.235.112.356.166.18.081.369.161.558.24.118.05.232.1.354.15.22.089.451.177.681.264.1.038.193.076.293.113q.5.184,1.035.362c.066.022.137.044.2.065.291.1.584.19.888.283q.611.186,1.256.364l.116.031q.59.161,1.206.315l.2.048q.987.242,2.037.464l.227.049c.61.127,1.237.248,1.877.364l.5.088q.693.122,1.408.235c.163.026.324.052.489.077.594.091,1.194.178,1.808.26l.121.015q.834.11,1.692.207c.2.023.41.045.616.067q.594.064,1.2.124l.716.066q.562.051,1.133.1c.244.02.489.04.735.058.388.029.78.055,1.173.081.236.015.47.031.707.045.424.025.852.046,1.281.067.208.01.415.022.625.031q.847.036,1.708.062l.209.007q.967.028,1.947.04.873.011,1.757.013c.318,0,.632,0,.949-.007.43,0,.86-.007,1.286-.015.241,0,.481-.01.721-.015q.749-.016,1.489-.042l.638-.022q1.229-.048,2.431-.118c.23-.014.458-.029.686-.044.373-.024.746-.048,1.115-.075.249-.018.5-.038.743-.058.354-.028.707-.057,1.056-.088l.751-.07q.507-.049,1.007-.1l.742-.081q.5-.056.99-.117c.237-.029.474-.058.709-.088.333-.043.662-.089.989-.134.22-.03.441-.061.659-.093.342-.05.677-.1,1.013-.156.2-.032.4-.062.59-.094.379-.063.751-.129,1.121-.2.141-.025.286-.049.426-.075q.759-.141,1.492-.292l.143-.031c.5-.1.984-.212,1.461-.323.159-.036.315-.075.471-.112q.558-.135,1.1-.274c.168-.044.339-.088.5-.132.206-.056.406-.113.607-.17s.4-.114.6-.173.387-.118.577-.177c.168-.053.336-.106.5-.159q.8-.26,1.532-.536c.1-.038.2-.078.3-.116q.54-.209,1.041-.426c.091-.04.186-.078.275-.118.364-.163.714-.328,1.045-.5.062-.031.118-.064.178-.1.251-.132.494-.266.725-.4.1-.057.19-.115.284-.173q.265-.163.509-.33c.091-.062.181-.124.267-.187.151-.109.293-.22.43-.332.073-.059.15-.118.219-.178.15-.13.285-.26.416-.391.04-.041.087-.082.126-.123a5.539,5.539,0,0,0,.44-.527c.032-.043.055-.087.084-.13a4.233,4.233,0,0,0,.253-.414c.033-.063.059-.127.088-.19a3.232,3.232,0,0,0,.147-.382c.021-.066.039-.133.056-.2a2.94,2.94,0,0,0,.07-.459c0-.068.019-.135.019-.2V479.646Q-219.1,479.691-219.1,479.736Z" transform="translate(-5209.343 -3777.808)" fill="url(#linear-gradient-2)"/>
      <path id="Trazado_82777-4" data-name="Trazado 82777" d="M-255.157,461.386c-19.92,0-36.061,4.449-36.061,9.937s16.141,9.94,36.061,9.94,36.061-4.449,36.061-9.94S-235.246,461.386-255.157,461.386Z" transform="translate(-5209.343 -3769.485)" fill="#e8e8e8"/>
      <path id="Trazado_119518" data-name="Trazado 119518" d="M-12343.392-8212.063l28.679-11.726" transform="translate(6720.399 4849.588)" fill="none" stroke="#00223d" stroke-linecap="round" stroke-width="4"/>
      <path id="Trazado_119524" data-name="Trazado 119524" d="M-12343.392-8212.063l28.679-11.726" transform="translate(6720.399 4919.178)" fill="none" stroke="#00223d" stroke-linecap="round" stroke-width="4"/>
      <path id="Trazado_119520" data-name="Trazado 119520" d="M-12343.392-8212.063l28.679-11.726" transform="translate(6864.696 4849.588)" fill="none" stroke="#00223d" stroke-linecap="round" stroke-width="4"/>
      <path id="Trazado_119522" data-name="Trazado 119522" d="M-12343.392-8212.063l28.679-11.726" transform="translate(6864.696 4919.178)" fill="none" stroke="#00223d" stroke-linecap="round" stroke-width="4"/>
      <path id="Trazado_119519" data-name="Trazado 119519" d="M0,11.725,28.677,0" transform="translate(-5602.66 -3354.054) rotate(-135)" fill="none" stroke="#00223d" stroke-linecap="round" stroke-width="4"/>
      <path id="Trazado_119525" data-name="Trazado 119525" d="M0,11.725,28.677,0" transform="translate(-5602.66 -3284.464) rotate(-135)" fill="none" stroke="#00223d" stroke-linecap="round" stroke-width="4"/>
      <path id="Trazado_119521" data-name="Trazado 119521" d="M0,11.725,28.677,0" transform="translate(-5458.364 -3354.054) rotate(-135)" fill="none" stroke="#00223d" stroke-linecap="round" stroke-width="4"/>
      <path id="Trazado_119523" data-name="Trazado 119523" d="M0,11.725,28.677,0" transform="translate(-5458.364 -3284.464) rotate(-135)" fill="none" stroke="#00223d" stroke-linecap="round" stroke-width="4"/>
      <path id="Trazado_119526" data-name="Trazado 119526" d="M-11040.522-7696.055h41.367" transform="translate(5334.924 4365.283)" fill="none" stroke="#00223d" stroke-width="3"/>
      <path id="Trazado_119527" data-name="Trazado 119527" d="M-10943.062-7742.105l-18.962,23.859,18.962,21.271" transform="translate(5296.591 4387.77)" fill="none" stroke="#00223d" stroke-width="3"/>
      <path id="Trazado_119528" data-name="Trazado 119528" d="M0,0H41.367" transform="translate(-5364.018 -3332.769) rotate(180)" fill="none" stroke="#00223d" stroke-width="3"/>
      <path id="Trazado_119529" data-name="Trazado 119529" d="M18.961,0,0,23.859,18.961,45.131" transform="translate(-5404.186 -3309.205) rotate(180)" fill="none" stroke="#00223d" stroke-width="3"/>
      <path id="Trazado_119530" data-name="Trazado 119530" d="M-10569.342-7719.013v33.693" transform="translate(5104.842 4376.496)" fill="none" stroke="#00223d" stroke-width="3"/>
      <path id="Trazado_119531" data-name="Trazado 119531" d="M-10780.867-7753.378h72.073" transform="translate(5208.131 4393.275)" fill="none" stroke="#00223d" stroke-width="3"/>
      <path id="Trazado_119532" data-name="Trazado 119532" d="M-10780.867-7753.378h72.073" transform="translate(5208.131 4462.865)" fill="none" stroke="#00223d" stroke-width="3"/>
      <path id="Trazado_826474" data-name="Trazado 826474" d="M5.53,0A5.53,5.53,0,1,1,0,5.53,5.53,5.53,0,0,1,5.53,0Z" transform="translate(-5541.966 -3365.771)" fill="#ff6148"/>
      <path id="Trazado_826475" data-name="Trazado 826475" d="M5.53,0A5.53,5.53,0,1,1,0,5.53,5.53,5.53,0,0,1,5.53,0Z" transform="translate(-5541.966 -3296.008)" fill="#ff6148"/>
      <path id="Trazado_194064" data-name="Trazado 194064" d="M9.361,19.913V15.151H0V4.846H9.3V0L26.838,9.968Z" transform="translate(-5526.041 -3396.02) rotate(90)" fill="#12263f"/>
      <path id="Trazado_826477" data-name="Trazado 826477" d="M2.82-4.453V0H1.32V-11.375h4.2a4.215,4.215,0,0,1,2.926.953A3.231,3.231,0,0,1,9.5-7.9,3.189,3.189,0,0,1,8.465-5.348,4.4,4.4,0,0,1,5.5-4.453Zm0-1.227h2.7a2.7,2.7,0,0,0,1.844-.567A2.075,2.075,0,0,0,8-7.887a2.143,2.143,0,0,0-.641-1.628A2.525,2.525,0,0,0,5.6-10.148H2.82ZM16.32,0a3.036,3.036,0,0,1-.2-.891A3.225,3.225,0,0,1,13.711.156,2.984,2.984,0,0,1,11.66-.551a2.287,2.287,0,0,1-.8-1.793,2.39,2.39,0,0,1,1-2.051,4.733,4.733,0,0,1,2.824-.73h1.406v-.664A1.623,1.623,0,0,0,15.641-7,1.821,1.821,0,0,0,14.3-7.445a2.107,2.107,0,0,0-1.3.391,1.151,1.151,0,0,0-.523.945H11.031a2,2,0,0,1,.449-1.223A3.066,3.066,0,0,1,12.7-8.266a4.1,4.1,0,0,1,1.691-.344,3.342,3.342,0,0,1,2.289.73,2.635,2.635,0,0,1,.859,2.012v3.891a4.757,4.757,0,0,0,.3,1.852V0Zm-2.4-1.1a2.54,2.54,0,0,0,1.289-.352,2.127,2.127,0,0,0,.883-.914V-4.1H14.961Q12.3-4.1,12.3-2.547a1.316,1.316,0,0,0,.453,1.063A1.742,1.742,0,0,0,13.922-1.1Zm5.531-3.2a4.961,4.961,0,0,1,.914-3.152,2.962,2.962,0,0,1,2.453-1.16A2.96,2.96,0,0,1,25.188-7.6l.063-.852h1.328V3.25H25.133V-.781A3.033,3.033,0,0,1,22.8.156a2.915,2.915,0,0,1-2.441-1.191,5.072,5.072,0,0,1-.91-3.16Zm1.445.164a3.761,3.761,0,0,0,.613,2.281,1.951,1.951,0,0,0,1.652.828,2.164,2.164,0,0,0,1.969-1.141V-6.3A2.171,2.171,0,0,0,23.18-7.422a1.965,1.965,0,0,0-1.664.832A4.094,4.094,0,0,0,20.9-4.133Zm13.219,3.3a3.07,3.07,0,0,1-2.477.992,2.628,2.628,0,0,1-2.059-.785,3.4,3.4,0,0,1-.715-2.324v-5.5h1.445v5.461q0,1.922,1.563,1.922a2.163,2.163,0,0,0,2.2-1.234V-8.453h1.445V0H34.148Zm7.109.992a3.693,3.693,0,0,1-2.8-1.129,4.19,4.19,0,0,1-1.078-3.02v-.266a5.073,5.073,0,0,1,.48-2.246,3.748,3.748,0,0,1,1.344-1.547,3.378,3.378,0,0,1,1.871-.559,3.166,3.166,0,0,1,2.563,1.086,4.7,4.7,0,0,1,.914,3.109v.6H38.8a3,3,0,0,0,.73,2.02,2.3,2.3,0,0,0,1.777.77,2.517,2.517,0,0,0,1.3-.312,3.259,3.259,0,0,0,.93-.828l.883.688A3.55,3.55,0,0,1,41.227.156Zm-.18-7.578a1.928,1.928,0,0,0-1.469.637A3.1,3.1,0,0,0,38.844-5h4.234v-.109a2.753,2.753,0,0,0-.594-1.707A1.815,1.815,0,0,0,41.047-7.422ZM48.156-10.5v2.047h1.578v1.117H48.156v5.249a1.173,1.173,0,0,0,.211.763.888.888,0,0,0,.719.254,3.5,3.5,0,0,0,.688-.094V0a4.215,4.215,0,0,1-1.109.155A1.8,1.8,0,0,1,47.2-.43a2.517,2.517,0,0,1-.492-1.664V-7.336H45.172V-8.453h1.539V-10.5ZM54.93.156a3.693,3.693,0,0,1-2.8-1.129,4.19,4.19,0,0,1-1.078-3.02v-.266a5.073,5.073,0,0,1,.48-2.246,3.748,3.748,0,0,1,1.344-1.547,3.378,3.378,0,0,1,1.871-.559,3.166,3.166,0,0,1,2.563,1.086,4.7,4.7,0,0,1,.914,3.109v.6H52.5a3,3,0,0,0,.73,2.02,2.3,2.3,0,0,0,1.777.77,2.517,2.517,0,0,0,1.3-.312,3.259,3.259,0,0,0,.93-.828l.883.688A3.55,3.55,0,0,1,54.93.156Zm-.18-7.578a1.928,1.928,0,0,0-1.469.637A3.1,3.1,0,0,0,52.547-5h4.234v-.109a2.753,2.753,0,0,0-.594-1.707A1.815,1.815,0,0,0,54.75-7.422ZM68.461,0H67.008V-9.633l-2.914,1.07V-9.875l4.141-1.555h.227Z" transform="translate(-5572.82 -3402.914)" fill="#12263f"/>
      <path id="Trazado_826478" data-name="Trazado 826478" d="M7.859-4.945h-4.5v3.063H8.641V0H1.016V-11.375H8.625v1.9H3.359v2.711h4.5ZM9.367-4.3a5.053,5.053,0,0,1,.887-3.148,2.9,2.9,0,0,1,2.434-1.156A2.6,2.6,0,0,1,14.852-7.57L15-8.453h1.984V3.25H14.719V-.727a2.6,2.6,0,0,1-2.047.883,2.878,2.878,0,0,1-2.406-1.172A5.3,5.3,0,0,1,9.367-4.3Zm2.258.16A3.315,3.315,0,0,0,12.051-2.3a1.363,1.363,0,0,0,1.2.634,1.518,1.518,0,0,0,1.469-.829v-3.5a1.506,1.506,0,0,0-1.453-.8,1.38,1.38,0,0,0-1.211.634A3.661,3.661,0,0,0,11.625-4.144ZM23.82-.859A2.831,2.831,0,0,1,21.508.156a2.67,2.67,0,0,1-2.074-.781,3.335,3.335,0,0,1-.73-2.289V-8.453h2.258v5.467q0,1.322,1.2,1.322a1.63,1.63,0,0,0,1.578-.8V-8.453h2.266V0H23.883ZM30.094,0H27.828V-8.453h2.266ZM27.7-10.641a1.112,1.112,0,0,1,.34-.836,1.277,1.277,0,0,1,.926-.328,1.28,1.28,0,0,1,.922.328,1.105,1.105,0,0,1,.344.836,1.108,1.108,0,0,1-.348.844,1.283,1.283,0,0,1-.918.328,1.283,1.283,0,0,1-.918-.328A1.108,1.108,0,0,1,27.7-10.641ZM39.563-4.148a5.07,5.07,0,0,1-.887,3.129A2.843,2.843,0,0,1,36.281.156a2.633,2.633,0,0,1-2.07-.891V3.25H31.953v-11.7h2.094l.078.828a2.654,2.654,0,0,1,2.141-.984A2.862,2.862,0,0,1,38.7-7.453a5.207,5.207,0,0,1,.867,3.188ZM37.3-4.321a3.345,3.345,0,0,0-.418-1.826,1.36,1.36,0,0,0-1.215-.643,1.478,1.478,0,0,0-1.461.815V-2.5a1.5,1.5,0,0,0,1.477.839Q37.3-1.664,37.3-4.321Zm3.3.016a5.013,5.013,0,0,1,.484-2.242A3.546,3.546,0,0,1,42.488-8.07,4.069,4.069,0,0,1,44.6-8.609a3.849,3.849,0,0,1,2.793,1.047A4.2,4.2,0,0,1,48.6-4.719l.016.578A4.418,4.418,0,0,1,47.531-1.02,3.775,3.775,0,0,1,44.617.156,3.793,3.793,0,0,1,41.7-1.016,4.5,4.5,0,0,1,40.609-4.2Zm2.258.16A3.16,3.16,0,0,0,43.32-2.3a1.5,1.5,0,0,0,1.3.638,1.5,1.5,0,0,0,1.281-.63,3.457,3.457,0,0,0,.461-2.015A3.128,3.128,0,0,0,45.9-6.14a1.5,1.5,0,0,0-1.3-.649,1.474,1.474,0,0,0-1.281.646A3.516,3.516,0,0,0,42.867-4.144Zm17.7,1.8H56.453L55.672,0H53.18l4.234-11.375h2.172L63.844,0H61.352Zm-3.477-1.9H59.93L58.5-8.5Z" transform="translate(-5781.668 -3253.191)" fill="#12263f"/>
      <path id="Trazado_826473" data-name="Trazado 826473" d="M7.859-4.945h-4.5v3.063H8.641V0H1.016V-11.375H8.625v1.9H3.359v2.711h4.5ZM9.367-4.3a5.053,5.053,0,0,1,.887-3.148,2.9,2.9,0,0,1,2.434-1.156A2.6,2.6,0,0,1,14.852-7.57L15-8.453h1.984V3.25H14.719V-.727a2.6,2.6,0,0,1-2.047.883,2.878,2.878,0,0,1-2.406-1.172A5.3,5.3,0,0,1,9.367-4.3Zm2.258.16A3.315,3.315,0,0,0,12.051-2.3a1.363,1.363,0,0,0,1.2.634,1.518,1.518,0,0,0,1.469-.829v-3.5a1.506,1.506,0,0,0-1.453-.8,1.38,1.38,0,0,0-1.211.634A3.661,3.661,0,0,0,11.625-4.144ZM23.82-.859A2.831,2.831,0,0,1,21.508.156a2.67,2.67,0,0,1-2.074-.781,3.335,3.335,0,0,1-.73-2.289V-8.453h2.258v5.467q0,1.322,1.2,1.322a1.63,1.63,0,0,0,1.578-.8V-8.453h2.266V0H23.883ZM30.094,0H27.828V-8.453h2.266ZM27.7-10.641a1.112,1.112,0,0,1,.34-.836,1.277,1.277,0,0,1,.926-.328,1.28,1.28,0,0,1,.922.328,1.105,1.105,0,0,1,.344.836,1.108,1.108,0,0,1-.348.844,1.283,1.283,0,0,1-.918.328,1.283,1.283,0,0,1-.918-.328A1.108,1.108,0,0,1,27.7-10.641ZM39.563-4.148a5.07,5.07,0,0,1-.887,3.129A2.843,2.843,0,0,1,36.281.156a2.633,2.633,0,0,1-2.07-.891V3.25H31.953v-11.7h2.094l.078.828a2.654,2.654,0,0,1,2.141-.984A2.862,2.862,0,0,1,38.7-7.453a5.207,5.207,0,0,1,.867,3.188ZM37.3-4.321a3.345,3.345,0,0,0-.418-1.826,1.36,1.36,0,0,0-1.215-.643,1.478,1.478,0,0,0-1.461.815V-2.5a1.5,1.5,0,0,0,1.477.839Q37.3-1.664,37.3-4.321Zm3.3.016a5.013,5.013,0,0,1,.484-2.242A3.546,3.546,0,0,1,42.488-8.07,4.069,4.069,0,0,1,44.6-8.609a3.849,3.849,0,0,1,2.793,1.047A4.2,4.2,0,0,1,48.6-4.719l.016.578A4.418,4.418,0,0,1,47.531-1.02,3.775,3.775,0,0,1,44.617.156,3.793,3.793,0,0,1,41.7-1.016,4.5,4.5,0,0,1,40.609-4.2Zm2.258.16A3.16,3.16,0,0,0,43.32-2.3a1.5,1.5,0,0,0,1.3.638,1.5,1.5,0,0,0,1.281-.63,3.457,3.457,0,0,0,.461-2.015A3.128,3.128,0,0,0,45.9-6.14a1.5,1.5,0,0,0-1.3-.649,1.474,1.474,0,0,0-1.281.646A3.516,3.516,0,0,0,42.867-4.144ZM54.141,0V-11.375h3.984a5.232,5.232,0,0,1,3.141.793,2.712,2.712,0,0,1,1.07,2.324,2.57,2.57,0,0,1-.43,1.473,2.482,2.482,0,0,1-1.2.934,2.4,2.4,0,0,1,1.379.883,2.61,2.61,0,0,1,.5,1.625A3,3,0,0,1,61.547-.859,4.713,4.713,0,0,1,58.563,0Zm2.344-4.953v3.07h2.008a1.938,1.938,0,0,0,1.293-.395,1.353,1.353,0,0,0,.465-1.09,1.428,1.428,0,0,0-1.617-1.586Zm0-1.656h1.734q1.773-.031,1.773-1.414a1.307,1.307,0,0,0-.449-1.113,2.363,2.363,0,0,0-1.418-.34H56.484Z" transform="translate(-5369.693 -3253.191)" fill="#12263f"/>
      <path id="Trazado_826476" data-name="Trazado 826476" d="M2.82-4.453V0H1.32V-11.375h4.2a4.215,4.215,0,0,1,2.926.953A3.231,3.231,0,0,1,9.5-7.9,3.189,3.189,0,0,1,8.465-5.348,4.4,4.4,0,0,1,5.5-4.453Zm0-1.227h2.7a2.7,2.7,0,0,0,1.844-.567A2.075,2.075,0,0,0,8-7.887a2.143,2.143,0,0,0-.641-1.628A2.525,2.525,0,0,0,5.6-10.148H2.82ZM16.32,0a3.036,3.036,0,0,1-.2-.891A3.225,3.225,0,0,1,13.711.156,2.984,2.984,0,0,1,11.66-.551a2.287,2.287,0,0,1-.8-1.793,2.39,2.39,0,0,1,1-2.051,4.733,4.733,0,0,1,2.824-.73h1.406v-.664A1.623,1.623,0,0,0,15.641-7,1.821,1.821,0,0,0,14.3-7.445a2.107,2.107,0,0,0-1.3.391,1.151,1.151,0,0,0-.523.945H11.031a2,2,0,0,1,.449-1.223A3.066,3.066,0,0,1,12.7-8.266a4.1,4.1,0,0,1,1.691-.344,3.342,3.342,0,0,1,2.289.73,2.635,2.635,0,0,1,.859,2.012v3.891a4.757,4.757,0,0,0,.3,1.852V0Zm-2.4-1.1a2.54,2.54,0,0,0,1.289-.352,2.127,2.127,0,0,0,.883-.914V-4.1H14.961Q12.3-4.1,12.3-2.547a1.316,1.316,0,0,0,.453,1.063A1.742,1.742,0,0,0,13.922-1.1Zm5.531-3.2a4.961,4.961,0,0,1,.914-3.152,2.962,2.962,0,0,1,2.453-1.16A2.96,2.96,0,0,1,25.188-7.6l.063-.852h1.328V3.25H25.133V-.781A3.033,3.033,0,0,1,22.8.156a2.915,2.915,0,0,1-2.441-1.191,5.072,5.072,0,0,1-.91-3.16Zm1.445.164a3.761,3.761,0,0,0,.613,2.281,1.951,1.951,0,0,0,1.652.828,2.164,2.164,0,0,0,1.969-1.141V-6.3A2.171,2.171,0,0,0,23.18-7.422a1.965,1.965,0,0,0-1.664.832A4.094,4.094,0,0,0,20.9-4.133Zm13.219,3.3a3.07,3.07,0,0,1-2.477.992,2.628,2.628,0,0,1-2.059-.785,3.4,3.4,0,0,1-.715-2.324v-5.5h1.445v5.461q0,1.922,1.563,1.922a2.163,2.163,0,0,0,2.2-1.234V-8.453h1.445V0H34.148Zm7.109.992a3.693,3.693,0,0,1-2.8-1.129,4.19,4.19,0,0,1-1.078-3.02v-.266a5.073,5.073,0,0,1,.48-2.246,3.748,3.748,0,0,1,1.344-1.547,3.378,3.378,0,0,1,1.871-.559,3.166,3.166,0,0,1,2.563,1.086,4.7,4.7,0,0,1,.914,3.109v.6H38.8a3,3,0,0,0,.73,2.02,2.3,2.3,0,0,0,1.777.77,2.517,2.517,0,0,0,1.3-.312,3.259,3.259,0,0,0,.93-.828l.883.688A3.55,3.55,0,0,1,41.227.156Zm-.18-7.578a1.928,1.928,0,0,0-1.469.637A3.1,3.1,0,0,0,38.844-5h4.234v-.109a2.753,2.753,0,0,0-.594-1.707A1.815,1.815,0,0,0,41.047-7.422ZM48.156-10.5v2.047h1.578v1.117H48.156v5.249a1.173,1.173,0,0,0,.211.763.888.888,0,0,0,.719.254,3.5,3.5,0,0,0,.688-.094V0a4.215,4.215,0,0,1-1.109.155A1.8,1.8,0,0,1,47.2-.43a2.517,2.517,0,0,1-.492-1.664V-7.336H45.172V-8.453h1.539V-10.5ZM54.93.156a3.693,3.693,0,0,1-2.8-1.129,4.19,4.19,0,0,1-1.078-3.02v-.266a5.073,5.073,0,0,1,.48-2.246,3.748,3.748,0,0,1,1.344-1.547,3.378,3.378,0,0,1,1.871-.559,3.166,3.166,0,0,1,2.563,1.086,4.7,4.7,0,0,1,.914,3.109v.6H52.5a3,3,0,0,0,.73,2.02,2.3,2.3,0,0,0,1.777.77,2.517,2.517,0,0,0,1.3-.312,3.259,3.259,0,0,0,.93-.828l.883.688A3.55,3.55,0,0,1,54.93.156Zm-.18-7.578a1.928,1.928,0,0,0-1.469.637A3.1,3.1,0,0,0,52.547-5h4.234v-.109a2.753,2.753,0,0,0-.594-1.707A1.815,1.815,0,0,0,54.75-7.422ZM71.164,0H63.711V-1.039l3.938-4.375a9.354,9.354,0,0,0,1.207-1.613,2.693,2.693,0,0,0,.332-1.285,2.041,2.041,0,0,0-.539-1.461,1.885,1.885,0,0,0-1.437-.57,2.232,2.232,0,0,0-1.676.613,2.343,2.343,0,0,0-.6,1.707H63.492A3.355,3.355,0,0,1,64.5-10.562a3.751,3.751,0,0,1,2.707-.969,3.6,3.6,0,0,1,2.508.832,2.838,2.838,0,0,1,.922,2.215q0,1.68-2.141,4l-3.047,3.3h5.711Z" transform="translate(-5572.82 -3238.887)" fill="#12263f"/>
      <path id="Trazado_194065" data-name="Trazado 194065" d="M9.361,19.913V15.151H0V4.846H9.3V0L26.838,9.968Z" transform="translate(-5546.55 -3254.02) rotate(-90)" fill="#12263f"/>
    </g>
  </g>
</svg>
