<svg xmlns="http://www.w3.org/2000/svg" xmlns:xlink="http://www.w3.org/1999/xlink" width="442.051" height="328.374" viewBox="0 0 442.051 328.374">
  <defs>
    <clipPath id="clip-path">
      <path id="Trazado_165434" data-name="Trazado 165434" d="M0,4.151A4.149,4.149,0,1,0,4.148,0,4.148,4.148,0,0,0,0,4.151" fill="#2efec7"/>
    </clipPath>
    <clipPath id="clip-path-2">
      <path id="Trazado_165438" data-name="Trazado 165438" d="M4.147,0A4.148,4.148,0,1,0,8.3,4.15,4.148,4.148,0,0,0,4.147,0Z" fill="#2efec7"/>
    </clipPath>
    <clipPath id="clip-path-3">
      <path id="Trazado_165440" data-name="Trazado 165440" d="M0,4.151A4.148,4.148,0,1,0,4.148,0,4.149,4.149,0,0,0,0,4.151" fill="#2efec7"/>
    </clipPath>
    <clipPath id="clip-path-4">
      <path id="Trazado_165442" data-name="Trazado 165442" d="M0,4.149A4.148,4.148,0,1,0,4.148,0,4.148,4.148,0,0,0,0,4.149" fill="#2efec7"/>
    </clipPath>
    <clipPath id="clip-path-5">
      <path id="Trazado_165444" data-name="Trazado 165444" d="M4.146,0A4.148,4.148,0,1,0,8.3,4.149,4.147,4.147,0,0,0,4.146,0Z" fill="#2efec7"/>
    </clipPath>
    <clipPath id="clip-path-6">
      <path id="Trazado_165446" data-name="Trazado 165446" d="M0,4.151A4.149,4.149,0,1,0,4.148,0,4.149,4.149,0,0,0,0,4.151" fill="#2efec7"/>
    </clipPath>
    <clipPath id="clip-path-7">
      <path id="Trazado_165448" data-name="Trazado 165448" d="M0,4.149A4.149,4.149,0,1,0,4.15,0h0A4.153,4.153,0,0,0,0,4.149" fill="#2efec7"/>
    </clipPath>
    <clipPath id="clip-path-8">
      <path id="Trazado_165450" data-name="Trazado 165450" d="M4.146,0A4.148,4.148,0,1,0,8.3,4.15,4.147,4.147,0,0,0,4.146,0Z" fill="#2efec7"/>
    </clipPath>
    <clipPath id="clip-path-9">
      <path id="Trazado_165452" data-name="Trazado 165452" d="M0,4.151A4.148,4.148,0,1,0,4.147,0,4.148,4.148,0,0,0,0,4.151" fill="#2efec7"/>
    </clipPath>
    <clipPath id="clip-path-10">
      <path id="Trazado_165454" data-name="Trazado 165454" d="M0,4.149A4.148,4.148,0,1,0,4.147,0,4.147,4.147,0,0,0,0,4.149" fill="#2efec7"/>
    </clipPath>
    <clipPath id="clip-path-12">
      <path id="Trazado_165436" data-name="Trazado 165436" d="M0,4.149A4.149,4.149,0,1,0,4.149,0h0A4.153,4.153,0,0,0,0,4.149" fill="#2efec7"/>
    </clipPath>
    <linearGradient id="linear-gradient" x1="0.5" x2="0.5" y2="1" gradientUnits="objectBoundingBox">
      <stop offset="0" stop-color="#fff"/>
      <stop offset="1" stop-color="#f1f1f1"/>
    </linearGradient>
  </defs>
  <g id="Grupo_1078018" data-name="Grupo 1078018" transform="translate(415.662 5430.707)">
    <g id="Grupo_1078017" data-name="Grupo 1078017">
      <g id="Grupo_1078016" data-name="Grupo 1078016">
        <g id="Grupo_1078015" data-name="Grupo 1078015">
          <g id="Grupo_1078014" data-name="Grupo 1078014">
            <g id="Grupo_1078013" data-name="Grupo 1078013">
              <g id="Grupo_1077828" data-name="Grupo 1077828" transform="translate(5352 -11333)">
                <g id="Grupo_1077781" data-name="Grupo 1077781" transform="translate(-5834.662 5911.483)">
                  <rect id="Rectángulo_373681" data-name="Rectángulo 373681" width="12.041" height="70.838" rx="6.021" transform="translate(500.537 0) rotate(45)" fill="#ffb476"/>
                  <g id="Grupo_1065536" data-name="Grupo 1065536" transform="translate(408.6 284.035) rotate(-90)">
                    <g id="Group_881454" data-name="Group 881454" transform="translate(0 67.421)">
                      <g id="Grupo_108438" data-name="Grupo 108438">
                        <path id="Trazado_165433" data-name="Trazado 165433" d="M0,4.151A4.149,4.149,0,1,0,4.148,0,4.148,4.148,0,0,0,0,4.151" fill="#2efec7"/>
                        <g id="Grupo_108437" data-name="Grupo 108437" clip-path="url(#clip-path)">
                          <g id="Group_881453" data-name="Group 881453" transform="translate(0 0)">
                            <rect id="Rectangle_298909" data-name="Rectangle 298909" width="8.297" height="8.297" fill="#2efec7"/>
                          </g>
                        </g>
                      </g>
                    </g>
                    <g id="Group_881458" data-name="Group 881458" transform="translate(0.001)">
                      <g id="Grupo_108442" data-name="Grupo 108442">
                        <path id="Trazado_165437" data-name="Trazado 165437" d="M4.147,0A4.148,4.148,0,1,0,8.3,4.15,4.148,4.148,0,0,0,4.147,0Z" fill="#2efec7"/>
                        <g id="Grupo_108441" data-name="Grupo 108441" clip-path="url(#clip-path-2)">
                          <g id="Group_881457" data-name="Group 881457" transform="translate(-0.001 0.001)">
                            <rect id="Rectangle_298911" data-name="Rectangle 298911" width="8.297" height="8.295" fill="#2efec7"/>
                          </g>
                        </g>
                      </g>
                    </g>
                    <g id="Group_881460" data-name="Group 881460" transform="translate(28.117 67.421)">
                      <g id="Grupo_108444" data-name="Grupo 108444">
                        <path id="Trazado_165439" data-name="Trazado 165439" d="M0,4.151A4.148,4.148,0,1,0,4.148,0,4.149,4.149,0,0,0,0,4.151" fill="#2efec7"/>
                        <g id="Grupo_108443" data-name="Grupo 108443" clip-path="url(#clip-path-3)">
                          <g id="Group_881459" data-name="Group 881459" transform="translate(0 0)">
                            <rect id="Rectangle_298912" data-name="Rectangle 298912" width="8.297" height="8.297" fill="#2efec7"/>
                          </g>
                        </g>
                      </g>
                    </g>
                    <g id="Group_881462" data-name="Group 881462" transform="translate(28.117 35.091)">
                      <g id="Grupo_108446" data-name="Grupo 108446">
                        <path id="Trazado_165441" data-name="Trazado 165441" d="M0,4.149A4.148,4.148,0,1,0,4.148,0,4.148,4.148,0,0,0,0,4.149" fill="#2efec7"/>
                        <g id="Grupo_108445" data-name="Grupo 108445" clip-path="url(#clip-path-4)">
                          <g id="Group_881461" data-name="Group 881461" transform="translate(0 0)">
                            <rect id="Rectangle_298913" data-name="Rectangle 298913" width="8.297" height="8.297" fill="#2efec7"/>
                          </g>
                        </g>
                      </g>
                    </g>
                    <g id="Group_881464" data-name="Group 881464" transform="translate(28.119)">
                      <g id="Grupo_108448" data-name="Grupo 108448">
                        <path id="Trazado_165443" data-name="Trazado 165443" d="M4.146,0A4.148,4.148,0,1,0,8.3,4.149,4.147,4.147,0,0,0,4.146,0Z" fill="#2efec7"/>
                        <g id="Grupo_108447" data-name="Grupo 108447" clip-path="url(#clip-path-5)">
                          <g id="Group_881463" data-name="Group 881463" transform="translate(-0.002 0.001)">
                            <rect id="Rectangle_298914" data-name="Rectangle 298914" width="8.297" height="8.295" fill="#2efec7"/>
                          </g>
                        </g>
                      </g>
                    </g>
                    <g id="Group_881454-2" data-name="Group 881454" transform="translate(57.451 67.421)">
                      <g id="Grupo_108450" data-name="Grupo 108450">
                        <path id="Trazado_165445" data-name="Trazado 165445" d="M0,4.151A4.149,4.149,0,1,0,4.148,0,4.149,4.149,0,0,0,0,4.151" fill="#2efec7"/>
                        <g id="Grupo_108449" data-name="Grupo 108449" clip-path="url(#clip-path-6)">
                          <g id="Group_881453-2" data-name="Group 881453" transform="translate(0 0)">
                            <rect id="Rectangle_298909-2" data-name="Rectangle 298909" width="8.297" height="8.297" fill="#2efec7"/>
                          </g>
                        </g>
                      </g>
                    </g>
                    <g id="Group_881456" data-name="Group 881456" transform="translate(57.451 35.091)">
                      <g id="Grupo_108452" data-name="Grupo 108452">
                        <path id="Trazado_165447" data-name="Trazado 165447" d="M0,4.149A4.149,4.149,0,1,0,4.15,0h0A4.153,4.153,0,0,0,0,4.149" fill="#2efec7"/>
                        <g id="Grupo_108451" data-name="Grupo 108451" clip-path="url(#clip-path-7)">
                          <g id="Group_881455" data-name="Group 881455" transform="translate(0 0)">
                            <rect id="Rectangle_298910" data-name="Rectangle 298910" width="8.297" height="8.297" fill="#2efec7"/>
                          </g>
                        </g>
                      </g>
                    </g>
                    <g id="Group_881458-2" data-name="Group 881458" transform="translate(57.453)">
                      <g id="Grupo_108454" data-name="Grupo 108454">
                        <path id="Trazado_165449" data-name="Trazado 165449" d="M4.146,0A4.148,4.148,0,1,0,8.3,4.15,4.147,4.147,0,0,0,4.146,0Z" fill="#2efec7"/>
                        <g id="Grupo_108453" data-name="Grupo 108453" clip-path="url(#clip-path-8)">
                          <g id="Group_881457-2" data-name="Group 881457" transform="translate(-0.001 0.001)">
                            <rect id="Rectangle_298911-2" data-name="Rectangle 298911" width="8.297" height="8.295" fill="#2efec7"/>
                          </g>
                        </g>
                      </g>
                    </g>
                    <g id="Group_881460-2" data-name="Group 881460" transform="translate(85.569 67.421)">
                      <g id="Grupo_108456" data-name="Grupo 108456">
                        <path id="Trazado_165451" data-name="Trazado 165451" d="M0,4.151A4.148,4.148,0,1,0,4.147,0,4.148,4.148,0,0,0,0,4.151" fill="#2efec7"/>
                        <g id="Grupo_108455" data-name="Grupo 108455" clip-path="url(#clip-path-9)">
                          <g id="Group_881459-2" data-name="Group 881459" transform="translate(0 0)">
                            <rect id="Rectangle_298912-2" data-name="Rectangle 298912" width="8.297" height="8.297" fill="#2efec7"/>
                          </g>
                        </g>
                      </g>
                    </g>
                    <g id="Group_881462-2" data-name="Group 881462" transform="translate(85.569 35.091)">
                      <g id="Grupo_108458" data-name="Grupo 108458">
                        <path id="Trazado_165453" data-name="Trazado 165453" d="M0,4.149A4.148,4.148,0,1,0,4.147,0,4.147,4.147,0,0,0,0,4.149" fill="#2efec7"/>
                        <g id="Grupo_108457" data-name="Grupo 108457" clip-path="url(#clip-path-10)">
                          <g id="Group_881461-2" data-name="Group 881461" transform="translate(0 0)">
                            <rect id="Rectangle_298913-2" data-name="Rectangle 298913" width="8.297" height="8.297" fill="#2efec7"/>
                          </g>
                        </g>
                      </g>
                    </g>
                    <g id="Group_881464-2" data-name="Group 881464" transform="translate(85.57)">
                      <g id="Grupo_108460" data-name="Grupo 108460">
                        <path id="Trazado_165455" data-name="Trazado 165455" d="M4.146,0A4.148,4.148,0,1,0,8.3,4.149,4.147,4.147,0,0,0,4.146,0Z" fill="#2efec7"/>
                        <g id="Grupo_108459" data-name="Grupo 108459" clip-path="url(#clip-path-5)">
                          <g id="Group_881463-2" data-name="Group 881463" transform="translate(-0.001 0.001)">
                            <rect id="Rectangle_298914-2" data-name="Rectangle 298914" width="8.297" height="8.295" fill="#2efec7"/>
                          </g>
                        </g>
                      </g>
                    </g>
                    <g id="Group_881456-2" data-name="Group 881456" transform="translate(0 35.091)">
                      <g id="Grupo_108440" data-name="Grupo 108440">
                        <path id="Trazado_165435" data-name="Trazado 165435" d="M0,4.149A4.149,4.149,0,1,0,4.149,0h0A4.153,4.153,0,0,0,0,4.149" fill="#2efec7"/>
                        <g id="Grupo_108439" data-name="Grupo 108439" clip-path="url(#clip-path-12)">
                          <g id="Group_881455-2" data-name="Group 881455" transform="translate(0 0)">
                            <rect id="Rectangle_298910-2" data-name="Rectangle 298910" width="8.297" height="8.297" fill="#2efec7"/>
                          </g>
                        </g>
                      </g>
                    </g>
                  </g>
                  <rect id="Rectángulo_373680" data-name="Rectángulo 373680" width="12.987" height="102.47" rx="6.494" transform="translate(139.457 202.395) rotate(45)" fill="#ff6148"/>
                </g>
                <g id="Grupo_1077834" data-name="Grupo 1077834" transform="translate(-6010.412 -1315.704)">
                  <g id="Grupo_152550" data-name="Grupo 152550" transform="translate(286.065 7218.704)">
                    <g id="Grupo_142568" data-name="Grupo 142568">
                      <g id="Grupo_54244" data-name="Grupo 54244" transform="translate(0 187.768)">
                        <rect id="Rectángulo_29332" data-name="Rectángulo 29332" width="75.054" height="11.391" fill="none" stroke="#00223d" stroke-miterlimit="10" stroke-width="1"/>
                        <rect id="Rectángulo_29333" data-name="Rectángulo 29333" width="75.054" height="11.391" transform="translate(0 16.897)" fill="none" stroke="#00223d" stroke-miterlimit="10" stroke-width="1"/>
                        <rect id="Rectángulo_29334" data-name="Rectángulo 29334" width="75.054" height="11.391" transform="translate(0 33.794)" fill="none" stroke="#00223d" stroke-miterlimit="10" stroke-width="1"/>
                        <rect id="Rectángulo_29335" data-name="Rectángulo 29335" width="75.054" height="11.391" transform="translate(0 50.692)" fill="none" stroke="#00223d" stroke-miterlimit="10" stroke-width="1"/>
                      </g>
                      <circle id="Elipse_4063" data-name="Elipse 4063" cx="38.765" cy="38.765" r="38.765" transform="translate(19.397 141.432) rotate(-80.44)" fill="none" stroke="#00223d" stroke-miterlimit="10" stroke-width="1"/>
                      <circle id="Elipse_4064" data-name="Elipse 4064" cx="38.765" cy="38.765" r="38.765" transform="translate(158.117 54.822) rotate(-45)" fill="none" stroke="#00223d" stroke-miterlimit="10" stroke-width="1"/>
                      <g id="Grupo_54253" data-name="Grupo 54253" transform="translate(85.416 100.531)">
                        <g id="Grupo_54252" data-name="Grupo 54252" transform="translate(40.792 175.859)">
                          <rect id="Rectángulo_29337" data-name="Rectángulo 29337" width="59.304" height="51.277" transform="translate(61.884)" fill="#fff"/>
                          <path id="Trazado_116090" data-name="Trazado 116090" d="M374.865,391.622l-59.3-21.756v-8.991h59.3Z" transform="translate(-253.676 -360.875)" fill="#d9d9d9"/>
                          <rect id="Rectángulo_29338" data-name="Rectángulo 29338" width="183.073" height="3.113" transform="translate(0 48.164)" fill="#fff"/>
                        </g>
                        <rect id="Rectángulo_29339" data-name="Rectángulo 29339" width="264.657" height="177.397" transform="translate(0 0)" fill="#fff"/>
                        <rect id="Rectángulo_29340" data-name="Rectángulo 29340" width="52.512" height="7.95" transform="translate(34.767 169.447)" fill="#d9d9d9"/>
                        <rect id="Rectángulo_29341" data-name="Rectángulo 29341" width="253.252" height="163.922" transform="translate(5.702 5.525)" fill="#091c38"/>
                      </g>
                      <g id="Grupo_54255" data-name="Grupo 54255" transform="translate(103.355 56.364)">
                        <path id="Trazado_116091" data-name="Trazado 116091" d="M328.16,236.039H218.577V109.051h84.779l24.8,25Z" transform="translate(-218.577 -109.051)" fill="#dbdada"/>
                        <line id="Línea_1587" data-name="Línea 1587" x2="81.584" transform="translate(7.579 9.445)" fill="none" stroke="#fff" stroke-miterlimit="10" stroke-width="0.742"/>
                        <path id="Trazado_116092" data-name="Trazado 116092" d="M315.608,109.051l24.8,25h-24.8Z" transform="translate(-230.829 -109.051)" fill="#00223d"/>
                        <g id="Grupo_54254" data-name="Grupo 54254" transform="translate(13.367 29.85)">
                          <path id="Trazado_116093" data-name="Trazado 116093" d="M313.1,187.6H237.5a3.628,3.628,0,0,1-3.628-3.628h0a3.627,3.627,0,0,1,3.628-3.627H313.1a3.627,3.627,0,0,1,3.628,3.627h0A3.628,3.628,0,0,1,313.1,187.6Z" transform="translate(-233.875 -147.904)" fill="none" stroke="#fff" stroke-miterlimit="10" stroke-width="0.742"/>
                          <path id="Trazado_116094" data-name="Trazado 116094" d="M313.1,165.783H237.5c-2,0-3.628-5.052-3.628-11.284h0c0-6.231,1.624-11.284,3.628-11.284H313.1c2,0,3.628,5.053,3.628,11.284h0C316.725,160.731,315.1,165.783,313.1,165.783Z" transform="translate(-233.875 -143.215)" fill="#fff"/>
                          <path id="Trazado_116095" data-name="Trazado 116095" d="M313.1,203.991H237.5a3.628,3.628,0,0,1-3.628-3.628h0a3.628,3.628,0,0,1,3.628-3.628H313.1a3.628,3.628,0,0,1,3.628,3.628h0A3.628,3.628,0,0,1,313.1,203.991Z" transform="translate(-233.875 -149.973)" fill="none" stroke="#fff" stroke-miterlimit="10" stroke-width="0.742"/>
                          <path id="Trazado_116096" data-name="Trazado 116096" d="M313.1,220.382H237.5a3.628,3.628,0,0,1-3.628-3.628h0a3.628,3.628,0,0,1,3.628-3.628H313.1a3.628,3.628,0,0,1,3.628,3.628h0A3.628,3.628,0,0,1,313.1,220.382Z" transform="translate(-233.875 -152.043)" fill="none" stroke="#fff" stroke-miterlimit="10" stroke-width="0.742"/>
                          <path id="Trazado_116097" data-name="Trazado 116097" d="M313.1,236.772H237.5a3.628,3.628,0,0,1-3.628-3.628h0a3.628,3.628,0,0,1,3.628-3.628H313.1a3.628,3.628,0,0,1,3.628,3.628h0A3.628,3.628,0,0,1,313.1,236.772Z" transform="translate(-233.875 -154.113)" fill="none" stroke="#fff" stroke-miterlimit="10" stroke-width="0.742"/>
                        </g>
                        <circle id="Elipse_4065" data-name="Elipse 4065" cx="1.638" cy="1.638" r="1.638" transform="translate(10.937 2.974)" fill="none" stroke="#fff" stroke-miterlimit="10" stroke-width="0.742"/>
                        <circle id="Elipse_4066" data-name="Elipse 4066" cx="1.638" cy="1.638" r="1.638" transform="translate(20.111 2.974)" fill="none" stroke="#fff" stroke-miterlimit="10" stroke-width="0.742"/>
                        <circle id="Elipse_4067" data-name="Elipse 4067" cx="1.638" cy="1.638" r="1.638" transform="translate(29.285 2.974)" fill="none" stroke="#fff" stroke-miterlimit="10" stroke-width="0.742"/>
                      </g>
                      <path id="Trazado_116098" data-name="Trazado 116098" d="M494.521,183.351a39.31,39.31,0,0,0,0-12.616H483.346a28.22,28.22,0,0,0-3.657-8.809l7.9-7.9a39.568,39.568,0,0,0-8.921-8.921l-7.9,7.9a28.238,28.238,0,0,0-8.809-3.657V138.173a39.317,39.317,0,0,0-12.617,0v11.175A28.211,28.211,0,0,0,440.535,153l-7.9-7.9a39.594,39.594,0,0,0-8.922,8.921l7.9,7.9a28.214,28.214,0,0,0-3.657,8.809H416.781a39.31,39.31,0,0,0,0,12.616h11.175a28.215,28.215,0,0,0,3.657,8.809l-7.9,7.9a39.616,39.616,0,0,0,8.922,8.922l7.9-7.9a28.221,28.221,0,0,0,8.808,3.657v11.175a39.315,39.315,0,0,0,12.617,0V204.738a28.217,28.217,0,0,0,8.809-3.657l7.9,7.9a39.59,39.59,0,0,0,8.921-8.922l-7.9-7.9a28.221,28.221,0,0,0,3.657-8.809Zm-38.87,10.244A16.551,16.551,0,1,1,472.2,177.044,16.551,16.551,0,0,1,455.651,193.595Z" transform="translate(-140.185 -71.246)" fill="#ff6148"/>
                      <path id="Trazado_116099" data-name="Trazado 116099" d="M403.633,183.025a18.478,18.478,0,0,0,0-5.93h-5.252a13.268,13.268,0,0,0-1.72-4.14l3.715-3.714a18.608,18.608,0,0,0-4.193-4.193l-3.715,3.714a13.244,13.244,0,0,0-4.14-1.719v-5.252a18.48,18.48,0,0,0-5.93,0v5.252a13.254,13.254,0,0,0-4.14,1.719l-3.714-3.714a18.593,18.593,0,0,0-4.193,4.193l3.714,3.714a13.266,13.266,0,0,0-1.719,4.14H367.1a18.48,18.48,0,0,0,0,5.93h5.252a13.266,13.266,0,0,0,1.719,4.14l-3.714,3.714a18.593,18.593,0,0,0,4.193,4.193l3.714-3.714a13.254,13.254,0,0,0,4.14,1.719v5.253a18.48,18.48,0,0,0,5.93,0v-5.253a13.245,13.245,0,0,0,4.14-1.719l3.715,3.714a18.608,18.608,0,0,0,4.193-4.193l-3.715-3.714a13.268,13.268,0,0,0,1.72-4.14Zm-18.269,4.814a7.779,7.779,0,1,1,7.779-7.779A7.779,7.779,0,0,1,385.364,187.839Z" transform="translate(-133.945 -59.316)" fill="#8ec8c8"/>
                      <g id="Grupo_54256" data-name="Grupo 54256" transform="translate(196.395 37.213)">
                        <path id="Trazado_116100" data-name="Trazado 116100" d="M480.115,113.86l-1.29.661a4.653,4.653,0,0,1-2.124.513H423.849v5.137H476.7a4.664,4.664,0,0,1,2.125.512l1.29.661a2.018,2.018,0,0,0,1.464.147l9.635-2.711v-2.355l-9.635-2.711A2.013,2.013,0,0,0,480.115,113.86Z" transform="translate(-363.693 -109.161)" fill="#00223d"/>
                        <path id="Trazado_116101" data-name="Trazado 116101" d="M446.618,115.236H423.849v5.137H433.2a22.95,22.95,0,0,0,9.087-1.876l4.593-1.981A.667.667,0,0,0,446.618,115.236Z" transform="translate(-363.693 -109.363)" fill="#091c38"/>
                        <path id="Trazado_116102" data-name="Trazado 116102" d="M417.208,110.444l-58.684-1.928A3.414,3.414,0,0,0,355,111.928v10.055a3.413,3.413,0,0,0,3.525,3.412l58.684-1.928,2.086,1.145a2.329,2.329,0,0,0,3.449-2.043V111.342a2.33,2.33,0,0,0-3.449-2.043Z" transform="translate(-354.999 -108.514)" fill="#69746b"/>
                        <path id="Trazado_116103" data-name="Trazado 116103" d="M414.006,120.34H361.871a2.531,2.531,0,0,1-2.531-2.531h0a2.531,2.531,0,0,1,2.531-2.531h52.134a2.531,2.531,0,0,1,2.531,2.531h0A2.531,2.531,0,0,1,414.006,120.34Z" transform="translate(-355.547 -109.368)" fill="none" stroke="#fff" stroke-miterlimit="10" stroke-width="0.845"/>
                      </g>
                      <g id="Grupo_54257" data-name="Grupo 54257" transform="translate(103.355 247.26)">
                        <rect id="Rectángulo_29342" data-name="Rectángulo 29342" width="109.584" height="22.718" fill="#1e61bf"/>
                        <line id="Línea_1588" data-name="Línea 1588" x2="102.226" transform="translate(3.679 6.759)" fill="none" stroke="#091c38" stroke-miterlimit="10" stroke-width="0.742"/>
                        <path id="Trazado_116104" data-name="Trazado 116104" d="M238.264,331.236a1.159,1.159,0,1,1-1.159-1.159A1.158,1.158,0,0,1,238.264,331.236Z" transform="translate(-220.77 -327.856)" fill="none" stroke="#091c38" stroke-miterlimit="10" stroke-width="0.742"/>
                        <path id="Trazado_116105" data-name="Trazado 116105" d="M246.43,331.236a1.159,1.159,0,1,1-1.159-1.159A1.159,1.159,0,0,1,246.43,331.236Z" transform="translate(-221.801 -327.856)" fill="none" stroke="#091c38" stroke-miterlimit="10" stroke-width="0.742"/>
                        <circle id="Elipse_4068" data-name="Elipse 4068" cx="1.159" cy="1.159" r="1.159" transform="translate(8.042 2.221)" fill="none" stroke="#091c38" stroke-miterlimit="10" stroke-width="0.742"/>
                      </g>
                      <g id="Grupo_54258" data-name="Grupo 54258" transform="translate(222.551 252.241)">
                        <rect id="Rectángulo_29343" data-name="Rectángulo 29343" width="109.584" height="17.737" fill="#8ec8c8"/>
                        <line id="Línea_1589" data-name="Línea 1589" x2="102.226" transform="translate(3.679 6.759)" fill="none" stroke="#fff" stroke-miterlimit="10" stroke-width="0.742"/>
                        <path id="Trazado_116106" data-name="Trazado 116106" d="M366.521,336.936a1.159,1.159,0,1,1-1.159-1.159A1.159,1.159,0,0,1,366.521,336.936Z" transform="translate(-356.161 -333.556)" fill="none" stroke="#fff" stroke-miterlimit="10" stroke-width="0.742"/>
                        <path id="Trazado_116107" data-name="Trazado 116107" d="M374.687,336.936a1.159,1.159,0,1,1-1.159-1.159A1.159,1.159,0,0,1,374.687,336.936Z" transform="translate(-357.193 -333.556)" fill="none" stroke="#fff" stroke-miterlimit="10" stroke-width="0.742"/>
                        <path id="Trazado_116108" data-name="Trazado 116108" d="M382.852,336.936a1.159,1.159,0,1,1-1.159-1.159A1.159,1.159,0,0,1,382.852,336.936Z" transform="translate(-358.224 -333.556)" fill="none" stroke="#fff" stroke-miterlimit="10" stroke-width="0.742"/>
                      </g>
                      <g id="Grupo_54260" data-name="Grupo 54260" transform="translate(222.551 123.596)">
                        <rect id="Rectángulo_29344" data-name="Rectángulo 29344" width="109.584" height="54.754" transform="translate(0 0)" fill="#fff"/>
                        <line id="Línea_1590" data-name="Línea 1590" x2="102.226" transform="translate(3.679 6.759)" fill="none" stroke="#abc7ff" stroke-miterlimit="10" stroke-width="0.742"/>
                        <circle id="Elipse_4069" data-name="Elipse 4069" cx="1.159" cy="1.159" r="1.159" transform="translate(8.042 2.22)" fill="none" stroke="#abc7ff" stroke-miterlimit="10" stroke-width="0.742"/>
                        <circle id="Elipse_4070" data-name="Elipse 4070" cx="1.159" cy="1.159" r="1.159" transform="translate(15.176 2.22)" fill="none" stroke="#abc7ff" stroke-miterlimit="10" stroke-width="0.742"/>
                        <path id="Trazado_116109" data-name="Trazado 116109" d="M382.852,189.7a1.159,1.159,0,1,1-1.159-1.159A1.159,1.159,0,0,1,382.852,189.7Z" transform="translate(-358.224 -186.32)" fill="none" stroke="#abc7ff" stroke-miterlimit="10" stroke-width="0.742"/>
                        <g id="Grupo_54259" data-name="Grupo 54259" transform="translate(28.933 4.755)">
                          <circle id="Elipse_4071" data-name="Elipse 4071" cx="18.285" cy="18.285" r="18.285" transform="translate(0 25.858) rotate(-45)" fill="#00223d"/>
                          <path id="Trazado_116110" data-name="Trazado 116110" d="M410.736,226.2V213.7a1.271,1.271,0,0,1,1.886-1.112l11.3,6.247a1.27,1.27,0,0,1,0,2.224l-11.3,6.247A1.271,1.271,0,0,1,410.736,226.2Z" transform="translate(-390.971 -194.092)" fill="#fff"/>
                        </g>
                      </g>
                      <g id="Grupo_54261" data-name="Grupo 54261" transform="translate(222.551 183.352)">
                        <rect id="Rectángulo_29345" data-name="Rectángulo 29345" width="109.584" height="64.588" fill="#ffa726"/>
                        <line id="Línea_1591" data-name="Línea 1591" x2="102.226" transform="translate(3.679 6.759)" fill="none" stroke="#fff" stroke-miterlimit="10" stroke-width="0.742"/>
                        <path id="Trazado_116111" data-name="Trazado 116111" d="M366.521,258.092a1.159,1.159,0,1,1-1.159-1.159A1.159,1.159,0,0,1,366.521,258.092Z" transform="translate(-356.161 -254.712)" fill="none" stroke="#fff" stroke-miterlimit="10" stroke-width="0.742"/>
                        <path id="Trazado_116112" data-name="Trazado 116112" d="M374.687,258.092a1.159,1.159,0,1,1-1.159-1.159A1.159,1.159,0,0,1,374.687,258.092Z" transform="translate(-357.193 -254.712)" fill="none" stroke="#fff" stroke-miterlimit="10" stroke-width="0.742"/>
                        <path id="Trazado_116113" data-name="Trazado 116113" d="M382.852,258.092a1.159,1.159,0,1,1-1.159-1.159A1.159,1.159,0,0,1,382.852,258.092Z" transform="translate(-358.224 -254.712)" fill="none" stroke="#fff" stroke-miterlimit="10" stroke-width="0.742"/>
                        <path id="Trazado_116114" data-name="Trazado 116114" d="M458.734,274.056H361.912a2.7,2.7,0,0,1-2.7-2.7h0a2.7,2.7,0,0,1,2.7-2.7h96.822a2.7,2.7,0,0,1,2.7,2.7h0A2.7,2.7,0,0,1,458.734,274.056Z" transform="translate(-355.531 -256.192)" fill="none" stroke="#fff" stroke-miterlimit="10" stroke-width="0.742"/>
                        <path id="Trazado_116115" data-name="Trazado 116115" d="M458.734,286.767H361.912a2.7,2.7,0,0,1-2.7-2.7h0a2.7,2.7,0,0,1,2.7-2.7h96.822a2.7,2.7,0,0,1,2.7,2.7h0A2.7,2.7,0,0,1,458.734,286.767Z" transform="translate(-355.531 -257.797)" fill="none" stroke="#fff" stroke-miterlimit="10" stroke-width="0.742"/>
                        <path id="Trazado_116116" data-name="Trazado 116116" d="M398.937,312.2H361.912a2.7,2.7,0,0,1-2.7-2.7h0a2.7,2.7,0,0,1,2.7-2.7h37.026a2.7,2.7,0,0,1,2.7,2.7h0A2.7,2.7,0,0,1,398.937,312.2Z" transform="translate(-355.531 -261.009)" fill="url(#linear-gradient)"/>
                      </g>
                      <g id="Grupo_54262" data-name="Grupo 54262" transform="translate(287.078 223.945)">
                        <path id="Trazado_116117" data-name="Trazado 116117" d="M452.723,304.217l-23.872-.008,9.949,21.7,4.279-6.667,19.3,12.386,5.363-8.356-19.3-12.386Z" transform="translate(-428.851 -301.274)" fill="#0e2d59"/>
                        <path id="Trazado_116118" data-name="Trazado 116118" d="M452.723,300.859l-23.872-.008,9.949,21.7,4.279-6.668,19.3,12.386,5.363-8.356-19.3-12.386Z" transform="translate(-428.851 -300.85)" fill="#fff"/>
                      </g>
                      <g id="Grupo_54272" data-name="Grupo 54272" transform="translate(103.355 189.229)">
                        <rect id="Rectángulo_29347" data-name="Rectángulo 29347" width="109.584" height="52.154" fill="#fff"/>
                        <line id="Línea_1603" data-name="Línea 1603" x2="102.226" transform="translate(3.679 6.759)" fill="none" stroke="#00223d" stroke-miterlimit="10" stroke-width="0.742"/>
                        <circle id="Elipse_4076" data-name="Elipse 4076" cx="1.159" cy="1.159" r="1.159" transform="translate(8.042 2.22)" fill="none" stroke="#00223d" stroke-miterlimit="10" stroke-width="0.742"/>
                        <path id="Trazado_116140" data-name="Trazado 116140" d="M238.264,264.818a1.159,1.159,0,1,1-1.159-1.159A1.159,1.159,0,0,1,238.264,264.818Z" transform="translate(-220.77 -261.439)" fill="none" stroke="#00223d" stroke-miterlimit="10" stroke-width="0.742"/>
                        <path id="Trazado_116141" data-name="Trazado 116141" d="M246.43,264.818a1.159,1.159,0,1,1-1.159-1.159A1.159,1.159,0,0,1,246.43,264.818Z" transform="translate(-221.801 -261.439)" fill="none" stroke="#00223d" stroke-miterlimit="10" stroke-width="0.742"/>
                        <g id="Grupo_54270" data-name="Grupo 54270" transform="translate(56.765 14.608)">
                          <rect id="Rectángulo_29348" data-name="Rectángulo 29348" width="44.396" height="29.488" transform="translate(0)" fill="#d5f2e8"/>
                          <path id="Trazado_116142" data-name="Trazado 116142" d="M283.545,277.837l16.991,17.148a7.33,7.33,0,0,0,10.414,0l16.991-17.148Z" transform="translate(-283.545 -277.837)" fill="#8ec8c8"/>
                        </g>
                        <g id="Grupo_54271" data-name="Grupo 54271" transform="translate(4.669 18.15)">
                          <path id="Trazado_116143" data-name="Trazado 116143" d="M250.787,285.611H225.78a1.861,1.861,0,0,1-1.86-1.86h0a1.861,1.861,0,0,1,1.86-1.86h25.007a1.86,1.86,0,0,1,1.86,1.86h0A1.86,1.86,0,0,1,250.787,285.611Z" transform="translate(-223.92 -281.891)" fill="none" stroke="#00223d" stroke-miterlimit="10" stroke-width="0.742"/>
                          <path id="Trazado_116144" data-name="Trazado 116144" d="M264.818,296.3H225.78a1.861,1.861,0,0,1-1.86-1.861h0a1.86,1.86,0,0,1,1.86-1.859h39.038a1.86,1.86,0,0,1,1.86,1.859h0A1.861,1.861,0,0,1,264.818,296.3Z" transform="translate(-223.92 -283.241)" fill="none" stroke="#00223d" stroke-miterlimit="10" stroke-width="0.742"/>
                          <path id="Trazado_116145" data-name="Trazado 116145" d="M264.818,306.994H225.78a1.861,1.861,0,0,1-1.86-1.86h0a1.861,1.861,0,0,1,1.86-1.86h39.038a1.86,1.86,0,0,1,1.86,1.86h0A1.86,1.86,0,0,1,264.818,306.994Z" transform="translate(-223.92 -284.591)" fill="none" stroke="#00223d" stroke-miterlimit="10" stroke-width="0.742"/>
                        </g>
                      </g>
                      <g id="Grupo_54275" data-name="Grupo 54275" transform="translate(240.045 265.919)">
                        <rect id="Rectángulo_29349" data-name="Rectángulo 29349" width="75.645" height="51.196" fill="#525d54"/>
                        <path id="Trazado_116148" data-name="Trazado 116148" d="M421.147,363.39h34.669v-14.5H415.8Z" transform="translate(-380.17 -348.891)" fill="#69746b"/>
                        <circle id="Elipse_4078" data-name="Elipse 4078" cx="8.556" cy="8.556" r="8.556" transform="translate(28.615 23.509)" fill="none" stroke="#fff" stroke-miterlimit="10" stroke-width="0.755"/>
                        <path id="Trazado_116149" data-name="Trazado 116149" d="M422.621,383.425h-4.6v-4.6H415.4v4.6h-4.6v2.621h4.6v4.6h2.621v-4.6h4.6Z" transform="translate(-379.539 -352.671)" fill="#fff"/>
                      </g>
                    </g>
                  </g>
                </g>
              </g>
            </g>
          </g>
        </g>
      </g>
    </g>
  </g>
</svg>
