<svg xmlns="http://www.w3.org/2000/svg" xmlns:xlink="http://www.w3.org/1999/xlink" width="470.449" height="117.875" viewBox="0 0 470.449 117.875">
  <defs>
    <filter id="Rectángulo_44533" x="224.013" y="0" width="122" height="60" filterUnits="userSpaceOnUse">
      <feOffset dy="3" input="SourceAlpha"/>
      <feGaussianBlur stdDeviation="3" result="blur"/>
      <feFlood flood-opacity="0.161"/>
      <feComposite operator="in" in2="blur"/>
      <feComposite in="SourceGraphic"/>
    </filter>
    <filter id="Rectángulo_44536" x="348.449" y="0" width="122" height="60" filterUnits="userSpaceOnUse">
      <feOffset dy="3" input="SourceAlpha"/>
      <feGaussianBlur stdDeviation="3" result="blur-2"/>
      <feFlood flood-opacity="0.161"/>
      <feComposite operator="in" in2="blur-2"/>
      <feComposite in="SourceGraphic"/>
    </filter>
    <filter id="Rectángulo_44534" x="224.013" y="57.875" width="122" height="60" filterUnits="userSpaceOnUse">
      <feOffset dy="3" input="SourceAlpha"/>
      <feGaussianBlur stdDeviation="3" result="blur-3"/>
      <feFlood flood-opacity="0.161"/>
      <feComposite operator="in" in2="blur-3"/>
      <feComposite in="SourceGraphic"/>
    </filter>
    <filter id="Rectángulo_44535" x="348.449" y="57.875" width="122" height="60" filterUnits="userSpaceOnUse">
      <feOffset dy="3" input="SourceAlpha"/>
      <feGaussianBlur stdDeviation="3" result="blur-4"/>
      <feFlood flood-opacity="0.161"/>
      <feComposite operator="in" in2="blur-4"/>
      <feComposite in="SourceGraphic"/>
    </filter>
  </defs>
  <g id="Grupo_1076986" data-name="Grupo 1076986" transform="translate(6011 1577.568)">
    <g id="IXo3o1" transform="translate(-9169.373 -4534.85)">
      <g id="Grupo_151236" data-name="Grupo 151236" transform="translate(3158.373 2970.073)">
        <path id="Trazado_193053" data-name="Trazado 193053" d="M3251.1,3036.241v6.182h.952q4.793,0,9.586,0a2.759,2.759,0,0,1,2.748,1.9c.414,1.111.071,1.616-1.119,1.616q-14.763.005-29.527,0-3.595,0-7.189-.007c-.99,0-1.282-.369-1.072-1.327a2.722,2.722,0,0,1,2.7-2.176c3.252-.015,6.5-.008,9.757-.009h.917V3036.2h-35.592c-1.744,0-2.472-.709-2.472-2.412q0-26.7.009-53.4c0-.371-.01-.743.021-1.112a1.85,1.85,0,0,1,1.757-1.764c.255-.021.513-.014.77-.014q24.561,0,49.123,0,17.116,0,34.232,0c1.773,0,2.493.705,2.492,2.466q0,20.8,0,41.6,0,6.119,0,12.239c0,1.648-.769,2.39-2.407,2.39q-17.539,0-35.079,0C3251.474,3036.2,3251.252,3036.229,3251.1,3036.241Zm-6.18-7.844v0h36.443c1.727,0,2.075-.335,2.075-2.029q0-20.537,0-41.075c0-1.692-.427-2.106-2.133-2.106l-39.019,0h-33.634c-1.7,0-2.144.427-2.145,2.086q0,20.488,0,40.976c0,1.823.328,2.153,2.13,2.153Zm.053,6.368a2.665,2.665,0,0,0,.031-5.33,2.666,2.666,0,1,0-.031,5.33Z" transform="translate(-3193.521 -2976.229)" fill="#fff"/>
        <path id="Trazado_193054" data-name="Trazado 193054" d="M3802.722,3016.322q0-11.725,0-23.451,0-8.724,0-17.447a5.05,5.05,0,0,1,5.362-5.344q15.53-.005,31.06-.006a5.1,5.1,0,0,1,5.23,5.166q.005,14.507-.019,29.014,0,12.579.022,25.157.007,13.948,0,27.9a5.1,5.1,0,0,1-5.184,5.3c-8.131.03-16.262.009-24.393.008-2.167,0-4.335-.038-6.5.011a5.273,5.273,0,0,1-5.6-5.577c.066-13.575.028-27.151.028-40.727Zm5.532-40.662v81.41h30.634v-81.41Z" transform="translate(-3692.382 -2970.073)" fill="#fff"/>
        <path id="Trazado_193055" data-name="Trazado 193055" d="M3209.8,3434.981q-24.518,0-49.036-.008a7.241,7.241,0,0,1-1.77-.206c-.584-.149-.813-.479-.428-1.134,1.66-2.819,3.267-5.668,4.9-8.5.895-1.554,1.823-3.089,2.689-4.659a2.227,2.227,0,0,1,1.768-1.174,13.8,13.8,0,0,1,1.876-.12q12.538-.01,25.077,0c3.531,0,7.063.072,10.594.068q21.6-.026,43.2-.074c1.108,0,2.32-.139,3.187.667a12.1,12.1,0,0,1,1.706,2.322q3.66,5.605,7.29,11.23c.645.993.525,1.29-.66,1.51a5.615,5.615,0,0,1-1.019.076q-20.54,0-41.081,0h-8.3Zm-45.934-2.071H3255.6c-.072-.163-.1-.264-.156-.353-2.116-3.6-4.221-7.215-6.374-10.8a1.382,1.382,0,0,0-1.018-.537q-18.273-.065-36.547-.068c-5.531,0-11.061.037-16.591.042q-12.112.011-24.225-.016a1.186,1.186,0,0,0-1.226.806c-.447.953-.927,1.89-1.41,2.825C3166.687,3427.465,3165.311,3430.114,3163.862,3432.911Z" transform="translate(-3158.373 -3342.273)" fill="#fff"/>
        <path id="Trazado_193056" data-name="Trazado 193056" d="M3255.015,3445.95q9.245,0,18.49,0a3.227,3.227,0,0,0,1.1-.1.8.8,0,0,0,.42-.627c-.077-.99-.418-1.238-1.555-1.238q-15.664,0-31.329,0c-2.026,0-4.052-.012-6.078.014-.753.01-1.1.48-1.069,1.352.025.712.621.514,1.023.594a3.562,3.562,0,0,0,.683.009Zm13.689-5.121v0c1.426,0,2.852.016,4.277-.012.352-.007.966-.1,1-.253a1.573,1.573,0,0,0-.222-1.192,1.612,1.612,0,0,0-1.116-.463q-4.362-.056-8.725-.009c-.95.01-1.3.6-.8,1.4a1.568,1.568,0,0,0,1.14.509C3265.736,3440.864,3267.221,3440.829,3268.7,3440.829Zm-54.2,2.364a6.929,6.929,0,0,0,1.128.193q4.439.024,8.879,0c.333,0,.791,0,.971-.2a6.407,6.407,0,0,0,.754-1.345,3.645,3.645,0,0,0-1.034-.338c-2.9-.03-5.806-.027-8.708-.02C3215.085,3441.489,3214.966,3441.6,3214.5,3443.192Zm70.607.91-.229.344c.415.472.767,1.253,1.258,1.354a14.9,14.9,0,0,0,3.307.086.892.892,0,0,0,.49-.4c-.263-.477-.536-1.275-.889-1.318A32.747,32.747,0,0,0,3285.109,3444.1Zm-5.058-.123V3444a14.224,14.224,0,0,0-1.538.018.8.8,0,0,0-.579.383c-.158.429.53,1.44,1.02,1.468,1.079.062,2.164.073,3.244.032a.782.782,0,0,0,.5-.58,1.331,1.331,0,0,0-1.454-1.335C3280.85,3443.965,3280.45,3443.979,3280.051,3443.979Zm-56.773,0a8.8,8.8,0,0,1-1.021-.006,1.351,1.351,0,0,0-1.613,1.231c-.041.195.2.642.315.646a18.618,18.618,0,0,0,3.551-.076c.359-.059.591-.9.881-1.38a7.38,7.38,0,0,0-1.094-.4A4.977,4.977,0,0,0,3223.278,3443.979Zm74.026,1.808c-.424-.872-.567-1.743-1.587-1.777-.994-.034-1.991-.034-2.985,0a.9.9,0,0,0-.491.392c.262.479.489,1.214.89,1.335A9.189,9.189,0,0,0,3297.3,3445.787Zm-66.908-1.809,0-.033c-.594.037-1.194.035-1.781.121-.79.116-.7.875-.861,1.405a1.865,1.865,0,0,0,.924.444,20.491,20.491,0,0,0,2.727-.008,1.086,1.086,0,0,0,1-1.448c-.073-.245-.684-.371-1.069-.468A3.965,3.965,0,0,0,3230.4,3443.978Zm-17.071,1.852a13.085,13.085,0,0,0,4.037-.029.523.523,0,0,0,.347-.231c.188-.433.334-.885.5-1.329a7.107,7.107,0,0,0-1.117-.251c-.625-.042-1.255-.016-1.882-.01C3213.953,3443.991,3213.524,3444.387,3213.325,3445.83Zm58.956-4.317v-.04a7.255,7.255,0,0,0-1.023.01c-.341.049-.932.142-.954.286a1.7,1.7,0,0,0,.249,1.2,1.6,1.6,0,0,0,1.044.415,19.606,19.606,0,0,0,2.048.018c1.165-.013,1.416-.382.888-1.4a1.078,1.078,0,0,0-.72-.464A10.676,10.676,0,0,0,3272.281,3441.512Zm-20.689,1.878c.427,0,.856.017,1.282,0,.611-.031.983-.228.965-.984s-.364-.952-.995-.936c-.825.022-1.649.062-2.474.092-.483.018-.885.065-.936.719a.9.9,0,0,0,.877,1.1A10.267,10.267,0,0,0,3251.592,3443.39Zm-31.159-4.238a1.91,1.91,0,0,0-.521-.208c-.737-.033-1.476-.056-2.214-.047-1.308.016-1.588.267-1.97,1.854.837.025,1.636.065,2.435.069C3219.815,3440.829,3219.873,3440.781,3220.433,3439.153Zm38.014,1.675v-.009c.425,0,.853.032,1.274-.01.373-.038.848-.015.809-.624-.034-.529.069-1.157-.72-1.208-.845-.054-1.694-.1-2.539-.068-.513.018-1.063.023-1.037.872.025.817.428,1.03,1.108,1.045C3257.71,3440.834,3258.079,3440.827,3258.447,3440.827Zm29.1-.137.155-.245c-.275-.436-.453-1.1-.844-1.266a7.239,7.239,0,0,0-4.15-.075c.453.666.719,1.472,1.088,1.522A28.071,28.071,0,0,0,3287.549,3440.69Zm-58.252-.183c.576.337,3.465.547,3.867.138a2.585,2.585,0,0,0,.487-1.363c.014-.085-.529-.341-.832-.379a12.867,12.867,0,0,0-1.619-.024C3229.715,3438.888,3229.6,3438.991,3229.3,3440.508Zm-6.759.2a9.023,9.023,0,0,0,3.843-.081c.314-.094.434-.842.642-1.289a3.825,3.825,0,0,0-.993-.434,10.5,10.5,0,0,0-1.709-.017C3223.015,3438.928,3222.758,3439.18,3222.538,3440.705Zm61.241.859c.382.681.532,1.389.9,1.536a6.177,6.177,0,0,0,4.178-.05c-.292-.576-.609-1.364-1.029-1.423A30.3,30.3,0,0,0,3283.779,3441.564Zm-2.749-.962a5.789,5.789,0,0,0-.783-1.427c-.542-.506-3.216-.394-4.032.137.235.441.389,1.2.74,1.3A7.815,7.815,0,0,0,3281.031,3440.6Zm8.4-1.5c.405.619.6,1.3.993,1.448a7.766,7.766,0,0,0,4.224.074c-.5-.649-.767-1.357-1.22-1.51A7.342,7.342,0,0,0,3289.43,3439.107Zm-51.341,1.722,0,.032a15.32,15.32,0,0,0,1.61-.119c.678-.119.7-.726.632-1.21a.972.972,0,0,0-.7-.6,15.9,15.9,0,0,0-2.552-.005,1.1,1.1,0,0,0-1,1.374c.1.273.684.407,1.072.514A3.636,3.636,0,0,0,3238.089,3440.829Zm39.112.721c-.06,1.341.332,1.8,1.505,1.834a14.664,14.664,0,0,0,2.048-.008,3.607,3.607,0,0,0,1.037-.477c-.291-.45-.538-1.243-.882-1.287A28.9,28.9,0,0,0,3277.2,3441.55Zm18.6,1.685c-.511-1.613-.682-1.746-2.113-1.753-.566,0-1.134-.013-1.7.01-.374.014-.745.081-1.335.149.443.638.663,1.333,1.084,1.491A7.936,7.936,0,0,0,3295.8,3443.235Zm-30.347-1.736v-.012c-.369,0-.738-.009-1.105,0-1.062.031-1.313.333-.883,1.3a1.509,1.509,0,0,0,1.073.578,15.482,15.482,0,0,0,2.208.028c1.015-.017,1.26-.317.891-1.237a1.324,1.324,0,0,0-.832-.629A5.68,5.68,0,0,0,3265.456,3441.5Zm-6.9-.022v.013c-.427,0-.856-.027-1.28.009-.367.031-.872-.067-.85.561.019.547-.129,1.231.736,1.262,1.02.036,2.043.055,3.063.012.369-.016.609-.223.575-.75-.059-.9-.485-1.181-1.3-1.111C3259.186,3441.5,3258.871,3441.477,3258.558,3441.477Zm-20.633.007,0-.032c-.594.036-1.195.028-1.78.121-.664.1-.593.718-.573,1.158a.865.865,0,0,0,.584.611,25.48,25.48,0,0,0,2.973,0c.808-.046.871-.691.859-1.311-.013-.684-.579-.485-.955-.532A8.994,8.994,0,0,0,3237.925,3441.484Zm6.551,1.908,0,.03c.508-.034,1.015-.088,1.523-.1.854-.015.879-.573.878-1.216,0-.75-.558-.6-.964-.615-.789-.038-1.582,0-2.372-.022-.84-.028-1.029.454-1.059,1.171-.035.848.608.661,1.059.739A5.535,5.535,0,0,0,3244.475,3443.392Zm.35-2.55v-.034c.454,0,.909,0,1.363,0,.754,0,.807-.522.856-1.1.057-.666-.384-.778-.844-.8a20.694,20.694,0,0,0-2.3.006c-.86.052-1.151.421-1.073,1.342.06.715.665.438,1.063.508C3244.2,3440.812,3244.515,3440.815,3244.826,3440.842Zm-13.757.646v-.022a5.38,5.38,0,0,0-1.759.135c-.349.148-.535.741-.722,1.167-.048.109.176.487.279.489a24.185,24.185,0,0,0,3.609-.084c.267-.036.429-.857.639-1.317a5.092,5.092,0,0,0-.942-.354A6.558,6.558,0,0,0,3231.068,3441.488Zm.888-3.2.013.085a5.513,5.513,0,0,0,1.8-.336c.325-.183.417-.837.515-1.3a1.458,1.458,0,0,0-.8-.363c-.793-.041-1.591-.01-2.386.022-.847.034-1,.731-1.024,1.33-.032.67.61.511,1.028.558A7.63,7.63,0,0,0,3231.957,3438.292Zm45.439-1.924v.005c-.454,0-.909-.016-1.363,0-.469.021-.639.241-.507.734.17.63.457,1.121,1.163,1.15a22.892,22.892,0,0,0,2.553-.013.813.813,0,0,0,.588-.519,1.291,1.291,0,0,0-1.241-1.356C3278.193,3436.342,3277.793,3436.368,3277.4,3436.368Zm-19.2,1.916v.006a8.341,8.341,0,0,0,1.019-.008c.437-.054,1.033.086,1.034-.663,0-.719-.148-1.3-1.065-1.263-.679.026-1.36,0-2.04,0-.606,0-1.035.174-1.041.917-.005.71.385.953.988,1C3257.452,3438.307,3257.822,3438.284,3258.191,3438.284Zm-6.593.68c-.34,0-.68-.008-1.02,0-.477.013-.977-.061-1.005.688-.028.728.191,1.135.974,1.133.707,0,1.414.051,2.12.036.534-.011,1.076.009,1.1-.82.021-.808-.344-1.061-1.062-1.042C3252.335,3438.971,3251.966,3438.963,3251.6,3438.964Zm13-2.6c-.368,0-.737-.011-1.1,0-.854.032-1.029.3-.834,1.134a.98.98,0,0,0,1.057.784c.65.027,1.3.023,1.954.007.465-.011,1.056.066,1.109-.6a1.073,1.073,0,0,0-1.162-1.322C3265.276,3436.35,3264.936,3436.361,3264.6,3436.36Zm-25.719-.008v-.014c-.51.023-1.026.01-1.531.079-.761.1-.62.8-.7,1.281-.026.156.358.532.573.547a19.927,19.927,0,0,0,2.64.009c.821-.052.978-.689.931-1.352-.049-.686-.646-.491-1.061-.542A7.084,7.084,0,0,0,3238.877,3436.352Zm49.544.113c.168,1.326.632,1.792,1.764,1.823.651.018,1.3.025,1.954-.008a6.241,6.241,0,0,0,1.065-.282c-.509-.613-.837-1.4-1.283-1.47A21.452,21.452,0,0,0,3288.42,3436.465Zm-71.426,1.492c.675.441,3.325.547,3.817.041a4.618,4.618,0,0,0,.64-1.34,6.534,6.534,0,0,0-1.077-.294,11.889,11.889,0,0,0-1.445,0C3217.548,3436.389,3217.358,3436.548,3216.995,3437.958Zm69.537.133c-.372-.833-.484-1.645-1.436-1.7-.852-.049-1.709-.043-2.561-.009a1.1,1.1,0,0,0-.562.34c.211.47.369,1.177.74,1.323A6.656,6.656,0,0,0,3286.531,3438.09Zm-15.551-1.725v.018a8.275,8.275,0,0,0-1.362.023c-.209.035-.536.312-.537.481-.005.653.163,1.3.972,1.359a21.623,21.623,0,0,0,2.645,0,.812.812,0,0,0,.612-.454,1.285,1.285,0,0,0-1.218-1.424C3271.723,3436.347,3271.351,3436.365,3270.981,3436.365Zm-25.9,1.926,0,.039c.508-.04,1.02-.052,1.522-.128.529-.08.632-.451.6-.946s-.188-.829-.729-.846c-.739-.024-1.478-.054-2.217-.043-.89.012-1.128.276-1.133,1.212,0,.791.616.666,1.1.709C3244.514,3438.312,3244.8,3438.291,3245.084,3438.291Zm-19.042-1.931v-.022a12.69,12.69,0,0,0-1.528.087c-.726.125-.823.79-.966,1.354-.028.113.247.435.385.436a15.208,15.208,0,0,0,3.115-.123c.348-.07.554-.851.824-1.308a9.484,9.484,0,0,0-1.066-.413A3.1,3.1,0,0,0,3226.042,3436.36Zm25.866,1.88a9.768,9.768,0,0,0,1.058-.007c.618-.057.72-.47.709-1.026-.01-.539-.211-.8-.737-.8-.736,0-1.471,0-2.207.02-.909.024-1.114.24-1.057,1.215.041.682.633.6,1.081.649A8.593,8.593,0,0,0,3251.908,3438.24Z" transform="translate(-3203.917 -3356.508)" fill="#fff"/>
        <path id="Trazado_193057" data-name="Trazado 193057" d="M3453.017,3289.425c-.005,1.174-.279,1.415-1.593,1.4-1.051-.01-1.37-.36-1.361-1.5.009-1.12.353-1.416,1.634-1.406C3452.763,3287.935,3453.023,3288.23,3453.017,3289.425Zm-1.5.72c.281-.309.612-.525.584-.673a.9.9,0,0,0-.537-.555c-.1-.037-.463.289-.487.477S3451.3,3289.806,3451.517,3290.145Z" transform="translate(-3400.122 -3233.507)" fill="#fff"/>
        <path id="Trazado_193058" data-name="Trazado 193058" d="M3887.914,3242.918a6.268,6.268,0,0,1,6.166-6.228,6.238,6.238,0,1,1,.068,12.475A6.266,6.266,0,0,1,3887.914,3242.918Z" transform="translate(-3763.009 -3191.043)" fill="#fff"/>
        <path id="Trazado_193059" data-name="Trazado 193059" d="M3864.852,3424.055h10.606c1.254,0,1.645.38,1.654,1.622q.012,1.625,0,3.25c-.01,1.055-.37,1.439-1.434,1.485-.769.033-1.539.011-2.309.011h-18.731c-1.841,0-2.11-.273-2.109-2.133,0-.884-.006-1.768.012-2.651.024-1.182.44-1.585,1.622-1.586Q3859.506,3424.05,3864.852,3424.055Zm7.759,4.388v-.008a15.6,15.6,0,0,0,1.7-.012c.849-.094.869-.746.846-1.408-.021-.622-.3-.943-.945-.936-.995.011-1.989,0-2.984,0-1.031.005-1.21.179-1.226,1.164-.015.9.27,1.179,1.241,1.193C3871.7,3428.448,3872.156,3428.443,3872.611,3428.443Zm-7.732-2.359v0c-.512,0-1.026.027-1.535-.006-.827-.053-1.121.357-1.106,1.128.017.9.27,1.214,1.131,1.229.938.017,1.877.008,2.816,0,.986-.009,1.2-.231,1.2-1.21s-.158-1.139-1.226-1.145C3865.732,3426.081,3865.305,3426.083,3864.878,3426.083Zm-7.766,2.358v-.006c.57,0,1.144.041,1.709-.01.889-.079.832-.757.833-1.4s-.264-.95-.92-.941c-1.111.014-2.223,0-3.334.008a.832.832,0,0,0-.915.894c-.065,1.1.238,1.446,1.344,1.458C3856.257,3428.446,3856.685,3428.441,3857.112,3428.441Z" transform="translate(-3733.679 -3346.327)" fill="#fff"/>
        <path id="Trazado_193060" data-name="Trazado 193060" d="M3864.843,3049.887c-3.363,0-6.726.006-10.089,0a1.978,1.978,0,0,1-1.946-2.916,2.03,2.03,0,0,1,2.171-1.166q6.926-.007,13.852,0c2.052,0,4.1-.01,6.156,0a1.978,1.978,0,0,1,2,1.174,1.875,1.875,0,0,1-.377,2.284,2.838,2.838,0,0,1-1.681.6C3871.57,3049.914,3868.206,3049.887,3864.843,3049.887Z" transform="translate(-3733.739 -3032.832)" fill="#fff"/>
        <path id="Trazado_193061" data-name="Trazado 193061" d="M3864.837,3089.868c-3.362,0-6.725.012-10.087-.006a2.012,2.012,0,0,1-1.913-3.007,2.066,2.066,0,0,1,2.139-1.082q7.908,0,15.815,0c1.425,0,2.85-.012,4.274.007a1.935,1.935,0,0,1,1.915,1.168,1.853,1.853,0,0,1-.376,2.282,3.05,3.05,0,0,1-1.767.61C3871.505,3089.9,3868.171,3089.869,3864.837,3089.868Z" transform="translate(-3733.735 -3065.962)" fill="#fff"/>
        <path id="Trazado_193062" data-name="Trazado 193062" d="M3864.913,3125.788H3875a1.944,1.944,0,0,1,1.952,1.109,1.88,1.88,0,0,1-.308,2.295,2.573,2.573,0,0,1-1.569.654c-6.326.042-12.653.025-18.979.023-.454,0-.908.012-1.361,0a1.958,1.958,0,0,1-2.141-2.041,1.989,1.989,0,0,1,2.146-2.041C3858.13,3125.779,3861.521,3125.787,3864.913,3125.788Z" transform="translate(-3733.735 -3099.125)" fill="#fff"/>
        <path id="Trazado_193063" data-name="Trazado 193063" d="M3864.979,3169.82c-3.393,0-6.785.013-10.177-.006a1.993,1.993,0,0,1-1.924-2.941,1.94,1.94,0,0,1,2.019-1.132c3.508-.015,7.016-.009,10.525-.009q4.836,0,9.672,0a1.938,1.938,0,0,1,1.93,1.144,1.774,1.774,0,0,1-.241,2.149,3.012,3.012,0,0,1-1.789.752c-3.337.072-6.676.034-10.014.034Z" transform="translate(-3733.795 -3132.232)" fill="#fff"/>
        <path id="Trazado_193064" data-name="Trazado 193064" d="M3913.779,3352.2a2.715,2.715,0,0,1-2.781,2.727,2.731,2.731,0,1,1,.081-5.46A2.758,2.758,0,0,1,3913.779,3352.2Z" transform="translate(-3779.881 -3284.51)" fill="#fff"/>
        <path id="Trazado_193065" data-name="Trazado 193065" d="M3359.877,3482.932h-18.319a3.562,3.562,0,0,1-.683-.009c-.4-.081-1,.117-1.023-.594-.03-.872.316-1.342,1.069-1.352,2.026-.027,4.052-.014,6.078-.014q15.664,0,31.329,0c1.137,0,1.478.248,1.555,1.238a.8.8,0,0,1-.42.627,3.227,3.227,0,0,1-1.1.1Q3369.123,3482.936,3359.877,3482.932Z" transform="translate(-3308.779 -3393.491)" fill="#fff"/>
        <path id="Trazado_193066" data-name="Trazado 193066" d="M3508.637,3453.115c-1.483,0-2.967.035-4.448-.023a1.568,1.568,0,0,1-1.14-.509c-.5-.8-.15-1.389.8-1.4q4.362-.047,8.725.009a1.612,1.612,0,0,1,1.116.463,1.573,1.573,0,0,1,.222,1.192c-.032.151-.646.246-1,.253-1.425.028-2.851.012-4.277.012Z" transform="translate(-3443.85 -3368.794)" fill="#fff"/>
        <path id="Trazado_193067" data-name="Trazado 193067" d="M3220.2,3468.088c.464-1.593.584-1.7,1.99-1.707,2.9-.007,5.806-.01,8.708.02a3.644,3.644,0,0,1,1.034.338,6.431,6.431,0,0,1-.754,1.345c-.18.2-.638.2-.971.2q-4.44.02-8.879,0A6.852,6.852,0,0,1,3220.2,3468.088Z" transform="translate(-3209.614 -3381.404)" fill="#fff"/>
        <path id="Trazado_193068" data-name="Trazado 193068" d="M3631.492,3481.551a32.746,32.746,0,0,1,3.938.063c.353.043.626.841.889,1.318a.892.892,0,0,1-.49.4,14.9,14.9,0,0,1-3.307-.086c-.491-.1-.843-.882-1.258-1.354Z" transform="translate(-3550.299 -3393.957)" fill="#fff"/>
        <path id="Trazado_193069" data-name="Trazado 193069" d="M3592.7,3480.944c.4,0,.8-.015,1.2,0a1.33,1.33,0,0,1,1.453,1.335.782.782,0,0,1-.5.58c-1.08.041-2.165.03-3.244-.032-.49-.028-1.177-1.04-1.02-1.468a.8.8,0,0,1,.579-.383,14.224,14.224,0,0,1,1.538-.018Z" transform="translate(-3516.563 -3393.473)" fill="#fff"/>
        <path id="Trazado_193070" data-name="Trazado 193070" d="M3258.684,3480.858a5.046,5.046,0,0,1,1.019.013,7.363,7.363,0,0,1,1.094.4c-.29.482-.521,1.321-.88,1.38a18.621,18.621,0,0,1-3.551.076c-.119,0-.356-.451-.315-.646a1.351,1.351,0,0,1,1.613-1.231A8.581,8.581,0,0,0,3258.684,3480.858Z" transform="translate(-3239.322 -3393.389)" fill="#fff"/>
        <path id="Trazado_193071" data-name="Trazado 193071" d="M3679.312,3482.8a9.193,9.193,0,0,1-4.173-.047c-.4-.121-.628-.857-.89-1.335a.9.9,0,0,1,.491-.392c.994-.036,1.991-.036,2.985,0C3678.744,3481.059,3678.888,3481.93,3679.312,3482.8Z" transform="translate(-3585.924 -3393.523)" fill="#fff"/>
        <path id="Trazado_193072" data-name="Trazado 193072" d="M3300.229,3480.8a3.952,3.952,0,0,1,.935.015c.385.1,1,.223,1.069.468a1.086,1.086,0,0,1-1,1.448,20.532,20.532,0,0,1-2.727.008,1.869,1.869,0,0,1-.924-.445c.163-.531.071-1.289.861-1.405.587-.086,1.187-.084,1.781-.121Z" transform="translate(-3273.75 -3393.331)" fill="#fff"/>
        <path id="Trazado_193073" data-name="Trazado 193073" d="M3213.325,3482.755c.2-1.443.628-1.839,1.881-1.851.628-.006,1.257-.032,1.882.01a7.107,7.107,0,0,1,1.117.251c-.162.445-.308.9-.5,1.329a.523.523,0,0,1-.347.231A13.085,13.085,0,0,1,3213.325,3482.755Z" transform="translate(-3203.917 -3393.434)" fill="#fff"/>
        <path id="Trazado_193074" data-name="Trazado 193074" d="M3548.008,3466.3a10.676,10.676,0,0,1,1.532.021,1.078,1.078,0,0,1,.72.464c.528,1.018.277,1.387-.888,1.4a19.606,19.606,0,0,1-2.048-.018,1.6,1.6,0,0,1-1.044-.415,1.7,1.7,0,0,1-.249-1.2c.022-.144.613-.237.954-.286a7.255,7.255,0,0,1,1.023-.01Z" transform="translate(-3479.644 -3381.297)" fill="#fff"/>
        <path id="Trazado_193075" data-name="Trazado 193075" d="M3426.355,3468.209a10.083,10.083,0,0,1-1.281-.011.9.9,0,0,1-.877-1.1c.052-.654.454-.7.936-.719.825-.03,1.649-.07,2.474-.092.631-.017.977.189.995.935s-.354.954-.965.985C3427.21,3468.227,3426.782,3468.209,3426.355,3468.209Z" transform="translate(-3378.68 -3381.328)" fill="#fff"/>
        <path id="Trazado_193076" data-name="Trazado 193076" d="M3232.061,3451.534c-.56,1.628-.618,1.677-2.271,1.668-.8,0-1.6-.044-2.435-.069.382-1.587.662-1.838,1.97-1.854.738-.009,1.477.014,2.214.046A1.91,1.91,0,0,1,3232.061,3451.534Z" transform="translate(-3215.544 -3368.89)" fill="#fff"/>
        <path id="Trazado_193077" data-name="Trazado 193077" d="M3466.155,3453.226c-.368,0-.737.007-1.105,0-.679-.015-1.082-.228-1.108-1.045-.026-.849.524-.855,1.037-.872.845-.029,1.694.014,2.539.068.789.051.686.679.72,1.208.039.609-.435.586-.809.624-.421.042-.849.01-1.274.01Z" transform="translate(-3411.624 -3368.907)" fill="#fff"/>
        <path id="Trazado_193078" data-name="Trazado 193078" d="M3623.42,3452.8a28.071,28.071,0,0,1-3.751-.063c-.369-.05-.634-.856-1.088-1.522a7.237,7.237,0,0,1,4.15.075c.39.166.568.83.844,1.266Z" transform="translate(-3539.788 -3368.623)" fill="#fff"/>
        <path id="Trazado_193079" data-name="Trazado 193079" d="M3306.611,3452.75c.3-1.517.418-1.62,1.9-1.627a12.821,12.821,0,0,1,1.619.024c.3.037.845.293.832.378a2.585,2.585,0,0,1-.487,1.363C3310.076,3453.3,3307.187,3453.087,3306.611,3452.75Z" transform="translate(-3281.231 -3368.75)" fill="#fff"/>
        <path id="Trazado_193080" data-name="Trazado 193080" d="M3267.135,3452.9c.22-1.525.478-1.777,1.783-1.822a10.5,10.5,0,0,1,1.709.017,3.825,3.825,0,0,1,.993.434c-.209.447-.328,1.2-.642,1.289A9.023,9.023,0,0,1,3267.135,3452.9Z" transform="translate(-3248.514 -3368.704)" fill="#fff"/>
        <path id="Trazado_193081" data-name="Trazado 193081" d="M3624.831,3466.689a30.3,30.3,0,0,1,4.053.063c.42.06.738.847,1.029,1.423a6.177,6.177,0,0,1-4.178.05C3625.363,3468.078,3625.213,3467.37,3624.831,3466.689Z" transform="translate(-3544.968 -3381.633)" fill="#fff"/>
        <path id="Trazado_193082" data-name="Trazado 193082" d="M3585.468,3452.759a7.815,7.815,0,0,1-4.076.014c-.35-.105-.5-.863-.74-1.3.816-.531,3.49-.643,4.032-.137A5.785,5.785,0,0,1,3585.468,3452.759Z" transform="translate(-3508.353 -3368.666)" fill="#fff"/>
        <path id="Trazado_193083" data-name="Trazado 193083" d="M3657.838,3451.2a7.339,7.339,0,0,1,4,.012c.453.153.719.861,1.22,1.51a7.766,7.766,0,0,1-4.224-.074C3658.436,3452.5,3658.243,3451.82,3657.838,3451.2Z" transform="translate(-3572.324 -3368.603)" fill="#fff"/>
        <path id="Trazado_193084" data-name="Trazado 193084" d="M3347.993,3453.117a3.636,3.636,0,0,1-.933-.016c-.388-.107-.968-.241-1.072-.514a1.1,1.1,0,0,1,1-1.374,15.9,15.9,0,0,1,2.552.005.972.972,0,0,1,.7.6c.071.484.046,1.091-.632,1.21a15.32,15.32,0,0,1-1.61.119Z" transform="translate(-3313.821 -3368.797)" fill="#fff"/>
        <path id="Trazado_193085" data-name="Trazado 193085" d="M3586.38,3466.639a28.94,28.94,0,0,1,3.709.062c.344.044.591.838.882,1.287a3.6,3.6,0,0,1-1.037.477,14.705,14.705,0,0,1-2.049.008C3586.712,3468.437,3586.32,3467.98,3586.38,3466.639Z" transform="translate(-3513.096 -3381.597)" fill="#fff"/>
        <path id="Trazado_193086" data-name="Trazado 193086" d="M3670.137,3468.113a7.936,7.936,0,0,1-4.063-.1c-.421-.158-.641-.853-1.084-1.491.59-.068.961-.135,1.335-.149.566-.022,1.133-.012,1.7-.01C3669.456,3466.368,3669.626,3466.5,3670.137,3468.113Z" transform="translate(-3578.251 -3381.387)" fill="#fff"/>
        <path id="Trazado_193087" data-name="Trazado 193087" d="M3507.215,3466.342a5.68,5.68,0,0,1,1.352.026,1.324,1.324,0,0,1,.832.629c.369.92.124,1.22-.891,1.237a15.482,15.482,0,0,1-2.208-.028,1.509,1.509,0,0,1-1.073-.578c-.43-.964-.179-1.266.883-1.3.368-.01.737,0,1.105,0Z" transform="translate(-3445.676 -3381.351)" fill="#fff"/>
        <path id="Trazado_193088" data-name="Trazado 193088" d="M3467.2,3466.282c.313,0,.628.022.939,0,.819-.07,1.245.211,1.3,1.111.035.527-.206.735-.575.75-1.019.043-2.042.024-3.062-.012-.865-.031-.716-.716-.736-1.262-.022-.628.483-.53.85-.561.424-.036.853-.009,1.28-.009Z" transform="translate(-3412.562 -3381.314)" fill="#fff"/>
        <path id="Trazado_193089" data-name="Trazado 193089" d="M3345.552,3466.239a8.986,8.986,0,0,1,1.106.01c.376.047.942-.152.955.532.012.62-.051,1.265-.859,1.311a25.476,25.476,0,0,1-2.973,0,.864.864,0,0,1-.584-.611c-.02-.44-.091-1.053.573-1.158.585-.093,1.186-.085,1.779-.121Z" transform="translate(-3311.543 -3381.263)" fill="#fff"/>
        <path id="Trazado_193090" data-name="Trazado 193090" d="M3385.613,3468.241a5.535,5.535,0,0,1-.934-.01c-.451-.078-1.095.109-1.059-.739.03-.717.219-1.2,1.059-1.171.79.027,1.583-.015,2.372.022.406.019.963-.135.965.615,0,.643-.024,1.2-.878,1.216-.508.009-1.015.063-1.522.1Z" transform="translate(-3345.054 -3381.357)" fill="#fff"/>
        <path id="Trazado_193091" data-name="Trazado 193091" d="M3387.592,3453.114c-.311-.026-.626-.03-.932-.084-.4-.07-1,.207-1.063-.508-.078-.921.212-1.29,1.073-1.342a20.7,20.7,0,0,1,2.3-.006c.46.024.9.135.844.8-.05.582-.1,1.1-.856,1.1-.454,0-.909,0-1.363,0Z" transform="translate(-3346.683 -3368.781)" fill="#fff"/>
        <path id="Trazado_193092" data-name="Trazado 193092" d="M3304.91,3466.3a6.558,6.558,0,0,1,1.1.014,5.1,5.1,0,0,1,.943.354c-.21.46-.373,1.281-.64,1.317a24.184,24.184,0,0,1-3.609.084c-.1,0-.327-.38-.279-.489.187-.426.373-1.02.722-1.167a5.379,5.379,0,0,1,1.759-.135Z" transform="translate(-3277.759 -3381.318)" fill="#fff"/>
        <path id="Trazado_193093" data-name="Trazado 193093" d="M3313.042,3438.385a7.572,7.572,0,0,1-.852-.006c-.417-.047-1.06.112-1.028-.558.029-.6.177-1.3,1.024-1.33.795-.032,1.593-.063,2.386-.022a1.459,1.459,0,0,1,.8.363c-.1.464-.19,1.118-.515,1.3a5.513,5.513,0,0,1-1.8.336Z" transform="translate(-3285.002 -3356.6)" fill="#fff"/>
        <path id="Trazado_193094" data-name="Trazado 193094" d="M3578.282,3436.466c.4,0,.8-.027,1.193.006a1.291,1.291,0,0,1,1.241,1.356.813.813,0,0,1-.588.519,22.891,22.891,0,0,1-2.553.013c-.706-.029-.994-.521-1.163-1.15-.133-.493.037-.713.507-.734.453-.02.909,0,1.363,0Z" transform="translate(-3504.803 -3356.606)" fill="#fff"/>
        <path id="Trazado_193095" data-name="Trazado 193095" d="M3465.246,3438.365c-.369,0-.739.023-1.1-.006-.6-.048-.993-.291-.988-1,.006-.743.435-.912,1.041-.917.68-.005,1.361.021,2.04,0,.917-.035,1.066.544,1.065,1.263,0,.749-.6.608-1.034.663a8.341,8.341,0,0,1-1.019.008Z" transform="translate(-3410.971 -3356.59)" fill="#fff"/>
        <path id="Trazado_193096" data-name="Trazado 193096" d="M3427.057,3451.657c.368,0,.737.008,1.1,0,.718-.019,1.083.234,1.062,1.042-.021.828-.563.808-1.1.82-.706.015-1.413-.038-2.12-.036-.783,0-1-.4-.975-1.133.029-.749.529-.675,1.005-.688C3426.377,3451.65,3426.717,3451.658,3427.057,3451.657Z" transform="translate(-3379.375 -3369.202)" fill="#fff"/>
        <path id="Trazado_193097" data-name="Trazado 193097" d="M3503.052,3436.446c.34,0,.68-.01,1.02,0a1.073,1.073,0,0,1,1.162,1.322c-.053.668-.644.59-1.109.6-.651.016-1.3.02-1.954-.007a.98.98,0,0,1-1.057-.784c-.2-.831-.02-1.1.834-1.134C3502.315,3436.435,3502.684,3436.446,3503.052,3436.446Z" transform="translate(-3442.372 -3356.594)" fill="#fff"/>
        <path id="Trazado_193098" data-name="Trazado 193098" d="M3351.761,3436.352a7.084,7.084,0,0,1,.852.007c.415.051,1.012-.144,1.061.542.047.663-.11,1.3-.931,1.352a19.927,19.927,0,0,1-2.64-.009c-.215-.015-.6-.391-.573-.547.08-.482-.062-1.178.7-1.281.5-.068,1.02-.055,1.531-.079Z" transform="translate(-3316.801 -3356.508)" fill="#fff"/>
        <path id="Trazado_193099" data-name="Trazado 193099" d="M3651.938,3436.881a21.482,21.482,0,0,1,3.5.063c.447.075.774.857,1.283,1.47a6.241,6.241,0,0,1-1.065.282c-.65.033-1.3.026-1.954.008C3652.571,3438.674,3652.106,3438.208,3651.938,3436.881Z" transform="translate(-3567.434 -3356.925)" fill="#fff"/>
        <path id="Trazado_193100" data-name="Trazado 193100" d="M3234.76,3437.967c.363-1.41.553-1.569,1.934-1.6a11.889,11.889,0,0,1,1.445,0,6.534,6.534,0,0,1,1.077.294,4.618,4.618,0,0,1-.64,1.34C3238.085,3438.514,3235.435,3438.408,3234.76,3437.967Z" transform="translate(-3221.682 -3356.518)" fill="#fff"/>
        <path id="Trazado_193101" data-name="Trazado 193101" d="M3618.836,3438.175a6.656,6.656,0,0,1-3.819-.045c-.37-.146-.529-.853-.74-1.323a1.1,1.1,0,0,1,.562-.34c.852-.034,1.709-.04,2.561.009C3618.352,3436.53,3618.464,3437.343,3618.836,3438.175Z" transform="translate(-3536.221 -3356.593)" fill="#fff"/>
        <path id="Trazado_193102" data-name="Trazado 193102" d="M3540.883,3436.465c.37,0,.742-.019,1.11,0a1.285,1.285,0,0,1,1.218,1.424.812.812,0,0,1-.612.454,21.574,21.574,0,0,1-2.645,0c-.809-.054-.977-.706-.972-1.359,0-.169.328-.446.537-.481a8.275,8.275,0,0,1,1.362-.023Z" transform="translate(-3473.819 -3356.608)" fill="#fff"/>
        <path id="Trazado_193103" data-name="Trazado 193103" d="M3389.372,3438.418c-.285,0-.571.021-.853,0-.484-.043-1.1.083-1.1-.709.005-.936.244-1.2,1.133-1.212.739-.01,1.478.02,2.217.043.542.017.7.343.729.846s-.072.866-.6.946c-.5.076-1.014.088-1.522.127Z" transform="translate(-3348.204 -3356.635)" fill="#fff"/>
        <path id="Trazado_193104" data-name="Trazado 193104" d="M3275.52,3436.36a3.1,3.1,0,0,1,.764.012,9.484,9.484,0,0,1,1.066.413c-.271.457-.476,1.238-.824,1.308a15.206,15.206,0,0,1-3.115.123c-.138,0-.414-.323-.385-.436.142-.564.24-1.229.966-1.354a12.69,12.69,0,0,1,1.528-.087Z" transform="translate(-3253.394 -3356.508)" fill="#fff"/>
        <path id="Trazado_193105" data-name="Trazado 193105" d="M3427.828,3438.559a8.56,8.56,0,0,1-1.153.048c-.447-.049-1.04.034-1.081-.649-.058-.975.147-1.191,1.057-1.215.735-.019,1.471-.022,2.207-.02.526,0,.727.264.737.8.01.556-.091.968-.709,1.025A9.7,9.7,0,0,1,3427.828,3438.559Z" transform="translate(-3379.836 -3356.827)" fill="#fff"/>
      </g>
    </g>
    <path id="Trazado_193108" data-name="Trazado 193108" d="M-6681.568-872.484v-24.125" transform="translate(-6708.032 5159.874) rotate(90)" fill="none" stroke="#fff" stroke-width="2"/>
    <path id="Trazado_193109" data-name="Trazado 193109" d="M-6715.323-858.756v-7.475h101.868v7.475" transform="translate(-6702.032 5145.967) rotate(90)" fill="none" stroke="#fff" stroke-width="2"/>
    <g transform="matrix(1, 0, 0, 1, -6011, -1577.57)" filter="url(#Rectángulo_44533)">
      <rect id="Rectángulo_44533-2" data-name="Rectángulo 44533" width="104" height="42" rx="5" transform="translate(233.01 6)" fill="#ffb476"/>
    </g>
    <g transform="matrix(1, 0, 0, 1, -6011, -1577.57)" filter="url(#Rectángulo_44536)">
      <rect id="Rectángulo_44536-2" data-name="Rectángulo 44536" width="104" height="42" rx="5" transform="translate(357.45 6)" fill="#ffb476"/>
    </g>
    <g transform="matrix(1, 0, 0, 1, -6011, -1577.57)" filter="url(#Rectángulo_44534)">
      <rect id="Rectángulo_44534-2" data-name="Rectángulo 44534" width="104" height="42" rx="5" transform="translate(233.01 63.87)" fill="#ffb476"/>
    </g>
    <g transform="matrix(1, 0, 0, 1, -6011, -1577.57)" filter="url(#Rectángulo_44535)">
      <rect id="Rectángulo_44535-2" data-name="Rectángulo 44535" width="104" height="42" rx="5" transform="translate(357.45 63.87)" fill="#ffb476"/>
    </g>
    <text id="TELNET_23" data-name="TELNET 23" transform="translate(-5725.987 -1544.568)" fill="#12263f" font-size="16" font-family="Roboto-Bold, Roboto" font-weight="700"><tspan x="-39.895" y="0">TELNET 23</tspan></text>
    <text id="HTTPS_443" data-name="HTTPS 443" transform="translate(-5601.551 -1544.568)" fill="#12263f" font-size="16" font-family="Roboto-Bold, Roboto" font-weight="700"><tspan x="-41.34" y="0">HTTPS 443</tspan></text>
    <text id="SMTP_25" data-name="SMTP 25" transform="translate(-5725.987 -1486.694)" fill="#12263f" font-size="16" font-family="Roboto-Bold, Roboto" font-weight="700"><tspan x="-33.207" y="0">SMTP 25</tspan></text>
    <text id="HTTP_80" data-name="HTTP 80" transform="translate(-5601.551 -1486.694)" fill="#12263f" font-size="16" font-family="Roboto-Bold, Roboto" font-weight="700"><tspan x="-31.832" y="0">HTTP 80</tspan></text>
  </g>
</svg>
