<svg xmlns="http://www.w3.org/2000/svg" width="237.362" height="116.718" viewBox="0 0 237.362 116.718">
  <g id="Grupo_1077890" data-name="Grupo 1077890" transform="translate(-437 9006.332)">
    <path id="Trazado_826163" data-name="Trazado 826163" d="M210.517,108.934c.006-.29.044-.573.044-.866a36.042,36.042,0,0,0-33.447-35.929,45.561,45.561,0,0,0-80.13-12.417A30.058,30.058,0,0,0,54.942,65.4,26.187,26.187,0,1,1,23.363,97.541a30.147,30.147,0,0,0,25.295,46.585H203.972l-.81-.69a17.681,17.681,0,1,0,7.355-34.5" transform="translate(448.652 -9033.74)" fill="#fff"/>
    <g id="Grupo_18423" data-name="Grupo 18423" transform="translate(437 -9006.332)">
      <g id="Grupo_18421" data-name="Grupo 18421">
        <g id="Grupo_18420" data-name="Grupo 18420">
          <g id="Grupo_18419" data-name="Grupo 18419">
            <path id="Trazado_40936" data-name="Trazado 40936" d="M294.623,2195.719a50,50,0,1,1-50-50A50,50,0,0,1,294.623,2195.719Z" transform="translate(-194.623 -2145.721)" fill="#fff"/>
          </g>
        </g>
      </g>
      <path id="Trazado_40937" data-name="Trazado 40937" d="M293.963,2195.133A49.881,49.881,0,1,0,244.084,2245,49.663,49.663,0,0,0,293.963,2195.133Z" transform="translate(-193.964 -2145.004)" fill="#2efec7"/>
      <path id="Trazado_40938" data-name="Trazado 40938" d="M274.09,2189.3a35.86,35.86,0,1,0-35.858,35.848A35.709,35.709,0,0,0,274.09,2189.3Z" transform="translate(-187.932 -2138.979)" fill="none" stroke="#12263f" stroke-miterlimit="10" stroke-width="4"/>
      <g id="Grupo_18422" data-name="Grupo 18422" transform="translate(10.495 14.78)">
        <path id="Trazado_40939" data-name="Trazado 40939" d="M285.085,2164.488a69.544,69.544,0,0,1,4.226,24.072c0,32.716-21.984,59.238-49.1,59.238-16.294,0-30.731-9.579-39.665-24.319a59.775,59.775,0,0,0,4.887,7.892c8.941,11.3,21.549,18.336,35.517,18.336,27.119,0,49.1-26.522,49.1-59.242A69.163,69.163,0,0,0,285.085,2164.488Z" transform="translate(-200.545 -2164.488)" fill="#eceef0"/>
      </g>
    </g>
    <g id="Grupo_152067" data-name="Grupo 152067" transform="translate(459.338 -8987.469)">
      <path id="Trazado_194684" data-name="Trazado 194684" d="M612.784,189.706c1.892-.62,2.612.677,3.209,2.107a1.392,1.392,0,0,0,1.591.958c.943-.075,1.9-.018,2.924-.018v-6.16c-1.344-.1-2.69-.1-4.007-.305a11.584,11.584,0,0,1-9.99-11.923c.252-5.118,4.471-9.644,9.875-10.547,1.03-.172,2.084-.2,3.25-.3a9.688,9.688,0,0,1,3.065-8.485,10.569,10.569,0,0,1,6.07-2.817,10.806,10.806,0,0,1,11.789,7.212,8.222,8.222,0,0,1,7.84.96,6.971,6.971,0,0,1,2.816,7.384c.664-.108,1.229-.211,1.8-.291a10.394,10.394,0,0,1,10.72,5.606c2.615,5.567-1,12.124-7.293,13.212a15.684,15.684,0,0,1-2.255.191c-1.178.031-2.357.008-3.616.008v6.254c1.214,0,2.422.015,3.628-.016a.928.928,0,0,0,.538-.341,2.713,2.713,0,0,0,.343-.6c.688-1.328,1.243-2.853,3.227-2.046a3.324,3.324,0,0,1,2.918-2.52,3.091,3.091,0,0,1,3.293,2.389,3.128,3.128,0,0,1-5.785,2.223c-.23-.417-.313-.866-1.011-.856s-.869.452-1.127.9c-1.568,2.718-.659,2.158-3.822,2.221-.716.014-1.432,0-2.216,0V197h2.21c1.611,0,3.222-.014,4.833.009a.956.956,0,0,0,1.053-.622,3.054,3.054,0,0,1,3.593-1.727,3.133,3.133,0,0,1-.02,6.068A3.154,3.154,0,0,1,658.608,199c-.132-.248-.4-.6-.615-.6-2.457-.042-4.915-.027-7.438-.027v2.909c1.291,0,2.533.039,3.771-.015a1.4,1.4,0,0,1,1.552.909,6.461,6.461,0,0,0,.87,1.54,1.715,1.715,0,0,0,1.06.6c.257.022.651-.329.809-.612a3.209,3.209,0,0,1,3.544-1.712,3.14,3.14,0,0,1,.044,6.1,3.035,3.035,0,0,1-3.569-1.763.883.883,0,0,0-1.061-.609,1.586,1.586,0,0,1-1.963-1.186,2.53,2.53,0,0,0-3.2-1.905,11.323,11.323,0,0,1-1.874.016c-.02.378-.05.691-.052,1.006-.007,1.348.022,2.7-.014,4.043a2.4,2.4,0,0,1-2.466,2.53q-12.477.029-24.953,0a2.415,2.415,0,0,1-2.463-2.634c-.022-1.6,0-3.206,0-4.936-1.311,0-2.516-.02-3.719.019a.929.929,0,0,0-.585.416,7.28,7.28,0,0,0-.717,1.291,1.868,1.868,0,0,1-2.178,1.376,1.231,1.231,0,0,0-.909.6,3.169,3.169,0,0,1-3.614,1.73,3.056,3.056,0,0,1-2.374-3.008,3.108,3.108,0,0,1,2.424-3.078,3.21,3.21,0,0,1,3.541,1.715c.16.281.559.627.816.6.376-.035.953-.305,1.046-.6.692-2.2,2.218-2.763,4.316-2.445a13.082,13.082,0,0,0,1.9.014v-2.914H618.2c-1.578,0-3.156.014-4.734-.009a.95.95,0,0,0-1.038.639,3.027,3.027,0,0,1-3.587,1.733,3.136,3.136,0,0,1,0-6.071,3.177,3.177,0,0,1,3.617,1.724c.134.247.416.584.635.588,2.456.042,4.913.026,7.432.026v-2.879c-1.212,0-2.415-.051-3.611.017a1.582,1.582,0,0,1-1.783-1.036,6.182,6.182,0,0,0-.869-1.54,1.547,1.547,0,0,0-1.018-.489,1.071,1.071,0,0,0-.755.533,3.2,3.2,0,0,1-3.688,1.767,3.13,3.13,0,1,1,3.7-4.21C612.578,189.3,612.654,189.448,612.784,189.706Zm11.51-7.066c0-.585-.009-1.07,0-1.555a77.066,77.066,0,0,1,.243-8.46,11.151,11.151,0,0,1,22.037.025,76.8,76.8,0,0,1,.205,8.462c.008.481,0,.962,0,1.533,1.965-.141,3.428.339,3.771,2.567a46.19,46.19,0,0,0,5.721-.306c6-1.048,8.872-7.546,5.564-12.356a9.278,9.278,0,0,0-11.085-3.094,4.635,4.635,0,0,1-1.355.1,4.845,4.845,0,0,1,.156-1.259,5.429,5.429,0,0,0-.257-4.933,6.581,6.581,0,0,0-8.357-2.549c-1.246.541-1.331.5-1.682-.785-1.26-4.62-6.214-7.4-11.221-6.305-4.652,1.018-8,5.4-6.89,10.193.222.962-.025,1.139-.989,1.137a20.116,20.116,0,0,0-3.82.182,10.062,10.062,0,0,0-8.257,11.9c1.191,5.242,6.769,8.788,12.471,7.889C620.889,182.969,622.359,182.5,624.293,182.64Zm11.285,26.231q5.914,0,11.827,0c1.4,0,1.718-.3,1.719-1.651q.007-10.792,0-21.584c0-1.274-.363-1.63-1.651-1.631q-11.876-.007-23.752,0c-1.443,0-1.765.317-1.765,1.716q0,10.743,0,21.486c0,1.354.323,1.667,1.7,1.668Q629.616,208.876,635.578,208.871Zm9.838-26.3c0-2.684.006-5.305,0-7.927a9.9,9.9,0,0,0-8.843-10.035,9.616,9.616,0,0,0-10.683,8.319,79.324,79.324,0,0,0-.2,9.446c0,.055.062.11.111.191h3.778c0-.423,0-.777,0-1.13,0-2.3-.013-4.6.009-6.9a5.945,5.945,0,1,1,11.888-.064c.048,2.333.012,4.668.014,7,0,.352,0,.7,0,1.1Zm-5.324.011c0-2.952.1-5.781-.031-8.6a4.464,4.464,0,0,0-4.683-4.136,4.553,4.553,0,0,0-4.419,4.436c-.046,1.478-.013,2.959-.014,4.439,0,1.271,0,2.543,0,3.861Zm-28.721,22.489a1.759,1.759,0,1,0-1.766,1.735A1.785,1.785,0,0,0,611.372,205.075Zm50.069,1.733a1.763,1.763,0,1,0-1.731-1.764A1.77,1.77,0,0,0,661.44,206.808Zm-51.862-10.873a1.753,1.753,0,0,0-1.728,1.763,1.76,1.76,0,1,0,3.518-.062A1.756,1.756,0,0,0,609.578,195.935Zm53.639,1.825a1.738,1.738,0,0,0-1.657-1.823,1.763,1.763,0,0,0-1.854,1.736,1.756,1.756,0,0,0,3.511.087Zm-53.638-9.191a1.767,1.767,0,0,0-1.723,1.772,1.755,1.755,0,1,0,3.509-.058A1.776,1.776,0,0,0,609.578,188.568Zm53.639,1.761a1.767,1.767,0,0,0-1.732-1.761,1.8,1.8,0,0,0-1.784,1.723,1.764,1.764,0,0,0,1.8,1.8A1.734,1.734,0,0,0,663.218,190.329Z" transform="translate(-606.492 -152.123)" fill="#12263f"/>
      <path id="Trazado_194685" data-name="Trazado 194685" d="M619.8,265.746l.632-.7c.243.28.689.553.7.842.138,3.734,3.369,6.817,7.353,7.2a2.747,2.747,0,0,1,.872.093,3.36,3.36,0,0,1,.72.634c-.262.23-.526.654-.787.653a11.25,11.25,0,0,1-2.43-.285A9.1,9.1,0,0,1,619.8,265.746Z" transform="translate(-617.178 -242.771)" fill="#12263f"/>
      <path id="Trazado_194686" data-name="Trazado 194686" d="M846.819,243.007c3.861.18,6.813,2.668,7.341,5.89a2.427,2.427,0,0,1,.036,1.066.977.977,0,0,1-.658.56c-.177.028-.424-.3-.617-.5-.054-.054-.023-.189-.036-.286a5.857,5.857,0,0,0-5.4-5.321c-.13-.016-.26-.034-.39-.048-.483-.05-1.15-.015-1.039-.695C846.106,243.345,846.7,243.1,846.819,243.007Z" transform="translate(-798.78 -225.077)" fill="#12263f"/>
      <path id="Trazado_194687" data-name="Trazado 194687" d="M724.252,165.479a8,8,0,0,1,7.605,5.3c.067.218.208.473.149.658a4.746,4.746,0,0,1-.515.908c-.262-.2-.691-.345-.761-.6-.9-3.233-3.175-4.629-6.35-4.933-.307-.03-.578-.446-.865-.683Z" transform="translate(-700.428 -162.844)" fill="#12263f"/>
      <path id="Trazado_194688" data-name="Trazado 194688" d="M718.213,384.819c-2.363,0-4.727-.021-7.09.012-.759.011-1.2-.254-1.284-1.013a27.288,27.288,0,0,1-.373-4.178,4.286,4.286,0,0,1,3.308-4.088,19.348,19.348,0,0,1,10.877.015,4.3,4.3,0,0,1,3.27,4.123,26.984,26.984,0,0,1-.4,4.179c-.08.72-.508.969-1.222.96C722.94,384.8,720.576,384.818,718.213,384.819Zm-.051-1.363c2.1,0,4.205.016,6.307-.019.291,0,.784-.2.836-.4.9-3.484.25-6.085-3.512-6.523a31.127,31.127,0,0,0-6.478-.112c-3.949.372-5.221,2.321-4.4,6.215.129.61.359.877,1.034.862C714.022,383.43,716.092,383.458,718.162,383.455Z" transform="translate(-689.142 -330.852)" fill="#12263f"/>
      <path id="Trazado_194689" data-name="Trazado 194689" d="M741.649,331.773a3.934,3.934,0,1,1-3.86-3.935A3.923,3.923,0,0,1,741.649,331.773Zm-3.966,2.558a2.573,2.573,0,0,0,2.6-2.529,2.567,2.567,0,1,0-5.133-.058A2.555,2.555,0,0,0,737.683,334.331Z" transform="translate(-708.669 -293.171)" fill="#12263f"/>
    </g>
    <path id="Trazado_826421" data-name="Trazado 826421" d="M.967,0V-12.8h4.6a6.509,6.509,0,0,1,3.757.905,3.012,3.012,0,0,1,1.288,2.628,3.045,3.045,0,0,1-.457,1.7A2.663,2.663,0,0,1,8.807-6.53a2.7,2.7,0,0,1,1.538.984,2.862,2.862,0,0,1,.536,1.758A3.388,3.388,0,0,1,9.69-.962,5.667,5.667,0,0,1,6.161,0ZM4.052-5.44v3.067H6.073a1.923,1.923,0,0,0,1.283-.382A1.338,1.338,0,0,0,7.8-3.832,1.419,1.419,0,0,0,6.214-5.44Zm0-2.021H5.66A2.285,2.285,0,0,0,7.1-7.832,1.314,1.314,0,0,0,7.532-8.9a1.379,1.379,0,0,0-.466-1.168,2.493,2.493,0,0,0-1.5-.357H4.052ZM15.565,0H12.595V-13.5h2.971Zm1.45-4.843a5.613,5.613,0,0,1,.554-2.536A3.96,3.96,0,0,1,19.16-9.088a4.791,4.791,0,0,1,2.435-.6,4.373,4.373,0,0,1,3.366,1.323,5.076,5.076,0,0,1,1.23,3.6v.105a4.925,4.925,0,0,1-1.235,3.529A4.384,4.384,0,0,1,21.612.176a4.434,4.434,0,0,1-3.261-1.217,4.761,4.761,0,0,1-1.327-3.3Zm2.962.185a3.538,3.538,0,0,0,.413,1.934,1.376,1.376,0,0,0,1.222.615q1.582,0,1.617-2.435v-.3q0-2.558-1.635-2.558-1.485,0-1.608,2.206Zm7.146-.193A5.709,5.709,0,0,1,28.107-8.4a3.233,3.233,0,0,1,2.716-1.283,2.761,2.761,0,0,1,2.338,1.2l.211-1.02h2.566V3.656H32.968V-.791a2.757,2.757,0,0,1-2.162.967,3.2,3.2,0,0,1-2.685-1.305A6.027,6.027,0,0,1,27.123-4.852Zm2.962.185q0,2.558,1.477,2.558a1.43,1.43,0,0,0,1.406-.773V-6.645A1.4,1.4,0,0,0,31.579-7.4q-1.38,0-1.485,2.206ZM43.277-1.028a3.054,3.054,0,0,1-2.54,1.2,3,3,0,0,1-2.369-.91,3.826,3.826,0,0,1-.8-2.615V-9.51h2.962v6.179a1.065,1.065,0,0,0,1.187,1.222,1.548,1.548,0,0,0,1.45-.729V-9.51h2.979V0H43.365Zm9.088,1.2a4.889,4.889,0,0,1-3.542-1.305,4.507,4.507,0,0,1-1.354-3.4v-.246a5.84,5.84,0,0,1,.541-2.575,3.955,3.955,0,0,1,1.578-1.727,4.763,4.763,0,0,1,2.461-.611,4.117,4.117,0,0,1,3.164,1.244,4.887,4.887,0,0,1,1.16,3.467v1.151H50.484a2.135,2.135,0,0,0,.694,1.257,2.066,2.066,0,0,0,1.389.457,2.662,2.662,0,0,0,2.2-.984l1.354,1.6A3.784,3.784,0,0,1,54.549-.277,5.3,5.3,0,0,1,52.365.176ZM52.031-7.4q-1.3,0-1.547,1.723h2.988v-.229a1.467,1.467,0,0,0-.36-1.1A1.434,1.434,0,0,0,52.031-7.4ZM57.19-4.843a5.613,5.613,0,0,1,.554-2.536,3.96,3.96,0,0,1,1.591-1.709,4.791,4.791,0,0,1,2.435-.6,4.373,4.373,0,0,1,3.366,1.323,5.076,5.076,0,0,1,1.23,3.6v.105a4.925,4.925,0,0,1-1.235,3.529A4.384,4.384,0,0,1,61.787.176a4.434,4.434,0,0,1-3.261-1.217,4.761,4.761,0,0,1-1.327-3.3Zm2.962.185a3.538,3.538,0,0,0,.413,1.934,1.376,1.376,0,0,0,1.222.615q1.582,0,1.617-2.435v-.3Q63.4-7.4,61.77-7.4q-1.485,0-1.608,2.206ZM71.78-4.825a5.809,5.809,0,0,1,.976-3.56,3.211,3.211,0,0,1,2.725-1.3,2.731,2.731,0,0,1,2.145,1V-13.5H80.6V0H77.933l-.149-1.02a2.8,2.8,0,0,1-2.32,1.2,3.205,3.205,0,0,1-2.689-1.3A5.993,5.993,0,0,1,71.78-4.825Zm2.962.185q0,2.531,1.477,2.531a1.458,1.458,0,0,0,1.406-.826V-6.557A1.419,1.419,0,0,0,76.236-7.4q-1.371,0-1.485,2.215ZM86.88.176a4.889,4.889,0,0,1-3.542-1.305,4.507,4.507,0,0,1-1.354-3.4v-.246a5.84,5.84,0,0,1,.541-2.575A3.955,3.955,0,0,1,84.1-9.075a4.763,4.763,0,0,1,2.461-.611,4.117,4.117,0,0,1,3.164,1.244,4.887,4.887,0,0,1,1.16,3.467v1.151H85a2.135,2.135,0,0,0,.694,1.257,2.066,2.066,0,0,0,1.389.457,2.662,2.662,0,0,0,2.2-.984l1.354,1.6A3.784,3.784,0,0,1,89.064-.277,5.3,5.3,0,0,1,86.88.176ZM86.546-7.4q-1.3,0-1.547,1.723h2.988v-.229a1.467,1.467,0,0,0-.36-1.1A1.434,1.434,0,0,0,86.546-7.4ZM95.2,0H92.232V-13.5H95.2ZM9.659,20.315a5.735,5.735,0,0,1-1,3.538,3.2,3.2,0,0,1-2.694,1.323,2.742,2.742,0,0,1-2.153-.958v4.438H.853V15.49H3.621l.088.879A2.742,2.742,0,0,1,5.95,15.314a3.224,3.224,0,0,1,2.733,1.3,5.805,5.805,0,0,1,.976,3.564ZM6.7,20.131Q6.7,17.6,5.221,17.6a1.394,1.394,0,0,0-1.406.756V22.1a1.439,1.439,0,0,0,1.424.791q1.415,0,1.459-2.443Zm10.02-1.96-.976-.07a1.752,1.752,0,0,0-1.793.879V25H10.986V15.49h2.777l.1,1.222a2.294,2.294,0,0,1,2.083-1.4,2.888,2.888,0,0,1,.826.105Zm.378,1.986a5.613,5.613,0,0,1,.554-2.536,3.96,3.96,0,0,1,1.591-1.709,4.791,4.791,0,0,1,2.435-.6,4.373,4.373,0,0,1,3.366,1.323,5.076,5.076,0,0,1,1.23,3.6v.105a4.925,4.925,0,0,1-1.235,3.529,4.384,4.384,0,0,1-3.344,1.305,4.434,4.434,0,0,1-3.261-1.217,4.761,4.761,0,0,1-1.327-3.3Zm2.962.185a3.538,3.538,0,0,0,.413,1.934,1.376,1.376,0,0,0,1.222.615q1.582,0,1.617-2.435v-.3q0-2.558-1.635-2.558-1.485,0-1.608,2.206Zm11.18,1.134,1.5-5.985h3.12L32.757,25H29.733l-3.1-9.51H29.76Zm9.993,3.7a4.889,4.889,0,0,1-3.542-1.305,4.507,4.507,0,0,1-1.354-3.4v-.246a5.84,5.84,0,0,1,.541-2.575,3.955,3.955,0,0,1,1.578-1.727,4.763,4.763,0,0,1,2.461-.611,4.117,4.117,0,0,1,3.164,1.244,4.887,4.887,0,0,1,1.16,3.467v1.151H39.349a2.135,2.135,0,0,0,.694,1.257,2.066,2.066,0,0,0,1.389.457,2.662,2.662,0,0,0,2.2-.984l1.354,1.6a3.784,3.784,0,0,1-1.569,1.217A5.3,5.3,0,0,1,41.229,25.176ZM40.9,17.6q-1.3,0-1.547,1.723h2.988v-.229a1.467,1.467,0,0,0-.36-1.1A1.434,1.434,0,0,0,40.9,17.6Zm10.134,7.576a4.889,4.889,0,0,1-3.542-1.305,4.507,4.507,0,0,1-1.354-3.4v-.246a5.84,5.84,0,0,1,.541-2.575,3.955,3.955,0,0,1,1.578-1.727,4.763,4.763,0,0,1,2.461-.611,4.117,4.117,0,0,1,3.164,1.244,4.887,4.887,0,0,1,1.16,3.467v1.151H49.148a2.135,2.135,0,0,0,.694,1.257,2.066,2.066,0,0,0,1.389.457,2.662,2.662,0,0,0,2.2-.984l1.354,1.6a3.784,3.784,0,0,1-1.569,1.217A5.3,5.3,0,0,1,51.029,25.176ZM50.7,17.6q-1.3,0-1.547,1.723h2.988v-.229a1.467,1.467,0,0,0-.36-1.1A1.434,1.434,0,0,0,50.7,17.6Zm5.159,2.575a5.809,5.809,0,0,1,.976-3.56,3.211,3.211,0,0,1,2.725-1.3,2.731,2.731,0,0,1,2.145,1V11.5H64.67V25H62.007l-.149-1.02a2.8,2.8,0,0,1-2.32,1.2,3.205,3.205,0,0,1-2.689-1.3A5.993,5.993,0,0,1,55.854,20.175Zm2.962.185q0,2.531,1.477,2.531a1.458,1.458,0,0,0,1.406-.826V18.443a1.419,1.419,0,0,0-1.389-.844q-1.371,0-1.485,2.215Zm7.163-.2a5.613,5.613,0,0,1,.554-2.536,3.96,3.96,0,0,1,1.591-1.709,4.791,4.791,0,0,1,2.435-.6,4.373,4.373,0,0,1,3.366,1.323,5.076,5.076,0,0,1,1.23,3.6v.105a4.925,4.925,0,0,1-1.235,3.529,4.384,4.384,0,0,1-3.344,1.305,4.434,4.434,0,0,1-3.261-1.217,4.761,4.761,0,0,1-1.327-3.3Zm2.962.185a3.538,3.538,0,0,0,.413,1.934,1.376,1.376,0,0,0,1.222.615q1.582,0,1.617-2.435v-.3q0-2.558-1.635-2.558-1.485,0-1.608,2.206Zm13.271-2.171-.976-.07a1.752,1.752,0,0,0-1.793.879V25H76.482V15.49H79.26l.1,1.222a2.294,2.294,0,0,1,2.083-1.4,2.888,2.888,0,0,1,.826.105Z" transform="translate(540.905 -8934.697)" fill="#12263f"/>
  </g>
</svg>
