<svg xmlns="http://www.w3.org/2000/svg" xmlns:xlink="http://www.w3.org/1999/xlink" width="231.871" height="231.871" viewBox="0 0 231.871 231.871">
  <defs>
    <linearGradient id="linear-gradient" x1="0.317" y1="0.321" x2="0.831" y2="0.824" gradientUnits="objectBoundingBox">
      <stop offset="0" stop-color="#fff"/>
      <stop offset="0.231" stop-color="#f7f7f6"/>
      <stop offset="0.589" stop-color="#e1e1e1"/>
      <stop offset="1" stop-color="#c1c1c0"/>
    </linearGradient>
    <linearGradient id="linear-gradient-2" x1="0.495" y1="0.493" x2="0.182" y2="0.091" gradientUnits="objectBoundingBox">
      <stop offset="0" stop-color="#fff"/>
      <stop offset="0.38" stop-color="#f7f7f7"/>
      <stop offset="0.968" stop-color="#e1e2e4"/>
      <stop offset="0.994" stop-color="#e0e1e3"/>
    </linearGradient>
  </defs>
  <g id="Grupo_1077891" data-name="Grupo 1077891" transform="translate(5111 10519.189)">
    <path id="Trazado_826439" data-name="Trazado 826439" d="M81.979,0A81.979,81.979,0,1,1,0,81.979,81.979,81.979,0,0,1,81.979,0Z" transform="translate(-5111 -10403.254) rotate(-45)" fill="#083142"/>
    <path id="Trazado_188204" data-name="Trazado 188204" d="M391.578,428.7l-9.711-9.667-6.971-6.939a2.758,2.758,0,0,0-4.7,1.955v10.176A81.979,81.979,0,0,0,288.212,506.2q0,3.241.249,6.421a81.985,81.985,0,0,1,81.73-75.557v10.194a2.758,2.758,0,0,0,4.7,1.955l6.971-6.939,9.711-9.667A2.758,2.758,0,0,0,391.578,428.7Z" transform="translate(-5365.255 -10921.404)" fill="#2efec7"/>
    <path id="Trazado_826442" data-name="Trazado 826442" d="M14.3,0A14.3,14.3,0,1,1,0,14.3,14.3,14.3,0,0,1,14.3,0Z" transform="translate(-5095.926 -10410.841) rotate(-22.97)" fill="#2efec7"/>
    <path id="Trazado_826440" data-name="Trazado 826440" d="M65.583,0A65.583,65.583,0,1,1,0,65.583,65.583,65.583,0,0,1,65.583,0Z" transform="translate(-5087.813 -10403.254) rotate(-45)" fill="url(#linear-gradient)"/>
    <path id="Trazado_826441" data-name="Trazado 826441" d="M62.3,0A62.3,62.3,0,1,1,0,62.3,62.3,62.3,0,0,1,62.3,0Z" transform="translate(-5083.176 -10403.254) rotate(-45)" fill="url(#linear-gradient-2)"/>
    <path id="Trazado_188208" data-name="Trazado 188208" d="M-445.672,1378.055a12.921,12.921,0,0,1-3.056-1.389c-1.242-1.008-2.1-2.426-3.466-3.391-.6-.421-.67-1.588-1.048-2.595h-2.888l-.094-1.459h3l-.345-1.889h-3.611v-1.449h3.366c-1.065-2.8-1.946-5.408-3.047-7.921-.947-2.162-2.113-4.231-3.235-6.313a17.579,17.579,0,0,1,9.321-24.531,17.709,17.709,0,0,1,24.185,18.171,17.173,17.173,0,0,1-2.542,7.592,47.825,47.825,0,0,0-5.251,12.212,6.216,6.216,0,0,0-.106.7h3.1c.025.5.047.92.079,1.549h-2.118c-1.6,0-1.6,0-1.858,1.748l2.777.149v1.289a1.565,1.565,0,0,1-.492.126c-1.685-.194-3.063-.127-3.259,2.153-.049.565-1.183,1.05-1.84,1.542-.264.2-.756.24-.859.478a5.291,5.291,0,0,1-4.307,3.03,1.977,1.977,0,0,0-.437.2Zm9.517-12.264c.124-.4.229-.708.315-1.021a51.221,51.221,0,0,1,5.438-12.8,15.578,15.578,0,0,0,2-11.53,16.18,16.18,0,0,0-21.189-12.171c-10.149,3.442-13.539,15.132-9.194,22.534a64.8,64.8,0,0,1,6.218,14.2,1.325,1.325,0,0,0,.973.751C-446.486,1365.805-441.378,1365.79-436.155,1365.79Zm-15.137,4.921c.005,1.9.29,2.19,2.036,2.193,3.345.006,6.691.014,10.036.007,1.637,0,2.017-.476,1.8-2.2Zm14.776-3.271h-15.316c-.128,1.33.326,1.936,1.654,1.74a12.762,12.762,0,0,1,1.837-.017h11.42Zm-11.956,6.93c.84,1.562,2.537,2.256,4.841,1.953a3.7,3.7,0,0,0,3.2-1.953Z" transform="translate(-4551.098 -11770.721)" fill="#12263f"/>
    <path id="Trazado_188209" data-name="Trazado 188209" d="M-502.857,1395.167v-1.377h7.727l.071,1.377Z" transform="translate(-4520.388 -11821.901)" fill="#12263f"/>
    <path id="Trazado_188210" data-name="Trazado 188210" d="M-391.649,1291.568v-7.723h1.409v7.723Z" transform="translate(-4604.209 -11739.031)" fill="#12263f"/>
    <path id="Trazado_188211" data-name="Trazado 188211" d="M-326.825,1315.742l.667.625-5.53,5.544-.713-.678Z" transform="translate(-4648.867 -11763.073)" fill="#12263f"/>
    <path id="Trazado_188212" data-name="Trazado 188212" d="M-466.289,1453.569l.676.664-5.58,5.538-.7-.638Z" transform="translate(-4543.727 -11866.958)" fill="#12263f"/>
    <path id="Trazado_188213" data-name="Trazado 188213" d="M-333.231,1455.1l.767-.73,5.51,5.534-.712.751Z" transform="translate(-4648.241 -11867.564)" fill="#12263f"/>
    <path id="Trazado_188214" data-name="Trazado 188214" d="M-470.989,1315.624l.659-.7,5.527,5.544-.658.691Z" transform="translate(-4544.408 -11762.455)" fill="#12263f"/>
    <path id="Trazado_188215" data-name="Trazado 188215" d="M-298.9,1396.5h-7.706v-1.4h7.706Z" transform="translate(-4668.307 -11822.889)" fill="#12263f"/>
    <path id="Trazado_188216" data-name="Trazado 188216" d="M-477.781,1425.448l.579,1.359-3.6,1.479-.564-1.368Z" transform="translate(-4536.589 -11845.763)" fill="#12263f"/>
    <path id="Trazado_188217" data-name="Trazado 188217" d="M-311.212,1429.629l-3.584-1.5.521-1.377,3.589,1.472Z" transform="translate(-4662.136 -11846.746)" fill="#12263f"/>
    <path id="Trazado_188218" data-name="Trazado 188218" d="M-357.126,1306.222l-1.486,3.588-1.371-.557,1.47-3.575Z" transform="translate(-4628.077 -11755.488)" fill="#12263f"/>
    <path id="Trazado_188219" data-name="Trazado 188219" d="M-476.853,1357.821l-.587,1.355-3.569-1.471.583-1.359Z" transform="translate(-4536.855 -11793.678)" fill="#12263f"/>
    <path id="Trazado_188220" data-name="Trazado 188220" d="M-310.492,1357.693l.557,1.365-3.573,1.484-.587-1.36Z" transform="translate(-4662.665 -11794.693)" fill="#12263f"/>
    <path id="Trazado_188221" data-name="Trazado 188221" d="M-426,1308.76l-1.378.542-1.473-3.542,1.347-.627Z" transform="translate(-4576.168 -11755.076)" fill="#12263f"/>
    <path id="Trazado_188222" data-name="Trazado 188222" d="M-433.377,1367.024v2.93h-1.484v-2.932c-6.157-.984-9.721-4.466-10.723-10.653h-2.955v-1.43h2.942c.913-6.23,4.485-9.684,10.663-10.649v-2.936h1.414v2.905c6.1.979,9.673,4.454,10.672,10.633h2.949v1.4h-2.937C-423.81,1362.369-427.169,1365.994-433.377,1367.024Zm-1.63-21.024a9.356,9.356,0,0,0-8.861,8.836l1.789.132v1.364l-1.864.1c.532,4.969,4.627,9,8.952,8.883l.1-1.785h1.373l.082,1.858c4.874-.417,9.027-4.657,8.86-8.953l-1.866-.13.081-1.344,1.9-.138c-.763-5.118-4.371-8.656-8.967-8.843-.046.626-.092,1.254-.143,1.952l-1.318-.064Z" transform="translate(-4561.329 -11782.378)" fill="#12263f"/>
    <path id="Trazado_826443" data-name="Trazado 826443" d="M7.376-4.115A5.042,5.042,0,0,1,6.521-.957,2.983,2.983,0,0,1,4.02.137,3,3,0,0,1,1.531-.937,4.895,4.895,0,0,1,.649-4.013V-5.845A4.976,4.976,0,0,1,1.514-9.01a3,3,0,0,1,2.492-1.08A3.008,3.008,0,0,1,6.494-9.02a4.879,4.879,0,0,1,.882,3.073ZM5.4-6.129a3.645,3.645,0,0,0-.338-1.8A1.144,1.144,0,0,0,4.006-8.5a1.123,1.123,0,0,0-1.029.537,3.411,3.411,0,0,0-.352,1.68v2.422a3.826,3.826,0,0,0,.332,1.81,1.128,1.128,0,0,0,1.063.592,1.109,1.109,0,0,0,1.046-.568A3.734,3.734,0,0,0,5.4-3.762ZM13.508,0H11.532V-7.626L9.174-6.9V-8.49L13.3-9.967h.212Z" transform="translate(-5084.815 -10397.771)" fill="#12263f"/>
    <path id="Trazado_826421" data-name="Trazado 826421" d="M6.05-2.611A1.052,1.052,0,0,0,5.64-3.5,5.38,5.38,0,0,0,4.163-4.16a10.467,10.467,0,0,1-1.688-.68,2.759,2.759,0,0,1-1.7-2.468,2.4,2.4,0,0,1,.455-1.439A2.965,2.965,0,0,1,2.54-9.734,4.914,4.914,0,0,1,4.45-10.09a4.473,4.473,0,0,1,1.9.386,3.026,3.026,0,0,1,1.3,1.09,2.853,2.853,0,0,1,.461,1.6H6.057a1.342,1.342,0,0,0-.431-1.063,1.77,1.77,0,0,0-1.21-.379,1.891,1.891,0,0,0-1.169.318A1,1,0,0,0,2.83-7.3a.96.96,0,0,0,.489.813,5.522,5.522,0,0,0,1.439.615,6.217,6.217,0,0,1,2.55,1.306,2.6,2.6,0,0,1,.8,1.941A2.4,2.4,0,0,1,7.13-.6,4.279,4.279,0,0,1,4.5.137a5.082,5.082,0,0,1-2.092-.42A3.31,3.31,0,0,1,.967-1.436a2.95,2.95,0,0,1-.5-1.7H2.529q0,1.647,1.969,1.647a1.915,1.915,0,0,0,1.142-.3A.967.967,0,0,0,6.05-2.611ZM12.77.137a3.631,3.631,0,0,1-2.649-1A3.548,3.548,0,0,1,9.1-3.521v-.191A4.468,4.468,0,0,1,9.529-5.7a3.161,3.161,0,0,1,1.22-1.354,3.425,3.425,0,0,1,1.8-.475,3.07,3.07,0,0,1,2.389.957,3.889,3.889,0,0,1,.872,2.714v.807H11.1a1.835,1.835,0,0,0,.578,1.162,1.746,1.746,0,0,0,1.22.438,2.132,2.132,0,0,0,1.784-.827L15.654-1.2a2.966,2.966,0,0,1-1.2.981A3.947,3.947,0,0,1,12.77.137ZM12.544-5.94a1.234,1.234,0,0,0-.954.4,2.062,2.062,0,0,0-.468,1.14H13.87V-4.56a1.471,1.471,0,0,0-.355-1.02A1.274,1.274,0,0,0,12.544-5.94Zm8.545.4a5.367,5.367,0,0,0-.711-.055,1.447,1.447,0,0,0-1.47.759V0H16.933V-7.4H18.8l.055.882A1.831,1.831,0,0,1,20.5-7.533a2.07,2.07,0,0,1,.615.089Zm3.842,3.131L26.3-7.4h2.064L25.874,0H23.987l-2.5-7.4h2.064ZM31.322,0H29.34V-7.4h1.982Zm-2.1-9.311a.973.973,0,0,1,.3-.731,1.117,1.117,0,0,1,.81-.287,1.12,1.12,0,0,1,.807.287.967.967,0,0,1,.3.731.97.97,0,0,1-.3.738,1.122,1.122,0,0,1-.8.287,1.122,1.122,0,0,1-.8-.287A.97.97,0,0,1,29.224-9.311Zm6.8,7.854a1.3,1.3,0,0,0,.889-.3,1.054,1.054,0,0,0,.355-.8h1.853a2.534,2.534,0,0,1-.41,1.377,2.706,2.706,0,0,1-1.1.971A3.455,3.455,0,0,1,36.06.137a3.211,3.211,0,0,1-2.5-1.008,3.99,3.99,0,0,1-.916-2.786v-.13a3.944,3.944,0,0,1,.909-2.728,3.174,3.174,0,0,1,2.5-1.019,3.111,3.111,0,0,1,2.225.79,2.8,2.8,0,0,1,.851,2.1H37.27a1.358,1.358,0,0,0-.355-.938,1.185,1.185,0,0,0-.9-.361,1.19,1.19,0,0,0-1.042.5A2.916,2.916,0,0,0,34.617-3.8V-3.6a2.953,2.953,0,0,0,.349,1.643A1.2,1.2,0,0,0,36.025-1.456ZM42.335,0H40.353V-7.4h1.982Zm-2.1-9.311a.973.973,0,0,1,.3-.731,1.117,1.117,0,0,1,.81-.287,1.12,1.12,0,0,1,.807.287.967.967,0,0,1,.3.731.97.97,0,0,1-.3.738,1.122,1.122,0,0,1-.8.287,1.122,1.122,0,0,1-.8-.287A.97.97,0,0,1,40.236-9.311Zm3.418,5.544a4.387,4.387,0,0,1,.424-1.962A3.1,3.1,0,0,1,45.3-7.062a3.56,3.56,0,0,1,1.849-.472,3.368,3.368,0,0,1,2.444.916,3.676,3.676,0,0,1,1.056,2.488l.014.506a3.866,3.866,0,0,1-.95,2.731A3.3,3.3,0,0,1,47.161.137,3.319,3.319,0,0,1,44.608-.889a3.934,3.934,0,0,1-.954-2.789Zm1.976.14a2.765,2.765,0,0,0,.4,1.612,1.308,1.308,0,0,0,1.135.558,1.311,1.311,0,0,0,1.121-.551,3.025,3.025,0,0,0,.4-1.763,2.737,2.737,0,0,0-.4-1.6,1.311,1.311,0,0,0-1.135-.568,1.29,1.29,0,0,0-1.121.565A3.076,3.076,0,0,0,45.63-3.626ZM55.884-2.044a.637.637,0,0,0-.359-.571,4.077,4.077,0,0,0-1.152-.373q-2.639-.554-2.639-2.242a2.032,2.032,0,0,1,.817-1.644,3.3,3.3,0,0,1,2.136-.66,3.547,3.547,0,0,1,2.252.663,2.09,2.09,0,0,1,.844,1.723H55.809a.956.956,0,0,0-.273-.7,1.157,1.157,0,0,0-.854-.277,1.182,1.182,0,0,0-.772.226.712.712,0,0,0-.273.574.609.609,0,0,0,.311.53A3.2,3.2,0,0,0,55-4.447a8.571,8.571,0,0,1,1.244.332A2.044,2.044,0,0,1,57.8-2.126a1.929,1.929,0,0,1-.868,1.637,3.745,3.745,0,0,1-2.242.625,3.912,3.912,0,0,1-1.651-.332A2.77,2.77,0,0,1,51.912-1.1a2.113,2.113,0,0,1-.41-1.248h1.873a1.031,1.031,0,0,0,.39.807,1.546,1.546,0,0,0,.971.28,1.43,1.43,0,0,0,.858-.215A.67.67,0,0,0,55.884-2.044Z" transform="translate(-5024.245 -10368.875)" fill="#12263f"/>
  </g>
</svg>
