<svg xmlns="http://www.w3.org/2000/svg" xmlns:xlink="http://www.w3.org/1999/xlink" width="231.871" height="231.871" viewBox="0 0 231.871 231.871">
  <defs>
    <linearGradient id="linear-gradient" x1="0.317" y1="0.321" x2="0.831" y2="0.824" gradientUnits="objectBoundingBox">
      <stop offset="0" stop-color="#fff"/>
      <stop offset="0.231" stop-color="#f7f7f6"/>
      <stop offset="0.589" stop-color="#e1e1e1"/>
      <stop offset="1" stop-color="#c1c1c0"/>
    </linearGradient>
    <linearGradient id="linear-gradient-2" x1="0.495" y1="0.493" x2="0.182" y2="0.091" gradientUnits="objectBoundingBox">
      <stop offset="0" stop-color="#fff"/>
      <stop offset="0.38" stop-color="#f7f7f7"/>
      <stop offset="0.968" stop-color="#e1e2e4"/>
      <stop offset="0.994" stop-color="#e0e1e3"/>
    </linearGradient>
  </defs>
  <g id="Grupo_1077892" data-name="Grupo 1077892" transform="translate(5095.926 10029.359)">
    <path id="Trazado_826433" data-name="Trazado 826433" d="M81.979,0A81.979,81.979,0,1,1,0,81.979,81.979,81.979,0,0,1,81.979,0Z" transform="translate(-5095.926 -9913.424) rotate(-45)" fill="#083142"/>
    <path id="Trazado_188206" data-name="Trazado 188206" d="M1267.409,428.7l-9.712-9.667-6.971-6.939a2.759,2.759,0,0,0-4.7,1.955v10.176a81.979,81.979,0,0,0-81.979,81.979q0,3.241.249,6.421a81.985,81.985,0,0,1,81.73-75.557v10.194a2.759,2.759,0,0,0,4.7,1.955l6.971-6.939,9.712-9.667A2.759,2.759,0,0,0,1267.409,428.7Z" transform="translate(-6226.012 -10431.574)" fill="#2efec7"/>
    <path id="Trazado_826434" data-name="Trazado 826434" d="M14.3,0A14.3,14.3,0,1,1,0,14.3,14.3,14.3,0,0,1,14.3,0Z" transform="matrix(0.16, -0.987, 0.987, 0.16, -5078.378, -9901.595)" fill="#2efec7"/>
    <path id="Trazado_826435" data-name="Trazado 826435" d="M65.583,0A65.583,65.583,0,1,1,0,65.583,65.583,65.583,0,0,1,65.583,0Z" transform="translate(-5072.739 -9913.424) rotate(-45)" fill="url(#linear-gradient)"/>
    <path id="Trazado_826436" data-name="Trazado 826436" d="M62.3,0A62.3,62.3,0,1,1,0,62.3,62.3,62.3,0,0,1,62.3,0Z" transform="translate(-5068.102 -9913.424) rotate(-45)" fill="url(#linear-gradient-2)"/>
    <path id="Trazado_826437" data-name="Trazado 826437" d="M5.619-2.659q.144-.813-.8-1.244L3.5-4.43Q1.2-5.455,1.319-7.253a2.593,2.593,0,0,1,.547-1.477,3.288,3.288,0,0,1,1.4-1.008,4.961,4.961,0,0,1,1.948-.352,3.375,3.375,0,0,1,2.331.858,2.859,2.859,0,0,1,.875,2.225h-2a1.424,1.424,0,0,0-.3-1.053A1.339,1.339,0,0,0,5.1-8.449a2.074,2.074,0,0,0-1.189.311,1.276,1.276,0,0,0-.6.892q-.13.745,1,1.183l.9.342.52.239a2.824,2.824,0,0,1,1.887,2.8,2.7,2.7,0,0,1-.564,1.521,3.179,3.179,0,0,1-1.367.981,4.87,4.87,0,0,1-1.9.321A4.264,4.264,0,0,1,1.894-.3,2.93,2.93,0,0,1,.636-1.5,3.1,3.1,0,0,1,.26-3.138l2,.007q-.1,1.62,1.593,1.647a2.093,2.093,0,0,0,1.2-.321A1.251,1.251,0,0,0,5.619-2.659Zm7.048-4.874a2.967,2.967,0,0,1,1.685.5,2.83,2.83,0,0,1,1.039,1.347,4.166,4.166,0,0,1,.236,1.9A4.5,4.5,0,0,1,14.4-.926,3.465,3.465,0,0,1,11.758.137a2.958,2.958,0,0,1-1.668-.5A2.819,2.819,0,0,1,9.051-1.7a4.075,4.075,0,0,1-.239-1.887,4.633,4.633,0,0,1,1.244-2.912A3.393,3.393,0,0,1,12.667-7.533ZM10.719-2.883a1.707,1.707,0,0,0,.308,1.034,1.022,1.022,0,0,0,.827.392,1.5,1.5,0,0,0,1.395-.816,4.066,4.066,0,0,0,.472-2.215A1.856,1.856,0,0,0,13.4-5.534a1,1,0,0,0-.831-.406,1.5,1.5,0,0,0-1.377.809A4.024,4.024,0,0,0,10.719-2.883ZM16.7,0l1.032-5.954H16.666L16.919-7.4,17.985-7.4l.1-.738A2.915,2.915,0,0,1,19.045-10a2.917,2.917,0,0,1,2-.66,6.414,6.414,0,0,1,1.046.143l-.171,1.532a2.39,2.39,0,0,0-.567-.082,1.413,1.413,0,0,0-.878.261,1.186,1.186,0,0,0-.455.8l-.1.6h1.429L21.1-5.954H19.674L18.642,0Zm8.326-9.215L24.705-7.4h1.23l-.253,1.449h-1.23l-.629,3.705a.942.942,0,0,0,.055.533q.1.185.465.2.109.007.588-.034L24.794-.034a3.242,3.242,0,0,1-1.107.157,1.737,1.737,0,0,1-1.415-.595,2.149,2.149,0,0,1-.383-1.572l.636-3.9H21.479L21.731-7.4h1.046l.314-1.818ZM32.45-2.693l1.757-4.7h1.921L33.018,0H31.4l-.547-4.628L28.7,0H27.084l-.547-7.4h1.8l.116,4.655L30.57-7.4h1.395ZM40.1,0a2,2,0,0,1-.075-.67,2.505,2.505,0,0,1-1.887.807A2.27,2.27,0,0,1,36.528-.5a1.913,1.913,0,0,1-.6-1.528,2.211,2.211,0,0,1,1.015-1.856,4.608,4.608,0,0,1,2.594-.646l.9.014.1-.444a1.543,1.543,0,0,0,.021-.431.74.74,0,0,0-.243-.5.836.836,0,0,0-.55-.188A1.177,1.177,0,0,0,39-5.855a1.077,1.077,0,0,0-.4.68l-1.935.007a2.15,2.15,0,0,1,.974-1.719,3.773,3.773,0,0,1,2.287-.646,2.727,2.727,0,0,1,1.969.749,2.19,2.19,0,0,1,.595,1.856l-.567,3.541-.034.438A2.111,2.111,0,0,0,42-.13L41.993,0ZM38.616-1.36a1.765,1.765,0,0,0,1.456-.725l.239-1.278-.67-.007a1.872,1.872,0,0,0-1.538.649,1.131,1.131,0,0,0-.212.554.656.656,0,0,0,.154.584A.779.779,0,0,0,38.616-1.36Zm9.618-4.184a3.98,3.98,0,0,0-.649-.068,1.869,1.869,0,0,0-1.634.772L45.1,0H43.169l1.285-7.4L46.266-7.4l-.178.9a2.034,2.034,0,0,1,1.723-1.046,2.812,2.812,0,0,1,.67.1ZM51.707.137a3.218,3.218,0,0,1-1.719-.475A2.88,2.88,0,0,1,48.87-1.624a3.582,3.582,0,0,1-.287-1.8L48.6-3.7a4.782,4.782,0,0,1,.629-1.982,3.8,3.8,0,0,1,1.354-1.391,3.349,3.349,0,0,1,1.832-.461,2.559,2.559,0,0,1,2.164,1.051,3.6,3.6,0,0,1,.557,2.591l-.109.842H50.5A1.587,1.587,0,0,0,50.846-1.9a1.331,1.331,0,0,0,1.025.444,2.365,2.365,0,0,0,1.846-.82L54.6-1.183A2.743,2.743,0,0,1,53.4-.2,3.934,3.934,0,0,1,51.707.137Zm.615-6.077a1.37,1.37,0,0,0-.947.335,2.943,2.943,0,0,0-.742,1.21h2.652l.041-.178a1.812,1.812,0,0,0,.007-.52A.992.992,0,0,0,53-5.711,1.05,1.05,0,0,0,52.322-5.94Z" transform="translate(-5009.243 -9878.045)" fill="#12263f"/>
    <path id="Trazado_188247" data-name="Trazado 188247" d="M-366.876,807.9c-.827,2.246-1.475,2.687-3.952,2.687-.761,0-1.527-.049-2.28.026a1.168,1.168,0,0,0-.84.529,1.117,1.117,0,0,0,.166.98c.663.763,1.419,1.445,2.127,2.169a2.941,2.941,0,0,1-.009,4.475q-.678.7-1.375,1.373a2.94,2.94,0,0,1-4.424.014c-.706-.686-1.364-1.425-2.106-2.069a1.2,1.2,0,0,0-1.025-.273,1.372,1.372,0,0,0-.6.979c-.08,1.007-.014,2.026-.033,3.039a2.887,2.887,0,0,1-2.992,2.978c-.733.012-1.466.01-2.2,0a2.909,2.909,0,0,1-3.047-2.938c-.042-.984.04-1.975-.038-2.955a1.456,1.456,0,0,0-.55-1.08c-.274-.125-.839.112-1.134.359-.732.612-1.378,1.327-2.067,1.991a2.928,2.928,0,0,1-4.3.035c-.551-.525-1.093-1.06-1.613-1.614a2.905,2.905,0,0,1,0-4.173c.7-.737,1.466-1.407,2.128-2.172a1.327,1.327,0,0,0,.313-1.093,1.317,1.317,0,0,0-.988-.556c-.981-.075-1.971-.011-2.957-.029a2.967,2.967,0,0,1-3.06-3.033q-.025-1.1,0-2.2a2.947,2.947,0,0,1,3.054-3.03c.958-.012,1.921.051,2.872-.029a1.5,1.5,0,0,0,1.076-.568,1.289,1.289,0,0,0-.3-1.095c-.619-.725-1.348-1.356-2.015-2.042a2.932,2.932,0,0,1-.012-4.416c.491-.5.986-1.006,1.5-1.493a2.971,2.971,0,0,1,4.253-.022c.734.7,1.4,1.466,2.17,2.124a1.28,1.28,0,0,0,1.088.275,1.354,1.354,0,0,0,.545-1c.075-.952.009-1.913.03-2.87a2.922,2.922,0,0,1,3.144-3.095c.789-.008,1.579-.024,2.367.012a2.83,2.83,0,0,1,2.72,2.713c.044,1.04-.041,2.088.045,3.123a1.591,1.591,0,0,0,.611,1.134c.235.131.825-.144,1.121-.4.728-.618,1.368-1.338,2.061-2a2.985,2.985,0,0,1,4.257-.026c.574.54,1.136,1.1,1.67,1.676a2.88,2.88,0,0,1-.023,4.107c-.7.738-1.464,1.409-2.128,2.172-.237.273-.455.828-.33,1.08a1.5,1.5,0,0,0,1.042.6,15.7,15.7,0,0,0,2.11.027c2.479,0,3.122.442,3.927,2.7Zm-27.4,3.608.209.113a14.574,14.574,0,0,1-1.192,2.144,24.118,24.118,0,0,1-2.126,2.171.711.711,0,0,0-.013,1.162c.462.454.926.907,1.373,1.375a.738.738,0,0,0,1.225,0c.707-.726,1.414-1.453,2.151-2.148a3.045,3.045,0,0,1,3.5-.677,3.068,3.068,0,0,1,1.982,2.97c.017,1.013.012,2.028.005,3.041,0,.558.249.838.814.834.648,0,1.3-.015,1.944,0,.606.017.881-.261.879-.858,0-.957.019-1.915.01-2.872a3.1,3.1,0,0,1,2-3.127,3.147,3.147,0,0,1,3.635.8c.668.646,1.319,1.31,1.957,1.986.431.457.828.525,1.283.037.423-.452.861-.892,1.316-1.313.488-.453.431-.847-.029-1.281-.676-.637-1.335-1.294-1.988-1.955a3.173,3.173,0,0,1-.809-3.638,3.145,3.145,0,0,1,3.129-2.021c.958-.007,1.916-.016,2.874,0,.6.012.888-.254.881-.855-.007-.619-.014-1.239,0-1.858.017-.652-.295-.906-.931-.892-.929.021-1.86,0-2.79,0a3.221,3.221,0,0,1-3.16-1.985,3.169,3.169,0,0,1,.8-3.634c.67-.685,1.343-1.367,2.031-2.032a.728.728,0,0,0,.009-1.219c-.451-.425-.894-.86-1.314-1.315a.753.753,0,0,0-1.279-.01c-.658.692-1.343,1.359-2.023,2.031a3.111,3.111,0,0,1-3.561.789,3.091,3.091,0,0,1-2.039-3.1c0-.929-.025-1.859,0-2.787.021-.73-.305-1.026-1.019-.992-.562.027-1.127.019-1.691,0-.69-.02-.958.308-.94.982.025.928,0,1.858,0,2.787a3.077,3.077,0,0,1-1.948,3.077,3.109,3.109,0,0,1-3.586-.683c-.716-.677-1.4-1.385-2.081-2.1a.757.757,0,0,0-1.282,0c-.422.453-.868.884-1.313,1.316a.737.737,0,0,0,.018,1.225c.673.641,1.332,1.3,1.985,1.958a3.238,3.238,0,0,1,.868,3.629,3.264,3.264,0,0,1-3.191,2.068c-.958.016-1.916.014-2.874,0-.558-.006-.841.222-.827.8.015.647.017,1.3,0,1.943-.017.612.264.865.868.855,1.014-.016,2.029-.019,3.043.006A3.237,3.237,0,0,1-394.277,811.51Z" transform="translate(-4570.286 -10722.577)" fill="#12263f"/>
    <path id="Trazado_188248" data-name="Trazado 188248" d="M-561.607,696.675h-2.245v-6.406h-8.982V700.86h-2.29V690.281h-43.459v.908q0,15.8,0,31.6c0,1.25.035,1.286,1.286,1.286h35.49v2.337h-.861q-17.42,0-34.841,0c-2.232,0-3.391-1.145-3.391-3.377q-.006-20.027,0-40.053c0-2.259,1.132-3.392,3.365-3.392q26.342,0,52.684,0a2.931,2.931,0,0,1,3.28,3.284q.008,6.506,0,13.013C-561.57,696.137-561.593,696.384-561.607,696.675Zm-56.974-8.821h54.713c0-1.509,0-2.993,0-4.478,0-1.462,0-1.464-1.451-1.464h-51.815c-.226,0-.451,0-.676,0a.688.688,0,0,0-.771.786C-618.58,684.388-618.581,686.074-618.581,687.854Z" transform="translate(-4389.939 -10632.474)" fill="#12263f"/>
    <path id="Trazado_188249" data-name="Trazado 188249" d="M-462.732,805.706l-5.664-5.969,1.565-1.512c.808.878,1.6,1.79,2.444,2.645,1.445,1.459,2.923,2.885,4.395,4.317.3.289.473.516.084.893-2.36,2.291-4.7,4.6-7.131,6.979l-1.241-1.518Z" transform="translate(-4516.592 -10730.996)" fill="#12263f"/>
    <path id="Trazado_188250" data-name="Trazado 188250" d="M-551.541,799.095l1.361,1.43-5.532,5.876,5.629,5.963-1.534,1.5c-.557-.629-1.063-1.265-1.635-1.836-1.716-1.71-3.459-3.393-5.189-5.088-.257-.252-.615-.493-.2-.9Q-555.088,802.566-551.541,799.095Z" transform="translate(-4441.488 -10731.719)" fill="#12263f"/>
    <path id="Trazado_188251" data-name="Trazado 188251" d="M-503.152,812.96l-2.09-.458,3.288-14.521,2.1.457Z" transform="translate(-4485.992 -10730.793)" fill="#12263f"/>
    <path id="Trazado_188252" data-name="Trazado 188252" d="M-324.142,873.38a5.872,5.872,0,0,1-5.847-5.946,5.9,5.9,0,0,1,5.955-5.85,5.945,5.945,0,0,1,5.866,5.959A5.917,5.917,0,0,1-324.142,873.38Zm3.638-5.918a3.6,3.6,0,0,0-3.63-3.57,3.593,3.593,0,0,0-3.528,3.581,3.59,3.59,0,0,0,3.581,3.613A3.6,3.6,0,0,0-320.5,867.462Z" transform="translate(-4631.536 -10783.613)" fill="#12263f"/>
    <path id="Trazado_188253" data-name="Trazado 188253" d="M-321.516,700.946a2.482,2.482,0,0,1-2.542-2.472,2.535,2.535,0,0,1,2.541-2.581,2.585,2.585,0,0,1,2.523,2.539A2.526,2.526,0,0,1-321.516,700.946Z" transform="translate(-4636.46 -10646.012)" fill="#12263f"/>
    <path id="Trazado_188254" data-name="Trazado 188254" d="M-391.6,700.943a2.484,2.484,0,0,1-2.528-2.486,2.531,2.531,0,0,1,2.552-2.568,2.564,2.564,0,0,1,2.5,2.55A2.517,2.517,0,0,1-391.6,700.943Z" transform="translate(-4578.271 -10646.009)" fill="#12263f"/>
    <path id="Trazado_188255" data-name="Trazado 188255" d="M-356.535,700.948a2.476,2.476,0,0,1-2.531-2.479,2.523,2.523,0,0,1,2.542-2.574,2.582,2.582,0,0,1,2.515,2.544A2.526,2.526,0,0,1-356.535,700.948Z" transform="translate(-4607.388 -10646.014)" fill="#12263f"/>
    <path id="Trazado_826438" data-name="Trazado 826438" d="M7.376-4.115A5.042,5.042,0,0,1,6.521-.957,2.983,2.983,0,0,1,4.02.137,3,3,0,0,1,1.531-.937,4.895,4.895,0,0,1,.649-4.013V-5.845A4.976,4.976,0,0,1,1.514-9.01a3,3,0,0,1,2.492-1.08A3.008,3.008,0,0,1,6.494-9.02a4.879,4.879,0,0,1,.882,3.073ZM5.4-6.129a3.645,3.645,0,0,0-.338-1.8A1.144,1.144,0,0,0,4.006-8.5a1.123,1.123,0,0,0-1.029.537,3.411,3.411,0,0,0-.352,1.68v2.422a3.826,3.826,0,0,0,.332,1.81,1.128,1.128,0,0,0,1.063.592,1.109,1.109,0,0,0,1.046-.568A3.734,3.734,0,0,0,5.4-3.762Zm5.318.278h1.053a1.483,1.483,0,0,0,1.114-.376,1.378,1.378,0,0,0,.362-1,1.218,1.218,0,0,0-.359-.937A1.391,1.391,0,0,0,11.9-8.5a1.458,1.458,0,0,0-.95.311,1,1,0,0,0-.383.81H8.593a2.43,2.43,0,0,1,.42-1.4,2.8,2.8,0,0,1,1.176-.967,3.924,3.924,0,0,1,1.665-.349,3.722,3.722,0,0,1,2.475.755,2.577,2.577,0,0,1,.9,2.082A2.094,2.094,0,0,1,14.807-6a2.709,2.709,0,0,1-1.094.882,2.473,2.473,0,0,1,1.254.9,2.448,2.448,0,0,1,.414,1.422,2.62,2.62,0,0,1-.967,2.126,3.889,3.889,0,0,1-2.56.8A3.688,3.688,0,0,1,9.417-.649,2.567,2.567,0,0,1,8.47-2.728h1.976a1.145,1.145,0,0,0,.42.916,1.549,1.549,0,0,0,1.036.355,1.556,1.556,0,0,0,1.1-.373,1.286,1.286,0,0,0,.4-.988q0-1.49-1.641-1.49H10.719Z" transform="translate(-5070.776 -9908.94)" fill="#12263f"/>
  </g>
</svg>
