<svg xmlns="http://www.w3.org/2000/svg" width="243.26" height="116.76" viewBox="0 0 243.26 116.76">
  <g id="Grupo_1077893" data-name="Grupo 1077893" transform="translate(-456 7499.965)">
    <path id="Trazado_826165" data-name="Trazado 826165" d="M324.429,129.6c.007-.319.048-.63.048-.953A39.631,39.631,0,0,0,287.7,89.142a50.1,50.1,0,0,0-88.113-13.654,33.047,33.047,0,0,0-46.227,6.245,28.8,28.8,0,1,1-34.724,35.34A33.149,33.149,0,0,0,146.449,168.3H317.231l-.89-.759a19.441,19.441,0,1,0,8.088-37.938" transform="translate(358.126 -7551.503)" fill="#fff"/>
    <g id="Grupo_42274" data-name="Grupo 42274" transform="translate(456 -7499.965)">
      <g id="Grupo_18423" data-name="Grupo 18423" transform="translate(0 0)">
        <g id="Grupo_18421" data-name="Grupo 18421">
          <g id="Grupo_18420" data-name="Grupo 18420">
            <g id="Grupo_18419" data-name="Grupo 18419">
              <path id="Trazado_40936" data-name="Trazado 40936" d="M294.623,2195.719a50,50,0,1,1-50-50A50,50,0,0,1,294.623,2195.719Z" transform="translate(-194.623 -2145.721)" fill="#fff"/>
            </g>
          </g>
        </g>
        <path id="Trazado_40937" data-name="Trazado 40937" d="M293.964,2195.133a49.881,49.881,0,1,0-49.88,49.87A49.664,49.664,0,0,0,293.964,2195.133Z" transform="translate(-193.964 -2145.004)" fill="#2efec7"/>
        <path id="Trazado_40938" data-name="Trazado 40938" d="M274.09,2189.3a35.861,35.861,0,1,0-35.859,35.848A35.709,35.709,0,0,0,274.09,2189.3Z" transform="translate(-187.932 -2138.979)" fill="none" stroke="#12263f" stroke-miterlimit="10" stroke-width="4"/>
        <g id="Grupo_18422" data-name="Grupo 18422" transform="translate(10.495 14.781)">
          <path id="Trazado_40939" data-name="Trazado 40939" d="M285.085,2164.488a69.544,69.544,0,0,1,4.226,24.072c0,32.716-21.984,59.238-49.1,59.238-16.295,0-30.731-9.579-39.665-24.319a59.775,59.775,0,0,0,4.887,7.892c8.941,11.3,21.549,18.336,35.517,18.336,27.119,0,49.1-26.522,49.1-59.242A69.163,69.163,0,0,0,285.085,2164.488Z" transform="translate(-200.545 -2164.488)" fill="#eceef0"/>
        </g>
      </g>
    </g>
    <g id="_264fZ8" data-name="264fZ8" transform="translate(477.151 -7478.658)">
      <g id="Grupo_152070" data-name="Grupo 152070">
        <path id="Trazado_194714" data-name="Trazado 194714" d="M1218.544-641.094c0,4.416.006,8.831,0,13.246,0,2.193-.224,2.428-2.31,2.43q-12.083.012-24.166,0c-2.045,0-2.409-.348-2.412-2.382-.012-8.95.012-17.9-.021-26.851-.006-1.63.549-2.384,2.289-2.373q12.172.076,24.344,0c1.678-.009,2.337.6,2.306,2.322C1218.491-650.164,1218.544-645.628,1218.544-641.094Zm-26.417-13.628v7.4h23.951v-7.4Zm-.043,17.478h24.009v-7.53h-24.009Zm.047,2.519v6.881h23.954v-6.881Z" transform="translate(-1179.189 682.433)" fill="#12263f"/>
        <path id="Trazado_194715" data-name="Trazado 194715" d="M1169.139-694.7c-4.7.62-9.313-4.539-8.549-9.58a8.486,8.486,0,0,1,5.84-7.266,1.576,1.576,0,0,0,1.238-1.792c.137-7.362,4.657-12.772,11.867-14.285,6.166-1.294,12.755,2.24,15.595,8.489a1.991,1.991,0,0,0,2.18,1.327c3.584-.027,7.186-.2,10.748.1a12,12,0,0,1,10.259,7.357c2,4.253,1.587,8.431-.913,12.526l-1.57-1.044a29.336,29.336,0,0,0,1.3-5.239c.368-5.981-3.352-10.674-9.3-11.33-3.76-.416-7.6-.078-11.456-.078l-.189,1.809h-2.013c-.495-4.689-2.624-8.415-7-10.617a11.557,11.557,0,0,0-8.708-.683c-6.858,2.019-9.686,8.323-7.582,16.887l-1.77.987L1168-709.522a6.094,6.094,0,0,0-5.112,5.866,6.332,6.332,0,0,0,4.819,6.665C1169.111-696.652,1169.688-696.113,1169.139-694.7Z" transform="translate(-1160.506 727.894)" fill="#12263f"/>
        <path id="Trazado_194716" data-name="Trazado 194716" d="M1279.009-652.953l-3.516,3.929-1.346-2.445c1.217-1.143,2.8-2.751,4.533-4.164a2.046,2.046,0,0,1,1.972.156c2.734,2.575,5.38,5.246,7.986,7.952a2.057,2.057,0,0,1,.532,1.706c-.149.419-.96.7-1.53.848a10.571,10.571,0,0,1-2,.146c-.075,1.246-.142,2.355-.211,3.525h-2.106v-5.79l1.45-.123Z" transform="translate(-1233.404 681.661)" fill="#12263f"/>
        <path id="Trazado_194717" data-name="Trazado 194717" d="M1284.013-618.4c-2.322.207-2.331.2-1.991-2.1l1.991-.1Z" transform="translate(-1238.351 659.067)" fill="#12263f"/>
        <path id="Trazado_194718" data-name="Trazado 194718" d="M1284.08-606.347v2.009c-2.321.4-2.425.3-2.032-2.009Z" transform="translate(-1238.358 649.926)" fill="#12263f"/>
        <path id="Trazado_194719" data-name="Trazado 194719" d="M1301.56-606.612c.424,2.329.375,2.384-1.891,2.221a8.686,8.686,0,0,1-.154-.963c-.019-.344.025-.691.048-1.171Z" transform="translate(-1249.673 650.096)" fill="#12263f"/>
        <path id="Trazado_194720" data-name="Trazado 194720" d="M1281.938-592.405h2.117v2.039C1281.8-589.987,1281.789-589.994,1281.938-592.405Z" transform="translate(-1238.366 640.982)" fill="#12263f"/>
        <path id="Trazado_194721" data-name="Trazado 194721" d="M1301.941-590.185h-2.058v-2.142h2.058Z" transform="translate(-1249.912 640.932)" fill="#12263f"/>
        <path id="Trazado_194722" data-name="Trazado 194722" d="M1284.085-576.494c-2.315.3-2.342.276-2.088-2.029.307-.037.642-.1.979-.112s.691.024,1.11.043Z" transform="translate(-1238.37 632.151)" fill="#12263f"/>
        <path id="Trazado_194723" data-name="Trazado 194723" d="M1299.614-576.278v-1.992h2.012C1302.119-576.1,1301.969-575.937,1299.614-576.278Z" transform="translate(-1249.739 631.915)" fill="#12263f"/>
        <path id="Trazado_194724" data-name="Trazado 194724" d="M1207.713-585.129v-2.013h2.224C1210.495-584.941,1210.335-584.786,1207.713-585.129Z" transform="translate(-1190.788 637.606)" fill="#12263f"/>
        <path id="Trazado_194725" data-name="Trazado 194725" d="M1228.781-585.083h-2.231v-2.156h2.231Z" transform="translate(-1202.871 637.669)" fill="#12263f"/>
        <path id="Trazado_194726" data-name="Trazado 194726" d="M1247.049-587.286v2.157h-2.207v-2.157Z" transform="translate(-1214.605 637.699)" fill="#12263f"/>
      </g>
    </g>
    <path id="Trazado_826424" data-name="Trazado 826424" d="M5.722-4.526H4.052V0H.967V-12.8H6a5.621,5.621,0,0,1,3.56,1.01,3.421,3.421,0,0,1,1.283,2.853,4.155,4.155,0,0,1-.541,2.213A3.837,3.837,0,0,1,8.613-5.3L11.285-.132V0H7.98ZM4.052-6.9H6a1.751,1.751,0,0,0,1.323-.463A1.788,1.788,0,0,0,7.77-8.653a1.809,1.809,0,0,0-.448-1.3A1.735,1.735,0,0,0,6-10.424H4.052ZM15.7,0H12.727V-9.51H15.7ZM12.551-11.971a1.334,1.334,0,0,1,.457-1.043,1.718,1.718,0,0,1,1.187-.407,1.718,1.718,0,0,1,1.187.407,1.334,1.334,0,0,1,.457,1.043,1.334,1.334,0,0,1-.457,1.043,1.718,1.718,0,0,1-1.187.407,1.718,1.718,0,0,1-1.187-.407A1.334,1.334,0,0,1,12.551-11.971ZM22.122.176A4.889,4.889,0,0,1,18.58-1.129a4.507,4.507,0,0,1-1.354-3.4v-.246a5.84,5.84,0,0,1,.541-2.575,3.955,3.955,0,0,1,1.578-1.727,4.763,4.763,0,0,1,2.461-.611A4.117,4.117,0,0,1,24.97-8.442a4.887,4.887,0,0,1,1.16,3.467v1.151H20.241a2.135,2.135,0,0,0,.694,1.257,2.066,2.066,0,0,0,1.389.457,2.662,2.662,0,0,0,2.2-.984l1.354,1.6A3.784,3.784,0,0,1,24.306-.277,5.3,5.3,0,0,1,22.122.176ZM21.788-7.4q-1.3,0-1.547,1.723h2.988v-.229a1.467,1.467,0,0,0-.36-1.1A1.434,1.434,0,0,0,21.788-7.4ZM32.3-2.672a.684.684,0,0,0-.4-.606,6.016,6.016,0,0,0-1.5-.475A6.853,6.853,0,0,1,28.573-4.4a3.062,3.062,0,0,1-1.1-.971A2.319,2.319,0,0,1,27.1-6.68a2.628,2.628,0,0,1,1.081-2.158,4.453,4.453,0,0,1,2.83-.848,4.934,4.934,0,0,1,3.023.853,2.666,2.666,0,0,1,1.143,2.241H32.2q0-1.143-1.2-1.143a1.194,1.194,0,0,0-.782.259.8.8,0,0,0-.316.646.737.737,0,0,0,.387.642,3.654,3.654,0,0,0,1.235.4,10.671,10.671,0,0,1,1.49.378A2.706,2.706,0,0,1,35.156-2.76,2.491,2.491,0,0,1,34-.642a5.068,5.068,0,0,1-2.993.817,5.172,5.172,0,0,1-2.18-.439,3.645,3.645,0,0,1-1.494-1.2A2.707,2.707,0,0,1,26.8-3.05h2.769a1.145,1.145,0,0,0,.439.962,1.808,1.808,0,0,0,1.081.3A1.422,1.422,0,0,0,32-2.03.787.787,0,0,0,32.3-2.672Zm3.894-2.153a6.421,6.421,0,0,1,.475-2.549A3.821,3.821,0,0,1,38.03-9.083a3.591,3.591,0,0,1,2.065-.6,2.855,2.855,0,0,1,2.32,1l.105-.826h2.689V-.36a4.009,4.009,0,0,1-.584,2.184,3.75,3.75,0,0,1-1.692,1.424,6.219,6.219,0,0,1-2.566.5,5.365,5.365,0,0,1-2.026-.4,3.657,3.657,0,0,1-1.5-1.028L38.083.58a2.716,2.716,0,0,0,2.18.976A1.764,1.764,0,0,0,42.231-.466v-.3a2.781,2.781,0,0,1-2.153.94,3.437,3.437,0,0,1-2.812-1.332A5.517,5.517,0,0,1,36.193-4.72Zm2.971.185a3.383,3.383,0,0,0,.439,1.85,1.386,1.386,0,0,0,1.23.681,1.573,1.573,0,0,0,1.4-.642v-4a1.534,1.534,0,0,0-1.38-.65,1.4,1.4,0,0,0-1.239.708A3.858,3.858,0,0,0,39.164-4.641Zm7.356-.2a5.613,5.613,0,0,1,.554-2.536,3.96,3.96,0,0,1,1.591-1.709,4.791,4.791,0,0,1,2.435-.6,4.373,4.373,0,0,1,3.366,1.323,5.076,5.076,0,0,1,1.23,3.6v.105a4.925,4.925,0,0,1-1.235,3.529A4.384,4.384,0,0,1,51.117.176a4.434,4.434,0,0,1-3.261-1.217,4.761,4.761,0,0,1-1.327-3.3Zm2.962.185A3.538,3.538,0,0,0,49.9-2.725a1.376,1.376,0,0,0,1.222.615q1.582,0,1.617-2.435v-.3Q52.734-7.4,51.1-7.4q-1.485,0-1.608,2.206Zm12.5,1.986a.684.684,0,0,0-.4-.606,6.016,6.016,0,0,0-1.5-.475A6.853,6.853,0,0,1,58.254-4.4a3.062,3.062,0,0,1-1.1-.971,2.319,2.319,0,0,1-.378-1.31,2.628,2.628,0,0,1,1.081-2.158,4.453,4.453,0,0,1,2.83-.848,4.934,4.934,0,0,1,3.023.853,2.666,2.666,0,0,1,1.143,2.241H61.884q0-1.143-1.2-1.143a1.194,1.194,0,0,0-.782.259.8.8,0,0,0-.316.646.737.737,0,0,0,.387.642,3.654,3.654,0,0,0,1.235.4,10.671,10.671,0,0,1,1.49.378A2.706,2.706,0,0,1,64.837-2.76,2.491,2.491,0,0,1,63.681-.642a5.068,5.068,0,0,1-2.993.817,5.172,5.172,0,0,1-2.18-.439,3.645,3.645,0,0,1-1.494-1.2,2.707,2.707,0,0,1-.536-1.591h2.769a1.145,1.145,0,0,0,.439.962,1.808,1.808,0,0,0,1.081.3,1.422,1.422,0,0,0,.91-.246A.787.787,0,0,0,61.98-2.672Zm8.35-2.153a5.809,5.809,0,0,1,.976-3.56,3.211,3.211,0,0,1,2.725-1.3,2.731,2.731,0,0,1,2.145,1V-13.5h2.971V0H76.482l-.149-1.02a2.8,2.8,0,0,1-2.32,1.2,3.205,3.205,0,0,1-2.689-1.3A5.993,5.993,0,0,1,70.33-4.825Zm2.962.185q0,2.531,1.477,2.531a1.458,1.458,0,0,0,1.406-.826V-6.557A1.419,1.419,0,0,0,74.786-7.4q-1.371,0-1.485,2.215ZM85.43.176a4.889,4.889,0,0,1-3.542-1.305,4.507,4.507,0,0,1-1.354-3.4v-.246a5.84,5.84,0,0,1,.541-2.575,3.955,3.955,0,0,1,1.578-1.727,4.763,4.763,0,0,1,2.461-.611,4.117,4.117,0,0,1,3.164,1.244,4.887,4.887,0,0,1,1.16,3.467v1.151H83.549a2.135,2.135,0,0,0,.694,1.257,2.066,2.066,0,0,0,1.389.457,2.662,2.662,0,0,0,2.2-.984l1.354,1.6A3.784,3.784,0,0,1,87.614-.277,5.3,5.3,0,0,1,85.43.176ZM85.1-7.4q-1.3,0-1.547,1.723h2.988v-.229a1.467,1.467,0,0,0-.36-1.1A1.434,1.434,0,0,0,85.1-7.4ZM4.852,22.891a1.317,1.317,0,0,0,.967-.338,1.241,1.241,0,0,0,.334-.945H8.93a3.288,3.288,0,0,1-1.121,2.566,4.168,4.168,0,0,1-2.887,1,4.22,4.22,0,0,1-3.27-1.3,5.125,5.125,0,0,1-1.2-3.6v-.123A5.792,5.792,0,0,1,.989,17.6a3.872,3.872,0,0,1,1.534-1.7A4.573,4.573,0,0,1,4.9,15.314,4.116,4.116,0,0,1,7.84,16.343a3.647,3.647,0,0,1,1.09,2.786H6.152A1.626,1.626,0,0,0,5.792,18a1.244,1.244,0,0,0-.967-.4q-1.151,0-1.345,1.468a10.357,10.357,0,0,0-.062,1.283,4.068,4.068,0,0,0,.343,1.986A1.187,1.187,0,0,0,4.852,22.891Zm4.957-2.733a5.613,5.613,0,0,1,.554-2.536,3.96,3.96,0,0,1,1.591-1.709,4.791,4.791,0,0,1,2.435-.6,4.373,4.373,0,0,1,3.366,1.323,5.076,5.076,0,0,1,1.23,3.6v.105a4.925,4.925,0,0,1-1.235,3.529,4.384,4.384,0,0,1-3.344,1.305,4.434,4.434,0,0,1-3.261-1.217,4.761,4.761,0,0,1-1.327-3.3Zm2.962.185a3.538,3.538,0,0,0,.413,1.934,1.376,1.376,0,0,0,1.222.615q1.582,0,1.617-2.435v-.3q0-2.558-1.635-2.558-1.485,0-1.608,2.206ZM23.01,15.49l.1,1.116a3.225,3.225,0,0,1,2.716-1.292,2.713,2.713,0,0,1,2.219.888,4.226,4.226,0,0,1,.76,2.672V25H25.831V19a1.6,1.6,0,0,0-.29-1.059,1.342,1.342,0,0,0-1.055-.338,1.413,1.413,0,0,0-1.292.686V25H20.232V15.49ZM31.131,25V17.547h-1.38V15.49h1.38v-.316a3.631,3.631,0,0,1,1.248-2.909,4.987,4.987,0,0,1,3.243-.949,11.509,11.509,0,0,1,3.094.51l-.4,2.338-.492-.132a7.832,7.832,0,0,0-2.021-.255q-1.7,0-1.7,1.547v.167h1.863v2.057H34.1V25Zm8.947,0H37.1V15.49h2.979Zm7.163,0a3.344,3.344,0,0,1-.281-.853,2.754,2.754,0,0,1-2.285,1.028,3.374,3.374,0,0,1-2.285-.813,2.588,2.588,0,0,1-.94-2.043,2.66,2.66,0,0,1,1.143-2.338,5.821,5.821,0,0,1,3.322-.791h.914v-.5q0-1.316-1.134-1.316a.927.927,0,0,0-1.055,1.042H41.678a2.655,2.655,0,0,1,1.173-2.239,4.931,4.931,0,0,1,2.993-.86,4.323,4.323,0,0,1,2.874.888A3.086,3.086,0,0,1,49.8,18.637v4.21a4.311,4.311,0,0,0,.4,2V25Zm-1.854-1.934a1.652,1.652,0,0,0,.918-.237,1.487,1.487,0,0,0,.523-.536V20.772h-.861q-1.547,0-1.547,1.389a.848.848,0,0,0,.272.655A.986.986,0,0,0,45.387,23.066Zm14.88-2.742a5.8,5.8,0,0,1-.967,3.595,3.238,3.238,0,0,1-2.725,1.257,2.81,2.81,0,0,1-2.338-1.151L54.114,25H51.46V11.5h2.962v4.755a2.711,2.711,0,0,1,2.136-.94A3.239,3.239,0,0,1,59.3,16.589a5.826,5.826,0,0,1,.967,3.586ZM57.3,20.135a3.866,3.866,0,0,0-.365-1.952,1.229,1.229,0,0,0-1.121-.584,1.418,1.418,0,0,0-1.389.763v3.773a1.426,1.426,0,0,0,1.406.755,1.258,1.258,0,0,0,1.327-1.018A7.309,7.309,0,0,0,57.3,20.135ZM64.7,25H61.726V15.49H64.7ZM61.55,13.029a1.334,1.334,0,0,1,.457-1.043,1.934,1.934,0,0,1,2.373,0,1.42,1.42,0,0,1,0,2.087,1.934,1.934,0,0,1-2.373,0A1.334,1.334,0,0,1,61.55,13.029ZM69.645,25H66.674V11.5h2.971Zm4.948,0H71.622V15.49h2.971ZM71.446,13.029a1.334,1.334,0,0,1,.457-1.043,1.934,1.934,0,0,1,2.373,0,1.42,1.42,0,0,1,0,2.087,1.934,1.934,0,0,1-2.373,0A1.334,1.334,0,0,1,71.446,13.029Zm4.6,7.146a5.809,5.809,0,0,1,.976-3.56,3.211,3.211,0,0,1,2.725-1.3,2.731,2.731,0,0,1,2.145,1V11.5h2.971V25H82.2l-.149-1.02a2.8,2.8,0,0,1-2.32,1.2,3.205,3.205,0,0,1-2.689-1.3A5.993,5.993,0,0,1,76.043,20.175ZM79,20.359q0,2.531,1.477,2.531a1.458,1.458,0,0,0,1.406-.826V18.443A1.419,1.419,0,0,0,80.5,17.6q-1.371,0-1.485,2.215ZM91.9,25a3.344,3.344,0,0,1-.281-.853,2.754,2.754,0,0,1-2.285,1.028,3.374,3.374,0,0,1-2.285-.813,2.588,2.588,0,0,1-.94-2.043,2.66,2.66,0,0,1,1.143-2.338,5.821,5.821,0,0,1,3.322-.791h.914v-.5q0-1.316-1.134-1.316A.927.927,0,0,0,89.3,18.413H86.335a2.655,2.655,0,0,1,1.173-2.239,4.931,4.931,0,0,1,2.993-.86,4.323,4.323,0,0,1,2.874.888,3.086,3.086,0,0,1,1.081,2.435v4.21a4.311,4.311,0,0,0,.4,2V25Zm-1.854-1.934a1.652,1.652,0,0,0,.918-.237,1.487,1.487,0,0,0,.523-.536V20.772h-.861q-1.547,0-1.547,1.389a.848.848,0,0,0,.272.655A.986.986,0,0,0,90.044,23.066Zm5.678-2.892a5.809,5.809,0,0,1,.976-3.56,3.211,3.211,0,0,1,2.725-1.3,2.731,2.731,0,0,1,2.145,1V11.5h2.971V25h-2.663l-.149-1.02a2.8,2.8,0,0,1-2.32,1.2,3.205,3.205,0,0,1-2.689-1.3A5.993,5.993,0,0,1,95.722,20.175Zm2.962.185q0,2.531,1.477,2.531a1.458,1.458,0,0,0,1.406-.826V18.443a1.419,1.419,0,0,0-1.389-.844q-1.371,0-1.485,2.215Z" transform="translate(559.762 -7426.032)" fill="#12263f"/>
  </g>
</svg>
