<svg xmlns="http://www.w3.org/2000/svg" xmlns:xlink="http://www.w3.org/1999/xlink" width="231.871" height="231.871" viewBox="0 0 231.871 231.871">
  <defs>
    <linearGradient id="linear-gradient" x1="0.317" y1="0.753" x2="0.831" y2="1.256" gradientUnits="objectBoundingBox">
      <stop offset="0" stop-color="#fff"/>
      <stop offset="0.231" stop-color="#f7f7f6"/>
      <stop offset="0.589" stop-color="#e1e1e1"/>
      <stop offset="1" stop-color="#c1c1c0"/>
    </linearGradient>
    <linearGradient id="linear-gradient-2" x1="0.495" y1="0.947" x2="0.182" y2="0.545" gradientUnits="objectBoundingBox">
      <stop offset="0" stop-color="#fff"/>
      <stop offset="0.38" stop-color="#f7f7f7"/>
      <stop offset="0.968" stop-color="#e1e2e4"/>
      <stop offset="0.994" stop-color="#e0e1e3"/>
    </linearGradient>
  </defs>
  <g id="Grupo_1077893" data-name="Grupo 1077893" transform="translate(5095.926 9606.229)">
    <path id="Trazado_826422" data-name="Trazado 826422" d="M81.979,0A81.979,81.979,0,1,1,0,81.979,81.979,81.979,0,0,1,81.979,0Z" transform="translate(-5095.926 -9490.294) rotate(-45)" fill="#929ba0"/>
    <path id="Trazado_188207" data-name="Trazado 188207" d="M1705.323,746.27l-9.711,9.667-6.971,6.939a2.758,2.758,0,0,1-4.7-1.955V750.745a81.979,81.979,0,0,1-81.978-81.979q0-3.241.249-6.421a81.985,81.985,0,0,0,81.729,75.557V727.708a2.759,2.759,0,0,1,4.7-1.955l6.971,6.939,9.711,9.668A2.759,2.759,0,0,1,1705.323,746.27Z" transform="translate(-6663.927 -10147.113)" fill="#2efec7"/>
    <path id="Trazado_826423" data-name="Trazado 826423" d="M14.3,0A14.3,14.3,0,1,1,0,14.3,14.3,14.3,0,0,1,14.3,0Z" transform="matrix(0.16, -0.987, 0.987, 0.16, -5078.379, -9478.466)" fill="#2efec7"/>
    <path id="Trazado_826424" data-name="Trazado 826424" d="M65.583,0A65.583,65.583,0,1,1,0,65.583,65.583,65.583,0,0,1,65.583,0Z" transform="translate(-5072.739 -9490.295) rotate(-45)" fill="url(#linear-gradient)"/>
    <path id="Trazado_826425" data-name="Trazado 826425" d="M62.3,0A62.3,62.3,0,1,1,0,62.3,62.3,62.3,0,0,1,62.3,0Z" transform="translate(-5068.102 -9490.295) rotate(-45)" fill="url(#linear-gradient-2)"/>
    <path id="Trazado_826426" data-name="Trazado 826426" d="M4.553-4.4a4.242,4.242,0,0,1-.212,1.471,2.858,2.858,0,0,1-.755,1.067,7.967,7.967,0,0,0-.738.753,1.963,1.963,0,0,0-.294.5,1.51,1.51,0,0,0-.1.555A.94.94,0,0,0,3.507,1.019,1.137,1.137,0,0,0,4.344.71a1.205,1.205,0,0,0,.325-.863H6.645A2.639,2.639,0,0,1,5.8,1.9a3.284,3.284,0,0,1-2.263.736,3.361,3.361,0,0,1-2.263-.695A2.472,2.472,0,0,1,.472-.044,3.05,3.05,0,0,1,1.518-2.179l.663-.636a1.753,1.753,0,0,0,.475-.643A2.82,2.82,0,0,0,2.8-4.4ZM4.8-6.491a.979.979,0,0,1-.314.749,1.118,1.118,0,0,1-.793.293A1.118,1.118,0,0,1,2.9-5.741a.979.979,0,0,1-.314-.749,1,1,0,0,1,.3-.749,1.109,1.109,0,0,1,.8-.293,1.109,1.109,0,0,1,.8.293A1,1,0,0,1,4.8-6.491ZM9.905-3.507V0H7.854V-9.953h3.883a4.492,4.492,0,0,1,1.972.41,3.022,3.022,0,0,1,1.309,1.166,3.25,3.25,0,0,1,.458,1.719,2.858,2.858,0,0,1-1,2.307,4.171,4.171,0,0,1-2.772.844Zm0-1.661h1.832a1.8,1.8,0,0,0,1.241-.383,1.392,1.392,0,0,0,.427-1.094,1.642,1.642,0,0,0-.431-1.183,1.609,1.609,0,0,0-1.189-.465H9.905ZM20.966,0a2.194,2.194,0,0,1-.2-.663,2.39,2.39,0,0,1-1.866.8,2.626,2.626,0,0,1-1.8-.629,2.023,2.023,0,0,1-.714-1.586,2.09,2.09,0,0,1,.872-1.8,4.3,4.3,0,0,1,2.519-.636h.909v-.424a1.219,1.219,0,0,0-.263-.82,1.035,1.035,0,0,0-.831-.308,1.177,1.177,0,0,0-.783.239.813.813,0,0,0-.284.656H16.55a1.984,1.984,0,0,1,.4-1.189,2.621,2.621,0,0,1,1.121-.858,4.086,4.086,0,0,1,1.627-.311,3.228,3.228,0,0,1,2.17.687,2.4,2.4,0,0,1,.8,1.931v3.206a3.536,3.536,0,0,0,.294,1.593V0ZM19.332-1.374a1.7,1.7,0,0,0,.807-.195,1.28,1.28,0,0,0,.547-.523V-3.363h-.738q-1.483,0-1.579,1.025l-.007.116a.791.791,0,0,0,.26.608A1.009,1.009,0,0,0,19.332-1.374Zm9.01-4.17a5.367,5.367,0,0,0-.711-.055,1.447,1.447,0,0,0-1.47.759V0H24.186V-7.4h1.866l.055.882a1.831,1.831,0,0,1,1.647-1.019,2.07,2.07,0,0,1,.615.089ZM33.373,0a2.194,2.194,0,0,1-.2-.663,2.39,2.39,0,0,1-1.866.8,2.626,2.626,0,0,1-1.8-.629,2.023,2.023,0,0,1-.714-1.586,2.09,2.09,0,0,1,.872-1.8,4.3,4.3,0,0,1,2.519-.636h.909v-.424a1.219,1.219,0,0,0-.263-.82A1.035,1.035,0,0,0,32-6.07a1.177,1.177,0,0,0-.783.239.813.813,0,0,0-.284.656H28.957a1.984,1.984,0,0,1,.4-1.189,2.621,2.621,0,0,1,1.121-.858A4.086,4.086,0,0,1,32.1-7.533a3.228,3.228,0,0,1,2.17.687,2.4,2.4,0,0,1,.8,1.931v3.206a3.536,3.536,0,0,0,.294,1.593V0ZM31.739-1.374a1.7,1.7,0,0,0,.807-.195,1.28,1.28,0,0,0,.547-.523V-3.363h-.738q-1.483,0-1.579,1.025l-.007.116a.791.791,0,0,0,.26.608A1.009,1.009,0,0,0,31.739-1.374Zm8.032-2.393a4.421,4.421,0,0,1,.776-2.755,2.537,2.537,0,0,1,2.129-1.012,2.271,2.271,0,0,1,1.894.909L44.7-7.4h1.736V2.844H44.454V-.636a2.277,2.277,0,0,1-1.791.772A2.518,2.518,0,0,1,40.558-.889,4.638,4.638,0,0,1,39.771-3.767Zm1.976.14a2.9,2.9,0,0,0,.373,1.616,1.193,1.193,0,0,0,1.049.555,1.329,1.329,0,0,0,1.285-.726v-3.06a1.318,1.318,0,0,0-1.271-.7,1.207,1.207,0,0,0-1.06.555A3.2,3.2,0,0,0,41.747-3.626ZM52.418-.752a2.477,2.477,0,0,1-2.023.889A2.337,2.337,0,0,1,48.58-.547a2.918,2.918,0,0,1-.639-2V-7.4h1.976v4.784q0,1.157,1.053,1.157a1.426,1.426,0,0,0,1.381-.7V-7.4h1.982V0H52.473ZM57.907,0H55.925V-7.4h1.982Zm-2.1-9.311a.973.973,0,0,1,.3-.731,1.117,1.117,0,0,1,.81-.287,1.12,1.12,0,0,1,.807.287.967.967,0,0,1,.3.731.97.97,0,0,1-.3.738,1.122,1.122,0,0,1-.8.287,1.122,1.122,0,0,1-.8-.287A.97.97,0,0,1,55.809-9.311ZM62.938.137a3.631,3.631,0,0,1-2.649-1,3.548,3.548,0,0,1-1.022-2.659v-.191A4.468,4.468,0,0,1,59.7-5.7a3.161,3.161,0,0,1,1.22-1.354,3.425,3.425,0,0,1,1.8-.475,3.07,3.07,0,0,1,2.389.957,3.889,3.889,0,0,1,.872,2.714v.807h-4.71a1.835,1.835,0,0,0,.578,1.162,1.746,1.746,0,0,0,1.22.438,2.132,2.132,0,0,0,1.784-.827L65.823-1.2a2.966,2.966,0,0,1-1.2.981A3.947,3.947,0,0,1,62.938.137ZM62.713-5.94a1.234,1.234,0,0,0-.954.4,2.062,2.062,0,0,0-.468,1.14h2.748V-4.56a1.471,1.471,0,0,0-.355-1.02A1.274,1.274,0,0,0,62.713-5.94ZM68.92-7.4l.062.854a2.582,2.582,0,0,1,2.126-.991,2.146,2.146,0,0,1,1.75.69,3.221,3.221,0,0,1,.588,2.064V0H71.47V-4.741a1.287,1.287,0,0,0-.273-.915,1.222,1.222,0,0,0-.909-.284,1.359,1.359,0,0,0-1.251.713V0H67.061V-7.4ZM78.347.137a3.631,3.631,0,0,1-2.649-1,3.548,3.548,0,0,1-1.022-2.659v-.191A4.468,4.468,0,0,1,75.106-5.7a3.161,3.161,0,0,1,1.22-1.354,3.425,3.425,0,0,1,1.8-.475,3.07,3.07,0,0,1,2.389.957,3.889,3.889,0,0,1,.872,2.714v.807h-4.71a1.835,1.835,0,0,0,.578,1.162,1.746,1.746,0,0,0,1.22.438,2.132,2.132,0,0,0,1.784-.827L81.231-1.2a2.966,2.966,0,0,1-1.2.981A3.947,3.947,0,0,1,78.347.137ZM78.121-5.94a1.234,1.234,0,0,0-.954.4A2.062,2.062,0,0,0,76.7-4.4h2.748V-4.56a1.471,1.471,0,0,0-.355-1.02A1.274,1.274,0,0,0,78.121-5.94Zm8.395,3.9a.637.637,0,0,0-.359-.571A4.077,4.077,0,0,0,85-2.987q-2.639-.554-2.639-2.242a2.032,2.032,0,0,1,.817-1.644,3.3,3.3,0,0,1,2.136-.66,3.547,3.547,0,0,1,2.252.663,2.09,2.09,0,0,1,.844,1.723H86.44a.956.956,0,0,0-.273-.7,1.157,1.157,0,0,0-.854-.277,1.182,1.182,0,0,0-.772.226.712.712,0,0,0-.273.574.609.609,0,0,0,.311.53,3.2,3.2,0,0,0,1.049.349,8.571,8.571,0,0,1,1.244.332,2.044,2.044,0,0,1,1.565,1.989,1.929,1.929,0,0,1-.868,1.637,3.745,3.745,0,0,1-2.242.625,3.912,3.912,0,0,1-1.651-.332A2.77,2.77,0,0,1,82.544-1.1a2.113,2.113,0,0,1-.41-1.248h1.873a1.031,1.031,0,0,0,.39.807,1.546,1.546,0,0,0,.971.28,1.43,1.43,0,0,0,.858-.215A.67.67,0,0,0,86.516-2.044Zm4.806-1a4.113,4.113,0,0,1,.232-1.526A3.13,3.13,0,0,1,92.4-5.693a4.351,4.351,0,0,0,.824-.9,1.408,1.408,0,0,0,.205-.729q0-1.157-1.066-1.157a1.08,1.08,0,0,0-.81.312,1.225,1.225,0,0,0-.318.86H89.257A2.637,2.637,0,0,1,90.1-9.351a3.287,3.287,0,0,1,2.266-.739,3.3,3.3,0,0,1,2.249.7,2.5,2.5,0,0,1,.8,1.981,2.412,2.412,0,0,1-.26,1.1,4.524,4.524,0,0,1-.909,1.146l-.554.527a1.877,1.877,0,0,0-.595,1.17l-.027.417Zm-.2,2.1a1,1,0,0,1,.311-.753,1.107,1.107,0,0,1,.8-.3,1.107,1.107,0,0,1,.8.3,1,1,0,0,1,.311.753.987.987,0,0,1-.3.743,1.109,1.109,0,0,1-.8.293,1.109,1.109,0,0,1-.8-.293A.987.987,0,0,1,91.123-.954Z" transform="translate(-5026.098 -9457.916)" fill="#12263f"/>
    <path id="Trazado_188223" data-name="Trazado 188223" d="M-783.735,959.719a1.134,1.134,0,0,1,.65,1.232c-.032.415-.006.834-.006,1.234.9-.159,1.78-.326,2.665-.466a24.656,24.656,0,0,1,4.2-.194,22.74,22.74,0,0,1,9.4,2,18.885,18.885,0,0,1,8.189,7.229,23.106,23.106,0,0,1,2.991,7.487.9.9,0,0,1-1.184,1.067c-.653-.195-1.311-.374-1.968-.555a1.357,1.357,0,0,0-.318-.033c-.669-.018-.736.049-.505.688a16.378,16.378,0,0,1,.892,4.023c.052.543.077,1.088.115,1.639A7.613,7.613,0,0,1-757.7,985a2.587,2.587,0,0,1,2.288,1.706,6.6,6.6,0,0,1,.555,3.034,11.781,11.781,0,0,1-1.454,5.429,5.634,5.634,0,0,1-2.486,2.6,1.429,1.429,0,0,0-.818.973,31.663,31.663,0,0,1-5.9,10.409,19.739,19.739,0,0,1-7.417,5.6,12.643,12.643,0,0,1-6.18.948,14.4,14.4,0,0,1-6.49-2.406,24.481,24.481,0,0,1-6.889-7.1,32.484,32.484,0,0,1-3.791-7.825.658.658,0,0,0-.415-.464,5.5,5.5,0,0,1-2.672-2.585,11.54,11.54,0,0,1-1.539-6.147,5.274,5.274,0,0,1,.8-2.869,3.364,3.364,0,0,1,1.486-1.236h-.4q-3.363,0-6.727,0a4.564,4.564,0,0,1-4.276-3.123,4.538,4.538,0,0,1,4.322-5.944c.277,0,.554,0,.888,0,0-.532,0-1.041,0-1.549q0-3.833-.009-7.666c0-2.009,0-4.019-.005-6.028a1.038,1.038,0,0,1,.688-1.045Zm-11.716,25.356c0,.914.009,1.771,0,2.628a.905.905,0,0,1-.916.918.909.909,0,0,1-.888-.942c0-.15.009-.3,0-.45a.331.331,0,0,0-.068-.2.755.755,0,0,0-1.173.1,4.162,4.162,0,0,0-.483,1.207,8.193,8.193,0,0,0,.289,3.96,7.429,7.429,0,0,0,1.774,3.3,2.326,2.326,0,0,0,1.1.669,1.177,1.177,0,0,1,1.08.962,4.12,4.12,0,0,0,.124.4,29.935,29.935,0,0,0,5.937,10.626,17.888,17.888,0,0,0,6.066,4.659,11.236,11.236,0,0,0,5.745,1.006,12.256,12.256,0,0,0,5.205-1.775,20.931,20.931,0,0,0,6.095-5.771,31.194,31.194,0,0,0,4.614-9.325,1.025,1.025,0,0,1,.862-.744,2.186,2.186,0,0,0,.89-.388,4.874,4.874,0,0,0,.948-1.036,9.533,9.533,0,0,0,1.581-5.588,4.044,4.044,0,0,0-.475-2.007c-.236-.406-.5-.534-.864-.448a.721.721,0,0,0-.669.8c0,.064,0,.13-.009.193a.889.889,0,0,1-.583.743.844.844,0,0,1-.922-.182,1.2,1.2,0,0,1-.281-1.1,19.064,19.064,0,0,0-.374-5.682c-.185-.777-.461-1.533-.638-2.311a1.869,1.869,0,0,1,1.091-2.167,3.36,3.36,0,0,1,1.737-.178c.27.032.538.08.839.126-.028-.12-.043-.2-.067-.282a21.568,21.568,0,0,0-1.482-3.713A17.083,17.083,0,0,0-770.46,964.1a22.446,22.446,0,0,0-4.94-.733,24.237,24.237,0,0,0-7.389.65c-.254.067-.309.166-.309.408q.011,5.439,0,10.878a.427.427,0,0,0,.317.464,27.811,27.811,0,0,0,10.906,2.3,1.182,1.182,0,0,1,.622.194.825.825,0,0,1,.284,1,.854.854,0,0,1-.852.6,29.092,29.092,0,0,1-4.636-.379,28.038,28.038,0,0,1-4.779-1.2c-.611-.213-1.218-.441-1.856-.673v.368c0,.9.015,1.8,0,2.7a4.276,4.276,0,0,1-.921,2.584,4.547,4.547,0,0,1-3.8,1.8q-3.637,0-7.273,0Zm-7.536-9.068h15.123a2.865,2.865,0,0,1,.322,0,.953.953,0,0,1,.839.907.918.918,0,0,1-.9.9c-.138.006-.276.031-.414.049a2.715,2.715,0,0,0-2.252,3.242,2.693,2.693,0,0,0,2.812,2.143,2.707,2.707,0,0,0,2.567-2.772q0-9.3,0-18.6v-.338h-18.094Zm11.728,1.807h-.427q-6.92,0-13.839,0a4.942,4.942,0,0,0-.605.049,2.7,2.7,0,0,0-2.312,2.8,2.749,2.749,0,0,0,2.722,2.6h14.461A4.636,4.636,0,0,1-791.259,977.814Z" transform="translate(-4197.796 -10495.768)" fill="#12263f"/>
    <path id="Trazado_188224" data-name="Trazado 188224" d="M-458.514,1383.484a1.783,1.783,0,0,1,1.888-1.787,1.818,1.818,0,0,1,1.724,1.835,1.808,1.808,0,0,1-1.884,1.77A1.787,1.787,0,0,1-458.514,1383.484Z" transform="translate(-4526.889 -10890.582)" fill="#12263f"/>
    <path id="Trazado_188225" data-name="Trazado 188225" d="M-191.382,1383.487a1.789,1.789,0,0,1,1.892-1.788,1.8,1.8,0,0,1,1.712,1.836,1.789,1.789,0,0,1-1.877,1.771A1.8,1.8,0,0,1-191.382,1383.487Z" transform="translate(-4776.824 -10890.584)" fill="#12263f"/>
    <path id="Trazado_188226" data-name="Trazado 188226" d="M-164.223,1244.638c.471,0,.942-.006,1.413,0a.885.885,0,0,1,.907.914.882.882,0,0,1-.9.885q-1.461.012-2.922,0a.885.885,0,0,1-.89-.932.887.887,0,0,1,.886-.87c.5-.011,1.006,0,1.509,0Z" transform="translate(-4799.994 -10762.341)" fill="#12263f"/>
    <path id="Trazado_188227" data-name="Trazado 188227" d="M-250.866,1047.711a.913.913,0,0,1,.894,1c-.085.6-.189,1.2-.306,1.8a.906.906,0,0,1-1.036.735.929.929,0,0,1-.736-1.071c.1-.579.187-1.159.292-1.736A.89.89,0,0,1-250.866,1047.711Z" transform="translate(-4720.049 -10578.096)" fill="#12263f"/>
    <path id="Trazado_188228" data-name="Trazado 188228" d="M-321.232,1046.532a2.484,2.484,0,0,1-.069.535.89.89,0,0,1-.845.582.885.885,0,0,1-.846-.667,5.757,5.757,0,0,1-.094-.8c-.036-.405-.087-.811-.089-1.217a.9.9,0,0,1,.879-.888.906.906,0,0,1,.916.847C-321.335,1045.441-321.286,1045.953-321.232,1046.532Z" transform="translate(-4653.515 -10574.7)" fill="#12263f"/>
    <path id="Trazado_188229" data-name="Trazado 188229" d="M-184.646,1072.621a.858.858,0,0,1,.795,1.168c-.218.589-.471,1.165-.737,1.734a.89.89,0,0,1-1.15.406.864.864,0,0,1-.49-1.136c.226-.563.46-1.124.718-1.673A.843.843,0,0,1-184.646,1072.621Z" transform="translate(-4781.584 -10601.401)" fill="#12263f"/>
    <path id="Trazado_188230" data-name="Trazado 188230" d="M-126.211,1115.444a1.1,1.1,0,0,1,.824.548.8.8,0,0,1-.039.9c-.368.511-.751,1.012-1.154,1.5a.874.874,0,0,1-1.214.067.886.886,0,0,1-.194-1.182,18.02,18.02,0,0,1,1.126-1.435A2.594,2.594,0,0,1-126.211,1115.444Z" transform="translate(-4835.999 -10641.469)" fill="#12263f"/>
    <path id="Trazado_188231" data-name="Trazado 188231" d="M-663.35,1048.919l3.213-3.214c-.431,0-.85.008-1.27,0-.635-.014-1.037-.374-1.029-.906a.946.946,0,0,1,1.039-.909q1.686-.01,3.373,0a.948.948,0,0,1,1.038,1.039q.007,1.7,0,3.405a.919.919,0,0,1-.541.908.778.778,0,0,1-.971-.166,1.44,1.44,0,0,1-.3-.742,12.2,12.2,0,0,1-.013-1.325c-.1.088-.168.144-.232.208l-3.551,3.55a.923.923,0,0,1-1.5-.008c-.641-.647-1.281-1.3-1.941-1.962-.1.1-.189.174-.269.255-.6.6-1.194,1.2-1.8,1.8a.877.877,0,0,1-1.313.014.9.9,0,0,1,.036-1.3q1.312-1.328,2.64-2.64a.921.921,0,0,1,1.394.015c.6.588,1.184,1.183,1.776,1.774C-663.491,1048.786-663.413,1048.858-663.35,1048.919Z" transform="translate(-4329.323 -10574.514)" fill="#12263f"/>
    <path id="Trazado_826427" data-name="Trazado 826427" d="M7.376-4.115A5.042,5.042,0,0,1,6.521-.957,2.983,2.983,0,0,1,4.02.137,3,3,0,0,1,1.531-.937,4.895,4.895,0,0,1,.649-4.013V-5.845A4.976,4.976,0,0,1,1.514-9.01a3,3,0,0,1,2.492-1.08A3.008,3.008,0,0,1,6.494-9.02a4.879,4.879,0,0,1,.882,3.073ZM5.4-6.129a3.645,3.645,0,0,0-.338-1.8A1.144,1.144,0,0,0,4.006-8.5a1.123,1.123,0,0,0-1.029.537,3.411,3.411,0,0,0-.352,1.68v2.422a3.826,3.826,0,0,0,.332,1.81,1.128,1.128,0,0,0,1.063.592,1.109,1.109,0,0,0,1.046-.568A3.734,3.734,0,0,0,5.4-3.762Zm9.153,2.383h1.128v1.593H14.554V0H12.578V-2.153H8.5L8.408-3.4l4.149-6.556h2Zm-4.177,0h2.2V-7.26l-.13.226Z" transform="translate(-5070.331 -9485.812)" fill="#12263f"/>
  </g>
</svg>
