<svg xmlns="http://www.w3.org/2000/svg" width="86" height="86" viewBox="0 0 86 86">
  <g id="Grupo_1076375" data-name="Grupo 1076375" transform="translate(-256 -5830)">
    <circle id="Elipse_4775" data-name="Elipse 4775" cx="43" cy="43" r="43" transform="translate(256 5830)" fill="#ff8e7c"/>
    <g id="aCjCKE" transform="translate(-3788.175 9250.463)">
      <g id="Grupo_151304" data-name="Grupo 151304" transform="translate(4058.055 -3405.614)">
        <path id="Trazado_193243" data-name="Trazado 193243" d="M4103.363-3348.343h-33.345c-2.542-.979-3.533-2.841-3.349-5.528.131-1.921.025-3.859.025-5.928h-3.256c-3.131,0-4.177-.694-5.384-3.561V-3390.6c1.207-2.868,2.253-3.56,5.384-3.562h3.256c0-2.069.106-4.007-.025-5.929-.185-2.687.806-4.549,3.349-5.528h33.345c2.542.979,3.533,2.84,3.349,5.528-.131,1.921-.025,3.859-.025,5.929h3.256c3.131,0,4.177.694,5.384,3.562v27.236c-1.207,2.867-2.253,3.56-5.384,3.561h-3.256c0,2.069-.106,4.007.025,5.928C4106.9-3351.184,4105.905-3349.322,4103.363-3348.343Zm3.382-14.264c1.375,0,2.6.015,3.829,0,1.359-.021,1.927-.576,1.928-1.938q.014-12.408,0-24.815c0-1.426-.566-1.981-2.014-1.982q-23.8-.008-47.595,0c-1.448,0-2,.555-2.016,1.979-.014,1.909,0,3.817,0,5.727,0,6.32.01,12.641-.009,18.961,0,1.061.293,1.935,1.433,2.029,1.417.118,2.852.028,4.3.028v-8.647c-.563,0-1.15.177-1.464-.04-.516-.356-1.13-.944-1.177-1.48-.034-.386.754-.893,1.245-1.25.195-.143.577-.031.874-.031H4107.3c.3,0,.679-.111.875.031.491.357,1.28.863,1.248,1.249a2.5,2.5,0,0,1-1.175,1.479c-.346.226-.96.042-1.507.042Zm-37.24-8.585c0,6.09,0,12.026,0,17.961,0,1.621.465,2.065,2.15,2.066q15.011.005,30.022,0c1.755,0,2.195-.432,2.2-2.148q.006-8.333,0-16.665v-1.215Zm34.371-22.992c0-2.222,0-4.331,0-6.439,0-1.734-.434-2.167-2.175-2.169q-7.695-.007-15.39,0c-4.918,0-9.836.008-14.754-.007-.922,0-1.916.166-1.971,1.163-.138,2.471-.045,4.955-.045,7.455Z" transform="translate(-4058.055 3405.614)" fill="#12263f"/>
        <path id="Trazado_193244" data-name="Trazado 193244" d="M4231.249-3337.841a4.153,4.153,0,0,1,4.238,4.253,4.164,4.164,0,0,1-4.286,4.215,4.185,4.185,0,0,1-4.18-4.2A4.161,4.161,0,0,1,4231.249-3337.841Zm-.344,2.746c-.283.385-.909.88-1.017,1.469-.157.855.489,1.411,1.371,1.423a1.287,1.287,0,0,0,1.391-1.32C4232.711-3334.434,4232.195-3334.908,4230.905-3335.095Z" transform="translate(-4184.013 3355.092)" fill="#12263f"/>
        <path id="Trazado_193245" data-name="Trazado 193245" d="M4128.706-3236.69c4.113,0,8.227.018,12.34-.013,1.009-.007,1.8.2,1.94,1.329.109.9-.677,1.487-1.937,1.488q-12.34.01-24.68,0c-1.268,0-2.048-.583-1.94-1.484.135-1.129.926-1.34,1.937-1.333C4120.479-3236.672,4124.593-3236.69,4128.706-3236.69Z" transform="translate(-4100.073 3279.697)" fill="#12263f"/>
        <path id="Trazado_193246" data-name="Trazado 193246" d="M4128.735-3256.667q-6.29,0-12.58,0c-.941,0-1.625-.4-1.635-1.367s.685-1.388,1.6-1.437c.3-.016.593-.007.89-.007h23.508c.381,0,.858-.129,1.123.05.538.365,1.265.844,1.361,1.376.15.838-.527,1.364-1.436,1.373-1.271.013-2.542.012-3.812.012Q4133.247-3256.664,4128.735-3256.667Z" transform="translate(-4100.148 3296.709)" fill="#12263f"/>
        <path id="Trazado_193247" data-name="Trazado 193247" d="M4128.688-3211.618c-4.067,0-8.135-.011-12.2.008-1.02,0-1.918-.135-2.036-1.365-.086-.9.766-1.468,2.112-1.469q12.139-.007,24.276,0c.376,0,.867-.059,1.1.144.436.375,1.06.99.983,1.385a1.872,1.872,0,0,1-1.28,1.221c-1.638.158-3.3.073-4.951.074Q4132.692-3211.614,4128.688-3211.618Z" transform="translate(-4100.092 3263.109)" fill="#12263f"/>
      </g>
    </g>
  </g>
</svg>
