<svg xmlns="http://www.w3.org/2000/svg" xmlns:xlink="http://www.w3.org/1999/xlink" width="101" height="101" viewBox="0 0 101 101">
  <defs>
    <clipPath id="clip-path">
      <rect id="Rectángulo_377997" data-name="Rectángulo 377997" width="62" height="62" transform="translate(0 0.333)" fill="none"/>
    </clipPath>
  </defs>
  <g id="Grupo_1077894" data-name="Grupo 1077894" transform="translate(-178 -15059.5)">
    <g id="Grupo_1077761" data-name="Grupo 1077761" transform="translate(-572 9934.5)">
      <circle id="Elipse_5093" data-name="Elipse 5093" cx="50.5" cy="50.5" r="50.5" transform="translate(750 5125)" fill="#ff8e7c"/>
    </g>
    <g id="Grupo_1077769" data-name="Grupo 1077769" transform="translate(197 15078.666)">
      <g id="Grupo_1077768" data-name="Grupo 1077768" clip-path="url(#clip-path)">
        <path id="Trazado_825811" data-name="Trazado 825811" d="M233.517,392.533a3.117,3.117,0,1,1-3.117,3.117,3.117,3.117,0,0,1,3.117-3.117" transform="translate(-202.35 -344.744)" fill="#fcc369"/>
        <path id="Trazado_825812" data-name="Trazado 825812" d="M233.517,281.6a3.117,3.117,0,1,1-3.117,3.117,3.117,3.117,0,0,1,3.117-3.117" transform="translate(-202.35 -247.316)" fill="#fff"/>
        <path id="Trazado_825813" data-name="Trazado 825813" d="M233.517,170.667a3.117,3.117,0,1,1-3.117,3.117,3.117,3.117,0,0,1,3.117-3.117" transform="translate(-202.35 -149.889)" fill="#f86b7f"/>
        <path id="Trazado_825814" data-name="Trazado 825814" d="M233.517,59.733A3.117,3.117,0,1,1,230.4,62.85a3.117,3.117,0,0,1,3.117-3.117" transform="translate(-202.35 -52.461)" fill="#ff8e7c"/>
        <path id="Trazado_825815" data-name="Trazado 825815" d="M306.533,33.689H289.816a2.078,2.078,0,0,1-1.565-.71l-6.651-7.6,6.649-7.6a2.078,2.078,0,0,1,1.567-.71h16.718a2.078,2.078,0,0,1,2.078,2.078V31.611a2.078,2.078,0,0,1-2.078,2.078" transform="translate(-247.317 -14.989)" fill="#ff8e7c"/>
        <path id="Trazado_825816" data-name="Trazado 825816" d="M306.533,255.556H289.816a2.078,2.078,0,0,1-1.565-.71l-6.651-7.6,6.649-7.6a2.078,2.078,0,0,1,1.567-.71h16.718a2.078,2.078,0,0,1,2.078,2.078v12.467a2.078,2.078,0,0,1-2.078,2.078" transform="translate(-247.317 -209.845)" fill="#fff"/>
        <path id="Trazado_825817" data-name="Trazado 825817" d="M10.611,144.622H27.329a2.078,2.078,0,0,0,1.565-.71l6.651-7.6-6.649-7.6a2.078,2.078,0,0,0-1.567-.71H10.611a2.078,2.078,0,0,0-2.078,2.078v12.467A2.078,2.078,0,0,0,10.611,144.622Z" transform="translate(-7.494 -112.416)" fill="#f86b7f"/>
        <path id="Trazado_825818" data-name="Trazado 825818" d="M10.611,366.489H27.329a2.078,2.078,0,0,0,1.565-.71l6.651-7.6-6.649-7.6a2.078,2.078,0,0,0-1.567-.71H10.611a2.078,2.078,0,0,0-2.078,2.078v12.467A2.078,2.078,0,0,0,10.611,366.489Z" transform="translate(-7.494 -307.272)" fill="#fcc369"/>
        <path id="Trazado_825819" data-name="Trazado 825819" d="M59.217,1.039H42.5A3.117,3.117,0,0,0,40.152,2.1L34.735,8.294a4.143,4.143,0,0,0-2.53-1.914V1.039a1.039,1.039,0,0,0-2.078,0V6.381a4.136,4.136,0,0,0,0,8.016v5.489A4.155,4.155,0,0,0,27.6,21.8L22.18,15.607a3.116,3.116,0,0,0-2.346-1.063H3.117A3.117,3.117,0,0,0,0,17.661V30.128a3.117,3.117,0,0,0,3.117,3.117H19.834a3.116,3.116,0,0,0,2.346-1.064L27.6,25.989a4.156,4.156,0,0,0,2.53,1.914v5.489A4.156,4.156,0,0,0,27.011,37.4a1.039,1.039,0,0,0,2.078,0,2.078,2.078,0,1,1,2.078,2.078,1.039,1.039,0,0,0-1.039,1.039V46.9a4.155,4.155,0,0,0-2.53,1.914L22.18,42.618a3.116,3.116,0,0,0-2.346-1.063H3.117A3.117,3.117,0,0,0,0,44.672V57.139a3.117,3.117,0,0,0,3.117,3.117H19.834a3.116,3.116,0,0,0,2.346-1.064L27.6,53a4.155,4.155,0,0,0,2.53,1.914v6.381a1.039,1.039,0,1,0,2.078,0V54.914a4.136,4.136,0,0,0,0-8.016V41.408a4.143,4.143,0,0,0,2.53-1.914l5.418,6.193A3.117,3.117,0,0,0,42.5,46.75H59.217a3.117,3.117,0,0,0,3.117-3.117V31.167a3.117,3.117,0,0,0-3.117-3.117H42.5a3.117,3.117,0,0,0-2.346,1.064l-5.417,6.192a4.143,4.143,0,0,0-2.53-1.914V27.9a4.136,4.136,0,0,0,0-8.016V14.4a4.143,4.143,0,0,0,2.53-1.914l5.418,6.193A3.117,3.117,0,0,0,42.5,19.739H59.217a3.117,3.117,0,0,0,3.117-3.117V4.156A3.117,3.117,0,0,0,59.217,1.039Zm-38.6,56.784a1.038,1.038,0,0,1-.783.355H3.117a1.039,1.039,0,0,1-1.039-1.039V44.672a1.039,1.039,0,0,1,1.039-1.039H19.834a1.039,1.039,0,0,1,.782.354l6.053,6.918Zm12.627-6.917a2.078,2.078,0,1,1-2.078-2.078,2.078,2.078,0,0,1,2.078,2.078m8.471-20.422a1.039,1.039,0,0,1,.782-.355H59.217a1.039,1.039,0,0,1,1.039,1.039V43.633a1.039,1.039,0,0,1-1.039,1.039H42.5a1.039,1.039,0,0,1-.781-.354L35.664,37.4Zm-21.1.328a1.039,1.039,0,0,1-.783.355H3.117a1.039,1.039,0,0,1-1.039-1.039V17.661a1.039,1.039,0,0,1,1.039-1.039H19.834a1.039,1.039,0,0,1,.782.354l6.053,6.918Zm12.627-6.917a2.078,2.078,0,1,1-2.078-2.078,2.078,2.078,0,0,1,2.078,2.078M31.167,12.467a2.078,2.078,0,1,1,2.078-2.078,2.078,2.078,0,0,1-2.078,2.078m29.089,4.156a1.039,1.039,0,0,1-1.039,1.039H42.5a1.039,1.039,0,0,1-.781-.354l-6.053-6.918,6.052-6.917a1.039,1.039,0,0,1,.782-.355H59.217a1.039,1.039,0,0,1,1.039,1.039Z" transform="translate(0 0)"/>
        <path id="Trazado_825820" data-name="Trazado 825820" d="M350.906,61.811h1.039a1.039,1.039,0,1,0,0-2.078h-1.039a1.039,1.039,0,0,0,0,2.078" transform="translate(-307.272 -52.461)"/>
        <path id="Trazado_825821" data-name="Trazado 825821" d="M401.883,59.733h-8.311a1.039,1.039,0,0,0,0,2.078h8.311a1.039,1.039,0,0,0,0-2.078" transform="translate(-344.744 -52.461)"/>
        <path id="Trazado_825822" data-name="Trazado 825822" d="M359.217,93.867h-8.311a1.039,1.039,0,0,0,0,2.078h8.311a1.039,1.039,0,0,0,0-2.078" transform="translate(-307.272 -82.439)"/>
        <path id="Trazado_825823" data-name="Trazado 825823" d="M350.906,283.678h1.039a1.039,1.039,0,1,0,0-2.078h-1.039a1.039,1.039,0,0,0,0,2.078" transform="translate(-307.272 -247.316)"/>
        <path id="Trazado_825824" data-name="Trazado 825824" d="M393.573,283.678h8.311a1.039,1.039,0,0,0,0-2.078h-8.311a1.039,1.039,0,0,0,0,2.078" transform="translate(-344.745 -247.316)"/>
        <path id="Trazado_825825" data-name="Trazado 825825" d="M350.906,317.811h8.311a1.039,1.039,0,0,0,0-2.078h-8.311a1.039,1.039,0,0,0,0,2.078" transform="translate(-307.272 -277.294)"/>
        <path id="Trazado_825826" data-name="Trazado 825826" d="M35.173,172.744h1.039a1.039,1.039,0,1,0,0-2.078H35.173a1.039,1.039,0,0,0,0,2.078" transform="translate(-29.978 -149.888)"/>
        <path id="Trazado_825827" data-name="Trazado 825827" d="M86.15,170.667H77.839a1.039,1.039,0,0,0,0,2.078H86.15a1.039,1.039,0,0,0,0-2.078" transform="translate(-67.45 -149.889)"/>
        <path id="Trazado_825828" data-name="Trazado 825828" d="M43.483,204.8H35.172a1.039,1.039,0,0,0,0,2.078h8.311a1.039,1.039,0,0,0,0-2.078" transform="translate(-29.977 -179.866)"/>
        <path id="Trazado_825829" data-name="Trazado 825829" d="M35.173,394.611h1.039a1.039,1.039,0,1,0,0-2.078H35.173a1.039,1.039,0,0,0,0,2.078" transform="translate(-29.978 -344.744)"/>
        <path id="Trazado_825830" data-name="Trazado 825830" d="M86.15,392.533H77.839a1.039,1.039,0,0,0,0,2.078H86.15a1.039,1.039,0,0,0,0-2.078" transform="translate(-67.45 -344.744)"/>
        <path id="Trazado_825831" data-name="Trazado 825831" d="M43.483,426.667H35.172a1.039,1.039,0,0,0,0,2.078h8.311a1.039,1.039,0,0,0,0-2.078" transform="translate(-29.977 -374.722)"/>
      </g>
    </g>
  </g>
</svg>
