<svg xmlns="http://www.w3.org/2000/svg" width="112" height="112" viewBox="0 0 112 112">
  <g id="Grupo_1078041" data-name="Grupo 1078041" transform="translate(5757 -6988.316)">
    <g id="Grupo_1078040" data-name="Grupo 1078040">
      <g id="Grupo_1078039" data-name="Grupo 1078039">
        <g id="Grupo_1078038" data-name="Grupo 1078038">
          <g id="Grupo_1078037" data-name="Grupo 1078037">
            <circle id="Elipse_10575" data-name="Elipse 10575" cx="56" cy="56" r="56" transform="translate(-5757 6988.316)" fill="#12263f"/>
            <g id="JLZBXn" transform="translate(-6883.128 6299.34)">
              <g id="Grupo_151935" data-name="Grupo 151935" transform="translate(1138.359 697.982)">
                <path id="Trazado_194388" data-name="Trazado 194388" d="M1238.844,842.847a10.456,10.456,0,0,1,14.53,12.663,30.4,30.4,0,0,1,3.068.019,6,6,0,0,1,3.966,1.976,2.74,2.74,0,0,0,2.9.79v-.951q0-6.331,0-12.661c0-.251-.076-.55.032-.743.155-.278.482-.694.672-.662a1.445,1.445,0,0,1,.774.676c.115.18.033.49.033.741q0,6.876,0,13.751c0,1.336-.111,1.446-1.422,1.446h-1.135c.1.374.172.653.252.93a7.675,7.675,0,0,1-7.411,9.932c-1.481.013-2.963.024-4.444-.009a.879.879,0,0,0-1.01.711c-.48,1.335-1.054,2.639-1.661,3.922-.2.43-.236.7.141,1,1.7,1.349,1.963,2.55-.052,4.3-.568.494-1.062,1.073-1.613,1.587a1.807,1.807,0,0,1-2.69.019c-1.218-1.109-1.2-1.075-2.73-.394-1.068.476-2.175.869-3.285,1.239-.417.139-.632.311-.575.754.007.055-.006.112,0,.167.2,2.348-.717,2.993-2.875,2.86-.807-.05-1.621.01-2.431-.015a1.8,1.8,0,0,1-1.944-1.939c-.067-1.584-.079-1.551-1.552-2.119a34.546,34.546,0,0,1-3.206-1.435.772.772,0,0,0-1.077.13c-1.9,1.835-2.3,1.823-4.179,0-.561-.545-1.124-1.089-1.664-1.655a1.845,1.845,0,0,1-.024-2.757c1.11-1.2,1.076-1.188.4-2.648a25.77,25.77,0,0,1-1.174-3.043c-.166-.525-.394-.712-.932-.688a13.147,13.147,0,0,1-5.757-.833,10.664,10.664,0,0,1-6.484-10.169c.019-.471.056-.941.092-1.531-1.234,0-2.426.005-3.618,0-.964-.006-1.161-.187-1.162-1.107q-.008-7.211,0-14.422c0-.056,0-.112,0-.168,0-.509.18-.915.744-.916s.758.4.759.907q.006,2.222,0,4.444c0,2.963.022,5.926-.016,8.888-.009.713.225.926.908.883.863-.054,1.875.249,2.556-.11.613-.323.846-1.343,1.281-2.034a10.581,10.581,0,0,1,7.914-5.051l.727-.1c-.923-4.964.239-9.283,4.107-12.585s8.306-3.8,13.182-2.055c0-.43,0-.751,0-1.072q0-7.714.005-15.428a1.687,1.687,0,0,1,.04-.743c.141-.258.44-.622.645-.606a1.24,1.24,0,0,1,.776.576c.128.2.046.543.046.822,0,5.45.009,10.9-.011,16.351a1.52,1.52,0,0,0,.719,1.444,12.131,12.131,0,0,1,4.623,6.112C1238.666,842.429,1238.746,842.6,1238.844,842.847Zm-3.954,26.4c6.706,0,13.413.017,20.119-.007a6.192,6.192,0,0,0,6.321-5.889,6.072,6.072,0,0,0-5.766-6.381,14.292,14.292,0,0,0-3.238.635,6.782,6.782,0,0,1-1.159.021c.013-.41.021-.82.045-1.229,0-.076.075-.147.114-.222a8.784,8.784,0,0,0-12.1-11.723c-1.152.647-1.44.52-1.782-.787a11.056,11.056,0,1,0-21.328,5.822c.352,1.242.162,1.5-1.121,1.5a9.131,9.131,0,1,0,.195,18.258C1221.757,869.255,1228.323,869.244,1234.89,869.244Zm13.5,1.752-.267-.24c-1.923,0-3.846.02-5.768-.013a1.187,1.187,0,0,0-1.187.668,8.806,8.806,0,0,1-14.393,1.191c-.746-1.972-2.357-1.979-4.082-1.862-1.239.084-2.489.016-3.841.016a13.989,13.989,0,0,0,1.956,4.465,1.118,1.118,0,0,1-.221,1.729,7.075,7.075,0,0,0-1.114,1.132.806.806,0,0,0-.059.756c.8.883,1.665,1.716,2.581,2.639.606-.6,1.16-1.1,1.666-1.648a1.109,1.109,0,0,1,1.541-.2,44.175,44.175,0,0,0,4.821,2.076c1.384.483,1.41.377,1.426,1.861.022,2.065-.309,1.814,1.817,1.825,2.373.012,2.373,0,2.411-2.322,0-.056,0-.112,0-.167a.919.919,0,0,1,.859-1.036,15.342,15.342,0,0,0,5.459-2.266.962.962,0,0,1,1.4.164c.532.561,1.1,1.086,1.921,1.889a16.77,16.77,0,0,1,1.238-1.6c1.532-1.552,1.57-1.563-.017-3.087a1.246,1.246,0,0,1-.2-1.811C1247.1,873.815,1247.712,872.388,1248.387,871Zm-20.866-.194c.8,1.987,3.732,3.549,6.307,3.465s5.273-1.9,5.733-3.465Z" transform="translate(-1189.325 -796.991)" fill="#fff"/>
                <path id="Trazado_194389" data-name="Trazado 194389" d="M1523.375,793.757a15.283,15.283,0,1,1-15.139-15.323A15.31,15.31,0,0,1,1523.375,793.757Zm-20.471,3.706a42.051,42.051,0,0,1,9.954-.055.7.7,0,0,0,.526-.43,17.785,17.785,0,0,0,.038-6.412c-.075-.437-.282-.547-.687-.494a11.884,11.884,0,0,1-1.666.152c-2.481-.03-4.961-.087-7.442-.142-.386-.008-.754-.133-.858.471A17.923,17.923,0,0,0,1502.9,797.463Zm-1.658-7.628c-1.71-.445-3.413-.854-5.092-1.342-.566-.164-.783-.045-.971.491a13.548,13.548,0,0,0-.476,7.815c.192.8.47,1.576.7,2.346l5.857-1.492c-.1-1.3-.262-2.575-.265-3.847C1501,792.5,1501.156,791.2,1501.247,789.835Zm13.808-.041v7.893l5.687,1.441a13.674,13.674,0,0,0,0-10.762Zm-2.121-1.285a20.1,20.1,0,0,0-4.851-8.24,20.043,20.043,0,0,0-4.822,8.242A38.538,38.538,0,0,0,1512.934,788.509Zm-.009,10.478a34.385,34.385,0,0,0-9.65.005,20.012,20.012,0,0,0,4.822,8.168A20.014,20.014,0,0,0,1512.925,798.987Zm7-11.986c-1.068-3.111-7.092-7.225-9.681-6.651a22.912,22.912,0,0,1,4.272,8Zm-23.823-.026c1.774.423,3.371.785,4.956,1.193.544.14.724-.054.878-.547a21.127,21.127,0,0,1,3.709-6.891,6.637,6.637,0,0,0,.367-.616A14.106,14.106,0,0,0,1496.1,786.975Zm9.792,20.314c-.015-.169,0-.238-.028-.274a23.677,23.677,0,0,1-4.026-7.383.791.791,0,0,0-.682-.31c-.96.167-1.911.394-2.858.631-.683.171-1.354.391-2.137.62A13.88,13.88,0,0,0,1505.893,807.29Zm14.008-6.832c-1.687-.4-3.356-.808-5.038-1.151-.16-.033-.52.335-.6.579a22.346,22.346,0,0,1-3.646,6.745c-.126.161-.223.344-.358.557C1513.538,807.182,1518.855,803.509,1519.9,800.458Z" transform="translate(-1433.365 -764.94)" fill="#fff"/>
                <path id="Trazado_194390" data-name="Trazado 194390" d="M1309.35,715.56c-.139-.1-.16-.122-.183-.125-2.584-.28-2.946-.686-2.946-3.312q0-5.7,0-11.4c0-2.014.729-2.739,2.708-2.739h21.126a2.21,2.21,0,0,1,2.509,2.52q.006,6.162,0,12.324a2.241,2.241,0,0,1-2.556,2.57c-3.325,0-6.651-.019-9.976.024a2.2,2.2,0,0,0-1.322.521c-2.938,2.624-5.837,5.291-8.753,7.939-.361.328-.778.882-1.265.452a1.742,1.742,0,0,1-.333-1.324c.249-2.164.577-4.318.874-6.476C1309.282,716.2,1309.314,715.872,1309.35,715.56Zm.729,6.063c.369-.29.569-.429.748-.591,2.356-2.143,4.725-4.272,7.053-6.445a2.49,2.49,0,0,1,1.869-.715c3.381.031,6.763,0,10.144.022.737,0,1.156-.184,1.151-1.028q-.032-6.161,0-12.324c0-.8-.31-1.065-1.1-1.063q-10.563.034-21.126,0c-.821,0-1.083.329-1.069,1.1.028,1.62.007,3.241.006,4.862q0,3.563,0,7.126c0,1.222.1,1.316,1.355,1.317.279,0,.559-.008.838,0,.913.026,1.126.264,1.026,1.2-.068.639-.174,1.273-.261,1.91C1310.507,718.469,1310.307,719.946,1310.079,721.623Z" transform="translate(-1278.069 -697.982)" fill="#fff"/>
                <path id="Trazado_194391" data-name="Trazado 194391" d="M1164.278,811.281a12.96,12.96,0,1,1-12.946-13.063A12.967,12.967,0,0,1,1164.278,811.281Zm-1.514-.075a11.44,11.44,0,1,0-11.5,11.443A11.5,11.5,0,0,0,1162.764,811.205Z" transform="translate(-1138.359 -781.408)" fill="#fff"/>
                <path id="Trazado_194392" data-name="Trazado 194392" d="M1182.8,840.944c0-2.01-.008-4.02,0-6.029.005-1.025.48-1.333,1.386-.865q5.726,2.959,11.432,5.956c.875.46.869,1.121-.017,1.61q-5.717,3.154-11.453,6.274c-.825.449-1.341.125-1.347-.833C1182.791,845.02,1182.8,842.982,1182.8,840.944Zm1.585-5.081v10.168l9.5-5.215Z" transform="translate(-1175.345 -811.053)" fill="#fff"/>
              </g>
            </g>
          </g>
        </g>
      </g>
    </g>
  </g>
</svg>
