<svg xmlns="http://www.w3.org/2000/svg" width="112" height="112" viewBox="0 0 112 112">
  <g id="Grupo_1078036" data-name="Grupo 1078036" transform="translate(6069 -6988.316)">
    <g id="Grupo_1078035" data-name="Grupo 1078035">
      <g id="Grupo_1078034" data-name="Grupo 1078034">
        <g id="Grupo_1078033" data-name="Grupo 1078033">
          <g id="Grupo_1078032" data-name="Grupo 1078032">
            <g id="Grupo_1078031" data-name="Grupo 1078031">
              <g id="Grupo_1078030" data-name="Grupo 1078030">
                <circle id="Elipse_10574" data-name="Elipse 10574" cx="56" cy="56" r="56" transform="translate(-6069 6988.316)" fill="#12263f"/>
                <g id="ktYl3X" transform="translate(-7126.87 7062.432)">
                  <g id="Grupo_151934" data-name="Grupo 151934" transform="translate(1073.276 -57.56)">
                    <path id="Trazado_194385" data-name="Trazado 194385" d="M1115.17-4.433c0,1.521,0,2.942,0,4.363,0,1.176-.032,2.355.026,3.528a1.1,1.1,0,0,0,.516.782,5.87,5.87,0,0,1,2.982,3.054.8.8,0,0,0,.894.541q6.345-.023,12.69,0a.877.877,0,0,0,.927-.624,5.694,5.694,0,0,1,6.649-3.268,5.8,5.8,0,0,1-.725,11.408,5.726,5.726,0,0,1-5.878-3.323.979.979,0,0,0-1.068-.667q-6.261.033-12.522,0a1,1,0,0,0-1.061.681,5.74,5.74,0,0,1-10.425,0,.994.994,0,0,0-1.063-.677q-5.63.039-11.261,0a1.227,1.227,0,0,0-1.314.819,5.731,5.731,0,0,1-8.163,2.375,5.825,5.825,0,0,1-1.679-8.421,5.766,5.766,0,0,1,8.393-.981,7.723,7.723,0,0,1,1.539,2.06,1,1,0,0,0,1.016.625q5.756-.032,11.513,0a.856.856,0,0,0,.952-.588,5.709,5.709,0,0,1,2.936-2.983c.23-.113.533-.4.535-.606.036-2.657.024-5.314.024-8.093h-1.04c-7.312,0-14.623.012-21.935,0a15.2,15.2,0,0,1-14.461-10.1,15.187,15.187,0,0,1,11.142-19.947c.272-.057.542-.12.865-.192-.428-6.021,1.6-10.969,6.628-14.378s10.373-3.444,15.73-.855c1.051-1,2.032-2.086,3.165-2.981,6.053-4.784,12.812-5.959,19.984-3.2,7.109,2.732,11.367,8.082,12.617,15.619a31.594,31.594,0,0,1,.037,6.1.986.986,0,0,0,.649,1.126,15.229,15.229,0,0,1,8.4,15.429A15.1,15.1,0,0,1,1142.4-5.037a17.552,17.552,0,0,1-4.392.578c-7.255.057-14.511.026-21.766.027Zm-1.8-4.732c8.262,0,16.524.014,24.785-.005a10.485,10.485,0,0,0,10.5-8.92,10.481,10.481,0,0,0-7.607-11.638,2.357,2.357,0,0,1-1.816-3.264,15.35,15.35,0,0,0,.5-6.484A15.434,15.434,0,0,0,1127.784-52.4a15.347,15.347,0,0,0-16.2,6.67c-1.184,1.8-2.4,2.026-4.126.776a10.443,10.443,0,0,0-16.1,5.214,10.6,10.6,0,0,0,.005,6.525,2.318,2.318,0,0,1-2.332,3.12c-.252,0-.5-.005-.756,0a10.487,10.487,0,0,0-10.033,12.617,10.477,10.477,0,0,0,10.42,8.312Q1101.015-9.153,1113.366-9.165Z" transform="translate(-1073.276 57.56)" fill="#fff"/>
                    <path id="Trazado_194386" data-name="Trazado 194386" d="M1261.6,59.69c-1.821,0-3.641.012-5.461,0a4.545,4.545,0,0,1-4.715-4.718c-.018-2.3.006-4.593-.007-6.89a4.689,4.689,0,0,1,1.993-4.045,1.18,1.18,0,0,0,.392-.82c.04-1.427.011-2.856.024-4.284a7.761,7.761,0,1,1,15.52-.027c.013,1.4-.031,2.8.027,4.2a1.541,1.541,0,0,0,.512,1.006,4.582,4.582,0,0,1,1.856,3.607c.026,2.492.046,4.986,0,7.477a4.513,4.513,0,0,1-4.514,4.488C1265.354,59.716,1263.477,59.689,1261.6,59.69Zm4.68-16.489c0-.39,0-.692,0-.994-.008-1.343.08-2.7-.049-4.028a4.578,4.578,0,0,0-4.169-4.054c-2.306-.165-4.531,1.165-4.925,3.314a43.883,43.883,0,0,0-.328,5.763Z" transform="translate(-1221.474 -16.118)" fill="#fff"/>
                  </g>
                </g>
              </g>
            </g>
          </g>
        </g>
      </g>
    </g>
  </g>
</svg>
