<svg xmlns="http://www.w3.org/2000/svg" width="45.203" height="42.941" viewBox="0 0 45.203 42.941">
  <g id="_6mFEJY.tif" data-name="6mFEJY.tif" transform="translate(-4421.759 4138.251)">
    <g id="Grupo_151307" data-name="Grupo 151307" transform="translate(4421.759 -4138.251)">
      <path id="Trazado_193262" data-name="Trazado 193262" d="M4464.682-4129.239a2.325,2.325,0,0,1,2.268,2.634q0,11.9,0,23.808c0,1.641-.035,3.282.01,4.921a2.415,2.415,0,0,1-2.561,2.561q-20.024-.047-40.051.006a2.468,2.468,0,0,1-2.59-2.593c.03-10.018.015-20.034.015-30.052q0-3.835,0-7.672a2.312,2.312,0,0,1,2.64-2.618c4.32,0,8.642,0,12.962-.007a2.285,2.285,0,0,1,1.968.836,3.683,3.683,0,0,0,3.371,1.411c6.542-.056,13.085.007,19.627.028a2.219,2.219,0,0,1,2.341,2.362C4464.685-4132.168,4464.682-4130.724,4464.682-4129.239Zm-38.334-4.472v33.813h36.033v-24.771h-.98c-4.816,0-9.632-.007-14.447.006a2.872,2.872,0,0,1-2.171-.9c-2.581-2.607-5.185-5.192-7.77-7.8a1.121,1.121,0,0,0-.879-.362c-3.069.013-6.139.007-9.208.007Zm33.764,4.509v-2.236h-14.782c.691.688,1.3,1.323,1.947,1.917a1.192,1.192,0,0,0,.723.3c2.943.022,5.888.016,8.831.018Z" transform="translate(-4421.759 4138.251)" fill="#12263f"/>
      <path id="Trazado_193263" data-name="Trazado 193263" d="M4494.825-3835.726q-3.3,0-6.608,0a2.252,2.252,0,0,1-2.368-2.236,2.259,2.259,0,0,1,2.321-2.3q6.714-.018,13.428-.006a2.268,2.268,0,0,1,2.315,2.306,2.24,2.24,0,0,1-2.32,2.229q-3.383.007-6.768,0Z" transform="translate(-4479.052 3871.871)" fill="#12263f"/>
      <path id="Trazado_193264" data-name="Trazado 193264" d="M4491.469-3899.678c-1.11,0-2.22,0-3.33,0a2.224,2.224,0,0,1-2.29-2.2,2.232,2.232,0,0,1,2.185-2.318q3.461-.055,6.924,0a2.239,2.239,0,0,1,2.186,2.319,2.244,2.244,0,0,1-2.292,2.205c-1.127.006-2.255,0-3.383,0Z" transform="translate(-4479.052 3929.045)" fill="#12263f"/>
    </g>
  </g>
</svg>
