<svg xmlns="http://www.w3.org/2000/svg" width="50.299" height="52.313" viewBox="0 0 50.299 52.313">
  <g id="wmvP3Q" transform="translate(-3769.459 5173.596)">
    <g id="Grupo_151308" data-name="Grupo 151308" transform="translate(3769.459 -5173.596)">
      <path id="Trazado_193265" data-name="Trazado 193265" d="M3769.459-5168.882l32.41-4.714,4.365,19.417c-.5.025-.974.059-1.45.062-.062,0-.161-.143-.181-.233-.346-1.509-.681-3.021-1.02-4.532-.392-1.746-.79-3.49-1.17-5.238-.05-.229-.142-.254-.341-.223q-6.342,1.008-12.684,2.008-5.674.9-11.348,1.807c-1.509.239-3.02.47-4.529.708a2.926,2.926,0,0,0-.291.079q3.712,16.934,7.426,33.878l11.321-2.318c0,.638.007,1.223-.011,1.807,0,.063-.146.157-.237.176-1.515.322-3.032.635-4.548.95l-7.467,1.552c-.1.021-.2.034-.342.057Z" transform="translate(-3769.459 5173.596)" fill="#12263f"/>
      <path id="Trazado_193266" data-name="Trazado 193266" d="M4186.988-4822.771c0,.775-.018,1.551,0,2.326a2.731,2.731,0,0,1-.822,2.037,8.205,8.205,0,0,1-3.114,1.9,22.248,22.248,0,0,1-5.776,1.278,30.4,30.4,0,0,1-5.68.049,19.818,19.818,0,0,1-7.561-1.9,9.381,9.381,0,0,1-1.852-1.33,2.6,2.6,0,0,1-.837-2.089c.024-1.445.047-2.893-.006-4.337a3.182,3.182,0,0,1,1.352-2.753,11.289,11.289,0,0,1,4.07-1.9,27.944,27.944,0,0,1,8.617-.919,25.937,25.937,0,0,1,6.379.971,11.324,11.324,0,0,1,3.865,1.832,3.056,3.056,0,0,1,1.364,2.773c-.025.3,0,.607,0,.911v1.163Zm-12.269,1.3c.7-.054,1.963-.119,3.221-.257a18.462,18.462,0,0,0,4.9-1.2,7.212,7.212,0,0,0,2.216-1.288c.865-.786.884-1.486-.018-2.234a7.785,7.785,0,0,0-1.64-1.033,19.409,19.409,0,0,0-6.685-1.59,29.383,29.383,0,0,0-4.866-.014,23.139,23.139,0,0,0-5.27.966,9.511,9.511,0,0,0-3.113,1.525c-1.08.861-1.077,1.673.01,2.534a9.019,9.019,0,0,0,2.759,1.4A26.8,26.8,0,0,0,4174.719-4821.467Z" transform="translate(-4136.705 4852.019)" fill="#12263f"/>
      <path id="Trazado_193267" data-name="Trazado 193267" d="M4161.531-4496.8a5.351,5.351,0,0,0,3.03,2.754,19.713,19.713,0,0,0,6.138,1.608,30.033,30.033,0,0,0,5.426.163,22.042,22.042,0,0,0,7.958-1.75,9.211,9.211,0,0,0,1.1-.6,4.354,4.354,0,0,0,1.97-2.233v.382c0,1.3-.029,2.6.007,3.9a2.96,2.96,0,0,1-1.031,2.362,8.92,8.92,0,0,1-3.035,1.735,22.813,22.813,0,0,1-5.971,1.263,30.322,30.322,0,0,1-6.772-.135,17.413,17.413,0,0,1-6.513-1.953,8.457,8.457,0,0,1-1.6-1.253,2.475,2.475,0,0,1-.725-1.882c.015-1.4.006-2.808.007-4.211C4161.524-4496.7,4161.528-4496.748,4161.531-4496.8Z" transform="translate(-4136.868 4539.401)" fill="#12263f"/>
      <path id="Trazado_193268" data-name="Trazado 193268" d="M4161.35-4618.915c.738,1.726,2.26,2.458,3.834,3.093a21.756,21.756,0,0,0,6.673,1.394,28.985,28.985,0,0,0,9.291-.742,13.332,13.332,0,0,0,3.827-1.549,4.331,4.331,0,0,0,1.989-2.249c0,.1.014.191.014.287,0,1.3-.04,2.6.012,3.9a3.123,3.123,0,0,1-1.326,2.7,11.348,11.348,0,0,1-4.155,1.939,27.8,27.8,0,0,1-8.523.9,25.257,25.257,0,0,1-6.977-1.152,10.644,10.644,0,0,1-3.3-1.653,3.225,3.225,0,0,1-1.376-2.867c.064-1.233.014-2.472.013-3.708Z" transform="translate(-4136.694 4653.836)" fill="#12263f"/>
      <path id="Trazado_193269" data-name="Trazado 193269" d="M3925.511-4937.514l.8,3.585-22.374,3.821c-.2-.9-.391-1.775-.585-2.652-.061-.275-.117-.552-.187-.825-.051-.2,0-.273.213-.308,2.262-.366,4.521-.743,6.781-1.117l10.5-1.739q2.306-.382,4.613-.765A1.733,1.733,0,0,1,3925.511-4937.514Z" transform="translate(-3894.74 4952.36)" fill="#12263f"/>
      <path id="Trazado_193270" data-name="Trazado 193270" d="M3937.057-4756.25c-.269-1.215-.528-2.388-.789-3.561-.047-.21.094-.208.235-.233q2.951-.526,5.9-1.058,2.75-.491,5.5-.979c.132-.023.264-.042.375-.06v1.037c0,.8-.013,1.592.007,2.388.007.3-.064.433-.387.49-2.925.52-5.846,1.06-8.769,1.594Z" transform="translate(-3925.772 4788.009)" fill="#12263f"/>
      <path id="Trazado_193271" data-name="Trazado 193271" d="M3979.04-4606.767v3.9l-9.1,1.793-.836-3.793Z" transform="translate(-3956.553 4642.404)" fill="#12263f"/>
    </g>
  </g>
</svg>
