<svg id="Grupo_151309" data-name="Grupo 151309" xmlns="http://www.w3.org/2000/svg" width="43.264" height="54.314" viewBox="0 0 43.264 54.314">
  <path id="Trazado_193272" data-name="Trazado 193272" d="M4758.945-4592.833c-2.5-1.417-3.107-3.625-3.089-6.39.088-13.92.036-27.841.043-41.761,0-4.771,1.4-6.159,6.166-6.159q10.338,0,20.676,0c3.913.005,5.65,1.708,5.667,5.671.033,7.773.059,15.547-.028,23.319a4.679,4.679,0,0,0,1.691,4.054c1.51,1.255,2.9,2.657,4.45,4.1l-1.354,1.439a4.044,4.044,0,0,1-.579-.384c-2.591-2.594-5.165-5.2-7.764-7.789-1.822-1.812-3.452-2.057-4.767-.766-1.336,1.312-1.128,2.978.635,4.781,1.576,1.614,3.135,3.25,4.788,4.781a2.041,2.041,0,0,1,.436,2.956,20.432,20.432,0,0,0-2.9,12.149Zm-1.132-7.192c-.369,4.511.37,5.354,4.485,5.358,5.559,0,11.119-.056,16.675.036,1.6.027,2.082-.475,2.385-2.062a44.945,44.945,0,0,1,2.337-8.05,2.16,2.16,0,0,0-.539-2.866,52.4,52.4,0,0,1-4.931-5.216,4.464,4.464,0,0,1,.49-5.973,4.762,4.762,0,0,1,6-.487c.5.336.99.692,1.557,1.089V-4639.8H4757.84v37.873h2.451c6.052,0,12.1.009,18.154-.007,1.283,0,2.3.123,1.475,1.913Zm28.4-41.8c.262-2.254-.453-3.4-2.577-3.427q-11.493-.144-22.99-.01c-2.121.023-2.779,1-2.809,3.437Z" transform="translate(-4755.855 4647.146)" fill="#12263f"/>
  <path id="Trazado_193273" data-name="Trazado 193273" d="M4842.774-4564.682c-.01-6.843-.086-13.688,0-20.531a8.644,8.644,0,0,0-3.3-7.389c-1.473-1.183-2.792-2.559-4.319-3.978l1.283-1.391a63.967,63.967,0,0,1,6.2,6.058,8.93,8.93,0,0,1,1.778,5.01c.176,7.4.056,14.813.043,22.22Z" transform="translate(-4801.25 4618.996)" fill="#12263f"/>
  <path id="Trazado_193274" data-name="Trazado 193274" d="M4764.194-4622.7c.009-3.073.445-3.471,3.8-3.465,3.212,0,3.57.4,3.549,3.925-.019,3.106-.434,3.485-3.8,3.474C4764.557-4618.782,4764.185-4619.195,4764.194-4622.7Zm5.315,1.9v-3.26h-3.236v3.26Z" transform="translate(-4760.629 4635.138)" fill="#12263f"/>
  <path id="Trazado_193275" data-name="Trazado 193275" d="M4792.636-4622.531c0,3.368-.39,3.764-3.72,3.76-3.231,0-3.622-.4-3.626-3.647,0-3.382.364-3.754,3.721-3.752C4792.221-4626.167,4792.632-4625.754,4792.636-4622.531Zm-2.1,1.764v-3.311h-3.192v3.311Z" transform="translate(-4772.705 4635.138)" fill="#12263f"/>
  <path id="Trazado_193276" data-name="Trazado 193276" d="M4764.195-4559.08c0-3.237.38-3.579,3.9-3.569,3.079.01,3.451.423,3.44,3.822-.01,3.194-.408,3.58-3.7,3.578S4764.19-4555.648,4764.195-4559.08Zm5.321,1.83v-3.3h-3.174v3.3Z" transform="translate(-4760.629 4598.776)" fill="#12263f"/>
  <path id="Trazado_193277" data-name="Trazado 193277" d="M4792.635-4558.836c0,3.179-.422,3.587-3.681,3.587-3.306,0-3.675-.385-3.664-3.819.01-3.234.4-3.591,3.892-3.58C4792.246-4562.639,4792.639-4562.206,4792.635-4558.836Zm-5.387,1.555h3.248v-3.235h-3.248Z" transform="translate(-4772.705 4598.776)" fill="#12263f"/>
  <path id="Trazado_193278" data-name="Trazado 193278" d="M4767.833-4597.56c-3.295,0-3.644-.369-3.639-3.82,0-3.206.352-3.536,3.706-3.534,3.336,0,3.653.334,3.64,3.813C4771.528-4597.933,4771.136-4597.559,4767.833-4597.56Zm1.647-2.058v-3.275H4766.3v3.275Z" transform="translate(-4760.629 4622.971)" fill="#12263f"/>
  <path id="Trazado_193279" data-name="Trazado 193279" d="M4788.879-4597.561c-3.223,0-3.587-.374-3.589-3.659,0-3.393.313-3.7,3.757-3.695,3.293.008,3.6.334,3.589,3.864C4792.627-4597.935,4792.222-4597.559,4788.879-4597.561Zm-1.583-5.423v3.269h3.212v-3.269Z" transform="translate(-4772.705 4622.971)" fill="#12263f"/>
  <path id="Trazado_193280" data-name="Trazado 193280" d="M4813.724-4622.478c0,3.354-.324,3.7-3.488,3.706-3.386.009-3.7-.3-3.7-3.708,0-3.484.212-3.7,3.7-3.691C4813.486-4626.166,4813.723-4625.914,4813.724-4622.478Zm-5.235-1.607v3.27h3.319v-3.27Z" transform="translate(-4784.869 4635.138)" fill="#12263f"/>
  <path id="Trazado_193281" data-name="Trazado 193281" d="M4767.863-4576.4c-3.481,0-3.672-.194-3.668-3.713,0-3.267.256-3.508,3.665-3.508s3.688.292,3.68,3.714C4771.533-4576.7,4771.216-4576.4,4767.863-4576.4Zm1.688-5.269h-3.237v3.343h3.237Z" transform="translate(-4760.629 4610.779)" fill="#12263f"/>
  <path id="Trazado_193282" data-name="Trazado 193282" d="M4788.891-4576.4c-3.29,0-3.6-.31-3.6-3.583,0-3.394.271-3.644,3.966-3.638,3.155.005,3.386.264,3.378,3.8C4792.628-4576.609,4792.394-4576.394,4788.891-4576.4Zm1.659-5.273h-3.221v3.339h3.221Z" transform="translate(-4772.705 4610.779)" fill="#12263f"/>
  <path id="Trazado_193283" data-name="Trazado 193283" d="M4813.724-4601.007c-.005,3.226-.247,3.451-3.714,3.446-3.3,0-3.477-.2-3.472-3.9,0-3.187.3-3.463,3.714-3.454C4813.487-4604.905,4813.729-4604.631,4813.724-4601.007Zm-5.239-1.917v3.2h3.346v-3.2Z" transform="translate(-4784.868 4622.971)" fill="#12263f"/>
</svg>
