<svg xmlns="http://www.w3.org/2000/svg" width="84" height="83" viewBox="0 0 84 83">
  <g id="Grupo_1077902" data-name="Grupo 1077902" transform="translate(-230 -16772)">
    <ellipse id="Elipse_4775" data-name="Elipse 4775" cx="42" cy="41.5" rx="42" ry="41.5" transform="translate(230 16772)" fill="#ff8e7c"/>
    <g id="_8QGM6M" data-name="8QGM6M" transform="translate(245.62 16788.045)">
      <g id="Grupo_151393" data-name="Grupo 151393">
        <path id="Trazado_193784" data-name="Trazado 193784" d="M1255.623-188.452a12.665,12.665,0,0,1-.17,1.707,1.312,1.312,0,0,1-.564.722,11.013,11.013,0,0,1-3.654,1.548,1.587,1.587,0,0,1-1.661-.563c-.412-.5-.809-1.009-1.243-1.487a.967.967,0,0,0-.523-.246,1.376,1.376,0,0,0-1.535.738,8.383,8.383,0,0,1-.822,1.012,1.427,1.427,0,0,1-1.7.507c-1.135-.455-2.252-.958-3.353-1.491a1.325,1.325,0,0,1-.738-1.307c.025-.738.084-1.474.129-2.212a.924.924,0,0,0-.9-.916c-.658.034-1.317.069-1.974.125a1.608,1.608,0,0,1-1.67-.88,14.694,14.694,0,0,1-1.4-3.391,1.569,1.569,0,0,1,.512-1.711q.758-.666,1.514-1.333a.963.963,0,0,0-.009-1.318c-.495-.436-.987-.875-1.485-1.307a1.6,1.6,0,0,1-.52-1.781,14.841,14.841,0,0,1,1.394-3.35,1.6,1.6,0,0,1,1.637-.873c.671.052,1.342.1,2.014.133a.938.938,0,0,0,.882-.892c-.044-.711-.1-1.421-.134-2.132a1.51,1.51,0,0,1,.815-1.471,14.008,14.008,0,0,1,3.5-1.452,1.53,1.53,0,0,1,1.645.489c.465.522.924,1.049,1.389,1.571a.989.989,0,0,0,1.26,0c.465-.522.925-1.048,1.389-1.571a1.528,1.528,0,0,1,1.645-.491,14.133,14.133,0,0,1,3.5,1.451,1.548,1.548,0,0,1,.812,1.552c-.042.684-.086,1.369-.123,2.054a.929.929,0,0,0,.883.89c.672-.038,1.343-.085,2.014-.133a1.508,1.508,0,0,1,1.621.886c.488,1.077.951,2.168,1.374,3.273a1.571,1.571,0,0,1-.557,1.9c-.509.418-.993.867-1.484,1.307a.991.991,0,0,0-.009,1.2c.509.459,1.022.915,1.543,1.36a1.6,1.6,0,0,1,.542,1.775,14.634,14.634,0,0,1-1.434,3.419,1.563,1.563,0,0,1-1.585.822q-1.006-.073-2.014-.128a.919.919,0,0,0-.894.876c.014.369.037.738.057,1.106Zm-3.214-.953h.008c-.021-.3-.039-.606-.062-.908a1.629,1.629,0,0,1,.554-1.377c.45-.424.89-.861,1.313-1.312a1.6,1.6,0,0,1,1.335-.557c.421.028.843.05,1.264.081.953.071.942.069,1.282-.823a.381.381,0,0,0-.139-.5c-.464-.391-.915-.8-1.37-1.2a1.586,1.586,0,0,1-.563-1.295c.017-.658.015-1.317,0-1.975a1.558,1.558,0,0,1,.532-1.267c.335-.3.672-.594,1.008-.891.672-.6.665-.592.289-1.423a.385.385,0,0,0-.446-.273c-.631.053-1.264.078-1.9.114a1.578,1.578,0,0,1-1.3-.555q-.634-.678-1.311-1.314a1.607,1.607,0,0,1-.556-1.336c.028-.434.048-.87.08-1.3.067-.907.066-.9-.787-1.225a.407.407,0,0,0-.541.138c-.4.476-.812.937-1.228,1.4a1.612,1.612,0,0,1-1.347.529c-.6-.026-1.211-.023-1.815,0a1.613,1.613,0,0,1-1.344-.538c-.29-.325-.576-.653-.863-.979-.613-.695-.609-.686-1.452-.31a.385.385,0,0,0-.268.451c.052.618.079,1.237.116,1.856a1.588,1.588,0,0,1-.567,1.331c-.417.382-.812.789-1.207,1.195a1.853,1.853,0,0,1-1.618.658c-.366-.045-.735-.078-1.1-.1-.949-.051-.982-.017-1.292.865a.394.394,0,0,0,.162.5c.5.412.992.827,1.464,1.267a1.6,1.6,0,0,1,.484,1.288c-.02.605-.03,1.212,0,1.817a1.593,1.593,0,0,1-.526,1.346c-.334.3-.672.594-1.009.89-.667.587-.657.582-.307,1.4a.43.43,0,0,0,.51.3c.6-.055,1.211-.079,1.817-.117a1.583,1.583,0,0,1,1.331.562,17.6,17.6,0,0,0,1.253,1.259,1.66,1.66,0,0,1,.609,1.431q-.051.73-.089,1.462c-.035.692-.027.68.614.965a.379.379,0,0,0,.531-.145c.358-.456.732-.9,1.105-1.345a1.5,1.5,0,0,1,1.219-.549c.815.01,1.63.025,2.445.02a1.561,1.561,0,0,1,1.282.586q.5.609,1.008,1.22c.377.459.376.46.922.223.036-.016.072-.034.109-.047.339-.113.525-.3.424-.7A4.689,4.689,0,0,1,1252.409-189.4Z" transform="translate(-1218.948 212.141)" fill="#12263f"/>
        <path id="Trazado_193785" data-name="Trazado 193785" d="M1063.507-85.518h.406q10.865,0,21.73.008a.5.5,0,0,0,.589-.442c.846-3.018,1.714-6.03,2.573-9.044q1.235-4.333,2.468-8.666a1.556,1.556,0,0,1,1.65-1.293,1.537,1.537,0,0,1,1.323,2.046c-.49,1.752-.993,3.5-1.492,5.249q-1.98,6.94-3.964,13.88a1.57,1.57,0,0,1-1.748,1.323q-12.231,0-24.461,0a1.582,1.582,0,0,1-1.812-1.388q-1.461-5.483-2.916-10.967-2.11-7.947-4.213-15.9a.374.374,0,0,0-.437-.325c-1.662.011-3.324.006-4.986,0a1.733,1.733,0,0,1-1.5-.635,1.483,1.483,0,0,1,.824-2.346,3.707,3.707,0,0,1,.744-.081q3.147-.009,6.294,0a1.545,1.545,0,0,1,1.662,1.278q2.082,7.836,4.161,15.673,1.486,5.594,2.976,11.188C1063.414-85.816,1063.459-85.68,1063.507-85.518Z" transform="translate(-1046.409 121.857)" fill="#12263f"/>
        <path id="Trazado_193786" data-name="Trazado 193786" d="M1447.719,317.443a5.529,5.529,0,1,1,5.547-5.518A5.528,5.528,0,0,1,1447.719,317.443Zm2.481-5.515a2.465,2.465,0,1,0-2.473,2.459A2.466,2.466,0,0,0,1450.2,311.927Z" transform="translate(-1410.865 -265.334)" fill="#12263f"/>
        <path id="Trazado_193787" data-name="Trazado 193787" d="M1213.718,312.059a5.528,5.528,0,1,1,11.056.113,5.528,5.528,0,0,1-11.056-.113Zm5.487,2.494a2.473,2.473,0,1,0-2.429-2.5A2.481,2.481,0,0,0,1219.2,314.554Z" transform="translate(-1200.472 -265.504)" fill="#12263f"/>
        <path id="Trazado_193788" data-name="Trazado 193788" d="M1323.627-115.517a6.738,6.738,0,0,1,6.788-6.733,6.74,6.74,0,0,1,6.692,6.8,6.741,6.741,0,0,1-6.817,6.675A6.727,6.727,0,0,1,1323.627-115.517Zm6.84-3.668a3.668,3.668,0,0,0-3.785,3.662,3.681,3.681,0,0,0,3.63,3.682,3.658,3.658,0,0,0,3.724-3.617A3.665,3.665,0,0,0,1330.467-119.186Z" transform="translate(-1301.68 129.367)" fill="#12263f"/>
      </g>
    </g>
  </g>
</svg>
