<svg xmlns="http://www.w3.org/2000/svg" width="83" height="83" viewBox="0 0 83 83">
  <g id="Grupo_1076434" data-name="Grupo 1076434" transform="translate(0.258)">
    <circle id="Elipse_4775" data-name="Elipse 4775" cx="41.5" cy="41.5" r="41.5" transform="translate(-0.258 0.001)" fill="#ff8e7c"/>
    <g id="UyrgcM.tif" transform="translate(18.329 15.353)">
      <g id="Grupo_151394" data-name="Grupo 151394">
        <path id="Trazado_193789" data-name="Trazado 193789" d="M1969.081,16.522c.468.248.928.512,1.406.74a4.448,4.448,0,0,1,2.065,5.524,1.927,1.927,0,0,1-2.021,1.087c-5.471-.015-10.943-.007-16.414-.007-2.189,0-4.377.006-6.566,0-1.561-.006-2.143-.633-2.238-2.152-.143-2.273.607-3.945,2.874-4.737a6.158,6.158,0,0,0,.964-.6c-.453-.041-.694-.082-.934-.082-3.454-.006-6.907,0-10.361-.011a3.758,3.758,0,0,1-4.079-4.09q-.013-15.389,0-30.778a3.752,3.752,0,0,1,3.939-4.032,5.473,5.473,0,0,1,.82,0,3.311,3.311,0,0,0,3.233-1.242,2.1,2.1,0,0,1,2.952-.409c.739.41,1.127.2,1.343-.58a2.167,2.167,0,0,1,2.376-1.806c.718-.011,1.437-.018,2.154,0a2.133,2.133,0,0,1,2.232,1.739c.213.876.628,1.01,1.374.607a2.148,2.148,0,0,1,2.953.483,3.514,3.514,0,0,0,3.037,1.229c6.634-.057,13.268-.029,19.9-.028,2.689,0,4.193,1.494,4.195,4.189q.007,15.286,0,30.573a3.8,3.8,0,0,1-4.147,4.138q-5.487.009-10.973,0Zm13.179-8.6c0-.4,0-.7,0-1.007q0-12.516,0-25.031c0-1.993-.5-2.495-2.48-2.495-6.326,0-12.652.025-18.978-.018-.924-.006-1.482.126-1.836,1.095-.294.8-.258,1.172.615,1.4a2.107,2.107,0,0,1,1.737,2.224c.021.683.011,1.368,0,2.052a2.209,2.209,0,0,1-1.879,2.527c-.664.206-.89.549-.55,1.2.758,1.449.654,2.1-.513,3.272-.482.485-.952.985-1.464,1.436a2.172,2.172,0,0,1-2.574.307c-1.007-.5-1.193-.427-1.535.647a2.128,2.128,0,0,1-2.239,1.6c-1.582-.086-3.466.652-4.42-1.421a.9.9,0,0,1-.03-.1c-.4-1.183-.544-1.249-1.6-.727a2.086,2.086,0,0,1-2.628-.377c-.555-.557-1.129-1.1-1.667-1.669a2.141,2.141,0,0,1-.376-2.722c.473-.942.371-1.178-.649-1.507a2.125,2.125,0,0,1-1.636-2.31c.061-1.555-.611-3.394,1.405-4.328.123-.057.289-.052.384-.134.278-.24.8-.6.745-.751-.212-.6-.494-1.486-.945-1.623-2.183-.663-3.344.3-3.344,2.567q0,12.413,0,24.826V7.922Zm0,2.128H1935.8c0,.663,0,1.27,0,1.877.008,1.791.531,2.324,2.312,2.325q14.207.005,28.414,0,6.822,0,13.643,0c1.459,0,2.063-.607,2.087-2.039C1982.268,11.532,1982.258,10.851,1982.258,10.05ZM1950.736-4.885c.721-2.526,2.341-3.2,4.726-2.034l1.866-1.83c-1.435-2.021-.343-4.135,1.9-4.749v-2.608c-2.316-.463-3.111-2.417-1.925-4.7l-1.82-1.85a2.975,2.975,0,0,1-4.77-1.892h-2.6c-.219,2.168-2.858,3.211-4.935,1.792a8.122,8.122,0,0,1-.966,1.241,1.086,1.086,0,0,0-.269,1.559,2.644,2.644,0,0,1,.076,1.751,2.411,2.411,0,0,1-2.384,2.067V-13.4a2.953,2.953,0,0,1,2.036,4.622l1.746,1.917c.3-.171.554-.341.828-.464,1.153-.521,3.191.108,3.482,1.3.3,1.242,1.021,1.206,1.928,1.141C1949.993-4.905,1950.335-4.885,1950.736-4.885Zm19.842,26.664c.29-1.78.051-2.108-1.376-2.9a10.389,10.389,0,0,1-2.466-1.937,1.783,1.783,0,0,0-1.466-.661c-4.067.022-8.135.033-12.2-.005a2.142,2.142,0,0,0-1.9.841,7.782,7.782,0,0,1-2.242,1.732c-1.526.831-1.768,1.187-1.446,2.932Z" transform="translate(-1933.769 26.659)" fill="#12263f"/>
        <path id="Trazado_193790" data-name="Trazado 193790" d="M2074.554,49.03c-1.173-.892-1.881-.266-2.449,1.061-.147.342-.855.56-1.333.618a11.787,11.787,0,0,1-2.554.026,1.841,1.841,0,0,1-1.686-1.437c-.178-.7-.424-.922-1.135-.535a2.034,2.034,0,0,1-2.612-.434c-.359-.366-.731-.719-1.09-1.086-1.035-1.056-1.126-1.459-.52-2.815.257-.574.162-.838-.464-1.042a2.031,2.031,0,0,1-1.615-2.292c-.008-.547-.01-1.094,0-1.641a1.979,1.979,0,0,1,1.589-2.2c.6-.2.752-.422.442-1.029a2.032,2.032,0,0,1,.467-2.765c.429-.441.862-.879,1.314-1.3a1.887,1.887,0,0,1,2.358-.365c.805.477,1.1.228,1.247-.569a1.179,1.179,0,0,1,.27-.544c1.176-1.306,2.73-.815,4.152-.788a1.814,1.814,0,0,1,1.684,1.558c.161.618.415.753,1.018.442a2.037,2.037,0,0,1,2.769.467c.417.4.829.815,1.231,1.235a1.98,1.98,0,0,1,.37,2.53c-.383.674-.249,1.007.514,1.124a1.213,1.213,0,0,1,.559.235c1.345,1.092.921,2.616.907,4.009a1.85,1.85,0,0,1-1.51,1.846c-.814.2-.81.546-.425,1.152a1.851,1.851,0,0,1,.267.867C2078.382,46.661,2076.088,49.006,2074.554,49.03Zm-11.682-3.506,1.364,1.4c2.1-.867,2.985-.529,4.195,1.5a.8.8,0,0,0,.562.3c.53.041,1.066.014,1.562.014.669-2.118,2.206-2.752,4.243-1.8l1.39-1.408c-.984-1.525-.467-3.489,1.738-4.308V39.335c-1.881-.479-2.758-2.311-1.787-4.329l-1.334-1.363a2.829,2.829,0,0,1-4.335-1.758,10.494,10.494,0,0,0-1.3.015,1.08,1.08,0,0,0-.735.332c-1.145,1.97-1.949,2.273-4.2,1.472l-1.341,1.334c.911,1.929.443,3.283-1.349,4.137a.851.851,0,0,0-.391.585,13.142,13.142,0,0,0-.018,1.494C2063.26,42.121,2063.924,43.738,2062.872,45.524Z" transform="translate(-2033.264 -18.158)" fill="#12263f"/>
        <path id="Trazado_193791" data-name="Trazado 193791" d="M2052.37,156.2a1.389,1.389,0,1,1-1.394-1.354A1.423,1.423,0,0,1,2052.37,156.2Z" transform="translate(-2025.725 -117.442)" fill="#12263f"/>
        <path id="Trazado_193792" data-name="Trazado 193792" d="M1991.406,17.521a4.764,4.764,0,1,1,4.784-4.735A4.766,4.766,0,0,1,1991.406,17.521Zm.054-7.515a2.743,2.743,0,1,0,2.708,2.771A2.775,2.775,0,0,0,1991.46,10.005Z" transform="translate(-1975.741 -0.853)" fill="#12263f"/>
        <path id="Trazado_193793" data-name="Trazado 193793" d="M2089.1,64.346a4.277,4.277,0,0,1,8.554-.063,4.278,4.278,0,1,1-8.554.063Zm2.033-.04a2.237,2.237,0,0,0,2.229,2.292,2.292,2.292,0,0,0,2.274-2.273,2.25,2.25,0,0,0-2.2-2.223A2.2,2.2,0,0,0,2091.138,64.306Z" transform="translate(-2057.096 -42.194)" fill="#12263f"/>
      </g>
    </g>
  </g>
</svg>
