<svg xmlns="http://www.w3.org/2000/svg" width="73" height="72" viewBox="0 0 73 72">
  <g id="Grupo_1076969" data-name="Grupo 1076969" transform="translate(0.219 0.326)">
    <ellipse id="Elipse_4775" data-name="Elipse 4775" cx="36.5" cy="36" rx="36.5" ry="36" transform="translate(-0.219 -0.326)" fill="#12263f"/>
    <g id="qYkDHW" transform="translate(454.185 -215.397)">
      <g id="Grupo_151945" data-name="Grupo 151945" transform="translate(-444.586 225.916)">
        <path id="Trazado_194416" data-name="Trazado 194416" d="M-379.38,240.907a54.511,54.511,0,0,1-15.367-2,37.133,37.133,0,0,1-4.746-2.1,4.045,4.045,0,0,1-1.03-.846,3.4,3.4,0,0,1,.116-5.264A13.233,13.233,0,0,1-395,227.927a56.9,56.9,0,0,1,17.444-2,50.106,50.106,0,0,1,14.4,2.019,19.157,19.157,0,0,1,4.408,1.986c3.132,1.976,3.108,4.843.047,6.918a20.624,20.624,0,0,1-7.408,2.783A64.82,64.82,0,0,1-379.38,240.907Zm.353-2.3a62.931,62.931,0,0,0,11.085-.958,23.709,23.709,0,0,0,7.666-2.492c2.042-1.19,2.092-2.415,0-3.5a21.958,21.958,0,0,0-4.909-1.884,60.93,60.93,0,0,0-26.364-.361,18.9,18.9,0,0,0-6.53,2.343c-1.772,1.115-1.828,2.216.007,3.232a22.491,22.491,0,0,0,4.735,1.932A54.154,54.154,0,0,0-379.027,238.612Z" transform="translate(407.767 -225.916)" fill="#fff"/>
        <path id="Trazado_194417" data-name="Trazado 194417" d="M-426.362,367.828a1.659,1.659,0,0,1-.076.419c-.592.974-.162,1.648.634,2.225a.833.833,0,0,1,.243.254,1.192,1.192,0,0,0,1.752.518.936.936,0,0,1,1.368.575c.353.841.687,1.691,1.008,2.545a.86.86,0,0,1-.5,1.214c-.775.338-1.294.813-1.009,1.759a.575.575,0,0,1,0,.281,1.533,1.533,0,0,0,1.025,2.04.818.818,0,0,1,.412,1.141q-.524,1.336-1.129,2.641a.9.9,0,0,1-1.295.483,1.25,1.25,0,0,0-1.831.514.634.634,0,0,1-.2.2,1.609,1.609,0,0,0-.758,2.226,1.089,1.089,0,0,1-.415.976,22.986,22.986,0,0,1-2.854,1.176.865.865,0,0,1-1.169-.619,1.194,1.194,0,0,0-1.577-.931.629.629,0,0,1-.281,0,1.647,1.647,0,0,0-2.2,1.1,1.025,1.025,0,0,1-.928.362,26.623,26.623,0,0,1-2.848-1.171.858.858,0,0,1-.444-1.243,1.289,1.289,0,0,0-.514-1.895.633.633,0,0,1-.2-.2,1.532,1.532,0,0,0-2.215-.694c-.477.231-.879-.078-1.074-.533-.379-.882-.726-1.778-1.07-2.675a.855.855,0,0,1,.529-1.205c.836-.329,1.247-.845.977-1.765a.426.426,0,0,1,0-.21,1.6,1.6,0,0,0-1.024-2.114,1.1,1.1,0,0,1-.4-.993,24.481,24.481,0,0,1,1.224-2.9.814.814,0,0,1,1.161-.345,1.294,1.294,0,0,0,1.888-.54.337.337,0,0,1,.1-.1c.85-.572,1.326-1.236.83-2.333a1.092,1.092,0,0,1,.445-.957,22.546,22.546,0,0,1,2.789-1.15.9.9,0,0,1,1.227.637c.261.747.706,1.12,1.523.9a.477.477,0,0,1,.211,0,1.757,1.757,0,0,0,2.329-1.126,1.041,1.041,0,0,1,.947-.327,24.012,24.012,0,0,1,2.844,1.2C-426.645,367.313-426.5,367.656-426.362,367.828Zm-16.264,6.228.687.466a1.494,1.494,0,0,1,.773,1.71,5.782,5.782,0,0,0-.024,2.1,1.6,1.6,0,0,1-.971,1.889c-.593.284-.441.633-.28,1.084.17.476.407.585.9.446a1.616,1.616,0,0,1,2.05.742,4.522,4.522,0,0,0,1.315,1.354,1.638,1.638,0,0,1,.685,2.077c-.165.517-.008.763.469.963.456.192.762.219,1.022-.293a1.668,1.668,0,0,1,2.036-.952,4.467,4.467,0,0,0,1.746.028,1.729,1.729,0,0,1,2.086,1c.086.163.2.311.337.514l1.257-.526c-.051-.3-.076-.505-.123-.709a1.643,1.643,0,0,1,.8-1.974,4.05,4.05,0,0,0,1.261-1.211,1.8,1.8,0,0,1,2.311-.753c.131.039.267.061.387.089.732-1.053.729-1.06-.227-1.818a1.368,1.368,0,0,1-.679-1.3,8.141,8.141,0,0,0,.086-2.239,1.783,1.783,0,0,1,1.047-2.126c.617-.3.3-.67.172-1.048s-.288-.582-.764-.441a1.638,1.638,0,0,1-2.158-.755,3.956,3.956,0,0,0-1.28-1.291,1.665,1.665,0,0,1-.718-2.126c.17-.541-.037-.746-.5-.948-.475-.21-.762-.174-1.016.319a1.656,1.656,0,0,1-1.978.944,6.322,6.322,0,0,0-2.027-.011,1.442,1.442,0,0,1-1.691-.817c-.341-.729-.793-.716-1.379-.375l-.368.216c.031.16.056.3.086.432A1.8,1.8,0,0,1-438.16,371a3.456,3.456,0,0,0-1.185,1.182,1.621,1.621,0,0,1-2.113.739c-.551-.192-.776.011-.925.484C-442.445,373.6-442.527,373.793-442.625,374.055Z" transform="translate(444.586 -346.092)" fill="#fff"/>
        <path id="Trazado_194418" data-name="Trazado 194418" d="M-398.762,496.51c.423.113.842.246,1.271.334a2.19,2.19,0,0,0,1.035.1,2.8,2.8,0,0,1,2.182.423,31.721,31.721,0,0,0,8.771,2.256,66.17,66.17,0,0,0,16.811.12,32.757,32.757,0,0,0,9.938-2.485c.32-.147.626-.322.934-.493a2.614,2.614,0,0,0,1.563-2.731,32.6,32.6,0,0,1-.017-3.384,1.16,1.16,0,0,1,1.1-1.3,1.2,1.2,0,0,1,1.175,1.31c.011,1.482.024,2.964-.007,4.445a3.675,3.675,0,0,1-1.448,2.718,15,15,0,0,1-6.193,2.915,58.749,58.749,0,0,1-16.494,1.724,52.732,52.732,0,0,1-14.473-2.018,13.952,13.952,0,0,1-4.741-2.266,19.354,19.354,0,0,1-1.533-1.508Z" transform="translate(405.334 -452.174)" fill="#fff"/>
        <path id="Trazado_194419" data-name="Trazado 194419" d="M-320.043,379.7c.761-.444,1.423-.941,2.319-.573a1.948,1.948,0,0,0,.7.028q8.042,0,16.084,0a3.592,3.592,0,0,0,3.928-3.949q0-8.042,0-16.083a3.582,3.582,0,0,0-3.953-3.92q-8.077,0-16.154,0a1.627,1.627,0,0,0-.561.017,2.288,2.288,0,0,1-2.3-.586,4.212,4.212,0,0,1,2.65-.758h8.818c2.657,0,5.314-.015,7.971.009a4.76,4.76,0,0,1,4.846,4.95q0,8.359,0,16.718a4.753,4.753,0,0,1-4.879,4.915c-5.62.017-11.24.007-16.86.008A4.266,4.266,0,0,1-320.043,379.7Z" transform="translate(337.621 -335.811)" fill="#fff"/>
        <path id="Trazado_194420" data-name="Trazado 194420" d="M-278.618,382.281c.444-.384.739-.647,1.045-.9a.316.316,0,0,1,.246-.073c.554.19,1.1.4,1.651.6.658.243.629.865.778,1.4.209.746.785.2,1.29.484-.142-1.556.779-2.008,1.927-2.243a.969.969,0,0,0,.385-.17,1.713,1.713,0,0,1,2.592.154c.957-.634.97-.642.47-1.524a1.232,1.232,0,0,1-.023-1.372,9.168,9.168,0,0,0,.779-1.949,1.284,1.284,0,0,1,1.284-.907c.481-.051.551-.276.563-.689.012-.438-.14-.659-.573-.7a1.411,1.411,0,0,1-1.364-1.272,9.675,9.675,0,0,0-.62-1.551c1.387-.295,1.537-.243,1.948.965.15.441.43.492.794.531.954.1,1.119.262,1.2,1.211a9.436,9.436,0,0,1,.025,1.268c-.067,1.356-.132,1.417-1.483,1.61a1.03,1.03,0,0,0-.209.026,3.855,3.855,0,0,0-.782,2.549c.766,1.1.765,1.143-.152,2.123-.225.24-.454.478-.7.7-.987.9-1.213.883-2.073.105-.16-.145-.527-.107-.79-.078-.2.022-.377.2-.578.247-.827.2-1.368.585-1.326,1.562.009.207-.388.6-.623.62a14.053,14.053,0,0,1-2.658-.007c-.242-.026-.6-.487-.621-.772-.062-.725-.3-1.153-1.062-1.312A6.625,6.625,0,0,1-278.618,382.281Z" transform="translate(302.042 -350.885)" fill="#fff"/>
        <path id="Trazado_194421" data-name="Trazado 194421" d="M-138.475,333.441c0-.633-.039-1.269.023-1.9.019-.192.284-.429.492-.522,1.322-.592,2.682-1.1,3.985-1.733a2.264,2.264,0,0,0,1.36-2.4c-.086-1.144-.03-2.3-.024-3.451.005-.9.415-1.38,1.148-1.375s1.138.485,1.143,1.386c.007,1.292-.027,2.584.009,3.874a3.852,3.852,0,0,1-1.179,2.91A14.49,14.49,0,0,1-138.475,333.441Z" transform="translate(181.689 -308.5)" fill="#fff"/>
        <path id="Trazado_194422" data-name="Trazado 194422" d="M-138.467,419.836a1.877,1.877,0,0,1-.091-.229c-.139-2.031-.123-1.99,1.759-2.728a24.133,24.133,0,0,0,3.019-1.493,2.016,2.016,0,0,0,1.055-2c-.057-1.243-.021-2.491-.007-3.737.009-.824.465-1.331,1.144-1.316a1.206,1.206,0,0,1,1.135,1.351q.014,2.151,0,4.3a3.57,3.57,0,0,1-1.182,2.551,11.416,11.416,0,0,1-4.363,2.5C-136.807,419.332-137.634,419.57-138.467,419.836Z" transform="translate(181.794 -382.59)" fill="#fff"/>
        <path id="Trazado_194423" data-name="Trazado 194423" d="M-240.479,461.246l1.455.574-.058.3c-.8,0-1.6.014-2.4-.018-.1,0-.262-.255-.267-.4-.024-.653-.021-1.309.01-1.963.026-.542.431-.7.886-.706a.835.835,0,0,0,.92-.746,1.952,1.952,0,0,1,.3-.711.718.718,0,0,0-.128-1.05.882.882,0,0,1,.021-1.412c.4-.4.8-.789,1.207-1.182a.771.771,0,0,1,1.23,0,.835.835,0,0,0,1.233.149,1.478,1.478,0,0,1,.586-.235.855.855,0,0,0,.778-.979c-.014-.549.272-.782.8-.876,2.364-.427,3.239.452,2.848,2.91-.639,0-1.135-.257-1.195-.926-.072-.813-.5-.889-1.17-.712-.043.179-.1.358-.128.542a1.144,1.144,0,0,1-1.005,1.1,2.533,2.533,0,0,0-.983.369,1.63,1.63,0,0,1-2.414-.246l-.667.81a3.157,3.157,0,0,1,.44.792,1.95,1.95,0,0,1-.028.983,9.766,9.766,0,0,1-.753,1.81,1.442,1.442,0,0,1-.836.707C-240.564,460.238-240.662,460.627-240.479,461.246Z" transform="translate(270.392 -419.991)" fill="#fff"/>
        <path id="Trazado_194424" data-name="Trazado 194424" d="M-269.233,379.36a3.49,3.49,0,0,1-3.5-3.623,3.561,3.561,0,0,1,3.641-3.444,3.548,3.548,0,0,1,3.43,3.654A3.489,3.489,0,0,1-269.233,379.36Zm.01-1.437a2.091,2.091,0,0,0,2.124-2.069,2.128,2.128,0,0,0-2.106-2.109A2.135,2.135,0,0,0-271.3,375.8,2.1,2.1,0,0,0-269.223,377.923Z" transform="translate(296.99 -351.632)" fill="#fff"/>
        <path id="Trazado_194425" data-name="Trazado 194425" d="M-401.711,327.139c0-1.4-.027-2.729.012-4.059a1.073,1.073,0,0,1,1.131-1.028,1.07,1.07,0,0,1,1.117,1.038c.031,1.077.009,2.156.009,3.26Z" transform="translate(407.77 -308.483)" fill="#fff"/>
        <path id="Trazado_194426" data-name="Trazado 194426" d="M-196.268,495.656c-.979-1.36-1.835-1.693-2.785-1.188-.986.524-1.192,1.4-.673,2.856-1.472.255-1.564.16-1.61-1.229a3.12,3.12,0,0,1,4.309-2.889c.543.22.854.518.768,1.153A10.588,10.588,0,0,0-196.268,495.656Z" transform="translate(235.669 -455.284)" fill="#fff"/>
        <path id="Trazado_194427" data-name="Trazado 194427" d="M-301.09,371.761c-.287.815-.507,1.529-.8,2.213-.077.181-.367.271-.56.4a1.959,1.959,0,0,1-.331-.623,12.953,12.953,0,0,1-.005-1.325c0-.407.105-.692.592-.67C-301.843,371.773-301.493,371.761-301.09,371.761Z" transform="translate(322.812 -351.173)" fill="#fff"/>
        <path id="Trazado_194428" data-name="Trazado 194428" d="M-383.65,422.472a4.193,4.193,0,0,1-4.245,4.178,4.223,4.223,0,0,1-4.162-4.274,4.248,4.248,0,0,1,4.189-4.177A4.2,4.2,0,0,1-383.65,422.472Zm-1.716-.082a2.506,2.506,0,0,0-2.6-2.467,2.5,2.5,0,0,0-2.356,2.567,2.5,2.5,0,0,0,2.49,2.444A2.517,2.517,0,0,0-385.365,422.391Z" transform="translate(399.471 -391.061)" fill="#fff"/>
      </g>
    </g>
  </g>
</svg>
