<svg xmlns="http://www.w3.org/2000/svg" width="73" height="72" viewBox="0 0 73 72">
  <g id="Grupo_151944" data-name="Grupo 151944" transform="translate(0.133 0.326)">
    <ellipse id="Elipse_4775" data-name="Elipse 4775" cx="36.5" cy="36" rx="36.5" ry="36" transform="translate(-0.133 -0.326)" fill="#ff8e7c"/>
    <g id="PUSzgc.tif" transform="translate(-730.09 -328.951)">
      <g id="Grupo_151947" data-name="Grupo 151947" transform="translate(741.847 339.67)">
        <path id="Trazado_194443" data-name="Trazado 194443" d="M754.753,375.945l2.95,2.947c.547.547,1.086,1.1,1.645,1.635a.755.755,0,0,0,.458.214c1.661.015,3.321.009,4.985.009a7.747,7.747,0,0,1,.408-.849,3.03,3.03,0,0,1,3.149-1.493,3.113,3.113,0,0,1,2.608,2.263,1.427,1.427,0,0,0,.485.672c1.146.8,2.311,1.569,3.484,2.328a1.423,1.423,0,0,0,.721.228c2.583.016,5.165.006,7.748.016a.575.575,0,0,0,.611-.347,2.314,2.314,0,0,1,2.626-1.18,2.379,2.379,0,0,1,0,4.623,2.321,2.321,0,0,1-2.623-1.19.574.574,0,0,0-.615-.341c-2.7.009-5.4.016-8.094-.008a2,2,0,0,1-1-.3c-1.166-.737-2.3-1.519-3.489-2.309a3.2,3.2,0,0,1-5.987-.528h-.862c-1.5,0-2.994-.014-4.491,0a1.284,1.284,0,0,1-1-.413c-1.514-1.533-3.043-3.052-4.568-4.576-.126-.126-.257-.246-.4-.387-.364.26-.7.513-1.054.752a17,17,0,0,1-9.575,3.034c-.757.01-1.015-.246-1.015-.989q0-3.356,0-6.713c0-.666.168-.861.829-.985a.788.788,0,0,0-.009-1.574c-.652-.115-.824-.321-.824-.991q0-11.254,0-22.507c0-.723.26-.989.972-.983a17.15,17.15,0,0,1,10.229,3.462c.132.1.262.2.432.326.132-.124.263-.24.386-.364,1.525-1.523,3.053-3.042,4.568-4.576a1.337,1.337,0,0,1,1.042-.437c1.775.019,3.551.008,5.319.008a3.215,3.215,0,0,1,6.021-.537c1.148-.765,2.28-1.547,3.444-2.278a2.2,2.2,0,0,1,1.089-.33c2.681-.027,5.363-.019,8.044-.008a.576.576,0,0,0,.609-.351,2.367,2.367,0,1,1,.014,2.295.614.614,0,0,0-.639-.382c-2.583.014-5.165,0-7.748.016a1.238,1.238,0,0,0-.636.183q-1.839,1.2-3.651,2.434a.83.83,0,0,0-.353.433,3.172,3.172,0,0,1-6.115.273c-.019-.046-.041-.089-.079-.171-1.677,0-3.369,0-5.061.005a.472.472,0,0,0-.3.124c-1.576,1.562-3.146,3.13-4.7,4.681.7.854,1.38,1.672,2.049,2.5a2.71,2.71,0,0,1,.443.65c.263.653.733.765,1.391.75,2.039-.046,4.079-.025,6.119-.014a.981.981,0,0,0,.775-.315c1.584-1.6,3.187-3.188,4.771-4.791a1.327,1.327,0,0,1,1.043-.437c1.249.023,2.5.008,3.758.008a3.156,3.156,0,0,1,2.524-2.317,3.157,3.157,0,1,1,.675,6.261,3.037,3.037,0,0,1-3.055-2.048.412.412,0,0,0-.458-.321c-1.02.012-2.04-.01-3.059.018a.957.957,0,0,0-.578.276q-2.424,2.392-4.819,4.813a1.342,1.342,0,0,1-1.044.434c-2.056-.017-4.113-.008-6.169-.008h-.573l.86,2.373h3.388c3.29,0,6.58,0,9.87.007a.981.981,0,0,0,.772-.321c1.3-1.325,2.633-2.625,3.931-3.955a1.458,1.458,0,0,1,1.175-.478c1.1.029,2.2,0,3.306.013a.538.538,0,0,0,.579-.316,2.366,2.366,0,1,1,0,2.208.541.541,0,0,0-.578-.319c-.954.01-1.909.013-2.862-.006a.963.963,0,0,0-.775.315c-1.327,1.349-2.676,2.676-4,4.023a1.3,1.3,0,0,1-1,.414q-6.44-.015-12.881,0h-.55l.275,2.368c.5,0,.992.014,1.48-.011a.489.489,0,0,0,.308-.238,2.38,2.38,0,0,1,4.271-.033.72.72,0,0,0,.534.267c2.517.019,5.034.015,7.551.016,2.78,0,5.56,0,8.34.006a.564.564,0,0,0,.645-.412,3.151,3.151,0,1,1,3.656,4.255,3.08,3.08,0,0,1-3.591-1.737.778.778,0,0,0-.868-.542q-7.822.024-15.644,0a.7.7,0,0,0-.726.406,2.328,2.328,0,0,1-4.081-.03.6.6,0,0,0-.644-.375c-.406.028-.815.007-1.215.007l-.438,3.163h.588c4.54,0,9.081.008,13.621-.011a1.641,1.641,0,0,1,1.3.547c1.027,1.066,2.079,2.108,3.142,3.139a1.03,1.03,0,0,0,.633.261c.986.027,1.974,0,2.961.018a.541.541,0,0,0,.568-.336,2.368,2.368,0,1,1,.028,2.295.644.644,0,0,0-.685-.393c-1.1.014-2.2-.014-3.306.012a1.362,1.362,0,0,1-1.084-.458q-1.586-1.624-3.215-3.206a1.071,1.071,0,0,0-.673-.282c-4.639-.015-9.278-.006-13.917-.015a.524.524,0,0,0-.6.406c-.224.647-.513,1.271-.8,1.969h.744c2.122,0,4.244.013,6.366-.01a1.3,1.3,0,0,1,1.1.52q2.007,2.375,4.053,4.717a.935.935,0,0,0,.614.286c1.25.027,2.5,0,3.75.022a.508.508,0,0,0,.52-.331,2.371,2.371,0,1,1-.006,2.21.509.509,0,0,0-.529-.317c-1.4.013-2.8-.012-4.195.016a1.338,1.338,0,0,1-1.142-.534q-1.989-2.356-4.019-4.679a.986.986,0,0,0-.652-.307c-2.385-.023-4.771-.011-7.156-.025a.715.715,0,0,0-.645.328C756.252,374.093,755.514,374.995,754.753,375.945Zm.455-3.047a15.491,15.491,0,0,0,3.159-8.71h-6.206c-.115,1.2-.181,2.379-.353,3.543s-.458,2.312-.669,3.471a.447.447,0,0,0,.231.361C752.616,372.013,753.87,372.438,755.208,372.9Zm-.033-19.092c-.813.318-1.565.643-2.338.9-.456.154-.837.3-.912.857a.909.909,0,0,1-.28.509c-.31.278-.252.583-.19.934.174.983.341,1.969.464,2.96.107.857.15,1.721.221,2.572h6.227A15.573,15.573,0,0,0,755.174,353.807Zm-4.58,10.392h-7.168c0,1.546-.006,3.057.01,4.567,0,.123.137.258.235.363.372.4.75.8,1.138,1.182a.833.833,0,0,0,.4.262c1.283.175,2.57.319,3.853.491.308.041.441-.035.5-.352.121-.627.333-1.238.424-1.868C750.219,367.311,750.395,365.769,750.594,364.2Zm-.662-7.127a2.319,2.319,0,0,1-1.921-.8.812.812,0,0,0-.852-.3c-.684.078-1.371.138-2.057.2-.55.047-1.1.08-1.641.118v6.262h7.12Zm-6.478-2.377c1.077-.085,2.119-.192,3.164-.24.542-.025.893-.185.985-.764a.677.677,0,0,1,.252-.414c.679-.461.441-.958.1-1.481-.214-.33-.393-.684-.611-1.011a7.492,7.492,0,0,0-2.853-2.724c-.324-.16-.677-.264-1.037-.4Zm-.025,24.347c2.138-.372,5.01-3.749,5.461-6.429-1.124-.138-2.246-.269-3.366-.417-.409-.054-.764-.092-.948.411a.917.917,0,0,1-.458.5c-.744.289-.738.871-.7,1.512.034.557.01,1.117.011,1.675C743.43,377.205,743.43,378.12,743.43,379.041Zm4.13-.762c1.751-.269,5.572-2.705,6.462-4.123l-3.43-1.184A16,16,0,0,1,747.56,378.279Zm6.543-25.736a15.283,15.283,0,0,0-6.492-4.081,17,17,0,0,1,2.3,3.668.405.405,0,0,0,.238.206,2.733,2.733,0,0,1,1.622,1.08Zm24.083-1.023a1.575,1.575,0,0,0-.031-3.149,1.575,1.575,0,1,0,.031,3.149Zm-8.7-6.314a1.575,1.575,0,1,0-1.571,1.578A1.6,1.6,0,0,0,769.481,345.207Zm18.165,18.18a1.577,1.577,0,1,0-1.588,1.565A1.616,1.616,0,0,0,787.646,363.387Zm-18.165,18.142a1.61,1.61,0,0,0-1.585-1.565,1.575,1.575,0,1,0,.02,3.15A1.612,1.612,0,0,0,769.481,381.529Zm17.369-39.475a.783.783,0,1,0-.8.778A.824.824,0,0,0,786.85,342.054Zm-36.32,12.62a.786.786,0,1,0-.772.8A.822.822,0,0,0,750.53,354.673Zm33.962-.767a.784.784,0,1,0,.783.795A.819.819,0,0,0,784.492,353.906Zm-19.75,9.438a.785.785,0,1,0-.773.813A.834.834,0,0,0,764.742,363.344Zm20.533,8.705a.783.783,0,1,0-.781.8A.825.825,0,0,0,785.275,372.049Zm-7.112,5.544a.783.783,0,1,0-.8.778A.826.826,0,0,0,778.164,377.593Zm7.892,6.319a.786.786,0,1,0,.8.772A.822.822,0,0,0,786.055,383.912Z" transform="translate(-741.847 -339.67)" fill="#12263f"/>
      </g>
    </g>
  </g>
</svg>
