<svg xmlns="http://www.w3.org/2000/svg" width="92" height="92" viewBox="0 0 92 92">
  <g id="Grupo_1077919" data-name="Grupo 1077919" transform="translate(-180 -13278)">
    <g id="covid-test_1_" data-name="covid-test (1)" transform="translate(180 13278.978)">
      <path id="Trazado_2267" data-name="Trazado 2267" d="M29.843,87.339,98.83,80.132a40.654,40.654,0,1,0-68.987,7.207Z" transform="translate(-18 -18.342)" fill="#ff6148"/>
      <path id="Trazado_2268" data-name="Trazado 2268" d="M268.529,261.921a18.458,18.458,0,0,1-2.663,2.546,9.753,9.753,0,0,1-8.947,1.579l.2,1.054a10.106,10.106,0,0,1-1.955,5.253,4.89,4.89,0,0,0-.552.175,13.337,13.337,0,0,0,13.432-1.7,26.913,26.913,0,0,0,2.411-2.12C268.988,266.983,268.6,264.025,268.529,261.921Z" transform="translate(-212.454 -218.464)" fill="#ff6148"/>
      <path id="Trazado_2269" data-name="Trazado 2269" d="M224.665,261.921c-.072,2.1-.46,5.062-1.926,6.788a26.911,26.911,0,0,0,2.411,2.119,13.188,13.188,0,0,0,3.226,1.841,3.531,3.531,0,0,1,.344-.094,10.244,10.244,0,0,0,2.064-5.494l-.182-.954a9.715,9.715,0,0,1-3.273-1.661A18.5,18.5,0,0,1,224.665,261.921Z" transform="translate(-185.869 -218.464)" fill="#ff6148"/>
      <path id="Trazado_2272" data-name="Trazado 2272" d="M288.3,76.19a7.772,7.772,0,0,0-2.659-3.817,15.581,15.581,0,0,0-10.807-2.718c.043.022.083.047.126.069a2.519,2.519,0,0,0-.182,1.673,1.959,1.959,0,0,0,.884,1.121c-.055.079-.118.176-.184.288a19.084,19.084,0,0,1,10.163,2.136,6.269,6.269,0,0,1,2.659,2.936l1.028,2.309Z" transform="translate(-229.21 -58.015)" fill="#ff6148"/>
      <path id="Trazado_2273" data-name="Trazado 2273" d="M222.048,72.732a1.939,1.939,0,0,1-.737-2.83,15.158,15.158,0,0,0-7.644,2.761,7.771,7.771,0,0,0-2.659,3.817l-1.028,4,1.028-2.309a6.27,6.27,0,0,1,2.659-2.936,18.4,18.4,0,0,1,8.122-2.148A3.071,3.071,0,0,1,222.048,72.732Z" transform="translate(-175.226 -58.304)" fill="#ff6148"/>
      <path id="Trazado_2274" data-name="Trazado 2274" d="M367.517,145.731c-.676-.619-2.187-.305-2.769.074a8.174,8.174,0,0,1,.025,2.408l-.687,5c0,.4-.013.8-.036,1.188a2.265,2.265,0,0,0,2.812-2.03,7.654,7.654,0,0,1,.3-1.309C367.6,149.672,369.21,147.282,367.517,145.731Z" transform="translate(-303.734 -121.259)" fill="#ff6148"/>
      <path id="Trazado_2275" data-name="Trazado 2275" d="M184.077,145.731c.676-.619,2.187-.305,2.769.074a8.181,8.181,0,0,0-.025,2.408l.687,5c0,.4.013.8.036,1.188a2.265,2.265,0,0,1-2.812-2.03,7.694,7.694,0,0,0-.3-1.309C183.991,149.672,182.383,147.282,184.077,145.731Z" transform="translate(-152.988 -121.259)" fill="#ff6148"/>
      <path id="Trazado_2277" data-name="Trazado 2277" d="M221.492,120a9.536,9.536,0,0,1-2.681-2.268,9.2,9.2,0,0,1-2-5.794V101.521a1.739,1.739,0,0,1,0-2.355c-2.92-2.365-.614-6.107-.614-6.107a1.232,1.232,0,0,1,0-1.991,2.991,2.991,0,0,1-.008-4.057,18.491,18.491,0,0,0-8.373,2.159,6.269,6.269,0,0,0-2.659,2.936l-.725,1.628h0l-1.248,2.8a8.108,8.108,0,0,0-.141,2.991l.687,5a18.382,18.382,0,0,0,7.106,14.618,9.762,9.762,0,0,0,10.653.849Z" transform="translate(-169.378 -72.575)" fill="#ff6148"/>
      <g id="Grupo_20679" data-name="Grupo 20679" transform="translate(32.134 23.374)">
        <path id="Trazado_2278" data-name="Trazado 2278" d="M198.277,148.246l-3.969-6.219a.747.747,0,1,1,1.259-.8l3.969,6.218a.747.747,0,1,1-1.259.8Z" transform="translate(-194.191 -140.879)" fill="#ff6148"/>
      </g>
      <g id="Grupo_20680" data-name="Grupo 20680" transform="translate(57.532 23.374)">
        <path id="Trazado_2279" data-name="Trazado 2279" d="M347.614,148.429a.747.747,0,0,1-.228-1.031l3.941-6.175a.747.747,0,0,1,1.259.8l-3.941,6.175A.746.746,0,0,1,347.614,148.429Z" transform="translate(-347.269 -140.878)" fill="#ff6148"/>
      </g>
      <path id="Trazado_2280" data-name="Trazado 2280" d="M293.377,165.761a14.039,14.039,0,0,1-7.249-1.729,6.779,6.779,0,0,0-3.985-.9,1.789,1.789,0,0,0,.333,1.958v10.316a9.474,9.474,0,0,0,2.052,5.95,9.8,9.8,0,0,0,2.914,2.421,9.671,9.671,0,0,0,1.259-.827,18.691,18.691,0,0,0,4.326-4.8,6.593,6.593,0,0,0,.986-3.188l.31-7.863C294.358,166.359,293.92,165.743,293.377,165.761Z" transform="translate(-235.29 -136.045)" fill="#ff6148"/>
      <path id="Trazado_2281" data-name="Trazado 2281" d="M228.1,185.029a9.755,9.755,0,0,0,4.972-1.361,9.6,9.6,0,0,1-2.976-2.433,9.2,9.2,0,0,1-2-5.794V165.025a1.556,1.556,0,0,1-.3-1.877,6.907,6.907,0,0,0-3.105.919,14.039,14.039,0,0,1-7.248,1.73c-.543-.018-.981.6-.946,1.335l.31,7.863a6.593,6.593,0,0,0,.986,3.188,18.685,18.685,0,0,0,4.327,4.8,9.744,9.744,0,0,0,5.974,2.043Z" transform="translate(-180.668 -136.079)" fill="#ff6148"/>
      <path id="Trazado_2283" data-name="Trazado 2283" d="M91.419,311.575h-.268s-13.919,3.587-17.258,10.476a28.261,28.261,0,0,0-2,6.826,40.816,40.816,0,0,0,14.931,12.068V330.362c0-11.448,13.081-11.6,13.081-11.6-.029-.122-.054-.24-.074-.356a18.18,18.18,0,0,1-3.571-2.162A32.051,32.051,0,0,1,91.419,311.575Z" transform="translate(-60.05 -259.88)" fill="#ff6148"/>
      <path id="Trazado_2284" data-name="Trazado 2284" d="M259.444,295.486a2.036,2.036,0,0,0-2.774.185,26.046,26.046,0,0,1-2.963,2.7,12.777,12.777,0,0,1-12.78,1.664,4.522,4.522,0,0,0-2.461,1.76,3.911,3.911,0,0,0-.459,2.932l-.174.01a18.343,18.343,0,0,0,19.287-1.972,32.138,32.138,0,0,0,5.109-4.991Z" transform="translate(-198.457 -246.077)" fill="#ff6148"/>
      <path id="Trazado_2285" data-name="Trazado 2285" d="M196.485,298.368a26.036,26.036,0,0,1-2.963-2.7,2.036,2.036,0,0,0-2.774-.185l-2.784,2.286a32.13,32.13,0,0,0,5.109,4.991,18.18,18.18,0,0,0,3.645,2.2c-.963-3.989,3-4.77,3-4.77A12.654,12.654,0,0,1,196.485,298.368Z" transform="translate(-156.863 -246.077)" fill="#ff6148"/>
      <path id="Trazado_2286" data-name="Trazado 2286" d="M291.5,114.01a4.776,4.776,0,0,0-3.861-2.545H276.817a1.669,1.669,0,0,0-.441,1.081,1.358,1.358,0,0,0,.47.966c-.417.792-1.829,3.926.589,6.087a1.9,1.9,0,0,0,.08,2.4.443.443,0,0,1,.6.072c2.365,2.8,4.151,3.407,5.257,3.407h3.435a4.46,4.46,0,0,0,3.23-1.42,6.8,6.8,0,0,0,1.984-4.606V115.8A3.3,3.3,0,0,0,291.5,114.01Z" transform="translate(-230.34 -92.971)" fill="#ff6148"/>
      <path id="Trazado_2287" data-name="Trazado 2287" d="M214.466,122.075a.442.442,0,0,1,.339-.157,1.739,1.739,0,0,1,0-2.355c-2.92-2.365-.614-6.107-.614-6.107a1.232,1.232,0,0,1,0-1.991h-9.253a4.776,4.776,0,0,0-3.861,2.545,3.294,3.294,0,0,0-.517,1.788v3.657a6.806,6.806,0,0,0,1.984,4.606,4.461,4.461,0,0,0,3.23,1.42h3.435C210.315,125.482,212.1,124.872,214.466,122.075Z" transform="translate(-167.369 -92.971)" fill="#ff6148"/>
      <path id="Trazado_2288" data-name="Trazado 2288" d="M286.209,123.466h-2.641a14.426,14.426,0,0,1-4.544,0h-2.233c.018.019.036.038.055.056-.417.792-1.828,3.924.587,6.085a1.794,1.794,0,0,1,.342-.035,1.815,1.815,0,0,1,1.43.7c.087.111.175.218.262.324a7.2,7.2,0,0,1,1.711.7,14,14,0,0,0,7.036,1.734,2.621,2.621,0,0,0,.208-.169A6.748,6.748,0,0,1,290,129.9a3.8,3.8,0,0,0,.027-.436v-2.179A18.529,18.529,0,0,0,286.209,123.466Z" transform="translate(-230.34 -102.981)" fill="#ff6148"/>
      <path id="Trazado_2289" data-name="Trazado 2289" d="M223.383,130.272a1.815,1.815,0,0,1,1.43-.7c-2.92-2.365-.614-6.107-.614-6.107h-9.253c-1.026,0-1.871,1.141-2.187,1.632a1.307,1.307,0,0,0-.2.71v3.657A4.86,4.86,0,0,0,214,132.707a2.636,2.636,0,0,0,.37.326,13.994,13.994,0,0,0,7.037-1.734,7.2,7.2,0,0,1,1.712-.7C223.209,130.49,223.3,130.383,223.383,130.272Z" transform="translate(-177.378 -102.98)" fill="#ff6148"/>
      <path id="Trazado_2290" data-name="Trazado 2290" d="M304.01,166.479a.7.7,0,0,0-.154-.014,14.038,14.038,0,0,1-7.248-1.729,7.136,7.136,0,0,0-2.053-.785c.027.03.055.058.08.09,1.595,2.021,3.152,3.227,4.166,3.227h3.435A2.428,2.428,0,0,0,304.01,166.479Z" transform="translate(-245.768 -136.748)" fill="#ff6148"/>
      <path id="Trazado_2291" data-name="Trazado 2291" d="M228.69,164.735a14.039,14.039,0,0,1-7.248,1.729.7.7,0,0,0-.154.014,2.43,2.43,0,0,0,1.775.789H226.5c1.013,0,2.571-1.206,4.166-3.227.025-.032.053-.06.08-.09A7.136,7.136,0,0,0,228.69,164.735Z" transform="translate(-184.657 -136.748)" fill="#ff6148"/>
      <path id="Trazado_2292" data-name="Trazado 2292" d="M338.68,123.466h-1.433l3.82,3.82v-1.478a1.308,1.308,0,0,0-.2-.711C340.551,124.607,339.707,123.466,338.68,123.466Z" transform="translate(-281.378 -102.981)" fill="#ff6148"/>
      <path id="Trazado_2293" data-name="Trazado 2293" d="M298.485,123.466h-4.544l9.4,9.4c.056-.05.11-.1.162-.157a5.068,5.068,0,0,0,1.417-2.807Z" transform="translate(-245.257 -102.981)" fill="#ff6148"/>
      <path id="Trazado_2294" data-name="Trazado 2294" d="M276.223,323.733h-2.6a.986.986,0,0,0-.986.986v30.237a40.9,40.9,0,0,0,4.573-.372V324.719A.985.985,0,0,0,276.223,323.733Z" transform="translate(-227.487 -270.021)" fill="#ff6148"/>
      <path id="Trazado_2295" data-name="Trazado 2295" d="M39.331,200.569a7.639,7.639,0,0,0,6.089,2.472l7.534,7.936a7.806,7.806,0,0,0,3.215,4.912c2.042,1.347,4.77,1.605,8.108.774a18.066,18.066,0,0,0-26.771-23.824c-.135,1.094-.437,5.052,1.825,7.73Z" transform="translate(-31.291 -157.149)" fill="#ff6148"/>
      <g id="Grupo_20681" data-name="Grupo 20681" transform="translate(17.236 25.854)">
        <path id="Trazado_2297" data-name="Trazado 2297" d="M105.231,165.422a.83.83,0,0,1-.83-.83v-7.934a.83.83,0,1,1,1.659,0v7.934A.83.83,0,0,1,105.231,165.422Z" transform="translate(-104.401 -155.829)" fill="#ff6148"/>
      </g>
      <path id="Trazado_2298" data-name="Trazado 2298" d="M101.629,204.711h-.966a.725.725,0,0,0-.71.582l-.238,1.191a10.832,10.832,0,0,0-.21,2.124v4.224h3.284v-4.224a10.835,10.835,0,0,0-.21-2.124l-.238-1.191A.724.724,0,0,0,101.629,204.711Z" transform="translate(-83.08 -170.746)" fill="#ff6148"/>
      <path id="Trazado_2299" data-name="Trazado 2299" d="M101.895,210.839a.75.75,0,0,1-.748-.748v-4.92a.739.739,0,0,1,.163-.46h-.646a.725.725,0,0,0-.71.582l-.238,1.191a10.833,10.833,0,0,0-.21,2.124v4.224h3.284V210.84h-.894Z" transform="translate(-83.081 -170.747)" fill="#ff6148"/>
      <path id="Trazado_2300" data-name="Trazado 2300" d="M96.813,253.659h4.177V256.6H96.813Z" transform="translate(-80.836 -211.573)" fill="#ff6148"/>
      <g id="Grupo_20682" data-name="Grupo 20682" transform="translate(14.747 41.256)">
        <path id="Trazado_2301" data-name="Trazado 2301" d="M95.205,250.318H90.227a.83.83,0,1,1,0-1.659h4.979a.83.83,0,1,1,0,1.659Z" transform="translate(-89.397 -248.659)" fill="#ff6148"/>
      </g>
      <path id="Trazado_2302" data-name="Trazado 2302" d="M93.149,270.106h-6a.83.83,0,0,0-.83.83v1.122h7.659v-1.122A.83.83,0,0,0,93.149,270.106Z" transform="translate(-72.084 -225.291)" fill="#ff6148"/>
      <path id="Trazado_2303" data-name="Trazado 2303" d="M110.736,295.716a2.059,2.059,0,0,0-2.053,2.053v14.546a2.05,2.05,0,0,0,.926,1.71,18.114,18.114,0,0,0,3.023-.389v-17.92Z" transform="translate(-90.736 -246.652)" fill="#ff6148"/>
      <path id="Trazado_2304" data-name="Trazado 2304" d="M90.149,299.646V285.539a2,2,0,0,1,1.991-1.991h1.838v-2.707H86.319v20.388a18.135,18.135,0,0,0,3.829.408q.761,0,1.505-.063A2,2,0,0,1,90.149,299.646Z" transform="translate(-72.083 -234.245)" fill="#ff6148"/>
      <g id="Grupo_20683" data-name="Grupo 20683" transform="translate(13.407 49.732)">
        <path id="Trazado_2305" data-name="Trazado 2305" d="M83.89,301.405H82.149a.83.83,0,0,1,0-1.659H83.89a.83.83,0,0,1,0,1.659Z" transform="translate(-81.319 -299.746)" fill="#ff6148"/>
      </g>
      <g id="Grupo_20684" data-name="Grupo 20684" transform="translate(13.407 53.007)">
        <path id="Trazado_2306" data-name="Trazado 2306" d="M82.95,321.139h-.8a.83.83,0,0,1,0-1.659h.8a.83.83,0,0,1,0,1.659Z" transform="translate(-81.319 -319.48)" fill="#ff6148"/>
      </g>
      <g id="Grupo_20685" data-name="Grupo 20685" transform="translate(13.407 56.281)">
        <path id="Trazado_2307" data-name="Trazado 2307" d="M82.95,340.872h-.8a.83.83,0,0,1,0-1.659h.8a.83.83,0,0,1,0,1.659Z" transform="translate(-81.319 -339.213)" fill="#ff6148"/>
      </g>
      <g id="Grupo_20686" data-name="Grupo 20686" transform="translate(13.407 59.555)">
        <path id="Trazado_2308" data-name="Trazado 2308" d="M83.89,360.606H82.149a.83.83,0,0,1,0-1.659H83.89a.83.83,0,1,1,0,1.659Z" transform="translate(-81.319 -358.947)" fill="#ff6148"/>
      </g>
      <g id="Grupo_20687" data-name="Grupo 20687" transform="translate(13.407 62.829)">
        <path id="Trazado_2309" data-name="Trazado 2309" d="M82.95,380.339h-.8a.83.83,0,1,1,0-1.659h.8a.83.83,0,1,1,0,1.659Z" transform="translate(-81.319 -378.68)" fill="#ff6148"/>
      </g>
      <path id="Trazado_2310" data-name="Trazado 2310" d="M66.378,65.736c4.806,3.445,12.207,3.607,15-1.252,1.855-3.23-.033-7.638-1.846-10.656A40.852,40.852,0,0,0,66.378,65.736Z" transform="translate(-55.45 -44.897)" fill="#ff6148"/>
      <path id="Trazado_2311" data-name="Trazado 2311" d="M408.784,113.73a40.549,40.549,0,0,0-13.765-30.487c-1.654,2.193-2.149,5.7-1.155,10.494,1.991,9.6-10.9,11.639-2.821,21.913,4.216,5.364,11.414,5.393,17.276,4.223a40.933,40.933,0,0,0,.465-6.142Z" transform="translate(-324.006 -69.432)" fill="#ff6148"/>
      <path id="Trazado_2312" data-name="Trazado 2312" d="M274.922,443.076a2.387,2.387,0,0,1-2.286-1.7v11.7a40.884,40.884,0,0,0,4.573-.372V441.372A2.387,2.387,0,0,1,274.922,443.076Z" transform="translate(-227.487 -368.142)" fill="#ff6148"/>
      <path id="Trazado_2313" data-name="Trazado 2313" d="M421.775,403.327a13.9,13.9,0,0,0-3.017-4.78,1.48,1.48,0,0,0-2.539,1.035v8.939A40.874,40.874,0,0,0,421.775,403.327Z" transform="translate(-347.247 -332.047)" fill="#ff6148"/>
      <circle id="Elipse_10703" data-name="Elipse 10703" cx="46" cy="46" r="46" transform="translate(0 -0.978)" fill="#ff6148"/>
    </g>
    <g id="Grupo_1077911" data-name="Grupo 1077911" transform="translate(8782.98 11681.521)">
      <path id="Trazado_826552" data-name="Trazado 826552" d="M17.348,41.46a1.193,1.193,0,0,1-.64-.188A18.1,18.1,0,0,1,27.443,7.956,18.261,18.261,0,0,1,44.572,26.248,18.059,18.059,0,0,1,36.24,41.269a1.187,1.187,0,0,1-1.282-2A15.69,15.69,0,0,0,42.2,26.221a15.868,15.868,0,0,0-14.879-15.9,15.73,15.73,0,0,0-9.33,28.952,1.186,1.186,0,0,1-.642,2.183" transform="translate(-8583.45 1614.631)" fill="#12263f"/>
      <path id="Trazado_826553" data-name="Trazado 826553" d="M19.716,8.186A1.185,1.185,0,0,1,18.53,7V3.053a1.186,1.186,0,1,1,2.371,0V7a1.185,1.185,0,0,1-1.186,1.186" transform="translate(-8576.717 1610.612)" fill="#12263f"/>
      <path id="Trazado_826554" data-name="Trazado 826554" d="M14.645,9.273a1.186,1.186,0,0,1-1.084-.705l-1.6-3.607A1.186,1.186,0,0,1,14.128,4L15.73,7.6a1.187,1.187,0,0,1-.6,1.565,1.174,1.174,0,0,1-.481.1" transform="translate(-8581.14 1611.557)" fill="#12263f"/>
      <path id="Trazado_826555" data-name="Trazado 826555" d="M10.417,12.289a1.188,1.188,0,0,1-.793-.3L6.776,9.425A1.186,1.186,0,1,1,8.361,7.661l2.85,2.559a1.186,1.186,0,0,1-.793,2.069" transform="translate(-8584.77 1614.251)" fill="#12263f"/>
      <path id="Trazado_826556" data-name="Trazado 826556" d="M7.77,16.79a1.165,1.165,0,0,1-.366-.057L3.872,15.585a1.186,1.186,0,0,1,.733-2.255l3.532,1.146A1.187,1.187,0,0,1,7.77,16.79" transform="translate(-8586.976 1618.172)" fill="#12263f"/>
      <path id="Trazado_826557" data-name="Trazado 826557" d="M3.6,22.509a1.186,1.186,0,0,1-.12-2.366l3.593-.366a1.172,1.172,0,0,1,1.3,1.059,1.186,1.186,0,0,1-1.059,1.3L3.724,22.5a1.008,1.008,0,0,1-.121.007" transform="translate(-8587.397 1622.478)" fill="#12263f"/>
      <path id="Trazado_826558" data-name="Trazado 826558" d="M5.757,29.433a1.186,1.186,0,0,1-.594-2.213L8.177,25.48a1.186,1.186,0,1,1,1.186,2.054L6.349,29.275a1.193,1.193,0,0,1-.592.158" transform="translate(-8585.971 1626.158)" fill="#12263f"/>
      <path id="Trazado_826559" data-name="Trazado 826559" d="M34.914,29.422a1.175,1.175,0,0,1-.6-.161l-3.013-1.753A1.185,1.185,0,1,1,32.5,25.46l3.013,1.751a1.186,1.186,0,0,1-.6,2.212" transform="translate(-8568.64 1626.143)" fill="#12263f"/>
      <path id="Trazado_826560" data-name="Trazado 826560" d="M37.293,22.485a.754.754,0,0,1-.121-.007l-3.592-.363a1.187,1.187,0,0,1,.239-2.361l3.592.366a1.185,1.185,0,0,1-.118,2.365" transform="translate(-8567.448 1622.463)" fill="#12263f"/>
      <path id="Trazado_826561" data-name="Trazado 826561" d="M33.084,16.769a1.187,1.187,0,0,1-.367-2.315l3.517-1.147a1.187,1.187,0,0,1,.737,2.257l-3.519,1.146a1.134,1.134,0,0,1-.368.06" transform="translate(-8567.855 1618.157)" fill="#12263f"/>
      <path id="Trazado_826562" data-name="Trazado 826562" d="M30.157,12.254a1.186,1.186,0,0,1-.795-2.067l2.787-2.509A1.186,1.186,0,1,1,33.737,9.44L30.95,11.949a1.186,1.186,0,0,1-.793.3" transform="translate(-8569.796 1614.261)" fill="#12263f"/>
      <path id="Trazado_826563" data-name="Trazado 826563" d="M25.433,9.24A1.187,1.187,0,0,1,24.35,7.572l1.575-3.544a1.186,1.186,0,0,1,2.168.963L26.517,8.535a1.186,1.186,0,0,1-1.084.705" transform="translate(-8572.927 1611.576)" fill="#12263f"/>
      <path id="Trazado_826564" data-name="Trazado 826564" d="M31.737,29.118H14.571a1.186,1.186,0,0,1,0-2.373H31.737a1.186,1.186,0,0,1,0,2.373" transform="translate(-8580.127 1627.103)" fill="#12263f"/>
      <path id="Trazado_826565" data-name="Trazado 826565" d="M31.262,32.091H14.775a1.186,1.186,0,0,1,0-2.373H31.262a1.186,1.186,0,0,1,0,2.373" transform="translate(-8579.992 1629.073)" fill="#12263f"/>
      <path id="Trazado_826566" data-name="Trazado 826566" d="M29.743,35.395H15.428a1.186,1.186,0,0,1,0-2.373H29.743a1.186,1.186,0,0,1,0,2.373" transform="translate(-8579.56 1631.264)" fill="#12263f"/>
      <path id="Trazado_826567" data-name="Trazado 826567" d="M23.151,44.945a8.294,8.294,0,0,1-6.086-2.669L14.7,39.707a4.958,4.958,0,0,1-1.314-3.367V27.932a1.187,1.187,0,0,1,1.186-1.187H31.735a1.187,1.187,0,0,1,1.186,1.187V36.34a4.965,4.965,0,0,1-1.314,3.367l-2.368,2.569a8.3,8.3,0,0,1-6.088,2.669m-7.4-15.827V36.34a2.592,2.592,0,0,0,.687,1.759l2.368,2.569a5.9,5.9,0,0,0,8.685,0L29.862,38.1a2.591,2.591,0,0,0,.685-1.759V29.118Z" transform="translate(-8580.129 1627.103)" fill="#12263f"/>
    </g>
  </g>
</svg>
