<svg xmlns="http://www.w3.org/2000/svg" width="89.764" height="89.764" viewBox="0 0 89.764 89.764">
  <g id="Grupo_1077912" data-name="Grupo 1077912" transform="translate(-1257.172 -2840.171)">
    <g id="Grupo_1077911" data-name="Grupo 1077911">
      <g id="Grupo_1077910" data-name="Grupo 1077910">
        <g id="Grupo_1077909" data-name="Grupo 1077909">
          <g id="Grupo_1076300" data-name="Grupo 1076300" transform="translate(1257.172 2840.172)">
            <ellipse id="Elipse_4775" data-name="Elipse 4775" cx="44.882" cy="44.882" rx="44.882" ry="44.882" transform="translate(0 0)" fill="#ff8e7c"/>
            <g id="Grupo_143141" data-name="Grupo 143141" transform="translate(21.592 19.504)">
              <path id="Trazado_184357" data-name="Trazado 184357" d="M2875.463-2070.382c1.317-3.244,2.488-4.025,6.041-4.026,2.3,0,4.6,0,6.9,0,.714,0,1.382.1,1.381,1,0,.878-.649,1.042-1.367,1.043-2.593,0-5.186-.006-7.779,0a2.9,2.9,0,0,0-3.152,3.127q-.022,15.285,0,30.57a3.087,3.087,0,0,0,3.2,3.3c9.386.027,18.772.012,28.159.008a5.062,5.062,0,0,0,.571-.082v-1.169c0-2.374-.019-4.748.005-7.122a5.013,5.013,0,0,1,4.946-4.971c.985-.017,1.972.016,2.958-.01.731-.018,1.286.245,1.264,1.011-.021.742-.58,1.022-1.3,1.008q-1.369-.026-2.74,0a3.027,3.027,0,0,0-3.115,3.115c-.024,2.151-.006,4.3-.006,6.608a7.276,7.276,0,0,0,.654-.507c3.36-3.354,6.731-6.7,10.053-10.089a2.386,2.386,0,0,0,.609-1.511c.04-6.573.015-13.148.052-19.722a1.712,1.712,0,0,1,.593-1.333c.328-.156.923.247,1.4.4v22.364l-14.032,14.032h-30.914a5.575,5.575,0,0,1-4.385-4.385Z" transform="translate(-2875.463 2082.66)" fill="#12263f"/>
              <path id="Trazado_184358" data-name="Trazado 184358" d="M2965.318-2112.042a2.55,2.55,0,0,1,1.546,2.723c-.063,1.71,0,3.425-.02,5.138a2.154,2.154,0,0,1-2.42,2.431q-5.795.025-11.589,0a2.154,2.154,0,0,1-2.418-2.433c-.015-1.713.046-3.428-.02-5.138a2.544,2.544,0,0,1,1.547-2.721Zm-12.841,8.181h12.269v-6.095h-12.269Z" transform="translate(-2933.964 2112.042)" fill="#12263f"/>
              <path id="Trazado_184359" data-name="Trazado 184359" d="M2958.665-2045.5c-1.934,0-3.867.009-5.8,0-1.647-.01-2.391-.762-2.4-2.423-.012-1.824-.015-3.649,0-5.473a2.087,2.087,0,0,1,2.368-2.349q5.856-.021,11.712,0a2.087,2.087,0,0,1,2.346,2.371c.016,1.86.02,3.721,0,5.582a2.062,2.062,0,0,1-2.312,2.29C2962.606-2045.491,2960.635-2045.5,2958.665-2045.5Zm6.162-2.075v-6.074h-12.3v6.074Z" transform="translate(-2934.01 2068.102)" fill="#12263f"/>
              <path id="Trazado_184360" data-name="Trazado 184360" d="M2958.6-1989.144c-1.97,0-3.939.014-5.909,0a2.011,2.011,0,0,1-2.236-2.234q-.036-2.845,0-5.69a1.989,1.989,0,0,1,2.2-2.254q6.018-.025,12.036,0a1.972,1.972,0,0,1,2.18,2.167q.041,2.9,0,5.8a2.015,2.015,0,0,1-2.259,2.212C2962.611-1989.131,2960.6-1989.144,2958.6-1989.144Zm-6.075-8.124v6.024h12.262v-6.024Z" transform="translate(-2934 2024.05)" fill="#12263f"/>
              <path id="Trazado_184361" data-name="Trazado 184361" d="M3038.4-2078.5a11.718,11.718,0,0,1,1.22.863c.5.455.647,1.108.061,1.491a1.514,1.514,0,0,1-1.421-.071,38.878,38.878,0,0,1-2.961-2.916,1.016,1.016,0,0,1,.03-1.554c.975-.987,1.916-2.016,2.971-2.907.293-.248.94-.078,1.425-.1a3.647,3.647,0,0,1-.052,1.449c-.205.417-.736.676-1.125,1l.137.306c1.213,0,2.431.065,3.634-.045a1.282,1.282,0,0,0,.81-.943c.067-2.736.049-5.474.034-8.212,0-.849-.553-1.1-1.319-1.091-1.862.014-3.723,0-5.584.008-.771,0-1.38-.274-1.23-1.108a1.381,1.381,0,0,1,1.009-.854q3.226-.116,6.458-.013a2.758,2.758,0,0,1,2.652,2.706q.078,4.433,0,8.869a2.784,2.784,0,0,1-2.772,2.7c-1.2.038-2.407.029-3.611.045-.02,0-.04.054-.06.083Z" transform="translate(-2999.98 2097.361)" fill="#12263f"/>
              <path id="Trazado_184362" data-name="Trazado 184362" d="M2900.837-2022.691c-1.042,0-2.085.006-3.128,0-2.27-.015-3.373-1.1-3.381-3.338-.009-2.591-.013-5.183,0-7.774a2.965,2.965,0,0,1,3.189-3.227c1.861-.021,3.723,0,5.584-.008.719,0,1.392.122,1.409.99.02.963-.7,1.031-1.456,1.022-1.751-.02-3.5.013-5.255-.013-.988-.014-1.493.35-1.48,1.407q.045,3.777,0,7.555c-.011.978.392,1.406,1.371,1.375,1.018-.033,2.039-.007,3.338-.007-.493-.512-.833-.856-1.162-1.209-.458-.49-.643-1.118-.06-1.508a1.511,1.511,0,0,1,1.422.055,38.419,38.419,0,0,1,2.967,2.91,1.074,1.074,0,0,1-.074,1.646q-1.381,1.4-2.784,2.789c-.506.5-1.1.663-1.629.087a.99.99,0,0,1,.206-1.533c.355-.309.764-.557,1.149-.833Z" transform="translate(-2890.185 2053.485)" fill="#12263f"/>
              <path id="Trazado_184363" data-name="Trazado 184363" d="M2907.22-1938.507c1.932,0,3.864-.015,5.795.005,1.692.018,2.347.707,2.361,2.41.027,3.467-.208,3.7-3.7,3.7-3.353,0-6.706.005-10.059,0-1.957,0-2.592-.657-2.6-2.636,0-.328,0-.656,0-.984.024-1.814.688-2.479,2.526-2.492C2903.43-1938.517,2905.325-1938.508,2907.22-1938.507Zm-6.109,3.987h12.19v-1.9h-12.19Z" transform="translate(-2893.844 1976.559)" fill="#12263f"/>
              <path id="Trazado_184364" data-name="Trazado 184364" d="M2986.964-1936.46c-.766,0-1.531.007-2.3,0-.656-.008-1.177-.258-1.2-.984s.473-1.022,1.141-1.027q2.406-.018,4.813,0c.672,0,1.152.279,1.133,1.025s-.52.985-1.182.99C2988.569-1936.455,2987.767-1936.46,2986.964-1936.46Z" transform="translate(-2959.786 1976.536)" fill="#12263f"/>
              <path id="Trazado_184365" data-name="Trazado 184365" d="M2985.137-1917.9c-.848,0-1.623-.028-1.628-.991,0-.926.723-1.051,1.474-1.06s1.484.122,1.508,1.031C2986.515-1917.968,2985.757-1917.887,2985.137-1917.9Z" transform="translate(-2959.82 1962.069)" fill="#12263f"/>
              <path id="Trazado_184366" data-name="Trazado 184366" d="M3003.775-1917.885c-.735,0-1.469-.073-1.428-1.053.039-.955.786-.995,1.508-1,.748,0,1.456.126,1.431,1.074C3005.26-1917.881,3004.487-1917.892,3003.775-1917.885Z" transform="translate(-2974.526 1962.055)" fill="#12263f"/>
            </g>
          </g>
        </g>
      </g>
    </g>
  </g>
</svg>
