<svg xmlns="http://www.w3.org/2000/svg" width="89.764" height="89.764" viewBox="0 0 89.764 89.764">
  <g id="Grupo_1077904" data-name="Grupo 1077904" transform="translate(-756.162 -2840.171)">
    <g id="Grupo_1077903" data-name="Grupo 1077903">
      <g id="Grupo_1077902" data-name="Grupo 1077902">
        <g id="Grupo_1076297" data-name="Grupo 1076297" transform="translate(756.162 2840.172)">
          <ellipse id="Elipse_4775" data-name="Elipse 4775" cx="44.882" cy="44.882" rx="44.882" ry="44.882" transform="translate(0 0)" fill="#ff8e7c"/>
          <g id="cBpRW6" transform="translate(18.465 11.193)">
            <g id="Grupo_143032" data-name="Grupo 143032" transform="translate(0 0)">
              <path id="Trazado_184068" data-name="Trazado 184068" d="M4964.425,865.322a13.3,13.3,0,0,1,3.229-8.107,12.988,12.988,0,0,1,20.294.836,1.47,1.47,0,0,0,1.353.692,11.292,11.292,0,0,1,10.354,6.011,1.854,1.854,0,0,0,1.043.815,9.852,9.852,0,0,1,7.644,9.885,9.741,9.741,0,0,1-8.7,9.38c-.411.049-.82.109-1.368.182,0,.66-.026,1.309.006,1.954.044.869-.312,1.363-1.206,1.262-.787-.089-1.127.224-1.266.975a5.106,5.106,0,0,1-.526,1.352c-.474.931-1.045,1.816.185,2.668.151.105.065.9-.161,1.144-1.15,1.254-2.381,2.434-3.59,3.636a.945.945,0,0,1-1.593-.12c-.476-.622-.918-.582-1.578-.23-.94.5-1.968.837-2.975,1.25-.255,1.991-.255,1.991-2.732,2.187v4.635c.052.036.1.1.16.106,2.154.042,2.117-.138,2.1,2.25,0,1.008-.022,2.017.007,3.024.022.79-.331,1.165-1.109,1.166-1.355,0-2.711-.007-4.067,0-.817.006-1.208-.346-1.187-1.2.032-1.286,0-2.573.011-3.859.008-1.224.133-1.337,1.406-1.356.271,0,.542-.023.869-.038v-4.717c-.744-.066-1.617.1-2.123-.261-.458-.324-.518-1.214-.8-1.989-.961-.421-2.114-.966-3.3-1.41a1.194,1.194,0,0,0-.92.336c-.909.8-1.132.821-1.986-.024-.988-.978-1.968-1.964-2.95-2.949-1.05-1.052-1.048-1.157.009-2.261.118-.124.226-.257.3-.34-.468-1.211-.88-2.385-1.392-3.514a1.12,1.12,0,0,0-.89-.429c-1.031.031-1.48-.386-1.394-1.426.048-.582.008-1.172.008-1.865a10.08,10.08,0,0,1-8.078-3.943,9.439,9.439,0,0,1-1.989-6.017C4955.586,870.834,4958.33,866.293,4964.425,865.322Zm33.851,17.895a17.046,17.046,0,0,0,2-.212,7.984,7.984,0,0,0,6.318-8.077,7.878,7.878,0,0,0-6.709-7.721,1.922,1.922,0,0,1-1.587-1.234,9.384,9.384,0,0,0-9.666-5.44,1.409,1.409,0,0,1-1.554-.705,11.283,11.283,0,0,0-20.9,5.807c-.033.994-.3,1.4-1.365,1.453a8.049,8.049,0,0,0-1.425,15.856,17.552,17.552,0,0,0,2.09.267c.227-1.749.23-1.739,1.952-2.185a.839.839,0,0,0,.466-.455c.473-1.143.911-2.3,1.376-3.494-.111-.118-.25-.271-.394-.419-.959-.984-.959-1.117.022-2.1.833-.837,1.677-1.665,2.505-2.508,1.366-1.389,1.431-1.615,2.948-.082.042.043.124.048.07.029,1.079-.444,2.05-.914,3.068-1.237.669-.212,1-.48.892-1.22-.09-.646.072-1.217.888-1.223,1.772-.015,3.546-.043,5.316.032.312.013.888.545.854.761-.2,1.261.534,1.563,1.517,1.849a20.657,20.657,0,0,1,2.49,1.081c.143-.132.3-.268.445-.412.993-.96,1.187-.956,2.191.048q1.253,1.253,2.507,2.507c1.384,1.383,1.384,1.382.055,2.853a.344.344,0,0,0-.058.137,28.875,28.875,0,0,1,1.24,3.008c.209.716.52.956,1.228.879.816-.089,1.248.3,1.22,1.15C4998.268,882.478,4998.276,882.75,4998.276,883.216Zm-27.883-7.548c1.057,1.266,1.008,1.242.233,2.823a19.972,19.972,0,0,0-1.212,3.19c-.22.75-.546,1.16-1.363,1.085a3.155,3.155,0,0,0-.686.085v3.68c1.461-.346,1.934.433,2.2,1.666a11.017,11.017,0,0,0,1.042,2.592c.8,1.565.827,1.55-.226,2.85l2.519,2.591c1.317-1.1,1.3-1.078,2.826-.289a11.686,11.686,0,0,0,2.486,1.034c1.218.3,2.273.609,1.792,2.263h3.726c.207-1.738.225-1.692.938-1.975,1.442-.571,2.849-1.237,4.3-1.772a2.123,2.123,0,0,1,1.282.152c.266.092.457.4.7.628l2.561-2.621c-1.081-1.292-1.054-1.278-.245-2.866a11.773,11.773,0,0,0,1.007-2.495c.295-1.2.654-2.168,2.214-1.759v-3.815c-1.6.435-1.9-.566-2.232-1.74a14.948,14.948,0,0,0-1.382-3.119,1.191,1.191,0,0,1,.224-1.731,2.78,2.78,0,0,0,.367-.443l-2.5-2.637c-.655.443-1.042,1.331-2.135.746-1.328-.712-2.807-1.139-4.18-1.776a2.121,2.121,0,0,1-.806-1.012,2.5,2.5,0,0,1-.023-.959h-3.843c.559,1.69-.516,1.976-1.743,2.268a7.836,7.836,0,0,0-2.386,1c-1.086.7-2.045,1.131-2.876-.33Zm10.154,31.893v2.9h2.771v-2.9Z" transform="translate(-4955.523 -852.734)" fill="#12263f"/>
              <path id="Trazado_184069" data-name="Trazado 184069" d="M5158.892,1060.056c-1.778,0-3.505-.01-5.233.005-.639.006-1.281-.056-1.275-.846.005-.775.635-.861,1.281-.855,1.91.015,3.822.03,5.731-.005.958-.017,1.284.409,1.276,1.325-.027,2.915-.01,5.83-.01,8.706.1.084.148.165.2.165,2.455-.051,2.1.259,2.116,2.34.008.972-.027,1.946.01,2.917.031.862-.384,1.193-1.192,1.188-1.32-.009-2.641-.019-3.96,0-.888.014-1.257-.4-1.243-1.271.021-1.215,0-2.432.006-3.647,0-1.327.16-1.478,1.494-1.5.242,0,.483-.021.8-.036Zm2.321,13.136v-2.881h-2.795v2.881Z" transform="translate(-5111.311 -1015.453)" fill="#12263f"/>
              <path id="Trazado_184070" data-name="Trazado 184070" d="M4968.786,1060.077c0,2.673,0,5.2,0,7.732,0,.236.021.472.031.691,2.3.319,2.3.319,2.3,2.69,0,.9-.02,1.806.006,2.708a.942.942,0,0,1-1.049,1.112q-2.136.018-4.271,0c-.73-.005-1.055-.4-1.047-1.122.014-1.285,0-2.569,0-3.854s.138-1.4,1.443-1.428c.269,0,.537-.03.9-.051v-8.361c0-1.806,0-1.806,1.793-1.806,1.771,0,3.542.01,5.313,0,.643-.005,1.142.189,1.128.9-.012.67-.515.8-1.1.8C4972.47,1060.068,4970.7,1060.077,4968.786,1060.077Zm-2.227,10.259v2.87h2.774v-2.87Z" transform="translate(-4962.827 -1015.474)" fill="#12263f"/>
              <path id="Trazado_184071" data-name="Trazado 184071" d="M5027.229,872.632a11.44,11.44,0,0,1,5.451,1.54c.572.335,1,.755.587,1.412-.394.62-.958.371-1.466.069a8.6,8.6,0,0,0-6.312-1.108c-3.283.684-5.116,3-5.576,6.895-.073.612-.084,1.289-.9,1.235-.848-.056-.868-.745-.822-1.41A8.858,8.858,0,0,1,5027.229,872.632Z" transform="translate(-5005.102 -868.481)" fill="#12263f"/>
              <path id="Trazado_184072" data-name="Trazado 184072" d="M5043.2,975.345a8.533,8.533,0,0,0,8.452-8.215c.033-.664.2-1.262.95-1.211.781.053.789.724.765,1.351a10.285,10.285,0,0,1-20.553-.829c.176-5.441,4.749-10.049,9.923-9.952a1.528,1.528,0,0,1,1.106.525c.364.545-.125,1.068-.985,1.13a8.6,8.6,0,0,0,.342,17.2Z" transform="translate(-5016.682 -934.84)" fill="#12263f"/>
              <path id="Trazado_184073" data-name="Trazado 184073" d="M5067.472,985.677a5.191,5.191,0,0,1-4.759,5.255c-.6.059-1.185.043-1.288-.69-.112-.8.471-.956,1.118-1.032a3.49,3.49,0,0,0,3.244-3.449,3.547,3.547,0,0,0-7.075-.411c-.075.658-.166,1.235-.968,1.162-.848-.077-.755-.766-.72-1.359a5.237,5.237,0,0,1,10.448.524Z" transform="translate(-5035.831 -953.792)" fill="#12263f"/>
            </g>
          </g>
        </g>
      </g>
    </g>
  </g>
</svg>
