<svg xmlns="http://www.w3.org/2000/svg" width="89.764" height="89.764" viewBox="0 0 89.764 89.764">
  <g id="Grupo_1077918" data-name="Grupo 1077918" transform="translate(-255.151 -2840.172)">
    <g id="Grupo_1077917" data-name="Grupo 1077917">
      <g id="Grupo_1077916" data-name="Grupo 1077916">
        <g id="Grupo_1077915" data-name="Grupo 1077915">
          <g id="Grupo_1077914" data-name="Grupo 1077914">
            <g id="Grupo_1077913" data-name="Grupo 1077913">
              <g id="Grupo_1076296" data-name="Grupo 1076296" transform="translate(255.151 2840.172)">
                <g id="Grupo_1077898" data-name="Grupo 1077898">
                  <g id="Grupo_1077897" data-name="Grupo 1077897">
                    <g id="Grupo_1077896" data-name="Grupo 1077896">
                      <path id="Trazado_824461" data-name="Trazado 824461" d="M44.882,0A44.882,44.882,0,1,1,0,44.882,44.882,44.882,0,0,1,44.882,0Z" fill="#ff8e7c"/>
                    </g>
                  </g>
                </g>
                <g id="ikyWAX.tif" transform="translate(27.457 13.301)">
                  <g id="Grupo_142576" data-name="Grupo 142576" transform="translate(0 0)">
                    <path id="Trazado_183819" data-name="Trazado 183819" d="M-1035.235,1521.1q0,12.659,0,25.319c0,2.145,1.021,3.152,3.176,3.151h25.316c1.747,0,2.482-.718,2.5-2.505.021-2.309.006-4.618.006-6.927q0-4.339,0-8.679a2.291,2.291,0,0,1,.043-.709.549.549,0,0,1,.4-.278c.1-.012.284.154.322.275a2.173,2.173,0,0,1,.04.63c0,5.149.011,10.3-.01,15.446a5.662,5.662,0,0,1-.287,1.786,2.384,2.384,0,0,1-2.524,1.773q-13.1.008-26.192,0a3.493,3.493,0,0,1-3.6-3.628q-.006-25.718,0-51.435a3.486,3.486,0,0,1,3.615-3.612q13.056-.013,26.112,0a2.987,2.987,0,0,1,3.2,3.255q-.049,3.5-.172,7c-.009.243-.275.478-.422.716-.123-.253-.353-.508-.351-.76.023-2.255.092-4.51.136-6.766.035-1.792-.8-2.635-2.6-2.635q-12.817,0-25.634,0c-2.033,0-3.067,1.045-3.067,3.1Q-1035.236,1508.356-1035.235,1521.1Z" transform="translate(1036.052 -1491.699)" fill="#fff" stroke="#12263f" stroke-width="1"/>
                    <path id="Trazado_183820" data-name="Trazado 183820" d="M-992.566,1522.564c0,1.894.011,3.719-.018,5.544,0,.173-.253.341-.388.512-.136-.192-.383-.38-.389-.576-.037-1.22-.02-2.441-.02-3.661,0-.312,0-.625,0-.987h-26.037v43.115h26.037v-.967q0-4.06,0-8.12a2.4,2.4,0,0,1,.044-.709.562.562,0,0,1,.378-.309c.1-.018.25.15.339.265a.54.54,0,0,1,.054.306c0,3.42,0,6.84,0,10.324h-27.663v-44.738Z" transform="translate(1022.751 -1517.641)" fill="#fff" stroke="#12263f" stroke-width="1"/>
                    <path id="Trazado_183821" data-name="Trazado 183821" d="M-879.674,1590.76c1.054,0,2.005-.018,2.955.012a2.966,2.966,0,0,1,.778.247,2.672,2.672,0,0,1-.257.7c-2.341,3.184-4.7,6.355-7.043,9.538-.383.52-.677.574-1.086.018-2.355-3.206-4.732-6.4-7.09-9.6-.128-.173-.271-.516-.194-.619a.936.936,0,0,1,.657-.282c.976-.03,1.954-.013,3.039-.013v-.9c0-2.442.016-4.883-.009-7.324-.006-.646.2-.893.87-.882q3.263.05,6.527,0c.672-.01.869.234.862.882C-879.69,1585.239-879.674,1587.943-879.674,1590.76Zm-10.814.81,6.7,9.044,6.693-9.044c-1,0-1.8-.034-2.586.011-.643.036-.82-.224-.814-.835.025-2.467.01-4.935.01-7.4v-.815h-6.61v.916c0,2.388-.029,4.777.016,7.164.015.785-.255,1.03-1.009.973C-888.819,1591.527-889.558,1591.571-890.489,1591.571Z" transform="translate(914.669 -1567.304)" fill="#fff" stroke="#12263f" stroke-width="1"/>
                    <path id="Trazado_183822" data-name="Trazado 183822" d="M-903.43,1705.307c0-.79-.029-1.507.018-2.219.013-.2.247-.39.38-.583.136.186.363.36.39.56a11.008,11.008,0,0,1,.018,1.415h17.809a11.227,11.227,0,0,1,.02-1.435c.026-.194.268-.36.412-.539.124.172.346.339.355.517.04.739.017,1.481.017,2.283Z" transform="translate(924.592 -1668.878)" fill="#fff" stroke="#12263f" stroke-width="1"/>
                    <path id="Trazado_183823" data-name="Trazado 183823" d="M-944.686,1811.328a2.607,2.607,0,0,1,2.585,2.652,2.655,2.655,0,0,1-2.663,2.6,2.66,2.66,0,0,1-2.585-2.673A2.609,2.609,0,0,1-944.686,1811.328Zm-.007.809a1.816,1.816,0,0,0-1.848,1.791,1.859,1.859,0,0,0,1.823,1.835,1.866,1.866,0,0,0,1.809-1.771A1.82,1.82,0,0,0-944.693,1812.137Z" transform="translate(961.499 -1760.342)" fill="#fff" stroke="#12263f" stroke-width="1"/>
                    <path id="Trazado_183824" data-name="Trazado 183824" d="M-943.953,1507.752c-.635,0-1.272.027-1.9-.018-.174-.012-.333-.24-.5-.37.162-.137.32-.388.485-.392q1.943-.049,3.888,0c.154,0,.3.272.453.418-.173.12-.34.332-.52.344C-942.681,1507.779-943.318,1507.752-943.953,1507.752Z" transform="translate(960.663 -1504.515)" fill="#fff" stroke="#12263f" stroke-width="1"/>
                  </g>
                </g>
              </g>
            </g>
          </g>
        </g>
      </g>
    </g>
  </g>
</svg>
