<svg xmlns="http://www.w3.org/2000/svg" width="92" height="92" viewBox="0 0 92 92">
  <g id="Grupo_1077918" data-name="Grupo 1077918" transform="translate(-180 -13423)">
    <g id="covid-test_1_" data-name="covid-test (1)" transform="translate(180 13423.978)">
      <path id="Trazado_2267" data-name="Trazado 2267" d="M29.843,87.339,98.83,80.132a40.654,40.654,0,1,0-68.987,7.207Z" transform="translate(-18 -18.342)" fill="#ff6148"/>
      <path id="Trazado_2268" data-name="Trazado 2268" d="M268.529,261.921a18.458,18.458,0,0,1-2.663,2.546,9.753,9.753,0,0,1-8.947,1.579l.2,1.054a10.106,10.106,0,0,1-1.955,5.253,4.89,4.89,0,0,0-.552.175,13.337,13.337,0,0,0,13.432-1.7,26.913,26.913,0,0,0,2.411-2.12C268.988,266.983,268.6,264.025,268.529,261.921Z" transform="translate(-212.454 -218.464)" fill="#ff6148"/>
      <path id="Trazado_2269" data-name="Trazado 2269" d="M224.665,261.921c-.072,2.1-.46,5.062-1.926,6.788a26.911,26.911,0,0,0,2.411,2.119,13.188,13.188,0,0,0,3.226,1.841,3.531,3.531,0,0,1,.344-.094,10.244,10.244,0,0,0,2.064-5.494l-.182-.954a9.715,9.715,0,0,1-3.273-1.661A18.5,18.5,0,0,1,224.665,261.921Z" transform="translate(-185.869 -218.464)" fill="#ff6148"/>
      <path id="Trazado_2272" data-name="Trazado 2272" d="M288.3,76.19a7.772,7.772,0,0,0-2.659-3.817,15.581,15.581,0,0,0-10.807-2.718c.043.022.083.047.126.069a2.519,2.519,0,0,0-.182,1.673,1.959,1.959,0,0,0,.884,1.121c-.055.079-.118.176-.184.288a19.084,19.084,0,0,1,10.163,2.136,6.269,6.269,0,0,1,2.659,2.936l1.028,2.309Z" transform="translate(-229.21 -58.015)" fill="#ff6148"/>
      <path id="Trazado_2273" data-name="Trazado 2273" d="M222.048,72.732a1.939,1.939,0,0,1-.737-2.83,15.158,15.158,0,0,0-7.644,2.761,7.771,7.771,0,0,0-2.659,3.817l-1.028,4,1.028-2.309a6.27,6.27,0,0,1,2.659-2.936,18.4,18.4,0,0,1,8.122-2.148A3.071,3.071,0,0,1,222.048,72.732Z" transform="translate(-175.226 -58.304)" fill="#ff6148"/>
      <path id="Trazado_2274" data-name="Trazado 2274" d="M367.517,145.731c-.676-.619-2.187-.305-2.769.074a8.174,8.174,0,0,1,.025,2.408l-.687,5c0,.4-.013.8-.036,1.188a2.265,2.265,0,0,0,2.812-2.03,7.654,7.654,0,0,1,.3-1.309C367.6,149.672,369.21,147.282,367.517,145.731Z" transform="translate(-303.734 -121.259)" fill="#ff6148"/>
      <path id="Trazado_2275" data-name="Trazado 2275" d="M184.077,145.731c.676-.619,2.187-.305,2.769.074a8.181,8.181,0,0,0-.025,2.408l.687,5c0,.4.013.8.036,1.188a2.265,2.265,0,0,1-2.812-2.03,7.694,7.694,0,0,0-.3-1.309C183.991,149.672,182.383,147.282,184.077,145.731Z" transform="translate(-152.988 -121.259)" fill="#ff6148"/>
      <path id="Trazado_2277" data-name="Trazado 2277" d="M221.492,120a9.536,9.536,0,0,1-2.681-2.268,9.2,9.2,0,0,1-2-5.794V101.521a1.739,1.739,0,0,1,0-2.355c-2.92-2.365-.614-6.107-.614-6.107a1.232,1.232,0,0,1,0-1.991,2.991,2.991,0,0,1-.008-4.057,18.491,18.491,0,0,0-8.373,2.159,6.269,6.269,0,0,0-2.659,2.936l-.725,1.628h0l-1.248,2.8a8.108,8.108,0,0,0-.141,2.991l.687,5a18.382,18.382,0,0,0,7.106,14.618,9.762,9.762,0,0,0,10.653.849Z" transform="translate(-169.378 -72.575)" fill="#ff6148"/>
      <g id="Grupo_20679" data-name="Grupo 20679" transform="translate(32.134 23.374)">
        <path id="Trazado_2278" data-name="Trazado 2278" d="M198.277,148.246l-3.969-6.219a.747.747,0,1,1,1.259-.8l3.969,6.218a.747.747,0,1,1-1.259.8Z" transform="translate(-194.191 -140.879)" fill="#ff6148"/>
      </g>
      <g id="Grupo_20680" data-name="Grupo 20680" transform="translate(57.532 23.374)">
        <path id="Trazado_2279" data-name="Trazado 2279" d="M347.614,148.429a.747.747,0,0,1-.228-1.031l3.941-6.175a.747.747,0,0,1,1.259.8l-3.941,6.175A.746.746,0,0,1,347.614,148.429Z" transform="translate(-347.269 -140.878)" fill="#ff6148"/>
      </g>
      <path id="Trazado_2280" data-name="Trazado 2280" d="M293.377,165.761a14.039,14.039,0,0,1-7.249-1.729,6.779,6.779,0,0,0-3.985-.9,1.789,1.789,0,0,0,.333,1.958v10.316a9.474,9.474,0,0,0,2.052,5.95,9.8,9.8,0,0,0,2.914,2.421,9.671,9.671,0,0,0,1.259-.827,18.691,18.691,0,0,0,4.326-4.8,6.593,6.593,0,0,0,.986-3.188l.31-7.863C294.358,166.359,293.92,165.743,293.377,165.761Z" transform="translate(-235.29 -136.045)" fill="#ff6148"/>
      <path id="Trazado_2281" data-name="Trazado 2281" d="M228.1,185.029a9.755,9.755,0,0,0,4.972-1.361,9.6,9.6,0,0,1-2.976-2.433,9.2,9.2,0,0,1-2-5.794V165.025a1.556,1.556,0,0,1-.3-1.877,6.907,6.907,0,0,0-3.105.919,14.039,14.039,0,0,1-7.248,1.73c-.543-.018-.981.6-.946,1.335l.31,7.863a6.593,6.593,0,0,0,.986,3.188,18.685,18.685,0,0,0,4.327,4.8,9.744,9.744,0,0,0,5.974,2.043Z" transform="translate(-180.668 -136.079)" fill="#ff6148"/>
      <path id="Trazado_2283" data-name="Trazado 2283" d="M91.419,311.575h-.268s-13.919,3.587-17.258,10.476a28.261,28.261,0,0,0-2,6.826,40.816,40.816,0,0,0,14.931,12.068V330.362c0-11.448,13.081-11.6,13.081-11.6-.029-.122-.054-.24-.074-.356a18.18,18.18,0,0,1-3.571-2.162A32.051,32.051,0,0,1,91.419,311.575Z" transform="translate(-60.05 -259.88)" fill="#ff6148"/>
      <path id="Trazado_2284" data-name="Trazado 2284" d="M259.444,295.486a2.036,2.036,0,0,0-2.774.185,26.046,26.046,0,0,1-2.963,2.7,12.777,12.777,0,0,1-12.78,1.664,4.522,4.522,0,0,0-2.461,1.76,3.911,3.911,0,0,0-.459,2.932l-.174.01a18.343,18.343,0,0,0,19.287-1.972,32.138,32.138,0,0,0,5.109-4.991Z" transform="translate(-198.457 -246.077)" fill="#ff6148"/>
      <path id="Trazado_2285" data-name="Trazado 2285" d="M196.485,298.368a26.036,26.036,0,0,1-2.963-2.7,2.036,2.036,0,0,0-2.774-.185l-2.784,2.286a32.13,32.13,0,0,0,5.109,4.991,18.18,18.18,0,0,0,3.645,2.2c-.963-3.989,3-4.77,3-4.77A12.654,12.654,0,0,1,196.485,298.368Z" transform="translate(-156.863 -246.077)" fill="#ff6148"/>
      <path id="Trazado_2286" data-name="Trazado 2286" d="M291.5,114.01a4.776,4.776,0,0,0-3.861-2.545H276.817a1.669,1.669,0,0,0-.441,1.081,1.358,1.358,0,0,0,.47.966c-.417.792-1.829,3.926.589,6.087a1.9,1.9,0,0,0,.08,2.4.443.443,0,0,1,.6.072c2.365,2.8,4.151,3.407,5.257,3.407h3.435a4.46,4.46,0,0,0,3.23-1.42,6.8,6.8,0,0,0,1.984-4.606V115.8A3.3,3.3,0,0,0,291.5,114.01Z" transform="translate(-230.34 -92.971)" fill="#ff6148"/>
      <path id="Trazado_2287" data-name="Trazado 2287" d="M214.466,122.075a.442.442,0,0,1,.339-.157,1.739,1.739,0,0,1,0-2.355c-2.92-2.365-.614-6.107-.614-6.107a1.232,1.232,0,0,1,0-1.991h-9.253a4.776,4.776,0,0,0-3.861,2.545,3.294,3.294,0,0,0-.517,1.788v3.657a6.806,6.806,0,0,0,1.984,4.606,4.461,4.461,0,0,0,3.23,1.42h3.435C210.315,125.482,212.1,124.872,214.466,122.075Z" transform="translate(-167.369 -92.971)" fill="#ff6148"/>
      <path id="Trazado_2288" data-name="Trazado 2288" d="M286.209,123.466h-2.641a14.426,14.426,0,0,1-4.544,0h-2.233c.018.019.036.038.055.056-.417.792-1.828,3.924.587,6.085a1.794,1.794,0,0,1,.342-.035,1.815,1.815,0,0,1,1.43.7c.087.111.175.218.262.324a7.2,7.2,0,0,1,1.711.7,14,14,0,0,0,7.036,1.734,2.621,2.621,0,0,0,.208-.169A6.748,6.748,0,0,1,290,129.9a3.8,3.8,0,0,0,.027-.436v-2.179A18.529,18.529,0,0,0,286.209,123.466Z" transform="translate(-230.34 -102.981)" fill="#ff6148"/>
      <path id="Trazado_2289" data-name="Trazado 2289" d="M223.383,130.272a1.815,1.815,0,0,1,1.43-.7c-2.92-2.365-.614-6.107-.614-6.107h-9.253c-1.026,0-1.871,1.141-2.187,1.632a1.307,1.307,0,0,0-.2.71v3.657A4.86,4.86,0,0,0,214,132.707a2.636,2.636,0,0,0,.37.326,13.994,13.994,0,0,0,7.037-1.734,7.2,7.2,0,0,1,1.712-.7C223.209,130.49,223.3,130.383,223.383,130.272Z" transform="translate(-177.378 -102.98)" fill="#ff6148"/>
      <path id="Trazado_2290" data-name="Trazado 2290" d="M304.01,166.479a.7.7,0,0,0-.154-.014,14.038,14.038,0,0,1-7.248-1.729,7.136,7.136,0,0,0-2.053-.785c.027.03.055.058.08.09,1.595,2.021,3.152,3.227,4.166,3.227h3.435A2.428,2.428,0,0,0,304.01,166.479Z" transform="translate(-245.768 -136.748)" fill="#ff6148"/>
      <path id="Trazado_2291" data-name="Trazado 2291" d="M228.69,164.735a14.039,14.039,0,0,1-7.248,1.729.7.7,0,0,0-.154.014,2.43,2.43,0,0,0,1.775.789H226.5c1.013,0,2.571-1.206,4.166-3.227.025-.032.053-.06.08-.09A7.136,7.136,0,0,0,228.69,164.735Z" transform="translate(-184.657 -136.748)" fill="#ff6148"/>
      <path id="Trazado_2292" data-name="Trazado 2292" d="M338.68,123.466h-1.433l3.82,3.82v-1.478a1.308,1.308,0,0,0-.2-.711C340.551,124.607,339.707,123.466,338.68,123.466Z" transform="translate(-281.378 -102.981)" fill="#ff6148"/>
      <path id="Trazado_2293" data-name="Trazado 2293" d="M298.485,123.466h-4.544l9.4,9.4c.056-.05.11-.1.162-.157a5.068,5.068,0,0,0,1.417-2.807Z" transform="translate(-245.257 -102.981)" fill="#ff6148"/>
      <path id="Trazado_2294" data-name="Trazado 2294" d="M276.223,323.733h-2.6a.986.986,0,0,0-.986.986v30.237a40.9,40.9,0,0,0,4.573-.372V324.719A.985.985,0,0,0,276.223,323.733Z" transform="translate(-227.487 -270.021)" fill="#ff6148"/>
      <path id="Trazado_2295" data-name="Trazado 2295" d="M39.331,200.569a7.639,7.639,0,0,0,6.089,2.472l7.534,7.936a7.806,7.806,0,0,0,3.215,4.912c2.042,1.347,4.77,1.605,8.108.774a18.066,18.066,0,0,0-26.771-23.824c-.135,1.094-.437,5.052,1.825,7.73Z" transform="translate(-31.291 -157.149)" fill="#ff6148"/>
      <g id="Grupo_20681" data-name="Grupo 20681" transform="translate(17.236 25.854)">
        <path id="Trazado_2297" data-name="Trazado 2297" d="M105.231,165.422a.83.83,0,0,1-.83-.83v-7.934a.83.83,0,1,1,1.659,0v7.934A.83.83,0,0,1,105.231,165.422Z" transform="translate(-104.401 -155.829)" fill="#ff6148"/>
      </g>
      <path id="Trazado_2298" data-name="Trazado 2298" d="M101.629,204.711h-.966a.725.725,0,0,0-.71.582l-.238,1.191a10.832,10.832,0,0,0-.21,2.124v4.224h3.284v-4.224a10.835,10.835,0,0,0-.21-2.124l-.238-1.191A.724.724,0,0,0,101.629,204.711Z" transform="translate(-83.08 -170.746)" fill="#ff6148"/>
      <path id="Trazado_2299" data-name="Trazado 2299" d="M101.895,210.839a.75.75,0,0,1-.748-.748v-4.92a.739.739,0,0,1,.163-.46h-.646a.725.725,0,0,0-.71.582l-.238,1.191a10.833,10.833,0,0,0-.21,2.124v4.224h3.284V210.84h-.894Z" transform="translate(-83.081 -170.747)" fill="#ff6148"/>
      <path id="Trazado_2300" data-name="Trazado 2300" d="M96.813,253.659h4.177V256.6H96.813Z" transform="translate(-80.836 -211.573)" fill="#ff6148"/>
      <g id="Grupo_20682" data-name="Grupo 20682" transform="translate(14.747 41.256)">
        <path id="Trazado_2301" data-name="Trazado 2301" d="M95.205,250.318H90.227a.83.83,0,1,1,0-1.659h4.979a.83.83,0,1,1,0,1.659Z" transform="translate(-89.397 -248.659)" fill="#ff6148"/>
      </g>
      <path id="Trazado_2302" data-name="Trazado 2302" d="M93.149,270.106h-6a.83.83,0,0,0-.83.83v1.122h7.659v-1.122A.83.83,0,0,0,93.149,270.106Z" transform="translate(-72.084 -225.291)" fill="#ff6148"/>
      <path id="Trazado_2303" data-name="Trazado 2303" d="M110.736,295.716a2.059,2.059,0,0,0-2.053,2.053v14.546a2.05,2.05,0,0,0,.926,1.71,18.114,18.114,0,0,0,3.023-.389v-17.92Z" transform="translate(-90.736 -246.652)" fill="#ff6148"/>
      <path id="Trazado_2304" data-name="Trazado 2304" d="M90.149,299.646V285.539a2,2,0,0,1,1.991-1.991h1.838v-2.707H86.319v20.388a18.135,18.135,0,0,0,3.829.408q.761,0,1.505-.063A2,2,0,0,1,90.149,299.646Z" transform="translate(-72.083 -234.245)" fill="#ff6148"/>
      <g id="Grupo_20683" data-name="Grupo 20683" transform="translate(13.407 49.732)">
        <path id="Trazado_2305" data-name="Trazado 2305" d="M83.89,301.405H82.149a.83.83,0,0,1,0-1.659H83.89a.83.83,0,0,1,0,1.659Z" transform="translate(-81.319 -299.746)" fill="#ff6148"/>
      </g>
      <g id="Grupo_20684" data-name="Grupo 20684" transform="translate(13.407 53.007)">
        <path id="Trazado_2306" data-name="Trazado 2306" d="M82.95,321.139h-.8a.83.83,0,0,1,0-1.659h.8a.83.83,0,0,1,0,1.659Z" transform="translate(-81.319 -319.48)" fill="#ff6148"/>
      </g>
      <g id="Grupo_20685" data-name="Grupo 20685" transform="translate(13.407 56.281)">
        <path id="Trazado_2307" data-name="Trazado 2307" d="M82.95,340.872h-.8a.83.83,0,0,1,0-1.659h.8a.83.83,0,0,1,0,1.659Z" transform="translate(-81.319 -339.213)" fill="#ff6148"/>
      </g>
      <g id="Grupo_20686" data-name="Grupo 20686" transform="translate(13.407 59.555)">
        <path id="Trazado_2308" data-name="Trazado 2308" d="M83.89,360.606H82.149a.83.83,0,0,1,0-1.659H83.89a.83.83,0,1,1,0,1.659Z" transform="translate(-81.319 -358.947)" fill="#ff6148"/>
      </g>
      <g id="Grupo_20687" data-name="Grupo 20687" transform="translate(13.407 62.829)">
        <path id="Trazado_2309" data-name="Trazado 2309" d="M82.95,380.339h-.8a.83.83,0,1,1,0-1.659h.8a.83.83,0,1,1,0,1.659Z" transform="translate(-81.319 -378.68)" fill="#ff6148"/>
      </g>
      <path id="Trazado_2310" data-name="Trazado 2310" d="M66.378,65.736c4.806,3.445,12.207,3.607,15-1.252,1.855-3.23-.033-7.638-1.846-10.656A40.852,40.852,0,0,0,66.378,65.736Z" transform="translate(-55.45 -44.897)" fill="#ff6148"/>
      <path id="Trazado_2311" data-name="Trazado 2311" d="M408.784,113.73a40.549,40.549,0,0,0-13.765-30.487c-1.654,2.193-2.149,5.7-1.155,10.494,1.991,9.6-10.9,11.639-2.821,21.913,4.216,5.364,11.414,5.393,17.276,4.223a40.933,40.933,0,0,0,.465-6.142Z" transform="translate(-324.006 -69.432)" fill="#ff6148"/>
      <path id="Trazado_2312" data-name="Trazado 2312" d="M274.922,443.076a2.387,2.387,0,0,1-2.286-1.7v11.7a40.884,40.884,0,0,0,4.573-.372V441.372A2.387,2.387,0,0,1,274.922,443.076Z" transform="translate(-227.487 -368.142)" fill="#ff6148"/>
      <path id="Trazado_2313" data-name="Trazado 2313" d="M421.775,403.327a13.9,13.9,0,0,0-3.017-4.78,1.48,1.48,0,0,0-2.539,1.035v8.939A40.874,40.874,0,0,0,421.775,403.327Z" transform="translate(-347.247 -332.047)" fill="#ff6148"/>
      <circle id="Elipse_10703" data-name="Elipse 10703" cx="46" cy="46" r="46" transform="translate(0 -0.978)" fill="#ff6148"/>
    </g>
    <g id="aplicaciones" transform="translate(89.653 13419.375)">
      <path id="Trazado_826572" data-name="Trazado 826572" d="M114.213,159.588V112H112v47.588a5.532,5.532,0,0,0,5.533,5.533h25.454v-2.213H117.533A3.33,3.33,0,0,1,114.213,159.588Z" transform="translate(0 -82.72)" fill="#12263f"/>
      <path id="Trazado_826573" data-name="Trazado 826573" d="M216,448h11.067v2.213H216Z" transform="translate(-89.613 -372.239)" fill="#12263f"/>
      <path id="Trazado_826574" data-name="Trazado 826574" d="M144,119.747a1.11,1.11,0,0,0,1.107,1.107h1.2a1.657,1.657,0,0,0,3.126,0h2.407a1.657,1.657,0,0,0,3.126,0h1.2a1.11,1.11,0,0,0,1.107-1.107v-3.32a1.128,1.128,0,0,0-.609-1l-1.881-.941-.941-1.881a1.112,1.112,0,0,0-1-.609h-4.427a1.128,1.128,0,0,0-1,.609l-.941,1.881-1.881.941a1.112,1.112,0,0,0-.609,1Zm2.213-2.642,1.6-.8a1.154,1.154,0,0,0,.5-.5l.8-1.6h3.057l.8,1.6a1.154,1.154,0,0,0,.5.5l1.6.8v1.536h-8.854V117.1Z" transform="translate(-27.573 -82.72)" fill="#12263f"/>
      <path id="Trazado_826575" data-name="Trazado 826575" d="M280.819,104v1.466l-1.522-1.217a1.122,1.122,0,0,0-1.383,0l-5.533,4.427a1.109,1.109,0,0,0,.678,1.978v3.32a1.11,1.11,0,0,0,1.107,1.107h8.854a1.11,1.11,0,0,0,1.107-1.107v-3.32a1.084,1.084,0,0,0,1.038-.747,1.1,1.1,0,0,0-.36-1.231l-1.8-1.439V104Zm1.107,5.533v3.32h-2.213V110.64H277.5v2.213h-2.213v-3.32a1.18,1.18,0,0,0-.042-.318l3.362-2.7,3.362,2.7A1.18,1.18,0,0,0,281.926,109.533Z" transform="translate(-137.832 -75.826)" fill="#12263f"/>
      <path id="Trazado_826576" data-name="Trazado 826576" d="M282.994,211.68l.733-1.466h1.536V208h-2.213a1.128,1.128,0,0,0-1,.609l-.8,1.6h-8.162a1.126,1.126,0,0,0-.858.4,1.141,1.141,0,0,0-.235.913l1.107,5.533a1.258,1.258,0,0,0,.263.526,1.626,1.626,0,0,0-.277.927,1.66,1.66,0,1,0,3.32,0,1.86,1.86,0,0,0-.1-.553h2.407a1.86,1.86,0,0,0-.1.553,1.66,1.66,0,1,0,3.32,0,1.739,1.739,0,0,0-.277-.927,1.113,1.113,0,0,0,.263-.526Zm-2.407.747-.664,3.32h-4.828l-.664-3.32Z" transform="translate(-137.848 -165.439)" fill="#12263f"/>
      <path id="Trazado_826577" data-name="Trazado 826577" d="M144,331.32a1.11,1.11,0,0,0,1.107,1.107h1.107v5.533a1.107,1.107,0,0,0,2.213,0v-1.107h5.533v1.107a1.107,1.107,0,0,0,2.213,0v-2.642l.609.3,1-1.978-1.923-.968a3.3,3.3,0,0,0-3-1.909h-2.628l-.041-.277A2.892,2.892,0,0,0,147.32,328a1.11,1.11,0,0,0-1.107,1.107v.194l-1.314.249a1.1,1.1,0,0,0-.9,1.093Zm4.427,1.287a1.09,1.09,0,0,0,.83.374h3.6a1.11,1.11,0,0,1,1.107,1.107v.553h-5.533Z" transform="translate(-27.573 -268.839)" fill="#12263f"/>
      <path id="Trazado_826578" data-name="Trazado 826578" d="M158.177,57.017l-6.336-7.124V21.533A5.532,5.532,0,0,0,146.307,16H117.533A5.532,5.532,0,0,0,112,21.533v5.533h2.213V21.533a3.33,3.33,0,0,1,3.32-3.32h28.774a3.33,3.33,0,0,1,3.32,3.32V60.918l-3.611-3.611a4.979,4.979,0,0,0-3.555-1.466,5.028,5.028,0,0,0-3.555,8.577l.291.291h-1.743V62.495h-2.213v3.32a1.11,1.11,0,0,0,1.107,1.107h2.642l-1.411,2.822,1.978,1,1.9-3.79,3.431,3.431a10,10,0,0,0-.4,9.739l.733,1.453v.844h2.213V81.309a1.243,1.243,0,0,0-.111-.5l-.844-1.688a7.79,7.79,0,0,1,.747-8.217,1.115,1.115,0,0,0-.1-1.453l-6.6-6.6a2.807,2.807,0,0,1,3.97-3.97l5.492,5.492,3.32,3.32,1.563-1.563-3.03-3V53.213l4.69,5.271a7.765,7.765,0,0,1,1.951,5.146V82.4h2.213V63.629A9.975,9.975,0,0,0,158.177,57.017Z" transform="translate(0)" fill="#12263f"/>
      <path id="Trazado_826579" data-name="Trazado 826579" d="M144,64h2.213v2.213H144Z" transform="translate(-27.573 -41.36)" fill="#12263f"/>
      <path id="Trazado_826580" data-name="Trazado 826580" d="M176,64h2.213v2.213H176Z" transform="translate(-55.146 -41.36)" fill="#12263f"/>
      <path id="Trazado_826581" data-name="Trazado 826581" d="M208,64h2.213v2.213H208Z" transform="translate(-82.72 -41.36)" fill="#12263f"/>
      <path id="Trazado_826582" data-name="Trazado 826582" d="M165.533,232.854v-3.32h3.32V227.32h-3.32V224H163.32v3.32H160v2.213h3.32v3.32Z" transform="translate(-41.36 -179.226)" fill="#12263f"/>
    </g>
  </g>
</svg>
