<svg xmlns="http://www.w3.org/2000/svg" width="89.764" height="89.764" viewBox="0 0 89.764 89.764">
  <g id="Grupo_1077901" data-name="Grupo 1077901" transform="translate(-505.656 -2840.171)">
    <g id="Grupo_1077900" data-name="Grupo 1077900">
      <g id="Grupo_1077899" data-name="Grupo 1077899">
        <g id="Grupo_1076298" data-name="Grupo 1076298" transform="translate(505.656 2840.172)">
          <ellipse id="Elipse_4775" data-name="Elipse 4775" cx="44.882" cy="44.882" rx="44.882" ry="44.882" transform="translate(0 0)" fill="#ff8e7c"/>
          <g id="Hi6H32.tif" transform="translate(18.747 14.739)">
            <g id="Grupo_143033" data-name="Grupo 143033" transform="translate(0 0)">
              <path id="Trazado_184074" data-name="Trazado 184074" d="M4488.074,514.139c-.642.617-1.273,1.245-1.927,1.849a1.826,1.826,0,0,0-.053,2.377c.461.44.915.888,1.385,1.318a1.03,1.03,0,0,1,.278,1.293c-.4.909-.812,1.816-1.211,2.727a.967.967,0,0,1-1.04.632,10.5,10.5,0,0,1-1.369-.106,1.878,1.878,0,0,0-2,.683,1.211,1.211,0,0,0-.378.936c.052.635.056,1.273.075,1.911a1.037,1.037,0,0,1-.732,1.1q-1.4.523-2.783,1.07a1,1,0,0,1-1.226-.33,14.676,14.676,0,0,1-1-1.188,1.655,1.655,0,0,0-1.56-.754,1.387,1.387,0,0,0-1.19.494c-.387.478-.846.9-1.27,1.348a.986.986,0,0,1-1.2.24c-.932-.4-1.853-.825-2.78-1.235a.968.968,0,0,1-.616-1.05c.053-.715.114-1.43.149-2.146a1.978,1.978,0,0,0-1.559-1.577c-.637.016-1.274.038-1.912.07a1.111,1.111,0,0,1-1.234-.8c-.322-.9-.674-1.786-1.029-2.672a1.023,1.023,0,0,1,.33-1.278,8.5,8.5,0,0,1,1.006-.843,1.842,1.842,0,0,0,.9-2.02,1.269,1.269,0,0,0-.284-.664c-.463-.493-.962-.953-1.463-1.409a1.053,1.053,0,0,1-.285-1.341c.4-.887.8-1.777,1.186-2.672a.989.989,0,0,1,1.083-.657c.676.052,1.35.108,2.026.145a1.877,1.877,0,0,0,1.682-1.629c-.017-.617-.036-1.235-.068-1.851a1.11,1.11,0,0,1,.816-1.225c.967-.356,1.914-.763,2.871-1.149h.477c.629.656,1.267,1.3,1.885,1.969a1.887,1.887,0,0,0,2.295.06c.456-.474.917-.941,1.358-1.427a1.051,1.051,0,0,1,1.343-.266c.869.393,1.739.783,2.616,1.157a1.044,1.044,0,0,1,.694,1.178c-.06.634-.079,1.271-.148,1.9a1.251,1.251,0,0,0,.342.955,1.791,1.791,0,0,0,1.9.768,7.715,7.715,0,0,1,1.191-.053,1.1,1.1,0,0,1,1.3.87q.563,1.406,1.126,2.812Zm-23.267-2.746c-.194.439-.352.85-.557,1.235-.169.316-.162.559.148.758a3.623,3.623,0,0,1,1.612,4.116c-.019.1.018.211-.021.3a3.323,3.323,0,0,1-.462.917,8.418,8.418,0,0,1-1.262,1.094.575.575,0,0,0-.2.856,1.477,1.477,0,0,1,.176.442c.114.666.506.78,1.138.753,2.29-.1,1.649-.254,3.246,1.287a2.755,2.755,0,0,1,.921,2.534c-.167,1.377-.108,1.4,1.2,1.9a.691.691,0,0,0,.593-.112c.455-.415.845-.9,1.3-1.317a1.405,1.405,0,0,1,.769-.385c1.742-.118,3.455-.114,4.418,1.752a.788.788,0,0,0,.195.225c.071.06.184.155.242.134a7.276,7.276,0,0,0,1.531-.635c.154-.1.114-.6.06-.9a2.817,2.817,0,0,1,1.265-3.088c.244-.166.408-.459.662-.6a2.706,2.706,0,0,1,1.116-.4,20.339,20.339,0,0,1,2.131.124,6.44,6.44,0,0,1,.4-.846c.383-.584.242-.968-.269-1.446-1.658-1.558-1.346-.889-1.368-3.273a2.636,2.636,0,0,1,1.13-2.325c1.16-.889,1.135-.937.494-2.258a.653.653,0,0,0-.476-.3c-.576-.02-1.163.087-1.729.019a2.31,2.31,0,0,1-1.145-.482,9.146,9.146,0,0,1-1.4-1.47,2.01,2.01,0,0,1-.386-1.061c-.031-.592.1-1.19.1-1.786a.7.7,0,0,0-.31-.522c-1.279-.652-1.283-.642-2.289.4a4.676,4.676,0,0,1-.416.428c-.243.2-.5.521-.761.524-1.588.018-3.327.425-4.326-1.4a2.386,2.386,0,0,0-.428-.5c-.079-.079-.213-.2-.279-.179a7.038,7.038,0,0,0-1.531.635c-.154.1-.106.593-.063.9a2.728,2.728,0,0,1-1.132,2.968c-.312.2-.523.562-.837.76a2.13,2.13,0,0,1-1.014.364C4466.287,511.542,4465.573,511.446,4464.807,511.393Z" transform="translate(-4434.747 -503.735)" fill="#12263f"/>
              <path id="Trazado_184075" data-name="Trazado 184075" d="M4250.779,609.563c.66-1.544,1.329-3.11,2.027-4.742h-2.718q-4.484,0-8.967,0a4.787,4.787,0,0,1-5.033-5.028q0-14.587,0-29.174a4.777,4.777,0,0,1,4.981-5.018q10.132-.008,20.265,0h.55v1.913H4241.23a2.9,2.9,0,0,0-3.229,3.2q0,11.927,0,23.854v.639h45.9v-11.4h1.927v.617q0,7.652,0,15.3a4.8,4.8,0,0,1-5.091,5.091q-5.44,0-10.879,0h-.747l2.044,4.783c1.334,0,2.649,0,3.962,0a2.874,2.874,0,1,1,.009,5.738q-14.167,0-28.333,0a2.875,2.875,0,1,1,.007-5.738c1.275,0,2.55,0,3.825-.007A.947.947,0,0,0,4250.779,609.563ZM4238,597.19c0,.88,0,1.7,0,2.511a2.905,2.905,0,0,0,3.229,3.206h20.564q9.536,0,19.071,0a2.782,2.782,0,0,0,2.979-2.375,28.191,28.191,0,0,0,.026-3.341Zm14.862,12.374h16.189c-.657-1.536-1.281-3.017-1.933-4.486a.591.591,0,0,0-.455-.246q-5.706-.02-11.412,0a.589.589,0,0,0-.455.245C4254.145,606.545,4253.52,608.027,4252.863,609.564Zm8.035,3.867h13.928a3.321,3.321,0,0,0,.6-.016.949.949,0,0,0,0-1.882,3,3,0,0,0-.537-.014h-27.857a2.969,2.969,0,0,0-.537.015.949.949,0,0,0,0,1.882,3.348,3.348,0,0,0,.6.016Z" transform="translate(-4236.086 -558.183)" fill="#12263f"/>
              <path id="Trazado_184076" data-name="Trazado 184076" d="M4308.172,783.246V781.4h28.62v1.843Z" transform="translate(-4299.534 -748.129)" fill="#12263f"/>
              <path id="Trazado_184077" data-name="Trazado 184077" d="M4332.17,749.558V751.4h-23.837v-1.843Z" transform="translate(-4299.675 -720.1)" fill="#12263f"/>
              <path id="Trazado_184078" data-name="Trazado 184078" d="M4329.306,717.632v1.842h-20.967v-1.842Z" transform="translate(-4299.68 -692)" fill="#12263f"/>
              <path id="Trazado_184079" data-name="Trazado 184079" d="M4326.344,685.591v1.846h-18.113v-1.846Z" transform="translate(-4299.585 -663.799)" fill="#12263f"/>
              <path id="Trazado_184080" data-name="Trazado 184080" d="M4278.055,611.565l2.315,2.136-1.382,1.366c-.967-.957-1.941-1.894-2.88-2.866a.867.867,0,0,1,.025-1.291c.926-.958,1.878-1.89,2.848-2.862l1.267,1.4Z" transform="translate(-4271.068 -595.547)" fill="#12263f"/>
              <path id="Trazado_184081" data-name="Trazado 184081" d="M4368.154,612.43l-2.312-2.126,1.441-1.3c.914.891,1.908,1.833,2.865,2.813a.815.815,0,0,1,0,1.2c-.957.98-1.951,1.922-2.948,2.9l-1.289-1.361Z" transform="translate(-4350.294 -596.387)" fill="#12263f"/>
              <path id="Trazado_184082" data-name="Trazado 184082" d="M4326.065,611.837l-1.85-.478,1.911-7.634,1.854.459C4327.338,606.754,4326.708,609.268,4326.065,611.837Z" transform="translate(-4313.655 -591.743)" fill="#12263f"/>
              <path id="Trazado_184083" data-name="Trazado 184083" d="M4276.209,687.474v-1.835h1.86v1.835Z" transform="translate(-4271.401 -663.841)" fill="#12263f"/>
              <path id="Trazado_184084" data-name="Trazado 184084" d="M4276.243,717.482h1.846v1.857h-1.846Z" transform="translate(-4271.431 -691.868)" fill="#12263f"/>
              <path id="Trazado_184085" data-name="Trazado 184085" d="M4278.2,751.382h-1.838v-1.849h1.838Z" transform="translate(-4271.535 -720.078)" fill="#12263f"/>
              <path id="Trazado_184086" data-name="Trazado 184086" d="M4525.648,751.417h-1.818v-1.86h1.818Z" transform="translate(-4489.349 -720.099)" fill="#12263f"/>
              <path id="Trazado_184087" data-name="Trazado 184087" d="M4557.577,751.417h-1.817v-1.86h1.817Z" transform="translate(-4517.452 -720.099)" fill="#12263f"/>
              <path id="Trazado_184088" data-name="Trazado 184088" d="M4278.124,783.254h-1.834v-1.86h1.834Z" transform="translate(-4271.471 -748.121)" fill="#12263f"/>
              <path id="Trazado_184089" data-name="Trazado 184089" d="M4563.452,783.38v-1.829h1.86v1.829Z" transform="translate(-4524.223 -748.26)" fill="#12263f"/>
              <path id="Trazado_184090" data-name="Trazado 184090" d="M4597.494,783.325h-1.835v-1.846h1.835Z" transform="translate(-4552.569 -748.196)" fill="#12263f"/>
              <path id="Trazado_184091" data-name="Trazado 184091" d="M4528.143,563.537a6.809,6.809,0,1,1-6.782-6.836A6.825,6.825,0,0,1,4528.143,563.537Zm-1.914-.038a4.9,4.9,0,1,0-4.905,4.906A4.911,4.911,0,0,0,4526.229,563.5Z" transform="translate(-4481.158 -550.354)" fill="#12263f"/>
              <path id="Trazado_184092" data-name="Trazado 184092" d="M4437.852,847.191h-1.836v-1.846h1.836Z" transform="translate(-4412.058 -804.409)" fill="#12263f"/>
            </g>
          </g>
        </g>
      </g>
    </g>
  </g>
</svg>
